G04*
G04 #@! TF.GenerationSoftware,Altium Limited,Altium Designer,18.1.7 (191)*
G04*
G04 Layer_Color=128*
%FSLAX25Y25*%
%MOIN*%
G70*
G01*
G75*
%ADD15C,0.00200*%
G36*
X1232709Y-62198D02*
X1231935D01*
Y-61314D01*
X1232709D01*
Y-62198D01*
D02*
G37*
G36*
X1257762Y-62954D02*
X1257862Y-62972D01*
X1257980Y-63008D01*
X1258108Y-63054D01*
X1258253Y-63118D01*
X1258408Y-63200D01*
X1258126Y-63910D01*
X1258117Y-63901D01*
X1258080Y-63883D01*
X1258026Y-63856D01*
X1257953Y-63828D01*
X1257871Y-63801D01*
X1257771Y-63774D01*
X1257670Y-63756D01*
X1257570Y-63746D01*
X1257525D01*
X1257479Y-63756D01*
X1257415Y-63765D01*
X1257352Y-63783D01*
X1257270Y-63810D01*
X1257188Y-63847D01*
X1257115Y-63901D01*
X1257106Y-63910D01*
X1257078Y-63929D01*
X1257051Y-63965D01*
X1257005Y-64011D01*
X1256960Y-64074D01*
X1256914Y-64147D01*
X1256869Y-64229D01*
X1256832Y-64329D01*
X1256823Y-64348D01*
X1256814Y-64402D01*
X1256796Y-64484D01*
X1256769Y-64594D01*
X1256741Y-64730D01*
X1256723Y-64885D01*
X1256714Y-65049D01*
X1256705Y-65231D01*
Y-67618D01*
X1255931D01*
Y-63045D01*
X1256632D01*
Y-63737D01*
X1256641Y-63728D01*
X1256678Y-63664D01*
X1256723Y-63582D01*
X1256796Y-63482D01*
X1256869Y-63382D01*
X1256951Y-63273D01*
X1257033Y-63182D01*
X1257115Y-63109D01*
X1257124Y-63099D01*
X1257151Y-63081D01*
X1257206Y-63054D01*
X1257261Y-63027D01*
X1257333Y-62999D01*
X1257425Y-62972D01*
X1257516Y-62954D01*
X1257616Y-62945D01*
X1257680D01*
X1257762Y-62954D01*
D02*
G37*
G36*
X1235980Y-65723D02*
X1233584D01*
Y-64949D01*
X1235980D01*
Y-65723D01*
D02*
G37*
G36*
X1221367Y-67618D02*
X1220565D01*
Y-62343D01*
X1218725Y-67618D01*
X1217978D01*
X1216156Y-62252D01*
Y-67618D01*
X1215355D01*
Y-61314D01*
X1216603D01*
X1218097Y-65787D01*
Y-65796D01*
X1218106Y-65814D01*
X1218115Y-65842D01*
X1218133Y-65887D01*
X1218169Y-65996D01*
X1218215Y-66133D01*
X1218261Y-66288D01*
X1218315Y-66443D01*
X1218361Y-66589D01*
X1218397Y-66716D01*
X1218406Y-66698D01*
X1218416Y-66652D01*
X1218443Y-66571D01*
X1218479Y-66461D01*
X1218525Y-66315D01*
X1218589Y-66142D01*
X1218652Y-65942D01*
X1218734Y-65705D01*
X1220247Y-61314D01*
X1221367D01*
Y-67618D01*
D02*
G37*
G36*
X1248633Y-67691D02*
Y-67700D01*
X1248624Y-67727D01*
X1248606Y-67764D01*
X1248588Y-67809D01*
X1248561Y-67873D01*
X1248533Y-67946D01*
X1248469Y-68101D01*
X1248406Y-68274D01*
X1248333Y-68447D01*
X1248260Y-68602D01*
X1248223Y-68666D01*
X1248196Y-68730D01*
X1248187Y-68748D01*
X1248160Y-68793D01*
X1248114Y-68857D01*
X1248059Y-68939D01*
X1247987Y-69030D01*
X1247905Y-69121D01*
X1247823Y-69212D01*
X1247722Y-69285D01*
X1247713Y-69294D01*
X1247677Y-69313D01*
X1247622Y-69340D01*
X1247540Y-69376D01*
X1247449Y-69413D01*
X1247340Y-69440D01*
X1247221Y-69458D01*
X1247085Y-69467D01*
X1247048D01*
X1247003Y-69458D01*
X1246939D01*
X1246866Y-69440D01*
X1246784Y-69422D01*
X1246693Y-69404D01*
X1246593Y-69367D01*
X1246511Y-68647D01*
X1246520D01*
X1246556Y-68657D01*
X1246602Y-68666D01*
X1246657Y-68684D01*
X1246802Y-68711D01*
X1246948Y-68720D01*
X1246994D01*
X1247039Y-68711D01*
X1247094D01*
X1247230Y-68684D01*
X1247294Y-68657D01*
X1247358Y-68629D01*
X1247367D01*
X1247385Y-68611D01*
X1247413Y-68593D01*
X1247449Y-68565D01*
X1247531Y-68493D01*
X1247604Y-68392D01*
Y-68383D01*
X1247622Y-68365D01*
X1247640Y-68329D01*
X1247659Y-68274D01*
X1247695Y-68201D01*
X1247731Y-68092D01*
X1247786Y-67964D01*
X1247841Y-67809D01*
Y-67800D01*
X1247859Y-67764D01*
X1247877Y-67700D01*
X1247914Y-67618D01*
X1246183Y-63045D01*
X1247003D01*
X1247959Y-65696D01*
Y-65705D01*
X1247968Y-65714D01*
X1247977Y-65741D01*
X1247987Y-65787D01*
X1248005Y-65833D01*
X1248023Y-65887D01*
X1248069Y-66015D01*
X1248123Y-66170D01*
X1248178Y-66352D01*
X1248232Y-66543D01*
X1248287Y-66753D01*
Y-66743D01*
X1248296Y-66725D01*
X1248305Y-66698D01*
X1248314Y-66662D01*
X1248324Y-66616D01*
X1248342Y-66561D01*
X1248378Y-66425D01*
X1248424Y-66270D01*
X1248488Y-66088D01*
X1248542Y-65905D01*
X1248615Y-65714D01*
X1249599Y-63045D01*
X1250373D01*
X1248633Y-67691D01*
D02*
G37*
G36*
X1226314Y-67618D02*
X1225622D01*
Y-66953D01*
X1225612Y-66962D01*
X1225594Y-66989D01*
X1225567Y-67026D01*
X1225521Y-67071D01*
X1225467Y-67126D01*
X1225403Y-67199D01*
X1225330Y-67263D01*
X1225239Y-67336D01*
X1225139Y-67409D01*
X1225029Y-67472D01*
X1224911Y-67536D01*
X1224783Y-67600D01*
X1224638Y-67645D01*
X1224492Y-67682D01*
X1224328Y-67709D01*
X1224164Y-67718D01*
X1224100D01*
X1224018Y-67709D01*
X1223918Y-67700D01*
X1223800Y-67682D01*
X1223672Y-67655D01*
X1223544Y-67618D01*
X1223408Y-67563D01*
X1223390Y-67554D01*
X1223353Y-67536D01*
X1223289Y-67500D01*
X1223217Y-67454D01*
X1223125Y-67400D01*
X1223043Y-67336D01*
X1222961Y-67263D01*
X1222888Y-67181D01*
X1222879Y-67172D01*
X1222861Y-67135D01*
X1222834Y-67090D01*
X1222797Y-67017D01*
X1222752Y-66935D01*
X1222715Y-66835D01*
X1222679Y-66725D01*
X1222652Y-66607D01*
Y-66598D01*
X1222643Y-66561D01*
X1222633Y-66507D01*
Y-66434D01*
X1222624Y-66325D01*
X1222615Y-66206D01*
X1222606Y-66051D01*
Y-65878D01*
Y-63045D01*
X1223380D01*
Y-65587D01*
Y-65596D01*
Y-65614D01*
Y-65641D01*
Y-65687D01*
Y-65787D01*
X1223390Y-65914D01*
Y-66051D01*
X1223399Y-66188D01*
X1223408Y-66306D01*
X1223426Y-66407D01*
Y-66416D01*
X1223444Y-66452D01*
X1223462Y-66507D01*
X1223490Y-66580D01*
X1223535Y-66652D01*
X1223590Y-66734D01*
X1223654Y-66807D01*
X1223736Y-66880D01*
X1223745Y-66889D01*
X1223781Y-66908D01*
X1223827Y-66935D01*
X1223900Y-66962D01*
X1223982Y-66999D01*
X1224082Y-67026D01*
X1224191Y-67044D01*
X1224319Y-67053D01*
X1224382D01*
X1224446Y-67044D01*
X1224528Y-67035D01*
X1224629Y-67008D01*
X1224738Y-66980D01*
X1224856Y-66935D01*
X1224975Y-66880D01*
X1224993Y-66871D01*
X1225029Y-66844D01*
X1225084Y-66807D01*
X1225148Y-66753D01*
X1225221Y-66680D01*
X1225294Y-66598D01*
X1225357Y-66507D01*
X1225412Y-66397D01*
X1225421Y-66379D01*
X1225430Y-66343D01*
X1225448Y-66270D01*
X1225476Y-66170D01*
X1225503Y-66042D01*
X1225521Y-65887D01*
X1225530Y-65705D01*
X1225539Y-65496D01*
Y-63045D01*
X1226314D01*
Y-67618D01*
D02*
G37*
G36*
X1243860Y-62954D02*
X1243996Y-62963D01*
X1244151Y-62981D01*
X1244306Y-63008D01*
X1244461Y-63045D01*
X1244607Y-63090D01*
X1244625Y-63099D01*
X1244670Y-63118D01*
X1244734Y-63145D01*
X1244816Y-63182D01*
X1244907Y-63236D01*
X1244998Y-63291D01*
X1245080Y-63364D01*
X1245153Y-63437D01*
X1245162Y-63446D01*
X1245181Y-63473D01*
X1245208Y-63519D01*
X1245244Y-63573D01*
X1245290Y-63655D01*
X1245326Y-63737D01*
X1245363Y-63837D01*
X1245390Y-63956D01*
Y-63965D01*
X1245399Y-63992D01*
X1245408Y-64047D01*
X1245417Y-64120D01*
Y-64220D01*
X1245427Y-64338D01*
X1245436Y-64493D01*
Y-64666D01*
Y-65705D01*
Y-65714D01*
Y-65750D01*
Y-65805D01*
Y-65878D01*
Y-65960D01*
Y-66060D01*
X1245445Y-66279D01*
Y-66507D01*
X1245454Y-66734D01*
X1245463Y-66835D01*
Y-66926D01*
X1245472Y-67008D01*
X1245481Y-67071D01*
Y-67081D01*
X1245490Y-67117D01*
X1245500Y-67172D01*
X1245527Y-67245D01*
X1245545Y-67327D01*
X1245582Y-67418D01*
X1245627Y-67518D01*
X1245673Y-67618D01*
X1244862D01*
X1244853Y-67609D01*
X1244844Y-67573D01*
X1244825Y-67527D01*
X1244798Y-67454D01*
X1244771Y-67372D01*
X1244753Y-67272D01*
X1244734Y-67163D01*
X1244716Y-67044D01*
X1244707D01*
X1244698Y-67062D01*
X1244643Y-67108D01*
X1244561Y-67172D01*
X1244452Y-67254D01*
X1244315Y-67336D01*
X1244179Y-67427D01*
X1244033Y-67509D01*
X1243878Y-67573D01*
X1243860Y-67582D01*
X1243805Y-67591D01*
X1243723Y-67618D01*
X1243623Y-67645D01*
X1243495Y-67673D01*
X1243350Y-67691D01*
X1243186Y-67709D01*
X1243022Y-67718D01*
X1242949D01*
X1242894Y-67709D01*
X1242830D01*
X1242757Y-67700D01*
X1242593Y-67673D01*
X1242411Y-67627D01*
X1242211Y-67563D01*
X1242029Y-67472D01*
X1241865Y-67354D01*
X1241846Y-67336D01*
X1241801Y-67290D01*
X1241737Y-67208D01*
X1241664Y-67099D01*
X1241591Y-66962D01*
X1241527Y-66807D01*
X1241482Y-66616D01*
X1241473Y-66525D01*
X1241464Y-66416D01*
Y-66397D01*
Y-66361D01*
X1241473Y-66297D01*
X1241482Y-66215D01*
X1241500Y-66115D01*
X1241527Y-66015D01*
X1241564Y-65905D01*
X1241609Y-65805D01*
X1241619Y-65796D01*
X1241637Y-65760D01*
X1241673Y-65705D01*
X1241719Y-65641D01*
X1241774Y-65568D01*
X1241846Y-65496D01*
X1241919Y-65423D01*
X1242010Y-65359D01*
X1242019Y-65350D01*
X1242056Y-65332D01*
X1242101Y-65295D01*
X1242174Y-65259D01*
X1242256Y-65222D01*
X1242357Y-65177D01*
X1242457Y-65140D01*
X1242575Y-65104D01*
X1242584D01*
X1242621Y-65095D01*
X1242675Y-65076D01*
X1242748Y-65067D01*
X1242839Y-65049D01*
X1242958Y-65031D01*
X1243095Y-65004D01*
X1243258Y-64985D01*
X1243268D01*
X1243304Y-64976D01*
X1243350D01*
X1243413Y-64967D01*
X1243486Y-64958D01*
X1243577Y-64940D01*
X1243678Y-64931D01*
X1243787Y-64912D01*
X1244005Y-64867D01*
X1244242Y-64821D01*
X1244452Y-64767D01*
X1244552Y-64739D01*
X1244643Y-64712D01*
Y-64703D01*
Y-64685D01*
X1244652Y-64630D01*
Y-64566D01*
Y-64530D01*
Y-64512D01*
Y-64503D01*
Y-64493D01*
Y-64439D01*
X1244643Y-64348D01*
X1244625Y-64247D01*
X1244598Y-64138D01*
X1244552Y-64029D01*
X1244497Y-63929D01*
X1244425Y-63847D01*
X1244415Y-63837D01*
X1244370Y-63801D01*
X1244297Y-63765D01*
X1244206Y-63710D01*
X1244078Y-63664D01*
X1243933Y-63619D01*
X1243750Y-63591D01*
X1243541Y-63582D01*
X1243450D01*
X1243359Y-63591D01*
X1243231Y-63610D01*
X1243104Y-63628D01*
X1242967Y-63664D01*
X1242839Y-63710D01*
X1242730Y-63774D01*
X1242721Y-63783D01*
X1242684Y-63810D01*
X1242639Y-63856D01*
X1242584Y-63929D01*
X1242530Y-64020D01*
X1242466Y-64138D01*
X1242411Y-64284D01*
X1242357Y-64448D01*
X1241600Y-64348D01*
Y-64338D01*
X1241609Y-64329D01*
Y-64302D01*
X1241619Y-64266D01*
X1241646Y-64184D01*
X1241682Y-64065D01*
X1241728Y-63947D01*
X1241783Y-63819D01*
X1241856Y-63692D01*
X1241938Y-63573D01*
X1241947Y-63564D01*
X1241983Y-63528D01*
X1242038Y-63473D01*
X1242111Y-63400D01*
X1242211Y-63327D01*
X1242329Y-63254D01*
X1242466Y-63172D01*
X1242621Y-63109D01*
X1242630D01*
X1242639Y-63099D01*
X1242666Y-63090D01*
X1242703Y-63081D01*
X1242794Y-63054D01*
X1242921Y-63027D01*
X1243067Y-62999D01*
X1243249Y-62972D01*
X1243441Y-62954D01*
X1243659Y-62945D01*
X1243760D01*
X1243860Y-62954D01*
D02*
G37*
G36*
X1237729Y-66871D02*
X1240835D01*
Y-67618D01*
X1236891D01*
Y-61314D01*
X1237729D01*
Y-66871D01*
D02*
G37*
G36*
X1232709Y-67618D02*
X1231935D01*
Y-63045D01*
X1232709D01*
Y-67618D01*
D02*
G37*
G36*
X1228282D02*
X1227507D01*
Y-61314D01*
X1228282D01*
Y-67618D01*
D02*
G37*
G36*
X1230386Y-63045D02*
X1231170D01*
Y-63646D01*
X1230386D01*
Y-66334D01*
Y-66352D01*
Y-66388D01*
Y-66443D01*
X1230395Y-66507D01*
X1230404Y-66652D01*
X1230413Y-66716D01*
X1230422Y-66762D01*
X1230432Y-66780D01*
X1230459Y-66816D01*
X1230495Y-66862D01*
X1230559Y-66908D01*
X1230577Y-66917D01*
X1230623Y-66935D01*
X1230705Y-66953D01*
X1230823Y-66962D01*
X1230914D01*
X1230960Y-66953D01*
X1231024D01*
X1231097Y-66944D01*
X1231170Y-66935D01*
X1231270Y-67618D01*
X1231252D01*
X1231215Y-67627D01*
X1231151Y-67636D01*
X1231069Y-67645D01*
X1230978Y-67664D01*
X1230878Y-67673D01*
X1230678Y-67682D01*
X1230605D01*
X1230532Y-67673D01*
X1230441Y-67664D01*
X1230331Y-67655D01*
X1230222Y-67627D01*
X1230122Y-67600D01*
X1230022Y-67554D01*
X1230013Y-67545D01*
X1229985Y-67527D01*
X1229949Y-67500D01*
X1229894Y-67454D01*
X1229848Y-67409D01*
X1229794Y-67345D01*
X1229739Y-67281D01*
X1229703Y-67199D01*
Y-67190D01*
X1229685Y-67154D01*
X1229675Y-67090D01*
X1229657Y-66999D01*
X1229639Y-66880D01*
X1229630Y-66807D01*
Y-66725D01*
X1229621Y-66625D01*
X1229612Y-66525D01*
Y-66416D01*
Y-66288D01*
Y-63646D01*
X1229038D01*
Y-63045D01*
X1229612D01*
Y-61915D01*
X1230386Y-61451D01*
Y-63045D01*
D02*
G37*
G36*
X1253061Y-62954D02*
X1253134Y-62963D01*
X1253225Y-62981D01*
X1253325Y-62999D01*
X1253443Y-63027D01*
X1253553Y-63054D01*
X1253680Y-63099D01*
X1253799Y-63145D01*
X1253926Y-63209D01*
X1254054Y-63282D01*
X1254181Y-63364D01*
X1254300Y-63464D01*
X1254409Y-63573D01*
X1254418Y-63582D01*
X1254436Y-63601D01*
X1254464Y-63637D01*
X1254500Y-63692D01*
X1254546Y-63756D01*
X1254591Y-63828D01*
X1254646Y-63919D01*
X1254701Y-64029D01*
X1254755Y-64147D01*
X1254810Y-64275D01*
X1254856Y-64420D01*
X1254901Y-64575D01*
X1254937Y-64749D01*
X1254965Y-64931D01*
X1254983Y-65122D01*
X1254992Y-65332D01*
Y-65341D01*
Y-65377D01*
Y-65441D01*
X1254983Y-65532D01*
X1251567D01*
Y-65541D01*
Y-65568D01*
X1251576Y-65605D01*
Y-65659D01*
X1251585Y-65723D01*
X1251603Y-65796D01*
X1251630Y-65960D01*
X1251685Y-66142D01*
X1251758Y-66343D01*
X1251858Y-66525D01*
X1251986Y-66689D01*
X1251995D01*
X1252004Y-66707D01*
X1252059Y-66753D01*
X1252141Y-66816D01*
X1252250Y-66880D01*
X1252396Y-66953D01*
X1252560Y-67017D01*
X1252742Y-67062D01*
X1252842Y-67071D01*
X1252952Y-67081D01*
X1253024D01*
X1253106Y-67071D01*
X1253207Y-67053D01*
X1253316Y-67026D01*
X1253443Y-66989D01*
X1253562Y-66935D01*
X1253680Y-66862D01*
X1253689Y-66853D01*
X1253735Y-66816D01*
X1253790Y-66762D01*
X1253853Y-66689D01*
X1253926Y-66589D01*
X1254008Y-66461D01*
X1254090Y-66315D01*
X1254163Y-66142D01*
X1254965Y-66242D01*
Y-66252D01*
X1254956Y-66270D01*
X1254947Y-66306D01*
X1254928Y-66361D01*
X1254901Y-66416D01*
X1254874Y-66488D01*
X1254801Y-66643D01*
X1254710Y-66816D01*
X1254582Y-66999D01*
X1254436Y-67172D01*
X1254254Y-67336D01*
X1254245D01*
X1254227Y-67354D01*
X1254200Y-67372D01*
X1254163Y-67400D01*
X1254109Y-67427D01*
X1254054Y-67454D01*
X1253981Y-67491D01*
X1253899Y-67527D01*
X1253808Y-67563D01*
X1253717Y-67600D01*
X1253489Y-67655D01*
X1253234Y-67700D01*
X1252952Y-67718D01*
X1252851D01*
X1252787Y-67709D01*
X1252705Y-67700D01*
X1252605Y-67682D01*
X1252496Y-67664D01*
X1252378Y-67645D01*
X1252122Y-67573D01*
X1251986Y-67518D01*
X1251858Y-67463D01*
X1251722Y-67390D01*
X1251594Y-67308D01*
X1251476Y-67217D01*
X1251357Y-67108D01*
X1251348Y-67099D01*
X1251330Y-67081D01*
X1251303Y-67044D01*
X1251266Y-66989D01*
X1251221Y-66926D01*
X1251175Y-66853D01*
X1251120Y-66762D01*
X1251066Y-66662D01*
X1251011Y-66543D01*
X1250956Y-66416D01*
X1250911Y-66270D01*
X1250865Y-66115D01*
X1250829Y-65951D01*
X1250801Y-65769D01*
X1250783Y-65578D01*
X1250774Y-65377D01*
Y-65368D01*
Y-65322D01*
Y-65268D01*
X1250783Y-65186D01*
X1250792Y-65086D01*
X1250801Y-64976D01*
X1250820Y-64849D01*
X1250847Y-64721D01*
X1250920Y-64430D01*
X1250965Y-64284D01*
X1251020Y-64129D01*
X1251093Y-63983D01*
X1251175Y-63847D01*
X1251266Y-63710D01*
X1251366Y-63582D01*
X1251375Y-63573D01*
X1251394Y-63555D01*
X1251430Y-63528D01*
X1251476Y-63482D01*
X1251530Y-63437D01*
X1251603Y-63382D01*
X1251685Y-63318D01*
X1251785Y-63263D01*
X1251886Y-63200D01*
X1252004Y-63145D01*
X1252132Y-63090D01*
X1252268Y-63045D01*
X1252414Y-62999D01*
X1252569Y-62972D01*
X1252733Y-62954D01*
X1252906Y-62945D01*
X1252997D01*
X1253061Y-62954D01*
D02*
G37*
%LPC*%
G36*
X1244652Y-65322D02*
X1244643D01*
X1244634Y-65332D01*
X1244607Y-65341D01*
X1244570Y-65350D01*
X1244525Y-65368D01*
X1244470Y-65386D01*
X1244406Y-65404D01*
X1244333Y-65423D01*
X1244251Y-65450D01*
X1244151Y-65468D01*
X1244051Y-65496D01*
X1243933Y-65523D01*
X1243805Y-65550D01*
X1243678Y-65578D01*
X1243532Y-65596D01*
X1243377Y-65623D01*
X1243359D01*
X1243304Y-65632D01*
X1243213Y-65650D01*
X1243113Y-65669D01*
X1243003Y-65687D01*
X1242894Y-65714D01*
X1242794Y-65741D01*
X1242703Y-65778D01*
X1242694D01*
X1242666Y-65796D01*
X1242630Y-65814D01*
X1242593Y-65842D01*
X1242484Y-65914D01*
X1242393Y-66024D01*
Y-66033D01*
X1242375Y-66051D01*
X1242366Y-66088D01*
X1242348Y-66133D01*
X1242329Y-66188D01*
X1242311Y-66242D01*
X1242302Y-66315D01*
X1242293Y-66388D01*
Y-66397D01*
Y-66443D01*
X1242302Y-66498D01*
X1242320Y-66571D01*
X1242348Y-66652D01*
X1242393Y-66734D01*
X1242448Y-66825D01*
X1242521Y-66908D01*
X1242530Y-66917D01*
X1242566Y-66935D01*
X1242621Y-66971D01*
X1242694Y-67008D01*
X1242794Y-67044D01*
X1242912Y-67081D01*
X1243049Y-67099D01*
X1243213Y-67108D01*
X1243286D01*
X1243377Y-67099D01*
X1243477Y-67081D01*
X1243605Y-67062D01*
X1243732Y-67026D01*
X1243869Y-66980D01*
X1244005Y-66917D01*
X1244024Y-66908D01*
X1244060Y-66880D01*
X1244124Y-66835D01*
X1244197Y-66771D01*
X1244279Y-66698D01*
X1244370Y-66607D01*
X1244443Y-66498D01*
X1244516Y-66379D01*
X1244525Y-66370D01*
X1244534Y-66334D01*
X1244552Y-66270D01*
X1244579Y-66188D01*
X1244607Y-66079D01*
X1244625Y-65951D01*
X1244634Y-65796D01*
X1244643Y-65614D01*
X1244652Y-65322D01*
D02*
G37*
G36*
X1252915Y-63582D02*
X1252860D01*
X1252824Y-63591D01*
X1252724Y-63601D01*
X1252605Y-63628D01*
X1252460Y-63674D01*
X1252305Y-63737D01*
X1252159Y-63828D01*
X1252013Y-63947D01*
X1251995Y-63965D01*
X1251958Y-64011D01*
X1251895Y-64092D01*
X1251831Y-64202D01*
X1251758Y-64329D01*
X1251694Y-64493D01*
X1251640Y-64685D01*
X1251612Y-64894D01*
X1254172D01*
Y-64885D01*
Y-64867D01*
X1254163Y-64840D01*
Y-64803D01*
X1254145Y-64694D01*
X1254118Y-64575D01*
X1254072Y-64430D01*
X1254027Y-64293D01*
X1253954Y-64156D01*
X1253872Y-64038D01*
Y-64029D01*
X1253853Y-64020D01*
X1253808Y-63965D01*
X1253726Y-63892D01*
X1253617Y-63810D01*
X1253480Y-63728D01*
X1253316Y-63655D01*
X1253125Y-63601D01*
X1253024Y-63591D01*
X1252915Y-63582D01*
D02*
G37*
%LPD*%
D15*
X118722Y218171D02*
X122222D01*
X120472Y216421D02*
Y219921D01*
X118722Y228171D02*
X122222D01*
X120472Y226421D02*
Y229921D01*
X118722Y238171D02*
X122222D01*
X120472Y236421D02*
Y239921D01*
X-2008Y0D02*
X2008D01*
X0Y-2008D02*
Y2008D01*
X228228Y0D02*
X232244D01*
X230236Y-2008D02*
Y2008D01*
X291102Y22874D02*
X295118D01*
X293110Y20866D02*
Y24882D01*
X291102Y253110D02*
X295118D01*
X293110Y251102D02*
Y255118D01*
X-85032Y239338D02*
X-75932D01*
X-80482Y234788D02*
Y243888D01*
X-83232Y252338D02*
X-77732D01*
X-80482Y249588D02*
Y255088D01*
X-85032Y269338D02*
X-75932D01*
X-80482Y264788D02*
Y273888D01*
X-26132Y215838D02*
X-22632D01*
X-24382Y214088D02*
Y217588D01*
X-30132Y225838D02*
X-26632D01*
X-28382Y224088D02*
Y227588D01*
X-54132Y225838D02*
X-50632D01*
X-52382Y224088D02*
Y227588D01*
X-20832Y259838D02*
X-11732D01*
X-16282Y255288D02*
Y264388D01*
X-19032Y246838D02*
X-13532D01*
X-16282Y244088D02*
Y249588D01*
X-42132Y215838D02*
X-38632D01*
X-40382Y214088D02*
Y217588D01*
X-58132Y215838D02*
X-54632D01*
X-56382Y214088D02*
Y217588D01*
X-74132Y215838D02*
X-70632D01*
X-72382Y214088D02*
Y217588D01*
X-66132Y215838D02*
X-62632D01*
X-64382Y214088D02*
Y217588D01*
X-34132Y215838D02*
X-30632D01*
X-32382Y214088D02*
Y217588D01*
X-70132Y225838D02*
X-66632D01*
X-68382Y224088D02*
Y227588D01*
X-62132Y225838D02*
X-58632D01*
X-60382Y224088D02*
Y227588D01*
X-46132Y225838D02*
X-42632D01*
X-44382Y224088D02*
Y227588D01*
X-38132Y225838D02*
X-34632D01*
X-36382Y224088D02*
Y227588D01*
X-78532Y280838D02*
X-73532D01*
X-76032Y278338D02*
Y283338D01*
X-23232Y280838D02*
X-18232D01*
X-20732Y278338D02*
Y283338D01*
X-78532Y290838D02*
X-73532D01*
X-76032Y288338D02*
Y293338D01*
X-23232Y290838D02*
X-18232D01*
X-20732Y288338D02*
Y293338D01*
X-20832Y229838D02*
X-11732D01*
X-16282Y225288D02*
Y234388D01*
X103218Y217992D02*
X107018D01*
X105118Y216092D02*
Y219892D01*
X103218Y237992D02*
X107018D01*
X105118Y236092D02*
Y239892D01*
X103218Y227992D02*
X107018D01*
X105118Y226092D02*
Y229892D01*
X146850Y193898D02*
X150787D01*
X148819Y191929D02*
Y195866D01*
X186221Y193898D02*
X190157D01*
X188189Y191929D02*
Y195866D01*
X223524Y185236D02*
X227658D01*
X225590Y183169D02*
Y187303D01*
X236910Y201378D02*
X241043D01*
X238976Y199311D02*
Y203445D01*
X257382Y115551D02*
X261516D01*
X259449Y113484D02*
Y117618D01*
X7858Y-18660D02*
X20358D01*
X14108Y-24910D02*
Y-12410D01*
X227858Y-18660D02*
X240358D01*
X234108Y-24910D02*
Y-12410D01*
X222848Y294430D02*
X235348D01*
X229098Y288180D02*
Y300680D01*
X7848Y294430D02*
X20348D01*
X14098Y288180D02*
Y300680D01*
X228228Y260000D02*
X232244D01*
X230236Y257992D02*
Y262008D01*
X-2008Y260000D02*
X2008D01*
X0Y257992D02*
Y262008D01*
X70768Y236417D02*
X74902D01*
X72835Y234350D02*
Y238484D01*
X689Y134646D02*
X4823D01*
X2756Y132579D02*
Y136713D01*
X-54035Y30512D02*
X-49902D01*
X-51968Y28445D02*
Y32579D01*
X-54035Y77756D02*
X-49902D01*
X-51968Y75689D02*
Y79823D01*
X-54035Y125000D02*
X-49902D01*
X-51968Y122933D02*
Y127067D01*
X-54035Y172244D02*
X-49902D01*
X-51968Y170177D02*
Y174311D01*
X53051Y180905D02*
X57185D01*
X55118Y178839D02*
Y182973D01*
X-18602Y57677D02*
X-14469D01*
X-16535Y55610D02*
Y59744D01*
X-18602Y68701D02*
X-14469D01*
X-16535Y66634D02*
Y70768D01*
X-18602Y26181D02*
X-14469D01*
X-16535Y24114D02*
Y28248D01*
X-18602Y37205D02*
X-14469D01*
X-16535Y35138D02*
Y39272D01*
X-18602Y89173D02*
X-14469D01*
X-16535Y87106D02*
Y91240D01*
X-18602Y100197D02*
X-14469D01*
X-16535Y98130D02*
Y102264D01*
X20768Y89173D02*
X24902D01*
X22835Y87106D02*
Y91240D01*
X20768Y100197D02*
X24902D01*
X22835Y98130D02*
Y102264D01*
X-42618Y1378D02*
X-38484D01*
X-40551Y-689D02*
Y3445D01*
X72736Y181299D02*
X76870D01*
X74803Y179232D02*
Y183366D01*
X257382Y104528D02*
X261516D01*
X259449Y102461D02*
Y106595D01*
X257382Y93504D02*
X261516D01*
X259449Y91437D02*
Y95571D01*
X257382Y82480D02*
X261516D01*
X259449Y80413D02*
Y84547D01*
X257382Y71457D02*
X261516D01*
X259449Y69390D02*
Y73524D01*
X257382Y60433D02*
X261516D01*
X259449Y58366D02*
Y62500D01*
X257382Y49409D02*
X261516D01*
X259449Y47343D02*
Y51476D01*
X257382Y38386D02*
X261516D01*
X259449Y36319D02*
Y40453D01*
X257382Y27362D02*
X261516D01*
X259449Y25295D02*
Y29429D01*
X257382Y16339D02*
X261516D01*
X259449Y14272D02*
Y18406D01*
X248327Y201378D02*
X252461D01*
X250394Y199311D02*
Y203445D01*
X242815Y132087D02*
X246949D01*
X244882Y130020D02*
Y134153D01*
X242815Y191535D02*
X246949D01*
X244882Y189469D02*
Y193602D01*
X254232Y132087D02*
X258366D01*
X256299Y130020D02*
Y134153D01*
X254232Y191535D02*
X258366D01*
X256299Y189469D02*
Y193602D01*
X254232Y171063D02*
X258366D01*
X256299Y168996D02*
Y173130D01*
X248327Y181299D02*
X252461D01*
X250394Y179232D02*
Y183366D01*
X248327Y161221D02*
X252461D01*
X250394Y159153D02*
Y163287D01*
X259744Y181299D02*
X263878D01*
X261811Y179232D02*
Y183366D01*
X242815Y171457D02*
X246949D01*
X244882Y169390D02*
Y173524D01*
X259744Y161221D02*
X263878D01*
X261811Y159153D02*
Y163287D01*
X242815Y151378D02*
X246949D01*
X244882Y149311D02*
Y153445D01*
X254232Y151378D02*
X258366D01*
X256299Y149311D02*
Y153445D01*
X236910Y141535D02*
X241043D01*
X238976Y139469D02*
Y143602D01*
X248327Y141929D02*
X252461D01*
X250394Y139862D02*
Y143996D01*
X236768Y100429D02*
X240902D01*
X238835Y98362D02*
Y102496D01*
X116818Y186992D02*
X117618D01*
X117218Y186592D02*
Y187392D01*
X112035Y187058D02*
X112835D01*
X112435Y186658D02*
Y187458D01*
X109618Y135563D02*
X110418D01*
X110018Y135163D02*
Y135963D01*
X145663Y107283D02*
X146463D01*
X146063Y106883D02*
Y107683D01*
X139364Y110433D02*
X140164D01*
X139764Y110033D02*
Y110833D01*
X28937Y151378D02*
X30118D01*
X29528Y150787D02*
Y151969D01*
X28937Y148228D02*
X30118D01*
X29528Y147638D02*
Y148819D01*
X-70285Y14370D02*
X-69085D01*
X-69685Y13770D02*
Y14970D01*
X-68317Y12402D02*
X-67116D01*
X-67716Y11802D02*
Y13002D01*
X-72254Y12402D02*
X-71053D01*
X-71653Y11802D02*
Y13002D01*
X-72254Y16339D02*
X-71053D01*
X-71653Y15739D02*
Y16939D01*
X-68317Y16339D02*
X-67116D01*
X-67716Y15739D02*
Y16939D01*
X-70285Y156102D02*
X-69085D01*
X-69685Y155502D02*
Y156702D01*
X-68317Y154134D02*
X-67116D01*
X-67716Y153534D02*
Y154734D01*
X-72254Y154134D02*
X-71053D01*
X-71653Y153534D02*
Y154734D01*
X-72254Y158071D02*
X-71053D01*
X-71653Y157471D02*
Y158671D01*
X-68317Y158071D02*
X-67116D01*
X-67716Y157471D02*
Y158671D01*
X37539Y202165D02*
X38839D01*
X38189Y201516D02*
Y202815D01*
X32815Y202165D02*
X34114D01*
X33465Y201516D02*
Y202815D01*
X28091Y202165D02*
X29390D01*
X28740Y201516D02*
Y202815D01*
X23366Y202165D02*
X24665D01*
X24016Y201516D02*
Y202815D01*
X37539Y206890D02*
X38839D01*
X38189Y206240D02*
Y207539D01*
X32815Y206890D02*
X34114D01*
X33465Y206240D02*
Y207539D01*
X28091Y206890D02*
X29390D01*
X28740Y206240D02*
Y207539D01*
X23366Y206890D02*
X24665D01*
X24016Y206240D02*
Y207539D01*
X37539Y211614D02*
X38839D01*
X38189Y210965D02*
Y212264D01*
X32815Y211614D02*
X34114D01*
X33465Y210965D02*
Y212264D01*
X28091Y211614D02*
X29390D01*
X28740Y210965D02*
Y212264D01*
X23366Y211614D02*
X24665D01*
X24016Y210965D02*
Y212264D01*
X37539Y216339D02*
X38839D01*
X38189Y215689D02*
Y216988D01*
X32815Y216339D02*
X34114D01*
X33465Y215689D02*
Y216988D01*
X28091Y216339D02*
X29390D01*
X28740Y215689D02*
Y216988D01*
X23366Y216339D02*
X24665D01*
X24016Y215689D02*
Y216988D01*
X267510Y173819D02*
X268710D01*
X268110Y173219D02*
Y174419D01*
X161411Y91535D02*
X162211D01*
X161811Y91135D02*
Y91935D01*
X267510Y169882D02*
X268710D01*
X268110Y169282D02*
Y170482D01*
X167710Y85236D02*
X168510D01*
X168110Y84836D02*
Y85636D01*
X266723Y146434D02*
X267923D01*
X267323Y145834D02*
Y147034D01*
X180309Y107283D02*
X181109D01*
X180709Y106883D02*
Y107683D01*
X266723Y149235D02*
X267923D01*
X267323Y148635D02*
Y149835D01*
X180309Y110433D02*
X181109D01*
X180709Y110033D02*
Y110833D01*
X170860Y66339D02*
X171660D01*
X171260Y65939D02*
Y66739D01*
X59836Y492D02*
X60636D01*
X60236Y92D02*
Y892D01*
X170860Y63189D02*
X171660D01*
X171260Y62789D02*
Y63589D01*
X63576Y591D02*
X64376D01*
X63976Y191D02*
Y991D01*
X174009Y56890D02*
X174809D01*
X174409Y56490D02*
Y57290D01*
X94974Y295D02*
X95774D01*
X95374Y-105D02*
Y695D01*
X174009Y60039D02*
X174809D01*
X174409Y59639D02*
Y60439D01*
X91726Y197D02*
X92526D01*
X92126Y-203D02*
Y597D01*
X167710Y63189D02*
X168510D01*
X168110Y62789D02*
Y63589D01*
X57080Y197D02*
X57880D01*
X57480Y-203D02*
Y597D01*
X167710Y66339D02*
X168510D01*
X168110Y65939D02*
Y66739D01*
X53734Y295D02*
X54534D01*
X54134Y-105D02*
Y695D01*
X189758Y72638D02*
X190558D01*
X190157Y72238D02*
Y73038D01*
X189758Y75787D02*
X190558D01*
X190157Y75387D02*
Y76187D01*
X196057Y75787D02*
X196857D01*
X196457Y75387D02*
Y76187D01*
X192907Y75787D02*
X193707D01*
X193307Y75387D02*
Y76187D01*
X201762Y197441D02*
X202962D01*
X202362Y196841D02*
Y198041D01*
X201762Y201378D02*
X202962D01*
X202362Y200778D02*
Y201978D01*
X192907Y82087D02*
X193707D01*
X193307Y81687D02*
Y82487D01*
X108034Y248744D02*
X108834D01*
X108433Y248344D02*
Y249144D01*
X105734Y248744D02*
X106534D01*
X106133Y248344D02*
Y249144D01*
X189758Y82087D02*
X190558D01*
X190157Y81687D02*
Y82487D01*
X186608Y82087D02*
X187408D01*
X187008Y81687D02*
Y82487D01*
X102128Y248744D02*
X102928D01*
X102528Y248344D02*
Y249144D01*
X183458Y82087D02*
X184258D01*
X183858Y81687D02*
Y82487D01*
X99828Y248744D02*
X100628D01*
X100228Y248344D02*
Y249144D01*
X180309Y85236D02*
X181109D01*
X180709Y84836D02*
Y85636D01*
X151175Y222182D02*
X151975D01*
X151575Y221782D02*
Y222582D01*
X177159Y85236D02*
X177959D01*
X177559Y84836D02*
Y85636D01*
X151175Y219882D02*
X151975D01*
X151575Y219482D02*
Y220282D01*
X175778Y178150D02*
X176978D01*
X176378Y177550D02*
Y178750D01*
X177159Y104134D02*
X177959D01*
X177559Y103734D02*
Y104534D01*
X115537Y275787D02*
X116337D01*
X115937Y275387D02*
Y276187D01*
X180309Y104134D02*
X181109D01*
X180709Y103734D02*
Y104534D01*
X117837Y275787D02*
X118637D01*
X118237Y275387D02*
Y276187D01*
X167710Y82087D02*
X168510D01*
X168110Y81687D02*
Y82487D01*
X161411Y82087D02*
X162211D01*
X161811Y81687D02*
Y82487D01*
X150187Y143898D02*
X151387D01*
X150787Y143298D02*
Y144498D01*
X145663Y75787D02*
X146463D01*
X146063Y75387D02*
Y76187D01*
X26454Y25787D02*
X27654D01*
X27054Y25187D02*
Y26387D01*
X145663Y72638D02*
X146463D01*
X146063Y72238D02*
Y73038D01*
X29354Y25787D02*
X30554D01*
X29954Y25187D02*
Y26387D01*
X145663Y69488D02*
X146463D01*
X146063Y69088D02*
Y69888D01*
X32379Y25787D02*
X33579D01*
X32980Y25187D02*
Y26387D01*
X142513Y69488D02*
X143313D01*
X142913Y69088D02*
Y69888D01*
X35239Y25787D02*
X36439D01*
X35839Y25187D02*
Y26387D01*
X139364Y72638D02*
X140164D01*
X139764Y72238D02*
Y73038D01*
X38265Y25787D02*
X39465D01*
X38865Y25187D02*
Y26387D01*
X139364Y69488D02*
X140164D01*
X139764Y69088D02*
Y69888D01*
X41165Y25787D02*
X42365D01*
X41765Y25187D02*
Y26387D01*
X139364Y66339D02*
X140164D01*
X139764Y65939D02*
Y66739D01*
X51007Y25787D02*
X52207D01*
X51608Y25187D02*
Y26387D01*
X142513Y66339D02*
X143313D01*
X142913Y65939D02*
Y66739D01*
X48107Y25787D02*
X49308D01*
X48708Y25187D02*
Y26387D01*
X139364Y60039D02*
X140164D01*
X139764Y59639D02*
Y60439D01*
X54013Y25787D02*
X55213D01*
X54613Y25187D02*
Y26387D01*
X139364Y56890D02*
X140164D01*
X139764Y56490D02*
Y57290D01*
X56913Y25787D02*
X58113D01*
X57513Y25187D02*
Y26387D01*
X145663Y63189D02*
X146463D01*
X146063Y62789D02*
Y63589D01*
X59918Y25787D02*
X61119D01*
X60518Y25187D02*
Y26387D01*
X142513Y63189D02*
X143313D01*
X142913Y62789D02*
Y63589D01*
X62818Y25787D02*
X64018D01*
X63419Y25187D02*
Y26387D01*
X145663Y56890D02*
X146463D01*
X146063Y56490D02*
Y57290D01*
X31057Y158D02*
X31857D01*
X31457Y-243D02*
Y557D01*
X148813Y56890D02*
X149613D01*
X149213Y56490D02*
Y57290D01*
X33852Y197D02*
X34652D01*
X34252Y-203D02*
Y597D01*
X151962Y60039D02*
X152762D01*
X152362Y59639D02*
Y60439D01*
X36962Y158D02*
X37762D01*
X37362Y-243D02*
Y557D01*
X155112Y60039D02*
X155912D01*
X155512Y59639D02*
Y60439D01*
X39561Y197D02*
X40361D01*
X39961Y-203D02*
Y597D01*
X118691Y155709D02*
X119891D01*
X119291Y155109D02*
Y156309D01*
X19085Y25394D02*
X20285D01*
X19685Y24794D02*
Y25994D01*
X133065Y63189D02*
X133865D01*
X133465Y62789D02*
Y63589D01*
X97632Y42717D02*
X98431D01*
X98032Y42317D02*
Y43117D01*
X133065Y66339D02*
X133865D01*
X133465Y65939D02*
Y66739D01*
X94482Y42717D02*
X95282D01*
X94882Y42317D02*
Y43117D01*
X35227Y236811D02*
X36427D01*
X35827Y236211D02*
Y237411D01*
X21647Y129724D02*
X22447D01*
X22047Y129324D02*
Y130124D01*
X36014Y156102D02*
X37214D01*
X36614Y155502D02*
Y156702D01*
X17904Y158465D02*
X19104D01*
X18504Y157865D02*
Y159065D01*
X17904Y154528D02*
X19104D01*
X18504Y153928D02*
Y155128D01*
X277943Y35361D02*
X279143D01*
X278543Y34761D02*
Y35961D01*
X200781Y102559D02*
X201581D01*
X201181Y102159D02*
Y102959D01*
X277943Y31961D02*
X279143D01*
X278543Y31361D02*
Y32561D01*
X200781Y99410D02*
X201581D01*
X201181Y99010D02*
Y99809D01*
X280013Y53078D02*
X281213D01*
X280613Y52478D02*
Y53678D01*
X192907Y110433D02*
X193707D01*
X193307Y110033D02*
Y110833D01*
X280061Y49778D02*
X281261D01*
X280661Y49178D02*
Y50378D01*
X189758Y110433D02*
X190558D01*
X190157Y110033D02*
Y110833D01*
X277605Y58958D02*
X278805D01*
X278205Y58358D02*
Y59558D01*
X203931Y113622D02*
X204731D01*
X204331Y113222D02*
Y114022D01*
X277869Y55658D02*
X279069D01*
X278469Y55058D02*
Y56258D01*
X203931Y110433D02*
X204731D01*
X204331Y110033D02*
Y110833D01*
X280061Y61589D02*
X281261D01*
X280661Y60989D02*
Y62189D01*
X192907Y113583D02*
X193707D01*
X193307Y113183D02*
Y113983D01*
X279912Y64889D02*
X281112D01*
X280512Y64289D02*
Y65489D01*
X192907Y116732D02*
X193707D01*
X193307Y116332D02*
Y117132D01*
X277943Y67395D02*
X279143D01*
X278543Y66795D02*
Y67994D01*
X203931Y118307D02*
X204731D01*
X204331Y117907D02*
Y118707D01*
X277943Y70866D02*
X279143D01*
X278543Y70266D02*
Y71466D01*
X200781Y118307D02*
X201581D01*
X201181Y117907D02*
Y118707D01*
X280501Y73031D02*
X281701D01*
X281101Y72431D02*
Y73631D01*
X186608Y107283D02*
X187408D01*
X187008Y106883D02*
Y107683D01*
X280502Y76575D02*
X281702D01*
X281102Y75975D02*
Y77175D01*
X186608Y110433D02*
X187408D01*
X187008Y110033D02*
Y110833D01*
X133065Y113583D02*
X133865D01*
X133465Y113183D02*
Y113983D01*
X81884Y99410D02*
X82683D01*
X82284Y99010D02*
Y99809D01*
X133065Y116732D02*
X133865D01*
X133465Y116332D02*
Y117132D01*
X85033Y99410D02*
X85833D01*
X85433Y99010D02*
Y99809D01*
X133065Y78937D02*
X133865D01*
X133465Y78537D02*
Y79337D01*
X81884Y55315D02*
X82683D01*
X82284Y54915D02*
Y55715D01*
X133065Y82087D02*
X133865D01*
X133465Y81687D02*
Y82487D01*
X85033Y55315D02*
X85833D01*
X85433Y54915D02*
Y55715D01*
X177159Y82087D02*
X177959D01*
X177559Y81687D02*
Y82487D01*
X133253Y250787D02*
X134053D01*
X133653Y250387D02*
Y251187D01*
X135553Y250787D02*
X136353D01*
X135953Y250387D02*
Y251187D01*
X177159Y78937D02*
X177959D01*
X177559Y78537D02*
Y79337D01*
X169187Y787D02*
X169987D01*
X169587Y387D02*
Y1187D01*
X166135Y1083D02*
X166935D01*
X166535Y683D02*
Y1483D01*
X138773Y197D02*
X139573D01*
X139173Y-203D02*
Y597D01*
X142021Y197D02*
X142821D01*
X142421Y-203D02*
Y597D01*
X186608Y97835D02*
X187408D01*
X187008Y97435D02*
Y98235D01*
X133253Y275787D02*
X134053D01*
X133653Y275387D02*
Y276187D01*
X186608Y94685D02*
X187408D01*
X187008Y94285D02*
Y95085D01*
X135553Y275787D02*
X136353D01*
X135953Y275387D02*
Y276187D01*
X192907Y94685D02*
X193707D01*
X193307Y94285D02*
Y95085D01*
X141459Y275787D02*
X142259D01*
X141859Y275387D02*
Y276187D01*
X139159Y275787D02*
X139959D01*
X139559Y275387D02*
Y276187D01*
X189758Y94685D02*
X190558D01*
X190157Y94285D02*
Y95085D01*
X200781Y96260D02*
X201581D01*
X201181Y95860D02*
Y96660D01*
X169018Y275787D02*
X169818D01*
X169418Y275387D02*
Y276187D01*
X166718Y275787D02*
X167518D01*
X167118Y275387D02*
Y276187D01*
X196057Y97835D02*
X196857D01*
X196457Y97435D02*
Y98235D01*
X178529Y275886D02*
X179329D01*
X178929Y275486D02*
Y276286D01*
X186608Y91535D02*
X187408D01*
X187008Y91135D02*
Y91935D01*
X180829Y275886D02*
X181629D01*
X181229Y275486D02*
Y276286D01*
X189758Y91535D02*
X190558D01*
X190157Y91135D02*
Y91935D01*
X186608Y56890D02*
X187408D01*
X187008Y56490D02*
Y57290D01*
X181293Y689D02*
X182093D01*
X181693Y289D02*
Y1089D01*
X186608Y60039D02*
X187408D01*
X187008Y59639D02*
Y60439D01*
X178045Y591D02*
X178845D01*
X178445Y191D02*
Y991D01*
X78534Y228543D02*
X79734D01*
X79134Y227943D02*
Y229143D01*
X183458Y85236D02*
X184258D01*
X183858Y84836D02*
Y85636D01*
X183458Y91535D02*
X184258D01*
X183858Y91135D02*
Y91935D01*
X196057Y107283D02*
X196857D01*
X196457Y106883D02*
Y107683D01*
X200781Y105709D02*
X201581D01*
X201181Y105309D02*
Y106109D01*
X200781Y112008D02*
X201581D01*
X201181Y111608D02*
Y112408D01*
X200781Y115157D02*
X201581D01*
X201181Y114758D02*
Y115558D01*
X192907Y97835D02*
X193707D01*
X193307Y97435D02*
Y98235D01*
X196057Y94685D02*
X196857D01*
X196457Y94285D02*
Y95085D01*
X235424Y114764D02*
X236624D01*
X236024Y114164D02*
Y115364D01*
X196245Y275787D02*
X197045D01*
X196645Y275387D02*
Y276187D01*
X186608Y75787D02*
X187408D01*
X187008Y75387D02*
Y76187D01*
X198545Y275787D02*
X199345D01*
X198945Y275387D02*
Y276187D01*
X186608Y72638D02*
X187408D01*
X187008Y72238D02*
Y73038D01*
X27353Y246260D02*
X28553D01*
X27953Y245660D02*
Y246860D01*
X27353Y243110D02*
X28553D01*
X27953Y242510D02*
Y243710D01*
X2550Y239567D02*
X3750D01*
X3150Y238967D02*
Y240167D01*
X36605Y243701D02*
X37805D01*
X37205Y243101D02*
Y244301D01*
X277353Y217717D02*
X278553D01*
X277953Y217116D02*
Y218317D01*
X277353Y225591D02*
X278553D01*
X277953Y224991D02*
Y226191D01*
X277353Y229528D02*
X278553D01*
X277953Y228928D02*
Y230128D01*
X186608Y78937D02*
X187408D01*
X187008Y78537D02*
Y79337D01*
X96222Y248744D02*
X97022D01*
X96622Y248344D02*
Y249144D01*
X93922Y248744D02*
X94722D01*
X94322Y248344D02*
Y249144D01*
X183458Y78937D02*
X184258D01*
X183858Y78537D02*
Y79337D01*
X196057Y78937D02*
X196857D01*
X196457Y78537D02*
Y79337D01*
X113939Y248744D02*
X114739D01*
X114339Y248344D02*
Y249144D01*
X111639Y248744D02*
X112439D01*
X112039Y248344D02*
Y249144D01*
X192907Y78937D02*
X193707D01*
X193307Y78537D02*
Y79337D01*
X228140Y121457D02*
X229340D01*
X228740Y120857D02*
Y122057D01*
X193887Y263976D02*
X195087D01*
X194487Y263376D02*
Y264576D01*
X192907Y85236D02*
X193707D01*
X193307Y84836D02*
Y85636D01*
X190738Y263976D02*
X191938D01*
X191338Y263376D02*
Y264576D01*
X189758Y85236D02*
X190558D01*
X190157Y84836D02*
Y85636D01*
X239164Y115945D02*
X240364D01*
X239764Y115345D02*
Y116545D01*
X277353Y79206D02*
X278553D01*
X277953Y78606D02*
Y79805D01*
X196057Y123031D02*
X196857D01*
X196457Y122632D02*
Y123432D01*
X277353Y82605D02*
X278553D01*
X277953Y82006D02*
Y83205D01*
X199206Y123031D02*
X200006D01*
X199606Y122632D02*
Y123432D01*
X265345Y110702D02*
X266545D01*
X265945Y110102D02*
Y111302D01*
X186608Y123031D02*
X187408D01*
X187008Y122632D02*
Y123432D01*
X265345Y114102D02*
X266545D01*
X265945Y113502D02*
Y114702D01*
X189758Y123031D02*
X190558D01*
X190157Y122632D02*
Y123432D01*
X103337Y161614D02*
X104537D01*
X103937Y161014D02*
Y162214D01*
X267510Y116607D02*
X268710D01*
X268110Y116007D02*
Y117207D01*
X180309Y123031D02*
X181109D01*
X180709Y122632D02*
Y123432D01*
X267510Y120007D02*
X268710D01*
X268110Y119407D02*
Y120607D01*
X183458Y123031D02*
X184258D01*
X183858Y122632D02*
Y123432D01*
X54479Y251024D02*
X55679D01*
X55079Y250424D02*
Y251624D01*
X91880Y251575D02*
X93080D01*
X92480Y250975D02*
Y252175D01*
X143061Y260079D02*
X144261D01*
X143661Y259479D02*
Y260679D01*
X137156Y260079D02*
X138356D01*
X137756Y259479D02*
Y260679D01*
X177159Y94685D02*
X177959D01*
X177559Y94285D02*
Y95085D01*
X107994Y275886D02*
X108794D01*
X108394Y275486D02*
Y276286D01*
X177159Y97835D02*
X177959D01*
X177559Y97435D02*
Y98235D01*
X105694Y275886D02*
X106494D01*
X106094Y275486D02*
Y276286D01*
X131250Y260079D02*
X132450D01*
X131850Y259479D02*
Y260679D01*
X127313Y260079D02*
X128513D01*
X127913Y259479D02*
Y260679D01*
X121408Y260079D02*
X122608D01*
X122008Y259479D02*
Y260679D01*
X115502Y251575D02*
X116702D01*
X116102Y250975D02*
Y252175D01*
X109597Y251575D02*
X110797D01*
X110197Y250975D02*
Y252175D01*
X103691Y251575D02*
X104891D01*
X104291Y250975D02*
Y252175D01*
X97786Y251575D02*
X98986D01*
X98386Y250975D02*
Y252175D01*
X165935Y260433D02*
X167135D01*
X166535Y259833D02*
Y261033D01*
X143061Y284409D02*
X144261D01*
X143661Y283809D02*
Y285010D01*
X137156Y284409D02*
X138356D01*
X137756Y283809D02*
Y285010D01*
X131250Y284409D02*
X132450D01*
X131850Y283809D02*
Y285010D01*
X125345Y284409D02*
X126545D01*
X125945Y283809D02*
Y285010D01*
X119439Y284409D02*
X120639D01*
X120039Y283809D02*
Y285010D01*
X113534Y284409D02*
X114734D01*
X114134Y283809D02*
Y285010D01*
X109597Y284409D02*
X110797D01*
X110197Y283809D02*
Y285010D01*
X103691Y284409D02*
X104891D01*
X104291Y283809D02*
Y285010D01*
X97786Y284409D02*
X98986D01*
X98386Y283809D02*
Y285010D01*
X172589Y260441D02*
X173789D01*
X173189Y259841D02*
Y261041D01*
X176526Y260441D02*
X177726D01*
X177126Y259841D02*
Y261041D01*
X180463Y260441D02*
X181663D01*
X181063Y259841D02*
Y261041D01*
X186369Y260441D02*
X187568D01*
X186969Y259841D02*
Y261041D01*
X192274Y250669D02*
X193474D01*
X192874Y250069D02*
Y251269D01*
X198179Y260441D02*
X199380D01*
X198779Y259841D02*
Y261041D01*
X204085Y260441D02*
X205285D01*
X204685Y259841D02*
Y261041D01*
X209991Y260441D02*
X211191D01*
X210591Y259841D02*
Y261041D01*
X215896Y260441D02*
X217096D01*
X216496Y259841D02*
Y261041D01*
X221802Y260441D02*
X223002D01*
X222402Y259841D02*
Y261041D01*
X209991Y275000D02*
X211191D01*
X210591Y274400D02*
Y275600D01*
X34794Y251024D02*
X35994D01*
X35394Y250424D02*
Y251624D01*
X30857Y251024D02*
X32057D01*
X31457Y250424D02*
Y251624D01*
X62353Y251024D02*
X63553D01*
X62953Y250424D02*
Y251624D01*
X50542Y251024D02*
X51742D01*
X51142Y250424D02*
Y251624D01*
X60424Y246654D02*
X61624D01*
X61024Y246054D02*
Y247253D01*
X45069Y236811D02*
X46269D01*
X45669Y236211D02*
Y237411D01*
X44676Y243504D02*
X45876D01*
X45276Y242904D02*
Y244104D01*
X41526Y244291D02*
X42726D01*
X42126Y243691D02*
Y244891D01*
X45069Y272638D02*
X46269D01*
X45669Y272038D02*
Y273238D01*
X8061Y273031D02*
X9261D01*
X8661Y272431D02*
Y273632D01*
X168104Y157677D02*
X168904D01*
X168504Y157277D02*
Y158077D01*
X160030Y149016D02*
X161230D01*
X160630Y148416D02*
Y149616D01*
X160030Y152165D02*
X161230D01*
X160630Y151565D02*
Y152765D01*
X235Y91685D02*
X1435D01*
X835Y91085D02*
Y92285D01*
X-4537Y91732D02*
X-3337D01*
X-3937Y91132D02*
Y92332D01*
X-15167Y21457D02*
X-13967D01*
X-14567Y20857D02*
Y22057D01*
X-18316Y21457D02*
X-17117D01*
X-17717Y20857D02*
Y22057D01*
X132865Y167126D02*
X134065D01*
X133465Y166526D02*
Y167726D01*
X4518Y220669D02*
X5718D01*
X5118Y220069D02*
Y221269D01*
X-1387Y219882D02*
X-187D01*
X-787Y219282D02*
Y220482D01*
X-4537Y219882D02*
X-3337D01*
X-3937Y219282D02*
Y220482D01*
X13180Y239567D02*
X14379D01*
X13780Y238967D02*
Y240167D01*
X19085Y226575D02*
X20285D01*
X19685Y225975D02*
Y227175D01*
X15542Y260827D02*
X16742D01*
X16142Y260227D02*
Y261427D01*
X12018Y248992D02*
X13218D01*
X12618Y248392D02*
Y249592D01*
X78140Y217125D02*
X79340D01*
X78740Y216525D02*
Y217725D01*
X186608Y100984D02*
X187408D01*
X187008Y100584D02*
Y101384D01*
X183458Y100984D02*
X184258D01*
X183858Y100584D02*
Y101384D01*
X180309Y94685D02*
X181109D01*
X180709Y94285D02*
Y95085D01*
X180309Y91535D02*
X181109D01*
X180709Y91135D02*
Y91935D01*
X157668Y169882D02*
X158868D01*
X158268Y169282D02*
Y170482D01*
X189758Y100984D02*
X190558D01*
X190157Y100584D02*
Y101384D01*
X192907Y100984D02*
X193707D01*
X193307Y100584D02*
Y101384D01*
X183458Y107283D02*
X184258D01*
X183858Y106883D02*
Y107683D01*
X183458Y104134D02*
X184258D01*
X183858Y103734D02*
Y104534D01*
X185817Y222835D02*
X187017D01*
X186417Y222235D02*
Y223435D01*
X199203Y169095D02*
X200403D01*
X199803Y168494D02*
Y169694D01*
X187589Y267913D02*
X188789D01*
X188189Y267313D02*
Y268513D01*
X20660Y184449D02*
X21860D01*
X21260Y183849D02*
Y185049D01*
X27746Y184449D02*
X28947D01*
X28346Y183849D02*
Y185049D01*
X22628Y187598D02*
X23828D01*
X23228Y186998D02*
Y188198D01*
X29321Y187598D02*
X30521D01*
X29921Y186998D02*
Y188198D01*
X-6112Y240748D02*
X-4912D01*
X-5512Y240148D02*
Y241348D01*
X49400Y232874D02*
X50600D01*
X50000Y232274D02*
Y233474D01*
X49400Y229724D02*
X50600D01*
X50000Y229124D02*
Y230324D01*
X65935Y235630D02*
X67135D01*
X66535Y235030D02*
Y236230D01*
X65935Y226181D02*
X67135D01*
X66535Y225581D02*
Y226781D01*
X73416Y196653D02*
X74616D01*
X74016Y196054D02*
Y197254D01*
X76959Y221457D02*
X78159D01*
X77559Y220857D02*
Y222057D01*
X25384Y187598D02*
X26584D01*
X25984Y186998D02*
Y188198D01*
X32077Y187598D02*
X33277D01*
X32677Y186998D02*
Y188198D01*
X38770Y187598D02*
X39970D01*
X39370Y186998D02*
Y188198D01*
X41920Y187598D02*
X43120D01*
X42520Y186998D02*
Y188198D01*
X52550Y191142D02*
X53750D01*
X53150Y190542D02*
Y191742D01*
X52550Y194685D02*
X53750D01*
X53150Y194085D02*
Y195285D01*
X52550Y215551D02*
X53750D01*
X53150Y214951D02*
Y216151D01*
X52550Y218701D02*
X53750D01*
X53150Y218101D02*
Y219301D01*
X52550Y197835D02*
X53750D01*
X53150Y197235D02*
Y198435D01*
X52550Y200984D02*
X53750D01*
X53150Y200384D02*
Y201584D01*
X175778Y210039D02*
X176978D01*
X176378Y209439D02*
Y210639D01*
X144282Y210039D02*
X145482D01*
X144882Y209439D02*
Y210639D01*
X152156Y210039D02*
X153356D01*
X152756Y209439D02*
Y210639D01*
X160030Y210039D02*
X161230D01*
X160630Y209439D02*
Y210639D01*
X167904Y210039D02*
X169104D01*
X168504Y209439D02*
Y210639D01*
X191526Y210039D02*
X192726D01*
X192126Y209439D02*
Y210639D01*
X183652Y210039D02*
X184852D01*
X184252Y209439D02*
Y210639D01*
X281490Y140945D02*
X282290D01*
X281890Y140545D02*
Y141345D01*
X281490Y152756D02*
X282290D01*
X281890Y152356D02*
Y153156D01*
X281490Y160630D02*
X282290D01*
X281890Y160230D02*
Y161030D01*
X281490Y156693D02*
X282290D01*
X281890Y156293D02*
Y157093D01*
X281490Y148819D02*
X282290D01*
X281890Y148419D02*
Y149219D01*
X281490Y144882D02*
X282290D01*
X281890Y144482D02*
Y145282D01*
X281490Y137008D02*
X282290D01*
X281890Y136608D02*
Y137408D01*
X281490Y133071D02*
X282290D01*
X281890Y132671D02*
Y133471D01*
X281490Y129134D02*
X282290D01*
X281890Y128734D02*
Y129534D01*
X281490Y125197D02*
X282290D01*
X281890Y124797D02*
Y125597D01*
X281490Y121260D02*
X282290D01*
X281890Y120860D02*
Y121660D01*
X281490Y117323D02*
X282290D01*
X281890Y116923D02*
Y117723D01*
X267313Y160630D02*
X268513D01*
X267913Y160030D02*
Y161230D01*
X250187Y79724D02*
X251387D01*
X250787Y79124D02*
Y80324D01*
X281683Y102165D02*
X282884D01*
X282283Y101565D02*
Y102765D01*
X281683Y108465D02*
X282884D01*
X282283Y107865D02*
Y109065D01*
X10030Y131299D02*
X11230D01*
X10630Y130699D02*
Y131899D01*
X10030Y136024D02*
X11230D01*
X10630Y135424D02*
Y136624D01*
X10030Y140748D02*
X11230D01*
X10630Y140148D02*
Y141348D01*
X14754Y140748D02*
X15954D01*
X15354Y140148D02*
Y141348D01*
X14754Y136024D02*
X15954D01*
X15354Y135424D02*
Y136624D01*
X14754Y131299D02*
X15954D01*
X15354Y130699D02*
Y131899D01*
X-41545Y150197D02*
X-40345D01*
X-40945Y149597D02*
Y150797D01*
X-41545Y145472D02*
X-40345D01*
X-40945Y144872D02*
Y146072D01*
X-32096Y134843D02*
X-30896D01*
X-31496Y134242D02*
Y135442D01*
X-34458Y153740D02*
X-33258D01*
X-33858Y153140D02*
Y154340D01*
X-34458Y137205D02*
X-33258D01*
X-33858Y136605D02*
Y137805D01*
X-2568Y76575D02*
X-1369D01*
X-1969Y75975D02*
Y77175D01*
X-206Y76575D02*
X994D01*
X394Y75975D02*
Y77175D01*
X11211Y77362D02*
X12411D01*
X11811Y76762D02*
Y77962D01*
X11211Y74606D02*
X12411D01*
X11811Y74006D02*
Y75206D01*
X8061Y74606D02*
X9261D01*
X8661Y74006D02*
Y75206D01*
X4912Y74606D02*
X6112D01*
X5512Y74006D02*
Y75206D01*
X8061Y77362D02*
X9261D01*
X8661Y76762D02*
Y77962D01*
X4912Y77362D02*
X6112D01*
X5512Y76762D02*
Y77962D01*
X24203Y84449D02*
X25403D01*
X24803Y83849D02*
Y85049D01*
X21054Y84449D02*
X22253D01*
X21654Y83849D02*
Y85049D01*
X17904Y84449D02*
X19104D01*
X18504Y83849D02*
Y85049D01*
X24203Y81299D02*
X25403D01*
X24803Y80699D02*
Y81899D01*
X21054Y81299D02*
X22253D01*
X21654Y80699D02*
Y81899D01*
X17510Y77362D02*
X18710D01*
X18110Y76762D02*
Y77962D01*
X8652Y99016D02*
X9852D01*
X9252Y98416D02*
Y99616D01*
X5502Y99016D02*
X6702D01*
X6102Y98416D02*
Y99616D01*
X187Y95276D02*
X1387D01*
X787Y94676D02*
Y95876D01*
X-41939Y13583D02*
X-40739D01*
X-41339Y12983D02*
Y14183D01*
X-39576Y13583D02*
X-38376D01*
X-38976Y12983D02*
Y14183D01*
X-28159Y14370D02*
X-26959D01*
X-27559Y13770D02*
Y14970D01*
X-28159Y11614D02*
X-26959D01*
X-27559Y11014D02*
Y12214D01*
X-31309Y11614D02*
X-30109D01*
X-30709Y11014D02*
Y12214D01*
X-34458Y11614D02*
X-33258D01*
X-33858Y11014D02*
Y12214D01*
X-31309Y14370D02*
X-30109D01*
X-30709Y13770D02*
Y14970D01*
X-34458Y14370D02*
X-33258D01*
X-33858Y13770D02*
Y14970D01*
X-21466Y21457D02*
X-20266D01*
X-20866Y20857D02*
Y22057D01*
X-15167Y18307D02*
X-13967D01*
X-14567Y17707D02*
Y18907D01*
X-18316Y18307D02*
X-17117D01*
X-17717Y17707D02*
Y18907D01*
X-21860Y14370D02*
X-20660D01*
X-21260Y13770D02*
Y14970D01*
X-30718Y36024D02*
X-29518D01*
X-30118Y35424D02*
Y36624D01*
X-33868Y36024D02*
X-32668D01*
X-33268Y35424D02*
Y36624D01*
X-39183Y32283D02*
X-37983D01*
X-38583Y31683D02*
Y32884D01*
X-39135Y28693D02*
X-37935D01*
X-38535Y28093D02*
Y29293D01*
X-43907Y28740D02*
X-42707D01*
X-43307Y28140D02*
Y29340D01*
X-41939Y45079D02*
X-40739D01*
X-41339Y44479D02*
Y45679D01*
X-39576Y45079D02*
X-38376D01*
X-38976Y44479D02*
Y45679D01*
X-28159Y45866D02*
X-26959D01*
X-27559Y45266D02*
Y46466D01*
X-28159Y43110D02*
X-26959D01*
X-27559Y42510D02*
Y43710D01*
X-31309Y43110D02*
X-30109D01*
X-30709Y42510D02*
Y43710D01*
X-34458Y43110D02*
X-33258D01*
X-33858Y42510D02*
Y43710D01*
X-31309Y45866D02*
X-30109D01*
X-30709Y45266D02*
Y46466D01*
X-34458Y45866D02*
X-33258D01*
X-33858Y45266D02*
Y46466D01*
X-15167Y52953D02*
X-13967D01*
X-14567Y52353D02*
Y53553D01*
X-18316Y52953D02*
X-17117D01*
X-17717Y52353D02*
Y53553D01*
X-21466Y52953D02*
X-20266D01*
X-20866Y52353D02*
Y53553D01*
X-15167Y49803D02*
X-13967D01*
X-14567Y49203D02*
Y50403D01*
X-18316Y49803D02*
X-17117D01*
X-17717Y49203D02*
Y50403D01*
X-21860Y45866D02*
X-20660D01*
X-21260Y45266D02*
Y46466D01*
X-30718Y67520D02*
X-29518D01*
X-30118Y66920D02*
Y68120D01*
X-33868Y67520D02*
X-32668D01*
X-33268Y66920D02*
Y68120D01*
X-39183Y63779D02*
X-37983D01*
X-38583Y63179D02*
Y64380D01*
X-39135Y60189D02*
X-37935D01*
X-38535Y59589D02*
Y60789D01*
X-43907Y60236D02*
X-42707D01*
X-43307Y59636D02*
Y60836D01*
X-43907Y91732D02*
X-42707D01*
X-43307Y91132D02*
Y92332D01*
X-39135Y91685D02*
X-37935D01*
X-38535Y91085D02*
Y92285D01*
X-39183Y95276D02*
X-37983D01*
X-38583Y94676D02*
Y95876D01*
X-33868Y99016D02*
X-32668D01*
X-33268Y98416D02*
Y99616D01*
X-30718Y99016D02*
X-29518D01*
X-30118Y98416D02*
Y99616D01*
X-21860Y77362D02*
X-20660D01*
X-21260Y76762D02*
Y77962D01*
X-18316Y81299D02*
X-17117D01*
X-17717Y80699D02*
Y81899D01*
X-15167Y81299D02*
X-13967D01*
X-14567Y80699D02*
Y81899D01*
X-21466Y84449D02*
X-20266D01*
X-20866Y83849D02*
Y85049D01*
X-18316Y84449D02*
X-17117D01*
X-17717Y83849D02*
Y85049D01*
X-15167Y84449D02*
X-13967D01*
X-14567Y83849D02*
Y85049D01*
X279518Y169882D02*
X280718D01*
X280118Y169282D02*
Y170482D01*
X44281Y25787D02*
X45481D01*
X44881Y25187D02*
Y26387D01*
X174009Y66339D02*
X174809D01*
X174409Y65939D02*
Y66739D01*
X48222Y197D02*
X49022D01*
X48622Y-203D02*
Y597D01*
X177159Y66339D02*
X177959D01*
X177559Y65939D02*
Y66739D01*
X51076Y197D02*
X51876D01*
X51476Y-203D02*
Y597D01*
X67116Y8071D02*
X68317D01*
X67716Y7471D02*
Y8671D01*
X151962Y63189D02*
X152762D01*
X152362Y62789D02*
Y63589D01*
X151962Y66339D02*
X152762D01*
X152362Y65939D02*
Y66739D01*
X42316Y197D02*
X43117D01*
X42717Y-203D02*
Y597D01*
X45466Y197D02*
X46266D01*
X45866Y-203D02*
Y597D01*
X46250Y8071D02*
X47450D01*
X46850Y7471D02*
Y8671D01*
X55699Y8071D02*
X56899D01*
X56299Y7471D02*
Y8671D01*
X50975Y8071D02*
X52175D01*
X51575Y7471D02*
Y8671D01*
X41526Y8071D02*
X42726D01*
X42126Y7471D02*
Y8671D01*
X30502Y8071D02*
X31702D01*
X31102Y7471D02*
Y8671D01*
X25778Y8071D02*
X26978D01*
X26378Y7471D02*
Y8671D01*
X21054Y8071D02*
X22253D01*
X21654Y7471D02*
Y8671D01*
X16329Y8071D02*
X17529D01*
X16929Y7471D02*
Y8671D01*
X1369Y8071D02*
X2568D01*
X1969Y7471D02*
Y8671D01*
X6093Y8071D02*
X7293D01*
X6693Y7471D02*
Y8671D01*
X4636Y20157D02*
X5836D01*
X5236Y19557D02*
Y20757D01*
X9203Y15197D02*
X10403D01*
X9803Y14597D02*
Y15797D01*
X11211Y13189D02*
X12411D01*
X11811Y12589D02*
Y13789D01*
X13140Y15197D02*
X14340D01*
X13740Y14597D02*
Y15797D01*
X15109Y24567D02*
X16309D01*
X15709Y23967D02*
Y25167D01*
X34833Y34449D02*
X36033D01*
X35433Y33849D02*
Y35049D01*
X30109Y47047D02*
X31309D01*
X30709Y46447D02*
Y47647D01*
X25384Y47047D02*
X26584D01*
X25984Y46447D02*
Y47647D01*
X30109Y42323D02*
X31309D01*
X30709Y41723D02*
Y42923D01*
X25384Y42323D02*
X26584D01*
X25984Y41723D02*
Y42923D01*
X30109Y34449D02*
X31309D01*
X30709Y33849D02*
Y35049D01*
X25384Y34449D02*
X26584D01*
X25984Y33849D02*
Y35049D01*
X-9261Y34843D02*
X-8061D01*
X-8661Y34242D02*
Y35443D01*
X-5718Y34843D02*
X-4518D01*
X-5118Y34242D02*
Y35443D01*
X-1781Y34449D02*
X-581D01*
X-1181Y33849D02*
Y35049D01*
X-9261Y41929D02*
X-8061D01*
X-8661Y41329D02*
Y42529D01*
X-5718Y41929D02*
X-4518D01*
X-5118Y41329D02*
Y42529D01*
X-1781Y41929D02*
X-581D01*
X-1181Y41329D02*
Y42529D01*
X-1683Y31398D02*
X-483D01*
X-1083Y30798D02*
Y31998D01*
X-1781Y27756D02*
X-581D01*
X-1181Y27156D02*
Y28356D01*
X173809Y8071D02*
X175009D01*
X174409Y7471D02*
Y8671D01*
X145069Y8071D02*
X146269D01*
X145669Y7471D02*
Y8671D01*
X134439Y8071D02*
X135639D01*
X135039Y7471D02*
Y8671D01*
X129715Y8071D02*
X130915D01*
X130315Y7471D02*
Y8671D01*
X124991Y8071D02*
X126191D01*
X125591Y7471D02*
Y8671D01*
X120266Y8071D02*
X121466D01*
X120866Y7471D02*
Y8671D01*
X95069Y8071D02*
X96269D01*
X95669Y7471D02*
Y8671D01*
X99794Y8071D02*
X100994D01*
X100394Y7471D02*
Y8671D01*
X109242Y8071D02*
X110442D01*
X109843Y7471D02*
Y8671D01*
X104518Y8071D02*
X105718D01*
X105118Y7471D02*
Y8671D01*
X89912Y15197D02*
X91112D01*
X90512Y14597D02*
Y15797D01*
X101723Y15197D02*
X102923D01*
X102323Y14597D02*
Y15797D01*
X107628Y15197D02*
X108828D01*
X108228Y14597D02*
Y15797D01*
X113534Y15197D02*
X114734D01*
X114134Y14597D02*
Y15797D01*
X119439Y15197D02*
X120639D01*
X120039Y14597D02*
Y15797D01*
X125345Y15197D02*
X126545D01*
X125945Y14597D02*
Y15797D01*
X131250Y15197D02*
X132450D01*
X131850Y14597D02*
Y15797D01*
X137156Y15197D02*
X138356D01*
X137756Y14597D02*
Y15797D01*
X143101Y15157D02*
X144301D01*
X143701Y14558D02*
Y15757D01*
X221802Y15197D02*
X223002D01*
X222402Y14597D02*
Y15797D01*
X215896Y15197D02*
X217096D01*
X216496Y14597D02*
Y15797D01*
X196057Y72638D02*
X196857D01*
X196457Y72238D02*
Y73038D01*
X196057Y69488D02*
X196857D01*
X196457Y69088D02*
Y69888D01*
X220466Y25394D02*
X221266D01*
X220866Y24994D02*
Y25794D01*
X217710Y25394D02*
X218510D01*
X218110Y24994D02*
Y25794D01*
X176526Y15197D02*
X177726D01*
X177126Y14597D02*
Y15797D01*
X118104Y197D02*
X118904D01*
X118504Y-203D02*
Y597D01*
X115249Y197D02*
X116049D01*
X115649Y-203D02*
Y597D01*
X150581Y8071D02*
X151781D01*
X151181Y7471D02*
Y8671D01*
X200148Y15197D02*
X201348D01*
X200748Y14597D02*
Y15797D01*
X243101Y29331D02*
X244301D01*
X243701Y28731D02*
Y29931D01*
X284439Y63976D02*
X285639D01*
X285039Y63376D02*
Y64576D01*
X232471Y29331D02*
X233671D01*
X233071Y28731D02*
Y29931D01*
X227747Y29331D02*
X228946D01*
X228346Y28731D02*
Y29931D01*
X226372Y61421D02*
X227572D01*
X226972Y60821D02*
Y62021D01*
X249404Y61224D02*
X250604D01*
X250004Y60624D02*
Y61824D01*
X239168Y61224D02*
X240368D01*
X239768Y60624D02*
Y61824D01*
X215542Y47835D02*
X216742D01*
X216142Y47235D02*
Y48435D01*
X221054Y46654D02*
X222253D01*
X221654Y46054D02*
Y47254D01*
X211211Y41535D02*
X212411D01*
X211811Y40935D02*
Y42135D01*
X211211Y38386D02*
X212411D01*
X211811Y37786D02*
Y38986D01*
X249404Y46256D02*
X250604D01*
X250004Y45656D02*
Y46856D01*
X234833Y37205D02*
X236033D01*
X235433Y36605D02*
Y37805D01*
X239168Y37996D02*
X240368D01*
X239768Y37396D02*
Y38596D01*
X236802Y46260D02*
X238002D01*
X237402Y45660D02*
Y46860D01*
X277747Y85827D02*
X278946D01*
X278346Y85227D02*
Y86427D01*
X251762Y116732D02*
X252962D01*
X252362Y116132D02*
Y117332D01*
X284639Y148819D02*
X285439D01*
X285039Y148419D02*
Y149219D01*
X284639Y156693D02*
X285439D01*
X285039Y156293D02*
Y157093D01*
X284639Y152756D02*
X285439D01*
X285039Y152356D02*
Y153156D01*
X284639Y144882D02*
X285439D01*
X285039Y144482D02*
Y145282D01*
X284639Y133071D02*
X285439D01*
X285039Y132671D02*
Y133471D01*
X284639Y117323D02*
X285439D01*
X285039Y116923D02*
Y117723D01*
X284639Y121260D02*
X285439D01*
X285039Y120860D02*
Y121660D01*
X284639Y125197D02*
X285439D01*
X285039Y124797D02*
Y125597D01*
X284639Y129134D02*
X285439D01*
X285039Y128734D02*
Y129534D01*
X301565Y30709D02*
X302765D01*
X302165Y30109D02*
Y31309D01*
X291329Y32677D02*
X292529D01*
X291929Y32077D02*
Y33277D01*
X301565Y34646D02*
X302765D01*
X302165Y34046D02*
Y35246D01*
X291329Y36614D02*
X292529D01*
X291929Y36014D02*
Y37214D01*
X301565Y38583D02*
X302765D01*
X302165Y37983D02*
Y39183D01*
X291329Y40551D02*
X292529D01*
X291929Y39951D02*
Y41151D01*
X301565Y42520D02*
X302765D01*
X302165Y41920D02*
Y43120D01*
X291329Y44488D02*
X292529D01*
X291929Y43888D02*
Y45088D01*
X301565Y46457D02*
X302765D01*
X302165Y45857D02*
Y47057D01*
X291329Y48425D02*
X292529D01*
X291929Y47825D02*
Y49025D01*
X301565Y50394D02*
X302765D01*
X302165Y49794D02*
Y50994D01*
X291329Y52362D02*
X292529D01*
X291929Y51762D02*
Y52962D01*
X301565Y54331D02*
X302765D01*
X302165Y53731D02*
Y54931D01*
X301565Y58268D02*
X302765D01*
X302165Y57668D02*
Y58868D01*
X291329Y56299D02*
X292529D01*
X291929Y55699D02*
Y56899D01*
X291329Y60236D02*
X292529D01*
X291929Y59636D02*
Y60836D01*
X301565Y62205D02*
X302765D01*
X302165Y61605D02*
Y62805D01*
X291329Y64173D02*
X292529D01*
X291929Y63573D02*
Y64773D01*
X301565Y66142D02*
X302765D01*
X302165Y65542D02*
Y66742D01*
X291329Y68110D02*
X292529D01*
X291929Y67510D02*
Y68710D01*
X301565Y70079D02*
X302765D01*
X302165Y69479D02*
Y70679D01*
X267707Y30709D02*
X268907D01*
X268307Y30109D02*
Y31309D01*
X267707Y36614D02*
X268907D01*
X268307Y36014D02*
Y37214D01*
X267707Y42520D02*
X268907D01*
X268307Y41920D02*
Y43120D01*
X267707Y48425D02*
X268907D01*
X268307Y47825D02*
Y49025D01*
X267707Y54331D02*
X268907D01*
X268307Y53731D02*
Y54931D01*
X267707Y60236D02*
X268907D01*
X268307Y59636D02*
Y60836D01*
X267707Y66142D02*
X268907D01*
X268307Y65542D02*
Y66742D01*
X267707Y72047D02*
X268907D01*
X268307Y71447D02*
Y72647D01*
X267707Y77953D02*
X268907D01*
X268307Y77353D02*
Y78553D01*
X267707Y85827D02*
X268907D01*
X268307Y85227D02*
Y86427D01*
X267313Y156693D02*
X268513D01*
X267913Y156093D02*
Y157293D01*
X234833Y219488D02*
X236033D01*
X235433Y218888D02*
Y220088D01*
X234833Y210827D02*
X236033D01*
X235433Y210227D02*
Y211427D01*
X220561Y225492D02*
X221761D01*
X221161Y224892D02*
Y226092D01*
X220561Y230610D02*
X221761D01*
X221161Y230010D02*
Y231210D01*
X43888Y39567D02*
X45088D01*
X44488Y38967D02*
Y40167D01*
X47038Y39567D02*
X48238D01*
X47638Y38967D02*
Y40167D01*
X47038Y42717D02*
X48238D01*
X47638Y42116D02*
Y43317D01*
X43888Y42717D02*
X45088D01*
X44488Y42116D02*
Y43317D01*
X43888Y55315D02*
X45088D01*
X44488Y54715D02*
Y55915D01*
X47038Y55315D02*
X48238D01*
X47638Y54715D02*
Y55915D01*
X47038Y58465D02*
X48238D01*
X47638Y57865D02*
Y59065D01*
X43888Y58465D02*
X45088D01*
X44488Y57865D02*
Y59065D01*
X43888Y83661D02*
X45088D01*
X44488Y83061D02*
Y84261D01*
X47038Y83661D02*
X48238D01*
X47638Y83061D02*
Y84261D01*
X47038Y86811D02*
X48238D01*
X47638Y86211D02*
Y87411D01*
X43888Y86811D02*
X45088D01*
X44488Y86211D02*
Y87411D01*
X43888Y99410D02*
X45088D01*
X44488Y98809D02*
Y100010D01*
X47038Y99410D02*
X48238D01*
X47638Y98809D02*
Y100010D01*
X47038Y102559D02*
X48238D01*
X47638Y101959D02*
Y103159D01*
X43888Y102559D02*
X45088D01*
X44488Y101959D02*
Y103159D01*
X284439Y23425D02*
X285639D01*
X285039Y22825D02*
Y24025D01*
X284439Y26575D02*
X285639D01*
X285039Y25975D02*
Y27175D01*
X284439Y29724D02*
X285639D01*
X285039Y29124D02*
Y30324D01*
X284439Y38780D02*
X285639D01*
X285039Y38179D02*
Y39380D01*
X284439Y41929D02*
X285639D01*
X285039Y41329D02*
Y42529D01*
X284439Y45079D02*
X285639D01*
X285039Y44479D02*
Y45679D01*
X284439Y51378D02*
X285639D01*
X285039Y50778D02*
Y51978D01*
X284439Y54528D02*
X285639D01*
X285039Y53928D02*
Y55128D01*
X284439Y67126D02*
X285639D01*
X285039Y66526D02*
Y67726D01*
X284439Y70276D02*
X285639D01*
X285039Y69676D02*
Y70876D01*
X284439Y73425D02*
X285639D01*
X285039Y72825D02*
Y74025D01*
X284439Y76575D02*
X285639D01*
X285039Y75975D02*
Y77175D01*
X284439Y79724D02*
X285639D01*
X285039Y79124D02*
Y80324D01*
X284439Y88779D02*
X285639D01*
X285039Y88179D02*
Y89380D01*
X301565Y75984D02*
X302765D01*
X302165Y75384D02*
Y76584D01*
X301565Y79921D02*
X302765D01*
X302165Y79321D02*
Y80521D01*
X301565Y83858D02*
X302765D01*
X302165Y83258D02*
Y84458D01*
X301565Y87795D02*
X302765D01*
X302165Y87195D02*
Y88395D01*
X301565Y109449D02*
X302765D01*
X302165Y108849D02*
Y110049D01*
X301565Y113386D02*
X302765D01*
X302165Y112786D02*
Y113986D01*
X301565Y117323D02*
X302765D01*
X302165Y116723D02*
Y117923D01*
X301565Y121260D02*
X302765D01*
X302165Y120660D02*
Y121860D01*
X301565Y125197D02*
X302765D01*
X302165Y124597D02*
Y125797D01*
X301565Y129134D02*
X302765D01*
X302165Y128534D02*
Y129734D01*
X301565Y133071D02*
X302765D01*
X302165Y132471D02*
Y133671D01*
X301565Y137008D02*
X302765D01*
X302165Y136408D02*
Y137608D01*
X301565Y140945D02*
X302765D01*
X302165Y140345D02*
Y141545D01*
X301565Y144882D02*
X302765D01*
X302165Y144282D02*
Y145482D01*
X301565Y148819D02*
X302765D01*
X302165Y148219D02*
Y149419D01*
X301565Y152756D02*
X302765D01*
X302165Y152156D02*
Y153356D01*
X301565Y156693D02*
X302765D01*
X302165Y156093D02*
Y157293D01*
X301565Y160630D02*
X302765D01*
X302165Y160030D02*
Y161230D01*
X224203Y280118D02*
X225403D01*
X224803Y279518D02*
Y280718D01*
X215896Y284803D02*
X217096D01*
X216496Y284203D02*
Y285403D01*
X202116Y284803D02*
X203316D01*
X202716Y284203D02*
Y285403D01*
X204085Y273858D02*
X205285D01*
X204685Y273258D02*
Y274458D01*
X200148Y273858D02*
X201348D01*
X200748Y273258D02*
Y274458D01*
X194243Y273858D02*
X195442D01*
X194843Y273258D02*
Y274458D01*
X188337Y273858D02*
X189537D01*
X188937Y273258D02*
Y274458D01*
X182431Y273858D02*
X183632D01*
X183031Y273258D02*
Y274458D01*
X176526Y273858D02*
X177726D01*
X177126Y273258D02*
Y274458D01*
X170621Y273858D02*
X171820D01*
X171221Y273258D02*
Y274458D01*
X164715Y273858D02*
X165915D01*
X165315Y273258D02*
Y274458D01*
X249006Y263976D02*
X250206D01*
X249606Y263376D02*
Y264576D01*
X249006Y267126D02*
X250206D01*
X249606Y266526D02*
Y267726D01*
X252156Y267126D02*
X253356D01*
X252756Y266526D02*
Y267726D01*
X245857Y263976D02*
X247057D01*
X246457Y263376D02*
Y264576D01*
X269085Y272441D02*
X270285D01*
X269685Y271841D02*
Y273041D01*
X269085Y278740D02*
X270285D01*
X269685Y278140D02*
Y279340D01*
X262786Y230906D02*
X263986D01*
X263386Y230306D02*
Y231505D01*
X244676Y254921D02*
X245876D01*
X245276Y254321D02*
Y255521D01*
X244676Y251772D02*
X245876D01*
X245276Y251172D02*
Y252372D01*
X244676Y245472D02*
X245876D01*
X245276Y244872D02*
Y246072D01*
X241526Y245472D02*
X242726D01*
X242126Y244872D02*
Y246072D01*
X241526Y242323D02*
X242726D01*
X242126Y241723D02*
Y242923D01*
X262786Y278740D02*
X263986D01*
X263386Y278140D02*
Y279340D01*
X224203Y267913D02*
X225403D01*
X224803Y267313D02*
Y268513D01*
X210030Y267913D02*
X211230D01*
X210630Y267313D02*
Y268513D01*
X205306Y267913D02*
X206505D01*
X205906Y267313D02*
Y268513D01*
X199400Y267913D02*
X200600D01*
X200000Y267313D02*
Y268513D01*
X182077Y267913D02*
X183277D01*
X182677Y267313D02*
Y268513D01*
X176172Y267913D02*
X177372D01*
X176772Y267313D02*
Y268513D01*
X158061Y267913D02*
X159261D01*
X158661Y267313D02*
Y268513D01*
X149794Y267913D02*
X150994D01*
X150394Y267313D02*
Y268513D01*
X145463Y267913D02*
X146663D01*
X146063Y267313D02*
Y268513D01*
X26172Y267913D02*
X27372D01*
X26772Y267313D02*
Y268513D01*
X29715Y267913D02*
X30915D01*
X30315Y267313D02*
Y268513D01*
X42707Y267913D02*
X43907D01*
X43307Y267313D02*
Y268513D01*
X54518Y267913D02*
X55718D01*
X55118Y267313D02*
Y268513D01*
X134833Y267913D02*
X136033D01*
X135433Y267313D02*
Y268513D01*
X124991Y267913D02*
X126191D01*
X125591Y267313D02*
Y268513D01*
X108849Y267913D02*
X110049D01*
X109449Y267313D02*
Y268513D01*
X102156Y267913D02*
X103356D01*
X102756Y267313D02*
Y268513D01*
X98219Y267913D02*
X99419D01*
X98819Y267313D02*
Y268513D01*
X94282Y267913D02*
X95482D01*
X94882Y267313D02*
Y268513D01*
X69085Y267913D02*
X70285D01*
X69685Y267313D02*
Y268513D01*
X72628Y267913D02*
X73828D01*
X73228Y267313D02*
Y268513D01*
X78140Y267913D02*
X79340D01*
X78740Y267313D02*
Y268513D01*
X82077Y264764D02*
X83277D01*
X82677Y264164D02*
Y265364D01*
X86408Y264764D02*
X87608D01*
X87008Y264164D02*
Y265364D01*
X95463Y272244D02*
X96663D01*
X96063Y271644D02*
Y272844D01*
X89951Y271063D02*
X91151D01*
X90551Y270463D02*
Y271663D01*
X93849Y284409D02*
X95049D01*
X94449Y283809D02*
Y285010D01*
X89912Y284409D02*
X91112D01*
X90512Y283809D02*
Y285010D01*
X86802Y275000D02*
X88002D01*
X87402Y274400D02*
Y275600D01*
X86014Y284448D02*
X87214D01*
X86614Y283848D02*
Y285048D01*
X190148Y231496D02*
X191348D01*
X190748Y230896D02*
Y232096D01*
X207510Y231142D02*
X208710D01*
X208110Y230542D02*
Y231742D01*
X207471Y241339D02*
X208671D01*
X208071Y240739D02*
Y241939D01*
X172235Y213976D02*
X173435D01*
X172835Y213376D02*
Y214576D01*
X184833Y213976D02*
X186033D01*
X185433Y213376D02*
Y214576D01*
X183652Y178150D02*
X184852D01*
X184252Y177550D02*
Y178750D01*
X191526Y178150D02*
X192726D01*
X192126Y177550D02*
Y178750D01*
X183652Y174213D02*
X184852D01*
X184252Y173613D02*
Y174813D01*
X191526Y175000D02*
X192726D01*
X192126Y174400D02*
Y175600D01*
X136802Y176181D02*
X138002D01*
X137402Y175581D02*
Y176781D01*
X157273Y237598D02*
X158473D01*
X157873Y236998D02*
Y238198D01*
X168494Y222835D02*
X169694D01*
X169095Y222235D02*
Y223435D01*
X157274Y232874D02*
X158474D01*
X157874Y232274D02*
Y233474D01*
X153337Y237598D02*
X154537D01*
X153937Y236998D02*
Y238198D01*
X141723Y213386D02*
X142923D01*
X142323Y212786D02*
Y213986D01*
X141723Y220866D02*
X142923D01*
X142323Y220266D02*
Y221466D01*
X59164Y267992D02*
X60364D01*
X59764Y267392D02*
Y268592D01*
X33458Y143504D02*
X34258D01*
X33858Y143104D02*
Y143904D01*
X33458Y140748D02*
X34258D01*
X33858Y140348D02*
Y141148D01*
X155010Y133563D02*
X156210D01*
X155610Y132963D02*
Y134163D01*
X154912Y143504D02*
X156112D01*
X155512Y142904D02*
Y144104D01*
X129482Y250728D02*
X130282D01*
X129882Y250328D02*
Y251128D01*
X167710Y119882D02*
X168510D01*
X168110Y119482D02*
Y120282D01*
X167710Y123031D02*
X168510D01*
X168110Y122632D02*
Y123432D01*
X155112Y123031D02*
X155912D01*
X155512Y122632D02*
Y123432D01*
X145663Y123031D02*
X146463D01*
X146063Y122632D02*
Y123432D01*
X161411Y113583D02*
X162211D01*
X161811Y113183D02*
Y113983D01*
X111765Y275847D02*
X112565D01*
X112165Y275447D02*
Y276247D01*
X158261Y50591D02*
X159061D01*
X158661Y50191D02*
Y50991D01*
X161411Y50591D02*
X162211D01*
X161811Y50191D02*
Y50991D01*
X112592Y69488D02*
X113392D01*
X112992Y69088D02*
Y69888D01*
X112592Y72638D02*
X113392D01*
X112992Y72238D02*
Y73038D01*
X115742Y69488D02*
X116542D01*
X116142Y69088D02*
Y69888D01*
X109442Y69488D02*
X110242D01*
X109843Y69088D02*
Y69888D01*
X109442Y72638D02*
X110242D01*
X109843Y72238D02*
Y73038D01*
X115742Y72638D02*
X116542D01*
X116142Y72238D02*
Y73038D01*
X165348Y35630D02*
X166148D01*
X165748Y35230D02*
Y36030D01*
X162198Y35630D02*
X162998D01*
X162598Y35230D02*
Y36030D01*
X165348Y38780D02*
X166148D01*
X165748Y38379D02*
Y39180D01*
X162198Y38780D02*
X162998D01*
X162598Y38379D02*
Y39180D01*
X162198Y32480D02*
X162998D01*
X162598Y32080D02*
Y32880D01*
X165348Y32480D02*
X166148D01*
X165748Y32080D02*
Y32880D01*
X145663Y35630D02*
X146463D01*
X146063Y35230D02*
Y36030D01*
X142513Y35630D02*
X143313D01*
X142913Y35230D02*
Y36030D01*
X145663Y38780D02*
X146463D01*
X146063Y38379D02*
Y39180D01*
X142513Y38780D02*
X143313D01*
X142913Y38379D02*
Y39180D01*
X142513Y32480D02*
X143313D01*
X142913Y32080D02*
Y32880D01*
X145663Y32480D02*
X146463D01*
X146063Y32080D02*
Y32880D01*
X126372Y32480D02*
X127172D01*
X126772Y32080D02*
Y32880D01*
X123222Y32480D02*
X124022D01*
X123622Y32080D02*
Y32880D01*
X123222Y38780D02*
X124022D01*
X123622Y38379D02*
Y39180D01*
X183458Y137992D02*
X184258D01*
X183858Y137592D02*
Y138392D01*
X183458Y141142D02*
X184258D01*
X183858Y140742D02*
Y141542D01*
X183458Y144291D02*
X184258D01*
X183858Y143891D02*
Y144691D01*
X186608Y144291D02*
X187408D01*
X187008Y143891D02*
Y144691D01*
X186608Y141142D02*
X187408D01*
X187008Y140742D02*
Y141542D01*
X186608Y137992D02*
X187408D01*
X187008Y137592D02*
Y138392D01*
X220466Y128937D02*
X221266D01*
X220866Y128537D02*
Y129337D01*
X214167Y128937D02*
X214967D01*
X214567Y128537D02*
Y129337D01*
X214167Y125787D02*
X214967D01*
X214567Y125387D02*
Y126187D01*
X220466Y125787D02*
X221266D01*
X220866Y125387D02*
Y126187D01*
X217317Y128937D02*
X218116D01*
X217717Y128537D02*
Y129337D01*
X217317Y125787D02*
X218116D01*
X217717Y125387D02*
Y126187D01*
X220466Y66339D02*
X221266D01*
X220866Y65939D02*
Y66739D01*
X214167Y66339D02*
X214967D01*
X214567Y65939D02*
Y66739D01*
X214167Y63189D02*
X214967D01*
X214567Y62789D02*
Y63589D01*
X220466Y63189D02*
X221266D01*
X220866Y62789D02*
Y63589D01*
X217317Y66339D02*
X218116D01*
X217717Y65939D02*
Y66739D01*
X217317Y63189D02*
X218116D01*
X217717Y62789D02*
Y63589D01*
X220466Y85630D02*
X221266D01*
X220866Y85230D02*
Y86030D01*
X214167Y85630D02*
X214967D01*
X214567Y85230D02*
Y86030D01*
X214167Y82480D02*
X214967D01*
X214567Y82080D02*
Y82880D01*
X220466Y82480D02*
X221266D01*
X220866Y82080D02*
Y82880D01*
X217317Y85630D02*
X218116D01*
X217717Y85230D02*
Y86030D01*
X217317Y82480D02*
X218116D01*
X217717Y82080D02*
Y82880D01*
X220466Y104921D02*
X221266D01*
X220866Y104521D02*
Y105321D01*
X214167Y104921D02*
X214967D01*
X214567Y104521D02*
Y105321D01*
X214167Y101772D02*
X214967D01*
X214567Y101372D02*
Y102172D01*
X220466Y101772D02*
X221266D01*
X220866Y101372D02*
Y102172D01*
X217317Y104921D02*
X218116D01*
X217717Y104521D02*
Y105321D01*
X217317Y101772D02*
X218116D01*
X217717Y101372D02*
Y102172D01*
X169285Y163583D02*
X170085D01*
X169685Y163183D02*
Y163983D01*
X159836Y163583D02*
X160636D01*
X160236Y163183D02*
Y163983D01*
X156293Y163583D02*
X157093D01*
X156693Y163183D02*
Y163983D01*
X144876Y170669D02*
X145676D01*
X145276Y170269D02*
Y171069D01*
X138576Y170669D02*
X139376D01*
X138976Y170269D02*
Y171069D01*
X138576Y163976D02*
X139376D01*
X138976Y163576D02*
Y164376D01*
X149600Y163583D02*
X150400D01*
X150000Y163183D02*
Y163983D01*
X149600Y160039D02*
X150400D01*
X150000Y159639D02*
Y160439D01*
X140545Y156890D02*
X141345D01*
X140945Y156490D02*
Y157290D01*
X137395Y156890D02*
X138195D01*
X137795Y156490D02*
Y157290D01*
X171254Y150197D02*
X172054D01*
X171653Y149797D02*
Y150597D01*
X168104Y150197D02*
X168904D01*
X168504Y149797D02*
Y150597D01*
X161411Y141142D02*
X162211D01*
X161811Y140742D02*
Y141542D01*
X161211Y144291D02*
X162411D01*
X161811Y143691D02*
Y144891D01*
X161411Y139173D02*
X162211D01*
X161811Y138773D02*
Y139573D01*
X167904Y144291D02*
X169104D01*
X168504Y143691D02*
Y144891D01*
X167904Y141142D02*
X169104D01*
X168504Y140542D02*
Y141742D01*
X167904Y137992D02*
X169104D01*
X168504Y137392D02*
Y138592D01*
X161411Y132087D02*
X162211D01*
X161811Y131687D02*
Y132487D01*
X167710Y132480D02*
X168510D01*
X168110Y132080D02*
Y132880D01*
X142513Y137992D02*
X143313D01*
X142913Y137592D02*
Y138392D01*
X123616Y144291D02*
X124416D01*
X124016Y143891D02*
Y144691D01*
X123616Y141142D02*
X124416D01*
X124016Y140742D02*
Y141542D01*
X123616Y137992D02*
X124416D01*
X124016Y137592D02*
Y138392D01*
X142513Y141142D02*
X143313D01*
X142913Y140742D02*
Y141542D01*
X142513Y144291D02*
X143313D01*
X142913Y143891D02*
Y144691D01*
X139364Y144291D02*
X140164D01*
X139764Y143891D02*
Y144691D01*
X139364Y141142D02*
X140164D01*
X139764Y140742D02*
Y141542D01*
X139364Y137992D02*
X140164D01*
X139764Y137592D02*
Y138392D01*
X120466Y144291D02*
X121266D01*
X120866Y143891D02*
Y144691D01*
X120466Y141142D02*
X121266D01*
X120866Y140742D02*
Y141542D01*
X120466Y137992D02*
X121266D01*
X120866Y137592D02*
Y138392D01*
X142513Y132480D02*
X143313D01*
X142913Y132080D02*
Y132880D01*
X139364Y132480D02*
X140164D01*
X139764Y132080D02*
Y132880D01*
X120466Y132480D02*
X121266D01*
X120866Y132080D02*
Y132880D01*
X123616Y132480D02*
X124416D01*
X124016Y132080D02*
Y132880D01*
X145663Y44291D02*
X146463D01*
X146063Y43891D02*
Y44691D01*
X142513Y44291D02*
X143313D01*
X142913Y43891D02*
Y44691D01*
X126372Y38780D02*
X127172D01*
X126772Y38379D02*
Y39180D01*
X123222Y35630D02*
X124022D01*
X123622Y35230D02*
Y36030D01*
X126372Y35630D02*
X127172D01*
X126772Y35230D02*
Y36030D01*
X123222Y44291D02*
X124022D01*
X123622Y43891D02*
Y44691D01*
X126372Y44291D02*
X127172D01*
X126772Y43891D02*
Y44691D01*
X167710Y44291D02*
X168510D01*
X168110Y43891D02*
Y44691D01*
X161411Y44291D02*
X162211D01*
X161811Y43891D02*
Y44691D01*
X170860Y44291D02*
X171660D01*
X171260Y43891D02*
Y44691D01*
X174009Y44291D02*
X174809D01*
X174409Y43891D02*
Y44691D01*
X180309Y44291D02*
X181109D01*
X180709Y43891D02*
Y44691D01*
X183458Y44291D02*
X184258D01*
X183858Y43891D02*
Y44691D01*
X189758Y41142D02*
X190558D01*
X190157Y40742D02*
Y41542D01*
X192907Y41142D02*
X193707D01*
X193307Y40742D02*
Y41542D01*
X189758Y44291D02*
X190558D01*
X190157Y43891D02*
Y44691D01*
X192907Y44291D02*
X193707D01*
X193307Y43891D02*
Y44691D01*
X196057Y50591D02*
X196857D01*
X196457Y50191D02*
Y50991D01*
X192907Y50591D02*
X193707D01*
X193307Y50191D02*
Y50991D01*
X183458Y50591D02*
X184258D01*
X183858Y50191D02*
Y50991D01*
X174009Y50591D02*
X174809D01*
X174409Y50191D02*
Y50991D01*
X151962Y50591D02*
X152762D01*
X152362Y50191D02*
Y50991D01*
X148813Y50591D02*
X149613D01*
X149213Y50191D02*
Y50991D01*
X139364Y50591D02*
X140164D01*
X139764Y50191D02*
Y50991D01*
X115742Y94685D02*
X116542D01*
X116142Y94285D02*
Y95085D01*
X109442Y94685D02*
X110242D01*
X109843Y94285D02*
Y95085D01*
X109442Y91535D02*
X110242D01*
X109843Y91135D02*
Y91935D01*
X115742Y91535D02*
X116542D01*
X116142Y91135D02*
Y91935D01*
X112592Y94685D02*
X113392D01*
X112992Y94285D02*
Y95085D01*
X112592Y91535D02*
X113392D01*
X112992Y91135D02*
Y91935D01*
X112592Y110433D02*
X113392D01*
X112992Y110033D02*
Y110833D01*
X112592Y113583D02*
X113392D01*
X112992Y113183D02*
Y113983D01*
X115742Y110433D02*
X116542D01*
X116142Y110033D02*
Y110833D01*
X109442Y110433D02*
X110242D01*
X109843Y110033D02*
Y110833D01*
X109442Y113583D02*
X110242D01*
X109843Y113183D02*
Y113983D01*
X115742Y113583D02*
X116542D01*
X116142Y113183D02*
Y113983D01*
X114167Y123031D02*
X114967D01*
X114567Y122632D02*
Y123432D01*
X119296Y122932D02*
X120096D01*
X119696Y122531D02*
Y123331D01*
X120466Y119882D02*
X121266D01*
X120866Y119482D02*
Y120282D01*
X120466Y113583D02*
X121266D01*
X120866Y113183D02*
Y113983D01*
X120466Y110433D02*
X121266D01*
X120866Y110033D02*
Y110833D01*
X120466Y104134D02*
X121266D01*
X120866Y103734D02*
Y104534D01*
X120466Y100984D02*
X121266D01*
X120866Y100584D02*
Y101384D01*
X120466Y94685D02*
X121266D01*
X120866Y94285D02*
Y95085D01*
X120466Y91535D02*
X121266D01*
X120866Y91135D02*
Y91935D01*
X120466Y85236D02*
X121266D01*
X120866Y84836D02*
Y85636D01*
X120466Y82087D02*
X121266D01*
X120866Y81687D02*
Y82487D01*
X120466Y72638D02*
X121266D01*
X120866Y72238D02*
Y73038D01*
X120466Y69488D02*
X121266D01*
X120866Y69088D02*
Y69888D01*
X120466Y60039D02*
X121266D01*
X120866Y59639D02*
Y60439D01*
X120466Y63189D02*
X121266D01*
X120866Y62789D02*
Y63589D01*
X126765Y63189D02*
X127565D01*
X127165Y62789D02*
Y63589D01*
X126765Y66339D02*
X127565D01*
X127165Y65939D02*
Y66739D01*
X126765Y78937D02*
X127565D01*
X127165Y78537D02*
Y79337D01*
X126765Y82087D02*
X127565D01*
X127165Y81687D02*
Y82487D01*
X126765Y85236D02*
X127565D01*
X127165Y84836D02*
Y85636D01*
X126765Y91535D02*
X127565D01*
X127165Y91135D02*
Y91935D01*
X126765Y97835D02*
X127565D01*
X127165Y97435D02*
Y98235D01*
X126765Y100984D02*
X127565D01*
X127165Y100584D02*
Y101384D01*
X126765Y107283D02*
X127565D01*
X127165Y106884D02*
Y107684D01*
X126765Y110433D02*
X127565D01*
X127165Y110033D02*
Y110833D01*
X126765Y116732D02*
X127565D01*
X127165Y116332D02*
Y117132D01*
X126765Y119882D02*
X127565D01*
X127165Y119482D02*
Y120282D01*
X186608Y132480D02*
X187408D01*
X187008Y132080D02*
Y132880D01*
X183458Y132480D02*
X184258D01*
X183858Y132080D02*
Y132880D01*
X202356Y53740D02*
X203156D01*
X202756Y53340D02*
Y54140D01*
X202356Y56890D02*
X203156D01*
X202756Y56490D02*
Y57290D01*
X208655Y63189D02*
X209455D01*
X209055Y62789D02*
Y63589D01*
X202356Y63189D02*
X203156D01*
X202756Y62789D02*
Y63589D01*
X208655Y66339D02*
X209455D01*
X209055Y65939D02*
Y66739D01*
X202356Y66339D02*
X203156D01*
X202756Y65939D02*
Y66739D01*
X202356Y72638D02*
X203156D01*
X202756Y72238D02*
Y73038D01*
X208655Y72638D02*
X209455D01*
X209055Y72238D02*
Y73038D01*
X208655Y75787D02*
X209455D01*
X209055Y75387D02*
Y76187D01*
X202356Y75787D02*
X203156D01*
X202756Y75387D02*
Y76187D01*
X202356Y82087D02*
X203156D01*
X202756Y81687D02*
Y82487D01*
X208655Y82087D02*
X209455D01*
X209055Y81687D02*
Y82487D01*
X208655Y93110D02*
X209455D01*
X209055Y92710D02*
Y93510D01*
X208655Y89961D02*
X209455D01*
X209055Y89561D02*
Y90361D01*
X208655Y85236D02*
X209455D01*
X209055Y84836D02*
Y85636D01*
X202356Y85236D02*
X203156D01*
X202756Y84836D02*
Y85636D01*
X208655Y101772D02*
X209455D01*
X209055Y101372D02*
Y102172D01*
X208655Y104921D02*
X209455D01*
X209055Y104521D02*
Y105321D01*
X208655Y110433D02*
X209455D01*
X209055Y110033D02*
Y110833D01*
X208655Y113583D02*
X209455D01*
X209055Y113183D02*
Y113983D01*
X208655Y123425D02*
X209455D01*
X209055Y123025D02*
Y123825D01*
X192907Y126181D02*
X193707D01*
X193307Y125781D02*
Y126581D01*
X183458Y126181D02*
X184258D01*
X183858Y125781D02*
Y126581D01*
X180309Y126181D02*
X181109D01*
X180709Y125781D02*
Y126581D01*
X189758Y126181D02*
X190558D01*
X190157Y125781D02*
Y126581D01*
X192907Y132480D02*
X193707D01*
X193307Y132080D02*
Y132880D01*
X196057Y132480D02*
X196857D01*
X196457Y132080D02*
Y132880D01*
X199206Y126181D02*
X200006D01*
X199606Y125781D02*
Y126581D01*
X202356Y126181D02*
X203156D01*
X202756Y125781D02*
Y126581D01*
X205112Y132480D02*
X205912D01*
X205512Y132080D02*
Y132880D01*
X208261Y132480D02*
X209061D01*
X208661Y132080D02*
Y132880D01*
X208655Y126575D02*
X209455D01*
X209055Y126175D02*
Y126975D01*
X158261Y126181D02*
X159061D01*
X158661Y125781D02*
Y126581D01*
X155112Y126181D02*
X155912D01*
X155512Y125781D02*
Y126581D01*
X167710Y126181D02*
X168510D01*
X168110Y125781D02*
Y126581D01*
X170860Y126181D02*
X171660D01*
X171260Y125781D02*
Y126581D01*
X148813Y126181D02*
X149613D01*
X149213Y125781D02*
Y126581D01*
X145663Y126181D02*
X146463D01*
X146063Y125781D02*
Y126581D01*
X136214Y123031D02*
X137014D01*
X136614Y122632D02*
Y123432D01*
X139364Y119882D02*
X140164D01*
X139764Y119482D02*
Y120282D01*
X145663Y119882D02*
X146463D01*
X146063Y119482D02*
Y120282D01*
X148813Y123031D02*
X149613D01*
X149213Y122632D02*
Y123432D01*
X167710Y91535D02*
X168510D01*
X168110Y91135D02*
Y91935D01*
X161411Y97835D02*
X162211D01*
X161811Y97435D02*
Y98235D01*
X158261Y91535D02*
X159061D01*
X158661Y91135D02*
Y91935D01*
X161411Y94685D02*
X162211D01*
X161811Y94285D02*
Y95085D01*
X170860Y85236D02*
X171660D01*
X171260Y84836D02*
Y85636D01*
X167710Y94685D02*
X168510D01*
X168110Y94285D02*
Y95085D01*
X170860Y91535D02*
X171660D01*
X171260Y91135D02*
Y91935D01*
X158261Y82087D02*
X159061D01*
X158661Y81687D02*
Y82487D01*
X158261Y94685D02*
X159061D01*
X158661Y94285D02*
Y95085D01*
X170860Y82087D02*
X171660D01*
X171260Y81687D02*
Y82487D01*
X170860Y94685D02*
X171660D01*
X171260Y94285D02*
Y95085D01*
X161411Y78937D02*
X162211D01*
X161811Y78537D02*
Y79337D01*
X167710Y78937D02*
X168510D01*
X168110Y78537D02*
Y79337D01*
X155112Y85236D02*
X155912D01*
X155512Y84836D02*
Y85636D01*
X155112Y91535D02*
X155912D01*
X155512Y91135D02*
Y91935D01*
X174009Y85236D02*
X174809D01*
X174409Y84836D02*
Y85636D01*
X174009Y91535D02*
X174809D01*
X174409Y91135D02*
Y91935D01*
X167710Y97835D02*
X168510D01*
X168110Y97435D02*
Y98235D01*
X158261Y78937D02*
X159061D01*
X158661Y78537D02*
Y79337D01*
X170860Y78937D02*
X171660D01*
X171260Y78537D02*
Y79337D01*
X155112Y82087D02*
X155912D01*
X155512Y81687D02*
Y82487D01*
X155112Y94685D02*
X155912D01*
X155512Y94285D02*
Y95085D01*
X158261Y97835D02*
X159061D01*
X158661Y97435D02*
Y98235D01*
X174009Y82087D02*
X174809D01*
X174409Y81687D02*
Y82487D01*
X174009Y94685D02*
X174809D01*
X174409Y94285D02*
Y95085D01*
X170860Y97835D02*
X171660D01*
X171260Y97435D02*
Y98235D01*
X155112Y78937D02*
X155912D01*
X155512Y78537D02*
Y79337D01*
X161411Y75787D02*
X162211D01*
X161811Y75387D02*
Y76187D01*
X167710Y75787D02*
X168510D01*
X168110Y75387D02*
Y76187D01*
X174009Y78937D02*
X174809D01*
X174409Y78537D02*
Y79337D01*
X151962Y85236D02*
X152762D01*
X152362Y84836D02*
Y85636D01*
X155112Y97835D02*
X155912D01*
X155512Y97435D02*
Y98235D01*
X177159Y91535D02*
X177959D01*
X177559Y91135D02*
Y91935D01*
X174009Y97835D02*
X174809D01*
X174409Y97435D02*
Y98235D01*
X161411Y100984D02*
X162211D01*
X161811Y100584D02*
Y101384D01*
X167710Y100984D02*
X168510D01*
X168110Y100584D02*
Y101384D01*
X158261Y75787D02*
X159061D01*
X158661Y75387D02*
Y76187D01*
X151962Y94685D02*
X152762D01*
X152362Y94285D02*
Y95085D01*
X170860Y75787D02*
X171660D01*
X171260Y75387D02*
Y76187D01*
X158261Y100984D02*
X159061D01*
X158661Y100584D02*
Y101384D01*
X170860Y100984D02*
X171660D01*
X171260Y100584D02*
Y101384D01*
X155112Y75787D02*
X155912D01*
X155512Y75387D02*
Y76187D01*
X174009Y75787D02*
X174809D01*
X174409Y75387D02*
Y76187D01*
X151962Y97835D02*
X152762D01*
X152362Y97435D02*
Y98235D01*
X155112Y100984D02*
X155912D01*
X155512Y100584D02*
Y101384D01*
X174009Y100984D02*
X174809D01*
X174409Y100584D02*
Y101384D01*
X161411Y72638D02*
X162211D01*
X161811Y72238D02*
Y73038D01*
X167710Y72638D02*
X168510D01*
X168110Y72238D02*
Y73038D01*
X148813Y85236D02*
X149613D01*
X149213Y84836D02*
Y85636D01*
X148813Y91535D02*
X149613D01*
X149213Y91135D02*
Y91935D01*
X161411Y104134D02*
X162211D01*
X161811Y103734D02*
Y104534D01*
X167710Y104134D02*
X168510D01*
X168110Y103734D02*
Y104534D01*
X158261Y72638D02*
X159061D01*
X158661Y72238D02*
Y73038D01*
X170860Y72638D02*
X171660D01*
X171260Y72238D02*
Y73038D01*
X158261Y104134D02*
X159061D01*
X158661Y103734D02*
Y104534D01*
X180309Y82087D02*
X181109D01*
X180709Y81687D02*
Y82487D01*
X170860Y104134D02*
X171660D01*
X171260Y103734D02*
Y104534D01*
X151962Y75787D02*
X152762D01*
X152362Y75387D02*
Y76187D01*
X177159Y75787D02*
X177959D01*
X177559Y75387D02*
Y76187D01*
X151962Y100984D02*
X152762D01*
X152362Y100584D02*
Y101384D01*
X177159Y100984D02*
X177959D01*
X177559Y100584D02*
Y101384D01*
X155112Y72638D02*
X155912D01*
X155512Y72238D02*
Y73038D01*
X148813Y78937D02*
X149613D01*
X149213Y78537D02*
Y79337D01*
X174009Y72638D02*
X174809D01*
X174409Y72238D02*
Y73038D01*
X148813Y97835D02*
X149613D01*
X149213Y97435D02*
Y98235D01*
X155112Y104134D02*
X155912D01*
X155512Y103734D02*
Y104534D01*
X174009Y104134D02*
X174809D01*
X174409Y103734D02*
Y104534D01*
X145663Y85236D02*
X146463D01*
X146063Y84836D02*
Y85636D01*
X145663Y91535D02*
X146463D01*
X146063Y91135D02*
Y91935D01*
X161411Y107283D02*
X162211D01*
X161811Y106883D02*
Y107683D01*
X167710Y107283D02*
X168510D01*
X168110Y106883D02*
Y107683D01*
X151962Y72638D02*
X152762D01*
X152362Y72238D02*
Y73038D01*
X148813Y75787D02*
X149613D01*
X149213Y75387D02*
Y76187D01*
X145663Y82087D02*
X146463D01*
X146063Y81687D02*
Y82487D01*
X145663Y94685D02*
X146463D01*
X146063Y94285D02*
Y95085D01*
X170860Y69488D02*
X171660D01*
X171260Y69088D02*
Y69888D01*
X177159Y72638D02*
X177959D01*
X177559Y72238D02*
Y73038D01*
X183458Y94685D02*
X184258D01*
X183858Y94285D02*
Y95085D01*
X180309Y100984D02*
X181109D01*
X180709Y100584D02*
Y101384D01*
X151962Y104134D02*
X152762D01*
X152362Y103734D02*
Y104534D01*
X158261Y107283D02*
X159061D01*
X158661Y106883D02*
Y107683D01*
X170860Y107283D02*
X171660D01*
X171260Y106883D02*
Y107683D01*
X145663Y78937D02*
X146463D01*
X146063Y78537D02*
Y79337D01*
X174009Y69488D02*
X174809D01*
X174409Y69088D02*
Y69888D01*
X145663Y97835D02*
X146463D01*
X146063Y97435D02*
Y98235D01*
X155112Y107283D02*
X155912D01*
X155512Y106883D02*
Y107683D01*
X174009Y107283D02*
X174809D01*
X174409Y106883D02*
Y107683D01*
X148813Y72638D02*
X149613D01*
X149213Y72238D02*
Y73038D01*
X148813Y104134D02*
X149613D01*
X149213Y103734D02*
Y104534D01*
X142513Y85236D02*
X143313D01*
X142913Y84836D02*
Y85636D01*
X142513Y91535D02*
X143313D01*
X142913Y91135D02*
Y91935D01*
X161411Y66339D02*
X162211D01*
X161811Y65939D02*
Y66739D01*
X151962Y69488D02*
X152762D01*
X152362Y69088D02*
Y69888D01*
X183458Y75787D02*
X184258D01*
X183858Y75387D02*
Y76187D01*
X151962Y107283D02*
X152762D01*
X152362Y106883D02*
Y107683D01*
X161411Y110433D02*
X162211D01*
X161811Y110033D02*
Y110833D01*
X167710Y110433D02*
X168510D01*
X168110Y110033D02*
Y110833D01*
X186608Y85236D02*
X187408D01*
X187008Y84836D02*
Y85636D01*
X177159Y107283D02*
X177959D01*
X177559Y106883D02*
Y107683D01*
X142513Y94685D02*
X143313D01*
X142913Y94285D02*
Y95085D01*
X158261Y110433D02*
X159061D01*
X158661Y110033D02*
Y110833D01*
X170860Y110433D02*
X171660D01*
X171260Y110033D02*
Y110833D01*
X142513Y78937D02*
X143313D01*
X142913Y78537D02*
Y79337D01*
X142513Y97835D02*
X143313D01*
X142913Y97435D02*
Y98235D01*
X155112Y110433D02*
X155912D01*
X155512Y110033D02*
Y110833D01*
X174009Y110433D02*
X174809D01*
X174409Y110033D02*
Y110833D01*
X148813Y69488D02*
X149613D01*
X149213Y69088D02*
Y69888D01*
X145663Y104134D02*
X146463D01*
X146063Y103734D02*
Y104534D01*
X148813Y107283D02*
X149613D01*
X149213Y106883D02*
Y107683D01*
X142513Y75787D02*
X143313D01*
X142913Y75387D02*
Y76187D01*
X142513Y100984D02*
X143313D01*
X142913Y100584D02*
Y101384D01*
X151962Y110433D02*
X152762D01*
X152362Y110033D02*
Y110833D01*
X139364Y85236D02*
X140164D01*
X139764Y84836D02*
Y85636D01*
X139364Y91535D02*
X140164D01*
X139764Y91135D02*
Y91935D01*
X167710Y113583D02*
X168510D01*
X168110Y113183D02*
Y113983D01*
X139364Y94685D02*
X140164D01*
X139764Y94285D02*
Y95085D01*
X158261Y113583D02*
X159061D01*
X158661Y113183D02*
Y113983D01*
X170860Y113583D02*
X171660D01*
X171260Y113183D02*
Y113983D01*
X142513Y72638D02*
X143313D01*
X142913Y72238D02*
Y73038D01*
X155112Y63189D02*
X155912D01*
X155512Y62789D02*
Y63589D01*
X174009Y63189D02*
X174809D01*
X174409Y62789D02*
Y63589D01*
X180309Y66339D02*
X181109D01*
X180709Y65939D02*
Y66739D01*
X139364Y78937D02*
X140164D01*
X139764Y78537D02*
Y79337D01*
X189758Y78937D02*
X190558D01*
X190157Y78537D02*
Y79337D01*
X139364Y97835D02*
X140164D01*
X139764Y97435D02*
Y98235D01*
X142513Y104134D02*
X143313D01*
X142913Y103734D02*
Y104534D01*
X148813Y110433D02*
X149613D01*
X149213Y110033D02*
Y110833D01*
X155112Y113583D02*
X155912D01*
X155512Y113183D02*
Y113983D01*
X189758Y97835D02*
X190558D01*
X190157Y97435D02*
Y98235D01*
X186608Y104134D02*
X187408D01*
X187008Y103734D02*
Y104534D01*
X174009Y113583D02*
X174809D01*
X174409Y113183D02*
Y113983D01*
X139364Y75787D02*
X140164D01*
X139764Y75387D02*
Y76187D01*
X139364Y100984D02*
X140164D01*
X139764Y100584D02*
Y101384D01*
X151962Y113583D02*
X152762D01*
X152362Y113183D02*
Y113983D01*
X167710Y60039D02*
X168510D01*
X168110Y59639D02*
Y60439D01*
X145663Y66339D02*
X146463D01*
X146063Y65939D02*
Y66739D01*
X136214Y85236D02*
X137014D01*
X136614Y84836D02*
Y85636D01*
X136214Y91535D02*
X137014D01*
X136614Y91135D02*
Y91935D01*
X142513Y107283D02*
X143313D01*
X142913Y106883D02*
Y107683D01*
X145663Y110433D02*
X146463D01*
X146063Y110033D02*
Y110833D01*
X183458Y110433D02*
X184258D01*
X183858Y110033D02*
Y110833D01*
X186608Y69488D02*
X187408D01*
X187008Y69088D02*
Y69888D01*
X192907Y91535D02*
X193707D01*
X193307Y91135D02*
Y91935D01*
X161411Y116732D02*
X162211D01*
X161811Y116332D02*
Y117132D01*
X148813Y130905D02*
X149613D01*
X149213Y130506D02*
Y131306D01*
X136214Y82087D02*
X137014D01*
X136614Y81687D02*
Y82487D01*
X136214Y94685D02*
X137014D01*
X136614Y94285D02*
Y95085D01*
X158261Y116732D02*
X159061D01*
X158661Y116332D02*
Y117132D01*
X170860Y116732D02*
X171660D01*
X171260Y116332D02*
Y117132D01*
X139364Y104134D02*
X140164D01*
X139764Y103734D02*
Y104534D01*
X148813Y113583D02*
X149613D01*
X149213Y113183D02*
Y113983D01*
X136214Y78937D02*
X137014D01*
X136614Y78537D02*
Y79337D01*
X136214Y97835D02*
X137014D01*
X136614Y97435D02*
Y98235D01*
X155112Y116732D02*
X155912D01*
X155512Y116332D02*
Y117132D01*
X174009Y116732D02*
X174809D01*
X174409Y116332D02*
Y117132D01*
X136214Y75787D02*
X137014D01*
X136614Y75387D02*
Y76187D01*
X136214Y100984D02*
X137014D01*
X136614Y100584D02*
Y101384D01*
X142513Y110433D02*
X143313D01*
X142913Y110033D02*
Y110833D01*
X151962Y116732D02*
X152762D01*
X152362Y116332D02*
Y117132D01*
X189758Y69488D02*
X190558D01*
X190157Y69088D02*
Y69888D01*
X139364Y107283D02*
X140164D01*
X139764Y106883D02*
Y107683D01*
X145663Y113583D02*
X146463D01*
X146063Y113183D02*
Y113983D01*
X133065Y85236D02*
X133865D01*
X133465Y84836D02*
Y85636D01*
X133065Y91535D02*
X133865D01*
X133465Y91135D02*
Y91935D01*
X161411Y119882D02*
X162211D01*
X161811Y119482D02*
Y120282D01*
X133065Y94685D02*
X133865D01*
X133465Y94285D02*
Y95085D01*
X158261Y56890D02*
X159061D01*
X158661Y56490D02*
Y57290D01*
X148813Y60039D02*
X149613D01*
X149213Y59639D02*
Y60439D01*
X136214Y72638D02*
X137014D01*
X136614Y72238D02*
Y73038D01*
X136214Y104134D02*
X137014D01*
X136614Y103734D02*
Y104534D01*
X158261Y119882D02*
X159061D01*
X158661Y119482D02*
Y120282D01*
X192907Y72638D02*
X193707D01*
X193307Y72238D02*
Y73038D01*
X196057Y82087D02*
X196857D01*
X196457Y81687D02*
Y82487D01*
X148813Y116732D02*
X149613D01*
X149213Y116332D02*
Y117132D01*
X180309Y116732D02*
X181109D01*
X180709Y116332D02*
Y117132D01*
X170860Y119882D02*
X171660D01*
X171260Y119482D02*
Y120282D01*
X155112Y119882D02*
X155912D01*
X155512Y119482D02*
Y120282D01*
X174009Y119882D02*
X174809D01*
X174409Y119482D02*
Y120282D01*
X142513Y113583D02*
X143313D01*
X142913Y113183D02*
Y113983D01*
X133065Y75787D02*
X133865D01*
X133465Y75387D02*
Y76187D01*
X183458Y60039D02*
X184258D01*
X183858Y59639D02*
Y60439D01*
X136214Y69488D02*
X137014D01*
X136614Y69088D02*
Y69888D01*
X136214Y107283D02*
X137014D01*
X136614Y106883D02*
Y107683D01*
X151962Y119882D02*
X152762D01*
X152362Y119482D02*
Y120282D01*
X177159Y56890D02*
X177959D01*
X177559Y56490D02*
Y57290D01*
X192907Y107283D02*
X193707D01*
X193307Y106883D02*
Y107683D01*
X145663Y116732D02*
X146463D01*
X146063Y116332D02*
Y117132D01*
X196057Y100984D02*
X196857D01*
X196457Y100584D02*
Y101384D01*
X133065Y72638D02*
X133865D01*
X133465Y72238D02*
Y73038D01*
X129915Y85236D02*
X130715D01*
X130315Y84836D02*
Y85636D01*
X129915Y91535D02*
X130715D01*
X130315Y91135D02*
Y91935D01*
X133065Y104134D02*
X133865D01*
X133465Y103734D02*
Y104534D01*
X148813Y119882D02*
X149613D01*
X149213Y119482D02*
Y120282D01*
X170860Y53740D02*
X171660D01*
X171260Y53340D02*
Y54140D01*
X139364Y63189D02*
X140164D01*
X139764Y62789D02*
Y63589D01*
X129915Y82087D02*
X130715D01*
X130315Y81687D02*
Y82487D01*
X129915Y94685D02*
X130715D01*
X130315Y94285D02*
Y95085D01*
X189758Y63189D02*
X190558D01*
X190157Y62789D02*
Y63589D01*
X200781Y93110D02*
X201581D01*
X201181Y92710D02*
Y93510D01*
X139364Y113583D02*
X140164D01*
X139764Y113183D02*
Y113983D01*
X189758Y113583D02*
X190558D01*
X190157Y113183D02*
Y113983D01*
X158261Y123031D02*
X159061D01*
X158661Y122632D02*
Y123432D01*
X170860Y123031D02*
X171660D01*
X171260Y122632D02*
Y123432D01*
X136214Y66339D02*
X137014D01*
X136614Y65939D02*
Y66739D01*
X136214Y110433D02*
X137014D01*
X136614Y110033D02*
Y110833D01*
X142513Y116732D02*
X143313D01*
X142913Y116332D02*
Y117132D01*
X129915Y78937D02*
X130715D01*
X130315Y78537D02*
Y79337D01*
X129915Y97835D02*
X130715D01*
X130315Y97435D02*
Y98235D01*
X174009Y123031D02*
X174809D01*
X174409Y122632D02*
Y123432D01*
X133065Y69488D02*
X133865D01*
X133465Y69088D02*
Y69888D01*
X133065Y107283D02*
X133865D01*
X133465Y106883D02*
Y107683D01*
X151962Y53740D02*
X152762D01*
X152362Y53340D02*
Y54140D01*
X129915Y75787D02*
X130715D01*
X130315Y75387D02*
Y76187D01*
X129915Y100984D02*
X130715D01*
X130315Y100584D02*
Y101384D01*
X199206Y75787D02*
X200006D01*
X199606Y75387D02*
Y76187D01*
X151962Y123031D02*
X152762D01*
X152362Y122632D02*
Y123432D01*
X177159Y123031D02*
X177959D01*
X177559Y122632D02*
Y123432D01*
X136214Y63189D02*
X137014D01*
X136614Y62789D02*
Y63589D01*
X136214Y113583D02*
X137014D01*
X136614Y113183D02*
Y113983D01*
X139364Y116732D02*
X140164D01*
X139764Y116332D02*
Y117132D01*
X129915Y72638D02*
X130715D01*
X130315Y72238D02*
Y73038D01*
X129915Y104134D02*
X130715D01*
X130315Y103734D02*
Y104534D01*
X133065Y110433D02*
X133865D01*
X133465Y110033D02*
Y110833D01*
X142513Y56890D02*
X143313D01*
X142913Y56490D02*
Y57290D01*
X142513Y119882D02*
X143313D01*
X142913Y119482D02*
Y120282D01*
X196057Y66339D02*
X196857D01*
X196457Y65939D02*
Y66739D01*
X186608Y119882D02*
X187408D01*
X187008Y119482D02*
Y120282D01*
X129915Y69488D02*
X130715D01*
X130315Y69088D02*
Y69888D01*
X129915Y107283D02*
X130715D01*
X130315Y106883D02*
Y107683D01*
X136214Y60039D02*
X137014D01*
X136614Y59639D02*
Y60439D01*
X136214Y116732D02*
X137014D01*
X136614Y116332D02*
Y117132D01*
X129915Y66339D02*
X130715D01*
X130315Y65939D02*
Y66739D01*
X129915Y110433D02*
X130715D01*
X130315Y110033D02*
Y110833D01*
X186608Y53740D02*
X187408D01*
X187008Y53340D02*
Y54140D01*
X200781Y108858D02*
X201581D01*
X201181Y108458D02*
Y109258D01*
X142513Y123031D02*
X143313D01*
X142913Y122632D02*
Y123432D01*
X133065Y60039D02*
X133865D01*
X133465Y59639D02*
Y60439D01*
X136214Y56890D02*
X137014D01*
X136614Y56490D02*
Y57290D01*
X192907Y56890D02*
X193707D01*
X193307Y56490D02*
Y57290D01*
X136214Y119882D02*
X137014D01*
X136614Y119482D02*
Y120282D01*
X129915Y63189D02*
X130715D01*
X130315Y62789D02*
Y63589D01*
X129915Y113583D02*
X130715D01*
X130315Y113183D02*
Y113983D01*
X133065Y56890D02*
X133865D01*
X133465Y56490D02*
Y57290D01*
X133065Y119882D02*
X133865D01*
X133465Y119482D02*
Y120282D01*
X136214Y53740D02*
X137014D01*
X136614Y53340D02*
Y54140D01*
X129915Y60039D02*
X130715D01*
X130315Y59639D02*
Y60439D01*
X199206Y60039D02*
X200006D01*
X199606Y59639D02*
Y60439D01*
X129915Y116732D02*
X130715D01*
X130315Y116332D02*
Y117132D01*
X192907Y123031D02*
X193707D01*
X193307Y122632D02*
Y123432D01*
X129915Y56890D02*
X130715D01*
X130315Y56490D02*
Y57290D01*
X129915Y119882D02*
X130715D01*
X130315Y119482D02*
Y120282D01*
X7235Y260776D02*
X8435D01*
X7835Y260176D02*
Y261376D01*
X161411Y85236D02*
X162211D01*
X161811Y84836D02*
Y85636D01*
X148813Y100984D02*
X149613D01*
X149213Y100584D02*
Y101384D01*
X151962Y82087D02*
X152762D01*
X152362Y81687D02*
Y82487D01*
X145663Y100984D02*
X146463D01*
X146063Y100584D02*
Y101384D01*
X158261Y85236D02*
X159061D01*
X158661Y84836D02*
Y85636D01*
X196057Y116732D02*
X196857D01*
X196457Y116332D02*
Y117132D01*
X151962Y78937D02*
X152762D01*
X152362Y78537D02*
Y79337D01*
X148813Y82087D02*
X149613D01*
X149213Y81687D02*
Y82487D01*
X148813Y94685D02*
X149613D01*
X149213Y94285D02*
Y95085D01*
X151962Y91535D02*
X152761D01*
X152362Y91135D02*
Y91935D01*
X219974Y1378D02*
X220774D01*
X220374Y978D02*
Y1778D01*
X224199Y175390D02*
X225399D01*
X224799Y174790D02*
Y175990D01*
X222235Y178543D02*
X223435D01*
X222835Y177943D02*
Y179143D01*
X226172Y143504D02*
X227372D01*
X226772Y142904D02*
Y144104D01*
X219872Y172638D02*
X221072D01*
X220472Y172038D02*
Y173238D01*
X-36261Y120504D02*
X-35061D01*
X-35661Y119904D02*
Y121104D01*
X-6112Y120276D02*
X-4912D01*
X-5512Y119676D02*
Y120876D01*
X-9655Y120276D02*
X-8455D01*
X-9055Y119676D02*
Y120876D01*
X-6112Y117126D02*
X-4912D01*
X-5512Y116526D02*
Y117726D01*
X-21860Y117520D02*
X-20660D01*
X-21260Y116920D02*
Y118120D01*
X-21860Y115157D02*
X-20660D01*
X-21260Y114558D02*
Y115758D01*
X-21860Y112795D02*
X-20660D01*
X-21260Y112195D02*
Y113395D01*
X-9655Y117126D02*
X-8455D01*
X-9055Y116526D02*
Y117726D01*
X-9655Y113976D02*
X-8455D01*
X-9055Y113376D02*
Y114576D01*
X-6112Y113976D02*
X-4912D01*
X-5512Y113376D02*
Y114576D01*
X-15167Y126181D02*
X-13967D01*
X-14567Y125581D02*
Y126781D01*
X-32096Y123425D02*
X-30896D01*
X-31496Y122825D02*
Y124025D01*
X-6112Y123819D02*
X-4912D01*
X-5512Y123219D02*
Y124419D01*
X-9655Y123819D02*
X-8455D01*
X-9055Y123219D02*
Y124419D01*
X-61230Y103740D02*
X-60030D01*
X-60630Y103140D02*
Y104340D01*
X-83277Y97047D02*
X-82077D01*
X-82677Y96447D02*
Y97647D01*
X-76191Y102953D02*
X-74990D01*
X-75590Y102353D02*
Y103553D01*
X-64434Y102952D02*
X-63234D01*
X-63834Y102352D02*
Y103552D01*
X-86033Y122244D02*
X-84833D01*
X-85433Y121644D02*
Y122844D01*
X-51781Y93110D02*
X-50581D01*
X-51181Y92510D02*
Y93710D01*
X-48238Y93110D02*
X-47038D01*
X-47638Y92510D02*
Y93710D01*
X-48238Y96260D02*
X-47038D01*
X-47638Y95660D02*
Y96860D01*
X-51781Y96260D02*
X-50581D01*
X-51181Y95660D02*
Y96860D01*
X-51781Y99410D02*
X-50581D01*
X-51181Y98809D02*
Y100010D01*
X-48238Y99410D02*
X-47038D01*
X-47638Y98809D02*
Y100010D01*
X-48238Y102953D02*
X-47038D01*
X-47638Y102353D02*
Y103553D01*
X-51781Y102953D02*
X-50581D01*
X-51181Y102353D02*
Y103553D01*
X-64380Y95079D02*
X-63179D01*
X-63779Y94479D02*
Y95679D01*
X-64380Y92716D02*
X-63179D01*
X-63779Y92116D02*
Y93317D01*
X-64380Y97441D02*
X-63179D01*
X-63779Y96841D02*
Y98041D01*
X-81309Y131299D02*
X-80109D01*
X-80709Y130699D02*
Y131899D01*
X103143Y123031D02*
X103943D01*
X103543Y122632D02*
Y123432D01*
X4912Y152953D02*
X6112D01*
X5512Y152353D02*
Y153553D01*
X21841Y143504D02*
X23041D01*
X22441Y142904D02*
Y144104D01*
X18691Y143504D02*
X19891D01*
X19291Y142904D02*
Y144104D01*
X56687Y102559D02*
X57487D01*
X57087Y102159D02*
Y102959D01*
X59836Y102559D02*
X60636D01*
X60236Y102159D02*
Y102959D01*
X62986Y102559D02*
X63786D01*
X63386Y102159D02*
Y102959D01*
X62986Y99410D02*
X63786D01*
X63386Y99010D02*
Y99809D01*
X59836Y99410D02*
X60636D01*
X60236Y99010D02*
Y99809D01*
X56687Y99410D02*
X57487D01*
X57087Y99010D02*
Y99809D01*
X53537Y99410D02*
X54337D01*
X53937Y99010D02*
Y99809D01*
X53537Y102559D02*
X54337D01*
X53937Y102159D02*
Y102959D01*
X53537Y105709D02*
X54337D01*
X53937Y105309D02*
Y106109D01*
X56687Y105709D02*
X57487D01*
X57087Y105309D02*
Y106109D01*
X59836Y105709D02*
X60636D01*
X60236Y105309D02*
Y106109D01*
X62986Y105709D02*
X63786D01*
X63386Y105309D02*
Y106109D01*
X66135Y105709D02*
X66935D01*
X66535Y105309D02*
Y106109D01*
X66135Y102559D02*
X66935D01*
X66535Y102159D02*
Y102959D01*
X66135Y99410D02*
X66935D01*
X66535Y99010D02*
Y99809D01*
X69285Y99410D02*
X70085D01*
X69685Y99010D02*
Y99809D01*
X69285Y102559D02*
X70085D01*
X69685Y102159D02*
Y102959D01*
X72435Y99410D02*
X73235D01*
X72835Y99010D02*
Y99809D01*
X72435Y102559D02*
X73235D01*
X72835Y102159D02*
Y102959D01*
X72435Y105709D02*
X73235D01*
X72835Y105309D02*
Y106109D01*
X75584Y99410D02*
X76384D01*
X75984Y99010D02*
Y99809D01*
X75584Y102559D02*
X76384D01*
X75984Y102159D02*
Y102959D01*
X78734Y99410D02*
X79534D01*
X79134Y99010D02*
Y99809D01*
X78734Y102559D02*
X79534D01*
X79134Y102159D02*
Y102959D01*
X78734Y105709D02*
X79534D01*
X79134Y105309D02*
Y106109D01*
X81884Y102559D02*
X82683D01*
X82284Y102159D02*
Y102959D01*
X81884Y105709D02*
X82683D01*
X82284Y105309D02*
Y106109D01*
X85033Y102559D02*
X85833D01*
X85433Y102159D02*
Y102959D01*
X85033Y105709D02*
X85833D01*
X85433Y105309D02*
Y106109D01*
X88183Y99410D02*
X88983D01*
X88583Y99010D02*
Y99809D01*
X88183Y102559D02*
X88983D01*
X88583Y102159D02*
Y102959D01*
X88183Y105709D02*
X88983D01*
X88583Y105309D02*
Y106109D01*
X91332Y99410D02*
X92132D01*
X91732Y99010D02*
Y99809D01*
X91332Y102559D02*
X92132D01*
X91732Y102159D02*
Y102959D01*
X91332Y105709D02*
X92132D01*
X91732Y105309D02*
Y106109D01*
X94482Y99410D02*
X95282D01*
X94882Y99010D02*
Y99809D01*
X94482Y102559D02*
X95282D01*
X94882Y102159D02*
Y102959D01*
X94482Y105709D02*
X95282D01*
X94882Y105309D02*
Y106109D01*
X97632Y99410D02*
X98431D01*
X98032Y99010D02*
Y99809D01*
X97632Y102559D02*
X98431D01*
X98032Y102159D02*
Y102959D01*
X97632Y105709D02*
X98431D01*
X98032Y105309D02*
Y106109D01*
X100781Y99410D02*
X101581D01*
X101181Y99010D02*
Y99809D01*
X100781Y102559D02*
X101581D01*
X101181Y102159D02*
Y102959D01*
X100781Y105709D02*
X101581D01*
X101181Y105309D02*
Y106109D01*
X48025Y123031D02*
X48825D01*
X48425Y122632D02*
Y123432D01*
X51962Y135630D02*
X52762D01*
X52362Y135230D02*
Y136030D01*
X60624Y123031D02*
X61424D01*
X61024Y122632D02*
Y123432D01*
X56293Y135630D02*
X57093D01*
X56693Y135230D02*
Y136030D01*
X86608Y135630D02*
X87408D01*
X87008Y135230D02*
Y136030D01*
X82277Y135630D02*
X83077D01*
X82677Y135230D02*
Y136030D01*
X69285Y123031D02*
X70085D01*
X69685Y122632D02*
Y123432D01*
X77947Y135630D02*
X78746D01*
X78347Y135230D02*
Y136030D01*
X73616Y135630D02*
X74416D01*
X74016Y135230D02*
Y136030D01*
X60624Y135630D02*
X61424D01*
X61024Y135230D02*
Y136030D01*
X95269Y135630D02*
X96069D01*
X95669Y135230D02*
Y136030D01*
X99600Y123031D02*
X100400D01*
X100000Y122632D02*
Y123432D01*
X90939Y123031D02*
X91739D01*
X91339Y122632D02*
Y123432D01*
X99600Y135630D02*
X100400D01*
X100000Y135230D02*
Y136030D01*
X95269Y123031D02*
X96069D01*
X95669Y122632D02*
Y123432D01*
X86608Y123031D02*
X87408D01*
X87008Y122632D02*
Y123432D01*
X51962Y123031D02*
X52762D01*
X52362Y122632D02*
Y123432D01*
X64954Y123031D02*
X65754D01*
X65354Y122632D02*
Y123432D01*
X73616Y123031D02*
X74416D01*
X74016Y122632D02*
Y123432D01*
X90939Y135630D02*
X91739D01*
X91339Y135230D02*
Y136030D01*
X69285Y135630D02*
X70085D01*
X69685Y135230D02*
Y136030D01*
X82277Y123031D02*
X83077D01*
X82677Y122632D02*
Y123432D01*
X64954Y135630D02*
X65754D01*
X65354Y135230D02*
Y136030D01*
X77947Y123031D02*
X78746D01*
X78347Y122632D02*
Y123432D01*
X56293Y123031D02*
X57093D01*
X56693Y122632D02*
Y123432D01*
X44088Y135630D02*
X44888D01*
X44488Y135230D02*
Y136030D01*
X44088Y123031D02*
X44888D01*
X44488Y122632D02*
Y123432D01*
X48025Y135630D02*
X48825D01*
X48425Y135230D02*
Y136030D01*
X103143Y135630D02*
X103943D01*
X103543Y135230D02*
Y136030D01*
X56687Y86811D02*
X57487D01*
X57087Y86411D02*
Y87211D01*
X53537Y86811D02*
X54337D01*
X53937Y86411D02*
Y87211D01*
X53537Y83661D02*
X54337D01*
X53937Y83261D02*
Y84061D01*
X53537Y80512D02*
X54337D01*
X53937Y80112D02*
Y80912D01*
X56687Y80512D02*
X57487D01*
X57087Y80112D02*
Y80912D01*
X56687Y83661D02*
X57487D01*
X57087Y83261D02*
Y84061D01*
X62986Y86811D02*
X63786D01*
X63386Y86411D02*
Y87211D01*
X59836Y86811D02*
X60636D01*
X60236Y86411D02*
Y87211D01*
X59836Y83661D02*
X60636D01*
X60236Y83261D02*
Y84061D01*
X59836Y80512D02*
X60636D01*
X60236Y80112D02*
Y80912D01*
X62986Y80512D02*
X63786D01*
X63386Y80112D02*
Y80912D01*
X62986Y83661D02*
X63786D01*
X63386Y83261D02*
Y84061D01*
X66135Y83661D02*
X66935D01*
X66535Y83261D02*
Y84061D01*
X66135Y80512D02*
X66935D01*
X66535Y80112D02*
Y80912D01*
X72435Y80512D02*
X73235D01*
X72835Y80112D02*
Y80912D01*
X81884Y86811D02*
X82683D01*
X82284Y86411D02*
Y87211D01*
X78734Y86811D02*
X79534D01*
X79134Y86411D02*
Y87211D01*
X78734Y83661D02*
X79534D01*
X79134Y83261D02*
Y84061D01*
X78734Y80512D02*
X79534D01*
X79134Y80112D02*
Y80912D01*
X81884Y80512D02*
X82683D01*
X82284Y80112D02*
Y80912D01*
X81884Y83661D02*
X82683D01*
X82284Y83261D02*
Y84061D01*
X88183Y86811D02*
X88983D01*
X88583Y86411D02*
Y87211D01*
X85033Y86811D02*
X85833D01*
X85433Y86411D02*
Y87211D01*
X85033Y83661D02*
X85833D01*
X85433Y83261D02*
Y84061D01*
X85033Y80512D02*
X85833D01*
X85433Y80112D02*
Y80912D01*
X88183Y80512D02*
X88983D01*
X88583Y80112D02*
Y80912D01*
X88183Y83661D02*
X88983D01*
X88583Y83261D02*
Y84061D01*
X91332Y86811D02*
X92132D01*
X91732Y86411D02*
Y87211D01*
X91332Y83661D02*
X92132D01*
X91732Y83261D02*
Y84061D01*
X91332Y80512D02*
X92132D01*
X91732Y80112D02*
Y80912D01*
X94482Y80512D02*
X95282D01*
X94882Y80112D02*
Y80912D01*
X94482Y83661D02*
X95282D01*
X94882Y83261D02*
Y84061D01*
X100781Y86811D02*
X101581D01*
X101181Y86411D02*
Y87211D01*
X97632Y83661D02*
X98431D01*
X98032Y83261D02*
Y84061D01*
X97632Y80512D02*
X98431D01*
X98032Y80112D02*
Y80912D01*
X100781Y80512D02*
X101581D01*
X101181Y80112D02*
Y80912D01*
X100781Y83661D02*
X101581D01*
X101181Y83261D02*
Y84061D01*
X56687Y61614D02*
X57487D01*
X57087Y61214D02*
Y62014D01*
X53537Y61614D02*
X54337D01*
X53937Y61214D02*
Y62014D01*
X53537Y58465D02*
X54337D01*
X53937Y58065D02*
Y58865D01*
X53537Y55315D02*
X54337D01*
X53937Y54915D02*
Y55715D01*
X56687Y55315D02*
X57487D01*
X57087Y54915D02*
Y55715D01*
X56687Y58465D02*
X57487D01*
X57087Y58065D02*
Y58865D01*
X62986Y61614D02*
X63786D01*
X63386Y61214D02*
Y62014D01*
X59836Y61614D02*
X60636D01*
X60236Y61214D02*
Y62014D01*
X59836Y58465D02*
X60636D01*
X60236Y58065D02*
Y58865D01*
X59836Y55315D02*
X60636D01*
X60236Y54915D02*
Y55715D01*
X62986Y55315D02*
X63786D01*
X63386Y54915D02*
Y55715D01*
X62986Y58465D02*
X63786D01*
X63386Y58065D02*
Y58865D01*
X66135Y61614D02*
X66935D01*
X66535Y61214D02*
Y62014D01*
X66135Y58465D02*
X66935D01*
X66535Y58065D02*
Y58865D01*
X66135Y55315D02*
X66935D01*
X66535Y54915D02*
Y55715D01*
X69285Y55315D02*
X70085D01*
X69685Y54915D02*
Y55715D01*
X69285Y58465D02*
X70085D01*
X69685Y58065D02*
Y58865D01*
X72435Y61614D02*
X73235D01*
X72835Y61214D02*
Y62014D01*
X72435Y58465D02*
X73235D01*
X72835Y58065D02*
Y58865D01*
X72435Y55315D02*
X73235D01*
X72835Y54915D02*
Y55715D01*
X75584Y55315D02*
X76384D01*
X75984Y54915D02*
Y55715D01*
X75584Y58465D02*
X76384D01*
X75984Y58065D02*
Y58865D01*
X81884Y61614D02*
X82683D01*
X82284Y61214D02*
Y62014D01*
X78734Y61614D02*
X79534D01*
X79134Y61214D02*
Y62014D01*
X78734Y58465D02*
X79534D01*
X79134Y58065D02*
Y58865D01*
X78734Y55315D02*
X79534D01*
X79134Y54915D02*
Y55715D01*
X81884Y58465D02*
X82683D01*
X82284Y58065D02*
Y58865D01*
X88183Y61614D02*
X88983D01*
X88583Y61214D02*
Y62014D01*
X85033Y61614D02*
X85833D01*
X85433Y61214D02*
Y62014D01*
X85033Y58465D02*
X85833D01*
X85433Y58065D02*
Y58865D01*
X88183Y55315D02*
X88983D01*
X88583Y54915D02*
Y55715D01*
X88183Y58465D02*
X88983D01*
X88583Y58065D02*
Y58865D01*
X94482Y61614D02*
X95282D01*
X94882Y61214D02*
Y62014D01*
X91332Y61614D02*
X92132D01*
X91732Y61214D02*
Y62014D01*
X91332Y58465D02*
X92132D01*
X91732Y58065D02*
Y58865D01*
X91332Y55315D02*
X92132D01*
X91732Y54915D02*
Y55715D01*
X94482Y55315D02*
X95282D01*
X94882Y54915D02*
Y55715D01*
X94482Y58465D02*
X95282D01*
X94882Y58065D02*
Y58865D01*
X100781Y61614D02*
X101581D01*
X101181Y61214D02*
Y62014D01*
X97632Y61614D02*
X98431D01*
X98032Y61214D02*
Y62014D01*
X97632Y58465D02*
X98431D01*
X98032Y58065D02*
Y58865D01*
X97632Y55315D02*
X98431D01*
X98032Y54915D02*
Y55715D01*
X100781Y55315D02*
X101581D01*
X101181Y54915D02*
Y55715D01*
X100781Y58465D02*
X101581D01*
X101181Y58065D02*
Y58865D01*
X56687Y42717D02*
X57487D01*
X57087Y42317D02*
Y43117D01*
X53537Y42717D02*
X54337D01*
X53937Y42317D02*
Y43117D01*
X53537Y39567D02*
X54337D01*
X53937Y39167D02*
Y39967D01*
X53537Y36417D02*
X54337D01*
X53937Y36017D02*
Y36817D01*
X56687Y36417D02*
X57487D01*
X57087Y36017D02*
Y36817D01*
X56687Y39567D02*
X57487D01*
X57087Y39167D02*
Y39967D01*
X62986Y42717D02*
X63786D01*
X63386Y42317D02*
Y43117D01*
X59836Y42717D02*
X60636D01*
X60236Y42317D02*
Y43117D01*
X59836Y39567D02*
X60636D01*
X60236Y39167D02*
Y39967D01*
X59836Y36417D02*
X60636D01*
X60236Y36017D02*
Y36817D01*
X62986Y36417D02*
X63786D01*
X63386Y36017D02*
Y36817D01*
X62986Y39567D02*
X63786D01*
X63386Y39167D02*
Y39967D01*
X69285Y42717D02*
X70085D01*
X69685Y42317D02*
Y43117D01*
X66135Y39567D02*
X66935D01*
X66535Y39167D02*
Y39967D01*
X66135Y36417D02*
X66935D01*
X66535Y36017D02*
Y36817D01*
X72435Y39567D02*
X73235D01*
X72835Y39167D02*
Y39967D01*
X72435Y36417D02*
X73235D01*
X72835Y36017D02*
Y36817D01*
X75584Y39567D02*
X76384D01*
X75984Y39167D02*
Y39967D01*
X81884Y42717D02*
X82683D01*
X82284Y42317D02*
Y43117D01*
X78734Y42717D02*
X79534D01*
X79134Y42317D02*
Y43117D01*
X78734Y39567D02*
X79534D01*
X79134Y39167D02*
Y39967D01*
X78734Y36417D02*
X79534D01*
X79134Y36017D02*
Y36817D01*
X81884Y36417D02*
X82683D01*
X82284Y36017D02*
Y36817D01*
X81884Y39567D02*
X82683D01*
X82284Y39167D02*
Y39967D01*
X88183Y42717D02*
X88983D01*
X88583Y42317D02*
Y43117D01*
X85033Y42717D02*
X85833D01*
X85433Y42317D02*
Y43117D01*
X85033Y39567D02*
X85833D01*
X85433Y39167D02*
Y39967D01*
X85033Y36417D02*
X85833D01*
X85433Y36017D02*
Y36817D01*
X88183Y36417D02*
X88983D01*
X88583Y36017D02*
Y36817D01*
X88183Y39567D02*
X88983D01*
X88583Y39167D02*
Y39967D01*
X91332Y42717D02*
X92132D01*
X91732Y42317D02*
Y43117D01*
X91332Y39567D02*
X92132D01*
X91732Y39167D02*
Y39967D01*
X91332Y36417D02*
X92132D01*
X91732Y36017D02*
Y36817D01*
X94482Y36417D02*
X95282D01*
X94882Y36017D02*
Y36817D01*
X94482Y39567D02*
X95282D01*
X94882Y39167D02*
Y39967D01*
X100781Y42717D02*
X101581D01*
X101181Y42317D02*
Y43117D01*
X97632Y39567D02*
X98431D01*
X98032Y39167D02*
Y39967D01*
X97632Y36417D02*
X98431D01*
X98032Y36017D02*
Y36817D01*
X100781Y36417D02*
X101581D01*
X101181Y36017D02*
Y36817D01*
X100781Y39567D02*
X101581D01*
X101181Y39167D02*
Y39967D01*
X72435Y83661D02*
X73235D01*
X72835Y83261D02*
Y84061D01*
X69285Y83661D02*
X70085D01*
X69685Y83261D02*
Y84061D01*
X69285Y86811D02*
X70085D01*
X69685Y86411D02*
Y87211D01*
X75584Y83661D02*
X76384D01*
X75984Y83261D02*
Y84061D01*
X50387Y99410D02*
X51187D01*
X50787Y99010D02*
Y99809D01*
X69285Y39567D02*
X70085D01*
X69685Y39167D02*
Y39967D01*
X-81309Y178543D02*
X-80109D01*
X-80709Y177943D02*
Y179143D01*
X-64380Y144685D02*
X-63179D01*
X-63779Y144085D02*
Y145285D01*
X-64380Y139961D02*
X-63179D01*
X-63779Y139361D02*
Y140561D01*
X-64380Y142323D02*
X-63179D01*
X-63779Y141723D02*
Y142923D01*
X-51781Y150197D02*
X-50581D01*
X-51181Y149597D02*
Y150797D01*
X-48238Y150197D02*
X-47038D01*
X-47638Y149597D02*
Y150797D01*
X-48238Y146653D02*
X-47038D01*
X-47638Y146054D02*
Y147254D01*
X-51781Y146653D02*
X-50581D01*
X-51181Y146054D02*
Y147254D01*
X-51781Y143504D02*
X-50581D01*
X-51181Y142904D02*
Y144104D01*
X-48238Y143504D02*
X-47038D01*
X-47638Y142904D02*
Y144104D01*
X-48238Y140354D02*
X-47038D01*
X-47638Y139754D02*
Y140954D01*
X-51781Y140354D02*
X-50581D01*
X-51181Y139754D02*
Y140954D01*
X-86033Y169488D02*
X-84833D01*
X-85433Y168888D02*
Y170088D01*
X-64434Y150196D02*
X-63234D01*
X-63834Y149596D02*
Y150796D01*
X-76191Y150197D02*
X-74990D01*
X-75590Y149597D02*
Y150797D01*
X-83277Y144291D02*
X-82077D01*
X-82677Y143691D02*
Y144891D01*
X-61230Y150984D02*
X-60030D01*
X-60630Y150384D02*
Y151584D01*
X-81309Y36811D02*
X-80109D01*
X-80709Y36211D02*
Y37411D01*
X-64380Y2953D02*
X-63179D01*
X-63779Y2353D02*
Y3553D01*
X-64380Y-1772D02*
X-63179D01*
X-63779Y-2372D02*
Y-1172D01*
X-64380Y591D02*
X-63179D01*
X-63779Y-9D02*
Y1191D01*
X-51781Y8465D02*
X-50581D01*
X-51181Y7865D02*
Y9065D01*
X-48238Y8465D02*
X-47038D01*
X-47638Y7865D02*
Y9065D01*
X-48238Y4921D02*
X-47038D01*
X-47638Y4321D02*
Y5521D01*
X-51781Y4921D02*
X-50581D01*
X-51181Y4321D02*
Y5521D01*
X-51781Y1772D02*
X-50581D01*
X-51181Y1172D02*
Y2372D01*
X-48238Y1772D02*
X-47038D01*
X-47638Y1172D02*
Y2372D01*
X-48238Y-1378D02*
X-47038D01*
X-47638Y-1978D02*
Y-778D01*
X-51781Y-1378D02*
X-50581D01*
X-51181Y-1978D02*
Y-778D01*
X-86033Y27756D02*
X-84833D01*
X-85433Y27156D02*
Y28356D01*
X-64434Y8464D02*
X-63234D01*
X-63834Y7864D02*
Y9064D01*
X-76191Y8465D02*
X-74990D01*
X-75590Y7865D02*
Y9065D01*
X-83277Y2559D02*
X-82077D01*
X-82677Y1959D02*
Y3159D01*
X-61230Y9252D02*
X-60030D01*
X-60630Y8652D02*
Y9852D01*
X-81309Y84055D02*
X-80109D01*
X-80709Y83455D02*
Y84655D01*
X-64380Y50197D02*
X-63179D01*
X-63779Y49597D02*
Y50797D01*
X-64380Y45472D02*
X-63179D01*
X-63779Y44872D02*
Y46072D01*
X-64380Y47835D02*
X-63179D01*
X-63779Y47235D02*
Y48435D01*
X-51781Y55709D02*
X-50581D01*
X-51181Y55109D02*
Y56309D01*
X-48238Y55709D02*
X-47038D01*
X-47638Y55109D02*
Y56309D01*
X-48238Y52165D02*
X-47038D01*
X-47638Y51565D02*
Y52765D01*
X-51781Y52165D02*
X-50581D01*
X-51181Y51565D02*
Y52765D01*
X-51781Y49016D02*
X-50581D01*
X-51181Y48416D02*
Y49616D01*
X-48238Y49016D02*
X-47038D01*
X-47638Y48416D02*
Y49616D01*
X-48238Y45866D02*
X-47038D01*
X-47638Y45266D02*
Y46466D01*
X-51781Y45866D02*
X-50581D01*
X-51181Y45266D02*
Y46466D01*
X-86033Y75000D02*
X-84833D01*
X-85433Y74400D02*
Y75600D01*
X-64434Y55708D02*
X-63234D01*
X-63834Y55108D02*
Y56308D01*
X-76191Y55709D02*
X-74990D01*
X-75590Y55109D02*
Y56309D01*
X-83277Y49803D02*
X-82077D01*
X-82677Y49203D02*
Y50403D01*
X-61230Y56496D02*
X-60030D01*
X-60630Y55896D02*
Y57096D01*
X62471Y267992D02*
X63671D01*
X63071Y267392D02*
Y268592D01*
X77746Y278543D02*
X78947D01*
X78347Y277943D02*
Y279143D01*
X58849Y275394D02*
X60049D01*
X59449Y274794D02*
Y275994D01*
X62250Y262937D02*
X63450D01*
X62850Y262337D02*
Y263537D01*
X56880Y272638D02*
X58080D01*
X57480Y272038D02*
Y273238D01*
X47038Y275394D02*
X48238D01*
X47638Y274794D02*
Y275994D01*
X33258Y273031D02*
X34458D01*
X33858Y272431D02*
Y273631D01*
X28282Y271598D02*
X29482D01*
X28882Y270998D02*
Y272198D01*
X10424Y275394D02*
X11624D01*
X11024Y274794D02*
Y275994D01*
X15109Y284409D02*
X16309D01*
X15709Y283809D02*
Y285010D01*
X19046Y284409D02*
X20246D01*
X19646Y283809D02*
Y285010D01*
X22983Y284409D02*
X24183D01*
X23583Y283809D02*
Y285010D01*
X21014Y275433D02*
X22214D01*
X21614Y274833D02*
Y276033D01*
X17077Y275433D02*
X18277D01*
X17677Y274833D02*
Y276033D01*
X24951Y275433D02*
X26151D01*
X25551Y274833D02*
Y276033D01*
X26920Y284409D02*
X28120D01*
X27520Y283809D02*
Y285010D01*
X30857Y284409D02*
X32057D01*
X31457Y283809D02*
Y285010D01*
X34833Y284842D02*
X36033D01*
X35433Y284242D02*
Y285442D01*
X36762Y275039D02*
X37962D01*
X37362Y274439D02*
Y275639D01*
X38731Y284409D02*
X39931D01*
X39331Y283809D02*
Y285010D01*
X39557Y275000D02*
X40758D01*
X40157Y274400D02*
Y275600D01*
X42707Y284449D02*
X43907D01*
X43307Y283849D02*
Y285049D01*
X47431Y284842D02*
X48632D01*
X48031Y284243D02*
Y285442D01*
X50542Y284409D02*
X51742D01*
X51142Y283809D02*
Y285010D01*
X51368Y275000D02*
X52569D01*
X51968Y274400D02*
Y275600D01*
X54479Y284409D02*
X55679D01*
X55079Y283809D02*
Y285010D01*
X71447Y275394D02*
X72647D01*
X72047Y274794D02*
Y275994D01*
X62353Y284803D02*
X63553D01*
X62953Y284203D02*
Y285403D01*
X64321Y275039D02*
X65521D01*
X64921Y274439D02*
Y275639D01*
X38628Y262937D02*
X39828D01*
X39228Y262337D02*
Y263537D01*
X50187Y262795D02*
X51387D01*
X50787Y262195D02*
Y263395D01*
X56880Y248228D02*
X58080D01*
X57480Y247628D02*
Y248828D01*
X48278Y267972D02*
X49478D01*
X48878Y267372D02*
Y268572D01*
X37274Y267992D02*
X38474D01*
X37874Y267392D02*
Y268592D01*
X34439Y267913D02*
X35639D01*
X35039Y267313D02*
Y268513D01*
X9203Y251024D02*
X10403D01*
X9803Y250424D02*
Y251624D01*
X15109Y251024D02*
X16309D01*
X15709Y250424D02*
Y251624D01*
X19046Y251024D02*
X20246D01*
X19646Y250424D02*
Y251624D01*
X-3671Y267992D02*
X-2471D01*
X-3071Y267392D02*
Y268592D01*
X2491Y273366D02*
X3691D01*
X3091Y272766D02*
Y273966D01*
X-600Y273424D02*
X600D01*
X-0Y272824D02*
Y274024D01*
X11211Y284449D02*
X12411D01*
X11811Y283849D02*
Y285049D01*
X23416Y263189D02*
X24616D01*
X24016Y262589D02*
Y263789D01*
X18691Y263976D02*
X19891D01*
X19291Y263376D02*
Y264576D01*
X23022Y250984D02*
X24222D01*
X23622Y250384D02*
Y251584D01*
X26920Y251024D02*
X28120D01*
X27520Y250424D02*
Y251624D01*
X38770Y250984D02*
X39970D01*
X39370Y250384D02*
Y251584D01*
X42707Y250984D02*
X43907D01*
X43307Y250384D02*
Y251584D01*
X46605Y251024D02*
X47805D01*
X47205Y250424D02*
Y251624D01*
X48613Y246654D02*
X49813D01*
X49213Y246054D02*
Y247253D01*
X52550Y246654D02*
X53750D01*
X53150Y246054D02*
Y247253D01*
X58416Y251024D02*
X59616D01*
X59016Y250424D02*
Y251624D01*
X-34458Y77362D02*
X-33258D01*
X-33858Y76762D02*
Y77962D01*
X-31309Y77362D02*
X-30109D01*
X-30709Y76762D02*
Y77962D01*
X-34458Y74606D02*
X-33258D01*
X-33858Y74006D02*
Y75206D01*
X-31309Y74606D02*
X-30109D01*
X-30709Y74006D02*
Y75206D01*
X-28159Y74606D02*
X-26959D01*
X-27559Y74006D02*
Y75206D01*
X-28159Y77362D02*
X-26959D01*
X-27559Y76762D02*
Y77962D01*
X-39576Y76575D02*
X-38376D01*
X-38976Y75975D02*
Y77175D01*
X-41939Y76575D02*
X-40739D01*
X-41339Y75975D02*
Y77175D01*
X28888Y-9213D02*
X30088D01*
X29488Y-9813D02*
Y-8613D01*
X24991Y-9252D02*
X26191D01*
X25591Y-9852D02*
Y-8652D01*
X21014Y-9213D02*
X22214D01*
X21614Y-9813D02*
Y-8613D01*
X17077Y-9213D02*
X18277D01*
X17677Y-9813D02*
Y-8613D01*
X13140Y-9213D02*
X14340D01*
X13740Y-9813D02*
Y-8613D01*
X11172Y945D02*
X12372D01*
X11772Y345D02*
Y1545D01*
X9243Y-9252D02*
X10442D01*
X9843Y-9852D02*
Y-8652D01*
X7235Y945D02*
X8435D01*
X7835Y345D02*
Y1545D01*
X15109Y945D02*
X16309D01*
X15709Y345D02*
Y1545D01*
X19046Y945D02*
X20246D01*
X19646Y345D02*
Y1545D01*
X22983Y945D02*
X24183D01*
X23583Y345D02*
Y1545D01*
X26920Y945D02*
X28120D01*
X27520Y345D02*
Y1545D01*
X40739Y248622D02*
X41939D01*
X41339Y248022D02*
Y249222D01*
X-3750Y264370D02*
X-2550D01*
X-3150Y263770D02*
Y264970D01*
X167117Y169882D02*
X168317D01*
X167717Y169282D02*
Y170482D01*
X183652Y169882D02*
X184852D01*
X184252Y169282D02*
Y170482D01*
X211168Y177910D02*
X212368D01*
X211768Y177310D02*
Y178509D01*
X217116Y149803D02*
X218317D01*
X217717Y149203D02*
Y150403D01*
X211211Y155512D02*
X212411D01*
X211811Y154912D02*
Y156112D01*
X208668Y166520D02*
X209868D01*
X209268Y165920D02*
Y167120D01*
X211605Y166535D02*
X212805D01*
X212205Y165935D02*
Y167135D01*
X206487Y147835D02*
X207687D01*
X207087Y147235D02*
Y148435D01*
X205699Y141929D02*
X206899D01*
X206299Y141329D02*
Y142529D01*
X201762Y141929D02*
X202962D01*
X202362Y141329D02*
Y142529D01*
X214558Y139961D02*
X215757D01*
X215158Y139361D02*
Y140561D01*
X220660Y139961D02*
X221860D01*
X221260Y139361D02*
Y140561D01*
X217707Y145866D02*
X218907D01*
X218307Y145266D02*
Y146466D01*
X228337Y191339D02*
X229537D01*
X228937Y190739D02*
Y191939D01*
X215935Y205315D02*
X217135D01*
X216535Y204715D02*
Y205915D01*
X215935Y211614D02*
X217135D01*
X216535Y211014D02*
Y212214D01*
X226565Y246654D02*
X227765D01*
X227165Y246054D02*
Y247253D01*
X221053Y239960D02*
X222253D01*
X221653Y239360D02*
Y240560D01*
X220266Y246654D02*
X221466D01*
X220866Y246054D02*
Y247253D01*
X228534Y267913D02*
X229734D01*
X229134Y267313D02*
Y268513D01*
X292513Y111417D02*
X293313D01*
X292913Y111017D02*
Y111817D01*
X292513Y115354D02*
X293313D01*
X292913Y114954D02*
Y115754D01*
X292513Y119291D02*
X293313D01*
X292913Y118891D02*
Y119691D01*
X292513Y123228D02*
X293313D01*
X292913Y122828D02*
Y123628D01*
X292513Y127165D02*
X293313D01*
X292913Y126765D02*
Y127565D01*
X292513Y131102D02*
X293313D01*
X292913Y130702D02*
Y131502D01*
X292513Y135039D02*
X293313D01*
X292913Y134639D02*
Y135439D01*
X292513Y142913D02*
X293313D01*
X292913Y142513D02*
Y143313D01*
X292513Y146850D02*
X293313D01*
X292913Y146450D02*
Y147250D01*
X292513Y154724D02*
X293313D01*
X292913Y154324D02*
Y155124D01*
X292513Y158661D02*
X293313D01*
X292913Y158261D02*
Y159061D01*
X292513Y162598D02*
X293313D01*
X292913Y162198D02*
Y162998D01*
X292513Y150787D02*
X293313D01*
X292913Y150387D02*
Y151187D01*
X292513Y138976D02*
X293313D01*
X292913Y138576D02*
Y139376D01*
X292313Y166535D02*
X293513D01*
X292913Y165935D02*
Y167135D01*
X301565Y164567D02*
X302765D01*
X302165Y163967D02*
Y165167D01*
X280207Y165256D02*
X281407D01*
X280807Y164656D02*
Y165856D01*
X284639Y167520D02*
X285439D01*
X285039Y167120D02*
Y167920D01*
X284639Y174213D02*
X285439D01*
X285039Y173813D02*
Y174613D01*
X284439Y253740D02*
X285639D01*
X285039Y253140D02*
Y254340D01*
X284439Y246654D02*
X285639D01*
X285039Y246054D02*
Y247253D01*
X284439Y250197D02*
X285639D01*
X285039Y249597D02*
Y250797D01*
X284439Y232087D02*
X285639D01*
X285039Y231487D02*
Y232687D01*
X284439Y211221D02*
X285639D01*
X285039Y210620D02*
Y211821D01*
X284439Y186417D02*
X285639D01*
X285039Y185817D02*
Y187017D01*
X284439Y183268D02*
X285639D01*
X285039Y182668D02*
Y183868D01*
X284439Y180118D02*
X285639D01*
X285039Y179518D02*
Y180718D01*
X301368Y245276D02*
X302569D01*
X301969Y244676D02*
Y245876D01*
X291920Y243307D02*
X293120D01*
X292520Y242707D02*
Y243907D01*
X301368Y241339D02*
X302569D01*
X301969Y240739D02*
Y241939D01*
X291920Y239370D02*
X293120D01*
X292520Y238770D02*
Y239970D01*
X301368Y237402D02*
X302569D01*
X301969Y236802D02*
Y238002D01*
X291920Y235433D02*
X293120D01*
X292520Y234833D02*
Y236033D01*
X301368Y233465D02*
X302569D01*
X301969Y232865D02*
Y234065D01*
X291920Y231496D02*
X293120D01*
X292520Y230896D02*
Y232096D01*
X301368Y229528D02*
X302569D01*
X301969Y228928D02*
Y230128D01*
X291920Y227559D02*
X293120D01*
X292520Y226959D02*
Y228159D01*
X301368Y225591D02*
X302569D01*
X301969Y224991D02*
Y226191D01*
X277550Y203937D02*
X278750D01*
X278150Y203337D02*
Y204537D01*
X277550Y200000D02*
X278750D01*
X278150Y199400D02*
Y200600D01*
X267313Y164567D02*
X268513D01*
X267913Y163967D02*
Y165167D01*
X253140Y112795D02*
X254340D01*
X253740Y112195D02*
Y113395D01*
X264951Y166535D02*
X266151D01*
X265551Y165935D02*
Y167135D01*
X277156Y154724D02*
X278356D01*
X277756Y154124D02*
Y155324D01*
X267313Y152756D02*
X268513D01*
X267913Y152156D02*
Y153356D01*
X277156Y150787D02*
X278356D01*
X277756Y150187D02*
Y151387D01*
X277156Y144882D02*
X278356D01*
X277756Y144282D02*
Y145482D01*
X277353Y138976D02*
X278553D01*
X277953Y138376D02*
Y139576D01*
X277353Y133071D02*
X278553D01*
X277953Y132471D02*
Y133671D01*
X277353Y127165D02*
X278553D01*
X277953Y126565D02*
Y127765D01*
X277353Y121260D02*
X278553D01*
X277953Y120660D02*
Y121860D01*
X277353Y115354D02*
X278553D01*
X277953Y114754D02*
Y115954D01*
X277353Y109449D02*
X278553D01*
X277953Y108849D02*
Y110049D01*
X277550Y192126D02*
X278750D01*
X278150Y191526D02*
Y192726D01*
X277550Y188189D02*
X278750D01*
X278150Y187589D02*
Y188789D01*
X279715Y190157D02*
X280915D01*
X280315Y189558D02*
Y190758D01*
X279715Y201969D02*
X280915D01*
X280315Y201368D02*
Y202569D01*
X267116Y194095D02*
X268317D01*
X267717Y193494D02*
Y194694D01*
X265148Y196063D02*
X266348D01*
X265748Y195463D02*
Y196663D01*
X265148Y205906D02*
X266348D01*
X265748Y205306D02*
Y206505D01*
X265148Y209842D02*
X266348D01*
X265748Y209243D02*
Y210442D01*
X267116Y207874D02*
X268317D01*
X267717Y207274D02*
Y208474D01*
X267116Y211811D02*
X268317D01*
X267717Y211211D02*
Y212411D01*
X267116Y215748D02*
X268317D01*
X267717Y215148D02*
Y216348D01*
X267116Y219685D02*
X268317D01*
X267717Y219085D02*
Y220285D01*
X277353Y221654D02*
X278553D01*
X277953Y221054D02*
Y222253D01*
X267116Y223622D02*
X268317D01*
X267717Y223022D02*
Y224222D01*
X267116Y227559D02*
X268317D01*
X267717Y226959D02*
Y228159D01*
X267116Y231496D02*
X268317D01*
X267717Y230896D02*
Y232096D01*
X267116Y235433D02*
X268317D01*
X267717Y234833D02*
Y236033D01*
X265148Y237402D02*
X266348D01*
X265748Y236802D02*
Y238002D01*
X267116Y239370D02*
X268317D01*
X267717Y238770D02*
Y239970D01*
X265148Y241339D02*
X266348D01*
X265748Y240739D02*
Y241939D01*
X267116Y243307D02*
X268317D01*
X267717Y242707D02*
Y243907D01*
X265148Y245276D02*
X266348D01*
X265748Y244676D02*
Y245876D01*
X291920Y219685D02*
X293120D01*
X292520Y219085D02*
Y220285D01*
X301368Y221654D02*
X302569D01*
X301969Y221054D02*
Y222253D01*
X301368Y217717D02*
X302569D01*
X301969Y217116D02*
Y218317D01*
X291920Y223622D02*
X293120D01*
X292520Y223022D02*
Y224222D01*
X291920Y215748D02*
X293120D01*
X292520Y215148D02*
Y216348D01*
X301368Y213779D02*
X302569D01*
X301969Y213179D02*
Y214380D01*
X291920Y211811D02*
X293120D01*
X292520Y211211D02*
Y212411D01*
X301368Y209842D02*
X302569D01*
X301969Y209243D02*
Y210442D01*
X291920Y207874D02*
X293120D01*
X292520Y207274D02*
Y208474D01*
X301368Y205906D02*
X302569D01*
X301969Y205306D02*
Y206505D01*
X291920Y203937D02*
X293120D01*
X292520Y203337D02*
Y204537D01*
X301368Y201969D02*
X302569D01*
X301969Y201368D02*
Y202569D01*
X301368Y198031D02*
X302569D01*
X301969Y197432D02*
Y198632D01*
X291920Y196063D02*
X293120D01*
X292520Y195463D02*
Y196663D01*
X291920Y192126D02*
X293120D01*
X292520Y191526D02*
Y192726D01*
X301368Y190157D02*
X302569D01*
X301969Y189558D02*
Y190758D01*
X291920Y188189D02*
X293120D01*
X292520Y187589D02*
Y188789D01*
X265148Y233465D02*
X266348D01*
X265748Y232865D02*
Y234065D01*
X247824Y28937D02*
X249024D01*
X248424Y28337D02*
Y29537D01*
X231490Y51177D02*
X232691D01*
X232090Y50577D02*
Y51777D01*
X228931Y53350D02*
X230132D01*
X229532Y52750D02*
Y53950D01*
X234046Y54134D02*
X235246D01*
X234646Y53534D02*
Y54734D01*
X236802Y50984D02*
X238002D01*
X237402Y50384D02*
Y51584D01*
X226565Y81299D02*
X227765D01*
X227165Y80699D02*
Y81899D01*
X240738Y80118D02*
X241938D01*
X241338Y79518D02*
Y80718D01*
X238770Y48622D02*
X239970D01*
X239370Y48022D02*
Y49222D01*
X284438Y48622D02*
X285638D01*
X285038Y48022D02*
Y49222D01*
X292389Y81890D02*
X293589D01*
X292989Y81290D02*
Y82490D01*
X292389Y85827D02*
X293589D01*
X292989Y85227D02*
Y86427D01*
X211211Y44685D02*
X212411D01*
X211811Y44085D02*
Y45285D01*
X164715Y15197D02*
X165915D01*
X165315Y14597D02*
Y15797D01*
X170621Y15197D02*
X171820D01*
X171221Y14597D02*
Y15797D01*
X182431Y15197D02*
X183632D01*
X183031Y14597D02*
Y15797D01*
X188337Y15197D02*
X189537D01*
X188937Y14597D02*
Y15797D01*
X194243Y15197D02*
X195442D01*
X194843Y14597D02*
Y15797D01*
X204517Y15157D02*
X205717D01*
X205117Y14557D02*
Y15757D01*
X209991Y15197D02*
X211191D01*
X210591Y14597D02*
Y15797D01*
X223416Y8071D02*
X224616D01*
X224016Y7471D02*
Y8671D01*
X229321Y8071D02*
X230521D01*
X229921Y7471D02*
Y8671D01*
X163180Y8071D02*
X164380D01*
X163779Y7471D02*
Y8671D01*
X156880Y8071D02*
X158080D01*
X157480Y7471D02*
Y8671D01*
X84046Y8071D02*
X85246D01*
X84646Y7471D02*
Y8671D01*
X34794Y-9213D02*
X35994D01*
X35394Y-9813D02*
Y-8613D01*
X40699Y-9213D02*
X41899D01*
X41299Y-9813D02*
Y-8613D01*
X46605Y-9213D02*
X47805D01*
X47205Y-9813D02*
Y-8613D01*
X52510Y-9213D02*
X53710D01*
X53110Y-9813D02*
Y-8613D01*
X58416Y-9213D02*
X59616D01*
X59016Y-9813D02*
Y-8613D01*
X64321Y-9213D02*
X65521D01*
X64921Y-9813D02*
Y-8613D01*
X89912Y-9213D02*
X91112D01*
X90512Y-9813D02*
Y-8613D01*
X87943Y551D02*
X89143D01*
X88543Y-49D02*
Y1151D01*
X85975Y-9213D02*
X87175D01*
X86575Y-9813D02*
Y-8613D01*
X95817Y-9213D02*
X97017D01*
X96417Y-9813D02*
Y-8613D01*
X101723Y-9213D02*
X102923D01*
X102323Y-9813D02*
Y-8613D01*
X107628Y-9213D02*
X108828D01*
X108228Y-9813D02*
Y-8613D01*
X113534Y-9213D02*
X114734D01*
X114134Y-9813D02*
Y-8613D01*
X119439Y-9213D02*
X120639D01*
X120039Y-9813D02*
Y-8613D01*
X125345Y-9213D02*
X126545D01*
X125945Y-9813D02*
Y-8613D01*
X131250Y-9213D02*
X132450D01*
X131850Y-9813D02*
Y-8613D01*
X143061Y-9213D02*
X144261D01*
X143661Y-9813D02*
Y-8613D01*
X137156Y-9213D02*
X138356D01*
X137756Y-9813D02*
Y-8613D01*
X164715Y-9213D02*
X165915D01*
X165315Y-9813D02*
Y-8613D01*
X170621Y-9213D02*
X171820D01*
X171221Y-9813D02*
Y-8613D01*
X176526Y-9213D02*
X177726D01*
X177126Y-9813D02*
Y-8613D01*
X182431Y-9213D02*
X183632D01*
X183031Y-9813D02*
Y-8613D01*
X188337Y-9213D02*
X189537D01*
X188937Y-9813D02*
Y-8613D01*
X194243Y-9213D02*
X195442D01*
X194843Y-9813D02*
Y-8613D01*
X200148Y-9213D02*
X201348D01*
X200748Y-9813D02*
Y-8613D01*
X206053Y-9213D02*
X207254D01*
X206653Y-9813D02*
Y-8613D01*
X211959Y-9213D02*
X213159D01*
X212559Y-9813D02*
Y-8613D01*
X217865Y-9213D02*
X219065D01*
X218465Y-9813D02*
Y-8613D01*
X221802Y-9213D02*
X223002D01*
X222402Y-9813D02*
Y-8613D01*
X78928Y8071D02*
X80128D01*
X79528Y7471D02*
Y8671D01*
X71841Y8071D02*
X73041D01*
X72441Y7471D02*
Y8671D01*
X87943Y25354D02*
X89143D01*
X88543Y24754D02*
Y25954D01*
X82746Y20157D02*
X83947D01*
X83346Y19557D02*
Y20757D01*
X177746Y34055D02*
X178946D01*
X178347Y33455D02*
Y34655D01*
X177746Y37205D02*
X178946D01*
X178347Y36605D02*
Y37805D01*
X201368Y37205D02*
X202569D01*
X201969Y36605D02*
Y37805D01*
X201368Y34055D02*
X202569D01*
X201969Y33455D02*
Y34655D01*
X177159Y69488D02*
X177959D01*
X177559Y69088D02*
Y69888D01*
X195860Y886D02*
X196660D01*
X196260Y486D02*
Y1286D01*
X180309Y69488D02*
X181109D01*
X180709Y69088D02*
Y69888D01*
X198911Y886D02*
X199711D01*
X199311Y486D02*
Y1286D01*
X178534Y8071D02*
X179734D01*
X179134Y7471D02*
Y8671D01*
X183258Y8071D02*
X184458D01*
X183858Y7471D02*
Y8671D01*
X187983Y8071D02*
X189183D01*
X188583Y7471D02*
Y8671D01*
X199006Y8071D02*
X200206D01*
X199606Y7471D02*
Y8671D01*
X203731Y8071D02*
X204931D01*
X204331Y7471D02*
Y8671D01*
X208455Y8071D02*
X209655D01*
X209055Y7471D02*
Y8671D01*
X213179Y8071D02*
X214380D01*
X213779Y7471D02*
Y8671D01*
X121056Y295D02*
X121856D01*
X121456Y-105D02*
Y695D01*
X124009Y295D02*
X124809D01*
X124409Y-105D02*
Y695D01*
X112001Y295D02*
X112801D01*
X112401Y-105D02*
Y695D01*
X109344Y295D02*
X110144D01*
X109744Y-105D02*
Y695D01*
X127159Y295D02*
X127959D01*
X127559Y-105D02*
Y695D01*
X130013Y295D02*
X130813D01*
X130413Y-105D02*
Y695D01*
X132867Y295D02*
X133667D01*
X133267Y-105D02*
Y695D01*
X135919Y295D02*
X136719D01*
X136319Y-105D02*
Y695D01*
X193104Y787D02*
X193904D01*
X193504Y387D02*
Y1187D01*
X189954Y787D02*
X190754D01*
X190354Y387D02*
Y1187D01*
X202454Y886D02*
X203254D01*
X202854Y486D02*
Y1286D01*
X192907Y63189D02*
X193707D01*
X193307Y62789D02*
Y63589D01*
X196057Y63189D02*
X196857D01*
X196457Y62789D02*
Y63589D01*
X204754Y886D02*
X205554D01*
X205154Y486D02*
Y1286D01*
X106490Y394D02*
X107290D01*
X106889Y-6D02*
Y794D01*
X186608Y63189D02*
X187408D01*
X187008Y62789D02*
Y63589D01*
X103143Y394D02*
X103943D01*
X103543Y-6D02*
Y794D01*
X183458Y63189D02*
X184258D01*
X183858Y62789D02*
Y63589D01*
X189758Y60039D02*
X190558D01*
X190157Y59639D02*
Y60439D01*
X189758Y56890D02*
X190558D01*
X190157Y56490D02*
Y57290D01*
X187100Y787D02*
X187900D01*
X187500Y387D02*
Y1187D01*
X184049Y787D02*
X184849D01*
X184449Y387D02*
Y1187D01*
X98124Y3543D02*
X98924D01*
X98524Y3143D02*
Y3943D01*
X177159Y60039D02*
X177959D01*
X177559Y59639D02*
Y60439D01*
X97986Y453D02*
X98786D01*
X98386Y53D02*
Y853D01*
X177159Y63189D02*
X177959D01*
X177559Y62789D02*
Y63589D01*
X95817Y15197D02*
X97017D01*
X96417Y14597D02*
Y15797D01*
X64321Y15197D02*
X65521D01*
X64921Y14597D02*
Y15797D01*
X58416Y15197D02*
X59616D01*
X59016Y14597D02*
Y15797D01*
X52510Y15197D02*
X53710D01*
X53110Y14597D02*
Y15797D01*
X46605Y15197D02*
X47805D01*
X47205Y14597D02*
Y15797D01*
X42668Y15197D02*
X43868D01*
X43268Y14597D02*
Y15797D01*
X36762Y15197D02*
X37962D01*
X37362Y14597D02*
Y15797D01*
X30896Y15157D02*
X32096D01*
X31496Y14558D02*
Y15757D01*
X24951Y15197D02*
X26151D01*
X25551Y14597D02*
Y15797D01*
X21014Y15197D02*
X22214D01*
X21614Y14597D02*
Y15797D01*
X17077Y15197D02*
X18277D01*
X17677Y14597D02*
Y15797D01*
X25384Y30512D02*
X26584D01*
X25984Y29912D02*
Y31112D01*
X12392Y27756D02*
X13592D01*
X12992Y27156D02*
Y28356D01*
X15542Y27756D02*
X16742D01*
X16142Y27156D02*
Y28356D01*
X20266Y31299D02*
X21466D01*
X20866Y30699D02*
Y31899D01*
X19774Y46949D02*
X20974D01*
X20374Y46349D02*
Y47549D01*
X-3076Y51492D02*
X-1876D01*
X-2476Y50892D02*
Y52092D01*
X25361Y50614D02*
X26561D01*
X25961Y50014D02*
Y51214D01*
X16329Y54134D02*
X17529D01*
X16929Y53534D02*
Y54734D01*
X7274Y53740D02*
X8474D01*
X7874Y53140D02*
Y54340D01*
X10030Y50984D02*
X11230D01*
X10630Y50384D02*
Y51584D01*
X13180Y50984D02*
X14379D01*
X13780Y50384D02*
Y51584D01*
X975Y43898D02*
X2175D01*
X1575Y43298D02*
Y44498D01*
X9243Y25787D02*
X10442D01*
X9843Y25187D02*
Y26387D01*
X199206Y72638D02*
X200006D01*
X199606Y72238D02*
Y73038D01*
X199206Y69488D02*
X200006D01*
X199606Y69088D02*
Y69888D01*
X199206Y63189D02*
X200006D01*
X199606Y62789D02*
Y63589D01*
X199206Y66339D02*
X200006D01*
X199606Y65939D02*
Y66739D01*
X192907Y60039D02*
X193707D01*
X193307Y59639D02*
Y60439D01*
X196057Y60039D02*
X196857D01*
X196457Y59639D02*
Y60439D01*
X193101Y37205D02*
X194301D01*
X193701Y36605D02*
Y37805D01*
X193101Y34055D02*
X194301D01*
X193701Y33455D02*
Y34655D01*
X192907Y69488D02*
X193707D01*
X193307Y69088D02*
Y69888D01*
X192907Y66339D02*
X193707D01*
X193307Y65939D02*
Y66739D01*
X185620Y34055D02*
X186820D01*
X186221Y33455D02*
Y34655D01*
X185620Y37205D02*
X186820D01*
X186221Y36605D02*
Y37805D01*
X186608Y66339D02*
X187408D01*
X187008Y65939D02*
Y66739D01*
X189758Y66339D02*
X190558D01*
X190157Y65939D02*
Y66739D01*
X180309Y63189D02*
X181109D01*
X180709Y62789D02*
Y63589D01*
X180309Y60039D02*
X181109D01*
X180709Y59639D02*
Y60439D01*
X183458Y66339D02*
X184258D01*
X183858Y65939D02*
Y66739D01*
X183458Y69488D02*
X184258D01*
X183858Y69088D02*
Y69888D01*
X170860Y60039D02*
X171660D01*
X171260Y59639D02*
Y60439D01*
X170860Y56890D02*
X171660D01*
X171260Y56490D02*
Y57290D01*
X161411Y69488D02*
X162211D01*
X161811Y69088D02*
Y69888D01*
X167710Y69488D02*
X168510D01*
X168110Y69088D02*
Y69888D01*
X161411Y63189D02*
X162211D01*
X161811Y62789D02*
Y63589D01*
X158261Y63189D02*
X159061D01*
X158661Y62789D02*
Y63589D01*
X161411Y56890D02*
X162211D01*
X161811Y56490D02*
Y57290D01*
X161411Y53740D02*
X162211D01*
X161811Y53340D02*
Y54140D01*
X155112Y56890D02*
X155912D01*
X155512Y56490D02*
Y57290D01*
X151962Y56890D02*
X152762D01*
X152362Y56490D02*
Y57290D01*
X158261Y60039D02*
X159061D01*
X158661Y59639D02*
Y60439D01*
X161411Y60039D02*
X162211D01*
X161811Y59639D02*
Y60439D01*
X145663Y60039D02*
X146463D01*
X146063Y59639D02*
Y60439D01*
X142513Y60039D02*
X143313D01*
X142913Y59639D02*
Y60439D01*
X155112Y66339D02*
X155912D01*
X155512Y65939D02*
Y66739D01*
X158261Y66339D02*
X159061D01*
X158661Y65939D02*
Y66739D01*
X158261Y69488D02*
X159061D01*
X158661Y69088D02*
Y69888D01*
X155112Y69488D02*
X155912D01*
X155512Y69088D02*
Y69888D01*
X292706Y78149D02*
X293906D01*
X293306Y77549D02*
Y78749D01*
X272353Y90669D02*
X273553D01*
X272953Y90069D02*
Y91269D01*
X284439Y92126D02*
X285639D01*
X285039Y91526D02*
Y92726D01*
X284439Y206496D02*
X285639D01*
X285039Y205896D02*
Y207096D01*
X284439Y201772D02*
X285639D01*
X285039Y201172D02*
Y202372D01*
X284439Y197047D02*
X285639D01*
X285039Y196447D02*
Y197647D01*
X284439Y222638D02*
X285639D01*
X285039Y222038D02*
Y223238D01*
X284439Y227362D02*
X285639D01*
X285039Y226762D02*
Y227962D01*
X284439Y236811D02*
X285639D01*
X285039Y236211D02*
Y237411D01*
X277353Y213779D02*
X278553D01*
X277953Y213179D02*
Y214380D01*
X262786Y265945D02*
X263986D01*
X263386Y265345D02*
Y266545D01*
X269085Y265945D02*
X270285D01*
X269685Y265345D02*
Y266545D01*
X287195Y265945D02*
X288395D01*
X287795Y265345D02*
Y266545D01*
X287195Y272244D02*
X288395D01*
X287795Y271644D02*
Y272844D01*
X287195Y278937D02*
X288395D01*
X287795Y278337D02*
Y279537D01*
X282077Y278937D02*
X283277D01*
X282677Y278337D02*
Y279537D01*
X275778Y278937D02*
X276978D01*
X276378Y278337D02*
Y279537D01*
X275778Y272244D02*
X276978D01*
X276378Y271644D02*
Y272844D01*
X282077Y272244D02*
X283277D01*
X282677Y271644D02*
Y272844D01*
X282077Y265945D02*
X283277D01*
X282677Y265345D02*
Y266545D01*
X275778Y265945D02*
X276978D01*
X276378Y265345D02*
Y266545D01*
X262786Y216732D02*
X263986D01*
X263386Y216132D02*
Y217332D01*
X262786Y224213D02*
X263986D01*
X263386Y223613D02*
Y224813D01*
X256487Y216732D02*
X257687D01*
X257087Y216132D02*
Y217332D01*
X256487Y224213D02*
X257687D01*
X257087Y223613D02*
Y224813D01*
X256487Y230906D02*
X257687D01*
X257087Y230306D02*
Y231505D01*
X256487Y237205D02*
X257687D01*
X257087Y236605D02*
Y237805D01*
X250187Y237205D02*
X251387D01*
X250787Y236605D02*
Y237805D01*
X243888Y237205D02*
X245088D01*
X244488Y236605D02*
Y237805D01*
X243888Y230906D02*
X245088D01*
X244488Y230306D02*
Y231505D01*
X250187Y230906D02*
X251387D01*
X250787Y230306D02*
Y231505D01*
X250187Y224213D02*
X251387D01*
X250787Y223613D02*
Y224813D01*
X250187Y216732D02*
X251387D01*
X250787Y216132D02*
Y217332D01*
X243888Y216732D02*
X245088D01*
X244488Y216132D02*
Y217332D01*
X243888Y224213D02*
X245088D01*
X244488Y223613D02*
Y224813D01*
X244676Y248622D02*
X245876D01*
X245276Y248022D02*
Y249222D01*
X256487Y243504D02*
X257687D01*
X257087Y242904D02*
Y244104D01*
X237589Y224213D02*
X238789D01*
X238189Y223613D02*
Y224813D01*
X258455Y267126D02*
X259655D01*
X259055Y266526D02*
Y267726D01*
X255306Y267126D02*
X256505D01*
X255906Y266526D02*
Y267726D01*
X293495Y265945D02*
X294694D01*
X294094Y265345D02*
Y266545D01*
X293495Y272244D02*
X294694D01*
X294094Y271644D02*
Y272844D01*
X293495Y278937D02*
X294694D01*
X294094Y278337D02*
Y279537D01*
X123809Y150197D02*
X125009D01*
X124409Y149597D02*
Y150797D01*
X177159Y113583D02*
X177959D01*
X177559Y113183D02*
Y113983D01*
X267510Y143504D02*
X268710D01*
X268110Y142904D02*
Y144104D01*
X177159Y110433D02*
X177959D01*
X177559Y110033D02*
Y110833D01*
X267510Y140157D02*
X268710D01*
X268110Y139558D02*
Y140758D01*
X180309Y113583D02*
X181109D01*
X180709Y113183D02*
Y113983D01*
X267510Y128347D02*
X268710D01*
X268110Y127746D02*
Y128946D01*
X183458Y113583D02*
X184258D01*
X183858Y113183D02*
Y113983D01*
X267510Y131890D02*
X268710D01*
X268110Y131290D02*
Y132490D01*
X192907Y104134D02*
X193707D01*
X193307Y103734D02*
Y104534D01*
X277943Y43772D02*
X279143D01*
X278543Y43172D02*
Y44372D01*
X196057Y104134D02*
X196857D01*
X196457Y103734D02*
Y104534D01*
X277943Y47172D02*
X279143D01*
X278543Y46572D02*
Y47772D01*
X-47844Y20669D02*
X-46644D01*
X-47244Y20069D02*
Y21269D01*
X-47844Y23819D02*
X-46644D01*
X-47244Y23219D02*
Y24419D01*
X-47844Y26969D02*
X-46644D01*
X-47244Y26368D02*
Y27569D01*
X-47844Y36417D02*
X-46644D01*
X-47244Y35817D02*
Y37017D01*
X-50994Y36417D02*
X-49794D01*
X-50394Y35817D02*
Y37017D01*
X-54143Y36417D02*
X-52943D01*
X-53543Y35817D02*
Y37017D01*
X-47844Y33268D02*
X-46644D01*
X-47244Y32668D02*
Y33868D01*
X-47844Y80512D02*
X-46644D01*
X-47244Y79912D02*
Y81112D01*
X-54143Y83661D02*
X-52943D01*
X-53543Y83061D02*
Y84261D01*
X-50994Y83661D02*
X-49794D01*
X-50394Y83061D02*
Y84261D01*
X-47844Y83661D02*
X-46644D01*
X-47244Y83061D02*
Y84261D01*
X-47844Y74213D02*
X-46644D01*
X-47244Y73613D02*
Y74813D01*
X-47844Y71063D02*
X-46644D01*
X-47244Y70463D02*
Y71663D01*
X-47844Y67913D02*
X-46644D01*
X-47244Y67313D02*
Y68513D01*
X-47844Y128150D02*
X-46644D01*
X-47244Y127550D02*
Y128750D01*
X-54143Y131299D02*
X-52943D01*
X-53543Y130699D02*
Y131899D01*
X-50994Y131299D02*
X-49794D01*
X-50394Y130699D02*
Y131899D01*
X-47844Y131299D02*
X-46644D01*
X-47244Y130699D02*
Y131899D01*
X-47844Y121850D02*
X-46644D01*
X-47244Y121250D02*
Y122450D01*
X-47844Y118701D02*
X-46644D01*
X-47244Y118101D02*
Y119301D01*
X-47844Y115551D02*
X-46644D01*
X-47244Y114951D02*
Y116151D01*
X-47844Y175394D02*
X-46644D01*
X-47244Y174794D02*
Y175994D01*
X-54143Y178543D02*
X-52943D01*
X-53543Y177943D02*
Y179143D01*
X-50994Y178543D02*
X-49794D01*
X-50394Y177943D02*
Y179143D01*
X-47844Y178543D02*
X-46644D01*
X-47244Y177943D02*
Y179143D01*
X-47844Y169095D02*
X-46644D01*
X-47244Y168494D02*
Y169694D01*
X-47844Y165945D02*
X-46644D01*
X-47244Y165345D02*
Y166545D01*
X-47844Y162795D02*
X-46644D01*
X-47244Y162195D02*
Y163395D01*
X202156Y169095D02*
X203356D01*
X202756Y168494D02*
Y169694D01*
X94282Y167126D02*
X95482D01*
X94882Y166526D02*
Y167726D01*
X87195Y148228D02*
X88395D01*
X87795Y147628D02*
Y148828D01*
X88376Y167126D02*
X89576D01*
X88976Y166526D02*
Y167726D01*
X81290Y167126D02*
X82490D01*
X81890Y166526D02*
Y167726D01*
X87195Y156102D02*
X88395D01*
X87795Y155502D02*
Y156702D01*
X87195Y152165D02*
X88395D01*
X87795Y151565D02*
Y152765D01*
X68298Y156102D02*
X69498D01*
X68898Y155502D02*
Y156702D01*
X68298Y152165D02*
X69498D01*
X68898Y151565D02*
Y152765D01*
X68298Y148228D02*
X69498D01*
X68898Y147628D02*
Y148828D01*
X45069Y164764D02*
X46269D01*
X45669Y164164D02*
Y165364D01*
X45069Y171063D02*
X46269D01*
X45669Y170463D02*
Y171663D01*
X45069Y177362D02*
X46269D01*
X45669Y176762D02*
Y177962D01*
X38770Y164764D02*
X39970D01*
X39370Y164164D02*
Y165364D01*
X38770Y177362D02*
X39970D01*
X39370Y176762D02*
Y177962D01*
X17412Y164075D02*
X18612D01*
X18012Y163475D02*
Y164675D01*
X6585Y166634D02*
X7785D01*
X7185Y166034D02*
Y167234D01*
X17412Y169193D02*
X18612D01*
X18012Y168593D02*
Y169793D01*
X6585Y171752D02*
X7785D01*
X7185Y171152D02*
Y172352D01*
X52550Y208858D02*
X53750D01*
X53150Y208258D02*
Y209458D01*
X52550Y205709D02*
X53750D01*
X53150Y205109D02*
Y206309D01*
X39164Y184449D02*
X40364D01*
X39764Y183849D02*
Y185049D01*
X36408Y182480D02*
X37608D01*
X37008Y181880D02*
Y183080D01*
X8455Y195079D02*
X9655D01*
X9055Y194479D02*
Y195679D01*
X13180Y213976D02*
X14379D01*
X13780Y213376D02*
Y214576D01*
X6093Y213976D02*
X7293D01*
X6693Y213376D02*
Y214576D01*
X9243Y223425D02*
X10442D01*
X9843Y222825D02*
Y224025D01*
X9243Y219882D02*
X10442D01*
X9843Y219282D02*
Y220482D01*
X33258Y182480D02*
X34458D01*
X33858Y181880D02*
Y183080D01*
X33258Y178543D02*
X34458D01*
X33858Y177943D02*
Y179143D01*
X38770Y171063D02*
X39970D01*
X39370Y170463D02*
Y171663D01*
X34439Y171063D02*
X35639D01*
X35039Y170463D02*
Y171663D01*
X34439Y167913D02*
X35639D01*
X35039Y167313D02*
Y168513D01*
X28928Y175394D02*
X30128D01*
X29528Y174794D02*
Y175994D01*
X32077Y175394D02*
X33277D01*
X32677Y174794D02*
Y175994D01*
X35227Y176181D02*
X36427D01*
X35827Y175581D02*
Y176781D01*
X45463Y181693D02*
X46663D01*
X46063Y181093D02*
Y182293D01*
X6880Y183268D02*
X8080D01*
X7480Y182668D02*
Y183868D01*
X10030Y183268D02*
X11230D01*
X10630Y182668D02*
Y183868D01*
X6880Y191142D02*
X8080D01*
X7480Y190542D02*
Y191742D01*
X10030Y191142D02*
X11230D01*
X10630Y190542D02*
Y191742D01*
X975Y190354D02*
X2175D01*
X1575Y189754D02*
Y190954D01*
X975Y184055D02*
X2175D01*
X1575Y183455D02*
Y184655D01*
X65935Y221457D02*
X67135D01*
X66535Y220857D02*
Y222057D01*
X65935Y217126D02*
X67135D01*
X66535Y216526D02*
Y217726D01*
X65935Y212795D02*
X67135D01*
X66535Y212195D02*
Y213395D01*
X65935Y208465D02*
X67135D01*
X66535Y207865D02*
Y209065D01*
X65935Y204134D02*
X67135D01*
X66535Y203534D02*
Y204734D01*
X65935Y199803D02*
X67135D01*
X66535Y199203D02*
Y200403D01*
X101368Y167126D02*
X102568D01*
X101969Y166526D02*
Y167726D01*
X118691Y163976D02*
X119891D01*
X119291Y163376D02*
Y164576D01*
X120660Y150197D02*
X121860D01*
X121260Y149597D02*
Y150797D01*
X11211Y260728D02*
X12411D01*
X11811Y260128D02*
Y261328D01*
X18691Y260827D02*
X19891D01*
X19291Y260227D02*
Y261427D01*
X27746Y263189D02*
X28947D01*
X28346Y262589D02*
Y263789D01*
X40093Y271598D02*
X41293D01*
X40693Y270998D02*
Y272198D01*
X1369Y236024D02*
X2568D01*
X1969Y235424D02*
Y236624D01*
X1369Y245079D02*
X2568D01*
X1969Y244479D02*
Y245679D01*
X8455Y198622D02*
X9655D01*
X9055Y198022D02*
Y199222D01*
X6093Y204134D02*
X7293D01*
X6693Y203534D02*
Y204734D01*
X13376Y204331D02*
X14576D01*
X13976Y203731D02*
Y204931D01*
X17904Y187598D02*
X19104D01*
X18504Y186998D02*
Y188198D01*
X14754Y187598D02*
X15954D01*
X15354Y186998D02*
Y188198D01*
X4518Y226969D02*
X5718D01*
X5118Y226368D02*
Y227569D01*
X-1387Y227756D02*
X-187D01*
X-787Y227156D02*
Y228356D01*
X131290Y267913D02*
X132490D01*
X131890Y267313D02*
Y268513D01*
X162392Y267913D02*
X163592D01*
X162992Y267313D02*
Y268513D01*
X86802Y250591D02*
X88002D01*
X87402Y249991D02*
Y251191D01*
X172825Y235630D02*
X174025D01*
X173425Y235030D02*
Y236230D01*
X301368Y194095D02*
X302569D01*
X301969Y193494D02*
Y194694D01*
X267116Y198031D02*
X268317D01*
X267717Y197432D02*
Y198632D01*
X291920Y200000D02*
X293120D01*
X292520Y199400D02*
Y200600D01*
X184833Y217913D02*
X186033D01*
X185433Y217313D02*
Y218513D01*
X95463Y262795D02*
X96663D01*
X96063Y262195D02*
Y263395D01*
X115148Y262795D02*
X116348D01*
X115748Y262195D02*
Y263395D01*
X170660Y132480D02*
X171860D01*
X171260Y131880D02*
Y133080D01*
X63967Y248228D02*
X65167D01*
X64567Y247628D02*
Y248828D01*
X71053Y248228D02*
X72254D01*
X71653Y247628D02*
Y248828D01*
X163180Y135630D02*
X164380D01*
X163779Y135030D02*
Y136230D01*
X-34458Y4134D02*
X-33258D01*
X-33858Y3534D02*
Y4734D01*
X-28947Y6496D02*
X-27746D01*
X-28346Y5896D02*
Y7096D01*
X-26191Y6496D02*
X-24991D01*
X-25591Y5896D02*
Y7096D01*
X-23435Y-3740D02*
X-22235D01*
X-22835Y-4340D02*
Y-3140D01*
X-34458Y-1378D02*
X-33258D01*
X-33858Y-1978D02*
Y-778D01*
X-34458Y1378D02*
X-33258D01*
X-33858Y778D02*
Y1978D01*
X-26191Y-3740D02*
X-24991D01*
X-25591Y-4340D02*
Y-3140D01*
X-31702Y6496D02*
X-30502D01*
X-31102Y5896D02*
Y7096D01*
X-23435Y6496D02*
X-22235D01*
X-22835Y5896D02*
Y7096D01*
X-28947Y-3740D02*
X-27746D01*
X-28346Y-4340D02*
Y-3140D01*
X-31702Y-3740D02*
X-30502D01*
X-31102Y-4340D02*
Y-3140D01*
X-8080Y-3740D02*
X-6880D01*
X-7480Y-4340D02*
Y-3140D01*
X-10836Y-3740D02*
X-9636D01*
X-10236Y-4340D02*
Y-3140D01*
X-16348Y6496D02*
X-15148D01*
X-15748Y5896D02*
Y7096D01*
X-8080Y6496D02*
X-6880D01*
X-7480Y5896D02*
Y7096D01*
X-13592Y-3740D02*
X-12392D01*
X-12992Y-4340D02*
Y-3140D01*
X-16348Y-3740D02*
X-15148D01*
X-15748Y-4340D02*
Y-3140D01*
X-13592Y6496D02*
X-12392D01*
X-12992Y5896D02*
Y7096D01*
X-10836Y6496D02*
X-9636D01*
X-10236Y5896D02*
Y7096D01*
X-5324Y4134D02*
X-4124D01*
X-4724Y3534D02*
Y4734D01*
X-20383Y123130D02*
X-19184D01*
X-19783Y122530D02*
Y123730D01*
X-19104Y108071D02*
X-17904D01*
X-18504Y107471D02*
Y108671D01*
X-76092Y114665D02*
X-74892D01*
X-75492Y114065D02*
Y115265D01*
X-76191Y162008D02*
X-74990D01*
X-75590Y161408D02*
Y162608D01*
X-76092Y20177D02*
X-74892D01*
X-75492Y19577D02*
Y20777D01*
X-76092Y67421D02*
X-74892D01*
X-75492Y66821D02*
Y68021D01*
X7235Y284409D02*
X8435D01*
X7835Y283809D02*
Y285010D01*
X27746Y275000D02*
X28947D01*
X28346Y274400D02*
Y275600D01*
X-31702Y193110D02*
X-30502D01*
X-31102Y192510D02*
Y193710D01*
X-26191Y193110D02*
X-24991D01*
X-25591Y192510D02*
Y193710D01*
X-88395Y225787D02*
X-87195D01*
X-87795Y225187D02*
Y226387D01*
X-86821Y221063D02*
X-85620D01*
X-86221Y220463D02*
Y221663D01*
X-4537Y227756D02*
X-3337D01*
X-3937Y227156D02*
Y228356D01*
X252943Y8465D02*
X254143D01*
X253543Y7865D02*
Y9065D01*
X275384Y-2165D02*
X276584D01*
X275984Y-2765D02*
Y-1565D01*
X252353Y-5906D02*
X253553D01*
X252953Y-6505D02*
Y-5305D01*
X-24222Y130905D02*
X-23022D01*
X-23622Y130306D02*
Y131506D01*
X-28159Y130905D02*
X-26959D01*
X-27559Y130306D02*
Y131506D01*
X-28159Y126969D02*
X-26959D01*
X-27559Y126368D02*
Y127568D01*
X-24222Y126969D02*
X-23022D01*
X-23622Y126368D02*
Y127568D01*
X-26191Y128937D02*
X-24991D01*
X-25591Y128337D02*
Y129537D01*
X-68317Y110827D02*
X-67116D01*
X-67716Y110227D02*
Y111427D01*
X-72254Y110827D02*
X-71053D01*
X-71653Y110227D02*
Y111427D01*
X-72254Y106890D02*
X-71053D01*
X-71653Y106290D02*
Y107490D01*
X-68317Y106890D02*
X-67116D01*
X-67716Y106290D02*
Y107490D01*
X-70285Y108858D02*
X-69085D01*
X-69685Y108258D02*
Y109458D01*
X-68317Y63583D02*
X-67116D01*
X-67716Y62983D02*
Y64183D01*
X-72254Y63583D02*
X-71053D01*
X-71653Y62983D02*
Y64183D01*
X-72254Y59646D02*
X-71053D01*
X-71653Y59046D02*
Y60246D01*
X-68317Y59646D02*
X-67116D01*
X-67716Y59046D02*
Y60246D01*
X-70285Y61614D02*
X-69085D01*
X-69685Y61014D02*
Y62214D01*
X189758Y104134D02*
X190558D01*
X190157Y103734D02*
Y104534D01*
X279912Y37867D02*
X281112D01*
X280512Y37267D02*
Y38467D01*
X189758Y107283D02*
X190558D01*
X190157Y106883D02*
Y107683D01*
X280108Y41535D02*
X281308D01*
X280708Y40935D02*
Y42135D01*
X183458Y119882D02*
X184258D01*
X183858Y119482D02*
Y120282D01*
X261998Y125913D02*
X263198D01*
X262598Y125313D02*
Y126513D01*
X180309Y119882D02*
X181109D01*
X180709Y119482D02*
Y120282D01*
X261998Y122513D02*
X263198D01*
X262598Y121913D02*
Y123113D01*
X157474Y229331D02*
X158274D01*
X157874Y228931D02*
Y229731D01*
X149600Y174606D02*
X150400D01*
X150000Y174206D02*
Y175006D01*
X151175Y224606D02*
X151975D01*
X151575Y224206D02*
Y225006D01*
X141726Y228937D02*
X142526D01*
X142126Y228537D02*
Y229337D01*
X89951Y275000D02*
X91151D01*
X90551Y274400D02*
Y275600D01*
X131290Y173425D02*
X132490D01*
X131890Y172825D02*
Y174025D01*
X99206Y225787D02*
X100006D01*
X99606Y225387D02*
Y226187D01*
X151175Y228543D02*
X151975D01*
X151575Y228143D02*
Y228943D01*
X157474Y226575D02*
X158274D01*
X157874Y226175D02*
Y226975D01*
X160624Y177362D02*
X161424D01*
X161024Y176962D02*
Y177762D01*
X177159Y119882D02*
X177959D01*
X177559Y119482D02*
Y120282D01*
X261998Y137724D02*
X263198D01*
X262598Y137124D02*
Y138324D01*
X177159Y116732D02*
X177959D01*
X177559Y116332D02*
Y117132D01*
X261998Y134324D02*
X263198D01*
X262598Y133724D02*
Y134924D01*
X145663Y156496D02*
X146463D01*
X146063Y156096D02*
Y156896D01*
X54912Y230906D02*
X56112D01*
X55512Y230306D02*
Y231505D01*
X53337Y226181D02*
X54537D01*
X53937Y225581D02*
Y226781D01*
X45069Y225787D02*
X46269D01*
X45669Y225187D02*
Y226387D01*
X22235Y226575D02*
X23435D01*
X22835Y225975D02*
Y227175D01*
X26959Y226969D02*
X28159D01*
X27559Y226368D02*
Y227569D01*
X28140Y232874D02*
X29340D01*
X28740Y232274D02*
Y233474D01*
X35620Y226968D02*
X36820D01*
X36220Y226368D02*
Y227568D01*
X30108Y226968D02*
X31308D01*
X30708Y226368D02*
Y227568D01*
X32077Y232874D02*
X33277D01*
X32677Y232274D02*
Y233474D01*
X39163Y230511D02*
X40363D01*
X39763Y229911D02*
Y231111D01*
X39163Y226574D02*
X40363D01*
X39763Y225974D02*
Y227174D01*
X51762Y131693D02*
X52962D01*
X52362Y131093D02*
Y132293D01*
X56093Y131693D02*
X57293D01*
X56693Y131093D02*
Y132293D01*
X60424Y131693D02*
X61624D01*
X61024Y131093D02*
Y132293D01*
X64754Y131693D02*
X65954D01*
X65354Y131093D02*
Y132293D01*
X69085Y131693D02*
X70285D01*
X69685Y131093D02*
Y132293D01*
X73416Y131693D02*
X74616D01*
X74016Y131093D02*
Y132293D01*
X77746Y131693D02*
X78947D01*
X78347Y131093D02*
Y132293D01*
X82077Y131693D02*
X83277D01*
X82677Y131093D02*
Y132293D01*
X86408Y131693D02*
X87608D01*
X87008Y131093D02*
Y132293D01*
X90739Y131693D02*
X91939D01*
X91339Y131093D02*
Y132293D01*
X95069Y131693D02*
X96269D01*
X95669Y131093D02*
Y132293D01*
X99400Y131693D02*
X100600D01*
X100000Y131093D02*
Y132293D01*
X102943Y131693D02*
X104143D01*
X103543Y131093D02*
Y132293D01*
X43888Y131693D02*
X45088D01*
X44488Y131093D02*
Y132293D01*
X47825Y131693D02*
X49025D01*
X48425Y131093D02*
Y132293D01*
X43888Y147047D02*
X45088D01*
X44488Y146447D02*
Y147647D01*
X47825Y147047D02*
X49025D01*
X48425Y146447D02*
Y147647D01*
X51762Y147047D02*
X52962D01*
X52362Y146447D02*
Y147647D01*
X51762Y144291D02*
X52962D01*
X52362Y143691D02*
Y144891D01*
X47825Y144291D02*
X49025D01*
X48425Y143691D02*
Y144891D01*
X43888Y144291D02*
X45088D01*
X44488Y143691D02*
Y144891D01*
X43888Y149803D02*
X45088D01*
X44488Y149203D02*
Y150403D01*
X47825Y149803D02*
X49025D01*
X48425Y149203D02*
Y150403D01*
X51762Y149803D02*
X52962D01*
X52362Y149203D02*
Y150403D01*
X33258Y136024D02*
X34458D01*
X33858Y135424D02*
Y136624D01*
X185427Y149409D02*
X186227D01*
X185827Y149009D02*
Y149809D01*
X119734Y248744D02*
X120534D01*
X120133Y248344D02*
Y249144D01*
X199206Y85236D02*
X200006D01*
X199606Y84836D02*
Y85636D01*
X117371Y248744D02*
X118171D01*
X117771Y248344D02*
Y249144D01*
X196057Y85236D02*
X196857D01*
X196457Y84836D02*
Y85636D01*
X186608Y116732D02*
X187408D01*
X187008Y116332D02*
Y117132D01*
X183458Y116732D02*
X184258D01*
X183858Y116332D02*
Y117132D01*
X189758Y119882D02*
X190558D01*
X190157Y119482D02*
Y120282D01*
X192907Y119882D02*
X193707D01*
X193307Y119482D02*
Y120282D01*
X183458Y72638D02*
X184258D01*
X183858Y72238D02*
Y73038D01*
X140939Y250591D02*
X141739D01*
X141339Y250191D02*
Y250991D01*
X180309Y72638D02*
X181109D01*
X180709Y72238D02*
Y73038D01*
X143199Y250591D02*
X143999D01*
X143599Y250191D02*
Y250991D01*
X180309Y75787D02*
X181109D01*
X180709Y75387D02*
Y76187D01*
X102089Y275787D02*
X102889D01*
X102489Y275387D02*
Y276187D01*
X180309Y78937D02*
X181109D01*
X180709Y78537D02*
Y79337D01*
X99789Y275787D02*
X100589D01*
X100189Y275387D02*
Y276187D01*
X172623Y275787D02*
X173423D01*
X173023Y275387D02*
Y276187D01*
X196057Y91535D02*
X196857D01*
X196457Y91135D02*
Y91935D01*
X200781Y89961D02*
X201581D01*
X201181Y89561D02*
Y90361D01*
X174923Y275787D02*
X175723D01*
X175323Y275387D02*
Y276187D01*
X211997Y188778D02*
X213197D01*
X212597Y188179D02*
Y189378D01*
X211998Y197441D02*
X213198D01*
X212598Y196841D02*
Y198041D01*
X97632Y86811D02*
X98431D01*
X98032Y86411D02*
Y87211D01*
X133065Y97835D02*
X133865D01*
X133465Y97435D02*
Y98235D01*
X94482Y86811D02*
X95282D01*
X94882Y86411D02*
Y87211D01*
X133065Y100984D02*
X133865D01*
X133465Y100584D02*
Y101384D01*
X70266Y167520D02*
X71466D01*
X70866Y166920D02*
Y168120D01*
X148813Y66339D02*
X149613D01*
X149213Y65939D02*
Y66739D01*
X148813Y63189D02*
X149613D01*
X149213Y62789D02*
Y63589D01*
X199206Y82087D02*
X200006D01*
X199606Y81687D02*
Y82487D01*
X190340Y275787D02*
X191140D01*
X190740Y275387D02*
Y276187D01*
X199206Y78937D02*
X200006D01*
X199606Y78537D02*
Y79337D01*
X192640Y275787D02*
X193440D01*
X193040Y275387D02*
Y276187D01*
X214007Y984D02*
X214807D01*
X214407Y584D02*
Y1384D01*
X216267Y984D02*
X217067D01*
X216667Y584D02*
Y1384D01*
X72435Y42717D02*
X73235D01*
X72835Y42317D02*
Y43117D01*
X72435Y86811D02*
X73235D01*
X72835Y86411D02*
Y87211D01*
X142513Y82087D02*
X143313D01*
X142913Y81687D02*
Y82487D01*
X75584Y42717D02*
X76384D01*
X75984Y42317D02*
Y43117D01*
X75584Y86811D02*
X76384D01*
X75984Y86411D02*
Y87211D01*
X139364Y82087D02*
X140164D01*
X139764Y81687D02*
Y82487D01*
X123742Y275886D02*
X124542D01*
X124142Y275486D02*
Y276286D01*
X183458Y97835D02*
X184258D01*
X183858Y97435D02*
Y98235D01*
X121442Y275886D02*
X122242D01*
X121842Y275486D02*
Y276286D01*
X180309Y97835D02*
X181109D01*
X180709Y97435D02*
Y98235D01*
X129648Y275886D02*
X130448D01*
X130048Y275486D02*
Y276286D01*
X189758Y116732D02*
X190558D01*
X190157Y116332D02*
Y117132D01*
X127348Y275886D02*
X128148D01*
X127748Y275486D02*
Y276286D01*
X186608Y113583D02*
X187408D01*
X187008Y113183D02*
Y113983D01*
X210132Y2264D02*
X210931D01*
X210531Y1864D02*
Y2664D01*
X207622Y443D02*
X208422D01*
X208022Y43D02*
Y843D01*
X173143Y1181D02*
X173943D01*
X173543Y781D02*
Y1581D01*
X176568Y3543D02*
X177368D01*
X176969Y3143D02*
Y3943D01*
X89557Y237992D02*
X90758D01*
X90158Y237392D02*
Y238592D01*
X252943Y99803D02*
X254143D01*
X253543Y99203D02*
Y100403D01*
X252943Y96653D02*
X254143D01*
X253543Y96053D02*
Y97254D01*
X-21072Y181299D02*
X-19872D01*
X-20472Y180699D02*
Y181899D01*
X-84065Y200591D02*
X-82865D01*
X-83465Y199991D02*
Y201191D01*
X-83277Y195866D02*
X-82077D01*
X-82677Y195266D02*
Y196466D01*
X-70679Y195866D02*
X-69479D01*
X-70079Y195266D02*
Y196466D01*
X275778Y285236D02*
X276978D01*
X276378Y284636D02*
Y285836D01*
X237589Y230906D02*
X238789D01*
X238189Y230306D02*
Y231505D01*
X-49025Y202953D02*
X-47825D01*
X-48425Y202353D02*
Y203553D01*
X-51116Y205044D02*
X-49916D01*
X-50516Y204444D02*
Y205644D01*
M02*
