G04*
G04 #@! TF.GenerationSoftware,Altium Limited,Altium Designer,18.1.7 (191)*
G04*
G04 Layer_Physical_Order=1*
G04 Layer_Color=255*
%FSLAX25Y25*%
%MOIN*%
G70*
G01*
G75*
%ADD12C,0.01000*%
%ADD14C,0.00492*%
%ADD16C,0.00800*%
%ADD17C,0.01800*%
%ADD18C,0.00787*%
%ADD19C,0.00500*%
%ADD26R,0.05020X0.02953*%
%ADD28C,0.01772*%
%ADD29R,0.02900X0.02500*%
%ADD30R,0.02500X0.02900*%
%ADD31R,0.12992X0.09449*%
%ADD32R,0.03740X0.09449*%
%ADD33R,0.01968X0.03150*%
%ADD34R,0.05512X0.03543*%
%ADD35R,0.03937X0.02756*%
%ADD36R,0.04528X0.04724*%
%ADD37R,0.04331X0.04724*%
%ADD38R,0.05709X0.04724*%
%ADD39R,0.02756X0.03937*%
%ADD40R,0.02756X0.00906*%
%ADD41R,0.03543X0.05906*%
%ADD42R,0.02756X0.03937*%
%ADD43R,0.02165X0.03347*%
%ADD44R,0.10433X0.10433*%
%ADD45R,0.00984X0.03150*%
%ADD46R,0.03150X0.00984*%
%ADD47R,0.00787X0.03150*%
%ADD48R,0.03150X0.00787*%
%ADD49R,0.03347X0.01102*%
%ADD50R,0.01102X0.03347*%
%ADD51R,0.06693X0.06693*%
%ADD52R,0.02362X0.02165*%
%ADD53R,0.05512X0.03740*%
%ADD54R,0.03937X0.10630*%
%ADD55R,0.01181X0.01378*%
%ADD56R,0.04528X0.07087*%
%ADD57R,0.03740X0.03937*%
%ADD58R,0.10630X0.04528*%
%ADD59R,0.05709X0.03740*%
%ADD60R,0.02165X0.02362*%
%ADD61R,0.09843X0.06693*%
%ADD62R,0.03937X0.10827*%
%ADD63R,0.08661X0.31496*%
%ADD64R,0.07008X0.05000*%
%ADD65C,0.01968*%
%ADD66R,0.03347X0.02559*%
%ADD67R,0.03740X0.01181*%
%ADD68R,0.01181X0.03740*%
%ADD69R,0.12795X0.12795*%
%ADD70R,0.02047X0.00787*%
%ADD71R,0.02244X0.00787*%
%ADD72R,0.01500X0.04528*%
%ADD73O,0.03347X0.00984*%
%ADD74O,0.00984X0.03347*%
%ADD75R,0.04331X0.01772*%
%ADD76O,0.06496X0.01772*%
%ADD77R,0.03937X0.03543*%
%ADD78R,0.01378X0.03347*%
%ADD79R,0.00500X0.00500*%
%ADD80R,0.01378X0.01181*%
%ADD81R,0.03937X0.03740*%
%ADD82R,0.04528X0.10630*%
%ADD83R,0.00500X0.00500*%
%ADD84R,0.03740X0.05709*%
%ADD85R,0.09449X0.03740*%
%ADD86R,0.09449X0.12992*%
%ADD157C,0.13000*%
%ADD161R,0.19685X0.19685*%
%ADD162C,0.00390*%
%ADD163C,0.01800*%
%ADD164C,0.00400*%
%ADD165C,0.02000*%
%ADD166C,0.00450*%
%ADD167C,0.01500*%
%ADD168C,0.00799*%
%ADD169C,0.03000*%
%ADD170R,0.00500X0.00787*%
%ADD171R,0.13386X0.12992*%
%ADD172R,0.12547X0.12992*%
%ADD173R,0.07874X0.02756*%
%ADD174R,0.07874X0.02756*%
%ADD175R,0.07874X0.03150*%
%ADD176R,0.03150X0.07874*%
%ADD177R,0.02756X0.07874*%
%ADD178R,0.02756X0.07874*%
%ADD179R,0.07874X0.07874*%
%ADD180R,0.03937X0.00787*%
%ADD181R,0.04921X0.05512*%
%ADD182R,0.04232X0.10630*%
%ADD183R,0.11024X0.18504*%
%ADD184R,0.04724X0.00787*%
%ADD185R,0.05118X0.08268*%
%ADD186R,0.05020X0.05118*%
%ADD187R,0.08268X0.14173*%
%ADD188R,0.04724X0.07087*%
%ADD189R,0.15748X0.02953*%
%ADD190R,0.08661X0.01181*%
%ADD191R,0.00787X0.03543*%
%ADD192R,0.04921X0.05512*%
%ADD193R,0.11024X0.18110*%
%ADD194R,0.00787X0.00500*%
%ADD195R,0.07874X0.02756*%
%ADD196R,0.23622X0.16929*%
%ADD197R,0.17717X0.24803*%
%ADD198R,0.15748X0.07480*%
%ADD199R,0.07087X0.15748*%
%ADD200R,0.06200X0.06200*%
%ADD201C,0.06200*%
%ADD202C,0.04016*%
%ADD203C,0.09000*%
%ADD204C,0.05900*%
%ADD205R,0.05900X0.05900*%
%ADD206C,0.08000*%
%ADD207R,0.06000X0.06000*%
%ADD208C,0.06000*%
%ADD209C,0.03937*%
%ADD210C,0.07087*%
%ADD211C,0.12500*%
%ADD212C,0.02000*%
%ADD213C,0.02598*%
%ADD214C,0.02400*%
G36*
X232283Y231693D02*
X230331D01*
Y232669D01*
X227165D01*
Y233169D01*
X226665D01*
Y235055D01*
X224016D01*
Y237779D01*
X225484D01*
Y239961D01*
Y242142D01*
X224016D01*
Y243401D01*
X224295Y243685D01*
X226665D01*
Y246654D01*
Y249622D01*
X224295D01*
X224016Y249906D01*
Y250984D01*
X232283D01*
Y231693D01*
D02*
G37*
G36*
X227404Y193152D02*
X227559D01*
Y192246D01*
X227383Y191982D01*
X227255Y191339D01*
X227383Y190695D01*
X227559Y190431D01*
Y189788D01*
X227143Y189511D01*
X226777Y189663D01*
X226091Y189753D01*
Y185236D01*
X225591D01*
Y184736D01*
X221074D01*
X221164Y184050D01*
X221622Y182945D01*
X222350Y181996D01*
X222495Y181885D01*
X222528Y181386D01*
X218898Y177756D01*
Y173178D01*
X218790Y172638D01*
X218898Y172097D01*
Y168307D01*
X213949D01*
Y169492D01*
X211768D01*
X209587D01*
Y168307D01*
X207087D01*
Y179331D01*
X212992Y185236D01*
X212992D01*
Y187175D01*
X213241Y187224D01*
X213787Y187589D01*
X214152Y188135D01*
X214280Y188778D01*
X214152Y189422D01*
X213787Y189968D01*
X213241Y190333D01*
X212992Y190382D01*
Y195472D01*
X214354D01*
Y192996D01*
X216035D01*
Y195079D01*
X217035D01*
Y192996D01*
X218717D01*
Y195472D01*
X221736D01*
Y192602D01*
X223319D01*
Y195276D01*
X224319D01*
Y192602D01*
X225902D01*
Y195472D01*
X227404D01*
Y193152D01*
D02*
G37*
G36*
X40945Y175394D02*
X36614D01*
X32283Y171063D01*
X27953D01*
Y176575D01*
X34252D01*
X38583Y180905D01*
Y181693D01*
X39370Y182480D01*
X40945D01*
Y175394D01*
D02*
G37*
G36*
X40157Y169095D02*
X38189D01*
X36220Y167126D01*
X34252D01*
X33071Y168307D01*
X28346D01*
Y169882D01*
X32677D01*
X33465Y170669D01*
Y171063D01*
X34646Y172244D01*
X40157D01*
Y169095D01*
D02*
G37*
G36*
X206496Y163386D02*
X207563D01*
Y162409D01*
X209252D01*
Y161909D01*
X209752D01*
Y160319D01*
X211705D01*
Y161909D01*
X212705D01*
Y160319D01*
X213894D01*
Y161215D01*
X214685D01*
Y160461D01*
X217555D01*
Y159461D01*
X214685D01*
Y158706D01*
X214291D01*
X214018Y158651D01*
X213787Y158497D01*
X212360Y157070D01*
X212242Y157119D01*
X211811Y157176D01*
X211380Y157119D01*
X210979Y156953D01*
X210634Y156689D01*
X210455Y156455D01*
X210055Y156591D01*
Y157004D01*
X207587D01*
Y154134D01*
X207087D01*
Y153634D01*
X204118D01*
Y151264D01*
X203834Y150984D01*
X196850D01*
Y165157D01*
X204724D01*
X206496Y163386D01*
D02*
G37*
G36*
X105118Y140354D02*
X42913D01*
X42126Y141142D01*
Y147441D01*
X40157Y149409D01*
X32283D01*
Y150197D01*
X36220D01*
X37402Y151378D01*
X59449D01*
Y147047D01*
X60236Y146260D01*
X93701D01*
Y154134D01*
X96850Y157283D01*
X105118D01*
Y140354D01*
D02*
G37*
G36*
X40551Y147047D02*
Y140748D01*
X32677D01*
Y143898D01*
X36220D01*
X36614Y144291D01*
Y147047D01*
X35827Y147835D01*
X32283D01*
Y148622D01*
X38976D01*
X40551Y147047D01*
D02*
G37*
G36*
X-58661Y158071D02*
X-51083D01*
Y151378D01*
X-46457D01*
Y138779D01*
X-58661D01*
Y153347D01*
X-61811Y156496D01*
X-79528D01*
Y152559D01*
X-86221D01*
Y153347D01*
X-83071D01*
Y157677D01*
X-73228D01*
Y159252D01*
X-72835Y159646D01*
X-60236D01*
X-58661Y158071D01*
D02*
G37*
G36*
X-66240Y149902D02*
X-62598Y146260D01*
Y138779D01*
X-71161D01*
Y151083D01*
X-66240D01*
Y149902D01*
D02*
G37*
G36*
X16929Y129724D02*
X-1181D01*
Y134055D01*
X-12598D01*
Y139567D01*
X-11811Y140354D01*
X-6693D01*
Y143898D01*
X16929D01*
Y129724D01*
D02*
G37*
G36*
X15157Y95079D02*
X15551Y94685D01*
Y91929D01*
X10827D01*
Y94685D01*
X11220Y95079D01*
Y97047D01*
X15157D01*
Y95079D01*
D02*
G37*
G36*
X-24213D02*
X-23819Y94685D01*
Y91929D01*
X-28543D01*
Y94685D01*
X-28150Y95079D01*
Y97047D01*
X-24213D01*
Y95079D01*
D02*
G37*
G36*
X-58661Y110827D02*
X-51083D01*
Y104134D01*
X-46457D01*
Y91535D01*
X-58661D01*
Y106102D01*
X-61811Y109252D01*
X-79528D01*
Y105315D01*
X-86221D01*
Y106102D01*
X-83071D01*
Y110433D01*
X-73228D01*
Y112008D01*
X-72835Y112402D01*
X-60236D01*
X-58661Y110827D01*
D02*
G37*
G36*
X-66240Y102657D02*
X-62598Y99016D01*
Y91535D01*
X-71161D01*
Y103839D01*
X-66240D01*
Y102657D01*
D02*
G37*
G36*
X26378Y90748D02*
Y78937D01*
X16142D01*
Y84449D01*
X15748Y84842D01*
X11024D01*
Y89567D01*
X17323D01*
X20472Y92716D01*
X24409D01*
X26378Y90748D01*
D02*
G37*
G36*
X-12992D02*
Y78937D01*
X-23228D01*
Y84449D01*
X-23622Y84842D01*
X-28346D01*
Y89567D01*
X-22047D01*
X-18898Y92716D01*
X-14961D01*
X-12992Y90748D01*
D02*
G37*
G36*
X6693Y84842D02*
X1575D01*
X787Y84055D01*
Y78150D01*
X1575Y77362D01*
Y75394D01*
X-3150D01*
Y77362D01*
X-2362Y78150D01*
Y87598D01*
X-1969Y87992D01*
X6693D01*
Y84842D01*
D02*
G37*
G36*
X-32677D02*
X-37795D01*
X-38583Y84055D01*
Y78150D01*
X-37795Y77362D01*
Y75394D01*
X-42520D01*
Y77362D01*
X-41732Y78150D01*
Y87598D01*
X-41339Y87992D01*
X-32677D01*
Y84842D01*
D02*
G37*
G36*
X9843D02*
X10630Y84055D01*
X12992D01*
X13386Y83661D01*
Y73425D01*
X3937D01*
Y83661D01*
X4331Y84055D01*
X7874D01*
X8661Y84842D01*
Y87598D01*
X9843D01*
Y84842D01*
D02*
G37*
G36*
X-29528D02*
X-28740Y84055D01*
X-26378D01*
X-25984Y83661D01*
Y73425D01*
X-35433D01*
Y83661D01*
X-35039Y84055D01*
X-31496D01*
X-30709Y84842D01*
Y87598D01*
X-29528D01*
Y84842D01*
D02*
G37*
G36*
X-24213Y63583D02*
X-23819Y63189D01*
Y60433D01*
X-28543D01*
Y63189D01*
X-28150Y63583D01*
Y65551D01*
X-24213D01*
Y63583D01*
D02*
G37*
G36*
X-12992Y59252D02*
Y47441D01*
X-23228D01*
Y52953D01*
X-23622Y53347D01*
X-28346D01*
Y58071D01*
X-22047D01*
X-18898Y61221D01*
X-14961D01*
X-12992Y59252D01*
D02*
G37*
G36*
X-58661Y63583D02*
X-51083D01*
Y56890D01*
X-46457D01*
Y44291D01*
X-58661D01*
Y58858D01*
X-61811Y62008D01*
X-79528D01*
Y58071D01*
X-86221D01*
Y58858D01*
X-83071D01*
Y63189D01*
X-73228D01*
Y64764D01*
X-72835Y65158D01*
X-60236D01*
X-58661Y63583D01*
D02*
G37*
G36*
X-66240Y55413D02*
X-62598Y51772D01*
Y44291D01*
X-71161D01*
Y56595D01*
X-66240D01*
Y55413D01*
D02*
G37*
G36*
X-32677Y53347D02*
X-37795D01*
X-38583Y52559D01*
Y46654D01*
X-37795Y45866D01*
Y43898D01*
X-42520D01*
Y45866D01*
X-41732Y46654D01*
Y56102D01*
X-41339Y56496D01*
X-32677D01*
Y53347D01*
D02*
G37*
G36*
X-29528D02*
X-28740Y52559D01*
X-26378D01*
X-25984Y52165D01*
Y41929D01*
X-35433D01*
Y52165D01*
X-35039Y52559D01*
X-31496D01*
X-30709Y53347D01*
Y56102D01*
X-29528D01*
Y53347D01*
D02*
G37*
G36*
X227559Y45323D02*
X227472D01*
Y42059D01*
Y38795D01*
X227559D01*
Y35236D01*
X210630D01*
Y46654D01*
X213723D01*
Y45515D01*
X214197D01*
X214318Y45115D01*
X214269Y45082D01*
X214147Y44900D01*
X214105Y44685D01*
X213752Y44405D01*
X213173D01*
Y42035D01*
X216142D01*
Y41535D01*
X216642D01*
Y38665D01*
X219110D01*
Y40543D01*
X219472Y40634D01*
X219510Y40634D01*
X221153D01*
Y42717D01*
X221654D01*
Y43216D01*
X223835D01*
Y44799D01*
X223474D01*
X223285Y45121D01*
Y46402D01*
X223318Y46654D01*
X227559D01*
Y45323D01*
D02*
G37*
G36*
X-24213Y32087D02*
X-23819Y31693D01*
Y28937D01*
X-28543D01*
Y31693D01*
X-28150Y32087D01*
Y34055D01*
X-24213D01*
Y32087D01*
D02*
G37*
G36*
X-12992Y27756D02*
Y15945D01*
X-23228D01*
Y21457D01*
X-23622Y21850D01*
X-28346D01*
Y26575D01*
X-22047D01*
X-18898Y29724D01*
X-14961D01*
X-12992Y27756D01*
D02*
G37*
G36*
X-32677Y21850D02*
X-37795D01*
X-38583Y21063D01*
Y15157D01*
X-37795Y14370D01*
Y12402D01*
X-42520D01*
Y14370D01*
X-41732Y15157D01*
Y24606D01*
X-41339Y25000D01*
X-32677D01*
Y21850D01*
D02*
G37*
G36*
X-29528D02*
X-28740Y21063D01*
X-26378D01*
X-25984Y20669D01*
Y10433D01*
X-35433D01*
Y20669D01*
X-35039Y21063D01*
X-31496D01*
X-30709Y21850D01*
Y24606D01*
X-29528D01*
Y21850D01*
D02*
G37*
G36*
X-58661Y16339D02*
X-51083D01*
Y9646D01*
X-46457D01*
Y-2953D01*
X-58661D01*
Y11614D01*
X-61811Y14764D01*
X-79528D01*
Y10827D01*
X-86221D01*
Y11614D01*
X-83071D01*
Y15945D01*
X-73228D01*
Y17520D01*
X-72835Y17913D01*
X-60236D01*
X-58661Y16339D01*
D02*
G37*
G36*
X-66240Y8169D02*
X-62598Y4528D01*
Y-2953D01*
X-71161D01*
Y9350D01*
X-66240D01*
Y8169D01*
D02*
G37*
G36*
X1351453Y-58207D02*
X1351555Y-58221D01*
X1351774Y-58250D01*
X1352036Y-58309D01*
X1352313Y-58396D01*
X1352590Y-58527D01*
X1352867Y-58688D01*
X1352882D01*
X1352896Y-58717D01*
X1352984Y-58775D01*
X1353115Y-58892D01*
X1353275Y-59038D01*
X1353450Y-59227D01*
X1353625Y-59461D01*
X1353800Y-59738D01*
X1353946Y-60044D01*
Y-60058D01*
X1353961Y-60088D01*
X1353975Y-60131D01*
X1354005Y-60190D01*
X1354034Y-60277D01*
X1354063Y-60379D01*
X1354136Y-60612D01*
X1354209Y-60904D01*
X1354267Y-61225D01*
X1354311Y-61589D01*
X1354325Y-61968D01*
Y-61983D01*
Y-62012D01*
Y-62070D01*
Y-62158D01*
X1354311Y-62260D01*
Y-62377D01*
X1354282Y-62639D01*
X1354223Y-62960D01*
X1354150Y-63295D01*
X1354048Y-63645D01*
X1353917Y-63995D01*
Y-64009D01*
X1353903Y-64039D01*
X1353873Y-64082D01*
X1353844Y-64141D01*
X1353742Y-64301D01*
X1353611Y-64505D01*
X1353450Y-64724D01*
X1353246Y-64943D01*
X1353013Y-65161D01*
X1352736Y-65365D01*
X1352722D01*
X1352707Y-65380D01*
X1352663Y-65409D01*
X1352605Y-65438D01*
X1352459Y-65511D01*
X1352255Y-65599D01*
X1352007Y-65686D01*
X1351745Y-65759D01*
X1351439Y-65817D01*
X1351132Y-65832D01*
X1351030D01*
X1350914Y-65817D01*
X1350768Y-65803D01*
X1350593Y-65774D01*
X1350403Y-65730D01*
X1350214Y-65672D01*
X1350024Y-65584D01*
X1350010Y-65570D01*
X1349937Y-65540D01*
X1349849Y-65482D01*
X1349733Y-65395D01*
X1349616Y-65307D01*
X1349470Y-65191D01*
X1349339Y-65059D01*
X1349222Y-64913D01*
Y-68471D01*
X1347983D01*
Y-58353D01*
X1349106D01*
Y-59315D01*
X1349120Y-59286D01*
X1349179Y-59227D01*
X1349251Y-59125D01*
X1349368Y-59009D01*
X1349499Y-58863D01*
X1349645Y-58732D01*
X1349820Y-58600D01*
X1349995Y-58484D01*
X1350024Y-58469D01*
X1350082Y-58440D01*
X1350199Y-58396D01*
X1350345Y-58338D01*
X1350520Y-58280D01*
X1350724Y-58236D01*
X1350957Y-58207D01*
X1351220Y-58192D01*
X1351380D01*
X1351453Y-58207D01*
D02*
G37*
G36*
X1393254D02*
X1393414Y-58236D01*
X1393604Y-58294D01*
X1393808Y-58367D01*
X1394041Y-58469D01*
X1394289Y-58600D01*
X1393837Y-59738D01*
X1393822Y-59723D01*
X1393764Y-59694D01*
X1393677Y-59650D01*
X1393560Y-59606D01*
X1393429Y-59563D01*
X1393268Y-59519D01*
X1393108Y-59490D01*
X1392948Y-59475D01*
X1392875D01*
X1392802Y-59490D01*
X1392700Y-59504D01*
X1392598Y-59534D01*
X1392467Y-59577D01*
X1392335Y-59636D01*
X1392219Y-59723D01*
X1392204Y-59738D01*
X1392160Y-59767D01*
X1392117Y-59825D01*
X1392044Y-59898D01*
X1391971Y-60000D01*
X1391898Y-60117D01*
X1391825Y-60248D01*
X1391767Y-60408D01*
X1391752Y-60437D01*
X1391738Y-60525D01*
X1391708Y-60656D01*
X1391665Y-60831D01*
X1391621Y-61050D01*
X1391592Y-61298D01*
X1391577Y-61560D01*
X1391563Y-61852D01*
Y-65672D01*
X1390323D01*
Y-58353D01*
X1391446D01*
Y-59461D01*
X1391461Y-59446D01*
X1391519Y-59344D01*
X1391592Y-59213D01*
X1391708Y-59052D01*
X1391825Y-58892D01*
X1391956Y-58717D01*
X1392087Y-58571D01*
X1392219Y-58455D01*
X1392233Y-58440D01*
X1392277Y-58411D01*
X1392365Y-58367D01*
X1392452Y-58323D01*
X1392569Y-58280D01*
X1392715Y-58236D01*
X1392860Y-58207D01*
X1393021Y-58192D01*
X1393123D01*
X1393254Y-58207D01*
D02*
G37*
G36*
X1232709Y-62198D02*
X1231935D01*
Y-61314D01*
X1232709D01*
Y-62198D01*
D02*
G37*
G36*
X1257762Y-62954D02*
X1257862Y-62972D01*
X1257980Y-63008D01*
X1258108Y-63054D01*
X1258253Y-63118D01*
X1258408Y-63200D01*
X1258126Y-63910D01*
X1258117Y-63901D01*
X1258080Y-63883D01*
X1258026Y-63856D01*
X1257953Y-63828D01*
X1257871Y-63801D01*
X1257771Y-63774D01*
X1257670Y-63756D01*
X1257570Y-63746D01*
X1257525D01*
X1257479Y-63756D01*
X1257415Y-63765D01*
X1257352Y-63783D01*
X1257270Y-63810D01*
X1257188Y-63847D01*
X1257115Y-63901D01*
X1257106Y-63910D01*
X1257078Y-63929D01*
X1257051Y-63965D01*
X1257005Y-64011D01*
X1256960Y-64074D01*
X1256914Y-64147D01*
X1256869Y-64229D01*
X1256832Y-64329D01*
X1256823Y-64348D01*
X1256814Y-64402D01*
X1256796Y-64484D01*
X1256769Y-64594D01*
X1256741Y-64730D01*
X1256723Y-64885D01*
X1256714Y-65049D01*
X1256705Y-65231D01*
Y-67618D01*
X1255931D01*
Y-63045D01*
X1256632D01*
Y-63737D01*
X1256641Y-63728D01*
X1256678Y-63664D01*
X1256723Y-63582D01*
X1256796Y-63482D01*
X1256869Y-63382D01*
X1256951Y-63273D01*
X1257033Y-63182D01*
X1257115Y-63109D01*
X1257124Y-63099D01*
X1257151Y-63081D01*
X1257206Y-63054D01*
X1257261Y-63027D01*
X1257333Y-62999D01*
X1257425Y-62972D01*
X1257516Y-62954D01*
X1257616Y-62945D01*
X1257680D01*
X1257762Y-62954D01*
D02*
G37*
G36*
X1378645Y-65788D02*
Y-65803D01*
X1378630Y-65847D01*
X1378601Y-65905D01*
X1378572Y-65978D01*
X1378528Y-66080D01*
X1378484Y-66197D01*
X1378382Y-66444D01*
X1378280Y-66721D01*
X1378164Y-66998D01*
X1378047Y-67246D01*
X1377989Y-67348D01*
X1377945Y-67450D01*
X1377930Y-67480D01*
X1377887Y-67553D01*
X1377814Y-67655D01*
X1377726Y-67786D01*
X1377610Y-67932D01*
X1377478Y-68077D01*
X1377347Y-68223D01*
X1377187Y-68340D01*
X1377172Y-68354D01*
X1377114Y-68384D01*
X1377026Y-68427D01*
X1376895Y-68486D01*
X1376749Y-68544D01*
X1376574Y-68588D01*
X1376385Y-68617D01*
X1376166Y-68631D01*
X1376108D01*
X1376035Y-68617D01*
X1375933D01*
X1375816Y-68588D01*
X1375685Y-68559D01*
X1375539Y-68529D01*
X1375379Y-68471D01*
X1375248Y-67319D01*
X1375262D01*
X1375321Y-67334D01*
X1375393Y-67348D01*
X1375481Y-67378D01*
X1375714Y-67421D01*
X1375947Y-67436D01*
X1376020D01*
X1376093Y-67421D01*
X1376181D01*
X1376399Y-67378D01*
X1376501Y-67334D01*
X1376604Y-67290D01*
X1376618D01*
X1376647Y-67261D01*
X1376691Y-67232D01*
X1376749Y-67188D01*
X1376881Y-67071D01*
X1376997Y-66911D01*
Y-66896D01*
X1377026Y-66867D01*
X1377055Y-66809D01*
X1377085Y-66721D01*
X1377143Y-66605D01*
X1377201Y-66430D01*
X1377289Y-66226D01*
X1377376Y-65978D01*
Y-65963D01*
X1377405Y-65905D01*
X1377435Y-65803D01*
X1377493Y-65672D01*
X1374723Y-58353D01*
X1376035D01*
X1377566Y-62595D01*
Y-62610D01*
X1377580Y-62624D01*
X1377595Y-62668D01*
X1377610Y-62741D01*
X1377639Y-62814D01*
X1377668Y-62901D01*
X1377741Y-63106D01*
X1377828Y-63353D01*
X1377916Y-63645D01*
X1378003Y-63951D01*
X1378091Y-64287D01*
Y-64272D01*
X1378105Y-64243D01*
X1378120Y-64199D01*
X1378134Y-64141D01*
X1378149Y-64068D01*
X1378178Y-63980D01*
X1378236Y-63762D01*
X1378309Y-63514D01*
X1378411Y-63222D01*
X1378499Y-62931D01*
X1378616Y-62624D01*
X1380190Y-58353D01*
X1381429D01*
X1378645Y-65788D01*
D02*
G37*
G36*
X1371005Y-58207D02*
X1371224Y-58221D01*
X1371471Y-58250D01*
X1371719Y-58294D01*
X1371967Y-58353D01*
X1372200Y-58425D01*
X1372230Y-58440D01*
X1372302Y-58469D01*
X1372404Y-58513D01*
X1372536Y-58571D01*
X1372682Y-58659D01*
X1372827Y-58746D01*
X1372958Y-58863D01*
X1373075Y-58979D01*
X1373090Y-58994D01*
X1373119Y-59038D01*
X1373163Y-59111D01*
X1373221Y-59198D01*
X1373294Y-59329D01*
X1373352Y-59461D01*
X1373411Y-59621D01*
X1373454Y-59811D01*
Y-59825D01*
X1373469Y-59869D01*
X1373483Y-59956D01*
X1373498Y-60073D01*
Y-60233D01*
X1373513Y-60423D01*
X1373527Y-60671D01*
Y-60948D01*
Y-62610D01*
Y-62624D01*
Y-62683D01*
Y-62770D01*
Y-62887D01*
Y-63018D01*
Y-63178D01*
X1373542Y-63528D01*
Y-63893D01*
X1373556Y-64257D01*
X1373571Y-64418D01*
Y-64564D01*
X1373586Y-64695D01*
X1373600Y-64797D01*
Y-64811D01*
X1373615Y-64870D01*
X1373629Y-64957D01*
X1373673Y-65074D01*
X1373702Y-65205D01*
X1373760Y-65351D01*
X1373833Y-65511D01*
X1373906Y-65672D01*
X1372609D01*
X1372594Y-65657D01*
X1372579Y-65599D01*
X1372550Y-65526D01*
X1372507Y-65409D01*
X1372463Y-65278D01*
X1372434Y-65118D01*
X1372404Y-64943D01*
X1372375Y-64753D01*
X1372361D01*
X1372346Y-64782D01*
X1372259Y-64855D01*
X1372128Y-64957D01*
X1371953Y-65088D01*
X1371734Y-65220D01*
X1371515Y-65365D01*
X1371282Y-65497D01*
X1371034Y-65599D01*
X1371005Y-65613D01*
X1370917Y-65628D01*
X1370786Y-65672D01*
X1370626Y-65715D01*
X1370422Y-65759D01*
X1370188Y-65788D01*
X1369926Y-65817D01*
X1369664Y-65832D01*
X1369547D01*
X1369459Y-65817D01*
X1369357D01*
X1369241Y-65803D01*
X1368978Y-65759D01*
X1368687Y-65686D01*
X1368366Y-65584D01*
X1368074Y-65438D01*
X1367812Y-65249D01*
X1367783Y-65220D01*
X1367710Y-65147D01*
X1367608Y-65016D01*
X1367491Y-64841D01*
X1367374Y-64622D01*
X1367272Y-64374D01*
X1367200Y-64068D01*
X1367185Y-63922D01*
X1367170Y-63747D01*
Y-63718D01*
Y-63660D01*
X1367185Y-63558D01*
X1367200Y-63426D01*
X1367229Y-63266D01*
X1367272Y-63106D01*
X1367331Y-62931D01*
X1367404Y-62770D01*
X1367418Y-62756D01*
X1367447Y-62697D01*
X1367506Y-62610D01*
X1367579Y-62508D01*
X1367666Y-62391D01*
X1367783Y-62274D01*
X1367899Y-62158D01*
X1368045Y-62056D01*
X1368060Y-62041D01*
X1368118Y-62012D01*
X1368191Y-61954D01*
X1368307Y-61895D01*
X1368439Y-61837D01*
X1368599Y-61764D01*
X1368760Y-61706D01*
X1368949Y-61648D01*
X1368964D01*
X1369022Y-61633D01*
X1369109Y-61604D01*
X1369226Y-61589D01*
X1369372Y-61560D01*
X1369561Y-61531D01*
X1369780Y-61487D01*
X1370043Y-61458D01*
X1370057D01*
X1370115Y-61443D01*
X1370188D01*
X1370290Y-61429D01*
X1370407Y-61414D01*
X1370553Y-61385D01*
X1370713Y-61371D01*
X1370888Y-61341D01*
X1371238Y-61269D01*
X1371617Y-61196D01*
X1371953Y-61108D01*
X1372113Y-61064D01*
X1372259Y-61021D01*
Y-61006D01*
Y-60977D01*
X1372273Y-60889D01*
Y-60787D01*
Y-60729D01*
Y-60700D01*
Y-60685D01*
Y-60671D01*
Y-60583D01*
X1372259Y-60437D01*
X1372230Y-60277D01*
X1372186Y-60102D01*
X1372113Y-59927D01*
X1372025Y-59767D01*
X1371909Y-59636D01*
X1371894Y-59621D01*
X1371821Y-59563D01*
X1371705Y-59504D01*
X1371559Y-59417D01*
X1371355Y-59344D01*
X1371122Y-59271D01*
X1370830Y-59227D01*
X1370494Y-59213D01*
X1370349D01*
X1370203Y-59227D01*
X1369999Y-59256D01*
X1369795Y-59286D01*
X1369576Y-59344D01*
X1369372Y-59417D01*
X1369197Y-59519D01*
X1369182Y-59534D01*
X1369124Y-59577D01*
X1369051Y-59650D01*
X1368964Y-59767D01*
X1368876Y-59913D01*
X1368774Y-60102D01*
X1368687Y-60335D01*
X1368599Y-60598D01*
X1367389Y-60437D01*
Y-60423D01*
X1367404Y-60408D01*
Y-60365D01*
X1367418Y-60306D01*
X1367462Y-60175D01*
X1367520Y-59986D01*
X1367593Y-59796D01*
X1367681Y-59592D01*
X1367797Y-59388D01*
X1367928Y-59198D01*
X1367943Y-59184D01*
X1368001Y-59125D01*
X1368089Y-59038D01*
X1368206Y-58921D01*
X1368366Y-58805D01*
X1368555Y-58688D01*
X1368774Y-58557D01*
X1369022Y-58455D01*
X1369036D01*
X1369051Y-58440D01*
X1369095Y-58425D01*
X1369153Y-58411D01*
X1369299Y-58367D01*
X1369503Y-58323D01*
X1369736Y-58280D01*
X1370028Y-58236D01*
X1370334Y-58207D01*
X1370684Y-58192D01*
X1370844D01*
X1371005Y-58207D01*
D02*
G37*
G36*
X1361193Y-64476D02*
X1366164D01*
Y-65672D01*
X1359851D01*
Y-55582D01*
X1361193D01*
Y-64476D01*
D02*
G37*
G36*
X1338914Y-56778D02*
X1335590D01*
Y-65672D01*
X1334249D01*
Y-56778D01*
X1330924D01*
Y-55582D01*
X1338914D01*
Y-56778D01*
D02*
G37*
G36*
X1235980Y-65723D02*
X1233584D01*
Y-64949D01*
X1235980D01*
Y-65723D01*
D02*
G37*
G36*
X1385731Y-58207D02*
X1385847Y-58221D01*
X1385993Y-58250D01*
X1386153Y-58280D01*
X1386343Y-58323D01*
X1386518Y-58367D01*
X1386722Y-58440D01*
X1386912Y-58513D01*
X1387116Y-58615D01*
X1387320Y-58732D01*
X1387524Y-58863D01*
X1387714Y-59023D01*
X1387889Y-59198D01*
X1387903Y-59213D01*
X1387932Y-59242D01*
X1387976Y-59300D01*
X1388034Y-59388D01*
X1388107Y-59490D01*
X1388180Y-59606D01*
X1388268Y-59752D01*
X1388355Y-59927D01*
X1388443Y-60117D01*
X1388530Y-60321D01*
X1388603Y-60554D01*
X1388676Y-60802D01*
X1388734Y-61079D01*
X1388778Y-61371D01*
X1388807Y-61677D01*
X1388822Y-62012D01*
Y-62027D01*
Y-62085D01*
Y-62187D01*
X1388807Y-62333D01*
X1383340D01*
Y-62347D01*
Y-62391D01*
X1383354Y-62450D01*
Y-62537D01*
X1383369Y-62639D01*
X1383398Y-62756D01*
X1383442Y-63018D01*
X1383529Y-63310D01*
X1383646Y-63630D01*
X1383806Y-63922D01*
X1384010Y-64184D01*
X1384025D01*
X1384039Y-64214D01*
X1384127Y-64287D01*
X1384258Y-64389D01*
X1384433Y-64491D01*
X1384666Y-64607D01*
X1384929Y-64709D01*
X1385220Y-64782D01*
X1385381Y-64797D01*
X1385556Y-64811D01*
X1385672D01*
X1385804Y-64797D01*
X1385964Y-64768D01*
X1386139Y-64724D01*
X1386343Y-64666D01*
X1386532Y-64578D01*
X1386722Y-64461D01*
X1386737Y-64447D01*
X1386810Y-64389D01*
X1386897Y-64301D01*
X1386999Y-64184D01*
X1387116Y-64024D01*
X1387247Y-63820D01*
X1387378Y-63587D01*
X1387495Y-63310D01*
X1388778Y-63470D01*
Y-63485D01*
X1388763Y-63514D01*
X1388749Y-63572D01*
X1388719Y-63660D01*
X1388676Y-63747D01*
X1388632Y-63864D01*
X1388515Y-64112D01*
X1388370Y-64389D01*
X1388165Y-64680D01*
X1387932Y-64957D01*
X1387641Y-65220D01*
X1387626D01*
X1387597Y-65249D01*
X1387553Y-65278D01*
X1387495Y-65322D01*
X1387407Y-65365D01*
X1387320Y-65409D01*
X1387203Y-65468D01*
X1387072Y-65526D01*
X1386926Y-65584D01*
X1386780Y-65642D01*
X1386416Y-65730D01*
X1386008Y-65803D01*
X1385556Y-65832D01*
X1385395D01*
X1385293Y-65817D01*
X1385162Y-65803D01*
X1385002Y-65774D01*
X1384827Y-65745D01*
X1384637Y-65715D01*
X1384229Y-65599D01*
X1384010Y-65511D01*
X1383806Y-65424D01*
X1383587Y-65307D01*
X1383383Y-65176D01*
X1383194Y-65030D01*
X1383004Y-64855D01*
X1382990Y-64841D01*
X1382960Y-64811D01*
X1382917Y-64753D01*
X1382858Y-64666D01*
X1382786Y-64564D01*
X1382713Y-64447D01*
X1382625Y-64301D01*
X1382538Y-64141D01*
X1382450Y-63951D01*
X1382363Y-63747D01*
X1382290Y-63514D01*
X1382217Y-63266D01*
X1382158Y-63003D01*
X1382115Y-62712D01*
X1382086Y-62406D01*
X1382071Y-62085D01*
Y-62070D01*
Y-61997D01*
Y-61910D01*
X1382086Y-61779D01*
X1382100Y-61618D01*
X1382115Y-61443D01*
X1382144Y-61239D01*
X1382188Y-61035D01*
X1382304Y-60569D01*
X1382377Y-60335D01*
X1382465Y-60088D01*
X1382581Y-59854D01*
X1382713Y-59636D01*
X1382858Y-59417D01*
X1383019Y-59213D01*
X1383033Y-59198D01*
X1383062Y-59169D01*
X1383121Y-59125D01*
X1383194Y-59052D01*
X1383281Y-58979D01*
X1383398Y-58892D01*
X1383529Y-58790D01*
X1383689Y-58702D01*
X1383850Y-58600D01*
X1384039Y-58513D01*
X1384243Y-58425D01*
X1384462Y-58353D01*
X1384695Y-58280D01*
X1384943Y-58236D01*
X1385206Y-58207D01*
X1385483Y-58192D01*
X1385629D01*
X1385731Y-58207D01*
D02*
G37*
G36*
X1343347D02*
X1343478Y-58221D01*
X1343624Y-58250D01*
X1343784Y-58280D01*
X1343974Y-58309D01*
X1344367Y-58440D01*
X1344571Y-58513D01*
X1344775Y-58615D01*
X1344979Y-58717D01*
X1345184Y-58863D01*
X1345373Y-59009D01*
X1345563Y-59184D01*
X1345577Y-59198D01*
X1345607Y-59227D01*
X1345650Y-59286D01*
X1345708Y-59359D01*
X1345781Y-59461D01*
X1345869Y-59592D01*
X1345956Y-59738D01*
X1346044Y-59898D01*
X1346131Y-60073D01*
X1346219Y-60292D01*
X1346306Y-60510D01*
X1346379Y-60758D01*
X1346437Y-61021D01*
X1346481Y-61298D01*
X1346510Y-61589D01*
X1346525Y-61910D01*
Y-61925D01*
Y-61968D01*
Y-62041D01*
Y-62143D01*
X1346510Y-62260D01*
X1346496Y-62406D01*
Y-62551D01*
X1346467Y-62712D01*
X1346423Y-63076D01*
X1346336Y-63441D01*
X1346233Y-63805D01*
X1346088Y-64141D01*
Y-64155D01*
X1346073Y-64170D01*
X1346044Y-64214D01*
X1346015Y-64272D01*
X1345913Y-64418D01*
X1345781Y-64593D01*
X1345607Y-64797D01*
X1345388Y-65001D01*
X1345140Y-65205D01*
X1344848Y-65395D01*
X1344834D01*
X1344819Y-65409D01*
X1344775Y-65438D01*
X1344703Y-65468D01*
X1344630Y-65497D01*
X1344542Y-65526D01*
X1344323Y-65613D01*
X1344076Y-65686D01*
X1343769Y-65759D01*
X1343449Y-65817D01*
X1343099Y-65832D01*
X1342953D01*
X1342836Y-65817D01*
X1342705Y-65803D01*
X1342559Y-65774D01*
X1342384Y-65745D01*
X1342209Y-65715D01*
X1341816Y-65599D01*
X1341597Y-65511D01*
X1341393Y-65424D01*
X1341189Y-65307D01*
X1340985Y-65176D01*
X1340795Y-65030D01*
X1340606Y-64855D01*
X1340591Y-64841D01*
X1340562Y-64811D01*
X1340518Y-64753D01*
X1340460Y-64666D01*
X1340387Y-64564D01*
X1340314Y-64447D01*
X1340226Y-64301D01*
X1340139Y-64126D01*
X1340051Y-63937D01*
X1339964Y-63718D01*
X1339891Y-63485D01*
X1339818Y-63237D01*
X1339760Y-62960D01*
X1339716Y-62668D01*
X1339687Y-62347D01*
X1339672Y-62012D01*
Y-61983D01*
Y-61925D01*
X1339687Y-61822D01*
Y-61677D01*
X1339702Y-61516D01*
X1339731Y-61312D01*
X1339760Y-61108D01*
X1339818Y-60875D01*
X1339876Y-60641D01*
X1339949Y-60394D01*
X1340037Y-60131D01*
X1340154Y-59883D01*
X1340270Y-59650D01*
X1340431Y-59417D01*
X1340591Y-59198D01*
X1340795Y-59009D01*
X1340810Y-58994D01*
X1340839Y-58979D01*
X1340897Y-58936D01*
X1340970Y-58877D01*
X1341057Y-58819D01*
X1341174Y-58746D01*
X1341291Y-58673D01*
X1341437Y-58600D01*
X1341597Y-58527D01*
X1341772Y-58455D01*
X1342166Y-58323D01*
X1342618Y-58221D01*
X1342851Y-58207D01*
X1343099Y-58192D01*
X1343244D01*
X1343347Y-58207D01*
D02*
G37*
G36*
X1221367Y-67618D02*
X1220565D01*
Y-62343D01*
X1218725Y-67618D01*
X1217978D01*
X1216156Y-62252D01*
Y-67618D01*
X1215355D01*
Y-61314D01*
X1216603D01*
X1218097Y-65787D01*
Y-65796D01*
X1218106Y-65814D01*
X1218115Y-65842D01*
X1218133Y-65887D01*
X1218169Y-65996D01*
X1218215Y-66133D01*
X1218261Y-66288D01*
X1218315Y-66443D01*
X1218361Y-66589D01*
X1218397Y-66716D01*
X1218406Y-66698D01*
X1218416Y-66652D01*
X1218443Y-66571D01*
X1218479Y-66461D01*
X1218525Y-66315D01*
X1218589Y-66142D01*
X1218652Y-65942D01*
X1218734Y-65705D01*
X1220247Y-61314D01*
X1221367D01*
Y-67618D01*
D02*
G37*
G36*
X1248633Y-67691D02*
Y-67700D01*
X1248624Y-67727D01*
X1248606Y-67764D01*
X1248588Y-67809D01*
X1248561Y-67873D01*
X1248533Y-67946D01*
X1248469Y-68101D01*
X1248406Y-68274D01*
X1248333Y-68447D01*
X1248260Y-68602D01*
X1248223Y-68666D01*
X1248196Y-68730D01*
X1248187Y-68748D01*
X1248160Y-68793D01*
X1248114Y-68857D01*
X1248059Y-68939D01*
X1247987Y-69030D01*
X1247905Y-69121D01*
X1247823Y-69212D01*
X1247722Y-69285D01*
X1247713Y-69294D01*
X1247677Y-69313D01*
X1247622Y-69340D01*
X1247540Y-69376D01*
X1247449Y-69413D01*
X1247340Y-69440D01*
X1247221Y-69458D01*
X1247085Y-69467D01*
X1247048D01*
X1247003Y-69458D01*
X1246939D01*
X1246866Y-69440D01*
X1246784Y-69422D01*
X1246693Y-69404D01*
X1246593Y-69367D01*
X1246511Y-68647D01*
X1246520D01*
X1246556Y-68657D01*
X1246602Y-68666D01*
X1246657Y-68684D01*
X1246802Y-68711D01*
X1246948Y-68720D01*
X1246994D01*
X1247039Y-68711D01*
X1247094D01*
X1247230Y-68684D01*
X1247294Y-68657D01*
X1247358Y-68629D01*
X1247367D01*
X1247385Y-68611D01*
X1247413Y-68593D01*
X1247449Y-68565D01*
X1247531Y-68493D01*
X1247604Y-68392D01*
Y-68383D01*
X1247622Y-68365D01*
X1247640Y-68329D01*
X1247659Y-68274D01*
X1247695Y-68201D01*
X1247731Y-68092D01*
X1247786Y-67964D01*
X1247841Y-67809D01*
Y-67800D01*
X1247859Y-67764D01*
X1247877Y-67700D01*
X1247914Y-67618D01*
X1246183Y-63045D01*
X1247003D01*
X1247959Y-65696D01*
Y-65705D01*
X1247968Y-65714D01*
X1247977Y-65741D01*
X1247987Y-65787D01*
X1248005Y-65833D01*
X1248023Y-65887D01*
X1248069Y-66015D01*
X1248123Y-66170D01*
X1248178Y-66352D01*
X1248232Y-66543D01*
X1248287Y-66753D01*
Y-66743D01*
X1248296Y-66725D01*
X1248305Y-66698D01*
X1248314Y-66662D01*
X1248324Y-66616D01*
X1248342Y-66561D01*
X1248378Y-66425D01*
X1248424Y-66270D01*
X1248488Y-66088D01*
X1248542Y-65905D01*
X1248615Y-65714D01*
X1249599Y-63045D01*
X1250373D01*
X1248633Y-67691D01*
D02*
G37*
G36*
X1226314Y-67618D02*
X1225622D01*
Y-66953D01*
X1225612Y-66962D01*
X1225594Y-66989D01*
X1225567Y-67026D01*
X1225521Y-67071D01*
X1225467Y-67126D01*
X1225403Y-67199D01*
X1225330Y-67263D01*
X1225239Y-67336D01*
X1225139Y-67409D01*
X1225029Y-67472D01*
X1224911Y-67536D01*
X1224783Y-67600D01*
X1224638Y-67645D01*
X1224492Y-67682D01*
X1224328Y-67709D01*
X1224164Y-67718D01*
X1224100D01*
X1224018Y-67709D01*
X1223918Y-67700D01*
X1223800Y-67682D01*
X1223672Y-67655D01*
X1223544Y-67618D01*
X1223408Y-67563D01*
X1223390Y-67554D01*
X1223353Y-67536D01*
X1223289Y-67500D01*
X1223217Y-67454D01*
X1223125Y-67400D01*
X1223043Y-67336D01*
X1222961Y-67263D01*
X1222888Y-67181D01*
X1222879Y-67172D01*
X1222861Y-67135D01*
X1222834Y-67090D01*
X1222797Y-67017D01*
X1222752Y-66935D01*
X1222715Y-66835D01*
X1222679Y-66725D01*
X1222652Y-66607D01*
Y-66598D01*
X1222643Y-66561D01*
X1222633Y-66507D01*
Y-66434D01*
X1222624Y-66325D01*
X1222615Y-66206D01*
X1222606Y-66051D01*
Y-65878D01*
Y-63045D01*
X1223380D01*
Y-65587D01*
Y-65596D01*
Y-65614D01*
Y-65641D01*
Y-65687D01*
Y-65787D01*
X1223390Y-65914D01*
Y-66051D01*
X1223399Y-66188D01*
X1223408Y-66306D01*
X1223426Y-66407D01*
Y-66416D01*
X1223444Y-66452D01*
X1223462Y-66507D01*
X1223490Y-66580D01*
X1223535Y-66652D01*
X1223590Y-66734D01*
X1223654Y-66807D01*
X1223736Y-66880D01*
X1223745Y-66889D01*
X1223781Y-66908D01*
X1223827Y-66935D01*
X1223900Y-66962D01*
X1223982Y-66999D01*
X1224082Y-67026D01*
X1224191Y-67044D01*
X1224319Y-67053D01*
X1224382D01*
X1224446Y-67044D01*
X1224528Y-67035D01*
X1224629Y-67008D01*
X1224738Y-66980D01*
X1224856Y-66935D01*
X1224975Y-66880D01*
X1224993Y-66871D01*
X1225029Y-66844D01*
X1225084Y-66807D01*
X1225148Y-66753D01*
X1225221Y-66680D01*
X1225294Y-66598D01*
X1225357Y-66507D01*
X1225412Y-66397D01*
X1225421Y-66379D01*
X1225430Y-66343D01*
X1225448Y-66270D01*
X1225476Y-66170D01*
X1225503Y-66042D01*
X1225521Y-65887D01*
X1225530Y-65705D01*
X1225539Y-65496D01*
Y-63045D01*
X1226314D01*
Y-67618D01*
D02*
G37*
G36*
X1243860Y-62954D02*
X1243996Y-62963D01*
X1244151Y-62981D01*
X1244306Y-63008D01*
X1244461Y-63045D01*
X1244607Y-63090D01*
X1244625Y-63099D01*
X1244670Y-63118D01*
X1244734Y-63145D01*
X1244816Y-63182D01*
X1244907Y-63236D01*
X1244998Y-63291D01*
X1245080Y-63364D01*
X1245153Y-63437D01*
X1245162Y-63446D01*
X1245181Y-63473D01*
X1245208Y-63519D01*
X1245244Y-63573D01*
X1245290Y-63655D01*
X1245326Y-63737D01*
X1245363Y-63837D01*
X1245390Y-63956D01*
Y-63965D01*
X1245399Y-63992D01*
X1245408Y-64047D01*
X1245417Y-64120D01*
Y-64220D01*
X1245427Y-64338D01*
X1245436Y-64493D01*
Y-64666D01*
Y-65705D01*
Y-65714D01*
Y-65750D01*
Y-65805D01*
Y-65878D01*
Y-65960D01*
Y-66060D01*
X1245445Y-66279D01*
Y-66507D01*
X1245454Y-66734D01*
X1245463Y-66835D01*
Y-66926D01*
X1245472Y-67008D01*
X1245481Y-67071D01*
Y-67081D01*
X1245490Y-67117D01*
X1245500Y-67172D01*
X1245527Y-67245D01*
X1245545Y-67327D01*
X1245582Y-67418D01*
X1245627Y-67518D01*
X1245673Y-67618D01*
X1244862D01*
X1244853Y-67609D01*
X1244844Y-67573D01*
X1244825Y-67527D01*
X1244798Y-67454D01*
X1244771Y-67372D01*
X1244753Y-67272D01*
X1244734Y-67163D01*
X1244716Y-67044D01*
X1244707D01*
X1244698Y-67062D01*
X1244643Y-67108D01*
X1244561Y-67172D01*
X1244452Y-67254D01*
X1244315Y-67336D01*
X1244179Y-67427D01*
X1244033Y-67509D01*
X1243878Y-67573D01*
X1243860Y-67582D01*
X1243805Y-67591D01*
X1243723Y-67618D01*
X1243623Y-67645D01*
X1243495Y-67673D01*
X1243350Y-67691D01*
X1243186Y-67709D01*
X1243022Y-67718D01*
X1242949D01*
X1242894Y-67709D01*
X1242830D01*
X1242757Y-67700D01*
X1242593Y-67673D01*
X1242411Y-67627D01*
X1242211Y-67563D01*
X1242029Y-67472D01*
X1241865Y-67354D01*
X1241846Y-67336D01*
X1241801Y-67290D01*
X1241737Y-67208D01*
X1241664Y-67099D01*
X1241591Y-66962D01*
X1241527Y-66807D01*
X1241482Y-66616D01*
X1241473Y-66525D01*
X1241464Y-66416D01*
Y-66397D01*
Y-66361D01*
X1241473Y-66297D01*
X1241482Y-66215D01*
X1241500Y-66115D01*
X1241527Y-66015D01*
X1241564Y-65905D01*
X1241609Y-65805D01*
X1241619Y-65796D01*
X1241637Y-65760D01*
X1241673Y-65705D01*
X1241719Y-65641D01*
X1241774Y-65568D01*
X1241846Y-65496D01*
X1241919Y-65423D01*
X1242010Y-65359D01*
X1242019Y-65350D01*
X1242056Y-65332D01*
X1242101Y-65295D01*
X1242174Y-65259D01*
X1242256Y-65222D01*
X1242357Y-65177D01*
X1242457Y-65140D01*
X1242575Y-65104D01*
X1242584D01*
X1242621Y-65095D01*
X1242675Y-65076D01*
X1242748Y-65067D01*
X1242839Y-65049D01*
X1242958Y-65031D01*
X1243095Y-65004D01*
X1243258Y-64985D01*
X1243268D01*
X1243304Y-64976D01*
X1243350D01*
X1243413Y-64967D01*
X1243486Y-64958D01*
X1243577Y-64940D01*
X1243678Y-64931D01*
X1243787Y-64912D01*
X1244005Y-64867D01*
X1244242Y-64821D01*
X1244452Y-64767D01*
X1244552Y-64739D01*
X1244643Y-64712D01*
Y-64703D01*
Y-64685D01*
X1244652Y-64630D01*
Y-64566D01*
Y-64530D01*
Y-64512D01*
Y-64503D01*
Y-64493D01*
Y-64439D01*
X1244643Y-64348D01*
X1244625Y-64247D01*
X1244598Y-64138D01*
X1244552Y-64029D01*
X1244497Y-63929D01*
X1244425Y-63847D01*
X1244415Y-63837D01*
X1244370Y-63801D01*
X1244297Y-63765D01*
X1244206Y-63710D01*
X1244078Y-63664D01*
X1243933Y-63619D01*
X1243750Y-63591D01*
X1243541Y-63582D01*
X1243450D01*
X1243359Y-63591D01*
X1243231Y-63610D01*
X1243104Y-63628D01*
X1242967Y-63664D01*
X1242839Y-63710D01*
X1242730Y-63774D01*
X1242721Y-63783D01*
X1242684Y-63810D01*
X1242639Y-63856D01*
X1242584Y-63929D01*
X1242530Y-64020D01*
X1242466Y-64138D01*
X1242411Y-64284D01*
X1242357Y-64448D01*
X1241600Y-64348D01*
Y-64338D01*
X1241609Y-64329D01*
Y-64302D01*
X1241619Y-64266D01*
X1241646Y-64184D01*
X1241682Y-64065D01*
X1241728Y-63947D01*
X1241783Y-63819D01*
X1241856Y-63692D01*
X1241938Y-63573D01*
X1241947Y-63564D01*
X1241983Y-63528D01*
X1242038Y-63473D01*
X1242111Y-63400D01*
X1242211Y-63327D01*
X1242329Y-63254D01*
X1242466Y-63172D01*
X1242621Y-63109D01*
X1242630D01*
X1242639Y-63099D01*
X1242666Y-63090D01*
X1242703Y-63081D01*
X1242794Y-63054D01*
X1242921Y-63027D01*
X1243067Y-62999D01*
X1243249Y-62972D01*
X1243441Y-62954D01*
X1243659Y-62945D01*
X1243760D01*
X1243860Y-62954D01*
D02*
G37*
G36*
X1237729Y-66871D02*
X1240835D01*
Y-67618D01*
X1236891D01*
Y-61314D01*
X1237729D01*
Y-66871D01*
D02*
G37*
G36*
X1232709Y-67618D02*
X1231935D01*
Y-63045D01*
X1232709D01*
Y-67618D01*
D02*
G37*
G36*
X1228282D02*
X1227507D01*
Y-61314D01*
X1228282D01*
Y-67618D01*
D02*
G37*
G36*
X1230386Y-63045D02*
X1231170D01*
Y-63646D01*
X1230386D01*
Y-66334D01*
Y-66352D01*
Y-66388D01*
Y-66443D01*
X1230395Y-66507D01*
X1230404Y-66652D01*
X1230413Y-66716D01*
X1230422Y-66762D01*
X1230432Y-66780D01*
X1230459Y-66816D01*
X1230495Y-66862D01*
X1230559Y-66908D01*
X1230577Y-66917D01*
X1230623Y-66935D01*
X1230705Y-66953D01*
X1230823Y-66962D01*
X1230914D01*
X1230960Y-66953D01*
X1231024D01*
X1231097Y-66944D01*
X1231170Y-66935D01*
X1231270Y-67618D01*
X1231252D01*
X1231215Y-67627D01*
X1231151Y-67636D01*
X1231069Y-67645D01*
X1230978Y-67664D01*
X1230878Y-67673D01*
X1230678Y-67682D01*
X1230605D01*
X1230532Y-67673D01*
X1230441Y-67664D01*
X1230331Y-67655D01*
X1230222Y-67627D01*
X1230122Y-67600D01*
X1230022Y-67554D01*
X1230013Y-67545D01*
X1229985Y-67527D01*
X1229949Y-67500D01*
X1229894Y-67454D01*
X1229848Y-67409D01*
X1229794Y-67345D01*
X1229739Y-67281D01*
X1229703Y-67199D01*
Y-67190D01*
X1229685Y-67154D01*
X1229675Y-67090D01*
X1229657Y-66999D01*
X1229639Y-66880D01*
X1229630Y-66807D01*
Y-66725D01*
X1229621Y-66625D01*
X1229612Y-66525D01*
Y-66416D01*
Y-66288D01*
Y-63646D01*
X1229038D01*
Y-63045D01*
X1229612D01*
Y-61915D01*
X1230386Y-61451D01*
Y-63045D01*
D02*
G37*
G36*
X1253061Y-62954D02*
X1253134Y-62963D01*
X1253225Y-62981D01*
X1253325Y-62999D01*
X1253443Y-63027D01*
X1253553Y-63054D01*
X1253680Y-63099D01*
X1253799Y-63145D01*
X1253926Y-63209D01*
X1254054Y-63282D01*
X1254181Y-63364D01*
X1254300Y-63464D01*
X1254409Y-63573D01*
X1254418Y-63582D01*
X1254436Y-63601D01*
X1254464Y-63637D01*
X1254500Y-63692D01*
X1254546Y-63756D01*
X1254591Y-63828D01*
X1254646Y-63919D01*
X1254701Y-64029D01*
X1254755Y-64147D01*
X1254810Y-64275D01*
X1254856Y-64420D01*
X1254901Y-64575D01*
X1254937Y-64749D01*
X1254965Y-64931D01*
X1254983Y-65122D01*
X1254992Y-65332D01*
Y-65341D01*
Y-65377D01*
Y-65441D01*
X1254983Y-65532D01*
X1251567D01*
Y-65541D01*
Y-65568D01*
X1251576Y-65605D01*
Y-65659D01*
X1251585Y-65723D01*
X1251603Y-65796D01*
X1251630Y-65960D01*
X1251685Y-66142D01*
X1251758Y-66343D01*
X1251858Y-66525D01*
X1251986Y-66689D01*
X1251995D01*
X1252004Y-66707D01*
X1252059Y-66753D01*
X1252141Y-66816D01*
X1252250Y-66880D01*
X1252396Y-66953D01*
X1252560Y-67017D01*
X1252742Y-67062D01*
X1252842Y-67071D01*
X1252952Y-67081D01*
X1253024D01*
X1253106Y-67071D01*
X1253207Y-67053D01*
X1253316Y-67026D01*
X1253443Y-66989D01*
X1253562Y-66935D01*
X1253680Y-66862D01*
X1253689Y-66853D01*
X1253735Y-66816D01*
X1253790Y-66762D01*
X1253853Y-66689D01*
X1253926Y-66589D01*
X1254008Y-66461D01*
X1254090Y-66315D01*
X1254163Y-66142D01*
X1254965Y-66242D01*
Y-66252D01*
X1254956Y-66270D01*
X1254947Y-66306D01*
X1254928Y-66361D01*
X1254901Y-66416D01*
X1254874Y-66488D01*
X1254801Y-66643D01*
X1254710Y-66816D01*
X1254582Y-66999D01*
X1254436Y-67172D01*
X1254254Y-67336D01*
X1254245D01*
X1254227Y-67354D01*
X1254200Y-67372D01*
X1254163Y-67400D01*
X1254109Y-67427D01*
X1254054Y-67454D01*
X1253981Y-67491D01*
X1253899Y-67527D01*
X1253808Y-67563D01*
X1253717Y-67600D01*
X1253489Y-67655D01*
X1253234Y-67700D01*
X1252952Y-67718D01*
X1252851D01*
X1252787Y-67709D01*
X1252705Y-67700D01*
X1252605Y-67682D01*
X1252496Y-67664D01*
X1252378Y-67645D01*
X1252122Y-67573D01*
X1251986Y-67518D01*
X1251858Y-67463D01*
X1251722Y-67390D01*
X1251594Y-67308D01*
X1251476Y-67217D01*
X1251357Y-67108D01*
X1251348Y-67099D01*
X1251330Y-67081D01*
X1251303Y-67044D01*
X1251266Y-66989D01*
X1251221Y-66926D01*
X1251175Y-66853D01*
X1251120Y-66762D01*
X1251066Y-66662D01*
X1251011Y-66543D01*
X1250956Y-66416D01*
X1250911Y-66270D01*
X1250865Y-66115D01*
X1250829Y-65951D01*
X1250801Y-65769D01*
X1250783Y-65578D01*
X1250774Y-65377D01*
Y-65368D01*
Y-65322D01*
Y-65268D01*
X1250783Y-65186D01*
X1250792Y-65086D01*
X1250801Y-64976D01*
X1250820Y-64849D01*
X1250847Y-64721D01*
X1250920Y-64430D01*
X1250965Y-64284D01*
X1251020Y-64129D01*
X1251093Y-63983D01*
X1251175Y-63847D01*
X1251266Y-63710D01*
X1251366Y-63582D01*
X1251375Y-63573D01*
X1251394Y-63555D01*
X1251430Y-63528D01*
X1251476Y-63482D01*
X1251530Y-63437D01*
X1251603Y-63382D01*
X1251685Y-63318D01*
X1251785Y-63263D01*
X1251886Y-63200D01*
X1252004Y-63145D01*
X1252132Y-63090D01*
X1252268Y-63045D01*
X1252414Y-62999D01*
X1252569Y-62972D01*
X1252733Y-62954D01*
X1252906Y-62945D01*
X1252997D01*
X1253061Y-62954D01*
D02*
G37*
%LPC*%
G36*
X227665Y249622D02*
Y247154D01*
X230035D01*
Y249622D01*
X227665D01*
D02*
G37*
G36*
X230035Y246154D02*
X227665D01*
Y243685D01*
X230035D01*
Y246154D01*
D02*
G37*
G36*
X228067Y242142D02*
X226484D01*
Y240461D01*
X228067D01*
Y242142D01*
D02*
G37*
G36*
Y239461D02*
X226484D01*
Y237779D01*
X228067D01*
Y239461D01*
D02*
G37*
G36*
X230331Y235055D02*
X227665D01*
Y233669D01*
X230331D01*
Y235055D01*
D02*
G37*
G36*
X225091Y189753D02*
X224405Y189663D01*
X223299Y189205D01*
X222350Y188477D01*
X221622Y187528D01*
X221164Y186422D01*
X221074Y185736D01*
X225091D01*
Y189753D01*
D02*
G37*
G36*
X211768Y179592D02*
X211124Y179464D01*
X210578Y179099D01*
X210213Y178553D01*
X210085Y177910D01*
X210213Y177266D01*
X210578Y176720D01*
X210901Y176504D01*
Y175462D01*
X210137D01*
Y172397D01*
X209770Y172075D01*
X209587D01*
Y170492D01*
X211768D01*
X213949D01*
Y172075D01*
X213766D01*
X213399Y172397D01*
Y175462D01*
X212634D01*
Y176504D01*
X212957Y176720D01*
X213322Y177266D01*
X213450Y177910D01*
X213322Y178553D01*
X212957Y179099D01*
X212411Y179464D01*
X211768Y179592D01*
D02*
G37*
G36*
X204937Y164091D02*
X201681D01*
Y161721D01*
X204937D01*
Y164091D01*
D02*
G37*
G36*
X200681D02*
X197425D01*
Y161721D01*
X200681D01*
Y164091D01*
D02*
G37*
G36*
X208752Y161409D02*
X207563D01*
Y160319D01*
X208752D01*
Y161409D01*
D02*
G37*
G36*
X204937Y160721D02*
X201681D01*
Y158350D01*
X204937D01*
Y160721D01*
D02*
G37*
G36*
X200681D02*
X197425D01*
Y158350D01*
X200681D01*
Y160721D01*
D02*
G37*
G36*
X206587Y157004D02*
X204118D01*
Y154634D01*
X206587D01*
Y157004D01*
D02*
G37*
G36*
X226472Y45323D02*
X225222D01*
Y42559D01*
X226472D01*
Y45323D01*
D02*
G37*
G36*
X223835Y42217D02*
X222153D01*
Y40634D01*
X223835D01*
Y42217D01*
D02*
G37*
G36*
X226472Y41559D02*
X225222D01*
Y38795D01*
X226472D01*
Y41559D01*
D02*
G37*
G36*
X215642Y41036D02*
X213173D01*
Y38665D01*
X215642D01*
Y41036D01*
D02*
G37*
G36*
X1351103Y-59169D02*
X1351030D01*
X1350972Y-59184D01*
X1350826Y-59213D01*
X1350637Y-59256D01*
X1350418Y-59344D01*
X1350185Y-59475D01*
X1350053Y-59563D01*
X1349937Y-59665D01*
X1349820Y-59781D01*
X1349703Y-59913D01*
Y-59927D01*
X1349674Y-59942D01*
X1349645Y-59986D01*
X1349616Y-60044D01*
X1349572Y-60131D01*
X1349514Y-60219D01*
X1349456Y-60335D01*
X1349412Y-60452D01*
X1349354Y-60598D01*
X1349295Y-60758D01*
X1349251Y-60933D01*
X1349193Y-61123D01*
X1349164Y-61341D01*
X1349135Y-61560D01*
X1349106Y-61793D01*
Y-62056D01*
Y-62070D01*
Y-62114D01*
Y-62187D01*
X1349120Y-62289D01*
Y-62406D01*
X1349135Y-62537D01*
X1349179Y-62843D01*
X1349251Y-63193D01*
X1349339Y-63528D01*
X1349485Y-63864D01*
X1349572Y-64009D01*
X1349674Y-64141D01*
X1349703Y-64170D01*
X1349776Y-64243D01*
X1349893Y-64359D01*
X1350053Y-64476D01*
X1350257Y-64593D01*
X1350491Y-64709D01*
X1350753Y-64782D01*
X1350899Y-64797D01*
X1351045Y-64811D01*
X1351132D01*
X1351191Y-64797D01*
X1351336Y-64768D01*
X1351540Y-64724D01*
X1351759Y-64636D01*
X1351993Y-64520D01*
X1352226Y-64345D01*
X1352342Y-64243D01*
X1352459Y-64126D01*
Y-64112D01*
X1352488Y-64097D01*
X1352517Y-64053D01*
X1352547Y-63995D01*
X1352605Y-63922D01*
X1352649Y-63820D01*
X1352707Y-63718D01*
X1352765Y-63587D01*
X1352809Y-63455D01*
X1352867Y-63280D01*
X1352926Y-63106D01*
X1352969Y-62916D01*
X1352999Y-62697D01*
X1353028Y-62464D01*
X1353057Y-62216D01*
Y-61954D01*
Y-61939D01*
Y-61895D01*
Y-61822D01*
X1353042Y-61721D01*
Y-61604D01*
X1353028Y-61473D01*
X1352984Y-61166D01*
X1352911Y-60831D01*
X1352809Y-60496D01*
X1352663Y-60160D01*
X1352576Y-60000D01*
X1352474Y-59869D01*
Y-59854D01*
X1352444Y-59840D01*
X1352372Y-59752D01*
X1352255Y-59650D01*
X1352095Y-59519D01*
X1351890Y-59388D01*
X1351657Y-59271D01*
X1351395Y-59198D01*
X1351249Y-59184D01*
X1351103Y-59169D01*
D02*
G37*
G36*
X1372273Y-61997D02*
X1372259D01*
X1372244Y-62012D01*
X1372200Y-62027D01*
X1372142Y-62041D01*
X1372069Y-62070D01*
X1371982Y-62099D01*
X1371880Y-62129D01*
X1371763Y-62158D01*
X1371632Y-62202D01*
X1371471Y-62231D01*
X1371311Y-62274D01*
X1371122Y-62318D01*
X1370917Y-62362D01*
X1370713Y-62406D01*
X1370480Y-62435D01*
X1370232Y-62479D01*
X1370203D01*
X1370115Y-62493D01*
X1369970Y-62522D01*
X1369809Y-62551D01*
X1369634Y-62581D01*
X1369459Y-62624D01*
X1369299Y-62668D01*
X1369153Y-62726D01*
X1369139D01*
X1369095Y-62756D01*
X1369036Y-62785D01*
X1368978Y-62828D01*
X1368803Y-62945D01*
X1368657Y-63120D01*
Y-63135D01*
X1368628Y-63164D01*
X1368614Y-63222D01*
X1368585Y-63295D01*
X1368555Y-63383D01*
X1368526Y-63470D01*
X1368512Y-63587D01*
X1368497Y-63703D01*
Y-63718D01*
Y-63791D01*
X1368512Y-63878D01*
X1368541Y-63995D01*
X1368585Y-64126D01*
X1368657Y-64257D01*
X1368745Y-64403D01*
X1368862Y-64534D01*
X1368876Y-64549D01*
X1368935Y-64578D01*
X1369022Y-64636D01*
X1369139Y-64695D01*
X1369299Y-64753D01*
X1369489Y-64811D01*
X1369707Y-64841D01*
X1369970Y-64855D01*
X1370086D01*
X1370232Y-64841D01*
X1370393Y-64811D01*
X1370597Y-64782D01*
X1370801Y-64724D01*
X1371019Y-64651D01*
X1371238Y-64549D01*
X1371267Y-64534D01*
X1371326Y-64491D01*
X1371428Y-64418D01*
X1371544Y-64316D01*
X1371675Y-64199D01*
X1371821Y-64053D01*
X1371938Y-63878D01*
X1372055Y-63689D01*
X1372069Y-63674D01*
X1372084Y-63616D01*
X1372113Y-63514D01*
X1372157Y-63383D01*
X1372200Y-63208D01*
X1372230Y-63003D01*
X1372244Y-62756D01*
X1372259Y-62464D01*
X1372273Y-61997D01*
D02*
G37*
G36*
X1385497Y-59213D02*
X1385410D01*
X1385351Y-59227D01*
X1385191Y-59242D01*
X1385002Y-59286D01*
X1384768Y-59359D01*
X1384521Y-59461D01*
X1384287Y-59606D01*
X1384054Y-59796D01*
X1384025Y-59825D01*
X1383967Y-59898D01*
X1383864Y-60029D01*
X1383762Y-60204D01*
X1383646Y-60408D01*
X1383544Y-60671D01*
X1383456Y-60977D01*
X1383412Y-61312D01*
X1387509D01*
Y-61298D01*
Y-61269D01*
X1387495Y-61225D01*
Y-61166D01*
X1387466Y-60992D01*
X1387422Y-60802D01*
X1387349Y-60569D01*
X1387276Y-60350D01*
X1387160Y-60131D01*
X1387028Y-59942D01*
Y-59927D01*
X1386999Y-59913D01*
X1386926Y-59825D01*
X1386795Y-59708D01*
X1386620Y-59577D01*
X1386401Y-59446D01*
X1386139Y-59329D01*
X1385833Y-59242D01*
X1385672Y-59227D01*
X1385497Y-59213D01*
D02*
G37*
G36*
X1343099D02*
X1343011D01*
X1342938Y-59227D01*
X1342778Y-59242D01*
X1342559Y-59300D01*
X1342311Y-59388D01*
X1342049Y-59504D01*
X1341801Y-59679D01*
X1341670Y-59796D01*
X1341553Y-59913D01*
Y-59927D01*
X1341524Y-59942D01*
X1341495Y-59986D01*
X1341451Y-60044D01*
X1341407Y-60117D01*
X1341364Y-60204D01*
X1341305Y-60321D01*
X1341247Y-60437D01*
X1341189Y-60583D01*
X1341130Y-60729D01*
X1341087Y-60904D01*
X1341043Y-61093D01*
X1340999Y-61298D01*
X1340970Y-61516D01*
X1340956Y-61764D01*
X1340941Y-62012D01*
Y-62027D01*
Y-62070D01*
Y-62143D01*
X1340956Y-62245D01*
Y-62362D01*
X1340970Y-62493D01*
X1341014Y-62799D01*
X1341087Y-63149D01*
X1341203Y-63499D01*
X1341349Y-63835D01*
X1341451Y-63980D01*
X1341553Y-64126D01*
X1341568D01*
X1341582Y-64155D01*
X1341670Y-64228D01*
X1341801Y-64345D01*
X1341976Y-64461D01*
X1342195Y-64593D01*
X1342457Y-64709D01*
X1342763Y-64782D01*
X1342924Y-64797D01*
X1343099Y-64811D01*
X1343186D01*
X1343259Y-64797D01*
X1343419Y-64768D01*
X1343638Y-64724D01*
X1343871Y-64636D01*
X1344134Y-64520D01*
X1344382Y-64345D01*
X1344513Y-64228D01*
X1344630Y-64112D01*
X1344644Y-64097D01*
X1344659Y-64082D01*
X1344688Y-64039D01*
X1344732Y-63980D01*
X1344775Y-63907D01*
X1344834Y-63820D01*
X1344892Y-63703D01*
X1344950Y-63587D01*
X1345009Y-63441D01*
X1345052Y-63280D01*
X1345111Y-63106D01*
X1345154Y-62916D01*
X1345198Y-62697D01*
X1345227Y-62479D01*
X1345257Y-62231D01*
Y-61968D01*
Y-61954D01*
Y-61910D01*
Y-61837D01*
X1345242Y-61750D01*
Y-61633D01*
X1345227Y-61502D01*
X1345184Y-61196D01*
X1345111Y-60875D01*
X1344994Y-60525D01*
X1344834Y-60204D01*
X1344746Y-60044D01*
X1344630Y-59913D01*
Y-59898D01*
X1344600Y-59883D01*
X1344513Y-59796D01*
X1344382Y-59694D01*
X1344207Y-59563D01*
X1343988Y-59431D01*
X1343726Y-59315D01*
X1343434Y-59242D01*
X1343274Y-59227D01*
X1343099Y-59213D01*
D02*
G37*
G36*
X1244652Y-65322D02*
X1244643D01*
X1244634Y-65332D01*
X1244607Y-65341D01*
X1244570Y-65350D01*
X1244525Y-65368D01*
X1244470Y-65386D01*
X1244406Y-65404D01*
X1244333Y-65423D01*
X1244251Y-65450D01*
X1244151Y-65468D01*
X1244051Y-65496D01*
X1243933Y-65523D01*
X1243805Y-65550D01*
X1243678Y-65578D01*
X1243532Y-65596D01*
X1243377Y-65623D01*
X1243359D01*
X1243304Y-65632D01*
X1243213Y-65650D01*
X1243113Y-65669D01*
X1243003Y-65687D01*
X1242894Y-65714D01*
X1242794Y-65741D01*
X1242703Y-65778D01*
X1242694D01*
X1242666Y-65796D01*
X1242630Y-65814D01*
X1242593Y-65842D01*
X1242484Y-65914D01*
X1242393Y-66024D01*
Y-66033D01*
X1242375Y-66051D01*
X1242366Y-66088D01*
X1242348Y-66133D01*
X1242329Y-66188D01*
X1242311Y-66242D01*
X1242302Y-66315D01*
X1242293Y-66388D01*
Y-66397D01*
Y-66443D01*
X1242302Y-66498D01*
X1242320Y-66571D01*
X1242348Y-66652D01*
X1242393Y-66734D01*
X1242448Y-66825D01*
X1242521Y-66908D01*
X1242530Y-66917D01*
X1242566Y-66935D01*
X1242621Y-66971D01*
X1242694Y-67008D01*
X1242794Y-67044D01*
X1242912Y-67081D01*
X1243049Y-67099D01*
X1243213Y-67108D01*
X1243286D01*
X1243377Y-67099D01*
X1243477Y-67081D01*
X1243605Y-67062D01*
X1243732Y-67026D01*
X1243869Y-66980D01*
X1244005Y-66917D01*
X1244024Y-66908D01*
X1244060Y-66880D01*
X1244124Y-66835D01*
X1244197Y-66771D01*
X1244279Y-66698D01*
X1244370Y-66607D01*
X1244443Y-66498D01*
X1244516Y-66379D01*
X1244525Y-66370D01*
X1244534Y-66334D01*
X1244552Y-66270D01*
X1244579Y-66188D01*
X1244607Y-66079D01*
X1244625Y-65951D01*
X1244634Y-65796D01*
X1244643Y-65614D01*
X1244652Y-65322D01*
D02*
G37*
G36*
X1252915Y-63582D02*
X1252860D01*
X1252824Y-63591D01*
X1252724Y-63601D01*
X1252605Y-63628D01*
X1252460Y-63674D01*
X1252305Y-63737D01*
X1252159Y-63828D01*
X1252013Y-63947D01*
X1251995Y-63965D01*
X1251958Y-64011D01*
X1251895Y-64092D01*
X1251831Y-64202D01*
X1251758Y-64329D01*
X1251694Y-64493D01*
X1251640Y-64685D01*
X1251612Y-64894D01*
X1254172D01*
Y-64885D01*
Y-64867D01*
X1254163Y-64840D01*
Y-64803D01*
X1254145Y-64694D01*
X1254118Y-64575D01*
X1254072Y-64430D01*
X1254027Y-64293D01*
X1253954Y-64156D01*
X1253872Y-64038D01*
Y-64029D01*
X1253853Y-64020D01*
X1253808Y-63965D01*
X1253726Y-63892D01*
X1253617Y-63810D01*
X1253480Y-63728D01*
X1253316Y-63655D01*
X1253125Y-63601D01*
X1253024Y-63591D01*
X1252915Y-63582D01*
D02*
G37*
%LPD*%
D12*
X142323Y220866D02*
X146260D01*
X54724Y275394D02*
X54921Y275197D01*
X43012Y271598D02*
Y275394D01*
X49803Y216142D02*
X50000Y215945D01*
X31327Y271626D02*
X31496Y271457D01*
X25492Y188286D02*
X26180Y187598D01*
X10236Y50984D02*
X11417Y49803D01*
X39763Y226944D02*
X39764D01*
X39566Y226771D02*
X39763Y226968D01*
X37992Y225197D02*
X39566Y226771D01*
X29724Y187795D02*
X30020Y188091D01*
X29528Y187598D02*
X29724Y187795D01*
X-3150Y264370D02*
X-1181Y266339D01*
X394D01*
X20374Y191831D02*
X22244Y193701D01*
X18012Y191831D02*
X20374D01*
X120997Y154003D02*
X121653D01*
X119291Y155709D02*
X120997Y154003D01*
X114075Y154232D02*
X117815D01*
X119291Y155709D01*
X-60630Y150984D02*
Y153740D01*
X-62008Y155118D02*
X-60630Y153740D01*
X-63878Y155118D02*
X-62008D01*
X-60630Y103740D02*
Y106496D01*
X-62008Y107874D02*
X-60630Y106496D01*
X-63878Y107874D02*
X-62008D01*
X-60630Y56496D02*
Y59252D01*
X-62008Y60630D02*
X-60630Y59252D01*
X-63878Y60630D02*
X-62008D01*
X-60630Y9252D02*
Y12008D01*
X-62008Y13386D02*
X-60630Y12008D01*
X-63878Y13386D02*
X-62008D01*
X123622Y154134D02*
Y155709D01*
X21949Y143996D02*
X22441Y143504D01*
X21949Y143996D02*
Y146653D01*
X22047D02*
X22047Y146653D01*
X25394D01*
X74016Y217126D02*
X78739D01*
X78740Y217125D01*
X26181Y192913D02*
Y195669D01*
X25492Y192224D02*
X26181Y192913D01*
X29528Y187598D02*
X29921D01*
X29528Y187598D02*
X29528Y187598D01*
X-5512Y240748D02*
Y245079D01*
X49508Y232382D02*
X50000Y232874D01*
X47244Y232382D02*
X49508D01*
X42323Y231693D02*
X43012Y232382D01*
X47244D01*
X62992Y226181D02*
Y230906D01*
Y226181D02*
X66535D01*
X74016Y199803D02*
Y204134D01*
Y208465D01*
Y212795D02*
Y217126D01*
Y196653D02*
Y199803D01*
X33071Y158465D02*
X39370Y164764D01*
X31496Y158465D02*
X33071D01*
X25492Y190354D02*
Y192224D01*
Y188286D02*
Y190354D01*
X25984Y187598D02*
X26180D01*
X30020Y188091D02*
Y190354D01*
X30118Y190453D01*
Y195669D01*
X39370Y187598D02*
X39862Y188091D01*
Y190354D01*
X39961Y190453D01*
Y195669D01*
X44685Y216142D02*
X49803D01*
X52658Y200492D02*
X53150Y200984D01*
X50000Y200492D02*
X52658D01*
X49902Y200394D02*
X50000Y200492D01*
X44685Y200394D02*
X49902D01*
X52658Y208366D02*
X53150Y208858D01*
X50000Y208366D02*
X52658D01*
X123622Y155709D02*
X125591Y157677D01*
X-40945Y150197D02*
X-37795D01*
X-33858Y137205D02*
Y140748D01*
X226972Y61421D02*
Y66272D01*
X239768Y61224D02*
Y66272D01*
X172835Y213976D02*
X175984D01*
X182283Y217913D02*
X185433D01*
X137402Y176181D02*
X140945D01*
X119291Y163976D02*
Y168307D01*
X125591Y157677D02*
X126476Y156791D01*
X130807D01*
X137303D02*
X137402Y156890D01*
X130807Y156791D02*
X137303D01*
X182087Y218110D02*
X182283Y217913D01*
X150787Y237598D02*
X153937D01*
X222831Y145980D02*
Y150748D01*
Y145980D02*
X222850Y145961D01*
X-19783Y127953D02*
X-16339D01*
X-14567Y126181D01*
X-85433Y118307D02*
Y122244D01*
X-75590Y130118D02*
X-74016Y131693D01*
X-63386D02*
X-60236Y128543D01*
Y125000D02*
Y128543D01*
X5512Y152953D02*
X9449D01*
X6693Y148228D02*
X9449D01*
X5512Y149409D02*
X6693Y148228D01*
X5512Y149409D02*
Y152953D01*
X57087Y105709D02*
X57237D01*
X-75590Y126575D02*
Y130118D01*
Y31693D02*
Y32087D01*
Y173819D02*
Y177362D01*
X-60236Y172244D02*
Y175787D01*
X-63386Y178937D02*
X-60236Y175787D01*
X-75590Y177362D02*
X-74016Y178937D01*
X-85433Y165551D02*
Y169488D01*
X-75590Y32087D02*
Y35630D01*
X-60236Y30512D02*
Y34055D01*
X-63386Y37205D02*
X-60236Y34055D01*
X-75590Y35630D02*
X-74016Y37205D01*
X-85433Y23819D02*
Y27756D01*
X-75590Y79331D02*
Y82874D01*
X-60236Y77756D02*
Y81299D01*
X-63386Y84449D02*
X-60236Y81299D01*
X-75590Y82874D02*
X-74016Y84449D01*
X-85433Y71063D02*
Y75000D01*
X54921Y271598D02*
Y275197D01*
Y271598D02*
X56441D01*
X43110Y271598D02*
X43165D01*
X3091Y273366D02*
X3150Y273425D01*
X164429Y169882D02*
X167717D01*
X217555Y165866D02*
Y168862D01*
X216535Y169882D02*
X217555Y168862D01*
X211811Y169882D02*
X216535D01*
X221417Y139961D02*
Y142480D01*
X222850Y143913D01*
Y145961D01*
X209535Y169992D02*
X211768D01*
X208268Y171260D02*
X209535Y169992D01*
X216535Y195079D02*
X216732Y195276D01*
X223819Y192520D02*
Y195276D01*
Y192520D02*
X225590Y190748D01*
Y185236D02*
Y190748D01*
X216535Y205315D02*
Y205315D01*
X225984Y239961D02*
X225985Y239960D01*
X226771D01*
X16142Y27756D02*
Y31327D01*
X17717Y46949D02*
X20374D01*
X25961Y50614D02*
Y54102D01*
X11417Y46949D02*
Y49803D01*
X10236Y50984D02*
X10630D01*
X95866Y168110D02*
Y171457D01*
X94882Y167126D02*
X95866Y168110D01*
X82874D02*
Y171457D01*
X81890Y167126D02*
X82874Y168110D01*
X39370Y171063D02*
X39764D01*
X44685Y208268D02*
X49902D01*
X50000Y208366D01*
X29232Y166634D02*
X33169D01*
X35039Y164764D01*
X39370D01*
X31201Y271697D02*
X31299Y271598D01*
X31201Y271697D02*
Y275394D01*
X28882Y271598D02*
X31299D01*
X24016Y270276D02*
X27559D01*
X28882Y271598D01*
X19291Y270276D02*
X19291Y270276D01*
X14567Y270276D02*
X19291D01*
X24016Y270276D02*
X24016Y270276D01*
X19291Y270276D02*
X24016D01*
X40693Y271598D02*
X43012D01*
X43110D01*
X50000Y216043D02*
X52658D01*
X53150Y215551D01*
X22244Y193701D02*
Y195669D01*
X18012Y190354D02*
Y191831D01*
Y188091D02*
Y190354D01*
Y188091D02*
X18504Y187598D01*
X-25984Y112795D02*
X-25886Y112697D01*
X272835Y-2165D02*
X275984D01*
X36024Y222835D02*
Y226771D01*
X36220Y226968D01*
X37992Y222835D02*
Y225197D01*
X39763Y226574D02*
X39764Y226575D01*
Y226944D01*
X39763Y226574D02*
Y226944D01*
Y226968D01*
X125591Y157677D02*
Y168307D01*
X-74016Y131693D02*
X-63386D01*
X216535Y199016D02*
Y205315D01*
X182087Y218110D02*
Y227008D01*
X-74016Y178937D02*
X-63386D01*
X-74016Y84449D02*
X-63386D01*
X-74016Y37205D02*
X-63386D01*
X216732Y195276D02*
X223819D01*
X56441Y271598D02*
X57480Y272638D01*
X209449Y197441D02*
Y201378D01*
X209449Y188778D02*
Y193109D01*
Y188778D02*
X212597D01*
X209449Y197441D02*
X212598D01*
X208268Y171260D02*
Y178150D01*
X215354Y185236D01*
X225197D01*
X-1575Y236024D02*
X1969D01*
X-16282Y229838D02*
X-9336D01*
X-5512Y233661D01*
Y236024D01*
X-25886Y107776D02*
Y112697D01*
X120472Y228171D02*
X135559D01*
X225197Y185236D02*
X225394Y185039D01*
D14*
X150787Y83661D02*
X150787D01*
X149213Y82087D02*
X150787Y83661D01*
D16*
X279724Y146850D02*
X280906D01*
X277953Y138976D02*
X280906D01*
X279921Y131102D02*
X280906D01*
X279921Y119291D02*
X280906D01*
X157677Y237402D02*
X161811D01*
X220862Y169173D02*
Y173028D01*
X212205Y163976D02*
X213779D01*
X209268Y164043D02*
Y166520D01*
X177146Y169764D02*
X184370D01*
X277953Y115354D02*
X280906D01*
X280709Y81890D02*
X280807Y81988D01*
X236614Y79724D02*
X241339D01*
X22835Y187598D02*
X23327Y188091D01*
X12992Y46949D02*
Y51378D01*
X-75563Y102980D02*
Y105905D01*
Y8492D02*
Y11417D01*
X146063Y107283D02*
X147638Y105709D01*
X139764Y110433D02*
X141339Y108858D01*
X166535Y86811D02*
X168110Y85236D01*
X179134Y105709D02*
X180709Y107283D01*
X179134Y108858D02*
X180709Y110433D01*
X169685Y67913D02*
X171260Y66339D01*
X169685Y64764D02*
X171260Y63189D01*
X172835Y58464D02*
X174409Y56890D01*
X172835Y61614D02*
X174409Y60039D01*
X166535Y64764D02*
X168110Y63189D01*
X166535Y67913D02*
X168110Y66339D01*
X188583Y74213D02*
X190157Y72638D01*
X188583Y77362D02*
X190157Y75787D01*
X194882Y77362D02*
X196457Y75787D01*
X191732Y77362D02*
X193307Y75787D01*
X191732Y83661D02*
X193307Y82087D01*
X188583Y83661D02*
X190157Y82087D01*
X185433Y83661D02*
X187008Y82087D01*
X182283Y83661D02*
X183858Y82087D01*
X179134Y86811D02*
X180709Y85236D01*
X175984Y86811D02*
X177559Y85236D01*
X175984Y102559D02*
X177559Y104134D01*
X179134Y102559D02*
X180709Y104134D01*
X166535Y83661D02*
X168110Y82087D01*
X161811Y82087D02*
X163386Y83661D01*
X146063Y75787D02*
X147638Y77362D01*
X146063Y72638D02*
X147638Y74213D01*
X146063Y69488D02*
X147638Y71063D01*
X142913Y69488D02*
X144488Y71063D01*
X139764Y72638D02*
X141339Y74213D01*
X139764Y69488D02*
X141339Y71063D01*
X139764Y66339D02*
X141339Y67913D01*
X142913Y66339D02*
X144488Y67913D01*
X139764Y60039D02*
X141339Y61614D01*
X139764Y56890D02*
X141339Y58464D01*
X146063Y63189D02*
X147638Y64764D01*
X142913Y63189D02*
X144488Y64764D01*
X146063Y56890D02*
X147638Y58464D01*
X149213Y56890D02*
X150787Y58464D01*
X22047Y129724D02*
X31102Y138779D01*
Y144095D02*
X33661Y146653D01*
X31102Y138779D02*
Y144095D01*
X25394Y149803D02*
X29528D01*
X31102Y151378D02*
X33661D01*
X18504Y158465D02*
X21654D01*
X198031Y102559D02*
X201181D01*
X198031Y99409D02*
X201181D01*
X191732Y108858D02*
X193307Y110433D01*
X188583Y108858D02*
X190157Y110433D01*
X191732Y112008D02*
X193307Y113583D01*
X191732Y115157D02*
X193307Y116732D01*
X185433Y105709D02*
X187008Y107283D01*
X185433Y108858D02*
X187008Y110433D01*
X175984Y83661D02*
X177559Y82087D01*
X175984Y80512D02*
X177559Y78937D01*
X185433Y96260D02*
X187008Y97835D01*
X185433Y93110D02*
X187008Y94685D01*
X191732Y93110D02*
X193307Y94685D01*
X188583Y93110D02*
X190157Y94685D01*
X198031Y96260D02*
X201181D01*
X198031Y96260D02*
X198031Y96260D01*
X194882Y96260D02*
X196457Y97835D01*
X182283Y86811D02*
X183858Y85236D01*
X182283Y89961D02*
X183858Y91535D01*
X194882Y105709D02*
X196457Y107283D01*
X198031Y105709D02*
X201181D01*
X198031Y115157D02*
X198031Y115157D01*
X191732Y96260D02*
X193307Y97835D01*
X194882Y93110D02*
X196457Y94685D01*
X185433Y77362D02*
X187008Y75787D01*
X185433Y74213D02*
X187008Y72638D01*
X3150Y239567D02*
X6299D01*
X37205Y240354D02*
Y243701D01*
X185433Y80512D02*
X187008Y78937D01*
X182283Y80512D02*
X183858Y78937D01*
X194882Y80512D02*
X196457Y78937D01*
X191732Y80512D02*
X193307Y78937D01*
X228740Y117913D02*
Y121457D01*
X191732Y86811D02*
X193307Y85236D01*
X188583Y86811D02*
X190157Y85236D01*
X185433Y121457D02*
X187008Y123031D01*
X188583Y121457D02*
X190157Y123031D01*
X100984Y162795D02*
Y166142D01*
X179134Y121457D02*
X180709Y123031D01*
X182283Y121457D02*
X183858Y123031D01*
X175984Y93110D02*
X177559Y94685D01*
X175984Y96260D02*
X177559Y97835D01*
X45177Y275394D02*
X47638D01*
X5118Y270276D02*
Y271850D01*
X6299Y273031D01*
X8661D01*
X9843Y271850D01*
Y270276D02*
Y271850D01*
X19291Y143504D02*
X19783Y143996D01*
Y146653D01*
X1575Y43898D02*
X5217D01*
X9843Y27756D02*
X11417Y29331D01*
Y31327D01*
X9843Y25787D02*
Y27756D01*
X11024Y239567D02*
X13780D01*
X13878Y239469D01*
X17618D01*
X28740Y232874D02*
Y232874D01*
X25394Y232874D02*
X28740D01*
X24902Y233366D02*
X25394Y232874D01*
X185433Y99409D02*
X187008Y100984D01*
X182283Y99409D02*
X183858Y100984D01*
X179134Y93110D02*
X180709Y94685D01*
X179134Y89961D02*
X180709Y91535D01*
X188583Y99409D02*
X190157Y100984D01*
X191732Y99409D02*
X193307Y100984D01*
X182283Y105709D02*
X183858Y107283D01*
X182283Y102559D02*
X183858Y104134D01*
X22835Y187598D02*
X23228D01*
X22835Y187598D02*
X22835Y187598D01*
X49508Y230217D02*
X50000Y229724D01*
X47244Y230217D02*
X49508D01*
X62992Y235630D02*
X66535D01*
X74016Y221457D02*
X77559D01*
X32185Y190354D02*
Y190748D01*
Y188091D02*
Y190354D01*
X23327Y188091D02*
Y190354D01*
X32185Y188091D02*
X32677Y187598D01*
X42028Y188091D02*
X42520Y187598D01*
X42028Y188091D02*
Y190354D01*
X52658Y198327D02*
X53150Y197835D01*
X50000Y198327D02*
X52658D01*
Y206201D02*
X53150Y205709D01*
X50000Y206201D02*
X52658D01*
X176378Y202264D02*
Y210039D01*
X144882Y202264D02*
Y210039D01*
X152756Y202264D02*
Y210039D01*
X160630Y202264D02*
Y210039D01*
X168504Y202264D02*
Y210039D01*
X192126Y202264D02*
Y210039D01*
X184252Y202264D02*
Y210039D01*
X280807Y81988D02*
Y85827D01*
Y158661D02*
X280906D01*
X278543D02*
X280807D01*
X277756Y157874D02*
X278543Y158661D01*
X277756Y154724D02*
Y157874D01*
Y154724D02*
X280709D01*
X277756Y150787D02*
X280709D01*
X277756Y144882D02*
X279724Y146850D01*
X279724Y142913D02*
X280709D01*
X277756Y144882D02*
X279724Y142913D01*
X280807Y135039D02*
X280906D01*
X279921D02*
X280807D01*
X277953Y133071D02*
X279921Y135039D01*
X277953Y133071D02*
X279921Y131102D01*
Y123228D02*
X280709D01*
X277953Y121260D02*
X279921Y123228D01*
X277953Y127165D02*
X280709D01*
X277953Y121260D02*
X279921Y119291D01*
Y111417D02*
X280807D01*
X277953Y109449D02*
X279921Y111417D01*
X271063Y166535D02*
X272047Y167520D01*
X265551Y166535D02*
X271063D01*
X272047Y167520D02*
Y169882D01*
X-40945Y145473D02*
X-37795D01*
X172835Y67913D02*
X174409Y66339D01*
X175984Y67913D02*
X177559Y66339D01*
X152362Y63189D02*
X153937Y64764D01*
X152362Y66339D02*
X153937Y67913D01*
X194882Y74213D02*
X196457Y72638D01*
X194882Y71063D02*
X196457Y69488D01*
X246063Y79724D02*
X250787D01*
X227165D02*
X231890D01*
X250004Y61224D02*
Y66272D01*
Y42059D02*
Y46256D01*
X278346Y85827D02*
X280807D01*
Y162598D02*
Y165256D01*
X216929Y225492D02*
X221161D01*
X190748Y227008D02*
Y231496D01*
X203642Y231142D02*
X208110D01*
X203642Y241339D02*
X208071D01*
X182283Y213976D02*
X185433D01*
X157677Y237402D02*
X157873Y237598D01*
X157874Y232874D02*
X162697D01*
X198031Y108858D02*
X201181D01*
X166535Y118307D02*
X168110Y119882D01*
X166535Y121457D02*
X168110Y123031D01*
X155512D02*
X157087Y121457D01*
X146063Y123031D02*
X147638Y121457D01*
X161811Y113583D02*
X163386Y112008D01*
X161811Y100984D02*
X163386Y99410D01*
Y99409D02*
Y99410D01*
X161811Y104134D02*
Y104134D01*
Y104134D02*
X163386Y102559D01*
X150787Y89961D02*
X150787D01*
X161811Y97835D02*
X163386Y96260D01*
Y96260D02*
Y96260D01*
X158661Y82087D02*
X160236Y83661D01*
X158661Y91535D02*
X160236Y89961D01*
X161811Y94685D02*
X163386Y93110D01*
X169685Y86811D02*
X171260Y85236D01*
X166535Y93110D02*
X168110Y94685D01*
X169685Y89961D02*
X171260Y91535D01*
X158661Y94685D02*
X160236Y93110D01*
X169685Y83661D02*
X171260Y82087D01*
X169685Y93110D02*
X171260Y94685D01*
X161811Y78937D02*
X163386Y80512D01*
X166535D02*
X168110Y78937D01*
X155512Y91535D02*
X157087Y89961D01*
X172835Y86811D02*
X174409Y85236D01*
X172835Y89961D02*
X174409Y91535D01*
X166535Y96260D02*
X168110Y97835D01*
X158661Y78937D02*
X160236Y80512D01*
X169685D02*
X171260Y78937D01*
X155512Y82087D02*
X157087Y83661D01*
X155512Y94685D02*
X157087Y93110D01*
X158661Y97835D02*
X160236Y96260D01*
X172835Y83661D02*
X174409Y82087D01*
X172835Y93110D02*
X174409Y94685D01*
X169685Y96260D02*
X171260Y97835D01*
X155512Y78937D02*
X157087Y80512D01*
X161811Y75787D02*
X163386Y77362D01*
X166535D02*
X168110Y75787D01*
X172835Y80512D02*
X174409Y78937D01*
X155512Y97835D02*
X157087Y96260D01*
X175984Y89961D02*
X177559Y91535D01*
X172835Y96260D02*
X174409Y97835D01*
X166535Y99409D02*
X168110Y100984D01*
X158661Y75787D02*
X160236Y77362D01*
X152362Y94685D02*
X153937Y93110D01*
X169685Y77362D02*
X171260Y75787D01*
X158661Y100984D02*
X160236Y99409D01*
X169685D02*
X171260Y100984D01*
X155512Y75787D02*
X157087Y77362D01*
X172835D02*
X174409Y75787D01*
X152362Y97835D02*
X153937Y96260D01*
X155512Y100984D02*
X157087Y99409D01*
X172835D02*
X174409Y100984D01*
X161811Y72638D02*
X163386Y74213D01*
X166535D02*
X168110Y72638D01*
X149213Y85236D02*
X150787Y86811D01*
X166535Y102559D02*
X168110Y104134D01*
X158661Y72638D02*
X160236Y74213D01*
X169685D02*
X171260Y72638D01*
X149213Y94685D02*
X150787Y93110D01*
X158661Y104134D02*
X160236Y102559D01*
X179134Y83661D02*
X180709Y82087D01*
X169685Y102559D02*
X171260Y104134D01*
X152362Y75787D02*
X153937Y77362D01*
X175984D02*
X177559Y75787D01*
X152362Y100984D02*
X153937Y99409D01*
X175984D02*
X177559Y100984D01*
X155512Y72638D02*
X157087Y74213D01*
X172835D02*
X174409Y72638D01*
X155512Y104134D02*
X157087Y102559D01*
X172835D02*
X174409Y104134D01*
X146063Y85236D02*
X147638Y86811D01*
X146063Y91535D02*
X147638Y89961D01*
X161811Y107283D02*
X163386Y105709D01*
X166535D02*
X168110Y107283D01*
X152362Y72638D02*
X153937Y74213D01*
X149213Y75787D02*
X150787Y77362D01*
X146063Y82087D02*
X147638Y83661D01*
X146063Y94685D02*
X147638Y93110D01*
X169685Y71063D02*
X171260Y69488D01*
X175984Y74213D02*
X177559Y72638D01*
X182283Y93110D02*
X183858Y94685D01*
X179134Y99409D02*
X180709Y100984D01*
X152362Y104134D02*
X153937Y102559D01*
X158661Y107283D02*
X160236Y105709D01*
X169685D02*
X171260Y107283D01*
X146063Y78937D02*
X147638Y80512D01*
X172835Y71063D02*
X174409Y69488D01*
X155512Y107283D02*
X157087Y105709D01*
X172835D02*
X174409Y107283D01*
X149213Y72638D02*
X150787Y74213D01*
X149213Y104134D02*
X150787Y102559D01*
X142913Y85236D02*
X144488Y86811D01*
X142913Y91535D02*
X144488Y89961D01*
X161811Y66339D02*
X163386Y67913D01*
X152362Y69488D02*
X153937Y71063D01*
X182283Y77362D02*
X183858Y75787D01*
X152362Y107283D02*
X153937Y105709D01*
X161811Y110433D02*
X163386Y108858D01*
X166535D02*
X168110Y110433D01*
X185433Y86811D02*
X187008Y85236D01*
X175984Y105709D02*
X177559Y107283D01*
X142913Y94685D02*
X144488Y93110D01*
X158661Y110433D02*
X160236Y108858D01*
X169685D02*
X171260Y110433D01*
X142913Y78937D02*
X144488Y80512D01*
X142913Y97835D02*
X144488Y96260D01*
X155512Y110433D02*
X157087Y108858D01*
X172835D02*
X174409Y110433D01*
X149213Y69488D02*
X150787Y71063D01*
X146063Y104134D02*
X147638Y102559D01*
X149213Y107283D02*
X150787Y105709D01*
X142913Y75787D02*
X144488Y77362D01*
X142913Y100984D02*
X144488Y99409D01*
X152362Y110433D02*
X153937Y108858D01*
X139764Y85236D02*
X141339Y86811D01*
X139764Y91535D02*
X141339Y89961D01*
X166535Y112008D02*
X168110Y113583D01*
X139764Y94685D02*
X141339Y93110D01*
X158661Y113583D02*
X160236Y112008D01*
X169685D02*
X171260Y113583D01*
X142913Y72638D02*
X144488Y74213D01*
X155512Y63189D02*
X157087Y64764D01*
X172835D02*
X174409Y63189D01*
X179134Y67913D02*
X180709Y66339D01*
X139764Y78937D02*
X141339Y80512D01*
X188583D02*
X190157Y78937D01*
X139764Y97835D02*
X141339Y96260D01*
X142913Y104134D02*
X144488Y102559D01*
X149213Y110433D02*
X150787Y108858D01*
X155512Y113583D02*
X157087Y112008D01*
X188583Y96260D02*
X190157Y97835D01*
X185433Y102559D02*
X187008Y104134D01*
X172835Y112008D02*
X174409Y113583D01*
X139764Y75787D02*
X141339Y77362D01*
X139764Y100984D02*
X141339Y99409D01*
X152362Y113583D02*
X153937Y112008D01*
X166535Y61614D02*
X168110Y60039D01*
X146063Y66339D02*
X147638Y67913D01*
X136614Y85236D02*
X138189Y86811D01*
X136614Y91535D02*
X138189Y89961D01*
X142913Y107283D02*
X144488Y105709D01*
X146063Y110433D02*
X147638Y108858D01*
X182283D02*
X183858Y110433D01*
X185433Y71063D02*
X187008Y69488D01*
X191732Y89961D02*
X193307Y91535D01*
X161811Y116732D02*
X163386Y115157D01*
X136614Y82087D02*
X138189Y83661D01*
X136614Y94685D02*
X138189Y93110D01*
X158661Y116732D02*
X160236Y115157D01*
X169685D02*
X171260Y116732D01*
X139764Y104134D02*
X141339Y102559D01*
X149213Y113583D02*
X150787Y112008D01*
X136614Y78937D02*
X138189Y80512D01*
X136614Y97835D02*
X138189Y96260D01*
X155512Y116732D02*
X157087Y115157D01*
X172835D02*
X174409Y116732D01*
X136614Y75787D02*
X138189Y77362D01*
X136614Y100984D02*
X138189Y99409D01*
X142913Y110433D02*
X144488Y108858D01*
X152362Y116732D02*
X153937Y115157D01*
X188583Y71063D02*
X190157Y69488D01*
X139764Y107283D02*
X141339Y105709D01*
X146063Y113583D02*
X147638Y112008D01*
X133465Y85236D02*
X135039Y86811D01*
X133465Y91535D02*
X135039Y89961D01*
X161811Y119882D02*
X163386Y118307D01*
X133465Y94685D02*
X135039Y93110D01*
X158661Y56890D02*
X160236Y58464D01*
X149213Y60039D02*
X150787Y61614D01*
X136614Y72638D02*
X138189Y74213D01*
X136614Y104134D02*
X138189Y102559D01*
X158661Y119882D02*
X160236Y118307D01*
X191732Y74213D02*
X193307Y72638D01*
X194882Y83661D02*
X196457Y82087D01*
X149213Y116732D02*
X150787Y115157D01*
X179134D02*
X180709Y116732D01*
X169685Y118307D02*
X171260Y119882D01*
X155512D02*
X157087Y118307D01*
X172835D02*
X174409Y119882D01*
X142913Y113583D02*
X144488Y112008D01*
X133465Y75787D02*
X135039Y77362D01*
X182283Y61614D02*
X183858Y60039D01*
X136614Y69488D02*
X138189Y71063D01*
X136614Y107283D02*
X138189Y105709D01*
X152362Y119882D02*
X153937Y118307D01*
X175984Y58464D02*
X177559Y56890D01*
X191732Y105709D02*
X193307Y107283D01*
X146063Y116732D02*
X147638Y115157D01*
X194882Y99409D02*
X196457Y100984D01*
X133465Y72638D02*
X135039Y74213D01*
X130315Y85236D02*
X131890Y86811D01*
X130315Y91535D02*
X131890Y89961D01*
X133465Y104134D02*
X135039Y102559D01*
X149213Y119882D02*
X150787Y118307D01*
X169685Y55315D02*
X171260Y53740D01*
X139764Y63189D02*
X141339Y64764D01*
X130315Y82087D02*
X131890Y83661D01*
X130315Y94685D02*
X131890Y93110D01*
X188583Y64764D02*
X190157Y63189D01*
X198031Y93110D02*
X198031Y93110D01*
X139764Y113583D02*
X141339Y112008D01*
X188583D02*
X190157Y113583D01*
X158661Y123031D02*
X160236Y121457D01*
X169685D02*
X171260Y123031D01*
X136614Y66339D02*
X138189Y67913D01*
X136614Y110433D02*
X138189Y108858D01*
X142913Y116732D02*
X144488Y115157D01*
X130315Y78937D02*
X131890Y80512D01*
X130315Y97835D02*
X131890Y96260D01*
X172835Y121457D02*
X174409Y123031D01*
X133465Y69488D02*
X135039Y71063D01*
X133465Y107283D02*
X135039Y105709D01*
X146063Y119882D02*
X147638Y118307D01*
X152362Y53740D02*
X153937Y55315D01*
X130315Y75787D02*
X131890Y77362D01*
X130315Y100984D02*
X131890Y99409D01*
X198031Y77362D02*
X199606Y75787D01*
X152362Y123031D02*
X153937Y121457D01*
X175984D02*
X177559Y123031D01*
X136614Y63189D02*
X138189Y64764D01*
X136614Y113583D02*
X138189Y112008D01*
X139764Y116732D02*
X141339Y115157D01*
X130315Y72638D02*
X131890Y74213D01*
X130315Y104134D02*
X131890Y102559D01*
X149213Y123031D02*
X150787Y121457D01*
X133465Y110433D02*
X135039Y108858D01*
X142913Y56890D02*
X144488Y58464D01*
X142913Y119882D02*
X144488Y118307D01*
X194882Y67913D02*
X196457Y66339D01*
X185433Y118307D02*
X187008Y119882D01*
X130315Y69488D02*
X131890Y71063D01*
X130315Y107283D02*
X131890Y105709D01*
X136614Y60039D02*
X138189Y61614D01*
X136614Y116732D02*
X138189Y115157D01*
X139764Y119882D02*
X141339Y118307D01*
X130315Y66339D02*
X131890Y67913D01*
X130315Y110433D02*
X131890Y108858D01*
X185433Y55315D02*
X187008Y53740D01*
X198031Y108858D02*
X198031Y108858D01*
X142913Y123031D02*
X144488Y121457D01*
X133465Y60039D02*
X135039Y61614D01*
X136614Y56890D02*
X138189Y58464D01*
X191732D02*
X193307Y56890D01*
X136614Y119882D02*
X138189Y118307D01*
X194882Y115157D02*
X196457Y116732D01*
X130315Y63189D02*
X131890Y64764D01*
X130315Y113583D02*
X131890Y112008D01*
X133465Y56890D02*
X135039Y58464D01*
X133465Y119882D02*
X135039Y118307D01*
X136614Y53740D02*
X138189Y55315D01*
X130315Y60039D02*
X131890Y61614D01*
X198031D02*
X199606Y60039D01*
X130315Y116732D02*
X131890Y115157D01*
X191732Y121457D02*
X193307Y123031D01*
X130315Y56890D02*
X131890Y58464D01*
X130315Y119882D02*
X131890Y118307D01*
X152362Y85236D02*
X153937Y86811D01*
Y83661D02*
Y83661D01*
X152362Y82087D02*
X153937Y83661D01*
X198031Y93110D02*
X201181D01*
X150787Y80512D02*
X150787D01*
X149213Y78937D02*
X150787Y80512D01*
X152362Y78937D02*
X153937Y80512D01*
X152362Y78937D02*
X152362D01*
X146063Y97835D02*
X147638Y96260D01*
X149213Y97835D02*
X150787Y96260D01*
X149213Y100984D02*
X150787Y99409D01*
X147638D02*
Y99410D01*
X146063Y100984D02*
X147638Y99410D01*
X153936Y89961D02*
X153937D01*
X152362Y91535D02*
X153936Y89961D01*
X150787D02*
Y89961D01*
X149213Y91535D02*
X150787Y89961D01*
X166535Y89961D02*
X168110Y91535D01*
X158661Y85236D02*
X160236Y86811D01*
X155512Y85236D02*
X157087Y86811D01*
X161811Y85236D02*
X163386Y86811D01*
X220862Y165866D02*
Y169173D01*
X217555Y163898D02*
X222831D01*
X226768Y159961D01*
X220862Y165866D02*
X222831Y163898D01*
X220862Y146138D02*
Y150748D01*
Y154055D01*
X226768Y159961D01*
X220472Y172638D02*
X220862Y173028D01*
X-35661Y117610D02*
Y120504D01*
X-31398Y123524D02*
Y125984D01*
X-31496Y123425D02*
X-31398Y123524D01*
X-33661Y127953D02*
X-31398D01*
X-33858Y127756D02*
X-33661Y127953D01*
X-33858Y126181D02*
Y127756D01*
Y126181D02*
X-33661Y125984D01*
X-31398D01*
X-82677Y97047D02*
X-79134D01*
X-75590Y102953D02*
X-75563Y102980D01*
X-80709Y126575D02*
Y131299D01*
X48425Y123031D02*
Y125098D01*
Y123031D02*
X48425Y123031D01*
X103543Y123031D02*
Y125492D01*
X53937Y105709D02*
X53937D01*
X48425Y135630D02*
Y138091D01*
X103543Y135630D02*
Y138091D01*
X-75492Y107874D02*
X-75295Y107677D01*
X-75563Y105905D02*
X-75492D01*
X-77953Y107480D02*
X-77559Y107874D01*
X-75492D01*
X-77953Y106299D02*
Y107480D01*
Y106299D02*
X-77559Y105905D01*
X-75563D01*
X-77559Y153150D02*
X-75563D01*
X-77953Y153543D02*
X-77559Y153150D01*
X-77953Y153543D02*
Y154724D01*
X-77559Y155118D02*
X-75492D01*
X-77953Y154724D02*
X-77559Y155118D01*
X-75563Y150224D02*
Y153150D01*
X-75492D01*
Y155118D02*
X-75295Y154921D01*
X-80709Y173819D02*
Y178543D01*
X-75590Y150197D02*
X-75563Y150224D01*
X-82677Y144291D02*
X-79134D01*
X-77559Y11417D02*
X-75563D01*
X-77953Y11811D02*
X-77559Y11417D01*
X-77953Y11811D02*
Y12992D01*
X-77559Y13386D02*
X-75492D01*
X-77953Y12992D02*
X-77559Y13386D01*
X-75563Y11417D02*
X-75492D01*
Y13386D02*
X-75295Y13189D01*
X-80709Y32087D02*
Y36811D01*
X-75590Y8465D02*
X-75563Y8492D01*
X-82677Y2559D02*
X-79134D01*
X-77559Y58661D02*
X-75563D01*
X-77953Y59055D02*
X-77559Y58661D01*
X-77953Y59055D02*
Y60236D01*
X-77559Y60630D02*
X-75492D01*
X-77953Y60236D02*
X-77559Y60630D01*
X-75563Y55736D02*
Y58661D01*
X-75492D01*
Y60630D02*
X-75295Y60433D01*
X-80709Y79331D02*
Y84055D01*
X-75590Y55709D02*
X-75563Y55736D01*
X-82677Y49803D02*
X-79134D01*
X60039Y262937D02*
X62850D01*
X33366Y273522D02*
Y275394D01*
Y273522D02*
X33858Y273031D01*
X36417Y262937D02*
X39228D01*
X48228Y262937D02*
X48370Y262795D01*
X50787D01*
X29488Y-9213D02*
X29528Y-9252D01*
X158268Y169882D02*
X161555D01*
X184370Y169764D02*
X192146D01*
X184252Y169882D02*
X184370Y169764D01*
X211768Y173929D02*
Y177910D01*
X218402Y145961D02*
X220685D01*
X218307Y145866D02*
X218402Y145961D01*
X207087Y147835D02*
X207283Y147638D01*
X228937Y191339D02*
Y195276D01*
X221653Y239960D02*
X221653Y239961D01*
X222047D01*
X227165Y79725D02*
X227165Y79724D01*
X227165Y79725D02*
Y81299D01*
X241338Y79725D02*
X241339Y79724D01*
X241338Y79725D02*
Y80118D01*
X175984Y71063D02*
X177559Y69488D01*
X179134Y71063D02*
X180709Y69488D01*
X191732Y64764D02*
X193307Y63189D01*
X194882Y64764D02*
X196457Y63189D01*
X185433Y64764D02*
X187008Y63189D01*
X182283Y64764D02*
X183858Y63189D01*
X188583Y58464D02*
X190157Y56890D01*
X188583Y61614D02*
X190157Y60039D01*
X175984Y61614D02*
X177559Y60039D01*
X175984Y64764D02*
X177559Y63189D01*
X12992Y27756D02*
Y31327D01*
X-2476Y51492D02*
Y55102D01*
X12992Y51378D02*
X13386Y50984D01*
X13780D01*
X198031Y74213D02*
X199606Y72638D01*
X198031Y71063D02*
X199606Y69488D01*
X198031Y64764D02*
X199606Y63189D01*
X198031Y67913D02*
X199606Y66339D01*
X191732Y61614D02*
X193307Y60039D01*
X194882Y61614D02*
X196457Y60039D01*
X191732Y71063D02*
X193307Y69488D01*
X191732Y67913D02*
X193307Y66339D01*
X185433Y67913D02*
X187008Y66339D01*
X188583Y67913D02*
X190157Y66339D01*
X179134Y64764D02*
X180709Y63189D01*
X179134Y61614D02*
X180709Y60039D01*
X182283Y67913D02*
X183858Y66339D01*
X182283Y71063D02*
X183858Y69488D01*
X169685Y61614D02*
X171260Y60039D01*
X169685Y58464D02*
X171260Y56890D01*
X161811Y69488D02*
X163386Y71063D01*
X166535D02*
X168110Y69488D01*
X161811Y63189D02*
X163386Y64764D01*
X158661Y63189D02*
X160236Y64764D01*
X155512Y56890D02*
X157087Y58464D01*
X152362Y56890D02*
X153937Y58464D01*
X158661Y60039D02*
X160236Y61614D01*
X161811Y60039D02*
X163386Y61614D01*
X146063Y60039D02*
X147638Y61614D01*
X142913Y60039D02*
X144488Y61614D01*
X155512Y66339D02*
X157087Y67913D01*
X158661Y66339D02*
X160236Y67913D01*
X158661Y69488D02*
X160236Y71063D01*
X155512Y69488D02*
X157087Y71063D01*
X175984Y112008D02*
X177559Y113583D01*
X175984Y108858D02*
X177559Y110433D01*
X179134Y112008D02*
X180709Y113583D01*
X182283Y112008D02*
X183858Y113583D01*
X191732Y102559D02*
X193307Y104134D01*
X194882Y102559D02*
X196457Y104134D01*
X213858Y163898D02*
X217555D01*
X213779Y163976D02*
X213858Y163898D01*
X212205Y163976D02*
Y164075D01*
Y166535D01*
X87992Y162795D02*
Y166142D01*
X88976Y167126D01*
X12500Y164075D02*
X18012D01*
X7185Y166634D02*
X12500D01*
Y169193D02*
X18012D01*
X7185Y171752D02*
X12500D01*
X44685Y206299D02*
X49902D01*
X50000Y206201D01*
X11319Y195079D02*
X12205Y195965D01*
X9055Y195079D02*
X11319D01*
X10728Y222539D02*
X12205D01*
X9843Y223425D02*
X10728Y222539D01*
X6693Y213976D02*
X9154D01*
X43602Y181693D02*
X46063D01*
X100984Y166142D02*
X101969Y167126D01*
X6693Y204134D02*
X9154D01*
X50000Y218209D02*
X52658D01*
X53150Y218701D01*
X15846Y192421D02*
X16929Y193504D01*
X15846Y190354D02*
Y192421D01*
X16929Y193504D02*
X20079D01*
X20276Y193701D01*
Y195669D01*
X15846Y188091D02*
Y190354D01*
X15354Y187598D02*
X15846Y188091D01*
X115748Y262795D02*
Y272244D01*
X188583Y102559D02*
X190157Y104134D01*
X188583Y105709D02*
X190157Y107283D01*
X182283Y118307D02*
X183858Y119882D01*
X179134Y118307D02*
X180709Y119882D01*
X175984Y118307D02*
X177559Y119882D01*
X175984Y115157D02*
X177559Y116732D01*
X28740Y232874D02*
X31496Y235630D01*
X56988Y275394D02*
X59449D01*
X198031Y86811D02*
X199606Y85236D01*
X194882Y86811D02*
X196457Y85236D01*
X185433Y115157D02*
X187008Y116732D01*
X182283Y115157D02*
X183858Y116732D01*
X188583Y118307D02*
X190157Y119882D01*
X191732Y118307D02*
X193307Y119882D01*
X182283Y74213D02*
X183858Y72638D01*
X179134Y74213D02*
X180709Y72638D01*
X179134Y77362D02*
X180709Y75787D01*
X179134Y80512D02*
X180709Y78937D01*
X194882Y89961D02*
X196457Y91535D01*
X198031Y89961D02*
X201181D01*
X198031Y89961D02*
X198031Y89961D01*
X12992Y31398D02*
Y39173D01*
X11417Y31398D02*
Y37598D01*
X12992Y39173D02*
Y46949D01*
X5217Y43898D02*
X8268D01*
X149213Y66339D02*
X150787Y67913D01*
X149213Y63189D02*
X150787Y64764D01*
X198031Y83661D02*
X199606Y82087D01*
X198031Y80512D02*
X199606Y78937D01*
X198031Y115157D02*
X201181D01*
X182283Y96260D02*
X183858Y97835D01*
X179134Y96260D02*
X180709Y97835D01*
X-82677Y195866D02*
X-79528D01*
D17*
X117218Y186992D02*
D03*
X112435Y187058D02*
D03*
X110018Y135563D02*
D03*
X146063Y107283D02*
D03*
X139764Y110433D02*
D03*
X161811Y91535D02*
D03*
X168110Y85236D02*
D03*
X180709Y107283D02*
D03*
Y110433D02*
D03*
X171260Y66339D02*
D03*
X60236Y492D02*
D03*
X171260Y63189D02*
D03*
X63976Y591D02*
D03*
X174409Y56890D02*
D03*
X95374Y295D02*
D03*
X174409Y60039D02*
D03*
X92126Y197D02*
D03*
X168110Y63189D02*
D03*
X57480Y197D02*
D03*
X168110Y66339D02*
D03*
X54134Y295D02*
D03*
X190157Y72638D02*
D03*
Y75787D02*
D03*
X196457D02*
D03*
X193307D02*
D03*
Y82087D02*
D03*
X108433Y248744D02*
D03*
X106133D02*
D03*
X190157Y82087D02*
D03*
X187008D02*
D03*
X102528Y248744D02*
D03*
X183858Y82087D02*
D03*
X100228Y248744D02*
D03*
X180709Y85236D02*
D03*
X151575Y222182D02*
D03*
X177559Y85236D02*
D03*
X151575Y219882D02*
D03*
X177559Y104134D02*
D03*
X115937Y275787D02*
D03*
X180709Y104134D02*
D03*
X118237Y275787D02*
D03*
X168110Y82087D02*
D03*
X161811Y82087D02*
D03*
X146063Y75787D02*
D03*
Y72638D02*
D03*
Y69488D02*
D03*
X142913D02*
D03*
X139764Y72638D02*
D03*
Y69488D02*
D03*
Y66339D02*
D03*
X142913D02*
D03*
X139764Y60039D02*
D03*
Y56890D02*
D03*
X146063Y63189D02*
D03*
X142913D02*
D03*
X146063Y56890D02*
D03*
X31457Y158D02*
D03*
X149213Y56890D02*
D03*
X34252Y197D02*
D03*
X152362Y60039D02*
D03*
X37362Y158D02*
D03*
X155512Y60039D02*
D03*
X39961Y197D02*
D03*
X133465Y63189D02*
D03*
X98032Y42717D02*
D03*
X133465Y66339D02*
D03*
X94882Y42717D02*
D03*
X22047Y129724D02*
D03*
X201181Y102559D02*
D03*
Y99410D02*
D03*
X193307Y110433D02*
D03*
X190157D02*
D03*
X204331Y113622D02*
D03*
Y110433D02*
D03*
X193307Y113583D02*
D03*
Y116732D02*
D03*
X204331Y118307D02*
D03*
X201181D02*
D03*
X187008Y107283D02*
D03*
Y110433D02*
D03*
X133465Y113583D02*
D03*
X82284Y99410D02*
D03*
X133465Y116732D02*
D03*
X85433Y99410D02*
D03*
X133465Y78937D02*
D03*
X82284Y55315D02*
D03*
X133465Y82087D02*
D03*
X85433Y55315D02*
D03*
X177559Y82087D02*
D03*
X133653Y250787D02*
D03*
X135953D02*
D03*
X177559Y78937D02*
D03*
X169587Y787D02*
D03*
X166535Y1083D02*
D03*
X139173Y197D02*
D03*
X142421D02*
D03*
X187008Y97835D02*
D03*
X133653Y275787D02*
D03*
X187008Y94685D02*
D03*
X135953Y275787D02*
D03*
X193307Y94685D02*
D03*
X141859Y275787D02*
D03*
X139559D02*
D03*
X190157Y94685D02*
D03*
X201181Y96260D02*
D03*
X169418Y275787D02*
D03*
X167118D02*
D03*
X196457Y97835D02*
D03*
X178929Y275886D02*
D03*
X187008Y91535D02*
D03*
X181229Y275886D02*
D03*
X190157Y91535D02*
D03*
X187008Y56890D02*
D03*
X181693Y689D02*
D03*
X187008Y60039D02*
D03*
X178445Y591D02*
D03*
X183858Y85236D02*
D03*
Y91535D02*
D03*
X196457Y107283D02*
D03*
X201181Y105709D02*
D03*
Y112008D02*
D03*
Y115157D02*
D03*
X193307Y97835D02*
D03*
X196457Y94685D02*
D03*
X196645Y275787D02*
D03*
X187008Y75787D02*
D03*
X198945Y275787D02*
D03*
X187008Y72638D02*
D03*
Y78937D02*
D03*
X96622Y248744D02*
D03*
X94322D02*
D03*
X183858Y78937D02*
D03*
X196457D02*
D03*
X114339Y248744D02*
D03*
X112039D02*
D03*
X193307Y78937D02*
D03*
Y85236D02*
D03*
X190157D02*
D03*
X196457Y123031D02*
D03*
X199606D02*
D03*
X187008D02*
D03*
X190157D02*
D03*
X180709D02*
D03*
X183858D02*
D03*
X177559Y94685D02*
D03*
X108394Y275886D02*
D03*
X177559Y97835D02*
D03*
X106094Y275886D02*
D03*
X168504Y157677D02*
D03*
X187008Y100984D02*
D03*
X183858D02*
D03*
X180709Y94685D02*
D03*
Y91535D02*
D03*
X190157Y100984D02*
D03*
X193307D02*
D03*
X183858Y107283D02*
D03*
Y104134D02*
D03*
X281890Y140945D02*
D03*
Y152756D02*
D03*
Y160630D02*
D03*
Y156693D02*
D03*
Y148819D02*
D03*
Y144882D02*
D03*
Y137008D02*
D03*
Y133071D02*
D03*
Y129134D02*
D03*
Y125197D02*
D03*
Y121260D02*
D03*
Y117323D02*
D03*
X174409Y66339D02*
D03*
X48622Y197D02*
D03*
X177559Y66339D02*
D03*
X51476Y197D02*
D03*
X152362Y63189D02*
D03*
Y66339D02*
D03*
X42717Y197D02*
D03*
X45866D02*
D03*
X196457Y72638D02*
D03*
Y69488D02*
D03*
X220866Y25394D02*
D03*
X218110D02*
D03*
X118504Y197D02*
D03*
X115649D02*
D03*
X285039Y148819D02*
D03*
Y156693D02*
D03*
Y152756D02*
D03*
Y144882D02*
D03*
Y133071D02*
D03*
Y117323D02*
D03*
Y121260D02*
D03*
Y125197D02*
D03*
Y129134D02*
D03*
X33858Y143504D02*
D03*
Y140748D02*
D03*
X129882Y250728D02*
D03*
X168110Y119882D02*
D03*
Y123031D02*
D03*
X155512D02*
D03*
X146063D02*
D03*
X161811Y113583D02*
D03*
X112165Y275847D02*
D03*
X158661Y50591D02*
D03*
X161811D02*
D03*
X112992Y69488D02*
D03*
Y72638D02*
D03*
X116142Y69488D02*
D03*
X109843D02*
D03*
Y72638D02*
D03*
X116142D02*
D03*
X165748Y35630D02*
D03*
X162598D02*
D03*
X165748Y38780D02*
D03*
X162598D02*
D03*
Y32480D02*
D03*
X165748D02*
D03*
X146063Y35630D02*
D03*
X142913D02*
D03*
X146063Y38780D02*
D03*
X142913D02*
D03*
Y32480D02*
D03*
X146063D02*
D03*
X126772D02*
D03*
X123622D02*
D03*
Y38780D02*
D03*
X183858Y137992D02*
D03*
Y141142D02*
D03*
Y144291D02*
D03*
X187008D02*
D03*
Y141142D02*
D03*
Y137992D02*
D03*
X220866Y128937D02*
D03*
X214567D02*
D03*
Y125787D02*
D03*
X220866D02*
D03*
X217717Y128937D02*
D03*
Y125787D02*
D03*
X220866Y66339D02*
D03*
X214567D02*
D03*
Y63189D02*
D03*
X220866D02*
D03*
X217717Y66339D02*
D03*
Y63189D02*
D03*
X220866Y85630D02*
D03*
X214567D02*
D03*
Y82480D02*
D03*
X220866D02*
D03*
X217717Y85630D02*
D03*
Y82480D02*
D03*
X220866Y104921D02*
D03*
X214567D02*
D03*
Y101772D02*
D03*
X220866D02*
D03*
X217717Y104921D02*
D03*
Y101772D02*
D03*
X169685Y163583D02*
D03*
X160236D02*
D03*
X156693D02*
D03*
X145276Y170669D02*
D03*
X138976D02*
D03*
Y163976D02*
D03*
X150000Y163583D02*
D03*
Y160039D02*
D03*
X140945Y156890D02*
D03*
X137795D02*
D03*
X171653Y150197D02*
D03*
X168504D02*
D03*
X161811Y141142D02*
D03*
Y139173D02*
D03*
Y132087D02*
D03*
X168110Y132480D02*
D03*
X142913Y137992D02*
D03*
X124016Y144291D02*
D03*
Y141142D02*
D03*
Y137992D02*
D03*
X142913Y141142D02*
D03*
Y144291D02*
D03*
X139764D02*
D03*
Y141142D02*
D03*
Y137992D02*
D03*
X120866Y144291D02*
D03*
Y141142D02*
D03*
Y137992D02*
D03*
X142913Y132480D02*
D03*
X139764D02*
D03*
X120866D02*
D03*
X124016D02*
D03*
X146063Y44291D02*
D03*
X142913D02*
D03*
X126772Y38780D02*
D03*
X123622Y35630D02*
D03*
X126772D02*
D03*
X123622Y44291D02*
D03*
X126772D02*
D03*
X168110D02*
D03*
X161811D02*
D03*
X171260D02*
D03*
X174409D02*
D03*
X180709D02*
D03*
X183858D02*
D03*
X190157Y41142D02*
D03*
X193307D02*
D03*
X190157Y44291D02*
D03*
X193307D02*
D03*
X196457Y50591D02*
D03*
X193307D02*
D03*
X183858D02*
D03*
X174409D02*
D03*
X152362D02*
D03*
X149213D02*
D03*
X139764D02*
D03*
X116142Y94685D02*
D03*
X109843D02*
D03*
Y91535D02*
D03*
X116142D02*
D03*
X112992Y94685D02*
D03*
Y91535D02*
D03*
Y110433D02*
D03*
Y113583D02*
D03*
X116142Y110433D02*
D03*
X109843D02*
D03*
Y113583D02*
D03*
X116142D02*
D03*
X114567Y123031D02*
D03*
X119696Y122932D02*
D03*
X120866Y119882D02*
D03*
Y113583D02*
D03*
Y110433D02*
D03*
Y104134D02*
D03*
Y100984D02*
D03*
Y94685D02*
D03*
Y91535D02*
D03*
Y85236D02*
D03*
Y82087D02*
D03*
Y72638D02*
D03*
Y69488D02*
D03*
Y60039D02*
D03*
Y63189D02*
D03*
X127165D02*
D03*
Y66339D02*
D03*
Y78937D02*
D03*
Y82087D02*
D03*
Y85236D02*
D03*
Y91535D02*
D03*
Y97835D02*
D03*
Y100984D02*
D03*
Y107283D02*
D03*
Y110433D02*
D03*
Y116732D02*
D03*
Y119882D02*
D03*
X187008Y132480D02*
D03*
X183858D02*
D03*
X202756Y53740D02*
D03*
Y56890D02*
D03*
X209055Y63189D02*
D03*
X202756D02*
D03*
X209055Y66339D02*
D03*
X202756D02*
D03*
Y72638D02*
D03*
X209055D02*
D03*
Y75787D02*
D03*
X202756D02*
D03*
Y82087D02*
D03*
X209055D02*
D03*
Y93110D02*
D03*
Y89961D02*
D03*
Y85236D02*
D03*
X202756D02*
D03*
X209055Y101772D02*
D03*
Y104921D02*
D03*
Y110433D02*
D03*
Y113583D02*
D03*
Y123425D02*
D03*
X193307Y126181D02*
D03*
X183858D02*
D03*
X180709D02*
D03*
X190157D02*
D03*
X193307Y132480D02*
D03*
X196457D02*
D03*
X199606Y126181D02*
D03*
X202756D02*
D03*
X205512Y132480D02*
D03*
X208661D02*
D03*
X209055Y126575D02*
D03*
X158661Y126181D02*
D03*
X155512D02*
D03*
X168110D02*
D03*
X171260D02*
D03*
X149213D02*
D03*
X146063D02*
D03*
X136614Y123031D02*
D03*
X139764Y119882D02*
D03*
X146063D02*
D03*
X149213Y123031D02*
D03*
X168110Y91535D02*
D03*
X161811Y97835D02*
D03*
X158661Y91535D02*
D03*
X161811Y94685D02*
D03*
X171260Y85236D02*
D03*
X168110Y94685D02*
D03*
X171260Y91535D02*
D03*
X158661Y82087D02*
D03*
Y94685D02*
D03*
X171260Y82087D02*
D03*
Y94685D02*
D03*
X161811Y78937D02*
D03*
X168110D02*
D03*
X155512Y85236D02*
D03*
Y91535D02*
D03*
X174409Y85236D02*
D03*
Y91535D02*
D03*
X168110Y97835D02*
D03*
X158661Y78937D02*
D03*
X171260D02*
D03*
X155512Y82087D02*
D03*
Y94685D02*
D03*
X158661Y97835D02*
D03*
X174409Y82087D02*
D03*
Y94685D02*
D03*
X171260Y97835D02*
D03*
X155512Y78937D02*
D03*
X161811Y75787D02*
D03*
X168110D02*
D03*
X174409Y78937D02*
D03*
X152362Y85236D02*
D03*
X155512Y97835D02*
D03*
X177559Y91535D02*
D03*
X174409Y97835D02*
D03*
X161811Y100984D02*
D03*
X168110Y100984D02*
D03*
X158661Y75787D02*
D03*
X152362Y94685D02*
D03*
X171260Y75787D02*
D03*
X158661Y100984D02*
D03*
X171260D02*
D03*
X155512Y75787D02*
D03*
X174409D02*
D03*
X152362Y97835D02*
D03*
X155512Y100984D02*
D03*
X174409D02*
D03*
X161811Y72638D02*
D03*
X168110D02*
D03*
X149213Y85236D02*
D03*
Y91535D02*
D03*
X161811Y104134D02*
D03*
X168110Y104134D02*
D03*
X158661Y72638D02*
D03*
X171260D02*
D03*
X158661Y104134D02*
D03*
X180709Y82087D02*
D03*
X171260Y104134D02*
D03*
X152362Y75787D02*
D03*
X177559D02*
D03*
X152362Y100984D02*
D03*
X177559D02*
D03*
X155512Y72638D02*
D03*
X149213Y78937D02*
D03*
X174409Y72638D02*
D03*
X149213Y97835D02*
D03*
X155512Y104134D02*
D03*
X174409D02*
D03*
X146063Y85236D02*
D03*
Y91535D02*
D03*
X161811Y107283D02*
D03*
X168110D02*
D03*
X152362Y72638D02*
D03*
X149213Y75787D02*
D03*
X146063Y82087D02*
D03*
Y94685D02*
D03*
X171260Y69488D02*
D03*
X177559Y72638D02*
D03*
X183858Y94685D02*
D03*
X180709Y100984D02*
D03*
X152362Y104134D02*
D03*
X158661Y107283D02*
D03*
X171260D02*
D03*
X146063Y78937D02*
D03*
X174409Y69488D02*
D03*
X146063Y97835D02*
D03*
X155512Y107283D02*
D03*
X174409D02*
D03*
X149213Y72638D02*
D03*
Y104134D02*
D03*
X142913Y85236D02*
D03*
Y91535D02*
D03*
X161811Y66339D02*
D03*
X152362Y69488D02*
D03*
X183858Y75787D02*
D03*
X152362Y107283D02*
D03*
X161811Y110433D02*
D03*
X168110D02*
D03*
X187008Y85236D02*
D03*
X177559Y107283D02*
D03*
X142913Y94685D02*
D03*
X158661Y110433D02*
D03*
X171260D02*
D03*
X142913Y78937D02*
D03*
Y97835D02*
D03*
X155512Y110433D02*
D03*
X174409D02*
D03*
X149213Y69488D02*
D03*
X146063Y104134D02*
D03*
X149213Y107283D02*
D03*
X142913Y75787D02*
D03*
Y100984D02*
D03*
X152362Y110433D02*
D03*
X139764Y85236D02*
D03*
Y91535D02*
D03*
X168110Y113583D02*
D03*
X139764Y94685D02*
D03*
X158661Y113583D02*
D03*
X171260D02*
D03*
X142913Y72638D02*
D03*
X155512Y63189D02*
D03*
X174409D02*
D03*
X180709Y66339D02*
D03*
X139764Y78937D02*
D03*
X190157D02*
D03*
X139764Y97835D02*
D03*
X142913Y104134D02*
D03*
X149213Y110433D02*
D03*
X155512Y113583D02*
D03*
X190157Y97835D02*
D03*
X187008Y104134D02*
D03*
X174409Y113583D02*
D03*
X139764Y75787D02*
D03*
Y100984D02*
D03*
X152362Y113583D02*
D03*
X168110Y60039D02*
D03*
X146063Y66339D02*
D03*
X136614Y85236D02*
D03*
Y91535D02*
D03*
X142913Y107283D02*
D03*
X146063Y110433D02*
D03*
X183858D02*
D03*
X187008Y69488D02*
D03*
X193307Y91535D02*
D03*
X161811Y116732D02*
D03*
X149213Y130905D02*
D03*
X136614Y82087D02*
D03*
Y94685D02*
D03*
X158661Y116732D02*
D03*
X171260D02*
D03*
X139764Y104134D02*
D03*
X149213Y113583D02*
D03*
X136614Y78937D02*
D03*
Y97835D02*
D03*
X155512Y116732D02*
D03*
X174409D02*
D03*
X136614Y75787D02*
D03*
Y100984D02*
D03*
X142913Y110433D02*
D03*
X152362Y116732D02*
D03*
X190157Y69488D02*
D03*
X139764Y107283D02*
D03*
X146063Y113583D02*
D03*
X133465Y85236D02*
D03*
Y91535D02*
D03*
X161811Y119882D02*
D03*
X133465Y94685D02*
D03*
X158661Y56890D02*
D03*
X149213Y60039D02*
D03*
X136614Y72638D02*
D03*
Y104134D02*
D03*
X158661Y119882D02*
D03*
X193307Y72638D02*
D03*
X196457Y82087D02*
D03*
X149213Y116732D02*
D03*
X180709D02*
D03*
X171260Y119882D02*
D03*
X155512D02*
D03*
X174409D02*
D03*
X142913Y113583D02*
D03*
X133465Y75787D02*
D03*
X183858Y60039D02*
D03*
X136614Y69488D02*
D03*
Y107283D02*
D03*
X152362Y119882D02*
D03*
X177559Y56890D02*
D03*
X193307Y107283D02*
D03*
X146063Y116732D02*
D03*
X196457Y100984D02*
D03*
X133465Y72638D02*
D03*
X130315Y85236D02*
D03*
Y91535D02*
D03*
X133465Y104134D02*
D03*
X149213Y119882D02*
D03*
X171260Y53740D02*
D03*
X139764Y63189D02*
D03*
X130315Y82087D02*
D03*
Y94685D02*
D03*
X190157Y63189D02*
D03*
X201181Y93110D02*
D03*
X139764Y113583D02*
D03*
X190157D02*
D03*
X158661Y123031D02*
D03*
X171260D02*
D03*
X136614Y66339D02*
D03*
Y110433D02*
D03*
X142913Y116732D02*
D03*
X130315Y78937D02*
D03*
Y97835D02*
D03*
X174409Y123031D02*
D03*
X133465Y69488D02*
D03*
Y107283D02*
D03*
X152362Y53740D02*
D03*
X130315Y75787D02*
D03*
Y100984D02*
D03*
X199606Y75787D02*
D03*
X152362Y123031D02*
D03*
X177559D02*
D03*
X136614Y63189D02*
D03*
Y113583D02*
D03*
X139764Y116732D02*
D03*
X130315Y72638D02*
D03*
Y104134D02*
D03*
X133465Y110433D02*
D03*
X142913Y56890D02*
D03*
Y119882D02*
D03*
X196457Y66339D02*
D03*
X187008Y119882D02*
D03*
X130315Y69488D02*
D03*
Y107283D02*
D03*
X136614Y60039D02*
D03*
Y116732D02*
D03*
X130315Y66339D02*
D03*
Y110433D02*
D03*
X187008Y53740D02*
D03*
X201181Y108858D02*
D03*
X142913Y123031D02*
D03*
X133465Y60039D02*
D03*
X136614Y56890D02*
D03*
X193307D02*
D03*
X136614Y119882D02*
D03*
X130315Y63189D02*
D03*
Y113583D02*
D03*
X133465Y56890D02*
D03*
Y119882D02*
D03*
X136614Y53740D02*
D03*
X130315Y60039D02*
D03*
X199606D02*
D03*
X130315Y116732D02*
D03*
X193307Y123031D02*
D03*
X130315Y56890D02*
D03*
Y119882D02*
D03*
X161811Y85236D02*
D03*
X149213Y100984D02*
D03*
X152362Y82087D02*
D03*
X146063Y100984D02*
D03*
X158661Y85236D02*
D03*
X196457Y116732D02*
D03*
X152362Y78937D02*
D03*
X149213Y82087D02*
D03*
Y94685D02*
D03*
X152362Y91535D02*
D03*
X220374Y1378D02*
D03*
X103543Y123031D02*
D03*
X57087Y102559D02*
D03*
X60236D02*
D03*
X63386D02*
D03*
Y99410D02*
D03*
X60236D02*
D03*
X57087D02*
D03*
X53937D02*
D03*
Y102559D02*
D03*
Y105709D02*
D03*
X57087D02*
D03*
X60236D02*
D03*
X63386D02*
D03*
X66535D02*
D03*
Y102559D02*
D03*
Y99410D02*
D03*
X69685D02*
D03*
Y102559D02*
D03*
X72835Y99410D02*
D03*
Y102559D02*
D03*
Y105709D02*
D03*
X75984Y99410D02*
D03*
Y102559D02*
D03*
X79134Y99410D02*
D03*
Y102559D02*
D03*
Y105709D02*
D03*
X82284Y102559D02*
D03*
Y105709D02*
D03*
X85433Y102559D02*
D03*
Y105709D02*
D03*
X88583Y99410D02*
D03*
Y102559D02*
D03*
Y105709D02*
D03*
X91732Y99410D02*
D03*
Y102559D02*
D03*
Y105709D02*
D03*
X94882Y99410D02*
D03*
Y102559D02*
D03*
Y105709D02*
D03*
X98032Y99410D02*
D03*
Y102559D02*
D03*
Y105709D02*
D03*
X101181Y99410D02*
D03*
Y102559D02*
D03*
Y105709D02*
D03*
X48425Y123031D02*
D03*
X52362Y135630D02*
D03*
X61024Y123031D02*
D03*
X56693Y135630D02*
D03*
X87008D02*
D03*
X82677D02*
D03*
X69685Y123031D02*
D03*
X78347Y135630D02*
D03*
X74016D02*
D03*
X61024D02*
D03*
X95669D02*
D03*
X100000Y123031D02*
D03*
X91339Y123031D02*
D03*
X100000Y135630D02*
D03*
X95669Y123031D02*
D03*
X87008D02*
D03*
X52362D02*
D03*
X65354D02*
D03*
X74016D02*
D03*
X91339Y135630D02*
D03*
X69685Y135630D02*
D03*
X82677Y123031D02*
D03*
X65354Y135630D02*
D03*
X78347Y123031D02*
D03*
X56693D02*
D03*
X44488Y135630D02*
D03*
Y123031D02*
D03*
X48425Y135630D02*
D03*
X103543D02*
D03*
X57087Y86811D02*
D03*
X53937D02*
D03*
Y83661D02*
D03*
Y80512D02*
D03*
X57087D02*
D03*
Y83661D02*
D03*
X63386Y86811D02*
D03*
X60236D02*
D03*
Y83661D02*
D03*
Y80512D02*
D03*
X63386D02*
D03*
Y83661D02*
D03*
X66535D02*
D03*
Y80512D02*
D03*
X72835D02*
D03*
X82284Y86811D02*
D03*
X79134D02*
D03*
Y83661D02*
D03*
Y80512D02*
D03*
X82284D02*
D03*
Y83661D02*
D03*
X88583Y86811D02*
D03*
X85433D02*
D03*
Y83661D02*
D03*
Y80512D02*
D03*
X88583D02*
D03*
Y83661D02*
D03*
X91732Y86811D02*
D03*
Y83661D02*
D03*
Y80512D02*
D03*
X94882D02*
D03*
Y83661D02*
D03*
X101181Y86811D02*
D03*
X98032Y83661D02*
D03*
Y80512D02*
D03*
X101181D02*
D03*
Y83661D02*
D03*
X57087Y61614D02*
D03*
X53937D02*
D03*
Y58465D02*
D03*
Y55315D02*
D03*
X57087D02*
D03*
Y58465D02*
D03*
X63386Y61614D02*
D03*
X60236D02*
D03*
Y58465D02*
D03*
Y55315D02*
D03*
X63386D02*
D03*
Y58465D02*
D03*
X66535Y61614D02*
D03*
Y58465D02*
D03*
Y55315D02*
D03*
X69685D02*
D03*
Y58465D02*
D03*
X72835Y61614D02*
D03*
Y58465D02*
D03*
Y55315D02*
D03*
X75984D02*
D03*
Y58465D02*
D03*
X82284Y61614D02*
D03*
X79134D02*
D03*
Y58465D02*
D03*
Y55315D02*
D03*
X82284Y58465D02*
D03*
X88583Y61614D02*
D03*
X85433D02*
D03*
Y58465D02*
D03*
X88583Y55315D02*
D03*
Y58465D02*
D03*
X94882Y61614D02*
D03*
X91732D02*
D03*
Y58465D02*
D03*
Y55315D02*
D03*
X94882D02*
D03*
Y58465D02*
D03*
X101181Y61614D02*
D03*
X98032D02*
D03*
Y58465D02*
D03*
Y55315D02*
D03*
X101181D02*
D03*
Y58465D02*
D03*
X57087Y42717D02*
D03*
X53937D02*
D03*
Y39567D02*
D03*
Y36417D02*
D03*
X57087D02*
D03*
Y39567D02*
D03*
X63386Y42717D02*
D03*
X60236D02*
D03*
Y39567D02*
D03*
Y36417D02*
D03*
X63386D02*
D03*
Y39567D02*
D03*
X69685Y42717D02*
D03*
X66535Y39567D02*
D03*
Y36417D02*
D03*
X72835Y39567D02*
D03*
Y36417D02*
D03*
X75984Y39567D02*
D03*
X82284Y42717D02*
D03*
X79134D02*
D03*
Y39567D02*
D03*
Y36417D02*
D03*
X82284D02*
D03*
Y39567D02*
D03*
X88583Y42717D02*
D03*
X85433D02*
D03*
Y39567D02*
D03*
Y36417D02*
D03*
X88583D02*
D03*
Y39567D02*
D03*
X91732Y42717D02*
D03*
Y39567D02*
D03*
Y36417D02*
D03*
X94882D02*
D03*
Y39567D02*
D03*
X101181Y42717D02*
D03*
X98032Y39567D02*
D03*
Y36417D02*
D03*
X101181D02*
D03*
Y39567D02*
D03*
X72835Y83661D02*
D03*
X69685D02*
D03*
Y86811D02*
D03*
X75984Y83661D02*
D03*
X50787Y99410D02*
D03*
X69685Y39567D02*
D03*
X292913Y111417D02*
D03*
Y115354D02*
D03*
Y119291D02*
D03*
Y123228D02*
D03*
Y127165D02*
D03*
Y131102D02*
D03*
Y135039D02*
D03*
Y142913D02*
D03*
Y146850D02*
D03*
Y154724D02*
D03*
Y158661D02*
D03*
Y162598D02*
D03*
Y150787D02*
D03*
Y138976D02*
D03*
X285039Y167520D02*
D03*
Y174213D02*
D03*
X177559Y69488D02*
D03*
X196260Y886D02*
D03*
X180709Y69488D02*
D03*
X199311Y886D02*
D03*
X121456Y295D02*
D03*
X124409D02*
D03*
X112401D02*
D03*
X109744D02*
D03*
X127559D02*
D03*
X130413D02*
D03*
X133267D02*
D03*
X136319D02*
D03*
X193504Y787D02*
D03*
X190354D02*
D03*
X202854Y886D02*
D03*
X193307Y63189D02*
D03*
X196457D02*
D03*
X205154Y886D02*
D03*
X106889Y394D02*
D03*
X187008Y63189D02*
D03*
X103543Y394D02*
D03*
X183858Y63189D02*
D03*
X190157Y60039D02*
D03*
Y56890D02*
D03*
X187500Y787D02*
D03*
X184449D02*
D03*
X98524Y3543D02*
D03*
X177559Y60039D02*
D03*
X98386Y453D02*
D03*
X177559Y63189D02*
D03*
X199606Y72638D02*
D03*
Y69488D02*
D03*
Y63189D02*
D03*
Y66339D02*
D03*
X193307Y60039D02*
D03*
X196457D02*
D03*
X193307Y69488D02*
D03*
Y66339D02*
D03*
X187008D02*
D03*
X190157D02*
D03*
X180709Y63189D02*
D03*
Y60039D02*
D03*
X183858Y66339D02*
D03*
Y69488D02*
D03*
X171260Y60039D02*
D03*
Y56890D02*
D03*
X161811Y69488D02*
D03*
X168110D02*
D03*
X161811Y63189D02*
D03*
X158661D02*
D03*
X161811Y56890D02*
D03*
Y53740D02*
D03*
X155512Y56890D02*
D03*
X152362D02*
D03*
X158661Y60039D02*
D03*
X161811D02*
D03*
X146063D02*
D03*
X142913D02*
D03*
X155512Y66339D02*
D03*
X158661D02*
D03*
Y69488D02*
D03*
X155512D02*
D03*
X177559Y113583D02*
D03*
Y110433D02*
D03*
X180709Y113583D02*
D03*
X183858D02*
D03*
X193307Y104134D02*
D03*
X196457D02*
D03*
X190157D02*
D03*
Y107283D02*
D03*
X183858Y119882D02*
D03*
X180709D02*
D03*
X157874Y229331D02*
D03*
X150000Y174606D02*
D03*
X151575Y224606D02*
D03*
X142126Y228937D02*
D03*
X99606Y225787D02*
D03*
X151575Y228543D02*
D03*
X157874Y226575D02*
D03*
X161024Y177362D02*
D03*
X177559Y119882D02*
D03*
Y116732D02*
D03*
X146063Y156496D02*
D03*
X185827Y149409D02*
D03*
X120133Y248744D02*
D03*
X199606Y85236D02*
D03*
X117771Y248744D02*
D03*
X196457Y85236D02*
D03*
X187008Y116732D02*
D03*
X183858D02*
D03*
X190157Y119882D02*
D03*
X193307D02*
D03*
X183858Y72638D02*
D03*
X141339Y250591D02*
D03*
X180709Y72638D02*
D03*
X143599Y250591D02*
D03*
X180709Y75787D02*
D03*
X102489Y275787D02*
D03*
X180709Y78937D02*
D03*
X100189Y275787D02*
D03*
X173023D02*
D03*
X196457Y91535D02*
D03*
X201181Y89961D02*
D03*
X175323Y275787D02*
D03*
X98032Y86811D02*
D03*
X133465Y97835D02*
D03*
X94882Y86811D02*
D03*
X133465Y100984D02*
D03*
X149213Y66339D02*
D03*
Y63189D02*
D03*
X199606Y82087D02*
D03*
X190740Y275787D02*
D03*
X199606Y78937D02*
D03*
X193040Y275787D02*
D03*
X214407Y984D02*
D03*
X216667D02*
D03*
X72835Y42717D02*
D03*
Y86811D02*
D03*
X142913Y82087D02*
D03*
X75984Y42717D02*
D03*
Y86811D02*
D03*
X139764Y82087D02*
D03*
X124142Y275886D02*
D03*
X183858Y97835D02*
D03*
X121842Y275886D02*
D03*
X180709Y97835D02*
D03*
X130048Y275886D02*
D03*
X190157Y116732D02*
D03*
X127748Y275886D02*
D03*
X187008Y113583D02*
D03*
X210531Y2264D02*
D03*
X208022Y443D02*
D03*
X173543Y1181D02*
D03*
X176969Y3543D02*
D03*
D18*
X9232Y95276D02*
Y99016D01*
X-30138Y95276D02*
Y99016D01*
Y32283D02*
Y36024D01*
Y63779D02*
Y67520D01*
D19*
X283465Y111417D02*
X289134D01*
X258661Y61221D02*
X260236Y62795D01*
Y84055D02*
X260630Y83661D01*
X146063Y213386D02*
X146260D01*
X142323D02*
X146063D01*
X-72638Y150295D02*
Y150386D01*
Y146850D02*
Y150295D01*
Y8563D02*
Y8653D01*
Y5118D02*
Y8563D01*
Y55807D02*
Y55898D01*
Y52362D02*
Y55807D01*
Y103051D02*
Y103142D01*
Y99606D02*
Y103051D01*
X272047Y173819D02*
X276772D01*
X276772Y173819D01*
X268110D02*
X272047D01*
X161811Y91535D02*
X163386Y89961D01*
X166535Y86811D02*
X166535D01*
X12618Y248992D02*
Y252492D01*
X5118Y259992D02*
X12618Y252492D01*
X202362Y197441D02*
X205512D01*
X176378Y178150D02*
Y185531D01*
X121653Y154003D02*
X122047Y153609D01*
Y153165D02*
Y153609D01*
X198031Y118307D02*
X201181D01*
X237402Y46260D02*
X240551D01*
X242327Y44484D01*
X198031Y112008D02*
X201181D01*
X166811Y159764D02*
X177146D01*
X177284D02*
X192146D01*
X235433Y37205D02*
X237209Y38980D01*
X31299Y260433D02*
Y262937D01*
X41339Y248622D02*
Y252559D01*
X43110Y254331D01*
X282972Y85827D02*
X288779D01*
X242126Y66472D02*
X242327Y66272D01*
X246063Y30118D02*
Y31271D01*
X5217Y36024D02*
X5217Y36024D01*
X237209Y59839D02*
Y66272D01*
X247445Y72445D02*
X250787Y75787D01*
X247445Y66272D02*
Y72445D01*
X244886Y74610D02*
X246063Y75787D01*
X244886Y66272D02*
Y74610D01*
X241339Y72244D02*
Y75787D01*
Y72244D02*
X242126Y71457D01*
Y66472D02*
Y71457D01*
X234650Y73823D02*
X236614Y75787D01*
X231890Y72638D02*
Y75787D01*
Y72638D02*
X232090Y72437D01*
X227165Y72244D02*
Y75787D01*
X232090Y37004D02*
X233071Y36024D01*
X232090Y37004D02*
Y42059D01*
X229532Y34453D02*
Y42059D01*
X228346Y33268D02*
X229532Y34453D01*
X228346Y33268D02*
X228346D01*
X234650Y42059D02*
Y48618D01*
X237209Y38980D02*
Y42059D01*
X239768Y37996D02*
Y42059D01*
X242327D02*
Y44484D01*
X247445Y38185D02*
X248425Y37205D01*
X247445Y38185D02*
Y42059D01*
X243701Y37205D02*
X244886Y38390D01*
Y42059D01*
X216929Y230610D02*
X221161D01*
X100000Y272244D02*
X100000Y272244D01*
X172835Y217913D02*
X175984D01*
X145374Y163583D02*
X150000D01*
X145079Y163878D02*
X145374Y163583D01*
X144882Y176181D02*
X144882Y176181D01*
X144882Y176181D02*
Y185531D01*
X119291Y163976D02*
X119291Y163976D01*
X169095Y222835D02*
Y227008D01*
X162205Y241535D02*
X162598Y241929D01*
X19291Y263976D02*
Y266339D01*
X224799Y169173D02*
Y175390D01*
X222831Y169173D02*
Y178539D01*
X222835Y178543D01*
X212319Y161929D02*
X217555D01*
X212268Y161878D02*
X212319Y161929D01*
X226768Y143508D02*
Y150748D01*
Y143508D02*
X226772Y143504D01*
X-28543Y120791D02*
Y123130D01*
X-31724Y117610D02*
X-28543Y120791D01*
X-63949Y106067D02*
X-63834Y105952D01*
X-85433Y112008D02*
X-85398Y111972D01*
X-75590Y119882D02*
X-72709Y117000D01*
X-80709Y122638D02*
X-75590D01*
Y119882D02*
Y122638D01*
X-72709Y114827D02*
Y117000D01*
X57087Y102559D02*
X57087D01*
X60236D02*
X60236D01*
X63386D02*
X63386D01*
X60236Y99410D02*
X60236D01*
X57087D02*
X57087D01*
X53937D02*
X53937D01*
Y102559D02*
Y102559D01*
X53937D02*
X53937Y102559D01*
X-81201Y111811D02*
X-75492D01*
X-81398Y112008D02*
X-81201Y111811D01*
X-85335Y112008D02*
X-81398D01*
X-85433D02*
Y114370D01*
Y109646D02*
Y112008D01*
X-75197Y97047D02*
X-72638Y99606D01*
X-72709Y103213D02*
X-72638Y103142D01*
X-72709Y150457D02*
X-72638Y150386D01*
X-75197Y144291D02*
X-72638Y146850D01*
X-85433Y156890D02*
Y159252D01*
Y161614D01*
X-85335Y159252D02*
X-81398D01*
X-81201Y159055D01*
X-75492D01*
X-72709Y162071D02*
Y164244D01*
X-75590Y167126D02*
Y169882D01*
X-80709D02*
X-75590D01*
Y167126D02*
X-72709Y164244D01*
X-85433Y159252D02*
X-85398Y159216D01*
X-63949Y153311D02*
X-63834Y153196D01*
X-72709Y8724D02*
X-72638Y8653D01*
X-75197Y2559D02*
X-72638Y5118D01*
X-85433Y15157D02*
Y17520D01*
Y19882D01*
X-85335Y17520D02*
X-81398D01*
X-81201Y17323D01*
X-75492D01*
X-72709Y20339D02*
Y22512D01*
X-75590Y25394D02*
Y28150D01*
X-80709D02*
X-75590D01*
Y25394D02*
X-72709Y22512D01*
X-85433Y17520D02*
X-85398Y17484D01*
X-63949Y11579D02*
X-63834Y11464D01*
X-72709Y55968D02*
X-72638Y55898D01*
X-75197Y49803D02*
X-72638Y52362D01*
X-85433Y62402D02*
Y64764D01*
Y67126D01*
X-85335Y64764D02*
X-81398D01*
X-81201Y64567D01*
X-75492D01*
X-72709Y67583D02*
Y69756D01*
X-75590Y72638D02*
Y75394D01*
X-80709D02*
X-75590D01*
Y72638D02*
X-72709Y69756D01*
X-85433Y64764D02*
X-85398Y64728D01*
X-63949Y58823D02*
X-63834Y58708D01*
X24016Y263189D02*
Y266339D01*
X60039Y271598D02*
X71402D01*
X5118Y259992D02*
Y266339D01*
X36417Y271598D02*
X36559Y271457D01*
X393Y273424D02*
X394Y273425D01*
X-0Y273424D02*
X393D01*
X43110Y254331D02*
Y262937D01*
X45669Y257677D02*
Y262937D01*
Y257677D02*
X49213Y254134D01*
Y246654D02*
Y254134D01*
X165748Y160827D02*
X166811Y159764D01*
X165748Y160827D02*
Y163189D01*
X165748Y163441D02*
Y165551D01*
X164567Y166732D02*
X165748Y165551D01*
X164567Y166732D02*
Y168307D01*
X164429Y168504D02*
X166408D01*
X166929Y167982D01*
X168503D01*
X169617Y169095D01*
Y170669D01*
X168503Y171782D02*
X169617Y170669D01*
X166929Y171782D02*
X168503D01*
X166408Y171260D02*
X166929Y171782D01*
X164429Y171260D02*
X166408D01*
X217555Y154055D02*
X217717Y153894D01*
Y149803D02*
Y153894D01*
X216073Y156024D02*
X217555D01*
X213583Y153533D02*
X216073Y156024D01*
X214291Y157992D02*
X217555D01*
X211811Y155512D02*
X214291Y157992D01*
X211768Y169992D02*
X211811D01*
X283130Y119291D02*
X288976D01*
X283130Y146850D02*
X288976D01*
X283130Y135039D02*
X288976D01*
X283130Y123228D02*
X288976D01*
X283130Y138976D02*
X288976D01*
X283130Y150787D02*
X288976D01*
X283465Y127165D02*
X288976D01*
X283130Y154724D02*
X288976D01*
X283130Y158661D02*
X288976D01*
X283130Y142913D02*
X288976D01*
X283130Y115354D02*
X288976D01*
X283130Y162598D02*
X288976D01*
X283130Y131102D02*
X288976D01*
X235980Y159961D02*
X236059Y160039D01*
X244961Y154055D02*
X245276Y153740D01*
X248425Y33268D02*
Y37205D01*
X229532Y66272D02*
Y69878D01*
X227165Y72244D02*
X229532Y69878D01*
X233071Y33268D02*
Y36024D01*
X243701Y33268D02*
X244066D01*
X246063Y31271D01*
X243701Y33268D02*
Y37205D01*
X232090Y42059D02*
Y51177D01*
X229532Y59248D02*
Y66272D01*
X234650D02*
Y73823D01*
X232090Y66272D02*
Y72437D01*
X229532Y59248D02*
X234646Y54134D01*
X232090Y60626D02*
Y66272D01*
X234650Y59711D02*
Y66272D01*
X232090Y60626D02*
X237402Y55315D01*
Y50984D02*
Y55315D01*
X234650Y59711D02*
X239370Y54990D01*
X288582Y86023D02*
X288779Y85827D01*
X228346Y32874D02*
Y33268D01*
X1461Y49524D02*
Y55102D01*
X4035Y46949D02*
X8268D01*
X1461Y49524D02*
X3150Y47835D01*
X3150D02*
X4035Y46949D01*
X7874Y50984D02*
X9843Y49016D01*
Y46949D02*
Y49016D01*
X7874Y50984D02*
Y53740D01*
X14567Y46949D02*
Y49085D01*
X16142Y46949D02*
Y49316D01*
X14567Y49085D02*
X16929Y51447D01*
Y53740D01*
X16582Y49756D02*
X17670D01*
X16142Y49316D02*
X16582Y49756D01*
X161811Y56890D02*
X163386Y55315D01*
X57116Y248593D02*
X57480Y248228D01*
X57116Y262572D02*
X57480Y262937D01*
X184252Y178150D02*
Y185531D01*
X192126Y178150D02*
Y185531D01*
X168504Y179331D02*
Y185531D01*
X186417Y222835D02*
Y227008D01*
X177756Y223622D02*
Y227008D01*
X175984Y217913D02*
Y221850D01*
X177756Y223622D01*
X13386Y148228D02*
X25394D01*
X100000Y272244D02*
X109055D01*
X239370Y48622D02*
Y54990D01*
X282972Y81890D02*
X288976D01*
X57116Y248593D02*
Y262572D01*
X150787Y241535D02*
X162205D01*
X100000Y262795D02*
X109449D01*
X229532Y42059D02*
Y53350D01*
X71402Y271598D02*
X78347Y278543D01*
X-1575Y245079D02*
Y249803D01*
X-20732Y280838D02*
X-15286D01*
X-6693Y272244D01*
Y258071D02*
Y272244D01*
Y258071D02*
X-5512Y256890D01*
Y249803D02*
Y256890D01*
X-83465Y200591D02*
X-79528D01*
X394Y270276D02*
Y273425D01*
X17670Y49756D02*
X22047Y54134D01*
X-63834Y102952D02*
Y105952D01*
Y55708D02*
Y58708D01*
X177165Y159646D02*
X177284Y159764D01*
X244882Y154055D02*
X244961D01*
X255118Y152559D02*
X256299Y153740D01*
X-63834Y8464D02*
Y11464D01*
X288779Y85827D02*
Y85827D01*
X-63834Y150196D02*
Y153196D01*
D26*
X-26138Y61713D02*
D03*
X-26138Y56791D02*
D03*
X13240Y88287D02*
D03*
X13240Y93209D02*
D03*
X-26132Y88287D02*
D03*
X-26132Y93209D02*
D03*
X-26136Y25295D02*
D03*
X-26136Y30217D02*
D03*
D28*
X198031Y55315D02*
D03*
Y58464D02*
D03*
X131890Y55315D02*
D03*
X135039D02*
D03*
X141339D02*
D03*
X144488D02*
D03*
X147638D02*
D03*
X150787D02*
D03*
X157087D02*
D03*
X160236D02*
D03*
X166535D02*
D03*
Y58464D02*
D03*
X172835Y55315D02*
D03*
X175984D02*
D03*
X182283D02*
D03*
Y58464D02*
D03*
X188583Y55315D02*
D03*
X191732D02*
D03*
X185433D02*
D03*
X179134D02*
D03*
X169685D02*
D03*
X163386D02*
D03*
X153937D02*
D03*
X138189D02*
D03*
X191732Y58464D02*
D03*
X188583D02*
D03*
X185433D02*
D03*
X179134D02*
D03*
X175984D02*
D03*
X172835D02*
D03*
X169685D02*
D03*
X163386D02*
D03*
X160236D02*
D03*
X157087D02*
D03*
X153937D02*
D03*
X150787D02*
D03*
X147638D02*
D03*
X144488D02*
D03*
X141339D02*
D03*
X138189D02*
D03*
X135039D02*
D03*
X131890D02*
D03*
X198031Y61614D02*
D03*
X194882D02*
D03*
X191732D02*
D03*
X188583D02*
D03*
X185433D02*
D03*
X182283D02*
D03*
X179134D02*
D03*
X175984D02*
D03*
X172835D02*
D03*
X169685D02*
D03*
X166535D02*
D03*
X163386D02*
D03*
X160236D02*
D03*
X157087D02*
D03*
X153937D02*
D03*
X150787D02*
D03*
X147638D02*
D03*
X144488D02*
D03*
X141339D02*
D03*
X138189D02*
D03*
X135039D02*
D03*
X131890D02*
D03*
X198031Y64764D02*
D03*
X194882D02*
D03*
X191732D02*
D03*
X188583D02*
D03*
X185433D02*
D03*
X182283D02*
D03*
X179134D02*
D03*
X175984D02*
D03*
X172835D02*
D03*
X169685D02*
D03*
X166535D02*
D03*
X163386D02*
D03*
X160236D02*
D03*
X157087D02*
D03*
X153937D02*
D03*
X150787D02*
D03*
X147638D02*
D03*
X144488D02*
D03*
X141339D02*
D03*
X138189D02*
D03*
X135039D02*
D03*
X131890D02*
D03*
X198031Y67913D02*
D03*
X194882D02*
D03*
X191732D02*
D03*
X188583D02*
D03*
X185433D02*
D03*
X182283D02*
D03*
X179134D02*
D03*
X175984D02*
D03*
X172835D02*
D03*
X169685D02*
D03*
X166535D02*
D03*
X163386D02*
D03*
X160236D02*
D03*
X157087D02*
D03*
X153937D02*
D03*
X150787D02*
D03*
X147638D02*
D03*
X144488D02*
D03*
X141339D02*
D03*
X138189D02*
D03*
X135039D02*
D03*
X131890D02*
D03*
X198031Y71063D02*
D03*
X194882D02*
D03*
X191732D02*
D03*
X188583D02*
D03*
X185433D02*
D03*
X182283D02*
D03*
X179134D02*
D03*
X175984D02*
D03*
X172835D02*
D03*
X169685D02*
D03*
X166535D02*
D03*
X163386D02*
D03*
X160236D02*
D03*
X157087D02*
D03*
X153937D02*
D03*
X150787D02*
D03*
X147638D02*
D03*
X144488D02*
D03*
X141339D02*
D03*
X138189D02*
D03*
X135039D02*
D03*
X131890D02*
D03*
X198031Y74213D02*
D03*
X194882D02*
D03*
X191732D02*
D03*
X188583D02*
D03*
X185433D02*
D03*
X182283D02*
D03*
X179134D02*
D03*
X175984D02*
D03*
X172835D02*
D03*
X169685D02*
D03*
X166535D02*
D03*
X163386D02*
D03*
X160236D02*
D03*
X157087D02*
D03*
X153937D02*
D03*
X150787D02*
D03*
X147638D02*
D03*
X144488D02*
D03*
X141339D02*
D03*
X138189D02*
D03*
X135039D02*
D03*
X131890D02*
D03*
X198031Y77362D02*
D03*
X194882D02*
D03*
X191732D02*
D03*
X188583D02*
D03*
X185433D02*
D03*
X182283D02*
D03*
X179134D02*
D03*
X175984D02*
D03*
X172835D02*
D03*
X169685D02*
D03*
X166535D02*
D03*
X163386D02*
D03*
X160236D02*
D03*
X157087D02*
D03*
X153937D02*
D03*
X150787D02*
D03*
X147638D02*
D03*
X144488D02*
D03*
X141339D02*
D03*
X138189D02*
D03*
X135039D02*
D03*
X131890D02*
D03*
X198031Y80512D02*
D03*
X194882D02*
D03*
X191732D02*
D03*
X188583D02*
D03*
X185433D02*
D03*
X182283D02*
D03*
X179134D02*
D03*
X175984D02*
D03*
X172835D02*
D03*
X169685D02*
D03*
X166535D02*
D03*
X163386D02*
D03*
X160236D02*
D03*
X157087D02*
D03*
X153937D02*
D03*
X150787D02*
D03*
X147638D02*
D03*
X144488D02*
D03*
X141339D02*
D03*
X138189D02*
D03*
X135039D02*
D03*
X131890D02*
D03*
X198031Y83661D02*
D03*
X194882D02*
D03*
X191732D02*
D03*
X188583D02*
D03*
X185433D02*
D03*
X182283D02*
D03*
X179134D02*
D03*
X175984D02*
D03*
X172835D02*
D03*
X169685D02*
D03*
X166535D02*
D03*
X163386D02*
D03*
X160236D02*
D03*
X157087D02*
D03*
X153937D02*
D03*
X150787D02*
D03*
X147638D02*
D03*
X144488D02*
D03*
X141339D02*
D03*
X138189D02*
D03*
X135039D02*
D03*
X131890D02*
D03*
X198031Y86811D02*
D03*
X194882D02*
D03*
X191732D02*
D03*
X188583D02*
D03*
X185433D02*
D03*
X182283D02*
D03*
X179134D02*
D03*
X175984D02*
D03*
X172835D02*
D03*
X169685D02*
D03*
X166535D02*
D03*
X163386D02*
D03*
X160236D02*
D03*
X157087D02*
D03*
X153937D02*
D03*
X150787D02*
D03*
X147638D02*
D03*
X144488D02*
D03*
X141339D02*
D03*
X138189D02*
D03*
X135039D02*
D03*
X131890D02*
D03*
X198031Y89961D02*
D03*
X194882D02*
D03*
X191732D02*
D03*
X188583D02*
D03*
X185433D02*
D03*
X182283D02*
D03*
X179134D02*
D03*
X175984D02*
D03*
X172835D02*
D03*
X169685D02*
D03*
X166535D02*
D03*
X163386D02*
D03*
X160236D02*
D03*
X157087D02*
D03*
X153937D02*
D03*
X150787D02*
D03*
X147638D02*
D03*
X144488D02*
D03*
X141339D02*
D03*
X138189D02*
D03*
X135039D02*
D03*
X131890D02*
D03*
X198031Y93110D02*
D03*
X194882D02*
D03*
X191732D02*
D03*
X188583D02*
D03*
X185433D02*
D03*
X182283D02*
D03*
X179134D02*
D03*
X175984D02*
D03*
X172835D02*
D03*
X169685D02*
D03*
X166535D02*
D03*
X163386D02*
D03*
X160236D02*
D03*
X157087D02*
D03*
X153937D02*
D03*
X150787D02*
D03*
X147638D02*
D03*
X144488D02*
D03*
X141339D02*
D03*
X138189D02*
D03*
X135039D02*
D03*
X131890D02*
D03*
X198031Y96260D02*
D03*
X194882D02*
D03*
X191732D02*
D03*
X188583D02*
D03*
X185433D02*
D03*
X182283D02*
D03*
X179134D02*
D03*
X175984D02*
D03*
X172835D02*
D03*
X169685D02*
D03*
X166535D02*
D03*
X163386D02*
D03*
X160236D02*
D03*
X157087D02*
D03*
X153937D02*
D03*
X150787D02*
D03*
X147638D02*
D03*
X144488D02*
D03*
X141339D02*
D03*
X138189D02*
D03*
X135039D02*
D03*
X131890D02*
D03*
X198031Y99409D02*
D03*
X194882D02*
D03*
X191732D02*
D03*
X188583D02*
D03*
X185433D02*
D03*
X182283D02*
D03*
X179134D02*
D03*
X175984D02*
D03*
X172835D02*
D03*
X169685D02*
D03*
X166535D02*
D03*
X163386D02*
D03*
X160236D02*
D03*
X157087D02*
D03*
X153937D02*
D03*
X150787D02*
D03*
X147638D02*
D03*
X144488D02*
D03*
X141339D02*
D03*
X138189D02*
D03*
X135039D02*
D03*
X131890D02*
D03*
X198031Y102559D02*
D03*
X194882D02*
D03*
X191732D02*
D03*
X188583D02*
D03*
X185433D02*
D03*
X182283D02*
D03*
X179134D02*
D03*
X175984D02*
D03*
X172835D02*
D03*
X169685D02*
D03*
X166535D02*
D03*
X163386D02*
D03*
X160236D02*
D03*
X157087D02*
D03*
X153937D02*
D03*
X150787D02*
D03*
X147638D02*
D03*
X144488D02*
D03*
X141339D02*
D03*
X138189D02*
D03*
X135039D02*
D03*
X131890D02*
D03*
X198031Y105709D02*
D03*
X194882D02*
D03*
X191732D02*
D03*
X188583D02*
D03*
X185433D02*
D03*
X182283D02*
D03*
X179134D02*
D03*
X175984D02*
D03*
X172835D02*
D03*
X169685D02*
D03*
X166535D02*
D03*
X163386D02*
D03*
X160236D02*
D03*
X157087D02*
D03*
X153937D02*
D03*
X150787D02*
D03*
X147638D02*
D03*
X144488D02*
D03*
X141339D02*
D03*
X138189D02*
D03*
X135039D02*
D03*
X131890D02*
D03*
X198031Y108858D02*
D03*
X194882D02*
D03*
X191732D02*
D03*
X188583D02*
D03*
X185433D02*
D03*
X182283D02*
D03*
X179134D02*
D03*
X175984D02*
D03*
X172835D02*
D03*
X169685D02*
D03*
X166535D02*
D03*
X163386D02*
D03*
X160236D02*
D03*
X157087D02*
D03*
X153937D02*
D03*
X150787D02*
D03*
X147638D02*
D03*
X144488D02*
D03*
X141339D02*
D03*
X138189D02*
D03*
X135039D02*
D03*
X131890D02*
D03*
X198031Y112008D02*
D03*
X194882D02*
D03*
X191732D02*
D03*
X188583D02*
D03*
X185433D02*
D03*
X182283D02*
D03*
X179134D02*
D03*
X175984D02*
D03*
X172835D02*
D03*
X169685D02*
D03*
X166535D02*
D03*
X163386D02*
D03*
X160236D02*
D03*
X157087D02*
D03*
X153937D02*
D03*
X150787D02*
D03*
X147638D02*
D03*
X144488D02*
D03*
X141339D02*
D03*
X138189D02*
D03*
X135039D02*
D03*
X131890D02*
D03*
X198031Y115157D02*
D03*
X194882D02*
D03*
X191732D02*
D03*
X188583D02*
D03*
X185433D02*
D03*
X182283D02*
D03*
X179134D02*
D03*
X175984D02*
D03*
X172835D02*
D03*
X169685D02*
D03*
X166535D02*
D03*
X163386D02*
D03*
X160236D02*
D03*
X157087D02*
D03*
X153937D02*
D03*
X150787D02*
D03*
X147638D02*
D03*
X144488D02*
D03*
X141339D02*
D03*
X138189D02*
D03*
X135039D02*
D03*
X131890D02*
D03*
X198031Y118307D02*
D03*
X194882D02*
D03*
X191732D02*
D03*
X188583D02*
D03*
X185433D02*
D03*
X182283D02*
D03*
X179134D02*
D03*
X175984D02*
D03*
X172835D02*
D03*
X169685D02*
D03*
X166535D02*
D03*
X163386D02*
D03*
X160236D02*
D03*
X157087D02*
D03*
X153937D02*
D03*
X150787D02*
D03*
X147638D02*
D03*
X144488D02*
D03*
X141339D02*
D03*
X138189D02*
D03*
X135039D02*
D03*
X131890D02*
D03*
X198031Y121457D02*
D03*
X194882D02*
D03*
X191732D02*
D03*
X188583D02*
D03*
X185433D02*
D03*
X182283D02*
D03*
X179134D02*
D03*
X175984D02*
D03*
X172835D02*
D03*
X169685D02*
D03*
X166535D02*
D03*
X163386D02*
D03*
X160236D02*
D03*
X157087D02*
D03*
X153937D02*
D03*
X150787D02*
D03*
X147638D02*
D03*
X144488D02*
D03*
X141339D02*
D03*
X138189D02*
D03*
X135039D02*
D03*
X131890D02*
D03*
X194882Y58464D02*
D03*
Y55315D02*
D03*
D29*
X137698Y129492D02*
D03*
X142818D02*
D03*
X122760Y125700D02*
D03*
X117640D02*
D03*
D30*
X112200Y130660D02*
D03*
Y125540D02*
D03*
X135618Y222992D02*
D03*
Y228112D02*
D03*
X131223Y222992D02*
D03*
Y228112D02*
D03*
D31*
X250787Y228937D02*
D03*
D32*
X241732Y251772D02*
D03*
X250787D02*
D03*
X259842D02*
D03*
D33*
X146063Y221457D02*
D03*
Y213583D02*
D03*
D34*
X162598Y241929D02*
D03*
D35*
X161811Y237402D02*
D03*
D36*
X203642Y241339D02*
D03*
D37*
Y231142D02*
D03*
D38*
X162697Y232874D02*
D03*
D39*
X199409Y227008D02*
D03*
X195079D02*
D03*
X190748D02*
D03*
X186417D02*
D03*
X182087D02*
D03*
X177756D02*
D03*
X173425D02*
D03*
X169095D02*
D03*
D40*
X33661Y152953D02*
D03*
X25394D02*
D03*
Y146653D02*
D03*
Y148228D02*
D03*
Y149803D02*
D03*
Y151378D02*
D03*
X33661D02*
D03*
Y149803D02*
D03*
Y148228D02*
D03*
Y146653D02*
D03*
D41*
X29528Y149803D02*
D03*
D42*
X243504Y119882D02*
D03*
X239764D02*
D03*
X236024D02*
D03*
Y109646D02*
D03*
X243504D02*
D03*
D43*
X223819Y195276D02*
D03*
X228937D02*
D03*
X226378Y203543D02*
D03*
D44*
X12992Y39173D02*
D03*
D45*
X8268Y31398D02*
D03*
X9843D02*
D03*
X11417D02*
D03*
X12992D02*
D03*
X14567D02*
D03*
X16142D02*
D03*
X17717D02*
D03*
Y46949D02*
D03*
X16142D02*
D03*
X14567D02*
D03*
X12992D02*
D03*
X11417D02*
D03*
X9843D02*
D03*
X8268D02*
D03*
D46*
X20768Y43898D02*
D03*
Y42323D02*
D03*
Y40748D02*
D03*
Y39173D02*
D03*
Y37598D02*
D03*
Y36024D02*
D03*
Y34449D02*
D03*
X5217D02*
D03*
Y36024D02*
D03*
Y37598D02*
D03*
Y39173D02*
D03*
Y40748D02*
D03*
Y42323D02*
D03*
Y43898D02*
D03*
D47*
X-30138Y54724D02*
D03*
X-27697D02*
D03*
X-26122D02*
D03*
X-24547D02*
D03*
X-33287D02*
D03*
X-31713Y63779D02*
D03*
X-24547D02*
D03*
X-26122D02*
D03*
X-27697D02*
D03*
X-30138D02*
D03*
X-33287D02*
D03*
X6083Y95276D02*
D03*
X9232D02*
D03*
X11673D02*
D03*
X13248D02*
D03*
X14823D02*
D03*
X7658D02*
D03*
X6083Y86221D02*
D03*
X14823D02*
D03*
X13248D02*
D03*
X11673D02*
D03*
X9232D02*
D03*
X-33287Y95276D02*
D03*
X-30138D02*
D03*
X-27697D02*
D03*
X-26122D02*
D03*
X-24547D02*
D03*
X-31713D02*
D03*
X-33287Y86221D02*
D03*
X-24547D02*
D03*
X-26122D02*
D03*
X-27697D02*
D03*
X-30138D02*
D03*
X-33287Y32283D02*
D03*
X-30138D02*
D03*
X-27697D02*
D03*
X-26122D02*
D03*
X-24547D02*
D03*
X-31713D02*
D03*
X-33287Y23228D02*
D03*
X-24547D02*
D03*
X-26122D02*
D03*
X-27697D02*
D03*
X-30138D02*
D03*
D48*
X-34246Y60189D02*
D03*
Y58614D02*
D03*
X5124Y90110D02*
D03*
Y91685D02*
D03*
X-34246Y90110D02*
D03*
Y91685D02*
D03*
Y27118D02*
D03*
Y28693D02*
D03*
D49*
X-63878Y17323D02*
D03*
Y15354D02*
D03*
X-63878Y13386D02*
D03*
Y11417D02*
D03*
X-75492D02*
D03*
Y13386D02*
D03*
Y15354D02*
D03*
Y17323D02*
D03*
X-63878Y159055D02*
D03*
Y157087D02*
D03*
X-63878Y155118D02*
D03*
Y153150D02*
D03*
X-75492D02*
D03*
Y155118D02*
D03*
Y157087D02*
D03*
Y159055D02*
D03*
X-31398Y131890D02*
D03*
Y129921D02*
D03*
Y127953D02*
D03*
Y125984D02*
D03*
X-19783D02*
D03*
Y127953D02*
D03*
X-19783Y129921D02*
D03*
Y131890D02*
D03*
X-75492Y111811D02*
D03*
Y109843D02*
D03*
Y107874D02*
D03*
Y105905D02*
D03*
X-63878D02*
D03*
Y107874D02*
D03*
X-63878Y109843D02*
D03*
Y111811D02*
D03*
X-75492Y64567D02*
D03*
Y62598D02*
D03*
Y60630D02*
D03*
Y58661D02*
D03*
X-63878D02*
D03*
Y60630D02*
D03*
X-63878Y62598D02*
D03*
Y64567D02*
D03*
D50*
X-66732Y20177D02*
D03*
X-68701D02*
D03*
X-70669D02*
D03*
X-72638D02*
D03*
Y8563D02*
D03*
X-70669D02*
D03*
X-68701Y8563D02*
D03*
X-66732D02*
D03*
Y161909D02*
D03*
X-68701D02*
D03*
X-70669D02*
D03*
X-72638D02*
D03*
Y150295D02*
D03*
X-70669D02*
D03*
X-68701Y150295D02*
D03*
X-66732D02*
D03*
X-22638Y123130D02*
D03*
X-24606D02*
D03*
X-26575Y123130D02*
D03*
X-28543D02*
D03*
Y134744D02*
D03*
X-26575D02*
D03*
X-24606D02*
D03*
X-22638D02*
D03*
X-66732Y103051D02*
D03*
X-68701D02*
D03*
X-70669Y103051D02*
D03*
X-72638D02*
D03*
Y114665D02*
D03*
X-70669D02*
D03*
X-68701D02*
D03*
X-66732D02*
D03*
Y55807D02*
D03*
X-68701D02*
D03*
X-70669Y55807D02*
D03*
X-72638D02*
D03*
Y67421D02*
D03*
X-70669D02*
D03*
X-68701D02*
D03*
X-66732D02*
D03*
D51*
X-69685Y14370D02*
D03*
Y156102D02*
D03*
X-25591Y128937D02*
D03*
X-69685Y108858D02*
D03*
Y61614D02*
D03*
D52*
X-75590Y32087D02*
D03*
Y28150D02*
D03*
X243701Y29331D02*
D03*
Y33268D02*
D03*
X211768Y169992D02*
D03*
Y173929D02*
D03*
X182283Y213976D02*
D03*
Y217913D02*
D03*
X9843Y266339D02*
D03*
Y270276D02*
D03*
X6299Y235630D02*
D03*
Y239567D02*
D03*
X11024Y235630D02*
D03*
Y239567D02*
D03*
X31496Y239567D02*
D03*
Y235630D02*
D03*
X-75590Y169882D02*
D03*
Y173819D02*
D03*
X-85433Y165551D02*
D03*
Y161614D02*
D03*
X-80709Y169882D02*
D03*
Y173819D02*
D03*
X-85433Y156890D02*
D03*
Y152953D02*
D03*
Y109646D02*
D03*
Y105709D02*
D03*
X-80709Y126575D02*
D03*
Y122638D02*
D03*
X-85433Y118307D02*
D03*
Y114370D02*
D03*
Y15157D02*
D03*
Y11220D02*
D03*
Y19882D02*
D03*
Y23819D02*
D03*
X-80709Y32087D02*
D03*
Y28150D02*
D03*
Y75394D02*
D03*
Y79331D02*
D03*
X-75590Y75394D02*
D03*
Y79331D02*
D03*
X-85433Y58465D02*
D03*
Y62402D02*
D03*
Y67126D02*
D03*
Y71063D02*
D03*
X56693Y128543D02*
D03*
Y124606D02*
D03*
X69685D02*
D03*
Y128543D02*
D03*
X61024Y124606D02*
D03*
Y128543D02*
D03*
X52362Y137205D02*
D03*
Y141142D02*
D03*
X44488D02*
D03*
Y137205D02*
D03*
X150028Y163594D02*
D03*
Y159658D02*
D03*
X249016Y112795D02*
D03*
Y116732D02*
D03*
X221654Y42717D02*
D03*
Y46654D02*
D03*
X272835Y-2165D02*
D03*
Y1772D02*
D03*
X248425Y33268D02*
D03*
Y29331D02*
D03*
X228346Y33268D02*
D03*
Y29331D02*
D03*
X233071Y33268D02*
D03*
Y29331D02*
D03*
X272047Y173819D02*
D03*
Y169882D02*
D03*
X175984Y213976D02*
D03*
Y217913D02*
D03*
X216535Y199016D02*
D03*
Y195079D02*
D03*
X21654Y158465D02*
D03*
Y154528D02*
D03*
X44488Y128543D02*
D03*
Y124606D02*
D03*
X209055Y85630D02*
D03*
Y81693D02*
D03*
Y93504D02*
D03*
Y89567D02*
D03*
Y76181D02*
D03*
Y72244D02*
D03*
Y101378D02*
D03*
Y105315D02*
D03*
Y62795D02*
D03*
Y66732D02*
D03*
Y126969D02*
D03*
Y123031D02*
D03*
X120866Y100591D02*
D03*
Y104528D02*
D03*
Y91142D02*
D03*
Y95079D02*
D03*
Y81693D02*
D03*
Y85630D02*
D03*
X82677Y269094D02*
D03*
Y265158D02*
D03*
X-37795Y132087D02*
D03*
Y136024D02*
D03*
X-75590Y126575D02*
D03*
Y122638D02*
D03*
X150787Y241535D02*
D03*
Y237598D02*
D03*
X87008Y265158D02*
D03*
Y269094D02*
D03*
X276772Y169882D02*
D03*
Y173819D02*
D03*
X120866Y110039D02*
D03*
Y113976D02*
D03*
Y73032D02*
D03*
Y69095D02*
D03*
Y63583D02*
D03*
Y59646D02*
D03*
X227165Y75787D02*
D03*
Y79724D02*
D03*
X231890Y75787D02*
D03*
Y79724D02*
D03*
X236614Y75787D02*
D03*
Y79724D02*
D03*
X241339Y75787D02*
D03*
Y79724D02*
D03*
X246063Y75787D02*
D03*
Y79724D02*
D03*
X250787Y75787D02*
D03*
Y79724D02*
D03*
X5118Y266339D02*
D03*
Y270276D02*
D03*
X24016Y270276D02*
D03*
Y266339D02*
D03*
X19291Y266339D02*
D03*
Y270276D02*
D03*
X394Y266339D02*
D03*
Y270276D02*
D03*
X14567D02*
D03*
Y266339D02*
D03*
X69685Y141142D02*
D03*
Y137205D02*
D03*
X100000Y141142D02*
D03*
Y137205D02*
D03*
X65354Y141142D02*
D03*
Y137205D02*
D03*
X74016Y128543D02*
D03*
Y124606D02*
D03*
X91339D02*
D03*
Y128543D02*
D03*
X100000Y124606D02*
D03*
Y128543D02*
D03*
X95669Y137205D02*
D03*
Y141142D02*
D03*
X87008Y137205D02*
D03*
Y141142D02*
D03*
X82677Y137205D02*
D03*
Y141142D02*
D03*
X78347Y137205D02*
D03*
Y141142D02*
D03*
X74016Y137205D02*
D03*
Y141142D02*
D03*
X65354Y128543D02*
D03*
Y124606D02*
D03*
X78347Y128543D02*
D03*
Y124606D02*
D03*
X87008Y128543D02*
D03*
Y124606D02*
D03*
X82677Y128543D02*
D03*
Y124606D02*
D03*
X95669Y128543D02*
D03*
Y124606D02*
D03*
X52362Y128543D02*
D03*
Y124606D02*
D03*
X56693Y137205D02*
D03*
Y141142D02*
D03*
X61024Y137205D02*
D03*
Y141142D02*
D03*
X91339D02*
D03*
Y137205D02*
D03*
D53*
X201181Y169095D02*
D03*
Y161221D02*
D03*
X9055Y191142D02*
D03*
Y183268D02*
D03*
D54*
X-60236Y30118D02*
D03*
X-68898D02*
D03*
X-60236Y171850D02*
D03*
X-68898D02*
D03*
Y77362D02*
D03*
X-60236D02*
D03*
X-68898Y124606D02*
D03*
X-60236D02*
D03*
D55*
X280807Y111417D02*
D03*
X282972D02*
D03*
X23327Y190354D02*
D03*
X25492D02*
D03*
X41437Y181693D02*
D03*
X43602D02*
D03*
X11319Y204134D02*
D03*
X9154D02*
D03*
X11319Y213976D02*
D03*
X9154D02*
D03*
X30020Y190354D02*
D03*
X32185D02*
D03*
X39862D02*
D03*
X42028D02*
D03*
X18012D02*
D03*
X15846D02*
D03*
X282972Y115354D02*
D03*
X280807D02*
D03*
X282972Y119291D02*
D03*
X280807D02*
D03*
X282972Y123228D02*
D03*
X280807D02*
D03*
X282972Y138976D02*
D03*
X280807D02*
D03*
X282972Y127165D02*
D03*
X280807D02*
D03*
X282972Y142913D02*
D03*
X280807D02*
D03*
X282972Y131102D02*
D03*
X280807D02*
D03*
X282972Y146850D02*
D03*
X280807D02*
D03*
X282972Y135039D02*
D03*
X280807D02*
D03*
X282972Y150787D02*
D03*
X280807D02*
D03*
X282972Y154724D02*
D03*
X280807D02*
D03*
X282972Y158661D02*
D03*
X280807D02*
D03*
X282972Y162598D02*
D03*
X280807D02*
D03*
X31201Y275394D02*
D03*
X33366D02*
D03*
X43012D02*
D03*
X45177D02*
D03*
X54823D02*
D03*
X56988D02*
D03*
X282972Y85827D02*
D03*
X280807D02*
D03*
X282972Y81890D02*
D03*
X280807D02*
D03*
X222850Y145961D02*
D03*
X220685D02*
D03*
X21949Y146653D02*
D03*
X19783D02*
D03*
D56*
X-67520Y591D02*
D03*
X-56102D02*
D03*
X-67520Y142323D02*
D03*
X-56102D02*
D03*
Y95079D02*
D03*
X-67520D02*
D03*
X-13484Y115110D02*
D03*
X-24902D02*
D03*
X-56102Y47835D02*
D03*
X-67520D02*
D03*
D57*
X-40157Y49409D02*
D03*
X-33858D02*
D03*
X115748Y262795D02*
D03*
X109449D02*
D03*
X115748Y272244D02*
D03*
X109449D02*
D03*
X125591Y168307D02*
D03*
X119291D02*
D03*
X11811Y80905D02*
D03*
X18110D02*
D03*
X5512D02*
D03*
X-787D02*
D03*
X-27559D02*
D03*
X-21260D02*
D03*
X-33858D02*
D03*
X-40157D02*
D03*
X-27953Y17913D02*
D03*
X-21654D02*
D03*
X-33858D02*
D03*
X-40157D02*
D03*
X-27559Y49409D02*
D03*
X-21260D02*
D03*
X45669Y171063D02*
D03*
X39370D02*
D03*
X45669Y177362D02*
D03*
X39370D02*
D03*
X45669Y164764D02*
D03*
X39370D02*
D03*
X220866Y246654D02*
D03*
X227165D02*
D03*
X215118Y139961D02*
D03*
X221417D02*
D03*
D58*
X112598Y106299D02*
D03*
Y117717D02*
D03*
Y65354D02*
D03*
Y76772D02*
D03*
Y98819D02*
D03*
Y87402D02*
D03*
X217717Y121653D02*
D03*
Y133071D02*
D03*
Y109055D02*
D03*
Y97638D02*
D03*
Y70473D02*
D03*
Y59055D02*
D03*
Y78347D02*
D03*
Y89764D02*
D03*
D59*
X-53937Y162795D02*
D03*
Y154921D02*
D03*
Y21063D02*
D03*
Y13189D02*
D03*
Y107677D02*
D03*
Y115551D02*
D03*
X-9449Y128150D02*
D03*
Y136024D02*
D03*
X-53937Y60433D02*
D03*
Y68307D02*
D03*
X46063Y104921D02*
D03*
Y97047D02*
D03*
Y81299D02*
D03*
Y89173D02*
D03*
Y60827D02*
D03*
Y52953D02*
D03*
Y37205D02*
D03*
Y45079D02*
D03*
D60*
X-75197Y144291D02*
D03*
X-79134D02*
D03*
X74016Y199803D02*
D03*
X70079D02*
D03*
Y204134D02*
D03*
X74016D02*
D03*
Y208465D02*
D03*
X70079D02*
D03*
Y212795D02*
D03*
X74016D02*
D03*
Y217126D02*
D03*
X70079D02*
D03*
Y221457D02*
D03*
X74016D02*
D03*
X74803Y171457D02*
D03*
X70866D02*
D03*
X62992Y221457D02*
D03*
X59055D02*
D03*
Y235630D02*
D03*
X62992D02*
D03*
X62992Y230906D02*
D03*
X59055D02*
D03*
Y226181D02*
D03*
X62992D02*
D03*
X59055Y199803D02*
D03*
X62992D02*
D03*
Y204134D02*
D03*
X59055D02*
D03*
Y208465D02*
D03*
X62992D02*
D03*
Y212795D02*
D03*
X59055D02*
D03*
Y217126D02*
D03*
X62992D02*
D03*
X-5512Y245079D02*
D03*
X-1575D02*
D03*
X-79528Y195866D02*
D03*
X-75591D02*
D03*
X-79134Y97047D02*
D03*
X-75197D02*
D03*
X-22047Y108071D02*
D03*
X-25984D02*
D03*
X-35661Y117610D02*
D03*
X-31724D02*
D03*
X25961Y54102D02*
D03*
X22024D02*
D03*
X162992Y132480D02*
D03*
X166929D02*
D03*
X292913Y111417D02*
D03*
X288976D02*
D03*
Y115354D02*
D03*
X292913D02*
D03*
Y119291D02*
D03*
X288976D02*
D03*
Y123228D02*
D03*
X292913D02*
D03*
Y138976D02*
D03*
X288976D02*
D03*
Y127165D02*
D03*
X292913D02*
D03*
Y142913D02*
D03*
X288976D02*
D03*
Y131102D02*
D03*
X292913D02*
D03*
Y146850D02*
D03*
X288976D02*
D03*
Y135039D02*
D03*
X292913D02*
D03*
Y150787D02*
D03*
X288976D02*
D03*
Y154724D02*
D03*
X292913D02*
D03*
Y158661D02*
D03*
X288976D02*
D03*
Y162598D02*
D03*
X292913D02*
D03*
X225984Y239961D02*
D03*
X222047D02*
D03*
X-79134Y2559D02*
D03*
X-75197D02*
D03*
X127165Y44291D02*
D03*
X123228D02*
D03*
X139550Y149592D02*
D03*
X143487D02*
D03*
X146457Y44291D02*
D03*
X142520D02*
D03*
X183465Y132480D02*
D03*
X187402D02*
D03*
X166929Y44291D02*
D03*
X162992D02*
D03*
X124409Y132480D02*
D03*
X120472D02*
D03*
X193701Y44291D02*
D03*
X189764D02*
D03*
X170866D02*
D03*
X174803D02*
D03*
X196850Y132480D02*
D03*
X192913D02*
D03*
X205118D02*
D03*
X209055D02*
D03*
X180315Y44291D02*
D03*
X184252D02*
D03*
X100000Y262795D02*
D03*
X96063D02*
D03*
X13386Y148228D02*
D03*
X9449D02*
D03*
Y152953D02*
D03*
X13386D02*
D03*
X1461Y55102D02*
D03*
X-2476D02*
D03*
X-37795Y150197D02*
D03*
X-33858D02*
D03*
X-37795Y140748D02*
D03*
X-33858D02*
D03*
X-37795Y145473D02*
D03*
X-33858D02*
D03*
X100000Y272244D02*
D03*
X96063D02*
D03*
X169685Y163441D02*
D03*
X165748D02*
D03*
X144882Y176181D02*
D03*
X140945D02*
D03*
X156299Y163441D02*
D03*
X160236D02*
D03*
X137402Y156890D02*
D03*
X141339D02*
D03*
X292913Y81890D02*
D03*
X288976D02*
D03*
Y85827D02*
D03*
X292913D02*
D03*
X-79134Y49803D02*
D03*
X-75197D02*
D03*
X27559Y158465D02*
D03*
X31496D02*
D03*
X205512Y188778D02*
D03*
X209449D02*
D03*
X205512Y193109D02*
D03*
X209449D02*
D03*
X205512Y201378D02*
D03*
X209449D02*
D03*
X205512Y197441D02*
D03*
X209449D02*
D03*
X-79528Y200591D02*
D03*
X-75590D02*
D03*
X-1575Y249803D02*
D03*
X-5512D02*
D03*
Y236024D02*
D03*
X-1575D02*
D03*
D61*
X-11417Y1378D02*
D03*
X-27165D02*
D03*
D62*
X192126Y202264D02*
D03*
X184252D02*
D03*
X176378D02*
D03*
Y185531D02*
D03*
X184252D02*
D03*
X192126D02*
D03*
X168504Y202264D02*
D03*
X160630D02*
D03*
X152756D02*
D03*
X144882D02*
D03*
Y185531D02*
D03*
X152756D02*
D03*
X160630D02*
D03*
X168504D02*
D03*
D63*
X-24913Y157610D02*
D03*
X-2472D02*
D03*
D64*
X177146Y159764D02*
D03*
Y169764D02*
D03*
X192146Y159764D02*
D03*
Y169764D02*
D03*
D65*
X53937Y36417D02*
D03*
X57087D02*
D03*
X60236D02*
D03*
X63386D02*
D03*
X66535D02*
D03*
X69685D02*
D03*
X72835D02*
D03*
X75984D02*
D03*
X79134D02*
D03*
X82284D02*
D03*
X85433D02*
D03*
X88583D02*
D03*
X91732D02*
D03*
X94882D02*
D03*
X98032D02*
D03*
X101181D02*
D03*
X53937Y39567D02*
D03*
X57087D02*
D03*
X60236D02*
D03*
X63386D02*
D03*
X66535D02*
D03*
X69685D02*
D03*
X72835D02*
D03*
X75984D02*
D03*
X79134D02*
D03*
X82284D02*
D03*
X85433D02*
D03*
X88583D02*
D03*
X91732D02*
D03*
X94882D02*
D03*
X98032D02*
D03*
X101181D02*
D03*
X53937Y42717D02*
D03*
X57087D02*
D03*
X60236D02*
D03*
X63386D02*
D03*
X66535D02*
D03*
X69685D02*
D03*
X72835D02*
D03*
X75984D02*
D03*
X79134D02*
D03*
X82284D02*
D03*
X85433D02*
D03*
X88583D02*
D03*
X91732D02*
D03*
X94882D02*
D03*
X98032D02*
D03*
X101181D02*
D03*
X53937Y55315D02*
D03*
X57087D02*
D03*
X60236D02*
D03*
X63386D02*
D03*
X66535D02*
D03*
X69685D02*
D03*
X72835D02*
D03*
X75984D02*
D03*
X79134D02*
D03*
X82284D02*
D03*
X85433D02*
D03*
X88583D02*
D03*
X91732D02*
D03*
X94882D02*
D03*
X98032D02*
D03*
X101181D02*
D03*
X53937Y58465D02*
D03*
X57087D02*
D03*
X60236D02*
D03*
X63386D02*
D03*
X66535D02*
D03*
X69685D02*
D03*
X72835D02*
D03*
X75984D02*
D03*
X79134D02*
D03*
X82284D02*
D03*
X85433D02*
D03*
X88583D02*
D03*
X91732D02*
D03*
X94882D02*
D03*
X98032D02*
D03*
X101181D02*
D03*
X53937Y61614D02*
D03*
X57087D02*
D03*
X60236D02*
D03*
X63386D02*
D03*
X66535D02*
D03*
X69685D02*
D03*
X72835D02*
D03*
X75984D02*
D03*
X79134D02*
D03*
X82284D02*
D03*
X85433D02*
D03*
X88583D02*
D03*
X91732D02*
D03*
X94882D02*
D03*
X98032D02*
D03*
X101181D02*
D03*
Y105709D02*
D03*
X98032D02*
D03*
X94882D02*
D03*
X91732D02*
D03*
X88583D02*
D03*
X85433D02*
D03*
X82284D02*
D03*
X79134D02*
D03*
X75984D02*
D03*
X72835D02*
D03*
X69685D02*
D03*
X66535D02*
D03*
X63386D02*
D03*
X60236D02*
D03*
X57087D02*
D03*
X53937D02*
D03*
X101181Y102559D02*
D03*
X98032D02*
D03*
X94882D02*
D03*
X91732D02*
D03*
X88583D02*
D03*
X85433D02*
D03*
X82284D02*
D03*
X79134D02*
D03*
X75984D02*
D03*
X72835D02*
D03*
X69685D02*
D03*
X66535D02*
D03*
X63386D02*
D03*
X60236D02*
D03*
X57087D02*
D03*
X53937D02*
D03*
X101181Y99410D02*
D03*
X98032D02*
D03*
X94882D02*
D03*
X91732D02*
D03*
X88583D02*
D03*
X85433D02*
D03*
X82284D02*
D03*
X79134D02*
D03*
X75984D02*
D03*
X72835D02*
D03*
X69685D02*
D03*
X66535D02*
D03*
X63386D02*
D03*
X60236D02*
D03*
X57087D02*
D03*
X53937D02*
D03*
X101181Y86811D02*
D03*
X98032D02*
D03*
X94882D02*
D03*
X91732D02*
D03*
X88583D02*
D03*
X85433D02*
D03*
X82284D02*
D03*
X79134D02*
D03*
X75984D02*
D03*
X72835D02*
D03*
X69685D02*
D03*
X66535D02*
D03*
X63386D02*
D03*
X60236D02*
D03*
X57087D02*
D03*
X53937D02*
D03*
X101181Y83661D02*
D03*
X98032D02*
D03*
X94882D02*
D03*
X91732D02*
D03*
X88583D02*
D03*
X85433D02*
D03*
X82284D02*
D03*
X79134D02*
D03*
X75984D02*
D03*
X72835D02*
D03*
X69685D02*
D03*
X66535D02*
D03*
X63386D02*
D03*
X60236D02*
D03*
X57087D02*
D03*
X53937D02*
D03*
X101181Y80512D02*
D03*
X98032D02*
D03*
X94882D02*
D03*
X91732D02*
D03*
X88583D02*
D03*
X85433D02*
D03*
X82284D02*
D03*
X79134D02*
D03*
X75984D02*
D03*
X72835D02*
D03*
X69685D02*
D03*
X66535D02*
D03*
X63386D02*
D03*
X60236D02*
D03*
X57087D02*
D03*
X53937D02*
D03*
D66*
X145079Y170374D02*
D03*
Y163878D02*
D03*
X138976D02*
D03*
Y170374D02*
D03*
D67*
X235980Y154055D02*
D03*
Y156024D02*
D03*
Y157992D02*
D03*
Y159961D02*
D03*
Y161929D02*
D03*
Y163898D02*
D03*
Y165866D02*
D03*
X217555D02*
D03*
Y163898D02*
D03*
Y161929D02*
D03*
Y159961D02*
D03*
Y157992D02*
D03*
Y156024D02*
D03*
Y154055D02*
D03*
D68*
X232673Y150748D02*
D03*
X230705D02*
D03*
X228736D02*
D03*
X226768D02*
D03*
X224799D02*
D03*
X222831D02*
D03*
X220862D02*
D03*
Y169173D02*
D03*
X222831D02*
D03*
X224799D02*
D03*
X226768D02*
D03*
X228736D02*
D03*
X230705D02*
D03*
X232673D02*
D03*
D69*
X226768Y159961D02*
D03*
D70*
X164429Y171260D02*
D03*
Y169882D02*
D03*
Y168504D02*
D03*
X161555D02*
D03*
Y169882D02*
D03*
D71*
X161654Y171260D02*
D03*
D72*
X226972Y42059D02*
D03*
X229532D02*
D03*
X232090D02*
D03*
X234650D02*
D03*
X237209D02*
D03*
X239768D02*
D03*
X242327D02*
D03*
X244886D02*
D03*
X247445D02*
D03*
X250004D02*
D03*
X226972Y66272D02*
D03*
X229532D02*
D03*
X232090D02*
D03*
X234650D02*
D03*
X237209D02*
D03*
X239768D02*
D03*
X242327D02*
D03*
X244886D02*
D03*
X247445D02*
D03*
X250004D02*
D03*
D73*
X17520Y200394D02*
D03*
Y202362D02*
D03*
Y206299D02*
D03*
Y208268D02*
D03*
Y210236D02*
D03*
Y212205D02*
D03*
Y216142D02*
D03*
Y218110D02*
D03*
X44685Y220079D02*
D03*
Y218110D02*
D03*
Y216142D02*
D03*
Y214173D02*
D03*
Y212205D02*
D03*
Y210236D02*
D03*
Y208268D02*
D03*
Y206299D02*
D03*
Y204331D02*
D03*
Y202362D02*
D03*
Y200394D02*
D03*
Y198425D02*
D03*
X17520Y198425D02*
D03*
Y204331D02*
D03*
Y214173D02*
D03*
Y220079D02*
D03*
D74*
X20276Y222835D02*
D03*
X22244D02*
D03*
X24213D02*
D03*
X26181D02*
D03*
X28150D02*
D03*
X30118D02*
D03*
X32087D02*
D03*
X34055D02*
D03*
X36024D02*
D03*
X37992D02*
D03*
X39961D02*
D03*
X41929D02*
D03*
Y195669D02*
D03*
X39961D02*
D03*
X37992D02*
D03*
X36024D02*
D03*
X34055D02*
D03*
X32087D02*
D03*
X30118D02*
D03*
X28150D02*
D03*
X26181D02*
D03*
X24213D02*
D03*
X22244D02*
D03*
X20276D02*
D03*
D75*
X227165Y233169D02*
D03*
Y230610D02*
D03*
Y228051D02*
D03*
Y225492D02*
D03*
X216929D02*
D03*
Y228051D02*
D03*
Y230610D02*
D03*
Y233169D02*
D03*
D76*
X114075Y161909D02*
D03*
Y159350D02*
D03*
Y156791D02*
D03*
Y154232D02*
D03*
X130807Y161909D02*
D03*
Y159350D02*
D03*
Y156791D02*
D03*
Y154232D02*
D03*
X12500Y171752D02*
D03*
Y169193D02*
D03*
Y166634D02*
D03*
Y164075D02*
D03*
X29232Y171752D02*
D03*
Y169193D02*
D03*
Y166634D02*
D03*
Y164075D02*
D03*
D77*
X24902Y239469D02*
D03*
X17618D02*
D03*
Y233366D02*
D03*
X24902D02*
D03*
D78*
X95866Y162795D02*
D03*
X98425D02*
D03*
X100984D02*
D03*
Y171457D02*
D03*
X95866D02*
D03*
X42323Y231693D02*
D03*
X37205D02*
D03*
Y240354D02*
D03*
X39764D02*
D03*
X42323D02*
D03*
X31299Y271598D02*
D03*
X36417D02*
D03*
Y262937D02*
D03*
X33858D02*
D03*
X31299D02*
D03*
X43110Y271598D02*
D03*
X48228D02*
D03*
Y262937D02*
D03*
X45669D02*
D03*
X43110D02*
D03*
X54921Y271598D02*
D03*
X60039D02*
D03*
Y262937D02*
D03*
X57480D02*
D03*
X54921D02*
D03*
X82874Y171457D02*
D03*
X87992D02*
D03*
Y162795D02*
D03*
X85433D02*
D03*
X82874D02*
D03*
D79*
X122047Y153165D02*
D03*
Y152165D02*
D03*
X123622Y153165D02*
D03*
Y152165D02*
D03*
D80*
X50000Y200492D02*
D03*
Y198327D02*
D03*
Y208366D02*
D03*
Y206201D02*
D03*
Y216043D02*
D03*
Y218209D02*
D03*
X47244Y232382D02*
D03*
Y230217D02*
D03*
X12205Y220374D02*
D03*
Y222539D02*
D03*
X12205Y198130D02*
D03*
Y195965D02*
D03*
X48425Y127657D02*
D03*
Y125492D02*
D03*
X103543Y127657D02*
D03*
Y125492D02*
D03*
X103543Y140256D02*
D03*
Y138091D02*
D03*
X209252Y161909D02*
D03*
Y164075D02*
D03*
X212205Y161909D02*
D03*
Y164075D02*
D03*
X48425Y140256D02*
D03*
Y138091D02*
D03*
D81*
X1575Y184055D02*
D03*
Y190354D02*
D03*
X40157Y157677D02*
D03*
Y151378D02*
D03*
X216142Y47835D02*
D03*
Y41535D02*
D03*
X228740Y117913D02*
D03*
Y111614D02*
D03*
X216535Y211614D02*
D03*
Y205315D02*
D03*
X207087Y147835D02*
D03*
Y154134D02*
D03*
X38583Y136024D02*
D03*
Y142323D02*
D03*
D82*
X87992Y152165D02*
D03*
X99410D02*
D03*
X68701D02*
D03*
X57284D02*
D03*
X170276Y141142D02*
D03*
X158858D02*
D03*
X147047D02*
D03*
X135630D02*
D03*
X119488Y35630D02*
D03*
X130905D02*
D03*
X158465D02*
D03*
X169882D02*
D03*
X138779D02*
D03*
X150197D02*
D03*
X191142Y141142D02*
D03*
X179724D02*
D03*
X116732D02*
D03*
X128150D02*
D03*
D83*
X134252Y173425D02*
D03*
X133252D02*
D03*
X270079Y169882D02*
D03*
X271079D02*
D03*
D84*
X186221Y35630D02*
D03*
X178347D02*
D03*
X201575D02*
D03*
X193701D02*
D03*
D85*
X255906Y281496D02*
D03*
Y272441D02*
D03*
Y263386D02*
D03*
D86*
X278740Y272441D02*
D03*
D157*
X-80482Y239338D02*
D03*
Y269338D02*
D03*
X-16282Y259838D02*
D03*
Y229838D02*
D03*
D161*
X31102Y209252D02*
D03*
D162*
X138818Y123031D02*
Y124080D01*
X136986Y125913D02*
X138818Y124080D01*
X134487Y125913D02*
X136986D01*
X131300Y129100D02*
X134487Y125913D01*
X131300Y129100D02*
Y131600D01*
X128254Y134646D02*
X131300Y131600D01*
X112754Y134646D02*
X128254D01*
X122760Y125700D02*
X127647D01*
X112200Y130660D02*
X115840D01*
X116900Y129600D01*
X126896D01*
X135039Y121457D01*
X110018Y135563D02*
X111837D01*
X112754Y134646D01*
X131223Y205845D02*
Y222992D01*
X112435Y187058D02*
X131223Y205845D01*
X135559Y228171D02*
X135618Y228112D01*
X138189Y121457D02*
X138818Y123031D01*
X137698Y129492D02*
X138518Y128672D01*
Y127023D02*
Y128672D01*
Y127023D02*
X140618Y124923D01*
Y123392D02*
Y124923D01*
Y123392D02*
X141339Y121457D01*
X127647Y125700D02*
X131890Y121457D01*
X202362Y201378D02*
X205512D01*
D163*
X117657Y125713D02*
X119696Y122932D01*
X111995Y125308D02*
X114567Y123031D01*
D164*
X135618Y205392D02*
Y222992D01*
X117218Y186992D02*
X135618Y205392D01*
X85433Y160433D02*
X86283Y159583D01*
X131018Y149992D02*
X134318D01*
X136588Y152262D01*
X147649D01*
X144095Y155315D02*
X145017Y154392D01*
X109536Y147353D02*
X128379D01*
X131018Y149992D01*
X147649Y152262D02*
X153118Y146792D01*
Y136935D02*
Y146792D01*
X150075Y133892D02*
X153118Y136935D01*
X147818Y133892D02*
X150075D01*
X146818Y132892D02*
X147818Y133892D01*
X146818Y130192D02*
Y132892D01*
Y130192D02*
X148073Y128937D01*
X158661D01*
X125470Y235144D02*
X152061D01*
X123495Y233169D02*
X125470Y235144D01*
X94980Y233169D02*
X123495D01*
X90158Y237992D02*
X94980Y233169D01*
X196457Y113583D02*
X204331D01*
X62992Y208465D02*
X70079D01*
X63386Y199803D02*
X70079D01*
X33661Y178347D02*
X33858Y178150D01*
X39567Y184252D02*
X39764Y184055D01*
X37402Y186417D02*
X39567Y184252D01*
X15354Y210236D02*
X17520D01*
X2592Y210663D02*
X14927D01*
X15354Y210236D01*
X-3411Y204660D02*
X2592Y210663D01*
X-37795Y204660D02*
X-3411D01*
X-38451Y205315D02*
X-37795Y204660D01*
X-47365Y205315D02*
X-38451D01*
X-48425Y204255D02*
X-47365Y205315D01*
X-48425Y202953D02*
Y204255D01*
X14927Y211778D02*
X15354Y212205D01*
X17520D01*
X2130Y211778D02*
X14927D01*
X-3873Y205775D02*
X2130Y211778D01*
X-38055Y206496D02*
X-37333Y205775D01*
X-3873D01*
X-47761Y206496D02*
X-38055D01*
X-49729Y205044D02*
X-49214D01*
X-47761Y206496D01*
X-50516Y205044D02*
X-49729D01*
X-60589Y193570D02*
X-41598D01*
X-60127Y194685D02*
X-42060D01*
X14927Y200820D02*
X15354Y200394D01*
X5118Y200820D02*
X14927D01*
X15354Y200394D02*
X17520D01*
X-59405Y218373D02*
X-56870Y215838D01*
X1345Y197047D02*
X5118Y200820D01*
X-38121Y197047D02*
X1345D01*
X-41598Y193570D02*
X-38121Y197047D01*
X-59472Y220801D02*
X-59405Y220735D01*
X-59472Y220801D02*
Y220803D01*
X-59405Y218373D02*
Y220735D01*
X-74434Y221850D02*
X-60518D01*
X-59472Y220803D01*
X-79418Y216866D02*
X-74434Y221850D01*
X-79418Y212400D02*
Y216866D01*
X15354Y202362D02*
X17520D01*
X14927Y201936D02*
X15354Y202362D01*
X4656Y201936D02*
X14927D01*
X-60980Y220735D02*
X-60587Y220342D01*
Y218373D02*
Y220342D01*
X883Y198162D02*
X4656Y201936D01*
X-38583Y198162D02*
X883D01*
X-42060Y194685D02*
X-38583Y198162D01*
X-63122Y215838D02*
X-60587Y218373D01*
X-73972Y220735D02*
X-60980D01*
X-64382Y215838D02*
X-63122D01*
X-78303Y216405D02*
X-73972Y220735D01*
X-78303Y212861D02*
Y216405D01*
X-79418Y212400D02*
X-60589Y193570D01*
X-78303Y212861D02*
X-60127Y194685D01*
X-42062Y202231D02*
X-1115D01*
X-41600Y201116D02*
X-653D01*
X-53122Y225838D02*
X-52382D01*
X-55862Y223098D02*
X-53122Y225838D01*
X-55862Y222310D02*
Y223098D01*
X-54681Y221129D02*
X-51529D01*
X-50350Y219950D01*
X-55862Y222310D02*
X-54681Y221129D01*
X15354Y208268D02*
X17520D01*
X14927Y207841D02*
X15354Y208268D01*
X4495Y207841D02*
X14927D01*
X-1115Y202231D02*
X4495Y207841D01*
X-59717Y225838D02*
X-56977Y223098D01*
Y221848D02*
Y223098D01*
X-60382Y225838D02*
X-59717D01*
X-55143Y220014D02*
X-51991D01*
X-51465Y219488D01*
X-56977Y221848D02*
X-55143Y220014D01*
X15354Y206299D02*
X17520D01*
X4956Y206726D02*
X14927D01*
X15354Y206299D01*
X-653Y201116D02*
X4956Y206726D01*
X-50350Y211658D02*
Y219950D01*
X-54724Y207283D02*
X-50350Y211658D01*
X-51465Y212119D02*
Y219488D01*
X-55839Y207745D02*
X-51465Y212119D01*
X-55839Y202097D02*
Y207745D01*
X-54724Y202559D02*
Y207283D01*
X-55839Y202097D02*
X-52038Y198295D01*
X-44421D01*
X-54724Y202559D02*
X-51576Y199410D01*
X-44883D01*
X-42062Y202231D01*
X-44421Y198295D02*
X-41600Y201116D01*
X268110Y169882D02*
X270079D01*
X160630Y179724D02*
Y185531D01*
X164567Y178937D02*
X169291Y174213D01*
X161417Y178937D02*
X164567D01*
X160630Y179724D02*
X161417Y178937D01*
X163386Y121457D02*
Y124213D01*
X158661Y128937D02*
X163386Y124213D01*
X107480Y149409D02*
X109536Y147353D01*
X107480Y149409D02*
Y156890D01*
X105905Y158465D02*
X107480Y156890D01*
X85039Y158465D02*
X105905D01*
X82874Y160630D02*
X85039Y158465D01*
X82874Y160630D02*
Y162795D01*
X106755Y159583D02*
X109055Y157283D01*
Y149803D02*
Y157283D01*
X86283Y159583D02*
X106755D01*
X98425Y160827D02*
X98819Y160433D01*
X102756D02*
X103937Y161614D01*
X98819Y160433D02*
X102756D01*
X159055Y130905D02*
X164961Y125000D01*
X149213Y130905D02*
X159055D01*
X196457Y110433D02*
X204331D01*
X194882Y108858D02*
X196457Y110433D01*
X30709Y47047D02*
X33071Y44685D01*
Y39961D02*
Y44685D01*
X179134Y51772D02*
Y55315D01*
X177165Y49803D02*
X179134Y51772D01*
X177165Y41570D02*
Y49803D01*
X174551Y38956D02*
X177165Y41570D01*
X174551Y25536D02*
Y38956D01*
X173549Y14726D02*
Y24534D01*
X174551Y25536D01*
X170473Y11649D02*
X173549Y14726D01*
X170473Y8931D02*
Y11649D01*
X162526Y984D02*
X170473Y8931D01*
X168491Y-308D02*
X169587Y787D01*
X168491Y-1340D02*
Y-308D01*
X167200Y-2632D02*
X168491Y-1340D01*
X162526D02*
X163817Y-2632D01*
X167200D01*
X179134Y58464D02*
X180709Y56890D01*
Y54528D02*
Y56890D01*
X179994Y53813D02*
X180709Y54528D01*
X179994Y51415D02*
Y53813D01*
X178025Y49447D02*
X179994Y51415D01*
X178025Y41214D02*
Y49447D01*
X175411Y25179D02*
Y38600D01*
X178025Y41214D01*
X174409Y24178D02*
X175411Y25179D01*
X174409Y14370D02*
Y24178D01*
X171332Y11293D02*
X174409Y14370D01*
X171332Y8575D02*
Y11293D01*
X163386Y628D02*
X171332Y8575D01*
X167631Y-984D02*
Y-13D01*
X166535Y1083D02*
X167631Y-13D01*
X166844Y-1772D02*
X167631Y-984D01*
X163386D02*
X164173Y-1772D01*
X166844D01*
X162526Y-1340D02*
Y984D01*
X163386Y-984D02*
Y628D01*
X145953Y-3025D02*
X155118Y6140D01*
X174803Y54133D02*
X175984Y55315D01*
X174803Y53705D02*
Y54133D01*
X167220Y46122D02*
X174803Y53705D01*
X155118Y41142D02*
X160099Y46122D01*
X167220D01*
X155118Y6140D02*
Y41142D01*
X154258Y41498D02*
X159743Y46982D01*
X166864D01*
X172835Y52953D02*
Y55315D01*
X166864Y46982D02*
X172835Y52953D01*
X145597Y-2165D02*
X154258Y6496D01*
Y41498D01*
X141621Y-2165D02*
X145597D01*
X141265Y-3025D02*
X145953D01*
X140367Y-2128D02*
X141265Y-3025D01*
X141227Y-1772D02*
X141621Y-2165D01*
X140367Y-2128D02*
Y-997D01*
X139173Y197D02*
X140367Y-997D01*
X141227Y-1772D02*
Y-997D01*
X142421Y197D01*
X227165Y219094D02*
X235433Y210827D01*
X87795Y224213D02*
X98032D01*
X99606Y225787D01*
X84646Y227362D02*
X87795Y224213D01*
X84646Y227362D02*
Y254921D01*
X227165Y219094D02*
Y225492D01*
X98425Y160827D02*
Y162795D01*
X85433Y160433D02*
Y162795D01*
X150194Y155909D02*
X189957D01*
X149606Y156496D02*
X150194Y155909D01*
X189957D02*
X201181Y144685D01*
X87402Y250591D02*
X91732Y254921D01*
X94488D01*
X100000Y260433D01*
X92126Y262402D02*
Y269488D01*
X84646Y254921D02*
X92126Y262402D01*
X79134Y228543D02*
Y257677D01*
X83858Y262402D01*
X88583D01*
X90158Y263976D01*
Y266240D01*
X28346Y263189D02*
Y265158D01*
X29134Y265945D01*
X33071D01*
X33858Y265158D01*
Y262937D02*
Y265158D01*
X150000Y174606D02*
X151575Y173031D01*
X160236Y163583D02*
Y165945D01*
Y163441D02*
Y163583D01*
Y165945D02*
X161555Y167264D01*
Y168504D01*
X163386Y173031D02*
X164429Y171988D01*
Y171260D02*
Y171988D01*
X14764Y220079D02*
X17520D01*
X14567Y220276D02*
X14764Y220079D01*
X12303Y220276D02*
X14567D01*
X-1181Y41929D02*
X2362D01*
X2756Y42323D02*
X5217D01*
X2362Y41929D02*
X2756Y42323D01*
X5217D02*
X5906D01*
X-5118Y41929D02*
X-3150Y39961D01*
X787D01*
X5154Y39111D02*
X5217Y39173D01*
X-8661Y41929D02*
X-5843Y39111D01*
X5154D01*
X787Y39961D02*
X1575Y40748D01*
X5217D01*
X-5906Y37598D02*
X5217D01*
X-8661Y34843D02*
X-5906Y37598D01*
X1181Y36024D02*
X5217D01*
X-3543Y36417D02*
X787D01*
X1181Y36024D01*
X5217D02*
X5512D01*
X-5118Y34843D02*
X-3543Y36417D01*
X-1181Y34449D02*
X5217D01*
X-1181Y31299D02*
X-1083Y31398D01*
X9843Y29331D02*
Y31398D01*
X8268Y27756D02*
X9843Y29331D01*
X20768Y31398D02*
X20866Y31299D01*
X17717Y31398D02*
X20768D01*
Y34449D02*
X25984D01*
X28740Y36417D02*
X30709Y34449D01*
X24409Y36417D02*
X28740D01*
X20768Y36024D02*
X24016D01*
X24409Y36417D01*
X32283Y37598D02*
X35433Y34449D01*
X20768Y37598D02*
X32283D01*
X20768Y39173D02*
X32283D01*
X33071Y39961D01*
X22835Y43898D02*
X25984Y47047D01*
X20768Y43898D02*
X22835D01*
X20768Y42323D02*
X25984D01*
X28740Y40354D02*
X30709Y42323D01*
X20768Y40748D02*
X24016D01*
X24409Y40354D02*
X28740D01*
X24016Y40748D02*
X24409Y40354D01*
X17618Y233366D02*
X21260Y229724D01*
Y229724D02*
X21716Y229268D01*
X21260Y231299D02*
X22378Y230181D01*
X24213Y222835D02*
Y225197D01*
X37205Y231693D02*
X37402D01*
X13287Y233366D02*
X17618D01*
X11024Y235630D02*
X13287Y233366D01*
X7087Y233661D02*
X11417Y229331D01*
X24902Y239469D02*
X30413D01*
X25197Y239567D02*
X25197Y239567D01*
X31496D01*
X11417Y229331D02*
X12205D01*
X11417D02*
X11417D01*
X12205D02*
X18701Y222835D01*
X20276D01*
X9843Y263976D02*
Y266339D01*
Y263976D02*
X10630Y263189D01*
X13780D01*
X16142Y260827D01*
X17048Y263071D02*
X19291Y260827D01*
X15865Y263071D02*
X17048D01*
X14567Y264369D02*
X15865Y263071D01*
X14567Y264369D02*
Y266339D01*
X21260Y190880D02*
X24213Y193833D01*
X21260Y184449D02*
Y190880D01*
X24213Y193833D02*
Y195669D01*
X28071Y188364D02*
X28150Y188443D01*
X28071Y186831D02*
Y188364D01*
Y186831D02*
X28150Y186753D01*
Y184449D02*
X28346D01*
X28150Y188443D02*
Y195669D01*
X55512Y230906D02*
X59055D01*
X41929Y222835D02*
X47441D01*
X44685Y220079D02*
X47835D01*
X53937Y226181D01*
X59055D01*
X27559Y160827D02*
X29232Y162500D01*
X27559Y158465D02*
Y160827D01*
X29232Y162500D02*
Y164075D01*
X34835Y189259D02*
Y192323D01*
X34055Y193103D02*
X34835Y192323D01*
X34055Y193103D02*
Y195669D01*
X32087Y192651D02*
X33426Y191313D01*
X32087Y192651D02*
Y195669D01*
X37992Y189764D02*
Y195669D01*
X37402Y189173D02*
X37992Y189764D01*
X33426Y189466D02*
Y191313D01*
X34527Y186832D02*
Y188365D01*
X33426Y189466D02*
X34527Y188365D01*
X34835Y189259D02*
X35377Y188717D01*
X36024Y195669D02*
X36227Y195466D01*
X50787Y191142D02*
X53150D01*
X51181Y194685D02*
X53150D01*
X47441Y198425D02*
X51181Y194685D01*
X44685Y198425D02*
X47441D01*
X46260Y195669D02*
X50787Y191142D01*
X41929Y195669D02*
X46260D01*
X44685Y204331D02*
X50913D01*
X51559Y203684D01*
X54388Y202362D02*
X56496D01*
X53916Y202834D02*
X54388Y202362D01*
X51559Y203684D02*
X54275D01*
X54724Y204134D01*
X52383Y202834D02*
X53916D01*
X51911Y202362D02*
X52383Y202834D01*
X44685Y202362D02*
X51911D01*
X56299Y208465D02*
X59055D01*
X53937Y210827D02*
X56299Y208465D01*
X50787Y210827D02*
X53937D01*
X50197Y210236D02*
X50787Y210827D01*
X44685Y210236D02*
X50197D01*
X56299Y212795D02*
X59055D01*
X55709Y212205D02*
X56299Y212795D01*
X44685Y212205D02*
X55709D01*
X55630Y213701D02*
X59055Y217126D01*
X51063Y213701D02*
X55630D01*
X50591Y214173D02*
X51063Y213701D01*
X44685Y214173D02*
X50591D01*
X56496Y202362D02*
X59055Y199803D01*
X54724Y204134D02*
X59055D01*
Y208465D02*
X59449D01*
X276772Y169882D02*
X280118D01*
X114447Y12487D02*
X116647Y10287D01*
X113011Y12487D02*
X114447D01*
X111424Y14074D02*
X113011Y12487D01*
X111424Y14074D02*
Y15509D01*
X108983Y17951D02*
X111424Y15509D01*
X114803Y13347D02*
X117507Y10643D01*
X113368Y13347D02*
X114803D01*
X112284Y14431D02*
X113368Y13347D01*
X112284Y14431D02*
Y15866D01*
X109843Y18307D02*
X112284Y15866D01*
X117940Y52030D02*
X137266D01*
X108983Y43073D02*
X117940Y52030D01*
X118296Y51170D02*
X137623D01*
X109843Y42717D02*
X118296Y51170D01*
X137623D02*
X139405Y52953D01*
X137266Y52030D02*
X139049Y53813D01*
X142952Y53779D02*
X144488Y55315D01*
X141377Y53779D02*
X142952D01*
X140551Y52953D02*
X141377Y53779D01*
X139405Y52953D02*
X140551D01*
X117507Y1194D02*
X118504Y197D01*
X109843Y18307D02*
Y42717D01*
X139836Y53813D02*
X141339Y55315D01*
X139049Y53813D02*
X139836D01*
X108983Y17951D02*
Y43073D01*
X115649Y197D02*
X116647Y1194D01*
X118189Y14431D02*
X119273Y13347D01*
X120435D01*
X117329Y14074D02*
Y16297D01*
Y14074D02*
X118917Y12487D01*
X121456Y295D02*
X122503Y1342D01*
X120079Y12487D02*
X122835Y9731D01*
X111738Y21888D02*
Y41892D01*
X118917Y12487D02*
X120079D01*
X111738Y41892D02*
X118862Y49016D01*
X143307D01*
X122503Y1342D02*
Y4134D01*
X122835Y4466D01*
Y9731D01*
X143307Y49016D02*
X147317Y53025D01*
X148498D01*
X148819Y53347D01*
X147638Y55315D02*
X148819Y54134D01*
Y53347D02*
Y54134D01*
X123363Y1342D02*
X124409Y295D01*
X120435Y13347D02*
X123695Y10087D01*
X112598Y22244D02*
Y41535D01*
X119219Y48156D01*
X143663D01*
X123363Y1342D02*
Y3778D01*
X123695Y4109D01*
Y10087D01*
X143663Y48156D02*
X147673Y52165D01*
X148854D01*
X149679Y52990D01*
Y54206D01*
X150787Y55315D01*
X111738Y21888D02*
X117329Y16297D01*
X118189Y14431D02*
Y16653D01*
X112598Y22244D02*
X118189Y16653D01*
X106378Y17992D02*
X106693Y18307D01*
X105518Y18349D02*
X105833Y18663D01*
X106378Y14431D02*
X107462Y13347D01*
X108624D01*
X113065Y8906D01*
X106693Y44685D02*
X115281Y53273D01*
X111490Y1207D02*
Y4921D01*
Y1207D02*
X112401Y295D01*
X111490Y4921D02*
X113065Y6496D01*
Y8906D01*
X115281Y53273D02*
X132998D01*
X135039Y55315D01*
X105518Y14074D02*
X107106Y12487D01*
X108268D02*
X112205Y8550D01*
X107106Y12487D02*
X108268D01*
X105833Y45041D02*
X114925Y54133D01*
X109744Y295D02*
X110630Y1181D01*
Y5277D02*
X112205Y6852D01*
X110630Y1181D02*
Y5277D01*
X112205Y6852D02*
Y8550D01*
X130708Y54133D02*
X130709D01*
X130708D02*
X131890Y55315D01*
X106378Y14431D02*
Y17992D01*
X106693Y18307D02*
Y44685D01*
X105518Y14074D02*
Y18349D01*
X129600Y10864D02*
Y18984D01*
X128740Y11220D02*
Y18628D01*
X127487Y9967D02*
X128740Y11220D01*
X128347Y9611D02*
X129600Y10864D01*
X128347Y5315D02*
Y9611D01*
X127487Y4959D02*
Y9967D01*
X151219Y47120D02*
X157874Y53775D01*
X157087Y55315D02*
X157874Y54527D01*
Y53775D02*
Y54527D01*
X128668Y1404D02*
Y3778D01*
X127559Y295D02*
X128668Y1404D01*
X121297Y47120D02*
X151219D01*
X116632Y42455D02*
X121297Y47120D01*
X116599Y42455D02*
X116632D01*
X115282Y41138D02*
X116599Y42455D01*
X115282Y25825D02*
Y41138D01*
Y25825D02*
X118148Y22959D01*
X151575Y46260D02*
X158734Y53419D01*
X159055Y54134D02*
X160236Y55315D01*
X158734Y53813D02*
X159055Y54134D01*
X158734Y53419D02*
Y53813D01*
X129528Y1181D02*
Y4134D01*
Y1181D02*
X130413Y295D01*
X116989Y41595D02*
X121653Y46260D01*
X116955Y41595D02*
X116989D01*
X116142Y40782D02*
X116955Y41595D01*
X116142Y26181D02*
Y40782D01*
Y26181D02*
X118504Y23819D01*
X124766D02*
X129600Y18984D01*
X128347Y5315D02*
X129528Y4134D01*
X124409Y22959D02*
X128740Y18628D01*
X127487Y4959D02*
X128668Y3778D01*
X134967Y12045D02*
X137723Y9289D01*
Y7211D02*
Y9289D01*
X135827Y12402D02*
X138583Y9646D01*
Y6855D02*
Y9646D01*
X134179Y3668D02*
Y3668D01*
Y1207D02*
Y3668D01*
X166535Y52201D02*
Y55315D01*
X163351Y49016D02*
X166535Y52201D01*
X158233Y49016D02*
X163351D01*
X151672Y42455D02*
X158233Y49016D01*
X147308Y42455D02*
X151672D01*
X147176Y42323D02*
X147308Y42455D01*
X141669D02*
X141801Y42323D01*
X147176D01*
X135890Y42455D02*
X141669D01*
X134967Y41531D02*
X135890Y42455D01*
X134179Y3668D02*
X137723Y7211D01*
X133267Y295D02*
X134179Y1207D01*
X168110Y52559D02*
Y56890D01*
X166535Y58464D02*
X168110Y56890D01*
X165748Y50197D02*
X168110Y52559D01*
X165748Y50197D02*
Y50197D01*
X163707Y48156D02*
X165748Y50197D01*
X158589Y48156D02*
X163707D01*
X152028Y41595D02*
X158589Y48156D01*
X147664Y41595D02*
X152028D01*
X147532Y41463D02*
X147664Y41595D01*
X141313D02*
X141445Y41463D01*
X147532D01*
X136247Y41595D02*
X141313D01*
X135039Y3311D02*
X138583Y6855D01*
X135827Y41175D02*
X136247Y41595D01*
X135039Y1575D02*
Y3311D01*
Y1575D02*
X136319Y295D01*
X191660Y3274D02*
X196063Y7677D01*
X192520Y2918D02*
X196923Y7321D01*
Y11220D01*
X198498Y12795D01*
X196063Y7677D02*
Y11577D01*
X197638Y13151D01*
X192520Y1772D02*
Y2918D01*
X205584Y30156D02*
Y43073D01*
X200822Y47835D02*
X205584Y43073D01*
X198498Y23069D02*
X205584Y30156D01*
X191732Y54133D02*
Y55315D01*
X190587Y52989D02*
X191732Y54133D01*
X190587Y49409D02*
Y52989D01*
X192162Y47835D02*
X200822D01*
X190587Y49409D02*
X192162Y47835D01*
X192520Y1772D02*
X193504Y787D01*
X191660Y2093D02*
Y3274D01*
X204724Y30512D02*
Y42717D01*
X200466Y46975D02*
X204724Y42717D01*
X197638Y23425D02*
X204724Y30512D01*
X189727Y49053D02*
Y52989D01*
X188583Y54133D02*
X189727Y52989D01*
Y49053D02*
X191806Y46975D01*
X188583Y54133D02*
Y55315D01*
X190354Y787D02*
X191660Y2093D01*
X122047Y150984D02*
Y152165D01*
X123622Y150984D02*
Y152165D01*
Y150984D02*
X124409Y150197D01*
X63386Y199803D02*
X63386Y199803D01*
X62992Y204134D02*
X62992Y204134D01*
X39764Y184055D02*
Y184449D01*
X37402Y186417D02*
Y189173D01*
X37008Y182480D02*
Y184843D01*
X36227Y185623D02*
X37008Y184843D01*
X36227Y185623D02*
Y195466D01*
X35377Y185574D02*
Y188717D01*
X33858Y184055D02*
X35377Y185574D01*
X31496Y183801D02*
X34527Y186832D01*
X11713Y204134D02*
X13780D01*
X11713Y198622D02*
X12205Y198130D01*
X9055Y198622D02*
X11713D01*
X12205Y198130D02*
X14075D01*
X14370Y198425D01*
X17520D01*
X14764Y214173D02*
X17520D01*
X14567Y213976D02*
X14764Y214173D01*
X13780Y213976D02*
X14567D01*
X11713D02*
X13780D01*
X10335Y220374D02*
X12205D01*
X9843Y219882D02*
X10335Y220374D01*
X12205D02*
X12303Y220276D01*
X33858Y182480D02*
Y184055D01*
X31496Y180905D02*
X33858Y178543D01*
X31496Y180905D02*
Y183801D01*
X62992Y221457D02*
X66535D01*
X70079D01*
X62992Y217126D02*
X66535D01*
X70079D01*
X62992Y212795D02*
X66535D01*
X70079D01*
X62992Y204134D02*
X66535D01*
X70079D01*
X121260Y150197D02*
X122047Y150984D01*
X82677Y269094D02*
Y273819D01*
X83858Y275000D01*
X87402D01*
X87008Y271457D02*
X90551Y275000D01*
X87008Y269094D02*
Y271457D01*
X13780Y204134D02*
X13976Y204331D01*
X17520D01*
X21260Y235827D02*
X24902Y239469D01*
X21260Y231299D02*
Y235827D01*
X55905Y235630D02*
X59055D01*
X52756Y232480D02*
X55905Y235630D01*
X52756Y229864D02*
Y232480D01*
X50766Y227874D02*
X52756Y229864D01*
X44685Y218110D02*
X47441D01*
X50787Y221457D01*
X-19783Y123130D02*
Y125984D01*
X-22047Y108071D02*
X-18504D01*
X-75492Y114665D02*
X-72638D01*
X-75492Y161909D02*
X-72638D01*
X-75590Y162008D02*
X-75492Y161909D01*
X-75492Y20177D02*
X-72638D01*
X-75492Y67421D02*
X-72638D01*
X237209Y59839D02*
X248425Y48622D01*
X251969D01*
X253937Y46654D01*
Y36811D02*
X257087Y33661D01*
X261417D01*
X267717Y27362D01*
X95866Y162795D02*
Y164961D01*
X100000Y169095D01*
X110292D02*
X114623Y173425D01*
X127165D02*
X133465Y167126D01*
X162598Y241929D02*
X166339D01*
X195079Y227008D02*
Y232283D01*
X166339Y241929D02*
X172638Y235630D01*
X173425D01*
X42323Y240551D02*
X45276Y243504D01*
X42323Y240354D02*
Y240551D01*
X39764Y241929D02*
X42126Y244291D01*
X39764Y240354D02*
Y241929D01*
X87008Y269094D02*
X87303D01*
X109449Y171457D02*
X112992Y175000D01*
X130315D02*
X131890Y173425D01*
X87303Y269094D02*
X90158Y266240D01*
X90551Y271063D02*
X92126Y269488D01*
X168504Y179331D02*
X171535Y176300D01*
X187677D02*
X188976Y175000D01*
X192126D01*
X100000Y260433D02*
Y262795D01*
X194016Y233346D02*
X195079Y232283D01*
X175591Y229724D02*
X179212Y233346D01*
X177953Y233661D02*
X178740Y234449D01*
X196457D02*
X199409Y231496D01*
Y227008D02*
Y231496D01*
X169291Y174213D02*
X184252D01*
X164961Y116732D02*
X166535Y115157D01*
X164961Y116732D02*
Y125000D01*
X135039Y173425D02*
X136221Y172244D01*
Y162008D02*
X138583Y159646D01*
X142520D01*
X144095Y158071D01*
Y155315D02*
Y158071D01*
X134252Y173425D02*
X135039D01*
X146063Y156496D02*
X149606D01*
X201181Y144685D02*
X210630D01*
X213583Y147638D01*
Y153533D01*
X151575Y224606D02*
X153543D01*
X160236Y217913D01*
X142126Y228937D02*
X144488Y226575D01*
X151575Y228543D02*
X152756D01*
X175591Y223819D02*
Y229724D01*
X163779Y226575D02*
X170866Y233661D01*
X159962Y220135D02*
X171906D01*
X152756Y228543D02*
X160315Y220985D01*
X153522Y226575D02*
X159962Y220135D01*
X171906D02*
X175591Y223819D01*
X170788Y220985D02*
X173425Y223622D01*
Y227008D01*
X152061Y235144D02*
X157874Y229331D01*
X30118Y222835D02*
Y223761D01*
X32677Y232480D02*
X32677Y232479D01*
X33858Y230118D02*
X35433Y231693D01*
X37205D01*
X21716Y229268D02*
X23291D01*
X22378Y230181D02*
X23580D01*
X39961Y222835D02*
Y223662D01*
X26181Y222835D02*
Y225197D01*
X23580Y230181D02*
X25591Y228171D01*
X28150Y222835D02*
Y225984D01*
X33858Y228425D02*
Y230118D01*
X47441Y222835D02*
X55512Y230906D01*
X39961Y223662D02*
X42086Y225787D01*
X45669D01*
X35827Y228818D02*
X35827Y228818D01*
X47875D02*
X48819Y227874D01*
X35454Y228818D02*
X35827D01*
X48819Y227874D02*
X50766D01*
X25591Y225787D02*
X26181Y225197D01*
X24213D02*
X24740Y225725D01*
Y227818D01*
X23291Y229268D02*
X24740Y227818D01*
X25591Y225787D02*
Y228171D01*
X32558Y228327D02*
X32677Y228446D01*
Y232479D01*
X33408Y227975D02*
X33858Y228425D01*
X32087Y222835D02*
Y224016D01*
X34055Y222835D02*
Y224016D01*
X34370Y224331D01*
Y227734D01*
X35454Y228818D01*
X32087Y224016D02*
X33408Y225337D01*
Y227975D01*
X32558Y226202D02*
Y228327D01*
X30118Y223761D02*
X32558Y226202D01*
X32677Y232480D02*
X32677Y232480D01*
Y232874D01*
X40687Y228818D02*
X47875D01*
X35827D02*
X38840D01*
X38997Y228661D02*
X40530D01*
X38840Y228818D02*
X38997Y228661D01*
X40530D02*
X40687Y228818D01*
X157874Y226575D02*
X163779D01*
X170866Y233661D02*
X177953D01*
X144488Y226575D02*
X153522D01*
X179212Y233346D02*
X194016D01*
X50787Y221457D02*
X59055D01*
X114623Y173425D02*
X127165D01*
X100984Y171457D02*
X109449D01*
X116647Y1194D02*
Y10287D01*
X-1083Y31398D02*
X8268D01*
X74803Y171457D02*
Y181299D01*
X136221Y162008D02*
Y172244D01*
X160315Y220985D02*
X170788D01*
X178740Y234449D02*
X196457D01*
X160236Y217913D02*
X172835D01*
X100000Y169095D02*
X110292D01*
X112992Y175000D02*
X130315D01*
X151575Y173031D02*
X163386D01*
X171535Y176300D02*
X187677D01*
X191806Y46975D02*
X200466D01*
X197638Y13151D02*
Y23425D01*
X198498Y12795D02*
Y23069D01*
X117507Y1194D02*
Y10643D01*
X114925Y54133D02*
X130708D01*
X105833Y18663D02*
Y45041D01*
X121653Y46260D02*
X151575D01*
X118504Y23819D02*
X124766D01*
X118148Y22959D02*
X124409D01*
X135827Y12402D02*
Y41175D01*
X134967Y12045D02*
Y41531D01*
X-1181Y27756D02*
X8268D01*
X253937Y36811D02*
Y46654D01*
X23228Y152953D02*
X25394D01*
X22047Y154134D02*
X23228Y152953D01*
X52362Y128543D02*
Y131693D01*
X56693Y128543D02*
Y131693D01*
X61024Y128543D02*
Y131693D01*
X65354Y128543D02*
Y131693D01*
X69685Y128543D02*
Y131693D01*
X74016Y128543D02*
Y131693D01*
X78347Y128543D02*
Y131693D01*
X82677Y128543D02*
Y131693D01*
X87008Y128543D02*
Y131693D01*
X91339Y128543D02*
Y131693D01*
X95669Y128543D02*
Y131693D01*
X100000Y128543D02*
Y131693D01*
X44488Y128543D02*
Y131693D01*
X48425Y127756D02*
Y131693D01*
X103543Y127657D02*
Y131693D01*
X103543Y131693D01*
X203149Y193109D02*
X205512D01*
X184252Y174213D02*
X187402D01*
X188583Y173031D01*
X193701D01*
X202362Y181693D01*
Y187205D01*
X203936Y188778D01*
X205512D01*
X192126Y175000D02*
X198425Y181299D01*
Y188386D01*
X203149Y193109D01*
X22244Y222835D02*
Y225984D01*
X22835Y226575D01*
X194882Y118307D02*
X196457Y119882D01*
X202756D01*
X204331Y118307D01*
X161811Y53740D02*
X164173D01*
X164961Y54528D01*
Y56890D01*
X163386Y58464D02*
X164961Y56890D01*
X194882Y112008D02*
X196457Y113583D01*
X213779Y12524D02*
X223351Y2953D01*
X212919Y12118D02*
X222441Y2596D01*
X209521Y26969D02*
Y54096D01*
X204114Y59504D02*
X209521Y54096D01*
Y26969D02*
X213779Y22710D01*
X198031Y58464D02*
X199212D01*
X199212Y58465D01*
X200787D01*
X201827Y59504D01*
X204114D01*
X216034Y-1894D02*
X221243D01*
X215107Y-967D02*
X216034Y-1894D01*
X221243D02*
X223351Y214D01*
X215107Y-967D02*
Y284D01*
X214407Y984D02*
X215107Y284D01*
X208661Y26612D02*
X212919Y22354D01*
X198031Y55315D02*
X200321Y57605D01*
X201144D01*
X202183Y58644D01*
X208661Y26612D02*
Y53740D01*
X202183Y58644D02*
X203758D01*
X208661Y53740D01*
X216017Y-591D02*
X216410Y-984D01*
X220866D01*
X216017Y-591D02*
Y334D01*
X216667Y984D01*
X220866Y-984D02*
X222441Y591D01*
X213779Y12524D02*
Y22710D01*
X223351Y214D02*
Y2953D01*
X212919Y12118D02*
Y22354D01*
X222441Y591D02*
Y2596D01*
X200394Y52165D02*
X206693Y45866D01*
Y22996D02*
X207801Y21888D01*
X193307Y52953D02*
X194095Y52165D01*
X193307Y52953D02*
Y53740D01*
X194095Y52165D02*
X200394D01*
X193307Y53740D02*
X194882Y55315D01*
X211837Y2264D02*
X212132Y2559D01*
X211024Y6855D02*
Y9217D01*
X207801Y12439D02*
Y21888D01*
Y12439D02*
X211024Y9217D01*
X210531Y2264D02*
X211837D01*
X211024Y6855D02*
X212132Y5746D01*
Y2559D02*
Y5746D01*
X200750Y53025D02*
X207553Y46222D01*
X194882Y58464D02*
X196418Y56929D01*
X208022Y443D02*
X211663D01*
X212992Y1772D01*
X208661Y12795D02*
X211884Y9573D01*
X207553Y23353D02*
X208661Y22244D01*
Y12795D02*
Y22244D01*
X212992Y1772D02*
Y6102D01*
X211884Y7211D02*
Y9573D01*
Y7211D02*
X212992Y6102D01*
X206693Y22996D02*
Y45866D01*
X207553Y23353D02*
Y46222D01*
X196418Y53458D02*
Y56929D01*
Y53458D02*
X196850Y53025D01*
X200750D01*
X181030Y9627D02*
X184881Y13479D01*
X185741Y13122D02*
Y15291D01*
X181890Y9271D02*
X185741Y13122D01*
X176322Y5103D02*
X177312D01*
X177935Y5726D01*
X179472D01*
X181030Y7283D01*
X184881Y15647D02*
X189297Y20063D01*
X184881Y13479D02*
Y15647D01*
X187008Y40486D02*
X189297Y38197D01*
Y20063D02*
Y38197D01*
X182283Y55315D02*
Y55315D01*
Y49973D02*
Y55315D01*
X187008Y40486D02*
Y46260D01*
X176969Y3543D02*
X178291Y4866D01*
X179829D01*
X181890Y6927D01*
X185741Y15291D02*
X190157Y19706D01*
Y38553D01*
X187868Y40842D02*
Y46616D01*
Y40842D02*
X190157Y38553D01*
X182283Y58464D02*
X183858Y56890D01*
X185433Y49051D02*
X187868Y46616D01*
X183858Y52953D02*
Y56890D01*
X181030Y7283D02*
Y9627D01*
X181890Y6927D02*
Y9271D01*
X173543Y1181D02*
Y3268D01*
X174959Y3740D02*
X176322Y5103D01*
X173543Y3268D02*
X174016Y3740D01*
X174959D01*
X183858Y52953D02*
X185433Y51378D01*
Y49051D02*
Y51378D01*
X184252Y49016D02*
X187008Y46260D01*
X183241Y49016D02*
X184252D01*
X182283Y49973D02*
X183241Y49016D01*
X267717Y6890D02*
Y27362D01*
Y6890D02*
X272835Y1772D01*
X-34602Y210105D02*
X-6627D01*
X-35064Y208990D02*
X-6165D01*
X-35783Y211286D02*
X-34602Y210105D01*
X-35783Y211286D02*
Y212468D01*
X-32413Y215838D01*
X-32382D01*
X951Y217684D02*
X14927D01*
X15354Y218110D01*
X17520D01*
X-40382Y215838D02*
X-40268D01*
X-36898Y210825D02*
Y212468D01*
X-40268Y215838D02*
X-36898Y212468D01*
X14927Y216568D02*
X15354Y216142D01*
X1413Y216568D02*
X14927D01*
X15354Y216142D02*
X17520D01*
X-6627Y210105D02*
X951Y217684D01*
X-36898Y210825D02*
X-35064Y208990D01*
X-6165D02*
X1413Y216568D01*
X-75590Y195866D02*
Y200591D01*
X-75591Y195866D02*
X-75590Y195866D01*
X-75591Y195866D02*
X-70079D01*
X-50122Y204650D02*
X-49729Y205044D01*
X283071Y162402D02*
Y162598D01*
X28150Y184449D02*
Y186753D01*
X30413Y239469D02*
X30906Y238976D01*
X7087Y233661D02*
Y235630D01*
D165*
X142818Y129492D02*
X142913Y129587D01*
Y132480D01*
X147047Y141142D02*
Y148463D01*
X145918Y149592D02*
X147047Y148463D01*
X143487Y149592D02*
X145918D01*
X135630Y141142D02*
Y147556D01*
X137666Y149592D01*
X139550D01*
X36614Y156102D02*
X38189Y157677D01*
X40157D01*
D166*
X148198Y154392D02*
X148840Y155034D01*
X145017Y154392D02*
X148198D01*
X148840Y155034D02*
X188864D01*
X148471Y153392D02*
X149213Y154134D01*
X135918Y153392D02*
X148471D01*
X134018Y151492D02*
X135918Y153392D01*
X130318Y151492D02*
X134018D01*
X110630Y148228D02*
X127054D01*
X130318Y151492D01*
X54724Y262937D02*
Y265158D01*
Y262795D02*
Y262937D01*
X237795Y264764D02*
X243110Y270079D01*
X216929Y251378D02*
X225197Y259646D01*
Y262795D01*
X227165Y264764D01*
X237795D01*
X282972Y85827D02*
Y92716D01*
X280315Y95374D02*
X282972Y92716D01*
X109055Y149803D02*
X110630Y148228D01*
X37795Y151378D02*
X40157D01*
X36220Y152953D02*
X37795Y151378D01*
X33661Y152953D02*
X36220D01*
X216929Y228051D02*
X227165D01*
X235433Y219488D02*
Y223819D01*
X231201Y228051D02*
X235433Y223819D01*
X227165Y228051D02*
X231201D01*
X224803Y59646D02*
Y112795D01*
X221260Y116339D02*
X224803Y112795D01*
X210630Y116339D02*
X221260D01*
X205906Y121063D02*
X210630Y116339D01*
X205906Y121063D02*
Y126575D01*
X201181Y131299D02*
X205906Y126575D01*
X201181Y131299D02*
Y136024D01*
X149213Y154134D02*
X187402D01*
X188864Y155034D02*
X196063Y147835D01*
X187402Y154134D02*
X194882Y146653D01*
X196063Y142717D02*
Y147835D01*
X194882Y142323D02*
Y146653D01*
Y142323D02*
X201181Y136024D01*
X196063Y142717D02*
X201856Y136924D01*
X223735D01*
X224799Y137988D01*
X224803Y59646D02*
X228346Y56102D01*
X229817D01*
X234650Y51270D01*
Y48618D02*
Y51270D01*
X18110Y151378D02*
X25394D01*
X16535Y152953D02*
X18110Y151378D01*
X13386Y152953D02*
X16535D01*
X36614Y246654D02*
X45276D01*
X31299Y258268D02*
Y260433D01*
X59449Y246654D02*
X61024D01*
X57480Y244685D02*
X59449Y246654D01*
X47244Y244685D02*
X57480D01*
X45276Y246654D02*
X47244Y244685D01*
X36417Y271598D02*
Y273228D01*
X35039Y274606D02*
X36417Y273228D01*
X35039Y274606D02*
Y276181D01*
X36220Y277362D01*
X49213D01*
X50000Y276575D01*
X48228Y271598D02*
X48425Y271795D01*
Y273425D01*
X50000Y275000D01*
Y276575D01*
X50787Y277362D01*
X43110Y262937D02*
Y264173D01*
X45669Y266732D01*
Y272638D01*
X52756Y267126D02*
X54724Y265158D01*
X52756Y267126D02*
Y268307D01*
X50394Y270669D02*
X52756Y268307D01*
X50394Y270669D02*
Y273425D01*
X51968Y275000D01*
X48425Y271077D02*
Y271457D01*
X161063Y171850D02*
X161654Y171260D01*
X144882Y176181D02*
X149213Y171850D01*
X2512Y90110D02*
X5124D01*
X835Y91685D02*
X5124D01*
X1969Y89567D02*
X2512Y90110D01*
X-1772Y89567D02*
X1969D01*
X-3937Y91732D02*
X-1772Y89567D01*
X7658Y95276D02*
Y97461D01*
X-1575Y245079D02*
X1969D01*
X246260Y281102D02*
X253346D01*
X243110Y277953D02*
X246260Y281102D01*
X234842Y257283D02*
X236221Y258661D01*
X232972Y230610D02*
X234842Y232480D01*
X227165Y230610D02*
X232972D01*
X251181Y146653D02*
X255906Y151378D01*
X281933Y113539D02*
X282677Y112795D01*
X282677D02*
X282972Y112500D01*
X270866Y137205D02*
X275590Y132480D01*
X281496Y78543D02*
X282283Y79331D01*
Y79331D02*
X282972Y80020D01*
Y81890D01*
X244882Y132087D02*
X249606Y136811D01*
X280315Y78543D02*
X281496D01*
X278346Y76575D02*
X280315Y78543D01*
X282283Y160433D02*
X282972Y159744D01*
Y158661D02*
Y159744D01*
X282283Y156496D02*
X282972Y155807D01*
Y154724D02*
Y155807D01*
X282283Y152559D02*
X282972Y151870D01*
Y150787D02*
Y151870D01*
X282283Y148622D02*
X282972Y147933D01*
Y146850D02*
Y147933D01*
X282283Y144685D02*
X282972Y143996D01*
Y142913D02*
Y143996D01*
X282283Y140748D02*
X282972Y140059D01*
Y138976D02*
Y140059D01*
X282283Y136811D02*
X282972Y136122D01*
Y135039D02*
Y136122D01*
X282283Y132874D02*
X282972Y132185D01*
Y131102D02*
Y132185D01*
X282283Y128937D02*
X282972Y128248D01*
Y127165D02*
Y128248D01*
X282283Y125000D02*
X282972Y124311D01*
Y123228D02*
Y124311D01*
X282283Y121063D02*
X282972Y120374D01*
Y119291D02*
Y120374D01*
X282283Y117126D02*
X282972Y116437D01*
Y115354D02*
Y116437D01*
Y111417D02*
Y112500D01*
X238976Y201378D02*
X244488Y206890D01*
X254331D02*
X260630Y200591D01*
Y195473D02*
Y200591D01*
Y195473D02*
X282972Y173130D01*
Y162598D02*
Y173130D01*
X231102Y193504D02*
X238976Y201378D01*
X226768Y179327D02*
X231102Y183661D01*
X226768Y169173D02*
Y179327D01*
X246063Y197047D02*
X250394Y201378D01*
X238583Y192717D02*
X242913Y197047D01*
X238583Y189173D02*
Y192717D01*
X242913Y197047D02*
X246063D01*
X228736Y179327D02*
X238583Y189173D01*
X228736Y169173D02*
Y179327D01*
X230705Y177358D02*
X244882Y191535D01*
X230705Y169173D02*
Y177358D01*
X251181Y186417D02*
X256299Y191535D01*
X244882Y186417D02*
X251181D01*
X232673Y174209D02*
X244882Y186417D01*
X232673Y169173D02*
Y174209D01*
X244094Y181299D02*
X250394D01*
X235980Y173185D02*
X244094Y181299D01*
X235980Y163898D02*
X238898D01*
X257087Y176575D02*
X261811Y181299D01*
X239764Y173031D02*
X243307Y176575D01*
X239764Y164764D02*
Y173031D01*
X240945Y167520D02*
X244882Y171457D01*
X240945Y163189D02*
Y167520D01*
X239685Y161929D02*
X240945Y163189D01*
X238898Y163898D02*
X239764Y164764D01*
X235980Y161929D02*
X239685D01*
X251969Y166732D02*
X256299Y171063D01*
X247244Y166732D02*
X251969D01*
X244488Y163976D02*
X247244Y166732D01*
X244488Y161221D02*
Y163976D01*
X243228Y159961D02*
X244488Y161221D01*
X235980Y159961D02*
X243228D01*
X235980Y157992D02*
X247165D01*
X250394Y161221D01*
X256614Y156024D02*
X261811Y161221D01*
X235980Y152012D02*
X236614Y151378D01*
X235980Y152012D02*
Y154055D01*
X232673Y147839D02*
X233858Y146653D01*
X232673Y147839D02*
Y150748D01*
X230705Y143902D02*
Y150748D01*
X233071Y141535D02*
X238976D01*
X230705Y143902D02*
X233071Y141535D01*
X246063Y137598D02*
X250394Y141929D01*
X228736Y139965D02*
Y150748D01*
X243307Y137598D02*
X246063D01*
X241732Y136024D02*
X243307Y137598D01*
X228736Y139965D02*
X232677Y136024D01*
X262598Y65945D02*
X265748Y62795D01*
X268504Y45079D02*
X270866Y47441D01*
X266142Y45079D02*
X268504D01*
X259449Y38386D02*
X266142Y45079D01*
X248819Y59252D02*
X251575D01*
X264173Y67126D02*
X270866Y60433D01*
X254724Y67126D02*
X264173D01*
X252362Y64764D02*
X254724Y67126D01*
X256693Y65945D02*
X262598D01*
X253937Y63189D02*
X256693Y65945D01*
X252362Y60039D02*
Y64764D01*
X251575Y59252D02*
X252362Y60039D01*
X253937Y59252D02*
Y63189D01*
X252756Y58071D02*
X253937Y59252D01*
X244886Y60429D02*
Y66272D01*
X247244Y58071D02*
X252756D01*
X244886Y60429D02*
X247244Y58071D01*
X247445Y60626D02*
Y66272D01*
Y60626D02*
X248819Y59252D01*
X259449Y49409D02*
X265748Y55709D01*
X242327Y60626D02*
X246063Y56890D01*
X242327Y60626D02*
Y66272D01*
X255906Y56890D02*
X259449Y60433D01*
X253543Y33268D02*
X259449Y27362D01*
X248425Y33268D02*
X253543D01*
X259449Y16339D02*
X259842D01*
X246063Y20669D02*
X250394Y16339D01*
X-34055Y131890D02*
X-31398D01*
X-35039Y132874D02*
X-34055Y131890D01*
X-35039Y132874D02*
Y134843D01*
X-37795Y136024D02*
X-36220D01*
X-37795Y140748D02*
X-37795Y140748D01*
Y136024D02*
Y140748D01*
X-36220Y136024D02*
X-35039Y134843D01*
X-28543Y134646D02*
Y134744D01*
X-31496Y134843D02*
X-28740D01*
X-33858Y153740D02*
X-33858Y153740D01*
Y150197D02*
Y153740D01*
Y145473D02*
Y150197D01*
X13248Y95276D02*
Y98484D01*
X14961Y100197D01*
X6102Y99016D02*
X7658Y97461D01*
X787Y95276D02*
X6083D01*
X-26122Y32283D02*
Y35492D01*
X-24409Y37205D01*
X-31713Y32283D02*
Y34468D01*
X-33268Y36024D02*
X-31713Y34468D01*
X-38583Y32283D02*
X-33287D01*
X-38535Y28693D02*
X-34246D01*
X-36858Y27118D02*
X-34246D01*
X-37402Y26575D02*
X-36858Y27118D01*
X-41142Y26575D02*
X-37402D01*
X-43307Y28740D02*
X-41142Y26575D01*
X-26122Y63779D02*
Y66988D01*
X-24409Y68701D01*
X-31713Y63779D02*
Y65965D01*
X-33268Y67520D02*
X-31713Y65965D01*
X-38583Y63779D02*
X-33287D01*
X-38535Y60189D02*
X-34246D01*
X-36858Y58614D02*
X-34246D01*
X-37402Y58071D02*
X-36858Y58614D01*
X-41142Y58071D02*
X-37402D01*
X-43307Y60236D02*
X-41142Y58071D01*
X-43307Y91732D02*
X-41142Y89567D01*
X-37402D01*
X-36858Y90110D01*
X-34246D01*
X-38535Y91685D02*
X-34246D01*
X-38583Y95276D02*
X-33287D01*
X-33268Y99016D02*
X-31713Y97461D01*
Y95276D02*
Y97461D01*
X-26122Y98484D02*
X-24409Y100197D01*
X-26122Y95276D02*
Y98484D01*
X100984Y171457D02*
Y173622D01*
X100394Y174213D02*
X100984Y173622D01*
X87992Y171457D02*
Y173622D01*
X88583Y174213D01*
X224799Y137988D02*
Y150748D01*
X266142Y122244D02*
X270079D01*
X271260Y121063D01*
X267323Y125787D02*
X270472D01*
X273622Y122638D01*
Y110433D02*
Y122638D01*
X265748Y55709D02*
Y62795D01*
X236614Y151378D02*
X244882D01*
X235980Y165866D02*
Y173185D01*
X14961Y100197D02*
X22441D01*
X-24409D02*
X-16929D01*
X-24409Y37205D02*
X-16929D01*
X-24409Y68701D02*
X-16929D01*
X234842Y232480D02*
Y257283D01*
X243110Y270079D02*
Y277953D01*
X88583Y174213D02*
X100394D01*
X149213Y171850D02*
X161063D01*
X246063Y20669D02*
Y30118D01*
X250394Y16339D02*
X259449D01*
X270866Y47441D02*
Y60433D01*
X246063Y56890D02*
X255906D01*
X232677Y136024D02*
X241732D01*
X233858Y146653D02*
X251181D01*
X235980Y156024D02*
X256614D01*
X243307Y176575D02*
X257087D01*
X244488Y206890D02*
X254331D01*
X231102Y183661D02*
Y193504D01*
X256299Y123425D02*
Y132087D01*
X50787Y277362D02*
X61024D01*
X62205Y276181D01*
Y275394D02*
Y276181D01*
X60039Y273228D02*
X62205Y275394D01*
X60039Y271598D02*
Y273228D01*
X33465Y249803D02*
X36614Y246654D01*
X33465Y249803D02*
Y256102D01*
X31299Y258268D02*
X33465Y256102D01*
X216929Y233169D02*
Y251378D01*
X123622Y153165D02*
Y154134D01*
X250394Y141929D02*
X262205D01*
X266929Y137205D01*
X270866D01*
X249606Y136811D02*
X258661D01*
X261024Y132874D02*
X262205Y130905D01*
X260343Y134009D02*
X261024Y132874D01*
X258661Y136811D02*
X260343Y134009D01*
X262205Y130905D02*
X267323Y125787D01*
X256299Y123425D02*
X259449Y120276D01*
X264173D01*
X266142Y122244D01*
X275590Y86811D02*
X278740Y89961D01*
X271260Y111221D02*
Y121063D01*
Y111221D02*
X278740Y103740D01*
Y89961D02*
Y103740D01*
X273622Y110433D02*
X280315Y103740D01*
Y95374D02*
Y103740D01*
X275590Y114370D02*
Y132480D01*
Y114370D02*
X277165Y112795D01*
X279177D01*
X279921Y113539D01*
X281933D01*
X275590Y77756D02*
Y86811D01*
Y77756D02*
X276772Y76575D01*
X278346D01*
X236221Y258661D02*
X258465D01*
X259842Y257283D01*
Y251772D02*
Y257283D01*
D167*
X152362Y60039D02*
X153937Y61614D01*
X155512Y60039D02*
X157087Y61614D01*
X133465Y63189D02*
X135039Y64764D01*
X133465Y66339D02*
X135039Y67913D01*
X18504Y154528D02*
X21654D01*
X198031Y102559D02*
X198031Y102559D01*
X198031Y99409D02*
X198031Y99410D01*
X133465Y113583D02*
X135039Y112008D01*
X133465Y116732D02*
X135039Y115157D01*
X133465Y78937D02*
X135039Y80512D01*
X133465Y82087D02*
X135039Y83661D01*
X185433Y89961D02*
X187008Y91535D01*
X188583Y89961D02*
X190157Y91535D01*
X185433Y58464D02*
X187008Y56890D01*
X185433Y61614D02*
X187008Y60039D01*
X236024Y114764D02*
Y119685D01*
Y110236D02*
Y114764D01*
X239764Y115945D02*
Y119882D01*
X236024Y109646D02*
Y110236D01*
X234449Y111811D02*
X236024Y110236D01*
X249016Y112795D02*
X253740D01*
X253740Y112795D01*
X249016Y116732D02*
X252362D01*
X243504Y109646D02*
Y110236D01*
X246063Y112795D01*
X249016D01*
X133465Y97835D02*
X135039Y96260D01*
X133465Y100984D02*
X135039Y99409D01*
X70866Y167520D02*
Y171457D01*
X142913Y82087D02*
X144488Y83661D01*
X139764Y82087D02*
X141339Y83661D01*
X188583Y115157D02*
X190157Y116732D01*
X185433Y112008D02*
X187008Y113583D01*
X228740Y111811D02*
X234449D01*
D168*
X201181Y118307D02*
X201181Y118307D01*
X194882Y121457D02*
X196457Y123031D01*
X198031Y121457D02*
X199606Y123031D01*
X18110Y77362D02*
Y80905D01*
X-21260Y45866D02*
Y49409D01*
Y77362D02*
Y80905D01*
Y14370D02*
Y17913D01*
D169*
X255906Y272441D02*
X269685D01*
X269685Y272441D01*
X250787Y237205D02*
Y251772D01*
D170*
X122047Y152659D02*
D03*
X123622Y152655D02*
D03*
D171*
X-28346Y1575D02*
D03*
D172*
X-10655D02*
D03*
D173*
X112992Y68898D02*
D03*
Y73228D02*
D03*
X217717Y62598D02*
D03*
Y66929D02*
D03*
Y81890D02*
D03*
D174*
X112992Y95276D02*
D03*
Y90945D02*
D03*
Y109843D02*
D03*
X217717Y86221D02*
D03*
Y129528D02*
D03*
Y125197D02*
D03*
Y101181D02*
D03*
Y105512D02*
D03*
D175*
X112992Y114370D02*
D03*
D176*
X120079Y141142D02*
D03*
D177*
X124606D02*
D03*
X139173D02*
D03*
D178*
X143504D02*
D03*
X123031Y35630D02*
D03*
X127362D02*
D03*
X146653D02*
D03*
X142323D02*
D03*
X162008D02*
D03*
X166339D02*
D03*
X183268Y141142D02*
D03*
X187598D02*
D03*
D179*
X158661Y142323D02*
D03*
D180*
X-68898Y119488D02*
D03*
Y166732D02*
D03*
Y25000D02*
D03*
Y72244D02*
D03*
D181*
X-68701Y116732D02*
D03*
Y22244D02*
D03*
D182*
X-58908Y124606D02*
D03*
Y171850D02*
D03*
Y30118D02*
D03*
Y77362D02*
D03*
D183*
X-51575Y123228D02*
D03*
Y170472D02*
D03*
D184*
X-9055Y126181D02*
D03*
D185*
X-24606Y138189D02*
D03*
D186*
X-24656Y120866D02*
D03*
D187*
X-7283Y118701D02*
D03*
D188*
X-22441Y115157D02*
D03*
D189*
X-14567Y130807D02*
D03*
D190*
X-33071Y129921D02*
D03*
D191*
X-37795Y131102D02*
D03*
D192*
X-68701Y163976D02*
D03*
Y69488D02*
D03*
D193*
X-51575Y28543D02*
D03*
Y75787D02*
D03*
D194*
X133758Y173425D02*
D03*
X270574Y169883D02*
D03*
D195*
X36614Y135827D02*
D03*
D196*
X278740Y272441D02*
D03*
D197*
X250984Y226772D02*
D03*
D198*
X252756Y264961D02*
D03*
D199*
X243307Y248622D02*
D03*
D200*
X120472Y218171D02*
D03*
D201*
Y228171D02*
D03*
Y238171D02*
D03*
D202*
X0Y0D02*
D03*
X230236D02*
D03*
X293110Y22874D02*
D03*
Y253110D02*
D03*
X230236Y260000D02*
D03*
X0D02*
D03*
D203*
X-80482Y252338D02*
D03*
X-16282Y246838D02*
D03*
D204*
X-24382Y215838D02*
D03*
X-28382Y225838D02*
D03*
X-52382D02*
D03*
X-40382Y215838D02*
D03*
X-56382D02*
D03*
X-72382D02*
D03*
X-64382D02*
D03*
X-32382D02*
D03*
X-60382Y225838D02*
D03*
X-44382D02*
D03*
X-36382D02*
D03*
D205*
X-68382D02*
D03*
D206*
X-76032Y280838D02*
D03*
X-20732D02*
D03*
X-76032Y290838D02*
D03*
X-20732D02*
D03*
D207*
X105118Y217992D02*
D03*
D208*
Y237992D02*
D03*
Y227992D02*
D03*
D209*
X148819Y193898D02*
D03*
X188189D02*
D03*
D210*
X225590Y185236D02*
D03*
X238976Y201378D02*
D03*
X259449Y115551D02*
D03*
X72835Y236417D02*
D03*
X2756Y134646D02*
D03*
X-51968Y30512D02*
D03*
Y77756D02*
D03*
Y125000D02*
D03*
Y172244D02*
D03*
X55118Y180905D02*
D03*
X-16535Y57677D02*
D03*
Y68701D02*
D03*
Y26181D02*
D03*
Y37205D02*
D03*
Y89173D02*
D03*
Y100197D02*
D03*
X22835Y89173D02*
D03*
Y100197D02*
D03*
X-40551Y1378D02*
D03*
X74803Y181299D02*
D03*
X259449Y104528D02*
D03*
Y93504D02*
D03*
Y82480D02*
D03*
Y71457D02*
D03*
Y60433D02*
D03*
Y49409D02*
D03*
Y38386D02*
D03*
Y27362D02*
D03*
Y16339D02*
D03*
X250394Y201378D02*
D03*
X244882Y132087D02*
D03*
Y191535D02*
D03*
X256299Y132087D02*
D03*
Y191535D02*
D03*
Y171063D02*
D03*
X250394Y181299D02*
D03*
Y161221D02*
D03*
X261811Y181299D02*
D03*
X244882Y171457D02*
D03*
X261811Y161221D02*
D03*
X244882Y151378D02*
D03*
X256299Y151378D02*
D03*
X238976Y141535D02*
D03*
X250394Y141929D02*
D03*
X238835Y100429D02*
D03*
D211*
X14108Y-18660D02*
D03*
X234108D02*
D03*
X229098Y294430D02*
D03*
X14098D02*
D03*
D212*
X29528Y151378D02*
D03*
Y148228D02*
D03*
X-69685Y14370D02*
D03*
X-67716Y12402D02*
D03*
X-71653D02*
D03*
Y16339D02*
D03*
X-67716D02*
D03*
X-69685Y156102D02*
D03*
X-67716Y154134D02*
D03*
X-71653D02*
D03*
Y158071D02*
D03*
X-67716D02*
D03*
X-23622Y130905D02*
D03*
X-27559D02*
D03*
Y126969D02*
D03*
X-23622D02*
D03*
X-25591Y128937D02*
D03*
X-67716Y110827D02*
D03*
X-71653D02*
D03*
Y106890D02*
D03*
X-67716D02*
D03*
X-69685Y108858D02*
D03*
X-67716Y63583D02*
D03*
X-71653D02*
D03*
Y59646D02*
D03*
X-67716D02*
D03*
X-69685Y61614D02*
D03*
D213*
X38189Y202165D02*
D03*
X33465D02*
D03*
X28740D02*
D03*
X24016D02*
D03*
X38189Y206890D02*
D03*
X33465D02*
D03*
X28740D02*
D03*
X24016D02*
D03*
X38189Y211614D02*
D03*
X33465D02*
D03*
X28740D02*
D03*
X24016D02*
D03*
X38189Y216339D02*
D03*
X33465D02*
D03*
X28740D02*
D03*
X24016D02*
D03*
D214*
X268110Y173819D02*
D03*
Y169882D02*
D03*
X267323Y146434D02*
D03*
Y149235D02*
D03*
X202362Y197441D02*
D03*
Y201378D02*
D03*
X176378Y178150D02*
D03*
X150787Y143898D02*
D03*
X27054Y25787D02*
D03*
X29954D02*
D03*
X32980D02*
D03*
X35839D02*
D03*
X38865D02*
D03*
X41765D02*
D03*
X51608D02*
D03*
X48708D02*
D03*
X54613D02*
D03*
X57513D02*
D03*
X60518D02*
D03*
X63419D02*
D03*
X119291Y155709D02*
D03*
X19685Y25394D02*
D03*
X35827Y236811D02*
D03*
X36614Y156102D02*
D03*
X18504Y158465D02*
D03*
Y154528D02*
D03*
X278543Y35361D02*
D03*
Y31961D02*
D03*
X280613Y53078D02*
D03*
X280661Y49778D02*
D03*
X278205Y58958D02*
D03*
X278469Y55658D02*
D03*
X280661Y61589D02*
D03*
X280512Y64889D02*
D03*
X278543Y67395D02*
D03*
X278543Y70866D02*
D03*
X281101Y73031D02*
D03*
X281102Y76575D02*
D03*
X79134Y228543D02*
D03*
X236024Y114764D02*
D03*
X27953Y246260D02*
D03*
Y243110D02*
D03*
X3150Y239567D02*
D03*
X37205Y243701D02*
D03*
X277953Y217717D02*
D03*
Y225591D02*
D03*
Y229528D02*
D03*
X228740Y121457D02*
D03*
X194487Y263976D02*
D03*
X191338D02*
D03*
X239764Y115945D02*
D03*
X277953Y79206D02*
D03*
Y82605D02*
D03*
X265945Y110702D02*
D03*
Y114102D02*
D03*
X103937Y161614D02*
D03*
X268110Y116607D02*
D03*
Y120007D02*
D03*
X55079Y251024D02*
D03*
X92480Y251575D02*
D03*
X143661Y260079D02*
D03*
X137756D02*
D03*
X131850D02*
D03*
X127913D02*
D03*
X122008D02*
D03*
X116102Y251575D02*
D03*
X110197D02*
D03*
X104291D02*
D03*
X98386D02*
D03*
X166535Y260433D02*
D03*
X143661Y284409D02*
D03*
X137756D02*
D03*
X131850D02*
D03*
X125945D02*
D03*
X120039D02*
D03*
X114134D02*
D03*
X110197D02*
D03*
X104291D02*
D03*
X98386D02*
D03*
X173189Y260441D02*
D03*
X177126D02*
D03*
X181063D02*
D03*
X186969D02*
D03*
X192874Y250669D02*
D03*
X198779Y260441D02*
D03*
X204685D02*
D03*
X210591D02*
D03*
X216496D02*
D03*
X222402D02*
D03*
X210591Y275000D02*
D03*
X35394Y251024D02*
D03*
X31457D02*
D03*
X62953D02*
D03*
X51142D02*
D03*
X61024Y246654D02*
D03*
X45669Y236811D02*
D03*
X45276Y243504D02*
D03*
X42126Y244291D02*
D03*
X45669Y272638D02*
D03*
X8661Y273031D02*
D03*
X160630Y149016D02*
D03*
Y152165D02*
D03*
X835Y91685D02*
D03*
X-3937Y91732D02*
D03*
X-14567Y21457D02*
D03*
X-17717D02*
D03*
X133465Y167126D02*
D03*
X5118Y220669D02*
D03*
X-787Y219882D02*
D03*
X-3937D02*
D03*
X13780Y239567D02*
D03*
X19685Y226575D02*
D03*
X16142Y260827D02*
D03*
X12618Y248992D02*
D03*
X78740Y217125D02*
D03*
X158268Y169882D02*
D03*
X186417Y222835D02*
D03*
X199803Y169095D02*
D03*
X188189Y267913D02*
D03*
X21260Y184449D02*
D03*
X28346D02*
D03*
X23228Y187598D02*
D03*
X29921D02*
D03*
X-5512Y240748D02*
D03*
X50000Y232874D02*
D03*
Y229724D02*
D03*
X66535Y235630D02*
D03*
Y226181D02*
D03*
X74016Y196653D02*
D03*
X77559Y221457D02*
D03*
X25984Y187598D02*
D03*
X32677Y187598D02*
D03*
X39370D02*
D03*
X42520D02*
D03*
X53150Y191142D02*
D03*
Y194685D02*
D03*
Y215551D02*
D03*
Y218701D02*
D03*
Y197835D02*
D03*
Y200984D02*
D03*
X176378Y210039D02*
D03*
X144882Y210039D02*
D03*
X152756D02*
D03*
X160630D02*
D03*
X168504D02*
D03*
X192126Y210039D02*
D03*
X184252Y210039D02*
D03*
X267913Y160630D02*
D03*
X250787Y79724D02*
D03*
X282283Y102165D02*
D03*
Y108465D02*
D03*
X10630Y131299D02*
D03*
Y136024D02*
D03*
Y140748D02*
D03*
X15354D02*
D03*
Y136024D02*
D03*
Y131299D02*
D03*
X-40945Y150197D02*
D03*
Y145472D02*
D03*
X-31496Y134843D02*
D03*
X-33858Y153740D02*
D03*
Y137205D02*
D03*
X-1969Y76575D02*
D03*
X394D02*
D03*
X11811Y77362D02*
D03*
Y74606D02*
D03*
X8661D02*
D03*
X5512D02*
D03*
X8661Y77362D02*
D03*
X5512D02*
D03*
X24803Y84449D02*
D03*
X21654D02*
D03*
X18504D02*
D03*
X24803Y81299D02*
D03*
X21654D02*
D03*
X18110Y77362D02*
D03*
X9252Y99016D02*
D03*
X6102D02*
D03*
X787Y95276D02*
D03*
X-41339Y13583D02*
D03*
X-38976D02*
D03*
X-27559Y14370D02*
D03*
Y11614D02*
D03*
X-30709D02*
D03*
X-33858D02*
D03*
X-30709Y14370D02*
D03*
X-33858D02*
D03*
X-20866Y21457D02*
D03*
X-14567Y18307D02*
D03*
X-17717D02*
D03*
X-21260Y14370D02*
D03*
X-30118Y36024D02*
D03*
X-33268D02*
D03*
X-38583Y32283D02*
D03*
X-38535Y28693D02*
D03*
X-43307Y28740D02*
D03*
X-41339Y45079D02*
D03*
X-38976D02*
D03*
X-27559Y45866D02*
D03*
Y43110D02*
D03*
X-30709D02*
D03*
X-33858D02*
D03*
X-30709Y45866D02*
D03*
X-33858D02*
D03*
X-14567Y52953D02*
D03*
X-17717D02*
D03*
X-20866D02*
D03*
X-14567Y49803D02*
D03*
X-17717D02*
D03*
X-21260Y45866D02*
D03*
X-30118Y67520D02*
D03*
X-33268D02*
D03*
X-38583Y63779D02*
D03*
X-38535Y60189D02*
D03*
X-43307Y60236D02*
D03*
Y91732D02*
D03*
X-38535Y91685D02*
D03*
X-38583Y95276D02*
D03*
X-33268Y99016D02*
D03*
X-30118D02*
D03*
X-21260Y77362D02*
D03*
X-17717Y81299D02*
D03*
X-14567D02*
D03*
X-20866Y84449D02*
D03*
X-17717D02*
D03*
X-14567D02*
D03*
X280118Y169882D02*
D03*
X44881Y25787D02*
D03*
X67716Y8071D02*
D03*
X46850D02*
D03*
X56299D02*
D03*
X51575D02*
D03*
X42126D02*
D03*
X31102D02*
D03*
X26378D02*
D03*
X21654D02*
D03*
X16929D02*
D03*
X1969D02*
D03*
X6693D02*
D03*
X5236Y20157D02*
D03*
X9803Y15197D02*
D03*
X11811Y13189D02*
D03*
X13740Y15197D02*
D03*
X15709Y24567D02*
D03*
X35433Y34449D02*
D03*
X30709Y47047D02*
D03*
X25984D02*
D03*
X30709Y42323D02*
D03*
X25984D02*
D03*
X30709Y34449D02*
D03*
X25984D02*
D03*
X-8661Y34843D02*
D03*
X-5118D02*
D03*
X-1181Y34449D02*
D03*
X-8661Y41929D02*
D03*
X-5118D02*
D03*
X-1181D02*
D03*
X-1083Y31398D02*
D03*
X-1181Y27756D02*
D03*
X174409Y8071D02*
D03*
X145669D02*
D03*
X135039D02*
D03*
X130315D02*
D03*
X125591D02*
D03*
X120866D02*
D03*
X95669D02*
D03*
X100394D02*
D03*
X109843D02*
D03*
X105118D02*
D03*
X90512Y15197D02*
D03*
X102323D02*
D03*
X108228D02*
D03*
X114134D02*
D03*
X120039D02*
D03*
X125945D02*
D03*
X131850D02*
D03*
X137756D02*
D03*
X143701Y15157D02*
D03*
X222402Y15197D02*
D03*
X216496D02*
D03*
X177126D02*
D03*
X151181Y8071D02*
D03*
X200748Y15197D02*
D03*
X243701Y29331D02*
D03*
X285039Y63976D02*
D03*
X233071Y29331D02*
D03*
X228346D02*
D03*
X226972Y61421D02*
D03*
X250004Y61224D02*
D03*
X239768D02*
D03*
X216142Y47835D02*
D03*
X221654Y46654D02*
D03*
X211811Y41535D02*
D03*
Y38386D02*
D03*
X250004Y46256D02*
D03*
X235433Y37205D02*
D03*
X239768Y37996D02*
D03*
X237402Y46260D02*
D03*
X278346Y85827D02*
D03*
X252362Y116732D02*
D03*
X302165Y30709D02*
D03*
X291929Y32677D02*
D03*
X302165Y34646D02*
D03*
X291929Y36614D02*
D03*
X302165Y38583D02*
D03*
X291929Y40551D02*
D03*
X302165Y42520D02*
D03*
X291929Y44488D02*
D03*
X302165Y46457D02*
D03*
X291929Y48425D02*
D03*
X302165Y50394D02*
D03*
X291929Y52362D02*
D03*
X302165Y54331D02*
D03*
Y58268D02*
D03*
X291929Y56299D02*
D03*
Y60236D02*
D03*
X302165Y62205D02*
D03*
X291929Y64173D02*
D03*
X302165Y66142D02*
D03*
X291929Y68110D02*
D03*
X302165Y70079D02*
D03*
X268307Y30709D02*
D03*
Y36614D02*
D03*
Y42520D02*
D03*
Y48425D02*
D03*
Y54331D02*
D03*
Y60236D02*
D03*
Y66142D02*
D03*
Y72047D02*
D03*
Y77953D02*
D03*
Y85827D02*
D03*
X267913Y156693D02*
D03*
X235433Y219488D02*
D03*
Y210827D02*
D03*
X221161Y225492D02*
D03*
X221161Y230610D02*
D03*
X44488Y39567D02*
D03*
X47638D02*
D03*
Y42717D02*
D03*
X44488D02*
D03*
Y55315D02*
D03*
X47638D02*
D03*
Y58465D02*
D03*
X44488D02*
D03*
Y83661D02*
D03*
X47638D02*
D03*
Y86811D02*
D03*
X44488D02*
D03*
Y99410D02*
D03*
X47638D02*
D03*
Y102559D02*
D03*
X44488D02*
D03*
X285039Y23425D02*
D03*
Y26575D02*
D03*
Y29724D02*
D03*
Y38780D02*
D03*
Y41929D02*
D03*
Y45079D02*
D03*
Y51378D02*
D03*
Y54528D02*
D03*
Y67126D02*
D03*
Y70276D02*
D03*
Y73425D02*
D03*
Y76575D02*
D03*
Y79724D02*
D03*
Y88779D02*
D03*
X302165Y75984D02*
D03*
Y79921D02*
D03*
Y83858D02*
D03*
Y87795D02*
D03*
Y109449D02*
D03*
Y113386D02*
D03*
Y117323D02*
D03*
Y121260D02*
D03*
Y125197D02*
D03*
Y129134D02*
D03*
Y133071D02*
D03*
Y137008D02*
D03*
Y140945D02*
D03*
Y144882D02*
D03*
Y148819D02*
D03*
Y152756D02*
D03*
Y156693D02*
D03*
Y160630D02*
D03*
X224803Y280118D02*
D03*
X216496Y284803D02*
D03*
X202716Y284803D02*
D03*
X204685Y273858D02*
D03*
X200748D02*
D03*
X194843D02*
D03*
X188937D02*
D03*
X183031D02*
D03*
X177126Y273858D02*
D03*
X171221Y273858D02*
D03*
X165315D02*
D03*
X249606Y263976D02*
D03*
Y267126D02*
D03*
X252756D02*
D03*
X246457Y263976D02*
D03*
X269685Y272441D02*
D03*
Y278740D02*
D03*
X263386Y230906D02*
D03*
X245276Y254921D02*
D03*
Y251772D02*
D03*
Y245472D02*
D03*
X242126D02*
D03*
Y242323D02*
D03*
X263386Y278740D02*
D03*
X224803Y267913D02*
D03*
X210630D02*
D03*
X205906D02*
D03*
X200000D02*
D03*
X182677D02*
D03*
X176772D02*
D03*
X158661D02*
D03*
X150394D02*
D03*
X146063D02*
D03*
X26772D02*
D03*
X30315D02*
D03*
X43307D02*
D03*
X55118D02*
D03*
X135433D02*
D03*
X125591D02*
D03*
X109449D02*
D03*
X102756D02*
D03*
X98819D02*
D03*
X94882D02*
D03*
X69685D02*
D03*
X73228D02*
D03*
X78740D02*
D03*
X82677Y264764D02*
D03*
X87008D02*
D03*
X96063Y272244D02*
D03*
X90551Y271063D02*
D03*
X94449Y284409D02*
D03*
X90512D02*
D03*
X87402Y275000D02*
D03*
X86614Y284448D02*
D03*
X190748Y231496D02*
D03*
X208110Y231142D02*
D03*
X208071Y241339D02*
D03*
X172835Y213976D02*
D03*
X185433Y213976D02*
D03*
X184252Y178150D02*
D03*
X192126D02*
D03*
X184252Y174213D02*
D03*
X192126Y175000D02*
D03*
X137402Y176181D02*
D03*
X157873Y237598D02*
D03*
X169095Y222835D02*
D03*
X157874Y232874D02*
D03*
X153937Y237598D02*
D03*
X142323Y213386D02*
D03*
Y220866D02*
D03*
X59764Y267992D02*
D03*
X155610Y133563D02*
D03*
X155512Y143504D02*
D03*
X161811Y144291D02*
D03*
X168504D02*
D03*
Y141142D02*
D03*
Y137992D02*
D03*
X7835Y260776D02*
D03*
X224799Y175390D02*
D03*
X222835Y178543D02*
D03*
X226772Y143504D02*
D03*
X220472Y172638D02*
D03*
X-35661Y120504D02*
D03*
X-5512Y120276D02*
D03*
X-9055D02*
D03*
X-5512Y117126D02*
D03*
X-21260Y117520D02*
D03*
Y115157D02*
D03*
Y112795D02*
D03*
X-9055Y117126D02*
D03*
Y113976D02*
D03*
X-5512D02*
D03*
X-14567Y126181D02*
D03*
X-31496Y123425D02*
D03*
X-5512Y123819D02*
D03*
X-9055D02*
D03*
X-60630Y103740D02*
D03*
X-82677Y97047D02*
D03*
X-75590Y102953D02*
D03*
X-63834Y102952D02*
D03*
X-85433Y122244D02*
D03*
X-51181Y93110D02*
D03*
X-47638D02*
D03*
Y96260D02*
D03*
X-51181D02*
D03*
Y99410D02*
D03*
X-47638D02*
D03*
Y102953D02*
D03*
X-51181D02*
D03*
X-63779Y95079D02*
D03*
Y92716D02*
D03*
Y97441D02*
D03*
X-80709Y131299D02*
D03*
X5512Y152953D02*
D03*
X22441Y143504D02*
D03*
X19291D02*
D03*
X-80709Y178543D02*
D03*
X-63779Y144685D02*
D03*
Y139961D02*
D03*
Y142323D02*
D03*
X-51181Y150197D02*
D03*
X-47638D02*
D03*
Y146653D02*
D03*
X-51181D02*
D03*
Y143504D02*
D03*
X-47638D02*
D03*
Y140354D02*
D03*
X-51181D02*
D03*
X-85433Y169488D02*
D03*
X-63834Y150196D02*
D03*
X-75590Y150197D02*
D03*
X-82677Y144291D02*
D03*
X-60630Y150984D02*
D03*
X-80709Y36811D02*
D03*
X-63779Y2953D02*
D03*
Y-1772D02*
D03*
Y591D02*
D03*
X-51181Y8465D02*
D03*
X-47638D02*
D03*
Y4921D02*
D03*
X-51181D02*
D03*
Y1772D02*
D03*
X-47638D02*
D03*
Y-1378D02*
D03*
X-51181D02*
D03*
X-85433Y27756D02*
D03*
X-63834Y8464D02*
D03*
X-75590Y8465D02*
D03*
X-82677Y2559D02*
D03*
X-60630Y9252D02*
D03*
X-80709Y84055D02*
D03*
X-63779Y50197D02*
D03*
Y45472D02*
D03*
Y47835D02*
D03*
X-51181Y55709D02*
D03*
X-47638D02*
D03*
Y52165D02*
D03*
X-51181D02*
D03*
Y49016D02*
D03*
X-47638D02*
D03*
Y45866D02*
D03*
X-51181D02*
D03*
X-85433Y75000D02*
D03*
X-63834Y55708D02*
D03*
X-75590Y55709D02*
D03*
X-82677Y49803D02*
D03*
X-60630Y56496D02*
D03*
X63071Y267992D02*
D03*
X78347Y278543D02*
D03*
X59449Y275394D02*
D03*
X62850Y262937D02*
D03*
X57480Y272638D02*
D03*
X47638Y275394D02*
D03*
X33858Y273031D02*
D03*
X28882Y271598D02*
D03*
X11024Y275394D02*
D03*
X15709Y284409D02*
D03*
X19646D02*
D03*
X23583D02*
D03*
X21614Y275433D02*
D03*
X17677D02*
D03*
X25551D02*
D03*
X27520Y284409D02*
D03*
X31457D02*
D03*
X35433Y284842D02*
D03*
X37362Y275039D02*
D03*
X39331Y284409D02*
D03*
X40157Y275000D02*
D03*
X43307Y284449D02*
D03*
X48031Y284842D02*
D03*
X51142Y284409D02*
D03*
X51968Y275000D02*
D03*
X55079Y284409D02*
D03*
X72047Y275394D02*
D03*
X62953Y284803D02*
D03*
X64921Y275039D02*
D03*
X39228Y262937D02*
D03*
X50787Y262795D02*
D03*
X57480Y248228D02*
D03*
X48878Y267972D02*
D03*
X37874Y267992D02*
D03*
X35039Y267913D02*
D03*
X9803Y251024D02*
D03*
X15709D02*
D03*
X19646D02*
D03*
X-3071Y267992D02*
D03*
X3091Y273366D02*
D03*
X-0Y273424D02*
D03*
X11811Y284449D02*
D03*
X24016Y263189D02*
D03*
X19291Y263976D02*
D03*
X23622Y250984D02*
D03*
X27520Y251024D02*
D03*
X39370Y250984D02*
D03*
X43307D02*
D03*
X47205Y251024D02*
D03*
X49213Y246654D02*
D03*
X53150D02*
D03*
X59016Y251024D02*
D03*
X-33858Y77362D02*
D03*
X-30709D02*
D03*
X-33858Y74606D02*
D03*
X-30709D02*
D03*
X-27559D02*
D03*
Y77362D02*
D03*
X-38976Y76575D02*
D03*
X-41339D02*
D03*
X29488Y-9213D02*
D03*
X25591Y-9252D02*
D03*
X21614Y-9213D02*
D03*
X17677D02*
D03*
X13740D02*
D03*
X11772Y945D02*
D03*
X9843Y-9252D02*
D03*
X7835Y945D02*
D03*
X15709D02*
D03*
X19646D02*
D03*
X23583D02*
D03*
X27520D02*
D03*
X41339Y248622D02*
D03*
X-3150Y264370D02*
D03*
X167717Y169882D02*
D03*
X184252Y169882D02*
D03*
X211768Y177910D02*
D03*
X217717Y149803D02*
D03*
X211811Y155512D02*
D03*
X209268Y166520D02*
D03*
X212205Y166535D02*
D03*
X207087Y147835D02*
D03*
X206299Y141929D02*
D03*
X202362D02*
D03*
X215158Y139961D02*
D03*
X221260D02*
D03*
X218307Y145866D02*
D03*
X228937Y191339D02*
D03*
X216535Y205315D02*
D03*
Y211614D02*
D03*
X227165Y246654D02*
D03*
X221653Y239960D02*
D03*
X220866Y246654D02*
D03*
X229134Y267913D02*
D03*
X292913Y166535D02*
D03*
X302165Y164567D02*
D03*
X280807Y165256D02*
D03*
X285039Y253740D02*
D03*
Y246654D02*
D03*
Y250197D02*
D03*
Y232087D02*
D03*
Y211221D02*
D03*
Y186417D02*
D03*
Y183268D02*
D03*
Y180118D02*
D03*
X301969Y245276D02*
D03*
X292520Y243307D02*
D03*
X301969Y241339D02*
D03*
X292520Y239370D02*
D03*
X301969Y237402D02*
D03*
X292520Y235433D02*
D03*
X301969Y233465D02*
D03*
X292520Y231496D02*
D03*
X301969Y229528D02*
D03*
X292520Y227559D02*
D03*
X301969Y225591D02*
D03*
X278150Y203937D02*
D03*
Y200000D02*
D03*
X267913Y164567D02*
D03*
X253740Y112795D02*
D03*
X265551Y166535D02*
D03*
X277756Y154724D02*
D03*
X267913Y152756D02*
D03*
X277756Y150787D02*
D03*
Y144882D02*
D03*
X277953Y138976D02*
D03*
Y133071D02*
D03*
Y127165D02*
D03*
Y121260D02*
D03*
Y115354D02*
D03*
Y109449D02*
D03*
X278150Y192126D02*
D03*
Y188189D02*
D03*
X280315Y190157D02*
D03*
Y201969D02*
D03*
X267717Y194095D02*
D03*
X265748Y196063D02*
D03*
Y205906D02*
D03*
Y209842D02*
D03*
X267717Y207874D02*
D03*
Y211811D02*
D03*
Y215748D02*
D03*
Y219685D02*
D03*
X277953Y221654D02*
D03*
X267717Y223622D02*
D03*
Y227559D02*
D03*
Y231496D02*
D03*
Y235433D02*
D03*
X265748Y237402D02*
D03*
X267717Y239370D02*
D03*
X265748Y241339D02*
D03*
X267717Y243307D02*
D03*
X265748Y245276D02*
D03*
X292520Y219685D02*
D03*
X301969Y221654D02*
D03*
Y217717D02*
D03*
X292520Y223622D02*
D03*
Y215748D02*
D03*
X301969Y213779D02*
D03*
X292520Y211811D02*
D03*
X301969Y209842D02*
D03*
X292520Y207874D02*
D03*
X301969Y205906D02*
D03*
X292520Y203937D02*
D03*
X301969Y201969D02*
D03*
Y198031D02*
D03*
X292520Y196063D02*
D03*
Y192126D02*
D03*
X301969Y190157D02*
D03*
X292520Y188189D02*
D03*
X265748Y233465D02*
D03*
X248424Y28937D02*
D03*
X232090Y51177D02*
D03*
X229532Y53350D02*
D03*
X234646Y54134D02*
D03*
X237402Y50984D02*
D03*
X227165Y81299D02*
D03*
X241338Y80118D02*
D03*
X239370Y48622D02*
D03*
X285038Y48622D02*
D03*
X292989Y81890D02*
D03*
Y85827D02*
D03*
X211811Y44685D02*
D03*
X165315Y15197D02*
D03*
X171221D02*
D03*
X183031D02*
D03*
X188937D02*
D03*
X194843D02*
D03*
X205117Y15157D02*
D03*
X210591Y15197D02*
D03*
X224016Y8071D02*
D03*
X229921D02*
D03*
X163779D02*
D03*
X157480D02*
D03*
X84646D02*
D03*
X35394Y-9213D02*
D03*
X41299D02*
D03*
X47205D02*
D03*
X53110D02*
D03*
X59016D02*
D03*
X64921D02*
D03*
X90512D02*
D03*
X88543Y551D02*
D03*
X86575Y-9213D02*
D03*
X96417D02*
D03*
X102323D02*
D03*
X108228D02*
D03*
X114134D02*
D03*
X120039D02*
D03*
X125945D02*
D03*
X131850D02*
D03*
X143661D02*
D03*
X137756D02*
D03*
X165315D02*
D03*
X171221D02*
D03*
X177126D02*
D03*
X183031D02*
D03*
X188937D02*
D03*
X194843D02*
D03*
X200748D02*
D03*
X206653D02*
D03*
X212559D02*
D03*
X218465D02*
D03*
X222402D02*
D03*
X79528Y8071D02*
D03*
X72441D02*
D03*
X88543Y25354D02*
D03*
X83346Y20157D02*
D03*
X178347Y34055D02*
D03*
Y37205D02*
D03*
X201969D02*
D03*
Y34055D02*
D03*
X179134Y8071D02*
D03*
X183858D02*
D03*
X188583D02*
D03*
X199606D02*
D03*
X204331D02*
D03*
X209055D02*
D03*
X213779D02*
D03*
X96417Y15197D02*
D03*
X64921D02*
D03*
X59016D02*
D03*
X53110D02*
D03*
X47205D02*
D03*
X43268D02*
D03*
X37362D02*
D03*
X31496Y15157D02*
D03*
X25551Y15197D02*
D03*
X21614D02*
D03*
X17677D02*
D03*
X25984Y30512D02*
D03*
X12992Y27756D02*
D03*
X16142Y27756D02*
D03*
X20866Y31299D02*
D03*
X20374Y46949D02*
D03*
X-2476Y51492D02*
D03*
X25961Y50614D02*
D03*
X16929Y54134D02*
D03*
X7874Y53740D02*
D03*
X10630Y50984D02*
D03*
X13780D02*
D03*
X1575Y43898D02*
D03*
X9843Y25787D02*
D03*
X193701Y37205D02*
D03*
Y34055D02*
D03*
X186221D02*
D03*
Y37205D02*
D03*
X293306Y78149D02*
D03*
X272953Y90669D02*
D03*
X285039Y92126D02*
D03*
Y206496D02*
D03*
Y201772D02*
D03*
Y197047D02*
D03*
Y222638D02*
D03*
Y227362D02*
D03*
Y236811D02*
D03*
X277953Y213779D02*
D03*
X263386Y265945D02*
D03*
X269685D02*
D03*
X287795D02*
D03*
Y272244D02*
D03*
Y278937D02*
D03*
X282677D02*
D03*
X276378D02*
D03*
Y272244D02*
D03*
X282677D02*
D03*
Y265945D02*
D03*
X276378D02*
D03*
X263386Y216732D02*
D03*
Y224213D02*
D03*
X257087Y216732D02*
D03*
Y224213D02*
D03*
Y230906D02*
D03*
Y237205D02*
D03*
X250787D02*
D03*
X244488D02*
D03*
Y230906D02*
D03*
X250787D02*
D03*
Y224213D02*
D03*
Y216732D02*
D03*
X244488D02*
D03*
Y224213D02*
D03*
X245276Y248622D02*
D03*
X257087Y243504D02*
D03*
X238189Y224213D02*
D03*
X259055Y267126D02*
D03*
X255906D02*
D03*
X294094Y265945D02*
D03*
Y272244D02*
D03*
Y278937D02*
D03*
X124409Y150197D02*
D03*
X268110Y143504D02*
D03*
Y140157D02*
D03*
Y128347D02*
D03*
Y131890D02*
D03*
X278543Y43772D02*
D03*
Y47172D02*
D03*
X-47244Y20669D02*
D03*
Y23819D02*
D03*
Y26969D02*
D03*
Y36417D02*
D03*
X-50394D02*
D03*
X-53543D02*
D03*
X-47244Y33268D02*
D03*
Y80512D02*
D03*
X-53543Y83661D02*
D03*
X-50394D02*
D03*
X-47244D02*
D03*
Y74213D02*
D03*
Y71063D02*
D03*
Y67913D02*
D03*
Y128150D02*
D03*
X-53543Y131299D02*
D03*
X-50394D02*
D03*
X-47244D02*
D03*
Y121850D02*
D03*
Y118701D02*
D03*
Y115551D02*
D03*
Y175394D02*
D03*
X-53543Y178543D02*
D03*
X-50394D02*
D03*
X-47244D02*
D03*
Y169095D02*
D03*
Y165945D02*
D03*
Y162795D02*
D03*
X202756Y169095D02*
D03*
X94882Y167126D02*
D03*
X87795Y148228D02*
D03*
X88976Y167126D02*
D03*
X81890D02*
D03*
X87795Y156102D02*
D03*
Y152165D02*
D03*
X68898Y156102D02*
D03*
Y152165D02*
D03*
Y148228D02*
D03*
X45669Y164764D02*
D03*
Y171063D02*
D03*
Y177362D02*
D03*
X39370Y164764D02*
D03*
Y177362D02*
D03*
X18012Y164075D02*
D03*
X7185Y166634D02*
D03*
X18012Y169193D02*
D03*
X7185Y171752D02*
D03*
X53150Y208858D02*
D03*
Y205709D02*
D03*
X39764Y184449D02*
D03*
X37008Y182480D02*
D03*
X9055Y195079D02*
D03*
X13780Y213976D02*
D03*
X6693D02*
D03*
X9843Y223425D02*
D03*
Y219882D02*
D03*
X33858Y182480D02*
D03*
Y178543D02*
D03*
X39370Y171063D02*
D03*
X35039D02*
D03*
Y167913D02*
D03*
X29528Y175394D02*
D03*
X32677D02*
D03*
X35827Y176181D02*
D03*
X46063Y181693D02*
D03*
X7480Y183268D02*
D03*
X10630D02*
D03*
X7480Y191142D02*
D03*
X10630D02*
D03*
X1575Y190354D02*
D03*
Y184055D02*
D03*
X66535Y221457D02*
D03*
Y217126D02*
D03*
Y212795D02*
D03*
X66535Y208465D02*
D03*
X66535Y204134D02*
D03*
X66535Y199803D02*
D03*
X101969Y167126D02*
D03*
X119291Y163976D02*
D03*
X121260Y150197D02*
D03*
X11811Y260728D02*
D03*
X19291Y260827D02*
D03*
X28346Y263189D02*
D03*
X40693Y271598D02*
D03*
X1969Y236024D02*
D03*
Y245079D02*
D03*
X9055Y198622D02*
D03*
X6693Y204134D02*
D03*
X13976Y204331D02*
D03*
X18504Y187598D02*
D03*
X15354D02*
D03*
X5118Y226969D02*
D03*
X-787Y227756D02*
D03*
X131890Y267913D02*
D03*
X162992D02*
D03*
X87402Y250591D02*
D03*
X173425Y235630D02*
D03*
X301969Y194095D02*
D03*
X267717Y198031D02*
D03*
X292520Y200000D02*
D03*
X185433Y217913D02*
D03*
X96063Y262795D02*
D03*
X115748D02*
D03*
X171260Y132480D02*
D03*
X64567Y248228D02*
D03*
X71653D02*
D03*
X163779Y135630D02*
D03*
X-33858Y4134D02*
D03*
X-28346Y6496D02*
D03*
X-25591D02*
D03*
X-22835Y-3740D02*
D03*
X-33858Y-1378D02*
D03*
Y1378D02*
D03*
X-25591Y-3740D02*
D03*
X-31102Y6496D02*
D03*
X-22835D02*
D03*
X-28346Y-3740D02*
D03*
X-31102D02*
D03*
X-7480D02*
D03*
X-10236D02*
D03*
X-15748Y6496D02*
D03*
X-7480D02*
D03*
X-12992Y-3740D02*
D03*
X-15748D02*
D03*
X-12992Y6496D02*
D03*
X-10236D02*
D03*
X-4724Y4134D02*
D03*
X-19783Y123130D02*
D03*
X-18504Y108071D02*
D03*
X-75492Y114665D02*
D03*
X-75590Y162008D02*
D03*
X-75492Y20177D02*
D03*
X-75492Y67421D02*
D03*
X7835Y284409D02*
D03*
X28346Y275000D02*
D03*
X-31102Y193110D02*
D03*
X-25591D02*
D03*
X-87795Y225787D02*
D03*
X-86221Y221063D02*
D03*
X-3937Y227756D02*
D03*
X253543Y8465D02*
D03*
X275984Y-2165D02*
D03*
X252953Y-5906D02*
D03*
X280512Y37867D02*
D03*
X280708Y41535D02*
D03*
X262598Y125913D02*
D03*
Y122513D02*
D03*
X90551Y275000D02*
D03*
X131890Y173425D02*
D03*
X262598Y137724D02*
D03*
Y134324D02*
D03*
X55512Y230906D02*
D03*
X53937Y226181D02*
D03*
X45669Y225787D02*
D03*
X22835Y226575D02*
D03*
X27559Y226969D02*
D03*
X28740Y232874D02*
D03*
X36220Y226968D02*
D03*
X30708D02*
D03*
X32677Y232874D02*
D03*
X39763Y230511D02*
D03*
Y226574D02*
D03*
X52362Y131693D02*
D03*
X56693D02*
D03*
X61024D02*
D03*
X65354D02*
D03*
X69685D02*
D03*
X74016D02*
D03*
X78347D02*
D03*
X82677D02*
D03*
X87008D02*
D03*
X91339D02*
D03*
X95669D02*
D03*
X100000D02*
D03*
X103543D02*
D03*
X44488D02*
D03*
X48425D02*
D03*
X44488Y147047D02*
D03*
X48425D02*
D03*
X52362D02*
D03*
Y144291D02*
D03*
X48425D02*
D03*
X44488D02*
D03*
Y149803D02*
D03*
X48425D02*
D03*
X52362D02*
D03*
X33858Y136024D02*
D03*
X212597Y188778D02*
D03*
X212598Y197441D02*
D03*
X70866Y167520D02*
D03*
X90158Y237992D02*
D03*
X253543Y99803D02*
D03*
Y96653D02*
D03*
X-20472Y181299D02*
D03*
X-83465Y200591D02*
D03*
X-82677Y195866D02*
D03*
X-70079D02*
D03*
X276378Y285236D02*
D03*
X238189Y230906D02*
D03*
X-48425Y202953D02*
D03*
X-50516Y205044D02*
D03*
M02*
