M48
;Layer_Color=9474304
;FILE_FORMAT=2:5
INCH,LZ
;TYPE=PLATED
T1F00S00C0.00800
T2F00S00C0.01181
T3F00S00C0.01200
T4F00S00C0.01299
T5F00S00C0.03500
T6F00S00C0.03800
T7F00S00C0.04134
T8F00S00C0.05000
T9F00S00C0.05500
T10F00S00C0.09100
;TYPE=NON_PLATED
T11F00S00C0.03937
T12F00S00C0.04016
T13F00S00C0.12500
%
T01
X0031457Y0000158
X0034252Y0000197
X0037362Y0000158
X0039961Y0000197
X0042717
X0045866
X0048622
X0051476
X0054134Y0000295
X005748Y0000197
X0060236Y0000492
X0063976Y0000591
X0092126Y0000197
X0095374Y0000295
X0098386Y0000453
X0098524Y0003543
X0103543Y0000394
X0106889
X0109744Y0000295
X0112401
X0115649Y0000197
X0101181Y0036417
X0098032
X0094882
X0091732
X0088583
X0085433
Y0039567
X0088583
Y0042717
X0085433
X0082284
X0079134
Y0039567
X0082284
Y0036417
X0079134
X0072835
Y0039567
X0075984
Y0042717
X0072835
X0069685
Y0039567
X0066535
X0063386
X0060236
Y0042717
X0063386
X0057087
X0053937
Y0039567
X0057087
Y0036417
X0053937
X0060236
X0063386
X0066535
X0091732Y0039567
X0094882
Y0042717
X0091732
X0098032
X0101181
Y0039567
X0098032
X0123622Y003878
X0126772
Y003563
X0123622
Y003248
X0126772
X0142913
X0146063
Y003563
X0142913
Y003878
X0146063
X0162598
Y003563
X0165748
Y003878
Y003248
X0162598
X0166535Y0001083
X0169587Y0000787
X0173543Y0001181
X0178445Y0000591
X0181693Y0000689
X0184449Y0000787
X01875
X0190354
X0193504
X019626Y0000886
X0199311
X0202854
X0205154
X0208022Y0000443
X0210531Y0002264
X0214407Y0000984
X0216667
X0220374Y0001378
X0220866Y0025394
X021811
X0193307Y0041142
X0190157
X0176969Y0003543
X0142421Y0000197
X0139173
X0136319Y0000295
X0133267
X0130413
X0127559
X0124409
X0121456
X0118504Y0000197
X028189Y0117323
X0285039Y0117323
Y012126
X028189Y012126
Y0125197
X0285039
Y0129134
X028189
Y0133071
X0285039
X028189Y0137008
Y0140945
Y0144882
X0285039
Y0148819
X028189
Y0152756
X0285039
Y0156693
X028189Y0156693
Y016063
X0285039Y016752
Y0174213
X0292913Y0162598
Y0158661
Y0154724
Y0150787
Y014685
Y0142913
Y0138976
Y0135039
Y0131102
Y0127165
Y0123228
Y0119291
Y0115354
Y0111417
X0220866Y0104921
X0217717
X0214567
Y0101772
X0217717
X0220866
X0209055
Y0104921
Y0110433
Y0113583
X0204331Y0113622
Y0110433
X0201181Y0108858
Y0105709
Y0102559
Y009941
Y009626
Y009311
Y0089961
X0196457Y0091535
Y0094685
X0193307
Y0091535
X0190157
Y0094685
X0187008
Y0091535
X0183858
Y0094685
X0180709
X0177559
Y0091535
X0180709
Y0085236
X0177559
Y0082087
Y0078937
X0180709
Y0082087
X0183858
Y0078937
X0187008
Y0082087
X0190157
Y0078937
Y0075787
Y0072638
X0187008
Y0075787
X0183858
Y0072638
Y0069488
X0187008
X0190157
X0193307
X0196457
X0199606
Y0072638
X0196457
Y0075787
X0199606
Y0078937
X0196457
Y0082087
X0199606
Y0085236
X0196457
X0193307
Y0082087
Y0078937
Y0075787
Y0072638
Y0066339
Y0063189
X0190157
X0187008
Y0066339
X0190157
Y0060039
X0187008
Y005689
Y005374
X0183858Y0050591
Y0044291
X0180709
X0174409
X017126
X016811
X0161811
Y0050591
Y005374
Y005689
X0158661
X0155512
Y0060039
X0152362
X0149213
Y005689
X0152362
Y005374
Y0050591
X0149213
X0146063Y005689
X0142913
X0139764
Y0060039
Y0063189
Y0066339
Y0069488
X0142913
X0146063
Y0072638
Y0075787
X0142913
Y0072638
X0139764
Y0075787
Y0078937
Y0082087
Y0085236
X0142913
X0146063
X0149213
Y0082087
X0152362
Y0085236
X0155512Y0085236
X0158661
X0161811
Y0082087
X0158661Y0082087
Y0078937
X0161811
Y0075787
X0158661
Y0072638
X0161811
Y0069488
X0158661
Y0066339
X0161811
Y0063189
X0158661
X0155512
Y0066339
X0152362
Y0063189
X0149213
Y0066339
Y0069488
X0152362
Y0072638
Y0075787
X0149213
Y0072638
X0155512
Y0075787
Y0078937
Y0082087
X0152362Y0078937
X0149213
X0146063Y0078937
Y0082087
X0142913
Y0078937
X0136614
X0133465
Y0082087
X0136614
Y0085236
X0133465
X0130315
Y0082087
Y0078937
Y0075787
Y0072638
X0133465
X0136614
Y0075787
X0133465
Y0069488
X0136614
Y0066339
X0133465
Y0063189
X0136614
Y0060039
X0133465
Y005689
X0136614
Y005374
X0139764Y0050591
X0142913Y0044291
X0146063
Y0060039
X0142913
Y0063189
Y0066339
X0146063
Y0063189
X0130315
Y0066339
Y0069488
X0127165Y0066339
Y0063189
X0120866
Y0060039
Y0069488
Y0072638
Y0082087
Y0085236
X0127165
Y0082087
Y0078937
Y0091535
X0130315Y0091535
Y0094685
X0133465
X0136614
Y0091535
X0133465
X0139764
Y0094685
X0142913
X0146063
Y0091535
X0142913
Y0097835
Y0100984
Y0104134
X0146063
Y0100984
Y0097835
X0149213
Y0100984
Y0104134
X0152362
Y0100984
Y0097835
X0155512
Y0094685
Y0091535
X0158661
Y0094685
X0161811
Y0091535
Y0097835
Y0100984
Y0104134
Y0107283
X0158661
Y0110433
X0161811
Y0113583
X0158661
X0155512
Y0110433
Y0107283
Y0104134
Y0100984
X0158661
Y0104134
Y0097835
X016811
Y0094685
X016811Y0091535
X017126Y0091535
Y0094685
X0174409
Y0091535
Y0085236
X017126
X016811Y0085236
X016811Y0082087
Y0078937
X017126
Y0082087
X0174409
Y0078937
Y0075787
X017126
Y0072638
X0174409
X0177559
Y0075787
X0180709
Y0072638
Y0069488
X0177559
Y0066339
X0180709
Y0063189
X0177559
X0174409
X017126
Y0066339
X0174409
Y0069488
X017126
X016811
Y0066339
Y0063189
Y0060039
X017126
X0174409
Y005689
X017126
Y005374
X0174409Y0050591
X0177559Y005689
Y0060039
X0180709
X0183858
Y0063189
Y0066339
X0196457
Y0063189
X0199606
Y0066339
X0202756Y0066339
Y0063189
Y005689
Y005374
X0196457Y0050591
X0193307
X0193307Y005689
X0190157
X0193307Y0060039
X0196457
X0199606
X0209055Y0063189
Y0066339
X0214567
Y0063189
X0217717
X0220866
Y0066339
X0217717
X0209055Y0072638
Y0075787
X0202756
Y0072638
Y0082087
Y0085236
X0209055
Y0082087
X0214567Y008248
Y008563
X0217717
X0220866
Y008248
X0217717
X0209055Y0089961
Y009311
X0196457Y0097835
X0193307
Y0100984
Y0104134
Y0107283
Y0110433
X0190157
X0187008
Y0107283
X0190157
Y0104134
Y0100984
X0187008
Y0104134
X0183858
Y0100984
X0180709
Y0104134
X0177559
Y0100984
Y0097835
X0180709
X0183858
X0187008
X0190157
X0196457Y0100984
Y0104134
Y0107283
X0193307Y0113583
Y0116732
Y0119882
Y0123031
X0196457
X0199606
X0199606Y0126181
X0202756
X0209055Y0126575
Y0123425
X0214567Y0125787
Y0128937
X0217717
X0220866
Y0125787
X0217717
X0208661Y013248
X0205512
X0196457
X0193307
Y0126181
X0190157
X0190157Y0123031
X0187008
X0183858
X0180709
X0177559
X0174409
X017126
X016811
Y0119882
X017126
Y0116732
X0174409
Y0119882
X0177559
X0180709
Y0116732
X0177559
Y0113583
X0180709
Y0110433
Y0107283
X0177559
Y0110433
X0174409
Y0107283
X017126
Y0110433
X016811
Y0107283
Y0104134
Y0100984
X017126
X0174409
Y0104134
X017126
Y0097835
X0174409
Y0113583
X017126
X016811
X0161811Y0116732
X0158661
Y0119882
X0161811
X0155512
Y0116732
X0152362
X0149213
Y0119882
X0152362
Y0123031
X0149213
X0146063
X0142913
Y0119882
X0146063
Y0116732
X0142913
Y0113583
X0146063
Y0110433
Y0107283
X0142913
Y0110433
X0139764
Y0107283
Y0104134
Y0100984
Y0097835
X0136614
X0133465
X0130315
Y0100984
Y0104134
X0133465
X0136614
Y0100984
X0133465
Y0107283
X0136614
Y0110433
X0133465
Y0113583
X0136614
X0139764
Y0116732
Y0119882
X0136614
Y0116732
X0133465
Y0119882
X0130315
Y0116732
Y0113583
Y0110433
Y0107283
X0127165Y0107283
Y0110433
X0120866
Y0113583
Y0119882
X0119696Y0122932
X0127165Y0119882
Y0116732
X0136614Y0123031
X0139764Y013248
X0142913
Y0137992
Y0141142
Y0144291
X0139764
Y0141142
Y0137992
X0124016
Y0141142
Y0144291
X0120866
Y0141142
Y0137992
Y013248
X0124016
X0149213Y0130905
Y0126181
X0146063
X0155512
X0158661
X0158661Y0123031
X0155512
X0152362Y0113583
X0149213
Y0110433
Y0107283
X0152362
Y0110433
Y0094685
X0149213
Y0091535
X0152362Y0091535
X0155512Y0069488
X0158661Y0060039
X0161811
X0158661Y0050591
X016811Y0072638
Y0075787
X0183858Y0085236
X0187008
X0190157
X0183858Y0107283
Y0110433
Y0113583
Y0116732
Y0119882
X0187008
Y0116732
X0190157
Y0119882
Y0113583
X0187008
X0196457Y0116732
X0201181Y0115157
Y0112008
Y0118307
X0204331
X0183858Y0126181
X0180709
X0183858Y013248
X0187008
X0187008Y0137992
Y0141142
X0183858
Y0137992
Y0144291
X0187008
X0185827Y0149409
X0171653Y0150197
X0168504
Y0157677
X0169685Y0163583
X0160236
X0156693
X015
Y0160039
X0146063Y0156496
X0140945Y015689
X0137795
X0138976Y0163976
Y0170669
X0145276
X015Y0174606
X0161024Y0177362
X0161811Y0141142
Y0139173
Y0132087
X016811Y013248
Y0126181
X017126
X0127165Y0100984
Y0097835
X0120866Y0100984
Y0104134
Y0094685
Y0091535
X0130315Y0060039
Y005689
X0126772Y0044291
X0123622
X0190157
X0193307
X0116142Y0069488
X0112992
Y0072638
X0116142
X0109843
Y0069488
X0101181Y0061614
X0098032
X0094882
X0091732
X0088583
X0085433
Y0058465
X0088583
Y0055315
X0085433
X0082284
X0079134
X0075984
X0072835
X0069685
X0066535
X0063386
X0060236
Y0058465
X0063386
Y0061614
X0060236
X0057087
X0053937
Y0058465
X0057087
Y0055315
X0053937
X0066535Y0058465
X0069685
X0072835
X0075984
X0079134
X0082284
Y0061614
X0079134
X0072835
X0066535
Y0080512
X0063386
X0060236
Y0083661
X0063386
Y0086811
X0060236
X0057087
X0053937
Y0083661
X0057087
Y0080512
X0053937
X0066535Y0083661
X0069685
X0072835
X0075984
X0079134
X0082284
Y0086811
X0079134
X0075984
X0072835
X0069685
X0072835Y0080512
X0079134
X0082284
X0085433
X0088583
Y0083661
X0085433
Y0086811
X0088583
X0091732
X0094882
Y0083661
X0091732
Y0080512
X0094882
X0098032
X0101181
Y0083661
X0098032
Y0086811
X0101181
Y009941
X0098032
X0094882
X0091732
X0088583
X0085433
X0082284
X0079134
X0075984
X0072835
X0069685
X0066535
X0063386
Y0102559
X0066535
Y0105709
X0063386
X0060236
Y0102559
X0057087
X0053937
Y009941
X0057087
X0060236
X0050787
X0053937Y0105709
X0057087
X0069685Y0102559
X0072835
X0075984
X0079134
X0082284
Y0105709
X0079134
X0072835
X0085433
Y0102559
X0088583
X0091732
Y0105709
X0088583
X0094882
Y0102559
X0098032
X0101181
Y0105709
X0098032
X0109843Y0110433
X0112992
X0116142
Y0113583
X0112992
X0109843
X0114567Y0123031
X0103543Y0123031
X01Y0123031
X0095669Y0123031
X0091339
X0087008
X0082677
X0078347
X0074016
X0069685
X0065354
X0061024
X0056693
X0052362
X0048425
X0044488
Y013563
X0048425
X0052362Y013563
X0056693
X0061024
X0065354
X0069685Y013563
X0074016Y013563
X0078347
X0082677
X0087008
X0091339
X0095669
X01Y013563
X0103543
X0110018Y0135563
X0109843Y0094685
Y0091535
X0112992
X0116142
Y0094685
X0112992
X0101181Y0058465
X0098032
X0094882
X0091732
Y0055315
X0094882
X0098032
X0101181
X0112435Y0187058
X0117218Y0186992
X0033858Y0143504
Y0140748
X0022047Y0129724
X0099606Y0225787
X0100228Y0248744
X0102528
X0106133
X0108433
X0112039
X0114339
X0096622
X0094322
X0100189Y0275787
X0102489
X0106094Y0275886
X0108394
X0112165Y0275847
X0115937Y0275787
X0118237
X0121842Y0275886
X0124142
X0127748
X0130048
X0133653Y0275787
X0135953
X0139559
X0141859
X0167118
X0169418
X0173023
X0175323
X0178929Y0275886
X0181229
X019074Y0275787
X019304
X0196645
X0198945
X0143599Y0250591
X0141339
X0135953Y0250787
X0133653
X0129882Y0250728
X0120133Y0248744
X0117771
X0142126Y0228937
X0151575Y0228543
Y0224606
Y0222182
Y0219882
X0157874Y0226575
Y0229331
T02
X0029528Y0148228
Y0151378
T03
X-0082677Y0002559
X-007559Y0008465
X-0071653Y0012402
X-0067716
X-0069685Y001437
X-0067716Y0016339
X-0071653
X-0075492Y0020177
X-0085433Y0027756
X-0080709Y0036811
X-0053543Y0036417
X-0050394
X-0047244
Y0033268
Y0026969
Y0023819
Y0020669
X-0043307Y002874
X-0041339Y0013583
X-0038976
X-0047638Y0008465
X-0051181
Y0004921
Y0001772
Y-0001378
X-0047638
Y0001772
Y0004921
X-006063Y0009252
X-0063834Y0008464
X-0063779Y0002953
Y0000591
Y-0001772
X-0033858Y-0001378
Y0001378
Y0004134
X-0031102Y0006496
X-0028346
X-0025591
X-0022835
X-0015748
X-0012992
X-0010236
X-000748
X-0004724Y0004134
X-000748Y-000374
X-0010236
X-0012992
X-0015748
X-0022835
X-0025591
X-0028346
X-0031102
X-0030709Y0011614
Y001437
X-0027559
Y0011614
X-0033858
Y001437
X-002126
X-0020866Y0021457
X-0017717
Y0018307
X-0014567
Y0021457
X-0008661Y0034843
X-0005118
X-0001181Y0034449
X-0001083Y0031398
X-0001181Y0027756
X0009843Y0025787
X0012992Y0027756
X0016142Y0027756
X0015709Y0024567
X0019685Y0025394
X0020866Y0031299
X0025984Y0030512
Y0034449
X0030709
X0035433
X0035839Y0025787
X003298
X0029954
X0027054
X0038865
X0041765
X0044881Y0025787
X0048708Y0025787
X0051608
X0054613
X0057513
X0060518
X0063419
X0064921Y0015197
X0059016
X005311
X0047205
X0043268
X0037362
X0031496Y0015157
X0025551Y0015197
X0021614
X0017677
X001374
X0009803
X0011811Y0013189
X0016929Y0008071
X0021654
X0026378
X0031102
X002752Y0000945
X0023583
X0019646
X0015709
X0011772
X0007835
X0006693Y0008071
X0001969
X0005236Y0020157
X0001575Y0043898
X-0001181Y0041929
X-0005118
X-0008661
X-0027559Y004311
X-0030709
X-0033858
X-0033268Y0036024
X-0030118
X-0038583Y0032283
X-0038535Y0028693
X0025984Y0042323
X0030709
X0044488Y0042717
Y0039567
X0047638
Y0042717
X004685Y0008071
X0051575
X0056299
X0067716
X0072441
X0079528
X0084646
X0095669
X0100394
X0105118
X0109843
X0108228Y0015197
X0114134
X0102323
X0096417
X0090512
X0088543Y0025354
X0083346Y0020157
X0088543Y0000551
X0090512Y-0009213
X0086575
X0096417
X0102323
X0108228
X0114134
X0064921
X0059016
X005311
X0047205
X0041299
X0035394
X0029488
X0025591Y-0009252
X0021614Y-0009213
X0017677
X001374
X0009843Y-0009252
X0042126Y0008071
X0120866
X0125591
X0130315
X0135039
X0137756Y0015197
X013185
X0125945
X0120039
X0143701Y0015157
X0145669Y0008071
X0151181
X015748
X0163779
X0165315Y0015197
X0171221
X0177126
X0183031
X0188937
X0194843
X0200748
X0205117Y0015157
X0210591Y0015197
X0216496
X0222402
X0224016Y0008071
X0229921
X0213779
X0209055
X0204331
X0199606
X0188583
X0183858
X0179134
X0174409
X0177126Y-0009213
X0171221
X0165315
X0183031
X0188937
X0194843
X0200748
X0206653
X0212559
X0218465
X0222402
X0252953Y-0005906
X0253543Y0008465
X0248424Y0028937
X0243701Y0029331
X0233071
X0228346
X0235433Y0037205
X0239768Y0037996
X0211811Y0038386
Y0041535
X0201969Y0037205
Y0034055
X0193701
Y0037205
X0186221
Y0034055
X0178347
Y0037205
X0143661Y-0009213
X0137756
X013185
X0125945
X0120039
X0268307Y0030709
Y0036614
Y004252
X0278543Y0043772
X0280708Y0041535
X0280512Y0037867
X0278543Y0035361
Y0031961
X0285039Y0029724
Y0026575
Y0023425
Y003878
Y0041929
X0291929Y0040551
Y0036614
Y0032677
X0302165Y0030709
Y0034646
Y0038583
Y004252
X0275984Y-0002165
X0278543Y0047172
X0280661Y0049778
X0280613Y0053078
X0278469Y0055658
X0278205Y0058958
X0280661Y0061589
X0280512Y0064889
X0278543Y0067395
X0278543Y0070866
X0281101Y0073031
X0281102Y0076575
X0285039
Y0079724
Y0073425
Y0070276
Y0067126
Y0063976
X0291929Y0064173
Y0060236
Y0056299
Y0052362
Y0048425
Y0044488
X0285039Y0045079
X0285038Y0048622
X0285039Y0051378
Y0054528
X0302165Y0054331
Y0050394
Y0046457
Y0058268
Y0062205
Y0066142
Y0070079
Y0075984
Y0079921
Y0083858
Y0087795
X0292989Y0085827
Y008189
X0293306Y0078149
X0291929Y006811
X0277953Y0079206
Y0082605
X0278346Y0085827
X0285039Y0088779
Y0092126
X0282283Y0102165
Y0108465
X0277953Y0109449
Y0115354
Y012126
Y0127165
Y0133071
Y0138976
X0277756Y0144882
Y0150787
Y0154724
X0280807Y0165256
X0280118Y0169882
X0285039Y0180118
Y0183268
Y0186417
X0280315Y0190157
X027815Y0188189
Y0192126
Y02
X0285039Y0197047
X029252Y0196063
Y02
Y0192126
Y0188189
X0301969Y0190157
Y0194095
Y0198031
X0302165Y0164567
Y016063
Y0156693
Y0152756
Y0148819
Y0144882
Y0140945
Y0137008
Y0133071
Y0129134
Y0125197
Y012126
Y0117323
Y0113386
Y0109449
X0292913Y0166535
X0267913Y0164567
Y016063
Y0156693
Y0152756
X0267323Y0149235
Y0146434
X026811Y0143504
Y0140157
X0262598Y0137724
Y0134324
X026811Y013189
Y0128347
X0262598Y0125913
Y0122513
X026811Y0120007
Y0116607
X0265945Y0114102
Y0110702
X025374Y0112795
X0252362Y0116732
X0239764Y0115945
X0236024Y0114764
X022874Y0121457
X0226772Y0143504
X022126Y0139961
X0215158
X0218307Y0145866
X0217717Y0149803
X0211811Y0155512
X0212205Y0166535
X0209268Y016652
X0202756Y0169095
X0199803
X0192126Y0175
Y017815
X0184252
Y0174213
Y0169882
X0176378Y017815
X0167717Y0169882
X0158268
X016063Y0152165
Y0149016
X0161811Y0144291
X0168504
Y0141142
Y0137992
X0163779Y013563
X015561Y0133563
X0155512Y0143504
X0150787Y0143898
X017126Y013248
X0202362Y0141929
X0206299
X0207087Y0147835
X0211768Y017791
X0212597Y0188778
X0212598Y0197441
X0202362
X0228937Y0191339
X0222835Y0178543
X0224799Y017539
X0220472Y0172638
X026811Y0173819
Y0169882
X0265551Y0166535
X0267717Y0194095
Y0198031
X0265748Y0196063
X0253543Y0099803
Y0096653
X0250787Y0079724
X0241338Y0080118
X0227165Y0081299
X0226972Y0061421
X0229532Y005335
X023209Y0051177
X0237402Y0050984
X023937Y0048622
X0237402Y004626
X0234646Y0054134
X0239768Y0061224
X0250004
Y0046256
X0268307Y0048425
Y0054331
Y0060236
Y0066142
Y0072047
Y0077953
Y0085827
X0272953Y0090669
X0221654Y0046654
X0216142Y0047835
X0211811Y0044685
X0124409Y0150197
X012126
X0119291Y0155709
X0119291Y0163976
X0133465Y0167126
X013189Y0173425
X0137402Y0176181
X0101969Y0167126
X0094882
X0088976
X008189
X0070866Y016752
X0068898Y0156102
Y0152165
Y0148228
X0069685Y0131693
X0065354
X0061024
X0056693
X0052362
X0048425
X0044488
X0044488Y0144291
Y0147047
Y0149803
X0048425
Y0147047
Y0144291
X0052362
Y0147047
Y0149803
X0045669Y0164764
X003937
Y0171063
X0035039
Y0167913
X0035827Y0176181
X0032677Y0175394
X0029528
X0033858Y0178543
Y018248
X0037008
X0039764Y0184449
X003937Y0187598
X004252
X0046063Y0181693
X0045669Y0177362
Y0171063
X003937Y0177362
X0032677Y0187598
X0029921Y0187598
X0025984
X0023228
X0018504Y0187598
X0015354
X001063Y0191142
X000748
X0009055Y0195079
Y0198622
X0001575Y0190354
Y0184055
X000748Y0183268
X001063
X002126Y0184449
X0028346
X0018012Y0169193
X0018012Y0164075
X0018504Y0158465
Y0154528
X0019291Y0143504
X0022441
X0015354Y0140748
X001063
Y0136024
Y0131299
X0015354
Y0136024
X0033858
X0036614Y0156102
X0005512Y0152953
X0007185Y0166634
Y0171752
X-0020472Y0181299
X-0025591Y019311
X-0031102
X-0033858Y015374
Y0137205
X-0031496Y0134843
X-0027559Y0130905
X-0023622
X-0025591Y0128937
X-0023622Y0126969
X-0027559
X-0031496Y0123425
X-0035661Y0120504
X-002126Y011752
Y0115157
Y0112795
X-0018504Y0108071
X-0009055Y0113976
Y0117126
Y0120276
X-0005512
Y0117126
Y0113976
Y0123819
X-0009055
X-0014567Y0126181
X-0019783Y012313
X-0030118Y0099016
X-0033268
X-0038583Y0095276
X-0038535Y0091685
X-0033858Y0077362
Y0074606
X-0030709
Y0077362
X-0027559
Y0074606
X-002126Y0077362
X-0017717Y0081299
Y0084449
X-0020866
X-0014567
Y0081299
X-0001969Y0076575
X0000394
X0005512Y0077362
Y0074606
X0008661
Y0077362
X0011811
Y0074606
X001811Y0077362
X0018504Y0084449
X0021654
Y0081299
X0024803
Y0084449
X0044488Y0083661
X0047638
Y0086811
X0044488
Y009941
X0047638
Y0102559
X0044488
X0009252Y0099016
X0006102
X0000787Y0095276
X0000835Y0091685
X-0003937Y0091732
X-0002476Y0051492
X0007874Y005374
X001063Y0050984
X001378
X0016929Y0054134
X0020374Y0046949
X0025984Y0047047
X0025961Y0050614
X0030709Y0047047
X0044488Y0055315
X0047638
Y0058465
X0044488
X-0014567Y0052953
Y0049803
X-0017717
Y0052953
X-0020866
X-002126Y0045866
X-0027559
X-0030709
X-0033858
X-0038535Y0060189
X-0038583Y0063779
X-0033268Y006752
X-0030118
X0074016Y0131693
X0078347
X0082677
X0087008
X0091339
X0095669
X01
X0103543
X0103937Y0161614
X0087795Y0156102
Y0152165
Y0148228
X0074016Y0196653
X0066535Y0199803
X005315Y0197835
Y0194685
Y0191142
X-0047244Y0178543
Y0175394
X-0050394Y0178543
X-0053543
X-0047244Y0169095
Y0165945
Y0162795
X-0047638Y0150197
X-0051181
Y0146653
Y0143504
Y0140354
X-0047638
Y0143504
Y0146653
X-0040945Y0145472
Y0150197
X-006063Y0150984
X-0063834Y0150196
X-0063779Y0144685
Y0142323
Y0139961
X-0067716Y0154134
X-0069685Y0156102
X-0067716Y0158071
X-0071653
Y0154134
X-007559Y0150197
Y0162008
X-0085433Y0169488
X-0080709Y0178543
X-0082677Y0195866
X-0070079
X-0082677Y0144291
X-0080709Y0131299
X-0085433Y0122244
X-0075492Y0114665
X-0071653Y0110827
X-0067716
X-0069685Y0108858
X-0067716Y010689
X-0071653
X-007559Y0102953
X-0063834Y0102952
X-006063Y010374
X-0063779Y0097441
Y0095079
Y0092716
X-0051181Y009311
Y009626
Y009941
X-0047638
Y009626
Y009311
X-0043307Y0091732
X-0047244Y0083661
Y0080512
X-0050394Y0083661
X-0053543
X-0047244Y0074213
Y0071063
Y0067913
X-0043307Y0060236
X-0047638Y0055709
X-0051181
Y0052165
Y0049016
Y0045866
X-0047638
Y0049016
Y0052165
X-0041339Y0045079
X-0038976
X-0063779Y0045472
Y0047835
Y0050197
X-0063834Y0055708
X-006063Y0056496
X-0067716Y0059646
Y0063583
X-0069685Y0061614
X-0071653Y0063583
Y0059646
X-007559Y0055709
X-0075492Y0067421
X-0085433Y0075
X-0080709Y0084055
X-0082677Y0097047
X-0051181Y0102953
X-0047638
X-0047244Y0115551
Y0118701
Y012185
Y012815
Y0131299
X-0050394
X-0053543
X-0041339Y0076575
X-0038976
X-0082677Y0049803
X-0083465Y0200591
X-0086221Y0221063
X-0087795Y0225787
X-0050516Y0205044
X-0048425Y0202953
X0006693Y0204134
X0013976Y0204331
X001378Y0213976
X0006693
X0005118Y0220669
X0009843Y0219882
Y0223425
X0005118Y0226969
X-0000787Y0227756
X-0003937
Y0219882
X-0000787
X0001969Y0236024
X000315Y0239567
X0001969Y0245079
X-0005512Y0240748
X001378Y0239567
X0012618Y0248992
X0009803Y0251024
X0015709
X0019646
X0023622Y0250984
X002752Y0251024
X0031457
X0035394
X003937Y0250984
X0043307
X0047205Y0251024
X0051142
X0055079
X0059016
X0062953
X0064567Y0248228
X0061024Y0246654
X005748Y0248228
X005315Y0246654
X0049213
X0045276Y0243504
X0042126Y0244291
X0041339Y0248622
X0037205Y0243701
X0035827Y0236811
X0032677Y0232874
X002874
X0027559Y0226969
X0030708Y0226968
X003622
X0039763Y0226574
Y0230511
X0045669Y0225787
X005Y0229724
Y0232874
X0055512Y0230906
X0053937Y0226181
X005315Y0218701
Y0215551
Y0208858
Y0205709
Y0200984
X0066535Y0204134
X0066535Y0208465
X0066535Y0212795
Y0217126
Y0221457
X0066535Y0226181
Y023563
X0071653Y0248228
X0087402Y0250591
X009248Y0251575
X0098386
X0104291
X0110197
X0116102
X0115748Y0262795
X0109449Y0267913
X0102756
X0098819
X0094882
X0096063Y0272244
X0090551Y0271063
Y0275
X0087402
X0086614Y0284448
X0090512Y0284409
X0094449
X0098386
X0104291
X0110197
X0114134
X0096063Y0262795
X0087008Y0264764
X0082677
X007874Y0267913
X0073228
X0069685
X0063071Y0267992
X0059764
X0055118Y0267913
X0048878Y0267972
X0043307Y0267913
X0037874Y0267992
X0035039Y0267913
X0030315Y0267913
X0026772
X0028882Y0271598
X0028346Y0275
X0025551Y0275433
X0021614
X0017677
X0011024Y0275394
X0008661Y0273031
X0003091Y0273366
X-0Y0273424
X-0003071Y0267992
X-000315Y026437
X0007835Y0260776
X0011811Y0260728
X0016142Y0260827
X0019291
X0019291Y0263976
X0024016Y0263189
X0028346
X0039228Y0262937
X0040693Y0271598
X0040157Y0275
X0037362Y0275039
X0033858Y0273031
X0045669Y0272638
X0047638Y0275394
X0051968Y0275
X005748Y0272638
X0059449Y0275394
X0064921Y0275039
X0072047Y0275394
X0078347Y0278543
X0062953Y0284803
X0055079Y0284409
X0051142
X0048031Y0284842
X0043307Y0284449
X0039331Y0284409
X0035433Y0284842
X0031457Y0284409
X002752
X0023583
X0019646
X0015709
X0011811Y0284449
X0007835Y0284409
X0027953Y024626
Y024311
X0022835Y0226575
X0019685
X0045669Y0236811
X0050787Y0262795
X006285Y0262937
X0079134Y0228543
X0077559Y0221457
X007874Y0217125
X0090158Y0237992
X0122008Y0260079
X0127913
X013185
X0137756
X0143661
X0146063Y0267913
X0150394
X0158661
X0162992
X0165315Y0273858
X0171221
X0177126Y0273858
X0183031Y0273858
X0188937
X0194843
X0200748
X0204685
X0210591Y0275
X021063Y0267913
X0205906
X02
X0198779Y0260441
X0204685
X0210591
X0216496
X0222402
X0224803Y0267913
X0229134
X0224803Y0280118
X0216496Y0284803
X0202716Y0284803
X0194487Y0263976
X0191338
X0188189Y0267913
X0182677
X0176772
X0177126Y0260441
X0173189
X0166535Y0260433
X0181063Y0260441
X0186969
X0192874Y0250669
X0190748Y0231496
X0186417Y0222835
X0185433Y0217913
Y0213976
X0184252Y0210039
X0176378Y0210039
X0172835Y0213976
X0168504Y0210039
X016063
X0152756
X0144882
X0142323Y0213386
Y0220866
X0157874Y0232874
X0157873Y0237598
X0153937Y0237598
X0173425Y023563
X0169095Y0222835
X0192126Y0210039
X0202362Y0201378
X0216535Y0205315
Y0211614
X0221161Y0225492
X0221161Y023061
X0221653Y023996
X0220866Y0246654
X0227165
X0242126Y0245472
Y0242323
X0245276Y0245472
X0245276Y0248622
X0245276Y0251772
Y0254921
X0246457Y0263976
X0249606
Y0267126
X0252756
X0255906
X0259055
X0263386Y0265945
X0269685
Y0272441
Y027874
X0263386
X0265748Y0245276
Y0241339
Y0237402
X0267717Y023937
Y0235433
Y0231496
Y0227559
Y0223622
Y0219685
Y0215748
Y0211811
Y0207874
X0265748Y0205906
Y0209842
X0263386Y0216732
X0257087
X0250787
X0244488
Y0224213
X0250787
X0257087
X0263386
Y0230906
X0265748Y0233465
X0257087Y0230906
Y0237205
X0250787
X0244488
Y0230906
X0250787
X0238189Y0230906
X0238189Y0224213
X0235433Y0219488
Y0210827
X020811Y0231142
X0208071Y0241339
X0257087Y0243504
X0267717Y0243307
X0135433Y0267913
X013189
X0125591
X0125945Y0284409
X013185
X0137756
X0143661
X0120039
X0276378Y0285236
Y0278937
X0282677
X0287795
X0294094
Y0272244
X0287795
X0282677
Y0265945
X0287795
X0294094
X0276378
Y0272244
X0285039Y025374
Y0250197
Y0246654
Y0236811
Y0232087
Y0227362
Y0222638
X0277953Y0221654
Y0217717
Y0213779
X0285039Y0211221
Y0206496
Y0201772
X0280315Y0201969
X027815Y0203937
X029252
Y0207874
Y0211811
Y0215748
Y0219685
Y0223622
Y0227559
Y0231496
Y0235433
Y023937
Y0243307
X0301969Y0245276
Y0241339
Y0237402
Y0233465
Y0229528
Y0225591
Y0221654
Y0217717
Y0213779
Y0209842
Y0205906
Y0201969
X0277953Y0225591
Y0229528
T04
X0024016Y0202165
X002874
X0033465
X0038189
Y020689
X0033465
X002874
X0024016
Y0211614
X002874
X0033465
X0038189
Y0216339
X0033465
X002874
X0024016
T05
X-0072382Y0215838
X-0064382
X-0056382
X-0052382Y0225838
X-0060382
X-0068382
X-0044382
X-0040382Y0215838
X-0032382
X-0024382
X-0028382Y0225838
X-0036382
X0120472Y0228171
Y0218171
Y0238171
T06
X0105118Y0217992
Y0227992
Y0237992
T07
X-0040551Y0001378
X-0051968Y0030512
X-0016535Y0026181
Y0037205
X0259449Y0038386
Y0027362
Y0016339
Y0049409
Y0060433
Y0071457
Y008248
Y0093504
Y0104528
Y0115551
X0256299Y0132087
X0244882
X0238976Y0141535
X0250394Y0141929
X0244882Y0151378
X0256299Y0151378
X0261811Y0161221
X0250394
X0256299Y0171063
X0244882Y0171457
X0250394Y0181299
X0261811
X0256299Y0191535
X0244882
X022559Y0185236
X0238835Y0100429
X0022835Y0100197
Y0089173
X-0016535
Y0100197
Y0068701
Y0057677
X0002756Y0134646
X0055118Y0180905
X0074803Y0181299
X-0051968Y0172244
Y0125
Y0077756
X0072835Y0236417
X0238976Y0201378
X0250394
T08
X-0076032Y0280838
Y0290838
X-0020732
Y0280838
T09
X-0080482Y0252338
X-0016282Y0246838
T10
X-0080482Y0239338
Y0269338
X-0016282Y0259838
Y0229838
T11
X0148819Y0193898
X0188189
T12
X0Y0
X0230236
X029311Y0022874
X0Y026
X0230236
X029311Y025311
T13
X0014108Y-001866
X0234108
X0014098Y029443
X0229098
M30
