G04*
G04 #@! TF.GenerationSoftware,Altium Limited,Altium Designer,18.1.7 (191)*
G04*
G04 Layer_Physical_Order=13*
G04 Layer_Color=8421376*
%FSLAX25Y25*%
%MOIN*%
G70*
G01*
G75*
%ADD215C,0.04000*%
%ADD216C,0.05300*%
%ADD217C,0.08016*%
%ADD218C,0.10900*%
%ADD219C,0.07300*%
%ADD220C,0.06800*%
%ADD221C,0.05600*%
%ADD222C,0.07937*%
%ADD223C,0.05934*%
%ADD224C,0.16500*%
%ADD225C,0.02600*%
%ADD226C,0.03000*%
G36*
X1407324Y-55422D02*
X1407440D01*
X1407717Y-55451D01*
X1408023Y-55495D01*
X1408344Y-55568D01*
X1408694Y-55655D01*
X1409029Y-55772D01*
X1409044D01*
X1409073Y-55786D01*
X1409117Y-55801D01*
X1409175Y-55830D01*
X1409336Y-55918D01*
X1409540Y-56020D01*
X1409758Y-56165D01*
X1409992Y-56340D01*
X1410210Y-56530D01*
X1410415Y-56763D01*
X1410444Y-56792D01*
X1410502Y-56880D01*
X1410590Y-57011D01*
X1410706Y-57201D01*
X1410823Y-57434D01*
X1410954Y-57726D01*
X1411085Y-58046D01*
X1411187Y-58411D01*
X1409977Y-58732D01*
Y-58717D01*
X1409963Y-58702D01*
X1409948Y-58659D01*
X1409933Y-58600D01*
X1409890Y-58469D01*
X1409831Y-58294D01*
X1409744Y-58090D01*
X1409642Y-57901D01*
X1409540Y-57696D01*
X1409408Y-57521D01*
X1409394Y-57507D01*
X1409350Y-57449D01*
X1409263Y-57376D01*
X1409161Y-57274D01*
X1409029Y-57157D01*
X1408854Y-57040D01*
X1408665Y-56924D01*
X1408446Y-56822D01*
X1408417Y-56807D01*
X1408344Y-56778D01*
X1408213Y-56734D01*
X1408038Y-56676D01*
X1407834Y-56632D01*
X1407601Y-56588D01*
X1407338Y-56559D01*
X1407061Y-56545D01*
X1406901D01*
X1406828Y-56559D01*
X1406740D01*
X1406522Y-56574D01*
X1406274Y-56617D01*
X1405997Y-56661D01*
X1405734Y-56734D01*
X1405472Y-56836D01*
X1405443Y-56851D01*
X1405355Y-56880D01*
X1405239Y-56953D01*
X1405093Y-57026D01*
X1404918Y-57142D01*
X1404728Y-57259D01*
X1404553Y-57405D01*
X1404393Y-57565D01*
X1404378Y-57580D01*
X1404320Y-57638D01*
X1404247Y-57740D01*
X1404160Y-57857D01*
X1404058Y-58003D01*
X1403956Y-58178D01*
X1403854Y-58367D01*
X1403751Y-58571D01*
Y-58586D01*
X1403737Y-58615D01*
X1403722Y-58659D01*
X1403693Y-58732D01*
X1403664Y-58819D01*
X1403635Y-58921D01*
X1403591Y-59038D01*
X1403562Y-59169D01*
X1403489Y-59475D01*
X1403431Y-59825D01*
X1403387Y-60190D01*
X1403372Y-60598D01*
Y-60612D01*
Y-60656D01*
Y-60729D01*
X1403387Y-60817D01*
Y-60933D01*
X1403402Y-61079D01*
X1403416Y-61225D01*
X1403431Y-61385D01*
X1403489Y-61750D01*
X1403562Y-62129D01*
X1403679Y-62508D01*
X1403824Y-62872D01*
Y-62887D01*
X1403854Y-62916D01*
X1403868Y-62960D01*
X1403912Y-63018D01*
X1404014Y-63178D01*
X1404174Y-63383D01*
X1404364Y-63601D01*
X1404597Y-63820D01*
X1404874Y-64024D01*
X1405180Y-64214D01*
X1405195D01*
X1405224Y-64228D01*
X1405268Y-64257D01*
X1405341Y-64287D01*
X1405414Y-64316D01*
X1405516Y-64345D01*
X1405749Y-64432D01*
X1406041Y-64505D01*
X1406361Y-64578D01*
X1406711Y-64636D01*
X1407076Y-64651D01*
X1407222D01*
X1407309Y-64636D01*
X1407397D01*
X1407615Y-64607D01*
X1407878Y-64578D01*
X1408155Y-64520D01*
X1408461Y-64432D01*
X1408767Y-64330D01*
X1408782D01*
X1408811Y-64316D01*
X1408840Y-64301D01*
X1408898Y-64272D01*
X1409059Y-64199D01*
X1409234Y-64112D01*
X1409438Y-64009D01*
X1409656Y-63893D01*
X1409861Y-63762D01*
X1410036Y-63616D01*
Y-61721D01*
X1407061D01*
Y-60525D01*
X1411348D01*
Y-64272D01*
X1411333Y-64287D01*
X1411304Y-64301D01*
X1411246Y-64345D01*
X1411173Y-64403D01*
X1411085Y-64461D01*
X1410983Y-64534D01*
X1410852Y-64622D01*
X1410721Y-64709D01*
X1410415Y-64899D01*
X1410065Y-65103D01*
X1409700Y-65293D01*
X1409307Y-65453D01*
X1409292D01*
X1409263Y-65468D01*
X1409204Y-65482D01*
X1409132Y-65511D01*
X1409029Y-65540D01*
X1408913Y-65584D01*
X1408782Y-65613D01*
X1408650Y-65642D01*
X1408330Y-65715D01*
X1407965Y-65788D01*
X1407572Y-65832D01*
X1407163Y-65847D01*
X1407017D01*
X1406915Y-65832D01*
X1406784D01*
X1406624Y-65817D01*
X1406449Y-65788D01*
X1406259Y-65774D01*
X1405836Y-65686D01*
X1405385Y-65584D01*
X1404918Y-65424D01*
X1404685Y-65336D01*
X1404451Y-65220D01*
X1404437Y-65205D01*
X1404393Y-65191D01*
X1404335Y-65147D01*
X1404247Y-65103D01*
X1404145Y-65030D01*
X1404043Y-64957D01*
X1403766Y-64753D01*
X1403475Y-64491D01*
X1403168Y-64170D01*
X1402877Y-63805D01*
X1402614Y-63383D01*
Y-63368D01*
X1402585Y-63324D01*
X1402556Y-63266D01*
X1402512Y-63164D01*
X1402468Y-63062D01*
X1402425Y-62916D01*
X1402366Y-62770D01*
X1402308Y-62595D01*
X1402250Y-62406D01*
X1402192Y-62187D01*
X1402148Y-61968D01*
X1402104Y-61735D01*
X1402031Y-61225D01*
X1402002Y-60685D01*
Y-60671D01*
Y-60612D01*
Y-60540D01*
X1402017Y-60437D01*
Y-60306D01*
X1402031Y-60146D01*
X1402060Y-59986D01*
X1402075Y-59796D01*
X1402118Y-59592D01*
X1402148Y-59373D01*
X1402264Y-58907D01*
X1402410Y-58425D01*
X1402614Y-57944D01*
X1402629Y-57930D01*
X1402643Y-57886D01*
X1402673Y-57828D01*
X1402731Y-57740D01*
X1402789Y-57623D01*
X1402862Y-57507D01*
X1403066Y-57230D01*
X1403314Y-56909D01*
X1403620Y-56603D01*
X1403970Y-56297D01*
X1404174Y-56165D01*
X1404378Y-56034D01*
X1404393Y-56020D01*
X1404437Y-56005D01*
X1404495Y-55976D01*
X1404583Y-55932D01*
X1404699Y-55888D01*
X1404830Y-55830D01*
X1404976Y-55772D01*
X1405151Y-55713D01*
X1405341Y-55655D01*
X1405545Y-55611D01*
X1405764Y-55553D01*
X1405997Y-55509D01*
X1406507Y-55436D01*
X1406770Y-55407D01*
X1407236D01*
X1407324Y-55422D01*
D02*
G37*
G36*
X1386241Y-58207D02*
X1386401Y-58221D01*
X1386591Y-58250D01*
X1386795Y-58294D01*
X1387014Y-58353D01*
X1387218Y-58440D01*
X1387247Y-58455D01*
X1387305Y-58484D01*
X1387407Y-58527D01*
X1387524Y-58600D01*
X1387670Y-58688D01*
X1387801Y-58805D01*
X1387932Y-58921D01*
X1388049Y-59067D01*
X1388063Y-59082D01*
X1388093Y-59140D01*
X1388136Y-59213D01*
X1388209Y-59315D01*
X1388268Y-59461D01*
X1388326Y-59606D01*
X1388399Y-59781D01*
X1388443Y-59971D01*
Y-59986D01*
X1388457Y-60044D01*
X1388472Y-60131D01*
X1388486Y-60248D01*
Y-60423D01*
X1388501Y-60627D01*
X1388515Y-60875D01*
Y-61181D01*
Y-65672D01*
X1387276D01*
Y-61239D01*
Y-61225D01*
Y-61210D01*
Y-61108D01*
Y-60977D01*
X1387261Y-60817D01*
X1387247Y-60627D01*
X1387218Y-60437D01*
X1387174Y-60263D01*
X1387130Y-60102D01*
Y-60088D01*
X1387101Y-60044D01*
X1387057Y-59971D01*
X1387014Y-59883D01*
X1386941Y-59796D01*
X1386853Y-59694D01*
X1386737Y-59592D01*
X1386605Y-59504D01*
X1386591Y-59490D01*
X1386547Y-59461D01*
X1386460Y-59431D01*
X1386358Y-59388D01*
X1386241Y-59344D01*
X1386095Y-59300D01*
X1385920Y-59286D01*
X1385745Y-59271D01*
X1385672D01*
X1385614Y-59286D01*
X1385468Y-59300D01*
X1385279Y-59329D01*
X1385075Y-59402D01*
X1384841Y-59490D01*
X1384608Y-59606D01*
X1384389Y-59781D01*
X1384360Y-59811D01*
X1384302Y-59883D01*
X1384258Y-59942D01*
X1384214Y-60015D01*
X1384156Y-60102D01*
X1384112Y-60204D01*
X1384054Y-60321D01*
X1383996Y-60467D01*
X1383952Y-60627D01*
X1383908Y-60802D01*
X1383879Y-60992D01*
X1383850Y-61196D01*
X1383821Y-61443D01*
Y-61691D01*
Y-65672D01*
X1382581D01*
Y-58353D01*
X1383689D01*
Y-59402D01*
X1383704Y-59388D01*
X1383733Y-59344D01*
X1383777Y-59286D01*
X1383835Y-59213D01*
X1383923Y-59125D01*
X1384025Y-59023D01*
X1384141Y-58907D01*
X1384287Y-58790D01*
X1384433Y-58688D01*
X1384608Y-58571D01*
X1384797Y-58469D01*
X1385002Y-58382D01*
X1385235Y-58309D01*
X1385468Y-58250D01*
X1385731Y-58207D01*
X1386008Y-58192D01*
X1386124D01*
X1386241Y-58207D01*
D02*
G37*
G36*
X1356104Y-59767D02*
X1354690D01*
Y-58353D01*
X1356104D01*
Y-59767D01*
D02*
G37*
G36*
X1349631Y-55553D02*
X1349820Y-55582D01*
X1350053Y-55626D01*
X1350316Y-55699D01*
X1350578Y-55786D01*
X1350841Y-55903D01*
X1350855D01*
X1350870Y-55918D01*
X1350957Y-55961D01*
X1351089Y-56049D01*
X1351234Y-56151D01*
X1351409Y-56297D01*
X1351584Y-56457D01*
X1351759Y-56647D01*
X1351905Y-56865D01*
X1351920Y-56894D01*
X1351963Y-56967D01*
X1352022Y-57099D01*
X1352095Y-57259D01*
X1352168Y-57449D01*
X1352226Y-57667D01*
X1352269Y-57915D01*
X1352284Y-58163D01*
Y-58192D01*
Y-58280D01*
X1352269Y-58396D01*
X1352240Y-58557D01*
X1352197Y-58746D01*
X1352124Y-58950D01*
X1352036Y-59154D01*
X1351920Y-59359D01*
X1351905Y-59388D01*
X1351861Y-59446D01*
X1351774Y-59548D01*
X1351657Y-59665D01*
X1351511Y-59796D01*
X1351336Y-59942D01*
X1351132Y-60073D01*
X1350884Y-60204D01*
X1350899D01*
X1350928Y-60219D01*
X1350972Y-60233D01*
X1351030Y-60248D01*
X1351191Y-60306D01*
X1351395Y-60394D01*
X1351628Y-60510D01*
X1351861Y-60656D01*
X1352080Y-60846D01*
X1352284Y-61064D01*
X1352299Y-61093D01*
X1352357Y-61181D01*
X1352444Y-61327D01*
X1352532Y-61516D01*
X1352619Y-61750D01*
X1352707Y-62027D01*
X1352765Y-62347D01*
X1352780Y-62697D01*
Y-62712D01*
Y-62756D01*
Y-62828D01*
X1352765Y-62916D01*
X1352751Y-63033D01*
X1352722Y-63164D01*
X1352692Y-63310D01*
X1352663Y-63470D01*
X1352547Y-63820D01*
X1352459Y-64009D01*
X1352372Y-64184D01*
X1352255Y-64374D01*
X1352124Y-64564D01*
X1351978Y-64753D01*
X1351803Y-64928D01*
X1351788Y-64943D01*
X1351759Y-64972D01*
X1351701Y-65016D01*
X1351628Y-65074D01*
X1351540Y-65147D01*
X1351424Y-65220D01*
X1351293Y-65307D01*
X1351132Y-65380D01*
X1350972Y-65468D01*
X1350782Y-65555D01*
X1350593Y-65628D01*
X1350374Y-65701D01*
X1350141Y-65759D01*
X1349893Y-65803D01*
X1349645Y-65832D01*
X1349368Y-65847D01*
X1349237D01*
X1349149Y-65832D01*
X1349033Y-65817D01*
X1348901Y-65803D01*
X1348756Y-65774D01*
X1348595Y-65745D01*
X1348245Y-65657D01*
X1347881Y-65511D01*
X1347691Y-65424D01*
X1347517Y-65322D01*
X1347342Y-65191D01*
X1347167Y-65059D01*
X1347152Y-65045D01*
X1347123Y-65016D01*
X1347079Y-64972D01*
X1347035Y-64913D01*
X1346962Y-64841D01*
X1346889Y-64739D01*
X1346802Y-64636D01*
X1346715Y-64505D01*
X1346627Y-64359D01*
X1346540Y-64214D01*
X1346379Y-63864D01*
X1346248Y-63455D01*
X1346204Y-63237D01*
X1346175Y-63003D01*
X1347414Y-62843D01*
Y-62858D01*
X1347429Y-62887D01*
X1347443Y-62945D01*
X1347458Y-63018D01*
X1347473Y-63106D01*
X1347502Y-63208D01*
X1347575Y-63426D01*
X1347677Y-63689D01*
X1347808Y-63937D01*
X1347954Y-64170D01*
X1348129Y-64374D01*
X1348158Y-64389D01*
X1348216Y-64447D01*
X1348333Y-64520D01*
X1348479Y-64593D01*
X1348654Y-64680D01*
X1348872Y-64753D01*
X1349120Y-64811D01*
X1349383Y-64826D01*
X1349470D01*
X1349529Y-64811D01*
X1349689Y-64797D01*
X1349893Y-64753D01*
X1350126Y-64680D01*
X1350374Y-64578D01*
X1350622Y-64432D01*
X1350855Y-64228D01*
X1350884Y-64199D01*
X1350957Y-64112D01*
X1351045Y-63980D01*
X1351161Y-63805D01*
X1351278Y-63587D01*
X1351366Y-63339D01*
X1351439Y-63047D01*
X1351468Y-62726D01*
Y-62712D01*
Y-62683D01*
Y-62639D01*
X1351453Y-62581D01*
X1351439Y-62420D01*
X1351395Y-62231D01*
X1351336Y-61997D01*
X1351234Y-61764D01*
X1351089Y-61531D01*
X1350899Y-61312D01*
X1350870Y-61283D01*
X1350797Y-61225D01*
X1350680Y-61137D01*
X1350520Y-61035D01*
X1350316Y-60933D01*
X1350068Y-60846D01*
X1349791Y-60787D01*
X1349485Y-60758D01*
X1349354D01*
X1349251Y-60773D01*
X1349120Y-60787D01*
X1348975Y-60817D01*
X1348800Y-60846D01*
X1348610Y-60889D01*
X1348756Y-59796D01*
X1348829D01*
X1348887Y-59811D01*
X1349076D01*
X1349237Y-59781D01*
X1349426Y-59752D01*
X1349645Y-59708D01*
X1349893Y-59636D01*
X1350126Y-59534D01*
X1350374Y-59402D01*
X1350389D01*
X1350403Y-59388D01*
X1350476Y-59329D01*
X1350578Y-59227D01*
X1350695Y-59096D01*
X1350811Y-58907D01*
X1350914Y-58688D01*
X1350986Y-58440D01*
X1351016Y-58294D01*
Y-58134D01*
Y-58119D01*
Y-58105D01*
Y-58017D01*
X1350986Y-57901D01*
X1350957Y-57740D01*
X1350899Y-57565D01*
X1350826Y-57376D01*
X1350710Y-57186D01*
X1350549Y-57011D01*
X1350535Y-56997D01*
X1350462Y-56938D01*
X1350360Y-56865D01*
X1350228Y-56778D01*
X1350053Y-56705D01*
X1349849Y-56632D01*
X1349616Y-56574D01*
X1349354Y-56559D01*
X1349237D01*
X1349106Y-56588D01*
X1348931Y-56617D01*
X1348741Y-56676D01*
X1348552Y-56749D01*
X1348347Y-56865D01*
X1348158Y-57011D01*
X1348143Y-57026D01*
X1348085Y-57099D01*
X1347998Y-57201D01*
X1347896Y-57346D01*
X1347793Y-57536D01*
X1347691Y-57769D01*
X1347604Y-58046D01*
X1347546Y-58367D01*
X1346306Y-58148D01*
Y-58134D01*
X1346321Y-58090D01*
X1346336Y-58032D01*
X1346350Y-57944D01*
X1346379Y-57842D01*
X1346423Y-57726D01*
X1346510Y-57449D01*
X1346656Y-57128D01*
X1346831Y-56807D01*
X1347050Y-56501D01*
X1347327Y-56224D01*
X1347342Y-56209D01*
X1347371Y-56195D01*
X1347414Y-56165D01*
X1347473Y-56122D01*
X1347546Y-56063D01*
X1347648Y-56005D01*
X1347750Y-55947D01*
X1347881Y-55874D01*
X1348173Y-55757D01*
X1348508Y-55641D01*
X1348901Y-55568D01*
X1349106Y-55538D01*
X1349470D01*
X1349631Y-55553D01*
D02*
G37*
G36*
X1421247Y-65672D02*
X1419862D01*
X1414584Y-57755D01*
Y-65672D01*
X1413301D01*
Y-55582D01*
X1414672D01*
X1419965Y-63514D01*
Y-55582D01*
X1421247D01*
Y-65672D01*
D02*
G37*
G36*
X1427633Y-55597D02*
X1427925Y-55611D01*
X1428217Y-55641D01*
X1428508Y-55684D01*
X1428756Y-55728D01*
X1428771D01*
X1428800Y-55743D01*
X1428844D01*
X1428902Y-55772D01*
X1429062Y-55816D01*
X1429266Y-55888D01*
X1429500Y-55990D01*
X1429748Y-56122D01*
X1429996Y-56268D01*
X1430229Y-56457D01*
X1430243Y-56472D01*
X1430258Y-56486D01*
X1430302Y-56530D01*
X1430360Y-56574D01*
X1430506Y-56719D01*
X1430681Y-56924D01*
X1430870Y-57171D01*
X1431074Y-57463D01*
X1431264Y-57798D01*
X1431424Y-58178D01*
Y-58192D01*
X1431439Y-58221D01*
X1431468Y-58280D01*
X1431483Y-58367D01*
X1431526Y-58469D01*
X1431556Y-58586D01*
X1431585Y-58717D01*
X1431629Y-58877D01*
X1431672Y-59038D01*
X1431701Y-59227D01*
X1431774Y-59636D01*
X1431818Y-60088D01*
X1431833Y-60583D01*
Y-60598D01*
Y-60627D01*
Y-60700D01*
Y-60773D01*
X1431818Y-60875D01*
Y-60992D01*
X1431803Y-61269D01*
X1431760Y-61589D01*
X1431716Y-61925D01*
X1431643Y-62274D01*
X1431556Y-62624D01*
Y-62639D01*
X1431541Y-62668D01*
X1431526Y-62712D01*
X1431512Y-62770D01*
X1431454Y-62931D01*
X1431366Y-63135D01*
X1431279Y-63368D01*
X1431162Y-63601D01*
X1431016Y-63849D01*
X1430870Y-64082D01*
X1430856Y-64112D01*
X1430797Y-64184D01*
X1430710Y-64287D01*
X1430593Y-64418D01*
X1430462Y-64564D01*
X1430302Y-64709D01*
X1430141Y-64870D01*
X1429952Y-65001D01*
X1429923Y-65016D01*
X1429864Y-65059D01*
X1429762Y-65118D01*
X1429616Y-65191D01*
X1429442Y-65278D01*
X1429237Y-65351D01*
X1429004Y-65438D01*
X1428742Y-65511D01*
X1428712D01*
X1428669Y-65526D01*
X1428625Y-65540D01*
X1428479Y-65555D01*
X1428275Y-65584D01*
X1428042Y-65613D01*
X1427765Y-65642D01*
X1427459Y-65657D01*
X1427123Y-65672D01*
X1423493D01*
Y-55582D01*
X1427371D01*
X1427633Y-55597D01*
D02*
G37*
G36*
X1378149Y-58207D02*
X1378368Y-58221D01*
X1378616Y-58250D01*
X1378864Y-58294D01*
X1379111Y-58353D01*
X1379345Y-58425D01*
X1379374Y-58440D01*
X1379447Y-58469D01*
X1379549Y-58513D01*
X1379680Y-58571D01*
X1379826Y-58659D01*
X1379972Y-58746D01*
X1380103Y-58863D01*
X1380219Y-58979D01*
X1380234Y-58994D01*
X1380263Y-59038D01*
X1380307Y-59111D01*
X1380365Y-59198D01*
X1380438Y-59329D01*
X1380496Y-59461D01*
X1380555Y-59621D01*
X1380599Y-59811D01*
Y-59825D01*
X1380613Y-59869D01*
X1380628Y-59956D01*
X1380642Y-60073D01*
Y-60233D01*
X1380657Y-60423D01*
X1380671Y-60671D01*
Y-60948D01*
Y-62610D01*
Y-62624D01*
Y-62683D01*
Y-62770D01*
Y-62887D01*
Y-63018D01*
Y-63178D01*
X1380686Y-63528D01*
Y-63893D01*
X1380700Y-64257D01*
X1380715Y-64418D01*
Y-64564D01*
X1380730Y-64695D01*
X1380744Y-64797D01*
Y-64811D01*
X1380759Y-64870D01*
X1380773Y-64957D01*
X1380817Y-65074D01*
X1380846Y-65205D01*
X1380905Y-65351D01*
X1380978Y-65511D01*
X1381050Y-65672D01*
X1379753D01*
X1379738Y-65657D01*
X1379724Y-65599D01*
X1379694Y-65526D01*
X1379651Y-65409D01*
X1379607Y-65278D01*
X1379578Y-65118D01*
X1379549Y-64943D01*
X1379519Y-64753D01*
X1379505D01*
X1379490Y-64782D01*
X1379403Y-64855D01*
X1379272Y-64957D01*
X1379097Y-65088D01*
X1378878Y-65220D01*
X1378659Y-65365D01*
X1378426Y-65497D01*
X1378178Y-65599D01*
X1378149Y-65613D01*
X1378061Y-65628D01*
X1377930Y-65672D01*
X1377770Y-65715D01*
X1377566Y-65759D01*
X1377333Y-65788D01*
X1377070Y-65817D01*
X1376808Y-65832D01*
X1376691D01*
X1376604Y-65817D01*
X1376501D01*
X1376385Y-65803D01*
X1376122Y-65759D01*
X1375831Y-65686D01*
X1375510Y-65584D01*
X1375218Y-65438D01*
X1374956Y-65249D01*
X1374927Y-65220D01*
X1374854Y-65147D01*
X1374752Y-65016D01*
X1374635Y-64841D01*
X1374519Y-64622D01*
X1374417Y-64374D01*
X1374344Y-64068D01*
X1374329Y-63922D01*
X1374314Y-63747D01*
Y-63718D01*
Y-63660D01*
X1374329Y-63558D01*
X1374344Y-63426D01*
X1374373Y-63266D01*
X1374417Y-63106D01*
X1374475Y-62931D01*
X1374548Y-62770D01*
X1374562Y-62756D01*
X1374592Y-62697D01*
X1374650Y-62610D01*
X1374723Y-62508D01*
X1374810Y-62391D01*
X1374927Y-62274D01*
X1375043Y-62158D01*
X1375189Y-62056D01*
X1375204Y-62041D01*
X1375262Y-62012D01*
X1375335Y-61954D01*
X1375452Y-61895D01*
X1375583Y-61837D01*
X1375743Y-61764D01*
X1375904Y-61706D01*
X1376093Y-61648D01*
X1376108D01*
X1376166Y-61633D01*
X1376254Y-61604D01*
X1376370Y-61589D01*
X1376516Y-61560D01*
X1376706Y-61531D01*
X1376924Y-61487D01*
X1377187Y-61458D01*
X1377201D01*
X1377260Y-61443D01*
X1377333D01*
X1377435Y-61429D01*
X1377551Y-61414D01*
X1377697Y-61385D01*
X1377857Y-61371D01*
X1378032Y-61341D01*
X1378382Y-61269D01*
X1378761Y-61196D01*
X1379097Y-61108D01*
X1379257Y-61064D01*
X1379403Y-61021D01*
Y-61006D01*
Y-60977D01*
X1379418Y-60889D01*
Y-60787D01*
Y-60729D01*
Y-60700D01*
Y-60685D01*
Y-60671D01*
Y-60583D01*
X1379403Y-60437D01*
X1379374Y-60277D01*
X1379330Y-60102D01*
X1379257Y-59927D01*
X1379170Y-59767D01*
X1379053Y-59636D01*
X1379038Y-59621D01*
X1378965Y-59563D01*
X1378849Y-59504D01*
X1378703Y-59417D01*
X1378499Y-59344D01*
X1378266Y-59271D01*
X1377974Y-59227D01*
X1377639Y-59213D01*
X1377493D01*
X1377347Y-59227D01*
X1377143Y-59256D01*
X1376939Y-59286D01*
X1376720Y-59344D01*
X1376516Y-59417D01*
X1376341Y-59519D01*
X1376326Y-59534D01*
X1376268Y-59577D01*
X1376195Y-59650D01*
X1376108Y-59767D01*
X1376020Y-59913D01*
X1375918Y-60102D01*
X1375831Y-60335D01*
X1375743Y-60598D01*
X1374533Y-60437D01*
Y-60423D01*
X1374548Y-60408D01*
Y-60365D01*
X1374562Y-60306D01*
X1374606Y-60175D01*
X1374664Y-59986D01*
X1374737Y-59796D01*
X1374825Y-59592D01*
X1374941Y-59388D01*
X1375073Y-59198D01*
X1375087Y-59184D01*
X1375146Y-59125D01*
X1375233Y-59038D01*
X1375350Y-58921D01*
X1375510Y-58805D01*
X1375700Y-58688D01*
X1375918Y-58557D01*
X1376166Y-58455D01*
X1376181D01*
X1376195Y-58440D01*
X1376239Y-58425D01*
X1376297Y-58411D01*
X1376443Y-58367D01*
X1376647Y-58323D01*
X1376881Y-58280D01*
X1377172Y-58236D01*
X1377478Y-58207D01*
X1377828Y-58192D01*
X1377989D01*
X1378149Y-58207D01*
D02*
G37*
G36*
X1372813Y-65672D02*
X1371574D01*
Y-55582D01*
X1372813D01*
Y-65672D01*
D02*
G37*
G36*
X1366718Y-55597D02*
X1366966Y-55611D01*
X1367229Y-55626D01*
X1367476Y-55655D01*
X1367695Y-55684D01*
X1367724D01*
X1367826Y-55713D01*
X1367958Y-55743D01*
X1368133Y-55786D01*
X1368322Y-55859D01*
X1368526Y-55947D01*
X1368745Y-56049D01*
X1368935Y-56165D01*
X1368964Y-56180D01*
X1369022Y-56224D01*
X1369109Y-56311D01*
X1369226Y-56413D01*
X1369357Y-56545D01*
X1369489Y-56719D01*
X1369634Y-56909D01*
X1369751Y-57128D01*
X1369765Y-57157D01*
X1369795Y-57230D01*
X1369853Y-57361D01*
X1369911Y-57536D01*
X1369955Y-57740D01*
X1370013Y-57973D01*
X1370043Y-58236D01*
X1370057Y-58513D01*
Y-58527D01*
Y-58571D01*
Y-58630D01*
X1370043Y-58732D01*
X1370028Y-58834D01*
X1370013Y-58965D01*
X1369984Y-59111D01*
X1369955Y-59271D01*
X1369853Y-59606D01*
X1369795Y-59781D01*
X1369707Y-59971D01*
X1369605Y-60160D01*
X1369503Y-60335D01*
X1369372Y-60510D01*
X1369226Y-60685D01*
X1369211Y-60700D01*
X1369182Y-60729D01*
X1369139Y-60773D01*
X1369066Y-60817D01*
X1368978Y-60889D01*
X1368862Y-60962D01*
X1368716Y-61050D01*
X1368555Y-61123D01*
X1368366Y-61210D01*
X1368147Y-61298D01*
X1367914Y-61371D01*
X1367637Y-61429D01*
X1367345Y-61487D01*
X1367025Y-61531D01*
X1366660Y-61560D01*
X1366281Y-61575D01*
X1363700D01*
Y-65672D01*
X1362359D01*
Y-55582D01*
X1366500D01*
X1366718Y-55597D01*
D02*
G37*
G36*
X1356104Y-65672D02*
X1354690D01*
Y-64257D01*
X1356104D01*
Y-65672D01*
D02*
G37*
G36*
X1342982D02*
X1341743D01*
Y-57784D01*
X1341728Y-57798D01*
X1341655Y-57857D01*
X1341568Y-57944D01*
X1341422Y-58046D01*
X1341262Y-58178D01*
X1341057Y-58323D01*
X1340824Y-58484D01*
X1340562Y-58644D01*
X1340547D01*
X1340533Y-58659D01*
X1340445Y-58717D01*
X1340299Y-58790D01*
X1340124Y-58877D01*
X1339920Y-58979D01*
X1339702Y-59082D01*
X1339483Y-59184D01*
X1339264Y-59271D01*
Y-58075D01*
X1339279D01*
X1339308Y-58046D01*
X1339366Y-58032D01*
X1339439Y-57988D01*
X1339527Y-57944D01*
X1339629Y-57886D01*
X1339876Y-57740D01*
X1340168Y-57580D01*
X1340460Y-57376D01*
X1340766Y-57142D01*
X1341072Y-56894D01*
X1341087Y-56880D01*
X1341101Y-56865D01*
X1341145Y-56822D01*
X1341203Y-56778D01*
X1341335Y-56632D01*
X1341510Y-56457D01*
X1341684Y-56253D01*
X1341874Y-56020D01*
X1342034Y-55786D01*
X1342180Y-55538D01*
X1342982D01*
Y-65672D01*
D02*
G37*
G36*
X1332266Y-64476D02*
X1337238D01*
Y-65672D01*
X1330924D01*
Y-55582D01*
X1332266D01*
Y-64476D01*
D02*
G37*
G36*
X1393662Y-58207D02*
X1393779Y-58221D01*
X1393925Y-58250D01*
X1394085Y-58280D01*
X1394275Y-58323D01*
X1394450Y-58367D01*
X1394654Y-58440D01*
X1394843Y-58513D01*
X1395047Y-58615D01*
X1395251Y-58732D01*
X1395455Y-58863D01*
X1395645Y-59023D01*
X1395820Y-59198D01*
X1395835Y-59213D01*
X1395864Y-59242D01*
X1395907Y-59300D01*
X1395966Y-59388D01*
X1396039Y-59490D01*
X1396112Y-59606D01*
X1396199Y-59752D01*
X1396286Y-59927D01*
X1396374Y-60117D01*
X1396461Y-60321D01*
X1396534Y-60554D01*
X1396607Y-60802D01*
X1396666Y-61079D01*
X1396709Y-61371D01*
X1396739Y-61677D01*
X1396753Y-62012D01*
Y-62027D01*
Y-62085D01*
Y-62187D01*
X1396739Y-62333D01*
X1391271D01*
Y-62347D01*
Y-62391D01*
X1391286Y-62450D01*
Y-62537D01*
X1391300Y-62639D01*
X1391329Y-62756D01*
X1391373Y-63018D01*
X1391461Y-63310D01*
X1391577Y-63630D01*
X1391738Y-63922D01*
X1391942Y-64184D01*
X1391956D01*
X1391971Y-64214D01*
X1392058Y-64287D01*
X1392190Y-64389D01*
X1392365Y-64491D01*
X1392598Y-64607D01*
X1392860Y-64709D01*
X1393152Y-64782D01*
X1393312Y-64797D01*
X1393487Y-64811D01*
X1393604D01*
X1393735Y-64797D01*
X1393895Y-64768D01*
X1394070Y-64724D01*
X1394275Y-64666D01*
X1394464Y-64578D01*
X1394654Y-64461D01*
X1394668Y-64447D01*
X1394741Y-64389D01*
X1394829Y-64301D01*
X1394931Y-64184D01*
X1395047Y-64024D01*
X1395179Y-63820D01*
X1395310Y-63587D01*
X1395426Y-63310D01*
X1396709Y-63470D01*
Y-63485D01*
X1396695Y-63514D01*
X1396680Y-63572D01*
X1396651Y-63660D01*
X1396607Y-63747D01*
X1396564Y-63864D01*
X1396447Y-64112D01*
X1396301Y-64389D01*
X1396097Y-64680D01*
X1395864Y-64957D01*
X1395572Y-65220D01*
X1395558D01*
X1395528Y-65249D01*
X1395485Y-65278D01*
X1395426Y-65322D01*
X1395339Y-65365D01*
X1395251Y-65409D01*
X1395135Y-65468D01*
X1395004Y-65526D01*
X1394858Y-65584D01*
X1394712Y-65642D01*
X1394347Y-65730D01*
X1393939Y-65803D01*
X1393487Y-65832D01*
X1393327D01*
X1393225Y-65817D01*
X1393093Y-65803D01*
X1392933Y-65774D01*
X1392758Y-65745D01*
X1392569Y-65715D01*
X1392160Y-65599D01*
X1391942Y-65511D01*
X1391738Y-65424D01*
X1391519Y-65307D01*
X1391315Y-65176D01*
X1391125Y-65030D01*
X1390936Y-64855D01*
X1390921Y-64841D01*
X1390892Y-64811D01*
X1390848Y-64753D01*
X1390790Y-64666D01*
X1390717Y-64564D01*
X1390644Y-64447D01*
X1390557Y-64301D01*
X1390469Y-64141D01*
X1390382Y-63951D01*
X1390294Y-63747D01*
X1390221Y-63514D01*
X1390148Y-63266D01*
X1390090Y-63003D01*
X1390046Y-62712D01*
X1390017Y-62406D01*
X1390003Y-62085D01*
Y-62070D01*
Y-61997D01*
Y-61910D01*
X1390017Y-61779D01*
X1390032Y-61618D01*
X1390046Y-61443D01*
X1390075Y-61239D01*
X1390119Y-61035D01*
X1390236Y-60569D01*
X1390309Y-60335D01*
X1390396Y-60088D01*
X1390513Y-59854D01*
X1390644Y-59636D01*
X1390790Y-59417D01*
X1390950Y-59213D01*
X1390965Y-59198D01*
X1390994Y-59169D01*
X1391052Y-59125D01*
X1391125Y-59052D01*
X1391213Y-58979D01*
X1391329Y-58892D01*
X1391461Y-58790D01*
X1391621Y-58702D01*
X1391781Y-58600D01*
X1391971Y-58513D01*
X1392175Y-58425D01*
X1392394Y-58353D01*
X1392627Y-58280D01*
X1392875Y-58236D01*
X1393137Y-58207D01*
X1393414Y-58192D01*
X1393560D01*
X1393662Y-58207D01*
D02*
G37*
%LPC*%
G36*
X1427167Y-56778D02*
X1424834D01*
Y-64476D01*
X1427225D01*
X1427327Y-64461D01*
X1427546Y-64447D01*
X1427794Y-64432D01*
X1428056Y-64403D01*
X1428319Y-64359D01*
X1428537Y-64301D01*
X1428567Y-64287D01*
X1428640Y-64272D01*
X1428742Y-64228D01*
X1428873Y-64170D01*
X1429019Y-64082D01*
X1429165Y-63995D01*
X1429310Y-63893D01*
X1429456Y-63776D01*
X1429471Y-63747D01*
X1429529Y-63689D01*
X1429616Y-63587D01*
X1429718Y-63441D01*
X1429835Y-63251D01*
X1429966Y-63033D01*
X1430083Y-62785D01*
X1430185Y-62508D01*
Y-62493D01*
X1430200Y-62464D01*
X1430214Y-62420D01*
X1430229Y-62362D01*
X1430243Y-62289D01*
X1430272Y-62187D01*
X1430302Y-62085D01*
X1430331Y-61968D01*
X1430375Y-61677D01*
X1430418Y-61341D01*
X1430447Y-60962D01*
X1430462Y-60554D01*
Y-60540D01*
Y-60481D01*
Y-60408D01*
X1430447Y-60292D01*
Y-60160D01*
X1430433Y-60015D01*
X1430418Y-59840D01*
X1430404Y-59665D01*
X1430331Y-59271D01*
X1430243Y-58863D01*
X1430112Y-58484D01*
X1430025Y-58294D01*
X1429937Y-58134D01*
Y-58119D01*
X1429908Y-58090D01*
X1429879Y-58046D01*
X1429850Y-57988D01*
X1429733Y-57842D01*
X1429587Y-57667D01*
X1429398Y-57478D01*
X1429179Y-57288D01*
X1428931Y-57128D01*
X1428669Y-56997D01*
X1428640Y-56982D01*
X1428567Y-56967D01*
X1428435Y-56924D01*
X1428246Y-56880D01*
X1428013Y-56851D01*
X1427721Y-56807D01*
X1427546Y-56792D01*
X1427357D01*
X1427167Y-56778D01*
D02*
G37*
G36*
X1379418Y-61997D02*
X1379403D01*
X1379388Y-62012D01*
X1379345Y-62027D01*
X1379286Y-62041D01*
X1379213Y-62070D01*
X1379126Y-62099D01*
X1379024Y-62129D01*
X1378907Y-62158D01*
X1378776Y-62202D01*
X1378616Y-62231D01*
X1378455Y-62274D01*
X1378266Y-62318D01*
X1378061Y-62362D01*
X1377857Y-62406D01*
X1377624Y-62435D01*
X1377376Y-62479D01*
X1377347D01*
X1377260Y-62493D01*
X1377114Y-62522D01*
X1376954Y-62551D01*
X1376779Y-62581D01*
X1376604Y-62624D01*
X1376443Y-62668D01*
X1376297Y-62726D01*
X1376283D01*
X1376239Y-62756D01*
X1376181Y-62785D01*
X1376122Y-62828D01*
X1375947Y-62945D01*
X1375802Y-63120D01*
Y-63135D01*
X1375772Y-63164D01*
X1375758Y-63222D01*
X1375729Y-63295D01*
X1375700Y-63383D01*
X1375670Y-63470D01*
X1375656Y-63587D01*
X1375641Y-63703D01*
Y-63718D01*
Y-63791D01*
X1375656Y-63878D01*
X1375685Y-63995D01*
X1375729Y-64126D01*
X1375802Y-64257D01*
X1375889Y-64403D01*
X1376006Y-64534D01*
X1376020Y-64549D01*
X1376079Y-64578D01*
X1376166Y-64636D01*
X1376283Y-64695D01*
X1376443Y-64753D01*
X1376633Y-64811D01*
X1376851Y-64841D01*
X1377114Y-64855D01*
X1377230D01*
X1377376Y-64841D01*
X1377537Y-64811D01*
X1377741Y-64782D01*
X1377945Y-64724D01*
X1378164Y-64651D01*
X1378382Y-64549D01*
X1378411Y-64534D01*
X1378470Y-64491D01*
X1378572Y-64418D01*
X1378689Y-64316D01*
X1378820Y-64199D01*
X1378965Y-64053D01*
X1379082Y-63878D01*
X1379199Y-63689D01*
X1379213Y-63674D01*
X1379228Y-63616D01*
X1379257Y-63514D01*
X1379301Y-63383D01*
X1379345Y-63208D01*
X1379374Y-63003D01*
X1379388Y-62756D01*
X1379403Y-62464D01*
X1379418Y-61997D01*
D02*
G37*
G36*
X1366587Y-56778D02*
X1363700D01*
Y-60379D01*
X1366412D01*
X1366514Y-60365D01*
X1366616D01*
X1366733Y-60350D01*
X1367010Y-60321D01*
X1367316Y-60263D01*
X1367622Y-60175D01*
X1367899Y-60058D01*
X1368030Y-59986D01*
X1368133Y-59898D01*
X1368162Y-59869D01*
X1368220Y-59811D01*
X1368307Y-59694D01*
X1368410Y-59548D01*
X1368512Y-59359D01*
X1368599Y-59125D01*
X1368657Y-58863D01*
X1368687Y-58557D01*
Y-58542D01*
Y-58527D01*
Y-58455D01*
X1368672Y-58323D01*
X1368643Y-58178D01*
X1368614Y-58017D01*
X1368555Y-57828D01*
X1368468Y-57653D01*
X1368366Y-57478D01*
X1368351Y-57463D01*
X1368307Y-57405D01*
X1368235Y-57332D01*
X1368147Y-57230D01*
X1368016Y-57128D01*
X1367870Y-57040D01*
X1367710Y-56953D01*
X1367520Y-56880D01*
X1367506D01*
X1367447Y-56865D01*
X1367360Y-56851D01*
X1367243Y-56822D01*
X1367068Y-56807D01*
X1366850Y-56792D01*
X1366587Y-56778D01*
D02*
G37*
G36*
X1393429Y-59213D02*
X1393341D01*
X1393283Y-59227D01*
X1393123Y-59242D01*
X1392933Y-59286D01*
X1392700Y-59359D01*
X1392452Y-59461D01*
X1392219Y-59606D01*
X1391985Y-59796D01*
X1391956Y-59825D01*
X1391898Y-59898D01*
X1391796Y-60029D01*
X1391694Y-60204D01*
X1391577Y-60408D01*
X1391475Y-60671D01*
X1391388Y-60977D01*
X1391344Y-61312D01*
X1395441D01*
Y-61298D01*
Y-61269D01*
X1395426Y-61225D01*
Y-61166D01*
X1395397Y-60992D01*
X1395353Y-60802D01*
X1395280Y-60569D01*
X1395208Y-60350D01*
X1395091Y-60131D01*
X1394960Y-59942D01*
Y-59927D01*
X1394931Y-59913D01*
X1394858Y-59825D01*
X1394726Y-59708D01*
X1394551Y-59577D01*
X1394333Y-59446D01*
X1394070Y-59329D01*
X1393764Y-59242D01*
X1393604Y-59227D01*
X1393429Y-59213D01*
D02*
G37*
%LPD*%
D215*
X-68382Y238238D02*
G03*
X-64482Y234338I3900J0D01*
G01*
X-82882Y301238D02*
G03*
X-78982Y297338I3900J0D01*
G01*
X-17782D02*
G03*
X-13882Y301238I0J3900D01*
G01*
X-32282Y234338D02*
G03*
X-28382Y238238I0J3900D01*
G01*
X-64482Y234338D02*
X-32282D01*
X-28382Y238238D02*
Y297338D01*
X-17782D01*
X-13882Y301238D02*
Y307338D01*
X305118D01*
Y-32820D02*
Y307338D01*
X394Y-32820D02*
X305118D01*
X394D02*
Y-7623D01*
X-94882D02*
X394D01*
X-94882D02*
Y307338D01*
X-82882D01*
Y301238D02*
Y307338D01*
X-78982Y297338D02*
X-68382D01*
Y238238D02*
Y297338D01*
D216*
X120472Y228171D02*
D03*
Y238171D02*
D03*
X-24382Y215838D02*
D03*
X-28382Y225838D02*
D03*
X-52382D02*
D03*
X-40382Y215838D02*
D03*
X-56382D02*
D03*
X-72382D02*
D03*
X-64382D02*
D03*
X-32382D02*
D03*
X-68382Y225838D02*
D03*
X-60382D02*
D03*
X-44382D02*
D03*
X-36382D02*
D03*
D217*
X0Y0D02*
D03*
X230236D02*
D03*
X293110Y22874D02*
D03*
Y253110D02*
D03*
X230236Y260000D02*
D03*
X0D02*
D03*
D218*
X-80482Y239338D02*
D03*
Y269338D02*
D03*
X-16282Y259838D02*
D03*
Y229838D02*
D03*
D219*
X-80482Y252338D02*
D03*
X-16282Y246838D02*
D03*
D220*
X-76032Y280838D02*
D03*
X-20732D02*
D03*
X-76032Y290838D02*
D03*
X-20732D02*
D03*
D221*
X105118Y217992D02*
D03*
Y237992D02*
D03*
Y227992D02*
D03*
D222*
X148819Y193898D02*
D03*
X188189D02*
D03*
D223*
X225590Y185236D02*
D03*
X238976Y201378D02*
D03*
X259449Y115551D02*
D03*
X72835Y236417D02*
D03*
X2756Y134646D02*
D03*
X-51968Y30512D02*
D03*
Y77756D02*
D03*
Y125000D02*
D03*
Y172244D02*
D03*
X55118Y180905D02*
D03*
X-16535Y57677D02*
D03*
Y68701D02*
D03*
Y26181D02*
D03*
Y37205D02*
D03*
Y89173D02*
D03*
Y100197D02*
D03*
X22835Y89173D02*
D03*
Y100197D02*
D03*
X-40551Y1378D02*
D03*
X74803Y181299D02*
D03*
X259449Y104528D02*
D03*
Y93504D02*
D03*
Y82480D02*
D03*
Y71457D02*
D03*
Y60433D02*
D03*
Y49409D02*
D03*
Y38386D02*
D03*
Y27362D02*
D03*
Y16339D02*
D03*
X250394Y201378D02*
D03*
X244882Y132087D02*
D03*
Y191535D02*
D03*
X256299Y132087D02*
D03*
Y191535D02*
D03*
Y171063D02*
D03*
X250394Y181299D02*
D03*
Y161221D02*
D03*
X261811Y181299D02*
D03*
X244882Y171457D02*
D03*
X261811Y161221D02*
D03*
X244882Y151378D02*
D03*
X256299Y151378D02*
D03*
X238976Y141535D02*
D03*
X250394Y141929D02*
D03*
X238835Y100429D02*
D03*
D224*
X14108Y-18660D02*
D03*
X234108D02*
D03*
X229098Y294430D02*
D03*
X14098D02*
D03*
D225*
X117218Y186992D02*
D03*
X112435Y187058D02*
D03*
X110018Y135563D02*
D03*
X146063Y107283D02*
D03*
X139764Y110433D02*
D03*
X161811Y91535D02*
D03*
X168110Y85236D02*
D03*
X180709Y107283D02*
D03*
Y110433D02*
D03*
X171260Y66339D02*
D03*
X60236Y492D02*
D03*
X171260Y63189D02*
D03*
X63976Y591D02*
D03*
X174409Y56890D02*
D03*
X95374Y295D02*
D03*
X174409Y60039D02*
D03*
X92126Y197D02*
D03*
X168110Y63189D02*
D03*
X57480Y197D02*
D03*
X168110Y66339D02*
D03*
X54134Y295D02*
D03*
X190157Y72638D02*
D03*
Y75787D02*
D03*
X196457D02*
D03*
X193307D02*
D03*
Y82087D02*
D03*
X108433Y248744D02*
D03*
X106133D02*
D03*
X190157Y82087D02*
D03*
X187008D02*
D03*
X102528Y248744D02*
D03*
X183858Y82087D02*
D03*
X100228Y248744D02*
D03*
X180709Y85236D02*
D03*
X151575Y222182D02*
D03*
X177559Y85236D02*
D03*
X151575Y219882D02*
D03*
X177559Y104134D02*
D03*
X115937Y275787D02*
D03*
X180709Y104134D02*
D03*
X118237Y275787D02*
D03*
X146063Y75787D02*
D03*
Y72638D02*
D03*
Y69488D02*
D03*
X142913D02*
D03*
X139764Y72638D02*
D03*
Y69488D02*
D03*
Y66339D02*
D03*
X142913D02*
D03*
X139764Y60039D02*
D03*
Y56890D02*
D03*
X146063Y63189D02*
D03*
X142913D02*
D03*
X146063Y56890D02*
D03*
X31457Y158D02*
D03*
X149213Y56890D02*
D03*
X34252Y197D02*
D03*
X152362Y60039D02*
D03*
X37362Y158D02*
D03*
X155512Y60039D02*
D03*
X39961Y197D02*
D03*
X133465Y63189D02*
D03*
X98032Y42717D02*
D03*
X133465Y66339D02*
D03*
X94882Y42717D02*
D03*
X22047Y129724D02*
D03*
X201181Y102559D02*
D03*
Y99410D02*
D03*
X193307Y110433D02*
D03*
X190157D02*
D03*
X204331Y113622D02*
D03*
Y110433D02*
D03*
X193307Y113583D02*
D03*
Y116732D02*
D03*
X204331Y118307D02*
D03*
X201181D02*
D03*
X187008Y107283D02*
D03*
Y110433D02*
D03*
X133465Y113583D02*
D03*
X82284Y99410D02*
D03*
X133465Y116732D02*
D03*
X85433Y99410D02*
D03*
X133465Y78937D02*
D03*
X82284Y55315D02*
D03*
X133465Y82087D02*
D03*
X85433Y55315D02*
D03*
X177559Y82087D02*
D03*
X133653Y250787D02*
D03*
X135953D02*
D03*
X177559Y78937D02*
D03*
X169587Y787D02*
D03*
X166535Y1083D02*
D03*
X139173Y197D02*
D03*
X142421D02*
D03*
X187008Y97835D02*
D03*
X133653Y275787D02*
D03*
X187008Y94685D02*
D03*
X135953Y275787D02*
D03*
X193307Y94685D02*
D03*
X141859Y275787D02*
D03*
X139559D02*
D03*
X190157Y94685D02*
D03*
X201181Y96260D02*
D03*
X169418Y275787D02*
D03*
X167118D02*
D03*
X196457Y97835D02*
D03*
X178929Y275886D02*
D03*
X187008Y91535D02*
D03*
X181229Y275886D02*
D03*
X190157Y91535D02*
D03*
X187008Y56890D02*
D03*
X181693Y689D02*
D03*
X187008Y60039D02*
D03*
X178445Y591D02*
D03*
X183858Y85236D02*
D03*
Y91535D02*
D03*
X196457Y107283D02*
D03*
X201181Y105709D02*
D03*
Y112008D02*
D03*
Y115157D02*
D03*
X193307Y97835D02*
D03*
X196457Y94685D02*
D03*
X196645Y275787D02*
D03*
X187008Y75787D02*
D03*
X198945Y275787D02*
D03*
X187008Y72638D02*
D03*
Y78937D02*
D03*
X96622Y248744D02*
D03*
X94322D02*
D03*
X183858Y78937D02*
D03*
X196457D02*
D03*
X114339Y248744D02*
D03*
X112039D02*
D03*
X193307Y78937D02*
D03*
Y85236D02*
D03*
X190157D02*
D03*
X196457Y123031D02*
D03*
X199606D02*
D03*
X187008D02*
D03*
X190157D02*
D03*
X180709D02*
D03*
X183858D02*
D03*
X177559Y94685D02*
D03*
X108394Y275886D02*
D03*
X177559Y97835D02*
D03*
X106094Y275886D02*
D03*
X168504Y157677D02*
D03*
X187008Y100984D02*
D03*
X183858D02*
D03*
X180709Y94685D02*
D03*
Y91535D02*
D03*
X190157Y100984D02*
D03*
X193307D02*
D03*
X183858Y107283D02*
D03*
Y104134D02*
D03*
X281890Y140945D02*
D03*
Y152756D02*
D03*
Y160630D02*
D03*
Y156693D02*
D03*
Y148819D02*
D03*
Y144882D02*
D03*
Y137008D02*
D03*
Y133071D02*
D03*
Y129134D02*
D03*
Y125197D02*
D03*
Y121260D02*
D03*
Y117323D02*
D03*
X174409Y66339D02*
D03*
X48622Y197D02*
D03*
X177559Y66339D02*
D03*
X51476Y197D02*
D03*
X152362Y63189D02*
D03*
Y66339D02*
D03*
X42717Y197D02*
D03*
X45866D02*
D03*
X196457Y72638D02*
D03*
Y69488D02*
D03*
X220866Y25394D02*
D03*
X218110D02*
D03*
X118504Y197D02*
D03*
X115649D02*
D03*
X33858Y143504D02*
D03*
Y140748D02*
D03*
X129882Y250728D02*
D03*
X168110Y119882D02*
D03*
Y123031D02*
D03*
X155512D02*
D03*
X146063D02*
D03*
X161811Y113583D02*
D03*
X112165Y275847D02*
D03*
X158661Y50591D02*
D03*
X112992Y72638D02*
D03*
X109843D02*
D03*
X116142D02*
D03*
X165748Y35630D02*
D03*
Y38780D02*
D03*
Y32480D02*
D03*
X146063Y35630D02*
D03*
Y38780D02*
D03*
Y32480D02*
D03*
X126772D02*
D03*
X183858Y137992D02*
D03*
Y141142D02*
D03*
Y144291D02*
D03*
X220866Y128937D02*
D03*
X214567D02*
D03*
X217717D02*
D03*
X214567Y63189D02*
D03*
X220866D02*
D03*
X217717D02*
D03*
X220866Y85630D02*
D03*
X214567D02*
D03*
X217717D02*
D03*
X214567Y101772D02*
D03*
X220866D02*
D03*
X217717D02*
D03*
X169685Y163583D02*
D03*
X160236D02*
D03*
X156693D02*
D03*
X145276Y170669D02*
D03*
X138976D02*
D03*
X150000Y163583D02*
D03*
Y160039D02*
D03*
X140945Y156890D02*
D03*
X137795D02*
D03*
X168504Y150197D02*
D03*
X161811Y141142D02*
D03*
Y139173D02*
D03*
Y132087D02*
D03*
X124016Y144291D02*
D03*
Y141142D02*
D03*
Y137992D02*
D03*
X139764Y144291D02*
D03*
Y141142D02*
D03*
Y137992D02*
D03*
Y132480D02*
D03*
X124016D02*
D03*
X146063Y44291D02*
D03*
X126772Y38780D02*
D03*
Y35630D02*
D03*
Y44291D02*
D03*
X168110D02*
D03*
X171260D02*
D03*
X180709D02*
D03*
X190157Y41142D02*
D03*
X193307D02*
D03*
Y44291D02*
D03*
Y50591D02*
D03*
X183858D02*
D03*
X149213D02*
D03*
X109843Y91535D02*
D03*
X116142D02*
D03*
X112992D02*
D03*
Y110433D02*
D03*
X116142D02*
D03*
X109843D02*
D03*
X119696Y122932D02*
D03*
X120866Y119882D02*
D03*
Y110433D02*
D03*
Y100984D02*
D03*
Y91535D02*
D03*
Y82087D02*
D03*
Y72638D02*
D03*
Y63189D02*
D03*
X127165Y66339D02*
D03*
Y78937D02*
D03*
Y91535D02*
D03*
Y100984D02*
D03*
Y107283D02*
D03*
Y119882D02*
D03*
X183858Y132480D02*
D03*
X202756Y53740D02*
D03*
X209055Y63189D02*
D03*
X202756D02*
D03*
X209055Y75787D02*
D03*
X202756D02*
D03*
X209055Y93110D02*
D03*
Y85236D02*
D03*
X202756D02*
D03*
X209055Y101772D02*
D03*
Y110433D02*
D03*
X193307Y126181D02*
D03*
X180709D02*
D03*
X196457Y132480D02*
D03*
X199606Y126181D02*
D03*
X205512Y132480D02*
D03*
X209055Y126575D02*
D03*
X158661Y126181D02*
D03*
X171260D02*
D03*
X146063D02*
D03*
X139764Y119882D02*
D03*
X146063D02*
D03*
X149213Y123031D02*
D03*
X168110Y91535D02*
D03*
X158661Y91535D02*
D03*
X161811Y94685D02*
D03*
X171260Y85236D02*
D03*
X158661Y82087D02*
D03*
X171260Y94685D02*
D03*
X161811Y78937D02*
D03*
X155512Y85236D02*
D03*
X174409Y91535D02*
D03*
X168110Y97835D02*
D03*
X171260Y78937D02*
D03*
X155512Y94685D02*
D03*
X158661Y97835D02*
D03*
X174409Y82087D02*
D03*
X155512Y78937D02*
D03*
X168110Y75787D02*
D03*
X174409Y97835D02*
D03*
X161811Y100984D02*
D03*
X158661Y75787D02*
D03*
Y100984D02*
D03*
X171260D02*
D03*
X174409Y75787D02*
D03*
X152362Y97835D02*
D03*
X155512Y100984D02*
D03*
X161811Y72638D02*
D03*
X168110D02*
D03*
X149213Y85236D02*
D03*
Y91535D02*
D03*
X161811Y104134D02*
D03*
X168110Y104134D02*
D03*
X158661Y72638D02*
D03*
X171260D02*
D03*
X180709Y82087D02*
D03*
X171260Y104134D02*
D03*
X152362Y75787D02*
D03*
X177559D02*
D03*
Y100984D02*
D03*
X155512Y72638D02*
D03*
X149213Y78937D02*
D03*
X174409Y72638D02*
D03*
X149213Y97835D02*
D03*
X155512Y104134D02*
D03*
X174409D02*
D03*
X146063Y85236D02*
D03*
Y91535D02*
D03*
X161811Y107283D02*
D03*
X168110D02*
D03*
X152362Y72638D02*
D03*
X149213Y75787D02*
D03*
X146063Y82087D02*
D03*
Y94685D02*
D03*
X177559Y72638D02*
D03*
X183858Y94685D02*
D03*
X152362Y104134D02*
D03*
X171260Y107283D02*
D03*
X146063Y78937D02*
D03*
X174409Y69488D02*
D03*
X146063Y97835D02*
D03*
X155512Y107283D02*
D03*
X174409D02*
D03*
X149213Y72638D02*
D03*
Y104134D02*
D03*
X142913Y85236D02*
D03*
X161811Y66339D02*
D03*
X152362Y69488D02*
D03*
Y107283D02*
D03*
X161811Y110433D02*
D03*
X168110D02*
D03*
X177559Y107283D02*
D03*
X142913Y94685D02*
D03*
X158661Y110433D02*
D03*
X171260D02*
D03*
X142913Y78937D02*
D03*
Y97835D02*
D03*
X155512Y110433D02*
D03*
X174409D02*
D03*
X149213Y69488D02*
D03*
X146063Y104134D02*
D03*
X149213Y107283D02*
D03*
X142913Y75787D02*
D03*
Y100984D02*
D03*
X152362Y110433D02*
D03*
X139764Y85236D02*
D03*
Y91535D02*
D03*
X168110Y113583D02*
D03*
X139764Y94685D02*
D03*
X158661Y113583D02*
D03*
X171260D02*
D03*
X142913Y72638D02*
D03*
X174409Y63189D02*
D03*
X190157Y78937D02*
D03*
X139764Y97835D02*
D03*
X142913Y104134D02*
D03*
X155512Y113583D02*
D03*
X187008Y104134D02*
D03*
X139764Y75787D02*
D03*
Y100984D02*
D03*
X152362Y113583D02*
D03*
X136614Y85236D02*
D03*
Y91535D02*
D03*
X142913Y107283D02*
D03*
X146063Y110433D02*
D03*
X187008Y69488D02*
D03*
X193307Y91535D02*
D03*
X149213Y130905D02*
D03*
X136614Y82087D02*
D03*
Y94685D02*
D03*
X158661Y116732D02*
D03*
X171260D02*
D03*
X139764Y104134D02*
D03*
X149213Y113583D02*
D03*
X136614Y78937D02*
D03*
Y97835D02*
D03*
X155512Y116732D02*
D03*
X174409D02*
D03*
X136614Y75787D02*
D03*
Y100984D02*
D03*
X142913Y110433D02*
D03*
X152362Y116732D02*
D03*
X190157Y69488D02*
D03*
X139764Y107283D02*
D03*
X146063Y113583D02*
D03*
X133465Y85236D02*
D03*
Y91535D02*
D03*
X161811Y119882D02*
D03*
X158661Y56890D02*
D03*
X149213Y60039D02*
D03*
X136614Y72638D02*
D03*
X158661Y119882D02*
D03*
X149213Y116732D02*
D03*
X180709D02*
D03*
X171260Y119882D02*
D03*
X155512D02*
D03*
X174409D02*
D03*
X142913Y113583D02*
D03*
X133465Y75787D02*
D03*
X183858Y60039D02*
D03*
X136614Y107283D02*
D03*
X146063Y116732D02*
D03*
X196457Y100984D02*
D03*
X133465Y72638D02*
D03*
X130315Y85236D02*
D03*
Y91535D02*
D03*
X133465Y104134D02*
D03*
X149213Y119882D02*
D03*
X171260Y53740D02*
D03*
X139764Y63189D02*
D03*
X130315Y94685D02*
D03*
X190157Y113583D02*
D03*
X158661Y123031D02*
D03*
X171260D02*
D03*
X136614Y66339D02*
D03*
Y110433D02*
D03*
X142913Y116732D02*
D03*
X130315Y78937D02*
D03*
Y97835D02*
D03*
X174409Y123031D02*
D03*
X133465Y69488D02*
D03*
Y107283D02*
D03*
X130315Y75787D02*
D03*
Y100984D02*
D03*
X199606Y75787D02*
D03*
X152362Y123031D02*
D03*
X136614Y63189D02*
D03*
Y113583D02*
D03*
X139764Y116732D02*
D03*
X130315Y72638D02*
D03*
Y104134D02*
D03*
X133465Y110433D02*
D03*
X142913Y119882D02*
D03*
X196457Y66339D02*
D03*
X130315Y69488D02*
D03*
Y107283D02*
D03*
X136614Y60039D02*
D03*
Y116732D02*
D03*
X130315Y66339D02*
D03*
Y110433D02*
D03*
X201181Y108858D02*
D03*
X136614Y56890D02*
D03*
X193307D02*
D03*
X136614Y119882D02*
D03*
X130315Y63189D02*
D03*
Y113583D02*
D03*
X133465Y56890D02*
D03*
Y119882D02*
D03*
X136614Y53740D02*
D03*
X130315Y60039D02*
D03*
X193307Y123031D02*
D03*
X130315Y56890D02*
D03*
Y119882D02*
D03*
X161811Y85236D02*
D03*
X149213Y100984D02*
D03*
X152362Y82087D02*
D03*
X149213D02*
D03*
Y94685D02*
D03*
X152362Y91535D02*
D03*
X220374Y1378D02*
D03*
X57087Y102559D02*
D03*
X60236D02*
D03*
X63386D02*
D03*
Y99410D02*
D03*
X60236D02*
D03*
X57087D02*
D03*
X53937D02*
D03*
Y102559D02*
D03*
X57087Y105709D02*
D03*
X63386D02*
D03*
X66535Y102559D02*
D03*
Y99410D02*
D03*
X69685D02*
D03*
Y102559D02*
D03*
X72835Y99410D02*
D03*
Y102559D02*
D03*
Y105709D02*
D03*
X75984Y99410D02*
D03*
X79134D02*
D03*
Y102559D02*
D03*
Y105709D02*
D03*
X82284Y102559D02*
D03*
X85433D02*
D03*
Y105709D02*
D03*
X88583Y99410D02*
D03*
X91732D02*
D03*
Y102559D02*
D03*
X94882Y99410D02*
D03*
Y102559D02*
D03*
Y105709D02*
D03*
X98032Y102559D02*
D03*
X101181Y99410D02*
D03*
Y102559D02*
D03*
Y105709D02*
D03*
X52362Y135630D02*
D03*
X61024Y123031D02*
D03*
X56693Y135630D02*
D03*
X87008D02*
D03*
X82677D02*
D03*
X69685Y123031D02*
D03*
X78347Y135630D02*
D03*
X74016D02*
D03*
X61024D02*
D03*
X95669D02*
D03*
X100000Y123031D02*
D03*
X91339Y123031D02*
D03*
X100000Y135630D02*
D03*
X95669Y123031D02*
D03*
X87008D02*
D03*
X52362D02*
D03*
X65354D02*
D03*
X74016D02*
D03*
X91339Y135630D02*
D03*
X69685Y135630D02*
D03*
X82677Y123031D02*
D03*
X65354Y135630D02*
D03*
X78347Y123031D02*
D03*
X56693D02*
D03*
X57087Y86811D02*
D03*
X53937D02*
D03*
Y83661D02*
D03*
X57087Y80512D02*
D03*
Y83661D02*
D03*
X63386Y86811D02*
D03*
X60236D02*
D03*
Y83661D02*
D03*
X63386Y80512D02*
D03*
Y83661D02*
D03*
X66535D02*
D03*
X72835Y80512D02*
D03*
X82284Y86811D02*
D03*
X79134D02*
D03*
Y83661D02*
D03*
Y80512D02*
D03*
X88583Y86811D02*
D03*
X85433D02*
D03*
Y83661D02*
D03*
X88583Y80512D02*
D03*
X91732Y86811D02*
D03*
Y80512D02*
D03*
X94882D02*
D03*
Y83661D02*
D03*
X101181Y86811D02*
D03*
X98032Y83661D02*
D03*
X101181D02*
D03*
X57087Y61614D02*
D03*
X53937Y58465D02*
D03*
Y55315D02*
D03*
X57087D02*
D03*
Y58465D02*
D03*
X63386Y61614D02*
D03*
X60236Y58465D02*
D03*
Y55315D02*
D03*
X63386D02*
D03*
Y58465D02*
D03*
X66535D02*
D03*
Y55315D02*
D03*
X69685D02*
D03*
Y58465D02*
D03*
X72835Y61614D02*
D03*
Y58465D02*
D03*
Y55315D02*
D03*
X75984D02*
D03*
X79134Y61614D02*
D03*
Y58465D02*
D03*
Y55315D02*
D03*
X82284Y58465D02*
D03*
X85433Y61614D02*
D03*
Y58465D02*
D03*
X88583Y55315D02*
D03*
X94882Y61614D02*
D03*
X91732Y58465D02*
D03*
Y55315D02*
D03*
X94882D02*
D03*
Y58465D02*
D03*
X101181Y61614D02*
D03*
X98032Y58465D02*
D03*
X101181Y55315D02*
D03*
Y58465D02*
D03*
X57087Y42717D02*
D03*
X53937D02*
D03*
Y39567D02*
D03*
X57087Y36417D02*
D03*
Y39567D02*
D03*
X63386Y42717D02*
D03*
X60236D02*
D03*
Y39567D02*
D03*
X63386Y36417D02*
D03*
Y39567D02*
D03*
X69685Y42717D02*
D03*
X66535Y39567D02*
D03*
X72835D02*
D03*
Y36417D02*
D03*
X82284Y42717D02*
D03*
X79134D02*
D03*
Y39567D02*
D03*
Y36417D02*
D03*
X88583Y42717D02*
D03*
X85433D02*
D03*
Y39567D02*
D03*
X88583Y36417D02*
D03*
X91732Y42717D02*
D03*
Y36417D02*
D03*
X94882D02*
D03*
Y39567D02*
D03*
X101181Y42717D02*
D03*
X98032Y39567D02*
D03*
X101181D02*
D03*
X72835Y83661D02*
D03*
X69685D02*
D03*
Y86811D02*
D03*
Y39567D02*
D03*
X292913Y111417D02*
D03*
Y115354D02*
D03*
Y119291D02*
D03*
Y123228D02*
D03*
Y127165D02*
D03*
Y131102D02*
D03*
Y135039D02*
D03*
Y142913D02*
D03*
Y146850D02*
D03*
Y154724D02*
D03*
Y158661D02*
D03*
Y162598D02*
D03*
Y150787D02*
D03*
Y138976D02*
D03*
X177559Y69488D02*
D03*
X196260Y886D02*
D03*
X180709Y69488D02*
D03*
X199311Y886D02*
D03*
X121456Y295D02*
D03*
X124409D02*
D03*
X112401D02*
D03*
X109744D02*
D03*
X127559D02*
D03*
X130413D02*
D03*
X133267D02*
D03*
X136319D02*
D03*
X193504Y787D02*
D03*
X190354D02*
D03*
X202854Y886D02*
D03*
X193307Y63189D02*
D03*
X196457D02*
D03*
X205154Y886D02*
D03*
X106889Y394D02*
D03*
X187008Y63189D02*
D03*
X103543Y394D02*
D03*
X183858Y63189D02*
D03*
X190157Y60039D02*
D03*
Y56890D02*
D03*
X187500Y787D02*
D03*
X184449D02*
D03*
X98524Y3543D02*
D03*
X177559Y60039D02*
D03*
X98386Y453D02*
D03*
X177559Y63189D02*
D03*
X199606Y72638D02*
D03*
Y69488D02*
D03*
Y63189D02*
D03*
Y66339D02*
D03*
X193307Y60039D02*
D03*
X196457D02*
D03*
X193307Y69488D02*
D03*
Y66339D02*
D03*
X187008D02*
D03*
X190157D02*
D03*
X180709Y63189D02*
D03*
Y60039D02*
D03*
X183858Y66339D02*
D03*
Y69488D02*
D03*
X171260Y60039D02*
D03*
Y56890D02*
D03*
X161811Y69488D02*
D03*
X168110D02*
D03*
X161811Y63189D02*
D03*
X158661D02*
D03*
X161811Y56890D02*
D03*
Y53740D02*
D03*
X155512Y56890D02*
D03*
X152362D02*
D03*
X158661Y60039D02*
D03*
X161811D02*
D03*
X146063D02*
D03*
X142913D02*
D03*
X155512Y66339D02*
D03*
X158661D02*
D03*
Y69488D02*
D03*
X155512D02*
D03*
X177559Y113583D02*
D03*
Y110433D02*
D03*
X180709Y113583D02*
D03*
X183858D02*
D03*
X193307Y104134D02*
D03*
X196457D02*
D03*
X190157D02*
D03*
Y107283D02*
D03*
X183858Y119882D02*
D03*
X180709D02*
D03*
X157874Y229331D02*
D03*
X150000Y174606D02*
D03*
X151575Y224606D02*
D03*
X142126Y228937D02*
D03*
X99606Y225787D02*
D03*
X151575Y228543D02*
D03*
X157874Y226575D02*
D03*
X161024Y177362D02*
D03*
X177559Y119882D02*
D03*
Y116732D02*
D03*
X146063Y156496D02*
D03*
X185827Y149409D02*
D03*
X120133Y248744D02*
D03*
X199606Y85236D02*
D03*
X117771Y248744D02*
D03*
X196457Y85236D02*
D03*
X187008Y116732D02*
D03*
X183858D02*
D03*
X190157Y119882D02*
D03*
X193307D02*
D03*
X183858Y72638D02*
D03*
X141339Y250591D02*
D03*
X180709Y72638D02*
D03*
X143599Y250591D02*
D03*
X180709Y75787D02*
D03*
X102489Y275787D02*
D03*
X180709Y78937D02*
D03*
X100189Y275787D02*
D03*
X173023D02*
D03*
X196457Y91535D02*
D03*
X201181Y89961D02*
D03*
X175323Y275787D02*
D03*
X98032Y86811D02*
D03*
X133465Y97835D02*
D03*
X94882Y86811D02*
D03*
X133465Y100984D02*
D03*
X149213Y66339D02*
D03*
Y63189D02*
D03*
X199606Y82087D02*
D03*
X190740Y275787D02*
D03*
X199606Y78937D02*
D03*
X193040Y275787D02*
D03*
X214407Y984D02*
D03*
X216667D02*
D03*
X72835Y42717D02*
D03*
Y86811D02*
D03*
X142913Y82087D02*
D03*
X75984Y42717D02*
D03*
Y86811D02*
D03*
X139764Y82087D02*
D03*
X124142Y275886D02*
D03*
X183858Y97835D02*
D03*
X121842Y275886D02*
D03*
X180709Y97835D02*
D03*
X130048Y275886D02*
D03*
X190157Y116732D02*
D03*
X127748Y275886D02*
D03*
X187008Y113583D02*
D03*
X210531Y2264D02*
D03*
X208022Y443D02*
D03*
X173543Y1181D02*
D03*
X176969Y3543D02*
D03*
D226*
X268110Y173819D02*
D03*
Y169882D02*
D03*
X267323Y146434D02*
D03*
Y149235D02*
D03*
X202362Y197441D02*
D03*
Y201378D02*
D03*
X176378Y178150D02*
D03*
X27054Y25787D02*
D03*
X29954D02*
D03*
X32980D02*
D03*
X35839D02*
D03*
X38865D02*
D03*
X41765D02*
D03*
X51608D02*
D03*
X48708D02*
D03*
X54613D02*
D03*
X57513D02*
D03*
X60518D02*
D03*
X63419D02*
D03*
X35827Y236811D02*
D03*
X18504Y154528D02*
D03*
X278543Y35361D02*
D03*
Y31961D02*
D03*
X280613Y53078D02*
D03*
X280661Y49778D02*
D03*
X278205Y58958D02*
D03*
X278469Y55658D02*
D03*
X280661Y61589D02*
D03*
X280512Y64889D02*
D03*
X278543Y67395D02*
D03*
X278543Y70866D02*
D03*
X281101Y73031D02*
D03*
X281102Y76575D02*
D03*
X79134Y228543D02*
D03*
X236024Y114764D02*
D03*
X27953Y246260D02*
D03*
Y243110D02*
D03*
X194487Y263976D02*
D03*
X191338D02*
D03*
X277953Y79206D02*
D03*
Y82605D02*
D03*
X265945Y110702D02*
D03*
Y114102D02*
D03*
X103937Y161614D02*
D03*
X268110Y116607D02*
D03*
Y120007D02*
D03*
X61024Y246654D02*
D03*
X45276Y243504D02*
D03*
X42126Y244291D02*
D03*
X45669Y272638D02*
D03*
X160630Y149016D02*
D03*
Y152165D02*
D03*
X835Y91685D02*
D03*
X-3937Y91732D02*
D03*
X-14567Y21457D02*
D03*
X-17717D02*
D03*
X133465Y167126D02*
D03*
X5118Y220669D02*
D03*
X-787Y219882D02*
D03*
X-3937D02*
D03*
X16142Y260827D02*
D03*
X12618Y248992D02*
D03*
X78740Y217125D02*
D03*
X186417Y222835D02*
D03*
X199803Y169095D02*
D03*
X188189Y267913D02*
D03*
X21260Y184449D02*
D03*
X28346D02*
D03*
X29921Y187598D02*
D03*
X-5512Y240748D02*
D03*
X50000Y232874D02*
D03*
X66535Y235630D02*
D03*
Y226181D02*
D03*
X74016Y196653D02*
D03*
X25984Y187598D02*
D03*
X39370Y187598D02*
D03*
X53150Y191142D02*
D03*
Y194685D02*
D03*
Y215551D02*
D03*
Y200984D02*
D03*
X10630Y131299D02*
D03*
Y136024D02*
D03*
Y140748D02*
D03*
X15354D02*
D03*
Y136024D02*
D03*
Y131299D02*
D03*
X-40945Y150197D02*
D03*
X-31496Y134843D02*
D03*
X-33858Y153740D02*
D03*
Y137205D02*
D03*
X-1969Y76575D02*
D03*
X394D02*
D03*
X24803Y84449D02*
D03*
X21654D02*
D03*
X18504D02*
D03*
X24803Y81299D02*
D03*
X21654D02*
D03*
X18110Y77362D02*
D03*
X9252Y99016D02*
D03*
X6102D02*
D03*
X787Y95276D02*
D03*
X-41339Y13583D02*
D03*
X-38976D02*
D03*
X-20866Y21457D02*
D03*
X-14567Y18307D02*
D03*
X-17717D02*
D03*
X-21260Y14370D02*
D03*
X-30118Y36024D02*
D03*
X-33268D02*
D03*
X-38583Y32283D02*
D03*
X-38535Y28693D02*
D03*
X-43307Y28740D02*
D03*
X-41339Y45079D02*
D03*
X-38976D02*
D03*
X-14567Y52953D02*
D03*
X-17717D02*
D03*
X-20866D02*
D03*
X-14567Y49803D02*
D03*
X-17717D02*
D03*
X-21260Y45866D02*
D03*
X-30118Y67520D02*
D03*
X-33268D02*
D03*
X-38583Y63779D02*
D03*
X-38535Y60189D02*
D03*
X-43307Y60236D02*
D03*
Y91732D02*
D03*
X-38535Y91685D02*
D03*
X-38583Y95276D02*
D03*
X-33268Y99016D02*
D03*
X-30118D02*
D03*
X-21260Y77362D02*
D03*
X-17717Y81299D02*
D03*
X-14567D02*
D03*
X-20866Y84449D02*
D03*
X-17717D02*
D03*
X-14567D02*
D03*
X280118Y169882D02*
D03*
X44881Y25787D02*
D03*
X67716Y8071D02*
D03*
X46850D02*
D03*
X56299D02*
D03*
X51575D02*
D03*
X42126D02*
D03*
X31102D02*
D03*
X26378D02*
D03*
X21654D02*
D03*
X16929D02*
D03*
X1969D02*
D03*
X6693D02*
D03*
X35433Y34449D02*
D03*
X30709Y47047D02*
D03*
X25984D02*
D03*
X30709Y42323D02*
D03*
X25984D02*
D03*
X30709Y34449D02*
D03*
X25984D02*
D03*
X-8661Y34843D02*
D03*
X-5118D02*
D03*
X-1181Y34449D02*
D03*
X-8661Y41929D02*
D03*
X-5118D02*
D03*
X-1181D02*
D03*
X-1083Y31398D02*
D03*
X-1181Y27756D02*
D03*
X285039Y63976D02*
D03*
X226972Y61421D02*
D03*
X239768Y61224D02*
D03*
X211811Y41535D02*
D03*
Y38386D02*
D03*
X235433Y37205D02*
D03*
X239768Y37996D02*
D03*
X237402Y46260D02*
D03*
X291929Y32677D02*
D03*
Y36614D02*
D03*
Y40551D02*
D03*
Y44488D02*
D03*
Y48425D02*
D03*
Y52362D02*
D03*
Y56299D02*
D03*
Y60236D02*
D03*
Y64173D02*
D03*
Y68110D02*
D03*
X235433Y219488D02*
D03*
Y210827D02*
D03*
X221161Y230610D02*
D03*
X47638Y42717D02*
D03*
X44488D02*
D03*
Y55315D02*
D03*
X47638D02*
D03*
Y86811D02*
D03*
X44488D02*
D03*
Y99410D02*
D03*
X47638D02*
D03*
X285039Y23425D02*
D03*
Y26575D02*
D03*
Y29724D02*
D03*
Y38780D02*
D03*
Y41929D02*
D03*
Y45079D02*
D03*
Y51378D02*
D03*
Y54528D02*
D03*
Y67126D02*
D03*
Y70276D02*
D03*
Y73425D02*
D03*
Y76575D02*
D03*
Y79724D02*
D03*
Y88779D02*
D03*
X269685Y272441D02*
D03*
Y278740D02*
D03*
X224803Y267913D02*
D03*
X210630D02*
D03*
X205906D02*
D03*
X200000D02*
D03*
X182677D02*
D03*
X176772D02*
D03*
X158661D02*
D03*
X26772D02*
D03*
X30315D02*
D03*
X43307D02*
D03*
X55118D02*
D03*
X69685D02*
D03*
X73228D02*
D03*
X82677Y264764D02*
D03*
X87008D02*
D03*
X96063Y272244D02*
D03*
X90551Y271063D02*
D03*
X87402Y275000D02*
D03*
X172835Y213976D02*
D03*
X184252Y178150D02*
D03*
X192126D02*
D03*
X184252Y174213D02*
D03*
X192126Y175000D02*
D03*
X137402Y176181D02*
D03*
X169095Y222835D02*
D03*
X153937Y237598D02*
D03*
X142323Y213386D02*
D03*
Y220866D02*
D03*
X59764Y267992D02*
D03*
X155610Y133563D02*
D03*
X155512Y143504D02*
D03*
X161811Y144291D02*
D03*
X224799Y175390D02*
D03*
X222835Y178543D02*
D03*
X226772Y143504D02*
D03*
X-21260Y117520D02*
D03*
Y115157D02*
D03*
Y112795D02*
D03*
X-14567Y126181D02*
D03*
X-60630Y103740D02*
D03*
X-63834Y102952D02*
D03*
X-85433Y122244D02*
D03*
X-63779Y95079D02*
D03*
Y92716D02*
D03*
Y97441D02*
D03*
X5512Y152953D02*
D03*
X22441Y143504D02*
D03*
X-63779Y144685D02*
D03*
Y139961D02*
D03*
Y142323D02*
D03*
X-85433Y169488D02*
D03*
X-63834Y150196D02*
D03*
X-60630Y150984D02*
D03*
X-63779Y2953D02*
D03*
Y-1772D02*
D03*
Y591D02*
D03*
X-85433Y27756D02*
D03*
X-63834Y8464D02*
D03*
X-60630Y9252D02*
D03*
X-63779Y50197D02*
D03*
Y45472D02*
D03*
Y47835D02*
D03*
X-85433Y75000D02*
D03*
X-63834Y55708D02*
D03*
X-60630Y56496D02*
D03*
X63071Y267992D02*
D03*
X78347Y278543D02*
D03*
X57480Y272638D02*
D03*
X28882Y271598D02*
D03*
X11024Y275394D02*
D03*
X21614Y275433D02*
D03*
X17677D02*
D03*
X25551D02*
D03*
X35433Y284842D02*
D03*
X37362Y275039D02*
D03*
X40157Y275000D02*
D03*
X48031Y284842D02*
D03*
X51968Y275000D02*
D03*
X72047Y275394D02*
D03*
X57480Y248228D02*
D03*
X48878Y267972D02*
D03*
X37874Y267992D02*
D03*
X35039Y267913D02*
D03*
X9803Y251024D02*
D03*
X-3071Y267992D02*
D03*
X3091Y273366D02*
D03*
X-0Y273424D02*
D03*
X24016Y263189D02*
D03*
X19291Y263976D02*
D03*
X49213Y246654D02*
D03*
X53150D02*
D03*
X-38976Y76575D02*
D03*
X-41339D02*
D03*
X41339Y248622D02*
D03*
X-3150Y264370D02*
D03*
X167717Y169882D02*
D03*
X217717Y149803D02*
D03*
X211811Y155512D02*
D03*
X202362Y141929D02*
D03*
X221260Y139961D02*
D03*
X216535Y205315D02*
D03*
X227165Y246654D02*
D03*
X229134Y267913D02*
D03*
X285039Y253740D02*
D03*
Y246654D02*
D03*
Y250197D02*
D03*
Y232087D02*
D03*
Y211221D02*
D03*
Y186417D02*
D03*
Y183268D02*
D03*
Y180118D02*
D03*
X301969Y245276D02*
D03*
X292520Y243307D02*
D03*
X301969Y241339D02*
D03*
X292520Y239370D02*
D03*
X301969Y237402D02*
D03*
X292520Y235433D02*
D03*
X301969Y233465D02*
D03*
X292520Y231496D02*
D03*
X301969Y229528D02*
D03*
X292520Y227559D02*
D03*
X301969Y225591D02*
D03*
X278150Y203937D02*
D03*
Y200000D02*
D03*
X253740Y112795D02*
D03*
X278150Y192126D02*
D03*
Y188189D02*
D03*
X280315Y190157D02*
D03*
Y201969D02*
D03*
X267717Y194095D02*
D03*
X265748Y196063D02*
D03*
Y205906D02*
D03*
Y209842D02*
D03*
X267717Y207874D02*
D03*
X292520Y219685D02*
D03*
X301969Y221654D02*
D03*
Y217717D02*
D03*
X292520Y223622D02*
D03*
X232090Y51177D02*
D03*
X229532Y53350D02*
D03*
X234646Y54134D02*
D03*
X237402Y50984D02*
D03*
X239370Y48622D02*
D03*
X285038Y48622D02*
D03*
X292989Y81890D02*
D03*
Y85827D02*
D03*
X211811Y44685D02*
D03*
X72441Y8071D02*
D03*
X178347Y34055D02*
D03*
Y37205D02*
D03*
X25984Y30512D02*
D03*
X16142Y27756D02*
D03*
X20866Y31299D02*
D03*
X20374Y46949D02*
D03*
X25961Y50614D02*
D03*
X16929Y54134D02*
D03*
X7874Y53740D02*
D03*
X10630Y50984D02*
D03*
X193701Y37205D02*
D03*
Y34055D02*
D03*
X285039Y92126D02*
D03*
Y206496D02*
D03*
Y201772D02*
D03*
Y197047D02*
D03*
Y222638D02*
D03*
Y227362D02*
D03*
Y236811D02*
D03*
X269685Y265945D02*
D03*
X287795D02*
D03*
Y272244D02*
D03*
Y278937D02*
D03*
X282677D02*
D03*
X276378D02*
D03*
Y272244D02*
D03*
X282677D02*
D03*
Y265945D02*
D03*
X276378D02*
D03*
X257087Y216732D02*
D03*
Y224213D02*
D03*
Y230906D02*
D03*
Y237205D02*
D03*
X250787D02*
D03*
X244488D02*
D03*
Y230906D02*
D03*
X250787D02*
D03*
Y224213D02*
D03*
Y216732D02*
D03*
X244488D02*
D03*
Y224213D02*
D03*
X124409Y150197D02*
D03*
X268110Y143504D02*
D03*
Y140157D02*
D03*
Y128347D02*
D03*
Y131890D02*
D03*
X278543Y43772D02*
D03*
Y47172D02*
D03*
X-47244Y20669D02*
D03*
Y23819D02*
D03*
Y26969D02*
D03*
Y36417D02*
D03*
X-50394D02*
D03*
X-53543D02*
D03*
X-47244Y33268D02*
D03*
Y80512D02*
D03*
X-53543Y83661D02*
D03*
X-50394D02*
D03*
X-47244D02*
D03*
Y74213D02*
D03*
Y71063D02*
D03*
Y67913D02*
D03*
Y128150D02*
D03*
X-53543Y131299D02*
D03*
X-50394D02*
D03*
X-47244D02*
D03*
Y121850D02*
D03*
Y118701D02*
D03*
Y115551D02*
D03*
Y175394D02*
D03*
X-53543Y178543D02*
D03*
X-50394D02*
D03*
X-47244D02*
D03*
Y169095D02*
D03*
Y165945D02*
D03*
Y162795D02*
D03*
X202756Y169095D02*
D03*
X94882Y167126D02*
D03*
X81890D02*
D03*
X39370Y164764D02*
D03*
Y177362D02*
D03*
X53150Y208858D02*
D03*
X39764Y184449D02*
D03*
X37008Y182480D02*
D03*
X13780Y213976D02*
D03*
X9843Y219882D02*
D03*
X33858Y182480D02*
D03*
Y178543D02*
D03*
X39370Y171063D02*
D03*
X35039D02*
D03*
Y167913D02*
D03*
X29528Y175394D02*
D03*
X32677D02*
D03*
X35827Y176181D02*
D03*
X7480Y183268D02*
D03*
X10630D02*
D03*
X7480Y191142D02*
D03*
X10630D02*
D03*
X1575Y190354D02*
D03*
X66535Y221457D02*
D03*
Y217126D02*
D03*
Y212795D02*
D03*
X66535Y208465D02*
D03*
X66535Y204134D02*
D03*
X66535Y199803D02*
D03*
X121260Y150197D02*
D03*
X19291Y260827D02*
D03*
X28346Y263189D02*
D03*
X40693Y271598D02*
D03*
X1969Y245079D02*
D03*
X9055Y198622D02*
D03*
X13976Y204331D02*
D03*
X18504Y187598D02*
D03*
X-787Y227756D02*
D03*
X162992Y267913D02*
D03*
X87402Y250591D02*
D03*
X173425Y235630D02*
D03*
X267717Y198031D02*
D03*
X185433Y217913D02*
D03*
X96063Y262795D02*
D03*
X171260Y132480D02*
D03*
X64567Y248228D02*
D03*
X71653D02*
D03*
X163779Y135630D02*
D03*
X-33858Y4134D02*
D03*
X-28346Y6496D02*
D03*
X-25591D02*
D03*
X-22835Y-3740D02*
D03*
X-33858Y-1378D02*
D03*
Y1378D02*
D03*
X-25591Y-3740D02*
D03*
X-31102Y6496D02*
D03*
X-22835D02*
D03*
X-28346Y-3740D02*
D03*
X-31102D02*
D03*
X-7480D02*
D03*
X-10236D02*
D03*
X-15748Y6496D02*
D03*
X-7480D02*
D03*
X-12992Y-3740D02*
D03*
X-15748D02*
D03*
X-12992Y6496D02*
D03*
X-10236D02*
D03*
X-4724Y4134D02*
D03*
X-19783Y123130D02*
D03*
X-18504Y108071D02*
D03*
X-75492Y114665D02*
D03*
X-75590Y162008D02*
D03*
X-75492Y20177D02*
D03*
X-75492Y67421D02*
D03*
X28346Y275000D02*
D03*
X-3937Y227756D02*
D03*
X253543Y8465D02*
D03*
X275984Y-2165D02*
D03*
X280512Y37867D02*
D03*
X280708Y41535D02*
D03*
X262598Y125913D02*
D03*
Y122513D02*
D03*
X90551Y275000D02*
D03*
X131890Y173425D02*
D03*
X262598Y137724D02*
D03*
Y134324D02*
D03*
X55512Y230906D02*
D03*
X53937Y226181D02*
D03*
X45669Y225787D02*
D03*
X22835Y226575D02*
D03*
X27559Y226969D02*
D03*
X36220Y226968D02*
D03*
X32677Y232874D02*
D03*
X39763Y226574D02*
D03*
X52362Y131693D02*
D03*
X56693D02*
D03*
X61024D02*
D03*
X65354D02*
D03*
X69685D02*
D03*
X74016D02*
D03*
X78347D02*
D03*
X82677D02*
D03*
X87008D02*
D03*
X91339D02*
D03*
X95669D02*
D03*
X100000D02*
D03*
X103543D02*
D03*
X44488D02*
D03*
X48425D02*
D03*
X44488Y147047D02*
D03*
X48425D02*
D03*
X52362D02*
D03*
Y144291D02*
D03*
X48425D02*
D03*
X44488D02*
D03*
Y149803D02*
D03*
X48425D02*
D03*
X52362D02*
D03*
X212597Y188778D02*
D03*
X212598Y197441D02*
D03*
X70866Y167520D02*
D03*
X90158Y237992D02*
D03*
X253543Y99803D02*
D03*
Y96653D02*
D03*
X-20472Y181299D02*
D03*
X-83465Y200591D02*
D03*
X-70079Y195866D02*
D03*
X-48425Y202953D02*
D03*
X-50516Y205044D02*
D03*
M02*
