G04*
G04 #@! TF.GenerationSoftware,Altium Limited,Altium Designer,18.1.7 (191)*
G04*
G04 Layer_Color=16711935*
%FSLAX25Y25*%
%MOIN*%
G70*
G01*
G75*
%ADD111R,0.02862X0.02665*%
%ADD112R,0.06012X0.04240*%
%ADD114R,0.01681X0.01878*%
%ADD116R,0.04240X0.04437*%
%ADD119R,0.02665X0.02862*%
%ADD139R,0.01878X0.01681*%
%ADD140R,0.04437X0.04240*%
%ADD145R,0.06700X0.06700*%
%ADD146C,0.06700*%
%ADD147C,0.04816*%
%ADD148C,0.13500*%
%ADD149C,0.09500*%
%ADD150C,0.06400*%
%ADD151R,0.06400X0.06400*%
%ADD152C,0.08500*%
%ADD153R,0.06500X0.06500*%
%ADD154C,0.06500*%
%ADD155C,0.04437*%
%ADD156C,0.07587*%
%ADD157C,0.13000*%
%ADD158C,0.02300*%
%ADD159C,0.02500*%
%ADD160C,0.02900*%
%ADD238R,0.01201X0.05709*%
%ADD239R,0.10000X0.02520*%
%ADD240R,0.18504X0.02520*%
%ADD241R,0.05709X0.01201*%
%ADD242R,0.02520X0.10000*%
%ADD243R,0.02520X0.18504*%
%ADD250R,0.04240X0.06012*%
%ADD251C,0.03098*%
D111*
X129339Y124224D02*
D03*
Y128161D02*
D03*
X109843Y110039D02*
D03*
Y113976D02*
D03*
X125118Y116655D02*
D03*
Y120592D02*
D03*
X125197Y97324D02*
D03*
Y101261D02*
D03*
X127165Y82480D02*
D03*
Y78543D02*
D03*
Y62795D02*
D03*
Y66732D02*
D03*
X136221Y123425D02*
D03*
Y119488D02*
D03*
X209055Y89567D02*
D03*
Y93504D02*
D03*
X202756Y81693D02*
D03*
Y85630D02*
D03*
X127165Y90354D02*
D03*
Y86417D02*
D03*
X125618Y107124D02*
D03*
Y111061D02*
D03*
X202756Y57284D02*
D03*
Y53347D02*
D03*
X209055Y113976D02*
D03*
Y110039D02*
D03*
X116142D02*
D03*
Y113976D02*
D03*
X189370Y41142D02*
D03*
Y37205D02*
D03*
X194095D02*
D03*
Y41142D02*
D03*
X50787Y99016D02*
D03*
Y102953D02*
D03*
X149800Y140469D02*
D03*
Y136531D02*
D03*
X118866Y123425D02*
D03*
Y119488D02*
D03*
X114567Y123425D02*
D03*
Y119488D02*
D03*
X209055Y72244D02*
D03*
Y76181D02*
D03*
X202756Y66732D02*
D03*
Y62795D02*
D03*
Y72244D02*
D03*
Y76181D02*
D03*
X158661Y104528D02*
D03*
Y100591D02*
D03*
X152362Y86417D02*
D03*
Y90354D02*
D03*
Y94193D02*
D03*
Y98130D02*
D03*
X164961Y97441D02*
D03*
Y101378D02*
D03*
X158661Y79331D02*
D03*
Y75394D02*
D03*
Y95079D02*
D03*
Y91142D02*
D03*
X161811Y79331D02*
D03*
Y75394D02*
D03*
X152362Y100787D02*
D03*
Y104724D02*
D03*
X120866Y59646D02*
D03*
Y63583D02*
D03*
X155512Y75295D02*
D03*
Y79232D02*
D03*
X161811Y97441D02*
D03*
Y101378D02*
D03*
X168110Y101378D02*
D03*
Y97441D02*
D03*
X155512Y97638D02*
D03*
Y101575D02*
D03*
Y90945D02*
D03*
Y94882D02*
D03*
X185827Y152953D02*
D03*
Y156890D02*
D03*
D112*
X163779Y135630D02*
D03*
Y143504D02*
D03*
X155512Y135630D02*
D03*
Y143504D02*
D03*
X-2362Y219882D02*
D03*
Y227756D02*
D03*
D114*
X92224Y61614D02*
D03*
X94390D02*
D03*
X15650Y30118D02*
D03*
X13484D02*
D03*
X11122Y48622D02*
D03*
X13287D02*
D03*
X164075Y169882D02*
D03*
X161909D02*
D03*
X143110Y167126D02*
D03*
X140945D02*
D03*
X22343Y223819D02*
D03*
X20177D02*
D03*
X84350Y167126D02*
D03*
X86516D02*
D03*
X97342D02*
D03*
X99508D02*
D03*
X28051Y223819D02*
D03*
X30217D02*
D03*
X62894Y36417D02*
D03*
X60728D02*
D03*
X56595D02*
D03*
X54429D02*
D03*
X75492Y39567D02*
D03*
X73327D02*
D03*
X97539Y36417D02*
D03*
X95374D02*
D03*
X81791D02*
D03*
X79626D02*
D03*
X75492Y58465D02*
D03*
X73327D02*
D03*
X62894Y61614D02*
D03*
X60728D02*
D03*
X56595D02*
D03*
X54429D02*
D03*
X84941D02*
D03*
X82776D02*
D03*
X91240Y58465D02*
D03*
X89075D02*
D03*
X100689Y61614D02*
D03*
X98524D02*
D03*
X56595Y80512D02*
D03*
X54429D02*
D03*
X62894D02*
D03*
X60728D02*
D03*
X75492Y83661D02*
D03*
X73327D02*
D03*
X97539Y80512D02*
D03*
X95374D02*
D03*
X81791D02*
D03*
X79626D02*
D03*
X56595Y105709D02*
D03*
X54429D02*
D03*
X62894D02*
D03*
X60728D02*
D03*
X75492Y102559D02*
D03*
X73327D02*
D03*
X84941Y105709D02*
D03*
X82776D02*
D03*
X91240Y102559D02*
D03*
X89075D02*
D03*
X94390Y105709D02*
D03*
X92224D02*
D03*
X100689D02*
D03*
X98524D02*
D03*
X163878Y94685D02*
D03*
X166043D02*
D03*
X149705Y78937D02*
D03*
X151870D02*
D03*
X148721Y100984D02*
D03*
X146555D02*
D03*
D116*
X42126Y236811D02*
D03*
X35827D02*
D03*
X257087Y216732D02*
D03*
X263386D02*
D03*
X257087Y224213D02*
D03*
X263386D02*
D03*
X257087Y230906D02*
D03*
X263386D02*
D03*
X244488Y224213D02*
D03*
X238189D02*
D03*
X244488Y230906D02*
D03*
X238189D02*
D03*
X287795Y265945D02*
D03*
X294094D02*
D03*
X287795Y272244D02*
D03*
X294094D02*
D03*
X287795Y278937D02*
D03*
X294094D02*
D03*
X269685D02*
D03*
X263386D02*
D03*
X269685Y265945D02*
D03*
X263386D02*
D03*
X-83465Y225787D02*
D03*
X-77165D02*
D03*
X-86221Y216339D02*
D03*
X-79921D02*
D03*
X27953Y236811D02*
D03*
X21654D02*
D03*
D119*
X70079Y77362D02*
D03*
X66142D02*
D03*
X172047Y150197D02*
D03*
X168110D02*
D03*
X149606Y126575D02*
D03*
X145669D02*
D03*
X167717Y126181D02*
D03*
X171653D02*
D03*
X155118Y126575D02*
D03*
X159055D02*
D03*
X196850Y50591D02*
D03*
X192913D02*
D03*
X187402D02*
D03*
X183465D02*
D03*
X174803D02*
D03*
X170866D02*
D03*
X206299Y141929D02*
D03*
X202362D02*
D03*
X203150Y126181D02*
D03*
X199213D02*
D03*
X111024Y79331D02*
D03*
X114961D02*
D03*
X111024Y84055D02*
D03*
X114961D02*
D03*
X72441Y89961D02*
D03*
X76378D02*
D03*
X120550Y134592D02*
D03*
X124487D02*
D03*
X66142Y33268D02*
D03*
X70079D02*
D03*
X123228Y44291D02*
D03*
X127165D02*
D03*
X140157Y50591D02*
D03*
X136221D02*
D03*
X162205D02*
D03*
X158268D02*
D03*
X148819D02*
D03*
X152756D02*
D03*
X123228Y35630D02*
D03*
X127165D02*
D03*
X189764Y126181D02*
D03*
X193701D02*
D03*
X184252D02*
D03*
X180315D02*
D03*
X141732Y88386D02*
D03*
X137795D02*
D03*
X155905Y82087D02*
D03*
X151969D02*
D03*
X174803Y75787D02*
D03*
X170866D02*
D03*
X188189Y88386D02*
D03*
X192126D02*
D03*
X159055Y85236D02*
D03*
X155118D02*
D03*
X174803Y78937D02*
D03*
X170866D02*
D03*
X170866Y82087D02*
D03*
X174803D02*
D03*
X174803Y85236D02*
D03*
X170866D02*
D03*
X177953Y91535D02*
D03*
X174016D02*
D03*
X174803Y94685D02*
D03*
X170866D02*
D03*
X170866Y97835D02*
D03*
X174803D02*
D03*
D139*
X164961Y89468D02*
D03*
Y87303D02*
D03*
X42126Y227854D02*
D03*
Y230020D02*
D03*
X33465Y225886D02*
D03*
Y228051D02*
D03*
X91732Y39075D02*
D03*
Y36909D02*
D03*
Y83169D02*
D03*
Y81004D02*
D03*
X66535Y36909D02*
D03*
Y39075D02*
D03*
X82283Y40059D02*
D03*
Y42224D02*
D03*
X101181Y36909D02*
D03*
Y39075D02*
D03*
X98032Y55807D02*
D03*
Y57973D02*
D03*
X66535Y81004D02*
D03*
Y83169D02*
D03*
X82283Y84153D02*
D03*
Y86319D02*
D03*
X101181Y81004D02*
D03*
Y83169D02*
D03*
X98032Y99902D02*
D03*
Y102067D02*
D03*
D140*
X172441Y142717D02*
D03*
Y136417D02*
D03*
X257087Y237205D02*
D03*
Y243504D02*
D03*
X276378Y278937D02*
D03*
Y285236D02*
D03*
X-24803Y198622D02*
D03*
Y204921D02*
D03*
X-31102Y198622D02*
D03*
Y204921D02*
D03*
X5118Y226969D02*
D03*
Y220669D02*
D03*
D145*
X120472Y218171D02*
D03*
D146*
Y228171D02*
D03*
Y238171D02*
D03*
D147*
X0Y0D02*
D03*
X230236D02*
D03*
X293110Y22874D02*
D03*
Y253110D02*
D03*
X230236Y260000D02*
D03*
X0D02*
D03*
D148*
X-80482Y239338D02*
D03*
Y269338D02*
D03*
X-16282Y259838D02*
D03*
Y229838D02*
D03*
D149*
X-80482Y252338D02*
D03*
X-16282Y246838D02*
D03*
D150*
X-24382Y215838D02*
D03*
X-28382Y225838D02*
D03*
X-52382D02*
D03*
X-40382Y215838D02*
D03*
X-56382D02*
D03*
X-72382D02*
D03*
X-64382D02*
D03*
X-32382D02*
D03*
X-60382Y225838D02*
D03*
X-44382D02*
D03*
X-36382D02*
D03*
D151*
X-68382D02*
D03*
D152*
X-76032Y280838D02*
D03*
X-20732D02*
D03*
X-76032Y290838D02*
D03*
X-20732D02*
D03*
D153*
X105118Y217992D02*
D03*
D154*
Y237992D02*
D03*
Y227992D02*
D03*
D155*
X148819Y193898D02*
D03*
X188189D02*
D03*
D156*
X225590Y185236D02*
D03*
X238976Y201378D02*
D03*
X259449Y115551D02*
D03*
X72835Y236417D02*
D03*
X2756Y134646D02*
D03*
X-51968Y30512D02*
D03*
Y77756D02*
D03*
Y125000D02*
D03*
Y172244D02*
D03*
X55118Y180905D02*
D03*
X-16535Y57677D02*
D03*
Y68701D02*
D03*
Y26181D02*
D03*
Y37205D02*
D03*
Y89173D02*
D03*
Y100197D02*
D03*
X22835Y89173D02*
D03*
Y100197D02*
D03*
X-40551Y1378D02*
D03*
X74803Y181299D02*
D03*
X259449Y104528D02*
D03*
Y93504D02*
D03*
Y82480D02*
D03*
Y71457D02*
D03*
Y60433D02*
D03*
Y49409D02*
D03*
Y38386D02*
D03*
Y27362D02*
D03*
Y16339D02*
D03*
X250394Y201378D02*
D03*
X244882Y132087D02*
D03*
Y191535D02*
D03*
X256299Y132087D02*
D03*
Y191535D02*
D03*
Y171063D02*
D03*
X250394Y181299D02*
D03*
Y161221D02*
D03*
X261811Y181299D02*
D03*
X244882Y171457D02*
D03*
X261811Y161221D02*
D03*
X244882Y151378D02*
D03*
X256299Y151378D02*
D03*
X238976Y141535D02*
D03*
X250394Y141929D02*
D03*
X238835Y100429D02*
D03*
D157*
X14108Y-18660D02*
D03*
X234108D02*
D03*
X229098Y294430D02*
D03*
X14098D02*
D03*
D158*
X117218Y186992D02*
D03*
X112435Y187058D02*
D03*
X110018Y135563D02*
D03*
X60236Y492D02*
D03*
X63976Y591D02*
D03*
X95374Y295D02*
D03*
X92126Y197D02*
D03*
X57480D02*
D03*
X54134Y295D02*
D03*
X108433Y248744D02*
D03*
X106133D02*
D03*
X102528D02*
D03*
X100228D02*
D03*
X151575Y222182D02*
D03*
Y219882D02*
D03*
X115937Y275787D02*
D03*
X118237D02*
D03*
X31457Y158D02*
D03*
X34252Y197D02*
D03*
X37362Y158D02*
D03*
X39961Y197D02*
D03*
X98032Y42717D02*
D03*
X94882D02*
D03*
X22047Y129724D02*
D03*
X82284Y99410D02*
D03*
X85433D02*
D03*
X82284Y55315D02*
D03*
X85433D02*
D03*
X133653Y250787D02*
D03*
X135953D02*
D03*
X169587Y787D02*
D03*
X166535Y1083D02*
D03*
X139173Y197D02*
D03*
X142421D02*
D03*
X133653Y275787D02*
D03*
X135953D02*
D03*
X141859D02*
D03*
X139559D02*
D03*
X169418D02*
D03*
X167118D02*
D03*
X178929Y275886D02*
D03*
X181229D02*
D03*
X181693Y689D02*
D03*
X178445Y591D02*
D03*
X196645Y275787D02*
D03*
X198945D02*
D03*
X96622Y248744D02*
D03*
X94322D02*
D03*
X114339D02*
D03*
X112039D02*
D03*
X108394Y275886D02*
D03*
X106094D02*
D03*
X168504Y157677D02*
D03*
X281890Y140945D02*
D03*
Y152756D02*
D03*
Y160630D02*
D03*
Y156693D02*
D03*
Y148819D02*
D03*
Y144882D02*
D03*
Y137008D02*
D03*
Y133071D02*
D03*
Y129134D02*
D03*
Y125197D02*
D03*
Y121260D02*
D03*
Y117323D02*
D03*
X48622Y197D02*
D03*
X51476D02*
D03*
X42717D02*
D03*
X45866D02*
D03*
X220866Y25394D02*
D03*
X218110D02*
D03*
X118504Y197D02*
D03*
X115649D02*
D03*
X285039Y148819D02*
D03*
Y156693D02*
D03*
Y152756D02*
D03*
Y144882D02*
D03*
Y133071D02*
D03*
Y117323D02*
D03*
Y121260D02*
D03*
Y125197D02*
D03*
Y129134D02*
D03*
X33858Y143504D02*
D03*
Y140748D02*
D03*
X129882Y250728D02*
D03*
X112165Y275847D02*
D03*
X112992Y69488D02*
D03*
Y72638D02*
D03*
X116142Y69488D02*
D03*
X109843D02*
D03*
Y72638D02*
D03*
X116142D02*
D03*
X165748Y35630D02*
D03*
X162598D02*
D03*
X165748Y38780D02*
D03*
X162598D02*
D03*
Y32480D02*
D03*
X165748D02*
D03*
X146063Y35630D02*
D03*
X142913D02*
D03*
X146063Y38780D02*
D03*
X142913D02*
D03*
Y32480D02*
D03*
X146063D02*
D03*
X126772D02*
D03*
X123622D02*
D03*
Y38780D02*
D03*
X183858Y137992D02*
D03*
Y141142D02*
D03*
Y144291D02*
D03*
X187008D02*
D03*
Y141142D02*
D03*
Y137992D02*
D03*
X220866Y128937D02*
D03*
X214567D02*
D03*
Y125787D02*
D03*
X220866D02*
D03*
X217717Y128937D02*
D03*
Y125787D02*
D03*
X220866Y66339D02*
D03*
X214567D02*
D03*
Y63189D02*
D03*
X220866D02*
D03*
X217717Y66339D02*
D03*
Y63189D02*
D03*
X220866Y85630D02*
D03*
X214567D02*
D03*
Y82480D02*
D03*
X220866D02*
D03*
X217717Y85630D02*
D03*
Y82480D02*
D03*
X220866Y104921D02*
D03*
X214567D02*
D03*
Y101772D02*
D03*
X220866D02*
D03*
X217717Y104921D02*
D03*
Y101772D02*
D03*
X169685Y163583D02*
D03*
X160236D02*
D03*
X156693D02*
D03*
X145276Y170669D02*
D03*
X138976D02*
D03*
Y163976D02*
D03*
X150000Y163583D02*
D03*
Y160039D02*
D03*
X140945Y156890D02*
D03*
X137795D02*
D03*
X171653Y150197D02*
D03*
X168504D02*
D03*
X161811Y141142D02*
D03*
Y139173D02*
D03*
Y132087D02*
D03*
X168110Y132480D02*
D03*
X142913Y137992D02*
D03*
X124016Y144291D02*
D03*
Y141142D02*
D03*
Y137992D02*
D03*
X142913Y141142D02*
D03*
Y144291D02*
D03*
X139764D02*
D03*
Y141142D02*
D03*
Y137992D02*
D03*
X120866Y144291D02*
D03*
Y141142D02*
D03*
Y137992D02*
D03*
X142913Y132480D02*
D03*
X139764D02*
D03*
X120866D02*
D03*
X124016D02*
D03*
X146063Y44291D02*
D03*
X142913D02*
D03*
X126772Y38780D02*
D03*
X123622Y35630D02*
D03*
X126772D02*
D03*
X123622Y44291D02*
D03*
X126772D02*
D03*
X168110D02*
D03*
X161811D02*
D03*
X171260D02*
D03*
X174409D02*
D03*
X180709D02*
D03*
X183858D02*
D03*
X190157Y41142D02*
D03*
X193307D02*
D03*
X190157Y44291D02*
D03*
X193307D02*
D03*
X116142Y94685D02*
D03*
X109843D02*
D03*
Y91535D02*
D03*
X116142D02*
D03*
X112992Y94685D02*
D03*
Y91535D02*
D03*
Y110433D02*
D03*
Y113583D02*
D03*
X116142Y110433D02*
D03*
X109843D02*
D03*
Y113583D02*
D03*
X116142D02*
D03*
X114567Y123031D02*
D03*
X119696Y122932D02*
D03*
X120866Y119882D02*
D03*
Y113583D02*
D03*
Y110433D02*
D03*
Y104134D02*
D03*
Y100984D02*
D03*
Y94685D02*
D03*
Y91535D02*
D03*
Y85236D02*
D03*
Y82087D02*
D03*
Y72638D02*
D03*
Y69488D02*
D03*
Y60039D02*
D03*
Y63189D02*
D03*
X187008Y132480D02*
D03*
X183858D02*
D03*
X209055Y63189D02*
D03*
Y66339D02*
D03*
Y72638D02*
D03*
Y75787D02*
D03*
Y82087D02*
D03*
Y93110D02*
D03*
Y89961D02*
D03*
Y85236D02*
D03*
Y101772D02*
D03*
Y104921D02*
D03*
Y110433D02*
D03*
Y113583D02*
D03*
Y123425D02*
D03*
X193307Y132480D02*
D03*
X196457D02*
D03*
X205512D02*
D03*
X208661D02*
D03*
X209055Y126575D02*
D03*
X149213Y130905D02*
D03*
X220374Y1378D02*
D03*
X103543Y123031D02*
D03*
X57087Y102559D02*
D03*
X60236D02*
D03*
X63386D02*
D03*
Y99410D02*
D03*
X60236D02*
D03*
X57087D02*
D03*
X53937D02*
D03*
Y102559D02*
D03*
Y105709D02*
D03*
X57087D02*
D03*
X60236D02*
D03*
X63386D02*
D03*
X66535D02*
D03*
Y102559D02*
D03*
Y99410D02*
D03*
X69685D02*
D03*
Y102559D02*
D03*
X72835Y99410D02*
D03*
Y102559D02*
D03*
Y105709D02*
D03*
X75984Y99410D02*
D03*
Y102559D02*
D03*
X79134Y99410D02*
D03*
Y102559D02*
D03*
Y105709D02*
D03*
X82284Y102559D02*
D03*
Y105709D02*
D03*
X85433Y102559D02*
D03*
Y105709D02*
D03*
X88583Y99410D02*
D03*
Y102559D02*
D03*
Y105709D02*
D03*
X91732Y99410D02*
D03*
Y102559D02*
D03*
Y105709D02*
D03*
X94882Y99410D02*
D03*
Y102559D02*
D03*
Y105709D02*
D03*
X98032Y99410D02*
D03*
Y102559D02*
D03*
Y105709D02*
D03*
X101181Y99410D02*
D03*
Y102559D02*
D03*
Y105709D02*
D03*
X48425Y123031D02*
D03*
X52362Y135630D02*
D03*
X61024Y123031D02*
D03*
X56693Y135630D02*
D03*
X87008D02*
D03*
X82677D02*
D03*
X69685Y123031D02*
D03*
X78347Y135630D02*
D03*
X74016D02*
D03*
X61024D02*
D03*
X95669D02*
D03*
X100000Y123031D02*
D03*
X91339Y123031D02*
D03*
X100000Y135630D02*
D03*
X95669Y123031D02*
D03*
X87008D02*
D03*
X52362D02*
D03*
X65354D02*
D03*
X74016D02*
D03*
X91339Y135630D02*
D03*
X69685Y135630D02*
D03*
X82677Y123031D02*
D03*
X65354Y135630D02*
D03*
X78347Y123031D02*
D03*
X56693D02*
D03*
X44488Y135630D02*
D03*
Y123031D02*
D03*
X48425Y135630D02*
D03*
X103543D02*
D03*
X57087Y86811D02*
D03*
X53937D02*
D03*
Y83661D02*
D03*
Y80512D02*
D03*
X57087D02*
D03*
Y83661D02*
D03*
X63386Y86811D02*
D03*
X60236D02*
D03*
Y83661D02*
D03*
Y80512D02*
D03*
X63386D02*
D03*
Y83661D02*
D03*
X66535D02*
D03*
Y80512D02*
D03*
X72835D02*
D03*
X82284Y86811D02*
D03*
X79134D02*
D03*
Y83661D02*
D03*
Y80512D02*
D03*
X82284D02*
D03*
Y83661D02*
D03*
X88583Y86811D02*
D03*
X85433D02*
D03*
Y83661D02*
D03*
Y80512D02*
D03*
X88583D02*
D03*
Y83661D02*
D03*
X91732Y86811D02*
D03*
Y83661D02*
D03*
Y80512D02*
D03*
X94882D02*
D03*
Y83661D02*
D03*
X101181Y86811D02*
D03*
X98032Y83661D02*
D03*
Y80512D02*
D03*
X101181D02*
D03*
Y83661D02*
D03*
X57087Y61614D02*
D03*
X53937D02*
D03*
Y58465D02*
D03*
Y55315D02*
D03*
X57087D02*
D03*
Y58465D02*
D03*
X63386Y61614D02*
D03*
X60236D02*
D03*
Y58465D02*
D03*
Y55315D02*
D03*
X63386D02*
D03*
Y58465D02*
D03*
X66535Y61614D02*
D03*
Y58465D02*
D03*
Y55315D02*
D03*
X69685D02*
D03*
Y58465D02*
D03*
X72835Y61614D02*
D03*
Y58465D02*
D03*
Y55315D02*
D03*
X75984D02*
D03*
Y58465D02*
D03*
X82284Y61614D02*
D03*
X79134D02*
D03*
Y58465D02*
D03*
Y55315D02*
D03*
X82284Y58465D02*
D03*
X88583Y61614D02*
D03*
X85433D02*
D03*
Y58465D02*
D03*
X88583Y55315D02*
D03*
Y58465D02*
D03*
X94882Y61614D02*
D03*
X91732D02*
D03*
Y58465D02*
D03*
Y55315D02*
D03*
X94882D02*
D03*
Y58465D02*
D03*
X101181Y61614D02*
D03*
X98032D02*
D03*
Y58465D02*
D03*
Y55315D02*
D03*
X101181D02*
D03*
Y58465D02*
D03*
X57087Y42717D02*
D03*
X53937D02*
D03*
Y39567D02*
D03*
Y36417D02*
D03*
X57087D02*
D03*
Y39567D02*
D03*
X63386Y42717D02*
D03*
X60236D02*
D03*
Y39567D02*
D03*
Y36417D02*
D03*
X63386D02*
D03*
Y39567D02*
D03*
X69685Y42717D02*
D03*
X66535Y39567D02*
D03*
Y36417D02*
D03*
X72835Y39567D02*
D03*
Y36417D02*
D03*
X75984Y39567D02*
D03*
X82284Y42717D02*
D03*
X79134D02*
D03*
Y39567D02*
D03*
Y36417D02*
D03*
X82284D02*
D03*
Y39567D02*
D03*
X88583Y42717D02*
D03*
X85433D02*
D03*
Y39567D02*
D03*
Y36417D02*
D03*
X88583D02*
D03*
Y39567D02*
D03*
X91732Y42717D02*
D03*
Y39567D02*
D03*
Y36417D02*
D03*
X94882D02*
D03*
Y39567D02*
D03*
X101181Y42717D02*
D03*
X98032Y39567D02*
D03*
Y36417D02*
D03*
X101181D02*
D03*
Y39567D02*
D03*
X72835Y83661D02*
D03*
X69685D02*
D03*
Y86811D02*
D03*
X75984Y83661D02*
D03*
X50787Y99410D02*
D03*
X69685Y39567D02*
D03*
X292913Y111417D02*
D03*
Y115354D02*
D03*
Y119291D02*
D03*
Y123228D02*
D03*
Y127165D02*
D03*
Y131102D02*
D03*
Y135039D02*
D03*
Y142913D02*
D03*
Y146850D02*
D03*
Y154724D02*
D03*
Y158661D02*
D03*
Y162598D02*
D03*
Y150787D02*
D03*
Y138976D02*
D03*
X285039Y167520D02*
D03*
Y174213D02*
D03*
X196260Y886D02*
D03*
X199311D02*
D03*
X121456Y295D02*
D03*
X124409D02*
D03*
X112401D02*
D03*
X109744D02*
D03*
X127559D02*
D03*
X130413D02*
D03*
X133267D02*
D03*
X136319D02*
D03*
X193504Y787D02*
D03*
X190354D02*
D03*
X202854Y886D02*
D03*
X205154D02*
D03*
X106889Y394D02*
D03*
X103543D02*
D03*
X187500Y787D02*
D03*
X184449D02*
D03*
X98524Y3543D02*
D03*
X98386Y453D02*
D03*
X157874Y229331D02*
D03*
X150000Y174606D02*
D03*
X151575Y224606D02*
D03*
X142126Y228937D02*
D03*
X99606Y225787D02*
D03*
X151575Y228543D02*
D03*
X157874Y226575D02*
D03*
X161024Y177362D02*
D03*
X146063Y156496D02*
D03*
X185827Y149409D02*
D03*
X120133Y248744D02*
D03*
X117771D02*
D03*
X141339Y250591D02*
D03*
X143599D02*
D03*
X102489Y275787D02*
D03*
X100189D02*
D03*
X173023D02*
D03*
X175323D02*
D03*
X98032Y86811D02*
D03*
X94882D02*
D03*
X190740Y275787D02*
D03*
X193040D02*
D03*
X214407Y984D02*
D03*
X216667D02*
D03*
X72835Y42717D02*
D03*
Y86811D02*
D03*
X75984Y42717D02*
D03*
Y86811D02*
D03*
X124142Y275886D02*
D03*
X121842D02*
D03*
X130048D02*
D03*
X127748D02*
D03*
X210531Y2264D02*
D03*
X208022Y443D02*
D03*
X173543Y1181D02*
D03*
X176969Y3543D02*
D03*
D159*
X29528Y151378D02*
D03*
Y148228D02*
D03*
X-69685Y14370D02*
D03*
X-67716Y12402D02*
D03*
X-71653D02*
D03*
Y16339D02*
D03*
X-67716D02*
D03*
X-69685Y156102D02*
D03*
X-67716Y154134D02*
D03*
X-71653D02*
D03*
Y158071D02*
D03*
X-67716D02*
D03*
X-23622Y130905D02*
D03*
X-27559D02*
D03*
Y126969D02*
D03*
X-23622D02*
D03*
X-25591Y128937D02*
D03*
X-67716Y110827D02*
D03*
X-71653D02*
D03*
Y106890D02*
D03*
X-67716D02*
D03*
X-69685Y108858D02*
D03*
X-67716Y63583D02*
D03*
X-71653D02*
D03*
Y59646D02*
D03*
X-67716D02*
D03*
X-69685Y61614D02*
D03*
D160*
X268110Y173819D02*
D03*
Y169882D02*
D03*
X267323Y146434D02*
D03*
Y149235D02*
D03*
X202362Y197441D02*
D03*
Y201378D02*
D03*
X176378Y178150D02*
D03*
X150787Y143898D02*
D03*
X27054Y25787D02*
D03*
X29954D02*
D03*
X32980D02*
D03*
X35839D02*
D03*
X38865D02*
D03*
X41765D02*
D03*
X51608D02*
D03*
X48708D02*
D03*
X54613D02*
D03*
X57513D02*
D03*
X60518D02*
D03*
X63419D02*
D03*
X119291Y155709D02*
D03*
X19685Y25394D02*
D03*
X35827Y236811D02*
D03*
X36614Y156102D02*
D03*
X18504Y158465D02*
D03*
Y154528D02*
D03*
X278543Y35361D02*
D03*
Y31961D02*
D03*
X280613Y53078D02*
D03*
X280661Y49778D02*
D03*
X278205Y58958D02*
D03*
X278469Y55658D02*
D03*
X280661Y61589D02*
D03*
X280512Y64889D02*
D03*
X278543Y67395D02*
D03*
X278543Y70866D02*
D03*
X281101Y73031D02*
D03*
X281102Y76575D02*
D03*
X79134Y228543D02*
D03*
X236024Y114764D02*
D03*
X27953Y246260D02*
D03*
Y243110D02*
D03*
X3150Y239567D02*
D03*
X37205Y243701D02*
D03*
X277953Y217717D02*
D03*
Y225591D02*
D03*
Y229528D02*
D03*
X228740Y121457D02*
D03*
X194487Y263976D02*
D03*
X191338D02*
D03*
X239764Y115945D02*
D03*
X277953Y79206D02*
D03*
Y82605D02*
D03*
X265945Y110702D02*
D03*
Y114102D02*
D03*
X103937Y161614D02*
D03*
X268110Y116607D02*
D03*
Y120007D02*
D03*
X55079Y251024D02*
D03*
X92480Y251575D02*
D03*
X143661Y260079D02*
D03*
X137756D02*
D03*
X131850D02*
D03*
X127913D02*
D03*
X122008D02*
D03*
X116102Y251575D02*
D03*
X110197D02*
D03*
X104291D02*
D03*
X98386D02*
D03*
X166535Y260433D02*
D03*
X143661Y284409D02*
D03*
X137756D02*
D03*
X131850D02*
D03*
X125945D02*
D03*
X120039D02*
D03*
X114134D02*
D03*
X110197D02*
D03*
X104291D02*
D03*
X98386D02*
D03*
X173189Y260441D02*
D03*
X177126D02*
D03*
X181063D02*
D03*
X186969D02*
D03*
X192874Y250669D02*
D03*
X198779Y260441D02*
D03*
X204685D02*
D03*
X210591D02*
D03*
X216496D02*
D03*
X222402D02*
D03*
X210591Y275000D02*
D03*
X35394Y251024D02*
D03*
X31457D02*
D03*
X62953D02*
D03*
X51142D02*
D03*
X61024Y246654D02*
D03*
X45669Y236811D02*
D03*
X45276Y243504D02*
D03*
X42126Y244291D02*
D03*
X45669Y272638D02*
D03*
X8661Y273031D02*
D03*
X160630Y149016D02*
D03*
Y152165D02*
D03*
X835Y91685D02*
D03*
X-3937Y91732D02*
D03*
X-14567Y21457D02*
D03*
X-17717D02*
D03*
X133465Y167126D02*
D03*
X5118Y220669D02*
D03*
X-787Y219882D02*
D03*
X-3937D02*
D03*
X13780Y239567D02*
D03*
X19685Y226575D02*
D03*
X16142Y260827D02*
D03*
X12618Y248992D02*
D03*
X78740Y217125D02*
D03*
X158268Y169882D02*
D03*
X186417Y222835D02*
D03*
X199803Y169095D02*
D03*
X188189Y267913D02*
D03*
X21260Y184449D02*
D03*
X28346D02*
D03*
X23228Y187598D02*
D03*
X29921D02*
D03*
X-5512Y240748D02*
D03*
X50000Y232874D02*
D03*
Y229724D02*
D03*
X66535Y235630D02*
D03*
Y226181D02*
D03*
X74016Y196653D02*
D03*
X77559Y221457D02*
D03*
X25984Y187598D02*
D03*
X32677Y187598D02*
D03*
X39370D02*
D03*
X42520D02*
D03*
X53150Y191142D02*
D03*
Y194685D02*
D03*
Y215551D02*
D03*
Y218701D02*
D03*
Y197835D02*
D03*
Y200984D02*
D03*
X176378Y210039D02*
D03*
X144882Y210039D02*
D03*
X152756D02*
D03*
X160630D02*
D03*
X168504D02*
D03*
X192126Y210039D02*
D03*
X184252Y210039D02*
D03*
X267913Y160630D02*
D03*
X250787Y79724D02*
D03*
X282283Y102165D02*
D03*
Y108465D02*
D03*
X10630Y131299D02*
D03*
Y136024D02*
D03*
Y140748D02*
D03*
X15354D02*
D03*
Y136024D02*
D03*
Y131299D02*
D03*
X-40945Y150197D02*
D03*
Y145472D02*
D03*
X-31496Y134843D02*
D03*
X-33858Y153740D02*
D03*
Y137205D02*
D03*
X-1969Y76575D02*
D03*
X394D02*
D03*
X11811Y77362D02*
D03*
Y74606D02*
D03*
X8661D02*
D03*
X5512D02*
D03*
X8661Y77362D02*
D03*
X5512D02*
D03*
X24803Y84449D02*
D03*
X21654D02*
D03*
X18504D02*
D03*
X24803Y81299D02*
D03*
X21654D02*
D03*
X18110Y77362D02*
D03*
X9252Y99016D02*
D03*
X6102D02*
D03*
X787Y95276D02*
D03*
X-41339Y13583D02*
D03*
X-38976D02*
D03*
X-27559Y14370D02*
D03*
Y11614D02*
D03*
X-30709D02*
D03*
X-33858D02*
D03*
X-30709Y14370D02*
D03*
X-33858D02*
D03*
X-20866Y21457D02*
D03*
X-14567Y18307D02*
D03*
X-17717D02*
D03*
X-21260Y14370D02*
D03*
X-30118Y36024D02*
D03*
X-33268D02*
D03*
X-38583Y32283D02*
D03*
X-38535Y28693D02*
D03*
X-43307Y28740D02*
D03*
X-41339Y45079D02*
D03*
X-38976D02*
D03*
X-27559Y45866D02*
D03*
Y43110D02*
D03*
X-30709D02*
D03*
X-33858D02*
D03*
X-30709Y45866D02*
D03*
X-33858D02*
D03*
X-14567Y52953D02*
D03*
X-17717D02*
D03*
X-20866D02*
D03*
X-14567Y49803D02*
D03*
X-17717D02*
D03*
X-21260Y45866D02*
D03*
X-30118Y67520D02*
D03*
X-33268D02*
D03*
X-38583Y63779D02*
D03*
X-38535Y60189D02*
D03*
X-43307Y60236D02*
D03*
Y91732D02*
D03*
X-38535Y91685D02*
D03*
X-38583Y95276D02*
D03*
X-33268Y99016D02*
D03*
X-30118D02*
D03*
X-21260Y77362D02*
D03*
X-17717Y81299D02*
D03*
X-14567D02*
D03*
X-20866Y84449D02*
D03*
X-17717D02*
D03*
X-14567D02*
D03*
X280118Y169882D02*
D03*
X44881Y25787D02*
D03*
X67716Y8071D02*
D03*
X46850D02*
D03*
X56299D02*
D03*
X51575D02*
D03*
X42126D02*
D03*
X31102D02*
D03*
X26378D02*
D03*
X21654D02*
D03*
X16929D02*
D03*
X1969D02*
D03*
X6693D02*
D03*
X5236Y20157D02*
D03*
X9803Y15197D02*
D03*
X11811Y13189D02*
D03*
X13740Y15197D02*
D03*
X15709Y24567D02*
D03*
X35433Y34449D02*
D03*
X30709Y47047D02*
D03*
X25984D02*
D03*
X30709Y42323D02*
D03*
X25984D02*
D03*
X30709Y34449D02*
D03*
X25984D02*
D03*
X-8661Y34843D02*
D03*
X-5118D02*
D03*
X-1181Y34449D02*
D03*
X-8661Y41929D02*
D03*
X-5118D02*
D03*
X-1181D02*
D03*
X-1083Y31398D02*
D03*
X-1181Y27756D02*
D03*
X174409Y8071D02*
D03*
X145669D02*
D03*
X135039D02*
D03*
X130315D02*
D03*
X125591D02*
D03*
X120866D02*
D03*
X95669D02*
D03*
X100394D02*
D03*
X109843D02*
D03*
X105118D02*
D03*
X90512Y15197D02*
D03*
X102323D02*
D03*
X108228D02*
D03*
X114134D02*
D03*
X120039D02*
D03*
X125945D02*
D03*
X131850D02*
D03*
X137756D02*
D03*
X143701Y15157D02*
D03*
X222402Y15197D02*
D03*
X216496D02*
D03*
X177126D02*
D03*
X151181Y8071D02*
D03*
X200748Y15197D02*
D03*
X243701Y29331D02*
D03*
X285039Y63976D02*
D03*
X233071Y29331D02*
D03*
X228346D02*
D03*
X226972Y61421D02*
D03*
X250004Y61224D02*
D03*
X239768D02*
D03*
X216142Y47835D02*
D03*
X221654Y46654D02*
D03*
X211811Y41535D02*
D03*
Y38386D02*
D03*
X250004Y46256D02*
D03*
X235433Y37205D02*
D03*
X239768Y37996D02*
D03*
X237402Y46260D02*
D03*
X278346Y85827D02*
D03*
X252362Y116732D02*
D03*
X302165Y30709D02*
D03*
X291929Y32677D02*
D03*
X302165Y34646D02*
D03*
X291929Y36614D02*
D03*
X302165Y38583D02*
D03*
X291929Y40551D02*
D03*
X302165Y42520D02*
D03*
X291929Y44488D02*
D03*
X302165Y46457D02*
D03*
X291929Y48425D02*
D03*
X302165Y50394D02*
D03*
X291929Y52362D02*
D03*
X302165Y54331D02*
D03*
Y58268D02*
D03*
X291929Y56299D02*
D03*
Y60236D02*
D03*
X302165Y62205D02*
D03*
X291929Y64173D02*
D03*
X302165Y66142D02*
D03*
X291929Y68110D02*
D03*
X302165Y70079D02*
D03*
X268307Y30709D02*
D03*
Y36614D02*
D03*
Y42520D02*
D03*
Y48425D02*
D03*
Y54331D02*
D03*
Y60236D02*
D03*
Y66142D02*
D03*
Y72047D02*
D03*
Y77953D02*
D03*
Y85827D02*
D03*
X267913Y156693D02*
D03*
X235433Y219488D02*
D03*
Y210827D02*
D03*
X221161Y225492D02*
D03*
X221161Y230610D02*
D03*
X44488Y39567D02*
D03*
X47638D02*
D03*
Y42717D02*
D03*
X44488D02*
D03*
Y55315D02*
D03*
X47638D02*
D03*
Y58465D02*
D03*
X44488D02*
D03*
Y83661D02*
D03*
X47638D02*
D03*
Y86811D02*
D03*
X44488D02*
D03*
Y99410D02*
D03*
X47638D02*
D03*
Y102559D02*
D03*
X44488D02*
D03*
X285039Y23425D02*
D03*
Y26575D02*
D03*
Y29724D02*
D03*
Y38780D02*
D03*
Y41929D02*
D03*
Y45079D02*
D03*
Y51378D02*
D03*
Y54528D02*
D03*
Y67126D02*
D03*
Y70276D02*
D03*
Y73425D02*
D03*
Y76575D02*
D03*
Y79724D02*
D03*
Y88779D02*
D03*
X302165Y75984D02*
D03*
Y79921D02*
D03*
Y83858D02*
D03*
Y87795D02*
D03*
Y109449D02*
D03*
Y113386D02*
D03*
Y117323D02*
D03*
Y121260D02*
D03*
Y125197D02*
D03*
Y129134D02*
D03*
Y133071D02*
D03*
Y137008D02*
D03*
Y140945D02*
D03*
Y144882D02*
D03*
Y148819D02*
D03*
Y152756D02*
D03*
Y156693D02*
D03*
Y160630D02*
D03*
X224803Y280118D02*
D03*
X216496Y284803D02*
D03*
X202716Y284803D02*
D03*
X204685Y273858D02*
D03*
X200748D02*
D03*
X194843D02*
D03*
X188937D02*
D03*
X183031D02*
D03*
X177126Y273858D02*
D03*
X171221Y273858D02*
D03*
X165315D02*
D03*
X249606Y263976D02*
D03*
Y267126D02*
D03*
X252756D02*
D03*
X246457Y263976D02*
D03*
X269685Y272441D02*
D03*
Y278740D02*
D03*
X263386Y230906D02*
D03*
X245276Y254921D02*
D03*
Y251772D02*
D03*
Y245472D02*
D03*
X242126D02*
D03*
Y242323D02*
D03*
X263386Y278740D02*
D03*
X224803Y267913D02*
D03*
X210630D02*
D03*
X205906D02*
D03*
X200000D02*
D03*
X182677D02*
D03*
X176772D02*
D03*
X158661D02*
D03*
X150394D02*
D03*
X146063D02*
D03*
X26772D02*
D03*
X30315D02*
D03*
X43307D02*
D03*
X55118D02*
D03*
X135433D02*
D03*
X125591D02*
D03*
X109449D02*
D03*
X102756D02*
D03*
X98819D02*
D03*
X94882D02*
D03*
X69685D02*
D03*
X73228D02*
D03*
X78740D02*
D03*
X82677Y264764D02*
D03*
X87008D02*
D03*
X96063Y272244D02*
D03*
X90551Y271063D02*
D03*
X94449Y284409D02*
D03*
X90512D02*
D03*
X87402Y275000D02*
D03*
X86614Y284448D02*
D03*
X190748Y231496D02*
D03*
X208110Y231142D02*
D03*
X208071Y241339D02*
D03*
X172835Y213976D02*
D03*
X185433Y213976D02*
D03*
X184252Y178150D02*
D03*
X192126D02*
D03*
X184252Y174213D02*
D03*
X192126Y175000D02*
D03*
X137402Y176181D02*
D03*
X157873Y237598D02*
D03*
X169095Y222835D02*
D03*
X157874Y232874D02*
D03*
X153937Y237598D02*
D03*
X142323Y213386D02*
D03*
Y220866D02*
D03*
X59764Y267992D02*
D03*
X155610Y133563D02*
D03*
X155512Y143504D02*
D03*
X161811Y144291D02*
D03*
X168504D02*
D03*
Y141142D02*
D03*
Y137992D02*
D03*
X7835Y260776D02*
D03*
X224799Y175390D02*
D03*
X222835Y178543D02*
D03*
X226772Y143504D02*
D03*
X220472Y172638D02*
D03*
X-35661Y120504D02*
D03*
X-5512Y120276D02*
D03*
X-9055D02*
D03*
X-5512Y117126D02*
D03*
X-21260Y117520D02*
D03*
Y115157D02*
D03*
Y112795D02*
D03*
X-9055Y117126D02*
D03*
Y113976D02*
D03*
X-5512D02*
D03*
X-14567Y126181D02*
D03*
X-31496Y123425D02*
D03*
X-5512Y123819D02*
D03*
X-9055D02*
D03*
X-60630Y103740D02*
D03*
X-82677Y97047D02*
D03*
X-75590Y102953D02*
D03*
X-63834Y102952D02*
D03*
X-85433Y122244D02*
D03*
X-51181Y93110D02*
D03*
X-47638D02*
D03*
Y96260D02*
D03*
X-51181D02*
D03*
Y99410D02*
D03*
X-47638D02*
D03*
Y102953D02*
D03*
X-51181D02*
D03*
X-63779Y95079D02*
D03*
Y92716D02*
D03*
Y97441D02*
D03*
X-80709Y131299D02*
D03*
X5512Y152953D02*
D03*
X22441Y143504D02*
D03*
X19291D02*
D03*
X-80709Y178543D02*
D03*
X-63779Y144685D02*
D03*
Y139961D02*
D03*
Y142323D02*
D03*
X-51181Y150197D02*
D03*
X-47638D02*
D03*
Y146653D02*
D03*
X-51181D02*
D03*
Y143504D02*
D03*
X-47638D02*
D03*
Y140354D02*
D03*
X-51181D02*
D03*
X-85433Y169488D02*
D03*
X-63834Y150196D02*
D03*
X-75590Y150197D02*
D03*
X-82677Y144291D02*
D03*
X-60630Y150984D02*
D03*
X-80709Y36811D02*
D03*
X-63779Y2953D02*
D03*
Y-1772D02*
D03*
Y591D02*
D03*
X-51181Y8465D02*
D03*
X-47638D02*
D03*
Y4921D02*
D03*
X-51181D02*
D03*
Y1772D02*
D03*
X-47638D02*
D03*
Y-1378D02*
D03*
X-51181D02*
D03*
X-85433Y27756D02*
D03*
X-63834Y8464D02*
D03*
X-75590Y8465D02*
D03*
X-82677Y2559D02*
D03*
X-60630Y9252D02*
D03*
X-80709Y84055D02*
D03*
X-63779Y50197D02*
D03*
Y45472D02*
D03*
Y47835D02*
D03*
X-51181Y55709D02*
D03*
X-47638D02*
D03*
Y52165D02*
D03*
X-51181D02*
D03*
Y49016D02*
D03*
X-47638D02*
D03*
Y45866D02*
D03*
X-51181D02*
D03*
X-85433Y75000D02*
D03*
X-63834Y55708D02*
D03*
X-75590Y55709D02*
D03*
X-82677Y49803D02*
D03*
X-60630Y56496D02*
D03*
X63071Y267992D02*
D03*
X78347Y278543D02*
D03*
X59449Y275394D02*
D03*
X62850Y262937D02*
D03*
X57480Y272638D02*
D03*
X47638Y275394D02*
D03*
X33858Y273031D02*
D03*
X28882Y271598D02*
D03*
X11024Y275394D02*
D03*
X15709Y284409D02*
D03*
X19646D02*
D03*
X23583D02*
D03*
X21614Y275433D02*
D03*
X17677D02*
D03*
X25551D02*
D03*
X27520Y284409D02*
D03*
X31457D02*
D03*
X35433Y284842D02*
D03*
X37362Y275039D02*
D03*
X39331Y284409D02*
D03*
X40157Y275000D02*
D03*
X43307Y284449D02*
D03*
X48031Y284842D02*
D03*
X51142Y284409D02*
D03*
X51968Y275000D02*
D03*
X55079Y284409D02*
D03*
X72047Y275394D02*
D03*
X62953Y284803D02*
D03*
X64921Y275039D02*
D03*
X39228Y262937D02*
D03*
X50787Y262795D02*
D03*
X57480Y248228D02*
D03*
X48878Y267972D02*
D03*
X37874Y267992D02*
D03*
X35039Y267913D02*
D03*
X9803Y251024D02*
D03*
X15709D02*
D03*
X19646D02*
D03*
X-3071Y267992D02*
D03*
X3091Y273366D02*
D03*
X-0Y273424D02*
D03*
X11811Y284449D02*
D03*
X24016Y263189D02*
D03*
X19291Y263976D02*
D03*
X23622Y250984D02*
D03*
X27520Y251024D02*
D03*
X39370Y250984D02*
D03*
X43307D02*
D03*
X47205Y251024D02*
D03*
X49213Y246654D02*
D03*
X53150D02*
D03*
X59016Y251024D02*
D03*
X-33858Y77362D02*
D03*
X-30709D02*
D03*
X-33858Y74606D02*
D03*
X-30709D02*
D03*
X-27559D02*
D03*
Y77362D02*
D03*
X-38976Y76575D02*
D03*
X-41339D02*
D03*
X29488Y-9213D02*
D03*
X25591Y-9252D02*
D03*
X21614Y-9213D02*
D03*
X17677D02*
D03*
X13740D02*
D03*
X11772Y945D02*
D03*
X9843Y-9252D02*
D03*
X7835Y945D02*
D03*
X15709D02*
D03*
X19646D02*
D03*
X23583D02*
D03*
X27520D02*
D03*
X41339Y248622D02*
D03*
X-3150Y264370D02*
D03*
X167717Y169882D02*
D03*
X184252Y169882D02*
D03*
X211768Y177910D02*
D03*
X217717Y149803D02*
D03*
X211811Y155512D02*
D03*
X209268Y166520D02*
D03*
X212205Y166535D02*
D03*
X207087Y147835D02*
D03*
X206299Y141929D02*
D03*
X202362D02*
D03*
X215158Y139961D02*
D03*
X221260D02*
D03*
X218307Y145866D02*
D03*
X228937Y191339D02*
D03*
X216535Y205315D02*
D03*
Y211614D02*
D03*
X227165Y246654D02*
D03*
X221653Y239960D02*
D03*
X220866Y246654D02*
D03*
X229134Y267913D02*
D03*
X292913Y166535D02*
D03*
X302165Y164567D02*
D03*
X280807Y165256D02*
D03*
X285039Y253740D02*
D03*
Y246654D02*
D03*
Y250197D02*
D03*
Y232087D02*
D03*
Y211221D02*
D03*
Y186417D02*
D03*
Y183268D02*
D03*
Y180118D02*
D03*
X301969Y245276D02*
D03*
X292520Y243307D02*
D03*
X301969Y241339D02*
D03*
X292520Y239370D02*
D03*
X301969Y237402D02*
D03*
X292520Y235433D02*
D03*
X301969Y233465D02*
D03*
X292520Y231496D02*
D03*
X301969Y229528D02*
D03*
X292520Y227559D02*
D03*
X301969Y225591D02*
D03*
X278150Y203937D02*
D03*
Y200000D02*
D03*
X267913Y164567D02*
D03*
X253740Y112795D02*
D03*
X265551Y166535D02*
D03*
X277756Y154724D02*
D03*
X267913Y152756D02*
D03*
X277756Y150787D02*
D03*
Y144882D02*
D03*
X277953Y138976D02*
D03*
Y133071D02*
D03*
Y127165D02*
D03*
Y121260D02*
D03*
Y115354D02*
D03*
Y109449D02*
D03*
X278150Y192126D02*
D03*
Y188189D02*
D03*
X280315Y190157D02*
D03*
Y201969D02*
D03*
X267717Y194095D02*
D03*
X265748Y196063D02*
D03*
Y205906D02*
D03*
Y209842D02*
D03*
X267717Y207874D02*
D03*
Y211811D02*
D03*
Y215748D02*
D03*
Y219685D02*
D03*
X277953Y221654D02*
D03*
X267717Y223622D02*
D03*
Y227559D02*
D03*
Y231496D02*
D03*
Y235433D02*
D03*
X265748Y237402D02*
D03*
X267717Y239370D02*
D03*
X265748Y241339D02*
D03*
X267717Y243307D02*
D03*
X265748Y245276D02*
D03*
X292520Y219685D02*
D03*
X301969Y221654D02*
D03*
Y217717D02*
D03*
X292520Y223622D02*
D03*
Y215748D02*
D03*
X301969Y213779D02*
D03*
X292520Y211811D02*
D03*
X301969Y209842D02*
D03*
X292520Y207874D02*
D03*
X301969Y205906D02*
D03*
X292520Y203937D02*
D03*
X301969Y201969D02*
D03*
Y198031D02*
D03*
X292520Y196063D02*
D03*
Y192126D02*
D03*
X301969Y190157D02*
D03*
X292520Y188189D02*
D03*
X265748Y233465D02*
D03*
X248424Y28937D02*
D03*
X232090Y51177D02*
D03*
X229532Y53350D02*
D03*
X234646Y54134D02*
D03*
X237402Y50984D02*
D03*
X227165Y81299D02*
D03*
X241338Y80118D02*
D03*
X239370Y48622D02*
D03*
X285038Y48622D02*
D03*
X292989Y81890D02*
D03*
Y85827D02*
D03*
X211811Y44685D02*
D03*
X165315Y15197D02*
D03*
X171221D02*
D03*
X183031D02*
D03*
X188937D02*
D03*
X194843D02*
D03*
X205117Y15157D02*
D03*
X210591Y15197D02*
D03*
X224016Y8071D02*
D03*
X229921D02*
D03*
X163779D02*
D03*
X157480D02*
D03*
X84646D02*
D03*
X35394Y-9213D02*
D03*
X41299D02*
D03*
X47205D02*
D03*
X53110D02*
D03*
X59016D02*
D03*
X64921D02*
D03*
X90512D02*
D03*
X88543Y551D02*
D03*
X86575Y-9213D02*
D03*
X96417D02*
D03*
X102323D02*
D03*
X108228D02*
D03*
X114134D02*
D03*
X120039D02*
D03*
X125945D02*
D03*
X131850D02*
D03*
X143661D02*
D03*
X137756D02*
D03*
X165315D02*
D03*
X171221D02*
D03*
X177126D02*
D03*
X183031D02*
D03*
X188937D02*
D03*
X194843D02*
D03*
X200748D02*
D03*
X206653D02*
D03*
X212559D02*
D03*
X218465D02*
D03*
X222402D02*
D03*
X79528Y8071D02*
D03*
X72441D02*
D03*
X88543Y25354D02*
D03*
X83346Y20157D02*
D03*
X178347Y34055D02*
D03*
Y37205D02*
D03*
X201969D02*
D03*
Y34055D02*
D03*
X179134Y8071D02*
D03*
X183858D02*
D03*
X188583D02*
D03*
X199606D02*
D03*
X204331D02*
D03*
X209055D02*
D03*
X213779D02*
D03*
X96417Y15197D02*
D03*
X64921D02*
D03*
X59016D02*
D03*
X53110D02*
D03*
X47205D02*
D03*
X43268D02*
D03*
X37362D02*
D03*
X31496Y15157D02*
D03*
X25551Y15197D02*
D03*
X21614D02*
D03*
X17677D02*
D03*
X25984Y30512D02*
D03*
X12992Y27756D02*
D03*
X16142Y27756D02*
D03*
X20866Y31299D02*
D03*
X20374Y46949D02*
D03*
X-2476Y51492D02*
D03*
X25961Y50614D02*
D03*
X16929Y54134D02*
D03*
X7874Y53740D02*
D03*
X10630Y50984D02*
D03*
X13780D02*
D03*
X1575Y43898D02*
D03*
X9843Y25787D02*
D03*
X193701Y37205D02*
D03*
Y34055D02*
D03*
X186221D02*
D03*
Y37205D02*
D03*
X293306Y78149D02*
D03*
X272953Y90669D02*
D03*
X285039Y92126D02*
D03*
Y206496D02*
D03*
Y201772D02*
D03*
Y197047D02*
D03*
Y222638D02*
D03*
Y227362D02*
D03*
Y236811D02*
D03*
X277953Y213779D02*
D03*
X263386Y265945D02*
D03*
X269685D02*
D03*
X287795D02*
D03*
Y272244D02*
D03*
Y278937D02*
D03*
X282677D02*
D03*
X276378D02*
D03*
Y272244D02*
D03*
X282677D02*
D03*
Y265945D02*
D03*
X276378D02*
D03*
X263386Y216732D02*
D03*
Y224213D02*
D03*
X257087Y216732D02*
D03*
Y224213D02*
D03*
Y230906D02*
D03*
Y237205D02*
D03*
X250787D02*
D03*
X244488D02*
D03*
Y230906D02*
D03*
X250787D02*
D03*
Y224213D02*
D03*
Y216732D02*
D03*
X244488D02*
D03*
Y224213D02*
D03*
X245276Y248622D02*
D03*
X257087Y243504D02*
D03*
X238189Y224213D02*
D03*
X259055Y267126D02*
D03*
X255906D02*
D03*
X294094Y265945D02*
D03*
Y272244D02*
D03*
Y278937D02*
D03*
X124409Y150197D02*
D03*
X268110Y143504D02*
D03*
Y140157D02*
D03*
Y128347D02*
D03*
Y131890D02*
D03*
X278543Y43772D02*
D03*
Y47172D02*
D03*
X-47244Y20669D02*
D03*
Y23819D02*
D03*
Y26969D02*
D03*
Y36417D02*
D03*
X-50394D02*
D03*
X-53543D02*
D03*
X-47244Y33268D02*
D03*
Y80512D02*
D03*
X-53543Y83661D02*
D03*
X-50394D02*
D03*
X-47244D02*
D03*
Y74213D02*
D03*
Y71063D02*
D03*
Y67913D02*
D03*
Y128150D02*
D03*
X-53543Y131299D02*
D03*
X-50394D02*
D03*
X-47244D02*
D03*
Y121850D02*
D03*
Y118701D02*
D03*
Y115551D02*
D03*
Y175394D02*
D03*
X-53543Y178543D02*
D03*
X-50394D02*
D03*
X-47244D02*
D03*
Y169095D02*
D03*
Y165945D02*
D03*
Y162795D02*
D03*
X202756Y169095D02*
D03*
X94882Y167126D02*
D03*
X87795Y148228D02*
D03*
X88976Y167126D02*
D03*
X81890D02*
D03*
X87795Y156102D02*
D03*
Y152165D02*
D03*
X68898Y156102D02*
D03*
Y152165D02*
D03*
Y148228D02*
D03*
X45669Y164764D02*
D03*
Y171063D02*
D03*
Y177362D02*
D03*
X39370Y164764D02*
D03*
Y177362D02*
D03*
X18012Y164075D02*
D03*
X7185Y166634D02*
D03*
X18012Y169193D02*
D03*
X7185Y171752D02*
D03*
X53150Y208858D02*
D03*
Y205709D02*
D03*
X39764Y184449D02*
D03*
X37008Y182480D02*
D03*
X9055Y195079D02*
D03*
X13780Y213976D02*
D03*
X6693D02*
D03*
X9843Y223425D02*
D03*
Y219882D02*
D03*
X33858Y182480D02*
D03*
Y178543D02*
D03*
X39370Y171063D02*
D03*
X35039D02*
D03*
Y167913D02*
D03*
X29528Y175394D02*
D03*
X32677D02*
D03*
X35827Y176181D02*
D03*
X46063Y181693D02*
D03*
X7480Y183268D02*
D03*
X10630D02*
D03*
X7480Y191142D02*
D03*
X10630D02*
D03*
X1575Y190354D02*
D03*
Y184055D02*
D03*
X66535Y221457D02*
D03*
Y217126D02*
D03*
Y212795D02*
D03*
X66535Y208465D02*
D03*
X66535Y204134D02*
D03*
X66535Y199803D02*
D03*
X101969Y167126D02*
D03*
X121260Y150197D02*
D03*
X11811Y260728D02*
D03*
X19291Y260827D02*
D03*
X28346Y263189D02*
D03*
X40693Y271598D02*
D03*
X1969Y236024D02*
D03*
Y245079D02*
D03*
X9055Y198622D02*
D03*
X6693Y204134D02*
D03*
X13976Y204331D02*
D03*
X18504Y187598D02*
D03*
X15354D02*
D03*
X5118Y226969D02*
D03*
X-787Y227756D02*
D03*
X131890Y267913D02*
D03*
X162992D02*
D03*
X87402Y250591D02*
D03*
X173425Y235630D02*
D03*
X301969Y194095D02*
D03*
X267717Y198031D02*
D03*
X292520Y200000D02*
D03*
X185433Y217913D02*
D03*
X96063Y262795D02*
D03*
X115748D02*
D03*
X171260Y132480D02*
D03*
X64567Y248228D02*
D03*
X71653D02*
D03*
X163779Y135630D02*
D03*
X-33858Y4134D02*
D03*
X-28346Y6496D02*
D03*
X-25591D02*
D03*
X-22835Y-3740D02*
D03*
X-33858Y-1378D02*
D03*
Y1378D02*
D03*
X-25591Y-3740D02*
D03*
X-31102Y6496D02*
D03*
X-22835D02*
D03*
X-28346Y-3740D02*
D03*
X-31102D02*
D03*
X-7480D02*
D03*
X-10236D02*
D03*
X-15748Y6496D02*
D03*
X-7480D02*
D03*
X-12992Y-3740D02*
D03*
X-15748D02*
D03*
X-12992Y6496D02*
D03*
X-10236D02*
D03*
X-4724Y4134D02*
D03*
X-19783Y123130D02*
D03*
X-18504Y108071D02*
D03*
X-75492Y114665D02*
D03*
X-75590Y162008D02*
D03*
X-75492Y20177D02*
D03*
X-75492Y67421D02*
D03*
X7835Y284409D02*
D03*
X28346Y275000D02*
D03*
X-31102Y193110D02*
D03*
X-25591D02*
D03*
X-87795Y225787D02*
D03*
X-86221Y221063D02*
D03*
X-3937Y227756D02*
D03*
X253543Y8465D02*
D03*
X275984Y-2165D02*
D03*
X252953Y-5906D02*
D03*
X280512Y37867D02*
D03*
X280708Y41535D02*
D03*
X262598Y125913D02*
D03*
Y122513D02*
D03*
X90551Y275000D02*
D03*
X131890Y173425D02*
D03*
X262598Y137724D02*
D03*
Y134324D02*
D03*
X55512Y230906D02*
D03*
X53937Y226181D02*
D03*
X45669Y225787D02*
D03*
X22835Y226575D02*
D03*
X27559Y226969D02*
D03*
X28740Y232874D02*
D03*
X36220Y226968D02*
D03*
X30708D02*
D03*
X32677Y232874D02*
D03*
X39763Y230511D02*
D03*
Y226574D02*
D03*
X52362Y131693D02*
D03*
X56693D02*
D03*
X61024D02*
D03*
X65354D02*
D03*
X69685D02*
D03*
X74016D02*
D03*
X78347D02*
D03*
X82677D02*
D03*
X87008D02*
D03*
X91339D02*
D03*
X95669D02*
D03*
X100000D02*
D03*
X103543D02*
D03*
X44488D02*
D03*
X48425D02*
D03*
X44488Y147047D02*
D03*
X48425D02*
D03*
X52362D02*
D03*
Y144291D02*
D03*
X48425D02*
D03*
X44488D02*
D03*
Y149803D02*
D03*
X48425D02*
D03*
X52362D02*
D03*
X33858Y136024D02*
D03*
X212597Y188778D02*
D03*
X212598Y197441D02*
D03*
X70866Y167520D02*
D03*
X90158Y237992D02*
D03*
X253543Y99803D02*
D03*
Y96653D02*
D03*
X-20472Y181299D02*
D03*
X-83465Y200591D02*
D03*
X-82677Y195866D02*
D03*
X-70079D02*
D03*
X276378Y285236D02*
D03*
X238189Y230906D02*
D03*
X-48425Y202953D02*
D03*
X-50516Y205044D02*
D03*
D238*
X92480Y20157D02*
D03*
X94449D02*
D03*
X98386D02*
D03*
X100354D02*
D03*
X104291D02*
D03*
X106260D02*
D03*
X110197D02*
D03*
X112165D02*
D03*
X127913D02*
D03*
X129882D02*
D03*
X122008D02*
D03*
X123976D02*
D03*
X116102D02*
D03*
X118071D02*
D03*
X133819D02*
D03*
X135787D02*
D03*
X173189D02*
D03*
X175157D02*
D03*
X179095D02*
D03*
X181063D02*
D03*
X185000D02*
D03*
X186969D02*
D03*
X190905D02*
D03*
X192874D02*
D03*
X196811D02*
D03*
X198779D02*
D03*
X206653D02*
D03*
X208622D02*
D03*
X212559D02*
D03*
X214528D02*
D03*
X60984D02*
D03*
X62953D02*
D03*
X55079D02*
D03*
X57047D02*
D03*
X49173D02*
D03*
X51142D02*
D03*
X39331D02*
D03*
X41299D02*
D03*
X27520D02*
D03*
X29488D02*
D03*
X7835Y-4173D02*
D03*
Y20157D02*
D03*
X9803Y-4173D02*
D03*
Y20157D02*
D03*
X11772Y-4173D02*
D03*
Y20157D02*
D03*
X13740Y-4173D02*
D03*
Y20157D02*
D03*
X15709Y-4173D02*
D03*
Y20157D02*
D03*
X17677Y-4173D02*
D03*
Y20157D02*
D03*
X19646Y-4173D02*
D03*
Y20157D02*
D03*
X21614Y-4173D02*
D03*
Y20157D02*
D03*
X23583Y-4173D02*
D03*
Y20157D02*
D03*
X25551Y-4173D02*
D03*
Y20157D02*
D03*
X27520Y-4173D02*
D03*
X29488D02*
D03*
X31457D02*
D03*
Y20157D02*
D03*
X33425Y-4173D02*
D03*
X35394D02*
D03*
X37362D02*
D03*
Y20157D02*
D03*
X39331Y-4173D02*
D03*
X41299D02*
D03*
X43268D02*
D03*
Y20157D02*
D03*
X45236Y-4173D02*
D03*
Y20157D02*
D03*
X47205Y-4173D02*
D03*
Y20157D02*
D03*
X49173Y-4173D02*
D03*
X51142D02*
D03*
X53110D02*
D03*
Y20157D02*
D03*
X55079Y-4173D02*
D03*
X57047D02*
D03*
X59016D02*
D03*
Y20157D02*
D03*
X60984Y-4173D02*
D03*
X62953D02*
D03*
X64921D02*
D03*
Y20157D02*
D03*
X86575Y-4173D02*
D03*
Y20157D02*
D03*
X88543Y-4173D02*
D03*
Y20157D02*
D03*
X90512Y-4173D02*
D03*
Y20157D02*
D03*
X92480Y-4173D02*
D03*
X94449D02*
D03*
X96417D02*
D03*
Y20157D02*
D03*
X98386Y-4173D02*
D03*
X100354D02*
D03*
X102323D02*
D03*
Y20157D02*
D03*
X104291Y-4173D02*
D03*
X106260D02*
D03*
X108228D02*
D03*
Y20157D02*
D03*
X110197Y-4173D02*
D03*
X112165D02*
D03*
X114134D02*
D03*
Y20157D02*
D03*
X116102Y-4173D02*
D03*
X118071D02*
D03*
X120039D02*
D03*
Y20157D02*
D03*
X122008Y-4173D02*
D03*
X123976D02*
D03*
X125945D02*
D03*
Y20157D02*
D03*
X127913Y-4173D02*
D03*
X129882D02*
D03*
X131850D02*
D03*
Y20157D02*
D03*
X133819Y-4173D02*
D03*
X135787D02*
D03*
X137756D02*
D03*
Y20157D02*
D03*
X139724Y-4173D02*
D03*
Y20157D02*
D03*
X141693Y-4173D02*
D03*
Y20157D02*
D03*
X143661Y-4173D02*
D03*
Y20157D02*
D03*
X165315Y-4173D02*
D03*
Y20157D02*
D03*
X167283Y-4173D02*
D03*
Y20157D02*
D03*
X169252Y-4173D02*
D03*
Y20157D02*
D03*
X171221Y-4173D02*
D03*
Y20157D02*
D03*
X173189Y-4173D02*
D03*
X175157D02*
D03*
X177126D02*
D03*
Y20157D02*
D03*
X179095Y-4173D02*
D03*
X181063D02*
D03*
X183031D02*
D03*
Y20157D02*
D03*
X185000Y-4173D02*
D03*
X186969D02*
D03*
X188937D02*
D03*
Y20157D02*
D03*
X190905Y-4173D02*
D03*
X192874D02*
D03*
X194843D02*
D03*
Y20157D02*
D03*
X196811Y-4173D02*
D03*
X198779D02*
D03*
X200748D02*
D03*
Y20157D02*
D03*
X202716Y-4173D02*
D03*
Y20157D02*
D03*
X204685Y-4173D02*
D03*
Y20157D02*
D03*
X206653Y-4173D02*
D03*
X208622D02*
D03*
X210591D02*
D03*
Y20157D02*
D03*
X212559Y-4173D02*
D03*
X216496Y20157D02*
D03*
X218465Y-4173D02*
D03*
X220433D02*
D03*
X222402D02*
D03*
Y20157D02*
D03*
X220433D02*
D03*
X218465D02*
D03*
X35394D02*
D03*
X33425D02*
D03*
X214528Y-4173D02*
D03*
X216496D02*
D03*
X175157Y255827D02*
D03*
X169252D02*
D03*
X171221D02*
D03*
X179095D02*
D03*
X194843D02*
D03*
X196811D02*
D03*
X206653D02*
D03*
X208622D02*
D03*
X212559D02*
D03*
X214528D02*
D03*
X218465D02*
D03*
X220433D02*
D03*
X206653Y280157D02*
D03*
X208622D02*
D03*
X212559D02*
D03*
X214528D02*
D03*
X222402D02*
D03*
Y255827D02*
D03*
X220433Y280157D02*
D03*
X218465D02*
D03*
X216496D02*
D03*
Y255827D02*
D03*
X210591Y280157D02*
D03*
Y255827D02*
D03*
X204685Y280157D02*
D03*
Y255827D02*
D03*
X202716Y280157D02*
D03*
Y255827D02*
D03*
X200748Y280157D02*
D03*
Y255827D02*
D03*
X198779Y280157D02*
D03*
Y255827D02*
D03*
X196811Y280157D02*
D03*
X194843D02*
D03*
X192874D02*
D03*
Y255827D02*
D03*
X190905Y280157D02*
D03*
Y255827D02*
D03*
X188937Y280157D02*
D03*
Y255827D02*
D03*
X186969Y280157D02*
D03*
Y255827D02*
D03*
X185000Y280157D02*
D03*
Y255827D02*
D03*
X183031Y280157D02*
D03*
Y255827D02*
D03*
X181063Y280157D02*
D03*
Y255827D02*
D03*
X179095Y280157D02*
D03*
X177126D02*
D03*
Y255827D02*
D03*
X175157Y280157D02*
D03*
X173189D02*
D03*
Y255827D02*
D03*
X171221Y280157D02*
D03*
X169252D02*
D03*
X167283D02*
D03*
Y255827D02*
D03*
X165315Y280157D02*
D03*
Y255827D02*
D03*
X143661Y280157D02*
D03*
Y255827D02*
D03*
X141693Y280157D02*
D03*
X139724D02*
D03*
X137756D02*
D03*
Y255827D02*
D03*
X135787Y280157D02*
D03*
Y255827D02*
D03*
X133819Y280157D02*
D03*
Y255827D02*
D03*
X131850Y280157D02*
D03*
Y255827D02*
D03*
X129882Y280157D02*
D03*
Y255827D02*
D03*
X127913Y280157D02*
D03*
Y255827D02*
D03*
X125945Y280157D02*
D03*
Y255827D02*
D03*
X123976Y280157D02*
D03*
Y255827D02*
D03*
X122008Y280157D02*
D03*
Y255827D02*
D03*
X120039Y280157D02*
D03*
Y255827D02*
D03*
X118071Y280157D02*
D03*
Y255827D02*
D03*
X116102Y280157D02*
D03*
Y255827D02*
D03*
X114134Y280157D02*
D03*
Y255827D02*
D03*
X112165Y280157D02*
D03*
Y255827D02*
D03*
X110197Y280157D02*
D03*
Y255827D02*
D03*
X108228Y280157D02*
D03*
Y255827D02*
D03*
X106260Y280157D02*
D03*
Y255827D02*
D03*
X104291Y280157D02*
D03*
Y255827D02*
D03*
X102323Y280157D02*
D03*
Y255827D02*
D03*
X100354Y280157D02*
D03*
Y255827D02*
D03*
X98386Y280157D02*
D03*
Y255827D02*
D03*
X96417Y280157D02*
D03*
Y255827D02*
D03*
X94449Y280157D02*
D03*
Y255827D02*
D03*
X92480Y280157D02*
D03*
Y255827D02*
D03*
X90512Y280157D02*
D03*
Y255827D02*
D03*
X88543Y280157D02*
D03*
Y255827D02*
D03*
X86575Y280157D02*
D03*
Y255827D02*
D03*
X64921Y280157D02*
D03*
Y255827D02*
D03*
X62953Y280157D02*
D03*
Y255827D02*
D03*
X60984Y280157D02*
D03*
Y255827D02*
D03*
X59016Y280157D02*
D03*
Y255827D02*
D03*
X57047Y280157D02*
D03*
Y255827D02*
D03*
X55079Y280157D02*
D03*
Y255827D02*
D03*
X53110Y280157D02*
D03*
Y255827D02*
D03*
X51142Y280157D02*
D03*
Y255827D02*
D03*
X49173Y280157D02*
D03*
Y255827D02*
D03*
X47205Y280157D02*
D03*
Y255827D02*
D03*
X45236Y280157D02*
D03*
Y255827D02*
D03*
X43268Y280157D02*
D03*
Y255827D02*
D03*
X41299Y280157D02*
D03*
Y255827D02*
D03*
X39331Y280157D02*
D03*
Y255827D02*
D03*
X37362Y280157D02*
D03*
Y255827D02*
D03*
X35394Y280157D02*
D03*
Y255827D02*
D03*
X33425Y280157D02*
D03*
Y255827D02*
D03*
X31457Y280157D02*
D03*
Y255827D02*
D03*
X29488Y280157D02*
D03*
Y255827D02*
D03*
X27520Y280157D02*
D03*
Y255827D02*
D03*
X25551Y280157D02*
D03*
Y255827D02*
D03*
X23583Y280157D02*
D03*
Y255827D02*
D03*
X21614Y280157D02*
D03*
Y255827D02*
D03*
X19646Y280157D02*
D03*
Y255827D02*
D03*
X17677Y280157D02*
D03*
Y255827D02*
D03*
X15709Y280157D02*
D03*
Y255827D02*
D03*
X13740Y280157D02*
D03*
Y255827D02*
D03*
X11772Y280157D02*
D03*
Y255827D02*
D03*
X9803Y280157D02*
D03*
Y255827D02*
D03*
X7835Y280157D02*
D03*
Y255827D02*
D03*
X139724D02*
D03*
X141693D02*
D03*
D239*
X3091Y7992D02*
D03*
X69665D02*
D03*
X81831D02*
D03*
X148406D02*
D03*
X160571D02*
D03*
X227146D02*
D03*
Y267992D02*
D03*
X160571D02*
D03*
X148406D02*
D03*
X81831D02*
D03*
X69665D02*
D03*
X3091D02*
D03*
D240*
X23878Y7992D02*
D03*
X48878D02*
D03*
X102618D02*
D03*
X127618D02*
D03*
X181358D02*
D03*
X206358D02*
D03*
Y267992D02*
D03*
X181358D02*
D03*
X127618D02*
D03*
X102618D02*
D03*
X48878D02*
D03*
X23878D02*
D03*
D241*
X272953Y32677D02*
D03*
Y34646D02*
D03*
Y38583D02*
D03*
Y40551D02*
D03*
Y50394D02*
D03*
Y52362D02*
D03*
Y56299D02*
D03*
Y58268D02*
D03*
Y62205D02*
D03*
Y64173D02*
D03*
Y68110D02*
D03*
Y70079D02*
D03*
Y74016D02*
D03*
Y75984D02*
D03*
Y79921D02*
D03*
Y81890D02*
D03*
X297284Y30709D02*
D03*
X272953D02*
D03*
X297284Y32677D02*
D03*
Y34646D02*
D03*
Y36614D02*
D03*
X272953D02*
D03*
X297284Y38583D02*
D03*
Y40551D02*
D03*
Y42520D02*
D03*
X272953D02*
D03*
X297284Y44488D02*
D03*
Y46457D02*
D03*
Y48425D02*
D03*
X272953D02*
D03*
X297284Y50394D02*
D03*
Y52362D02*
D03*
Y54331D02*
D03*
X272953D02*
D03*
X297284Y56299D02*
D03*
Y58268D02*
D03*
Y60236D02*
D03*
X272953D02*
D03*
X297284Y62205D02*
D03*
Y64173D02*
D03*
Y66142D02*
D03*
X272953D02*
D03*
X297284Y68110D02*
D03*
Y70079D02*
D03*
Y72047D02*
D03*
X272953D02*
D03*
X297284Y74016D02*
D03*
Y75984D02*
D03*
Y77953D02*
D03*
X272953D02*
D03*
X297284Y79921D02*
D03*
Y81890D02*
D03*
Y83858D02*
D03*
X272953D02*
D03*
X297284Y85827D02*
D03*
X272953D02*
D03*
X297284Y87795D02*
D03*
X272953D02*
D03*
X297284Y109449D02*
D03*
X272953D02*
D03*
X297284Y111417D02*
D03*
Y113386D02*
D03*
Y115354D02*
D03*
X272953D02*
D03*
X297284Y117323D02*
D03*
Y119291D02*
D03*
Y121260D02*
D03*
X272953D02*
D03*
X297284Y123228D02*
D03*
Y125197D02*
D03*
Y127165D02*
D03*
X272953D02*
D03*
X297284Y129134D02*
D03*
Y131102D02*
D03*
Y133071D02*
D03*
X272953D02*
D03*
X297284Y135039D02*
D03*
Y137008D02*
D03*
Y138976D02*
D03*
X272953D02*
D03*
X297284Y140945D02*
D03*
X272953D02*
D03*
X297284Y142913D02*
D03*
X272953D02*
D03*
X297284Y144882D02*
D03*
X272953D02*
D03*
X297284Y146850D02*
D03*
X272953D02*
D03*
X297284Y148819D02*
D03*
X272953D02*
D03*
X297284Y150787D02*
D03*
X272953D02*
D03*
X297284Y152756D02*
D03*
X272953D02*
D03*
X297284Y154724D02*
D03*
X272953D02*
D03*
X297284Y156693D02*
D03*
X272953D02*
D03*
X297284Y158661D02*
D03*
X272953D02*
D03*
X297284Y160630D02*
D03*
X272953D02*
D03*
X297284Y162598D02*
D03*
X272953D02*
D03*
X297284Y164567D02*
D03*
X272953D02*
D03*
X297284Y166535D02*
D03*
X272953D02*
D03*
X297284Y188189D02*
D03*
X272953D02*
D03*
X297284Y190157D02*
D03*
X272953D02*
D03*
X297284Y192126D02*
D03*
X272953D02*
D03*
X297284Y194095D02*
D03*
X272953D02*
D03*
X297284Y196063D02*
D03*
X272953D02*
D03*
X297284Y198031D02*
D03*
X272953D02*
D03*
X297284Y200000D02*
D03*
X272953D02*
D03*
X297284Y201969D02*
D03*
X272953D02*
D03*
X297284Y203937D02*
D03*
X272953D02*
D03*
X297284Y205906D02*
D03*
X272953D02*
D03*
X297284Y207874D02*
D03*
X272953D02*
D03*
X297284Y209842D02*
D03*
X272953D02*
D03*
X297284Y211811D02*
D03*
X272953D02*
D03*
X297284Y213779D02*
D03*
X272953D02*
D03*
X297284Y215748D02*
D03*
X272953D02*
D03*
X297284Y217717D02*
D03*
X272953D02*
D03*
X297284Y219685D02*
D03*
X272953D02*
D03*
X297284Y221654D02*
D03*
X272953D02*
D03*
X297284Y223622D02*
D03*
X272953D02*
D03*
X297284Y225591D02*
D03*
X272953D02*
D03*
X297284Y227559D02*
D03*
X272953D02*
D03*
X297284Y229528D02*
D03*
X272953D02*
D03*
X297284Y231496D02*
D03*
X272953D02*
D03*
X297284Y233465D02*
D03*
X272953D02*
D03*
X297284Y235433D02*
D03*
X272953D02*
D03*
X297284Y237402D02*
D03*
X272953D02*
D03*
X297284Y239370D02*
D03*
X272953D02*
D03*
X297284Y241339D02*
D03*
X272953D02*
D03*
X297284Y243307D02*
D03*
X272953D02*
D03*
X297284Y245276D02*
D03*
X272953D02*
D03*
Y119291D02*
D03*
Y117323D02*
D03*
Y113386D02*
D03*
Y111417D02*
D03*
Y131102D02*
D03*
Y129134D02*
D03*
Y125197D02*
D03*
Y123228D02*
D03*
Y137008D02*
D03*
Y135039D02*
D03*
Y46457D02*
D03*
Y44488D02*
D03*
D242*
X285118Y25965D02*
D03*
Y92539D02*
D03*
Y104705D02*
D03*
Y171280D02*
D03*
Y183445D02*
D03*
Y250020D02*
D03*
D243*
Y46752D02*
D03*
Y71752D02*
D03*
Y125492D02*
D03*
Y150492D02*
D03*
Y204232D02*
D03*
Y229232D02*
D03*
D250*
X27953Y244685D02*
D03*
X20079D02*
D03*
D251*
X38189Y202165D02*
D03*
X33465D02*
D03*
X28740D02*
D03*
X24016D02*
D03*
X38189Y206890D02*
D03*
X33465D02*
D03*
X28740D02*
D03*
X24016D02*
D03*
X38189Y211614D02*
D03*
X33465D02*
D03*
X28740D02*
D03*
X24016D02*
D03*
X38189Y216339D02*
D03*
X33465D02*
D03*
X28740D02*
D03*
X24016D02*
D03*
M02*
