G04*
G04 #@! TF.GenerationSoftware,Altium Limited,Altium Designer,18.1.7 (191)*
G04*
G04 Layer_Color=8421504*
%FSLAX25Y25*%
%MOIN*%
G70*
G01*
G75*
%ADD25R,0.01575X0.04724*%
%ADD26R,0.05020X0.02953*%
%ADD27R,0.03661X0.03661*%
%ADD28C,0.01772*%
%ADD29R,0.02900X0.02500*%
%ADD30R,0.02500X0.02900*%
%ADD31R,0.12992X0.09449*%
%ADD32R,0.03740X0.09449*%
%ADD33R,0.01968X0.03150*%
%ADD34R,0.05512X0.03543*%
%ADD35R,0.03937X0.02756*%
%ADD36R,0.04528X0.04724*%
%ADD37R,0.04331X0.04724*%
%ADD38R,0.05709X0.04724*%
%ADD39R,0.02756X0.03937*%
%ADD40R,0.02756X0.00906*%
%ADD41R,0.03543X0.05906*%
%ADD42R,0.02756X0.03937*%
%ADD43R,0.02165X0.03347*%
%ADD44R,0.10433X0.10433*%
%ADD45R,0.00984X0.03150*%
%ADD46R,0.03150X0.00984*%
%ADD47R,0.00787X0.03150*%
%ADD48R,0.03150X0.00787*%
%ADD49R,0.03347X0.01102*%
%ADD50R,0.01102X0.03347*%
%ADD51R,0.06693X0.06693*%
%ADD52R,0.02362X0.02165*%
%ADD53R,0.05512X0.03740*%
%ADD54R,0.03937X0.10630*%
%ADD55R,0.01181X0.01378*%
%ADD56R,0.04528X0.07087*%
%ADD57R,0.03740X0.03937*%
%ADD58R,0.10630X0.04528*%
%ADD59R,0.05709X0.03740*%
%ADD60R,0.02165X0.02362*%
%ADD61R,0.09843X0.06693*%
%ADD62R,0.03937X0.10827*%
%ADD63R,0.08661X0.31496*%
%ADD64R,0.07008X0.05000*%
%ADD65C,0.01968*%
%ADD66R,0.03347X0.02559*%
%ADD67R,0.03740X0.01181*%
%ADD68R,0.01181X0.03740*%
%ADD69R,0.12795X0.12795*%
%ADD70R,0.02047X0.00787*%
%ADD71R,0.02244X0.00787*%
%ADD72R,0.01500X0.04528*%
%ADD73O,0.03347X0.00984*%
%ADD74O,0.00984X0.03347*%
%ADD75R,0.04331X0.01772*%
%ADD76O,0.06496X0.01772*%
%ADD77R,0.03937X0.03543*%
%ADD78R,0.01378X0.03347*%
%ADD79R,0.00500X0.00500*%
%ADD80R,0.01378X0.01181*%
%ADD81R,0.03937X0.03740*%
%ADD82R,0.04528X0.10630*%
%ADD83R,0.00500X0.00500*%
%ADD84R,0.03740X0.05709*%
%ADD85R,0.09449X0.03740*%
%ADD86R,0.09449X0.12992*%
D25*
X29534Y149803D02*
D03*
D26*
X-26138Y61713D02*
D03*
X-26138Y56791D02*
D03*
X13240Y88287D02*
D03*
X13240Y93209D02*
D03*
X-26132Y88287D02*
D03*
X-26132Y93209D02*
D03*
X-26136Y25295D02*
D03*
X-26136Y30217D02*
D03*
D27*
X37815Y202618D02*
D03*
Y207067D02*
D03*
Y211516D02*
D03*
Y215965D02*
D03*
X33366Y202618D02*
D03*
Y207067D02*
D03*
Y211516D02*
D03*
Y215965D02*
D03*
X28917Y202618D02*
D03*
Y207067D02*
D03*
Y211516D02*
D03*
Y215965D02*
D03*
X24468Y207067D02*
D03*
Y211516D02*
D03*
Y215965D02*
D03*
Y202618D02*
D03*
D28*
X198031Y55315D02*
D03*
Y58464D02*
D03*
X131890Y55315D02*
D03*
X135039D02*
D03*
X141339D02*
D03*
X144488D02*
D03*
X147638D02*
D03*
X150787D02*
D03*
X157087D02*
D03*
X160236D02*
D03*
X166535D02*
D03*
Y58464D02*
D03*
X172835Y55315D02*
D03*
X175984D02*
D03*
X182283D02*
D03*
Y58464D02*
D03*
X188583Y55315D02*
D03*
X191732D02*
D03*
X185433D02*
D03*
X179134D02*
D03*
X169685D02*
D03*
X163386D02*
D03*
X153937D02*
D03*
X138189D02*
D03*
X191732Y58464D02*
D03*
X188583D02*
D03*
X185433D02*
D03*
X179134D02*
D03*
X175984D02*
D03*
X172835D02*
D03*
X169685D02*
D03*
X163386D02*
D03*
X160236D02*
D03*
X157087D02*
D03*
X153937D02*
D03*
X150787D02*
D03*
X147638D02*
D03*
X144488D02*
D03*
X141339D02*
D03*
X138189D02*
D03*
X135039D02*
D03*
X131890D02*
D03*
X198031Y61614D02*
D03*
X194882D02*
D03*
X191732D02*
D03*
X188583D02*
D03*
X185433D02*
D03*
X182283D02*
D03*
X179134D02*
D03*
X175984D02*
D03*
X172835D02*
D03*
X169685D02*
D03*
X166535D02*
D03*
X163386D02*
D03*
X160236D02*
D03*
X157087D02*
D03*
X153937D02*
D03*
X150787D02*
D03*
X147638D02*
D03*
X144488D02*
D03*
X141339D02*
D03*
X138189D02*
D03*
X135039D02*
D03*
X131890D02*
D03*
X198031Y64764D02*
D03*
X194882D02*
D03*
X191732D02*
D03*
X188583D02*
D03*
X185433D02*
D03*
X182283D02*
D03*
X179134D02*
D03*
X175984D02*
D03*
X172835D02*
D03*
X169685D02*
D03*
X166535D02*
D03*
X163386D02*
D03*
X160236D02*
D03*
X157087D02*
D03*
X153937D02*
D03*
X150787D02*
D03*
X147638D02*
D03*
X144488D02*
D03*
X141339D02*
D03*
X138189D02*
D03*
X135039D02*
D03*
X131890D02*
D03*
X198031Y67913D02*
D03*
X194882D02*
D03*
X191732D02*
D03*
X188583D02*
D03*
X185433D02*
D03*
X182283D02*
D03*
X179134D02*
D03*
X175984D02*
D03*
X172835D02*
D03*
X169685D02*
D03*
X166535D02*
D03*
X163386D02*
D03*
X160236D02*
D03*
X157087D02*
D03*
X153937D02*
D03*
X150787D02*
D03*
X147638D02*
D03*
X144488D02*
D03*
X141339D02*
D03*
X138189D02*
D03*
X135039D02*
D03*
X131890D02*
D03*
X198031Y71063D02*
D03*
X194882D02*
D03*
X191732D02*
D03*
X188583D02*
D03*
X185433D02*
D03*
X182283D02*
D03*
X179134D02*
D03*
X175984D02*
D03*
X172835D02*
D03*
X169685D02*
D03*
X166535D02*
D03*
X163386D02*
D03*
X160236D02*
D03*
X157087D02*
D03*
X153937D02*
D03*
X150787D02*
D03*
X147638D02*
D03*
X144488D02*
D03*
X141339D02*
D03*
X138189D02*
D03*
X135039D02*
D03*
X131890D02*
D03*
X198031Y74213D02*
D03*
X194882D02*
D03*
X191732D02*
D03*
X188583D02*
D03*
X185433D02*
D03*
X182283D02*
D03*
X179134D02*
D03*
X175984D02*
D03*
X172835D02*
D03*
X169685D02*
D03*
X166535D02*
D03*
X163386D02*
D03*
X160236D02*
D03*
X157087D02*
D03*
X153937D02*
D03*
X150787D02*
D03*
X147638D02*
D03*
X144488D02*
D03*
X141339D02*
D03*
X138189D02*
D03*
X135039D02*
D03*
X131890D02*
D03*
X198031Y77362D02*
D03*
X194882D02*
D03*
X191732D02*
D03*
X188583D02*
D03*
X185433D02*
D03*
X182283D02*
D03*
X179134D02*
D03*
X175984D02*
D03*
X172835D02*
D03*
X169685D02*
D03*
X166535D02*
D03*
X163386D02*
D03*
X160236D02*
D03*
X157087D02*
D03*
X153937D02*
D03*
X150787D02*
D03*
X147638D02*
D03*
X144488D02*
D03*
X141339D02*
D03*
X138189D02*
D03*
X135039D02*
D03*
X131890D02*
D03*
X198031Y80512D02*
D03*
X194882D02*
D03*
X191732D02*
D03*
X188583D02*
D03*
X185433D02*
D03*
X182283D02*
D03*
X179134D02*
D03*
X175984D02*
D03*
X172835D02*
D03*
X169685D02*
D03*
X166535D02*
D03*
X163386D02*
D03*
X160236D02*
D03*
X157087D02*
D03*
X153937D02*
D03*
X150787D02*
D03*
X147638D02*
D03*
X144488D02*
D03*
X141339D02*
D03*
X138189D02*
D03*
X135039D02*
D03*
X131890D02*
D03*
X198031Y83661D02*
D03*
X194882D02*
D03*
X191732D02*
D03*
X188583D02*
D03*
X185433D02*
D03*
X182283D02*
D03*
X179134D02*
D03*
X175984D02*
D03*
X172835D02*
D03*
X169685D02*
D03*
X166535D02*
D03*
X163386D02*
D03*
X160236D02*
D03*
X157087D02*
D03*
X153937D02*
D03*
X150787D02*
D03*
X147638D02*
D03*
X144488D02*
D03*
X141339D02*
D03*
X138189D02*
D03*
X135039D02*
D03*
X131890D02*
D03*
X198031Y86811D02*
D03*
X194882D02*
D03*
X191732D02*
D03*
X188583D02*
D03*
X185433D02*
D03*
X182283D02*
D03*
X179134D02*
D03*
X175984D02*
D03*
X172835D02*
D03*
X169685D02*
D03*
X166535D02*
D03*
X163386D02*
D03*
X160236D02*
D03*
X157087D02*
D03*
X153937D02*
D03*
X150787D02*
D03*
X147638D02*
D03*
X144488D02*
D03*
X141339D02*
D03*
X138189D02*
D03*
X135039D02*
D03*
X131890D02*
D03*
X198031Y89961D02*
D03*
X194882D02*
D03*
X191732D02*
D03*
X188583D02*
D03*
X185433D02*
D03*
X182283D02*
D03*
X179134D02*
D03*
X175984D02*
D03*
X172835D02*
D03*
X169685D02*
D03*
X166535D02*
D03*
X163386D02*
D03*
X160236D02*
D03*
X157087D02*
D03*
X153937D02*
D03*
X150787D02*
D03*
X147638D02*
D03*
X144488D02*
D03*
X141339D02*
D03*
X138189D02*
D03*
X135039D02*
D03*
X131890D02*
D03*
X198031Y93110D02*
D03*
X194882D02*
D03*
X191732D02*
D03*
X188583D02*
D03*
X185433D02*
D03*
X182283D02*
D03*
X179134D02*
D03*
X175984D02*
D03*
X172835D02*
D03*
X169685D02*
D03*
X166535D02*
D03*
X163386D02*
D03*
X160236D02*
D03*
X157087D02*
D03*
X153937D02*
D03*
X150787D02*
D03*
X147638D02*
D03*
X144488D02*
D03*
X141339D02*
D03*
X138189D02*
D03*
X135039D02*
D03*
X131890D02*
D03*
X198031Y96260D02*
D03*
X194882D02*
D03*
X191732D02*
D03*
X188583D02*
D03*
X185433D02*
D03*
X182283D02*
D03*
X179134D02*
D03*
X175984D02*
D03*
X172835D02*
D03*
X169685D02*
D03*
X166535D02*
D03*
X163386D02*
D03*
X160236D02*
D03*
X157087D02*
D03*
X153937D02*
D03*
X150787D02*
D03*
X147638D02*
D03*
X144488D02*
D03*
X141339D02*
D03*
X138189D02*
D03*
X135039D02*
D03*
X131890D02*
D03*
X198031Y99409D02*
D03*
X194882D02*
D03*
X191732D02*
D03*
X188583D02*
D03*
X185433D02*
D03*
X182283D02*
D03*
X179134D02*
D03*
X175984D02*
D03*
X172835D02*
D03*
X169685D02*
D03*
X166535D02*
D03*
X163386D02*
D03*
X160236D02*
D03*
X157087D02*
D03*
X153937D02*
D03*
X150787D02*
D03*
X147638D02*
D03*
X144488D02*
D03*
X141339D02*
D03*
X138189D02*
D03*
X135039D02*
D03*
X131890D02*
D03*
X198031Y102559D02*
D03*
X194882D02*
D03*
X191732D02*
D03*
X188583D02*
D03*
X185433D02*
D03*
X182283D02*
D03*
X179134D02*
D03*
X175984D02*
D03*
X172835D02*
D03*
X169685D02*
D03*
X166535D02*
D03*
X163386D02*
D03*
X160236D02*
D03*
X157087D02*
D03*
X153937D02*
D03*
X150787D02*
D03*
X147638D02*
D03*
X144488D02*
D03*
X141339D02*
D03*
X138189D02*
D03*
X135039D02*
D03*
X131890D02*
D03*
X198031Y105709D02*
D03*
X194882D02*
D03*
X191732D02*
D03*
X188583D02*
D03*
X185433D02*
D03*
X182283D02*
D03*
X179134D02*
D03*
X175984D02*
D03*
X172835D02*
D03*
X169685D02*
D03*
X166535D02*
D03*
X163386D02*
D03*
X160236D02*
D03*
X157087D02*
D03*
X153937D02*
D03*
X150787D02*
D03*
X147638D02*
D03*
X144488D02*
D03*
X141339D02*
D03*
X138189D02*
D03*
X135039D02*
D03*
X131890D02*
D03*
X198031Y108858D02*
D03*
X194882D02*
D03*
X191732D02*
D03*
X188583D02*
D03*
X185433D02*
D03*
X182283D02*
D03*
X179134D02*
D03*
X175984D02*
D03*
X172835D02*
D03*
X169685D02*
D03*
X166535D02*
D03*
X163386D02*
D03*
X160236D02*
D03*
X157087D02*
D03*
X153937D02*
D03*
X150787D02*
D03*
X147638D02*
D03*
X144488D02*
D03*
X141339D02*
D03*
X138189D02*
D03*
X135039D02*
D03*
X131890D02*
D03*
X198031Y112008D02*
D03*
X194882D02*
D03*
X191732D02*
D03*
X188583D02*
D03*
X185433D02*
D03*
X182283D02*
D03*
X179134D02*
D03*
X175984D02*
D03*
X172835D02*
D03*
X169685D02*
D03*
X166535D02*
D03*
X163386D02*
D03*
X160236D02*
D03*
X157087D02*
D03*
X153937D02*
D03*
X150787D02*
D03*
X147638D02*
D03*
X144488D02*
D03*
X141339D02*
D03*
X138189D02*
D03*
X135039D02*
D03*
X131890D02*
D03*
X198031Y115157D02*
D03*
X194882D02*
D03*
X191732D02*
D03*
X188583D02*
D03*
X185433D02*
D03*
X182283D02*
D03*
X179134D02*
D03*
X175984D02*
D03*
X172835D02*
D03*
X169685D02*
D03*
X166535D02*
D03*
X163386D02*
D03*
X160236D02*
D03*
X157087D02*
D03*
X153937D02*
D03*
X150787D02*
D03*
X147638D02*
D03*
X144488D02*
D03*
X141339D02*
D03*
X138189D02*
D03*
X135039D02*
D03*
X131890D02*
D03*
X198031Y118307D02*
D03*
X194882D02*
D03*
X191732D02*
D03*
X188583D02*
D03*
X185433D02*
D03*
X182283D02*
D03*
X179134D02*
D03*
X175984D02*
D03*
X172835D02*
D03*
X169685D02*
D03*
X166535D02*
D03*
X163386D02*
D03*
X160236D02*
D03*
X157087D02*
D03*
X153937D02*
D03*
X150787D02*
D03*
X147638D02*
D03*
X144488D02*
D03*
X141339D02*
D03*
X138189D02*
D03*
X135039D02*
D03*
X131890D02*
D03*
X198031Y121457D02*
D03*
X194882D02*
D03*
X191732D02*
D03*
X188583D02*
D03*
X185433D02*
D03*
X182283D02*
D03*
X179134D02*
D03*
X175984D02*
D03*
X172835D02*
D03*
X169685D02*
D03*
X166535D02*
D03*
X163386D02*
D03*
X160236D02*
D03*
X157087D02*
D03*
X153937D02*
D03*
X150787D02*
D03*
X147638D02*
D03*
X144488D02*
D03*
X141339D02*
D03*
X138189D02*
D03*
X135039D02*
D03*
X131890D02*
D03*
X194882Y58464D02*
D03*
Y55315D02*
D03*
D29*
X137698Y129492D02*
D03*
X142818D02*
D03*
X122760Y125700D02*
D03*
X117640D02*
D03*
D30*
X112200Y130660D02*
D03*
Y125540D02*
D03*
X135618Y222992D02*
D03*
Y228112D02*
D03*
X131223Y222992D02*
D03*
Y228112D02*
D03*
D31*
X250787Y228937D02*
D03*
D32*
X241732Y251772D02*
D03*
X250787D02*
D03*
X259842D02*
D03*
D33*
X146063Y221457D02*
D03*
Y213583D02*
D03*
D34*
X162598Y241929D02*
D03*
D35*
X161811Y237402D02*
D03*
D36*
X203642Y241339D02*
D03*
D37*
Y231142D02*
D03*
D38*
X162697Y232874D02*
D03*
D39*
X199409Y227008D02*
D03*
X195079D02*
D03*
X190748D02*
D03*
X186417D02*
D03*
X182087D02*
D03*
X177756D02*
D03*
X173425D02*
D03*
X169095D02*
D03*
D40*
X33661Y152953D02*
D03*
X25394D02*
D03*
Y146653D02*
D03*
Y148228D02*
D03*
Y149803D02*
D03*
Y151378D02*
D03*
X33661D02*
D03*
Y149803D02*
D03*
Y148228D02*
D03*
Y146653D02*
D03*
D41*
X29528Y149803D02*
D03*
D42*
X243504Y119882D02*
D03*
X239764D02*
D03*
X236024D02*
D03*
Y109646D02*
D03*
X243504D02*
D03*
D43*
X223819Y195276D02*
D03*
X228937D02*
D03*
X226378Y203543D02*
D03*
D44*
X12992Y39173D02*
D03*
D45*
X8268Y31398D02*
D03*
X9843D02*
D03*
X11417D02*
D03*
X12992D02*
D03*
X14567D02*
D03*
X16142D02*
D03*
X17717D02*
D03*
Y46949D02*
D03*
X16142D02*
D03*
X14567D02*
D03*
X12992D02*
D03*
X11417D02*
D03*
X9843D02*
D03*
X8268D02*
D03*
D46*
X20768Y43898D02*
D03*
Y42323D02*
D03*
Y40748D02*
D03*
Y39173D02*
D03*
Y37598D02*
D03*
Y36024D02*
D03*
Y34449D02*
D03*
X5217D02*
D03*
Y36024D02*
D03*
Y37598D02*
D03*
Y39173D02*
D03*
Y40748D02*
D03*
Y42323D02*
D03*
Y43898D02*
D03*
D47*
X-30138Y54724D02*
D03*
X-27697D02*
D03*
X-26122D02*
D03*
X-24547D02*
D03*
X-33287D02*
D03*
X-31713Y63779D02*
D03*
X-24547D02*
D03*
X-26122D02*
D03*
X-27697D02*
D03*
X-30138D02*
D03*
X-33287D02*
D03*
X6083Y95276D02*
D03*
X9232D02*
D03*
X11673D02*
D03*
X13248D02*
D03*
X14823D02*
D03*
X7658D02*
D03*
X6083Y86221D02*
D03*
X14823D02*
D03*
X13248D02*
D03*
X11673D02*
D03*
X9232D02*
D03*
X-33287Y95276D02*
D03*
X-30138D02*
D03*
X-27697D02*
D03*
X-26122D02*
D03*
X-24547D02*
D03*
X-31713D02*
D03*
X-33287Y86221D02*
D03*
X-24547D02*
D03*
X-26122D02*
D03*
X-27697D02*
D03*
X-30138D02*
D03*
X-33287Y32283D02*
D03*
X-30138D02*
D03*
X-27697D02*
D03*
X-26122D02*
D03*
X-24547D02*
D03*
X-31713D02*
D03*
X-33287Y23228D02*
D03*
X-24547D02*
D03*
X-26122D02*
D03*
X-27697D02*
D03*
X-30138D02*
D03*
D48*
X-34246Y60189D02*
D03*
Y58614D02*
D03*
X5124Y90110D02*
D03*
Y91685D02*
D03*
X-34246Y90110D02*
D03*
Y91685D02*
D03*
Y27118D02*
D03*
Y28693D02*
D03*
D49*
X-63878Y17323D02*
D03*
Y15354D02*
D03*
X-63878Y13386D02*
D03*
Y11417D02*
D03*
X-75492D02*
D03*
Y13386D02*
D03*
Y15354D02*
D03*
Y17323D02*
D03*
X-63878Y159055D02*
D03*
Y157087D02*
D03*
X-63878Y155118D02*
D03*
Y153150D02*
D03*
X-75492D02*
D03*
Y155118D02*
D03*
Y157087D02*
D03*
Y159055D02*
D03*
X-31398Y131890D02*
D03*
Y129921D02*
D03*
Y127953D02*
D03*
Y125984D02*
D03*
X-19783D02*
D03*
Y127953D02*
D03*
X-19783Y129921D02*
D03*
Y131890D02*
D03*
X-75492Y111811D02*
D03*
Y109843D02*
D03*
Y107874D02*
D03*
Y105905D02*
D03*
X-63878D02*
D03*
Y107874D02*
D03*
X-63878Y109843D02*
D03*
Y111811D02*
D03*
X-75492Y64567D02*
D03*
Y62598D02*
D03*
Y60630D02*
D03*
Y58661D02*
D03*
X-63878D02*
D03*
Y60630D02*
D03*
X-63878Y62598D02*
D03*
Y64567D02*
D03*
D50*
X-66732Y20177D02*
D03*
X-68701D02*
D03*
X-70669D02*
D03*
X-72638D02*
D03*
Y8563D02*
D03*
X-70669D02*
D03*
X-68701Y8563D02*
D03*
X-66732D02*
D03*
Y161909D02*
D03*
X-68701D02*
D03*
X-70669D02*
D03*
X-72638D02*
D03*
Y150295D02*
D03*
X-70669D02*
D03*
X-68701Y150295D02*
D03*
X-66732D02*
D03*
X-22638Y123130D02*
D03*
X-24606D02*
D03*
X-26575Y123130D02*
D03*
X-28543D02*
D03*
Y134744D02*
D03*
X-26575D02*
D03*
X-24606D02*
D03*
X-22638D02*
D03*
X-66732Y103051D02*
D03*
X-68701D02*
D03*
X-70669Y103051D02*
D03*
X-72638D02*
D03*
Y114665D02*
D03*
X-70669D02*
D03*
X-68701D02*
D03*
X-66732D02*
D03*
Y55807D02*
D03*
X-68701D02*
D03*
X-70669Y55807D02*
D03*
X-72638D02*
D03*
Y67421D02*
D03*
X-70669D02*
D03*
X-68701D02*
D03*
X-66732D02*
D03*
D51*
X-69685Y14370D02*
D03*
Y156102D02*
D03*
X-25591Y128937D02*
D03*
X-69685Y108858D02*
D03*
Y61614D02*
D03*
D52*
X-75590Y32087D02*
D03*
Y28150D02*
D03*
X243701Y29331D02*
D03*
Y33268D02*
D03*
X211768Y169992D02*
D03*
Y173929D02*
D03*
X182283Y213976D02*
D03*
Y217913D02*
D03*
X9843Y266339D02*
D03*
Y270276D02*
D03*
X6299Y235630D02*
D03*
Y239567D02*
D03*
X11024Y235630D02*
D03*
Y239567D02*
D03*
X31496Y239567D02*
D03*
Y235630D02*
D03*
X-75590Y169882D02*
D03*
Y173819D02*
D03*
X-85433Y165551D02*
D03*
Y161614D02*
D03*
X-80709Y169882D02*
D03*
Y173819D02*
D03*
X-85433Y156890D02*
D03*
Y152953D02*
D03*
Y109646D02*
D03*
Y105709D02*
D03*
X-80709Y126575D02*
D03*
Y122638D02*
D03*
X-85433Y118307D02*
D03*
Y114370D02*
D03*
Y15157D02*
D03*
Y11220D02*
D03*
Y19882D02*
D03*
Y23819D02*
D03*
X-80709Y32087D02*
D03*
Y28150D02*
D03*
Y75394D02*
D03*
Y79331D02*
D03*
X-75590Y75394D02*
D03*
Y79331D02*
D03*
X-85433Y58465D02*
D03*
Y62402D02*
D03*
Y67126D02*
D03*
Y71063D02*
D03*
X56693Y128543D02*
D03*
Y124606D02*
D03*
X69685D02*
D03*
Y128543D02*
D03*
X61024Y124606D02*
D03*
Y128543D02*
D03*
X52362Y137205D02*
D03*
Y141142D02*
D03*
X44488D02*
D03*
Y137205D02*
D03*
X150028Y163594D02*
D03*
Y159658D02*
D03*
X249016Y112795D02*
D03*
Y116732D02*
D03*
X221654Y42717D02*
D03*
Y46654D02*
D03*
X272835Y-2165D02*
D03*
Y1772D02*
D03*
X248425Y33268D02*
D03*
Y29331D02*
D03*
X228346Y33268D02*
D03*
Y29331D02*
D03*
X233071Y33268D02*
D03*
Y29331D02*
D03*
X272047Y173819D02*
D03*
Y169882D02*
D03*
X175984Y213976D02*
D03*
Y217913D02*
D03*
X216535Y199016D02*
D03*
Y195079D02*
D03*
X21654Y158465D02*
D03*
Y154528D02*
D03*
X44488Y128543D02*
D03*
Y124606D02*
D03*
X209055Y85630D02*
D03*
Y81693D02*
D03*
Y93504D02*
D03*
Y89567D02*
D03*
Y76181D02*
D03*
Y72244D02*
D03*
Y101378D02*
D03*
Y105315D02*
D03*
Y62795D02*
D03*
Y66732D02*
D03*
Y126969D02*
D03*
Y123031D02*
D03*
X120866Y100591D02*
D03*
Y104528D02*
D03*
Y91142D02*
D03*
Y95079D02*
D03*
Y81693D02*
D03*
Y85630D02*
D03*
X82677Y269094D02*
D03*
Y265158D02*
D03*
X-37795Y132087D02*
D03*
Y136024D02*
D03*
X-75590Y126575D02*
D03*
Y122638D02*
D03*
X150787Y241535D02*
D03*
Y237598D02*
D03*
X87008Y265158D02*
D03*
Y269094D02*
D03*
X276772Y169882D02*
D03*
Y173819D02*
D03*
X120866Y110039D02*
D03*
Y113976D02*
D03*
Y73032D02*
D03*
Y69095D02*
D03*
Y63583D02*
D03*
Y59646D02*
D03*
X227165Y75787D02*
D03*
Y79724D02*
D03*
X231890Y75787D02*
D03*
Y79724D02*
D03*
X236614Y75787D02*
D03*
Y79724D02*
D03*
X241339Y75787D02*
D03*
Y79724D02*
D03*
X246063Y75787D02*
D03*
Y79724D02*
D03*
X250787Y75787D02*
D03*
Y79724D02*
D03*
X5118Y266339D02*
D03*
Y270276D02*
D03*
X24016Y270276D02*
D03*
Y266339D02*
D03*
X19291Y266339D02*
D03*
Y270276D02*
D03*
X394Y266339D02*
D03*
Y270276D02*
D03*
X14567D02*
D03*
Y266339D02*
D03*
X69685Y141142D02*
D03*
Y137205D02*
D03*
X100000Y141142D02*
D03*
Y137205D02*
D03*
X65354Y141142D02*
D03*
Y137205D02*
D03*
X74016Y128543D02*
D03*
Y124606D02*
D03*
X91339D02*
D03*
Y128543D02*
D03*
X100000Y124606D02*
D03*
Y128543D02*
D03*
X95669Y137205D02*
D03*
Y141142D02*
D03*
X87008Y137205D02*
D03*
Y141142D02*
D03*
X82677Y137205D02*
D03*
Y141142D02*
D03*
X78347Y137205D02*
D03*
Y141142D02*
D03*
X74016Y137205D02*
D03*
Y141142D02*
D03*
X65354Y128543D02*
D03*
Y124606D02*
D03*
X78347Y128543D02*
D03*
Y124606D02*
D03*
X87008Y128543D02*
D03*
Y124606D02*
D03*
X82677Y128543D02*
D03*
Y124606D02*
D03*
X95669Y128543D02*
D03*
Y124606D02*
D03*
X52362Y128543D02*
D03*
Y124606D02*
D03*
X56693Y137205D02*
D03*
Y141142D02*
D03*
X61024Y137205D02*
D03*
Y141142D02*
D03*
X91339D02*
D03*
Y137205D02*
D03*
D53*
X201181Y169095D02*
D03*
Y161221D02*
D03*
X9055Y191142D02*
D03*
Y183268D02*
D03*
D54*
X-60236Y30118D02*
D03*
X-68898D02*
D03*
X-60236Y171850D02*
D03*
X-68898D02*
D03*
Y77362D02*
D03*
X-60236D02*
D03*
X-68898Y124606D02*
D03*
X-60236D02*
D03*
D55*
X280807Y111417D02*
D03*
X282972D02*
D03*
X23327Y190354D02*
D03*
X25492D02*
D03*
X41437Y181693D02*
D03*
X43602D02*
D03*
X11319Y204134D02*
D03*
X9154D02*
D03*
X11319Y213976D02*
D03*
X9154D02*
D03*
X30020Y190354D02*
D03*
X32185D02*
D03*
X39862D02*
D03*
X42028D02*
D03*
X18012D02*
D03*
X15846D02*
D03*
X282972Y115354D02*
D03*
X280807D02*
D03*
X282972Y119291D02*
D03*
X280807D02*
D03*
X282972Y123228D02*
D03*
X280807D02*
D03*
X282972Y138976D02*
D03*
X280807D02*
D03*
X282972Y127165D02*
D03*
X280807D02*
D03*
X282972Y142913D02*
D03*
X280807D02*
D03*
X282972Y131102D02*
D03*
X280807D02*
D03*
X282972Y146850D02*
D03*
X280807D02*
D03*
X282972Y135039D02*
D03*
X280807D02*
D03*
X282972Y150787D02*
D03*
X280807D02*
D03*
X282972Y154724D02*
D03*
X280807D02*
D03*
X282972Y158661D02*
D03*
X280807D02*
D03*
X282972Y162598D02*
D03*
X280807D02*
D03*
X31201Y275394D02*
D03*
X33366D02*
D03*
X43012D02*
D03*
X45177D02*
D03*
X54823D02*
D03*
X56988D02*
D03*
X282972Y85827D02*
D03*
X280807D02*
D03*
X282972Y81890D02*
D03*
X280807D02*
D03*
X222850Y145961D02*
D03*
X220685D02*
D03*
X21949Y146653D02*
D03*
X19783D02*
D03*
D56*
X-67520Y591D02*
D03*
X-56102D02*
D03*
X-67520Y142323D02*
D03*
X-56102D02*
D03*
Y95079D02*
D03*
X-67520D02*
D03*
X-13484Y115110D02*
D03*
X-24902D02*
D03*
X-56102Y47835D02*
D03*
X-67520D02*
D03*
D57*
X-40157Y49409D02*
D03*
X-33858D02*
D03*
X115748Y262795D02*
D03*
X109449D02*
D03*
X115748Y272244D02*
D03*
X109449D02*
D03*
X125591Y168307D02*
D03*
X119291D02*
D03*
X11811Y80905D02*
D03*
X18110D02*
D03*
X5512D02*
D03*
X-787D02*
D03*
X-27559D02*
D03*
X-21260D02*
D03*
X-33858D02*
D03*
X-40157D02*
D03*
X-27953Y17913D02*
D03*
X-21654D02*
D03*
X-33858D02*
D03*
X-40157D02*
D03*
X-27559Y49409D02*
D03*
X-21260D02*
D03*
X45669Y171063D02*
D03*
X39370D02*
D03*
X45669Y177362D02*
D03*
X39370D02*
D03*
X45669Y164764D02*
D03*
X39370D02*
D03*
X220866Y246654D02*
D03*
X227165D02*
D03*
X215118Y139961D02*
D03*
X221417D02*
D03*
D58*
X112598Y106299D02*
D03*
Y117717D02*
D03*
Y65354D02*
D03*
Y76772D02*
D03*
Y98819D02*
D03*
Y87402D02*
D03*
X217717Y121653D02*
D03*
Y133071D02*
D03*
Y109055D02*
D03*
Y97638D02*
D03*
Y70473D02*
D03*
Y59055D02*
D03*
Y78347D02*
D03*
Y89764D02*
D03*
D59*
X-53937Y162795D02*
D03*
Y154921D02*
D03*
Y21063D02*
D03*
Y13189D02*
D03*
Y107677D02*
D03*
Y115551D02*
D03*
X-9449Y128150D02*
D03*
Y136024D02*
D03*
X-53937Y60433D02*
D03*
Y68307D02*
D03*
X46063Y104921D02*
D03*
Y97047D02*
D03*
Y81299D02*
D03*
Y89173D02*
D03*
Y60827D02*
D03*
Y52953D02*
D03*
Y37205D02*
D03*
Y45079D02*
D03*
D60*
X-75197Y144291D02*
D03*
X-79134D02*
D03*
X74016Y199803D02*
D03*
X70079D02*
D03*
Y204134D02*
D03*
X74016D02*
D03*
Y208465D02*
D03*
X70079D02*
D03*
Y212795D02*
D03*
X74016D02*
D03*
Y217126D02*
D03*
X70079D02*
D03*
Y221457D02*
D03*
X74016D02*
D03*
X74803Y171457D02*
D03*
X70866D02*
D03*
X62992Y221457D02*
D03*
X59055D02*
D03*
Y235630D02*
D03*
X62992D02*
D03*
X62992Y230906D02*
D03*
X59055D02*
D03*
Y226181D02*
D03*
X62992D02*
D03*
X59055Y199803D02*
D03*
X62992D02*
D03*
Y204134D02*
D03*
X59055D02*
D03*
Y208465D02*
D03*
X62992D02*
D03*
Y212795D02*
D03*
X59055D02*
D03*
Y217126D02*
D03*
X62992D02*
D03*
X-5512Y245079D02*
D03*
X-1575D02*
D03*
X-79528Y195866D02*
D03*
X-75591D02*
D03*
X-79134Y97047D02*
D03*
X-75197D02*
D03*
X-22047Y108071D02*
D03*
X-25984D02*
D03*
X-35661Y117610D02*
D03*
X-31724D02*
D03*
X25961Y54102D02*
D03*
X22024D02*
D03*
X162992Y132480D02*
D03*
X166929D02*
D03*
X292913Y111417D02*
D03*
X288976D02*
D03*
Y115354D02*
D03*
X292913D02*
D03*
Y119291D02*
D03*
X288976D02*
D03*
Y123228D02*
D03*
X292913D02*
D03*
Y138976D02*
D03*
X288976D02*
D03*
Y127165D02*
D03*
X292913D02*
D03*
Y142913D02*
D03*
X288976D02*
D03*
Y131102D02*
D03*
X292913D02*
D03*
Y146850D02*
D03*
X288976D02*
D03*
Y135039D02*
D03*
X292913D02*
D03*
Y150787D02*
D03*
X288976D02*
D03*
Y154724D02*
D03*
X292913D02*
D03*
Y158661D02*
D03*
X288976D02*
D03*
Y162598D02*
D03*
X292913D02*
D03*
X225984Y239961D02*
D03*
X222047D02*
D03*
X-79134Y2559D02*
D03*
X-75197D02*
D03*
X127165Y44291D02*
D03*
X123228D02*
D03*
X139550Y149592D02*
D03*
X143487D02*
D03*
X146457Y44291D02*
D03*
X142520D02*
D03*
X183465Y132480D02*
D03*
X187402D02*
D03*
X166929Y44291D02*
D03*
X162992D02*
D03*
X124409Y132480D02*
D03*
X120472D02*
D03*
X193701Y44291D02*
D03*
X189764D02*
D03*
X170866D02*
D03*
X174803D02*
D03*
X196850Y132480D02*
D03*
X192913D02*
D03*
X205118D02*
D03*
X209055D02*
D03*
X180315Y44291D02*
D03*
X184252D02*
D03*
X100000Y262795D02*
D03*
X96063D02*
D03*
X13386Y148228D02*
D03*
X9449D02*
D03*
Y152953D02*
D03*
X13386D02*
D03*
X1461Y55102D02*
D03*
X-2476D02*
D03*
X-37795Y150197D02*
D03*
X-33858D02*
D03*
X-37795Y140748D02*
D03*
X-33858D02*
D03*
X-37795Y145473D02*
D03*
X-33858D02*
D03*
X100000Y272244D02*
D03*
X96063D02*
D03*
X169685Y163441D02*
D03*
X165748D02*
D03*
X144882Y176181D02*
D03*
X140945D02*
D03*
X156299Y163441D02*
D03*
X160236D02*
D03*
X137402Y156890D02*
D03*
X141339D02*
D03*
X292913Y81890D02*
D03*
X288976D02*
D03*
Y85827D02*
D03*
X292913D02*
D03*
X-79134Y49803D02*
D03*
X-75197D02*
D03*
X27559Y158465D02*
D03*
X31496D02*
D03*
X205512Y188778D02*
D03*
X209449D02*
D03*
X205512Y193109D02*
D03*
X209449D02*
D03*
X205512Y201378D02*
D03*
X209449D02*
D03*
X205512Y197441D02*
D03*
X209449D02*
D03*
X-79528Y200591D02*
D03*
X-75590D02*
D03*
X-1575Y249803D02*
D03*
X-5512D02*
D03*
Y236024D02*
D03*
X-1575D02*
D03*
D61*
X-11417Y1378D02*
D03*
X-27165D02*
D03*
D62*
X192126Y202264D02*
D03*
X184252D02*
D03*
X176378D02*
D03*
Y185531D02*
D03*
X184252D02*
D03*
X192126D02*
D03*
X168504Y202264D02*
D03*
X160630D02*
D03*
X152756D02*
D03*
X144882D02*
D03*
Y185531D02*
D03*
X152756D02*
D03*
X160630D02*
D03*
X168504D02*
D03*
D63*
X-24913Y157610D02*
D03*
X-2472D02*
D03*
D64*
X177146Y159764D02*
D03*
Y169764D02*
D03*
X192146Y159764D02*
D03*
Y169764D02*
D03*
D65*
X53937Y36417D02*
D03*
X57087D02*
D03*
X60236D02*
D03*
X63386D02*
D03*
X66535D02*
D03*
X69685D02*
D03*
X72835D02*
D03*
X75984D02*
D03*
X79134D02*
D03*
X82284D02*
D03*
X85433D02*
D03*
X88583D02*
D03*
X91732D02*
D03*
X94882D02*
D03*
X98032D02*
D03*
X101181D02*
D03*
X53937Y39567D02*
D03*
X57087D02*
D03*
X60236D02*
D03*
X63386D02*
D03*
X66535D02*
D03*
X69685D02*
D03*
X72835D02*
D03*
X75984D02*
D03*
X79134D02*
D03*
X82284D02*
D03*
X85433D02*
D03*
X88583D02*
D03*
X91732D02*
D03*
X94882D02*
D03*
X98032D02*
D03*
X101181D02*
D03*
X53937Y42717D02*
D03*
X57087D02*
D03*
X60236D02*
D03*
X63386D02*
D03*
X66535D02*
D03*
X69685D02*
D03*
X72835D02*
D03*
X75984D02*
D03*
X79134D02*
D03*
X82284D02*
D03*
X85433D02*
D03*
X88583D02*
D03*
X91732D02*
D03*
X94882D02*
D03*
X98032D02*
D03*
X101181D02*
D03*
X53937Y55315D02*
D03*
X57087D02*
D03*
X60236D02*
D03*
X63386D02*
D03*
X66535D02*
D03*
X69685D02*
D03*
X72835D02*
D03*
X75984D02*
D03*
X79134D02*
D03*
X82284D02*
D03*
X85433D02*
D03*
X88583D02*
D03*
X91732D02*
D03*
X94882D02*
D03*
X98032D02*
D03*
X101181D02*
D03*
X53937Y58465D02*
D03*
X57087D02*
D03*
X60236D02*
D03*
X63386D02*
D03*
X66535D02*
D03*
X69685D02*
D03*
X72835D02*
D03*
X75984D02*
D03*
X79134D02*
D03*
X82284D02*
D03*
X85433D02*
D03*
X88583D02*
D03*
X91732D02*
D03*
X94882D02*
D03*
X98032D02*
D03*
X101181D02*
D03*
X53937Y61614D02*
D03*
X57087D02*
D03*
X60236D02*
D03*
X63386D02*
D03*
X66535D02*
D03*
X69685D02*
D03*
X72835D02*
D03*
X75984D02*
D03*
X79134D02*
D03*
X82284D02*
D03*
X85433D02*
D03*
X88583D02*
D03*
X91732D02*
D03*
X94882D02*
D03*
X98032D02*
D03*
X101181D02*
D03*
Y105709D02*
D03*
X98032D02*
D03*
X94882D02*
D03*
X91732D02*
D03*
X88583D02*
D03*
X85433D02*
D03*
X82284D02*
D03*
X79134D02*
D03*
X75984D02*
D03*
X72835D02*
D03*
X69685D02*
D03*
X66535D02*
D03*
X63386D02*
D03*
X60236D02*
D03*
X57087D02*
D03*
X53937D02*
D03*
X101181Y102559D02*
D03*
X98032D02*
D03*
X94882D02*
D03*
X91732D02*
D03*
X88583D02*
D03*
X85433D02*
D03*
X82284D02*
D03*
X79134D02*
D03*
X75984D02*
D03*
X72835D02*
D03*
X69685D02*
D03*
X66535D02*
D03*
X63386D02*
D03*
X60236D02*
D03*
X57087D02*
D03*
X53937D02*
D03*
X101181Y99410D02*
D03*
X98032D02*
D03*
X94882D02*
D03*
X91732D02*
D03*
X88583D02*
D03*
X85433D02*
D03*
X82284D02*
D03*
X79134D02*
D03*
X75984D02*
D03*
X72835D02*
D03*
X69685D02*
D03*
X66535D02*
D03*
X63386D02*
D03*
X60236D02*
D03*
X57087D02*
D03*
X53937D02*
D03*
X101181Y86811D02*
D03*
X98032D02*
D03*
X94882D02*
D03*
X91732D02*
D03*
X88583D02*
D03*
X85433D02*
D03*
X82284D02*
D03*
X79134D02*
D03*
X75984D02*
D03*
X72835D02*
D03*
X69685D02*
D03*
X66535D02*
D03*
X63386D02*
D03*
X60236D02*
D03*
X57087D02*
D03*
X53937D02*
D03*
X101181Y83661D02*
D03*
X98032D02*
D03*
X94882D02*
D03*
X91732D02*
D03*
X88583D02*
D03*
X85433D02*
D03*
X82284D02*
D03*
X79134D02*
D03*
X75984D02*
D03*
X72835D02*
D03*
X69685D02*
D03*
X66535D02*
D03*
X63386D02*
D03*
X60236D02*
D03*
X57087D02*
D03*
X53937D02*
D03*
X101181Y80512D02*
D03*
X98032D02*
D03*
X94882D02*
D03*
X91732D02*
D03*
X88583D02*
D03*
X85433D02*
D03*
X82284D02*
D03*
X79134D02*
D03*
X75984D02*
D03*
X72835D02*
D03*
X69685D02*
D03*
X66535D02*
D03*
X63386D02*
D03*
X60236D02*
D03*
X57087D02*
D03*
X53937D02*
D03*
D66*
X145079Y170374D02*
D03*
Y163878D02*
D03*
X138976D02*
D03*
Y170374D02*
D03*
D67*
X235980Y154055D02*
D03*
Y156024D02*
D03*
Y157992D02*
D03*
Y159961D02*
D03*
Y161929D02*
D03*
Y163898D02*
D03*
Y165866D02*
D03*
X217555D02*
D03*
Y163898D02*
D03*
Y161929D02*
D03*
Y159961D02*
D03*
Y157992D02*
D03*
Y156024D02*
D03*
Y154055D02*
D03*
D68*
X232673Y150748D02*
D03*
X230705D02*
D03*
X228736D02*
D03*
X226768D02*
D03*
X224799D02*
D03*
X222831D02*
D03*
X220862D02*
D03*
Y169173D02*
D03*
X222831D02*
D03*
X224799D02*
D03*
X226768D02*
D03*
X228736D02*
D03*
X230705D02*
D03*
X232673D02*
D03*
D69*
X226768Y159961D02*
D03*
D70*
X164429Y171260D02*
D03*
Y169882D02*
D03*
Y168504D02*
D03*
X161555D02*
D03*
Y169882D02*
D03*
D71*
X161654Y171260D02*
D03*
D72*
X226972Y42059D02*
D03*
X229532D02*
D03*
X232090D02*
D03*
X234650D02*
D03*
X237209D02*
D03*
X239768D02*
D03*
X242327D02*
D03*
X244886D02*
D03*
X247445D02*
D03*
X250004D02*
D03*
X226972Y66272D02*
D03*
X229532D02*
D03*
X232090D02*
D03*
X234650D02*
D03*
X237209D02*
D03*
X239768D02*
D03*
X242327D02*
D03*
X244886D02*
D03*
X247445D02*
D03*
X250004D02*
D03*
D73*
X17520Y200394D02*
D03*
Y202362D02*
D03*
Y206299D02*
D03*
Y208268D02*
D03*
Y210236D02*
D03*
Y212205D02*
D03*
Y216142D02*
D03*
Y218110D02*
D03*
X44685Y220079D02*
D03*
Y218110D02*
D03*
Y216142D02*
D03*
Y214173D02*
D03*
Y212205D02*
D03*
Y210236D02*
D03*
Y208268D02*
D03*
Y206299D02*
D03*
Y204331D02*
D03*
Y202362D02*
D03*
Y200394D02*
D03*
Y198425D02*
D03*
X17520Y198425D02*
D03*
Y204331D02*
D03*
Y214173D02*
D03*
Y220079D02*
D03*
D74*
X20276Y222835D02*
D03*
X22244D02*
D03*
X24213D02*
D03*
X26181D02*
D03*
X28150D02*
D03*
X30118D02*
D03*
X32087D02*
D03*
X34055D02*
D03*
X36024D02*
D03*
X37992D02*
D03*
X39961D02*
D03*
X41929D02*
D03*
Y195669D02*
D03*
X39961D02*
D03*
X37992D02*
D03*
X36024D02*
D03*
X34055D02*
D03*
X32087D02*
D03*
X30118D02*
D03*
X28150D02*
D03*
X26181D02*
D03*
X24213D02*
D03*
X22244D02*
D03*
X20276D02*
D03*
D75*
X227165Y233169D02*
D03*
Y230610D02*
D03*
Y228051D02*
D03*
Y225492D02*
D03*
X216929D02*
D03*
Y228051D02*
D03*
Y230610D02*
D03*
Y233169D02*
D03*
D76*
X114075Y161909D02*
D03*
Y159350D02*
D03*
Y156791D02*
D03*
Y154232D02*
D03*
X130807Y161909D02*
D03*
Y159350D02*
D03*
Y156791D02*
D03*
Y154232D02*
D03*
X12500Y171752D02*
D03*
Y169193D02*
D03*
Y166634D02*
D03*
Y164075D02*
D03*
X29232Y171752D02*
D03*
Y169193D02*
D03*
Y166634D02*
D03*
Y164075D02*
D03*
D77*
X24902Y239469D02*
D03*
X17618D02*
D03*
Y233366D02*
D03*
X24902D02*
D03*
D78*
X95866Y162795D02*
D03*
X98425D02*
D03*
X100984D02*
D03*
Y171457D02*
D03*
X95866D02*
D03*
X42323Y231693D02*
D03*
X37205D02*
D03*
Y240354D02*
D03*
X39764D02*
D03*
X42323D02*
D03*
X31299Y271598D02*
D03*
X36417D02*
D03*
Y262937D02*
D03*
X33858D02*
D03*
X31299D02*
D03*
X43110Y271598D02*
D03*
X48228D02*
D03*
Y262937D02*
D03*
X45669D02*
D03*
X43110D02*
D03*
X54921Y271598D02*
D03*
X60039D02*
D03*
Y262937D02*
D03*
X57480D02*
D03*
X54921D02*
D03*
X82874Y171457D02*
D03*
X87992D02*
D03*
Y162795D02*
D03*
X85433D02*
D03*
X82874D02*
D03*
D79*
X122047Y153165D02*
D03*
Y152165D02*
D03*
X123622Y153165D02*
D03*
Y152165D02*
D03*
D80*
X50000Y200492D02*
D03*
Y198327D02*
D03*
Y208366D02*
D03*
Y206201D02*
D03*
Y216043D02*
D03*
Y218209D02*
D03*
X47244Y232382D02*
D03*
Y230217D02*
D03*
X12205Y220374D02*
D03*
Y222539D02*
D03*
X12205Y198130D02*
D03*
Y195965D02*
D03*
X48425Y127657D02*
D03*
Y125492D02*
D03*
X103543Y127657D02*
D03*
Y125492D02*
D03*
X103543Y140256D02*
D03*
Y138091D02*
D03*
X209252Y161909D02*
D03*
Y164075D02*
D03*
X212205Y161909D02*
D03*
Y164075D02*
D03*
X48425Y140256D02*
D03*
Y138091D02*
D03*
D81*
X1575Y184055D02*
D03*
Y190354D02*
D03*
X40157Y157677D02*
D03*
Y151378D02*
D03*
X216142Y47835D02*
D03*
Y41535D02*
D03*
X228740Y117913D02*
D03*
Y111614D02*
D03*
X216535Y211614D02*
D03*
Y205315D02*
D03*
X207087Y147835D02*
D03*
Y154134D02*
D03*
X38583Y136024D02*
D03*
Y142323D02*
D03*
D82*
X87992Y152165D02*
D03*
X99410D02*
D03*
X68701D02*
D03*
X57284D02*
D03*
X170276Y141142D02*
D03*
X158858D02*
D03*
X147047D02*
D03*
X135630D02*
D03*
X119488Y35630D02*
D03*
X130905D02*
D03*
X158465D02*
D03*
X169882D02*
D03*
X138779D02*
D03*
X150197D02*
D03*
X191142Y141142D02*
D03*
X179724D02*
D03*
X116732D02*
D03*
X128150D02*
D03*
D83*
X134252Y173425D02*
D03*
X133252D02*
D03*
X270079Y169882D02*
D03*
X271079D02*
D03*
D84*
X186221Y35630D02*
D03*
X178347D02*
D03*
X201575D02*
D03*
X193701D02*
D03*
D85*
X255906Y281496D02*
D03*
Y272441D02*
D03*
Y263386D02*
D03*
D86*
X278740Y272441D02*
D03*
M02*
