  0
SECTION
  2
HEADER
  9
$EXTMIN
 10
8.4
 20
95.3
  9
$EXTMAX
 10
445.7
 20
483.4
  9
$LIMMIN
 10
8.4
 20
95.3
  9
$LIMMAX
 10
445.7
 20
483.4
  0
ENDSEC
  0
SECTION
  2
TABLES
  0
TABLE
  2
LAYER
 70
    18
  0
LAYER
  2
0
 70
    64
 62
     7
  6
CONTINUOUS
  0
LAYER
  2
_BOARD
 70
    64
 62
    254
  6
CONTINUOUS
  0
LAYER
  2
_DRILL
 70
    64
 62
    251
  6
CONTINUOUS
  0
ENDTAB
  0
ENDSEC
  0
SECTION
  2
BLOCKS
  0
BLOCK
  8
0
  2
_HOLE
 70
    64
 10
0.0
 20
0.0
  0
CIRCLE
  8
0
 10
0.0
 20
0.0
 40
0.500
  0
ENDBLK
  8
0
  0
ENDSEC
  0
SECTION
  2
ENTITIES
  0
POLYLINE
  8
_BOARD
 66
     1
 62
     3
 10
0.0
 20
0.0
 70
     1
 40
0.0
 41
0.0
  0
VERTEX
  8
_BOARD
 10
215.4
 20
82.6
 40
0.0
 41
0.0
  0
VERTEX
  8
_BOARD
 10
239.7
 20
82.6
  0
VERTEX
  8
_BOARD
 10
239.7
 20
82.6
 40
0.0
 41
0.0
 42
0.414
  0
VERTEX
  8
_BOARD
 10
244.4
 20
87.4
  0
VERTEX
  8
_BOARD
 10
244.4
 20
87.4
 40
0.0
 41
0.0
  0
VERTEX
  8
_BOARD
 10
244.4
 20
126.4
  0
VERTEX
  8
_BOARD
 10
244.4
 20
126.4
 40
0.0
 41
0.0
 42
0.414
  0
VERTEX
  8
_BOARD
 10
238.4
 20
132.4
  0
VERTEX
  8
_BOARD
 10
238.4
 20
132.4
 40
0.0
 41
0.0
  0
VERTEX
  8
_BOARD
 10
217.3
 20
132.4
  0
VERTEX
  8
_BOARD
 10
217.3
 20
132.4
 40
0.0
 41
0.0
 42
0.414
  0
VERTEX
  8
_BOARD
 10
209.4
 20
124.5
  0
VERTEX
  8
_BOARD
 10
209.4
 20
124.5
 40
0.0
 41
0.0
  0
VERTEX
  8
_BOARD
 10
209.4
 20
88.6
  0
VERTEX
  8
_BOARD
 10
209.4
 20
88.6
 40
0.0
 41
0.0
 42
0.477
  0
VERTEX
  8
_BOARD
 10
215.4
 20
82.6
 40
0.0
 41
0.0
  0
VERTEX
  8
_BOARD
 10
215.4
 20
82.6
  0
SEQEND
  8
_BOARD
  0
POLYLINE
  8
_BOARD
 66
     1
 62
     3
 10
0.0
 20
0.0
 70
     1
 40
0.0
 41
0.0
  0
VERTEX
  8
_BOARD
 10
367.3
 20
172.0
 40
0.0
 41
0.0
  0
VERTEX
  8
_BOARD
 10
410.1
 20
172.0
  0
VERTEX
  8
_BOARD
 10
410.1
 20
172.0
 40
0.0
 41
0.0
 42
0.414
  0
VERTEX
  8
_BOARD
 10
412.4
 20
174.2
  0
VERTEX
  8
_BOARD
 10
412.4
 20
174.2
 40
0.0
 41
0.0
  0
VERTEX
  8
_BOARD
 10
412.4
 20
202.7
  0
VERTEX
  8
_BOARD
 10
412.4
 20
202.7
 40
0.0
 41
0.0
 42
0.414
  0
VERTEX
  8
_BOARD
 10
410.1
 20
205.0
  0
VERTEX
  8
_BOARD
 10
410.1
 20
205.0
 40
0.0
 41
0.0
  0
VERTEX
  8
_BOARD
 10
367.3
 20
205.0
  0
VERTEX
  8
_BOARD
 10
367.3
 20
205.0
 40
0.0
 41
0.0
 42
0.414
  0
VERTEX
  8
_BOARD
 10
365.0
 20
202.7
  0
VERTEX
  8
_BOARD
 10
365.0
 20
202.7
 40
0.0
 41
0.0
  0
VERTEX
  8
_BOARD
 10
365.0
 20
174.2
  0
VERTEX
  8
_BOARD
 10
365.0
 20
174.2
 40
0.0
 41
0.0
 42
0.414
  0
VERTEX
  8
_BOARD
 10
367.3
 20
172.0
 40
0.0
 41
0.0
  0
VERTEX
  8
_BOARD
 10
367.3
 20
172.0
  0
SEQEND
  8
_BOARD
  0
POLYLINE
  8
_BOARD
 66
     1
 62
     3
 10
0.0
 20
0.0
 70
     1
 40
0.0
 41
0.0
  0
VERTEX
  8
_BOARD
 10
151.6
 20
172.6
 40
0.0
 41
0.0
  0
VERTEX
  8
_BOARD
 10
196.3
 20
172.6
  0
VERTEX
  8
_BOARD
 10
196.3
 20
172.6
 40
0.0
 41
0.0
 42
0.414
  0
VERTEX
  8
_BOARD
 10
198.6
 20
174.9
  0
VERTEX
  8
_BOARD
 10
198.6
 20
174.9
 40
0.0
 41
0.0
  0
VERTEX
  8
_BOARD
 10
198.6
 20
203.3
  0
VERTEX
  8
_BOARD
 10
198.6
 20
203.3
 40
0.0
 41
0.0
 42
0.414
  0
VERTEX
  8
_BOARD
 10
196.3
 20
205.6
  0
VERTEX
  8
_BOARD
 10
196.3
 20
205.6
 40
0.0
 41
0.0
  0
VERTEX
  8
_BOARD
 10
151.6
 20
205.6
  0
VERTEX
  8
_BOARD
 10
151.6
 20
205.6
 40
0.0
 41
0.0
 42
0.414
  0
VERTEX
  8
_BOARD
 10
149.4
 20
203.3
  0
VERTEX
  8
_BOARD
 10
149.4
 20
203.3
 40
0.0
 41
0.0
  0
VERTEX
  8
_BOARD
 10
149.4
 20
174.9
  0
VERTEX
  8
_BOARD
 10
149.4
 20
174.9
 40
0.0
 41
0.0
 42
0.414
  0
VERTEX
  8
_BOARD
 10
151.6
 20
172.6
 40
0.0
 41
0.0
  0
VERTEX
  8
_BOARD
 10
151.6
 20
172.6
  0
SEQEND
  8
_BOARD
  0
POLYLINE
  8
_BOARD
 66
     1
 62
     3
 10
0.0
 20
0.0
 70
     1
 40
0.0
 41
0.0
  0
VERTEX
  8
_BOARD
 10
219.9
 20
290.1
 40
0.0
 41
0.0
  0
VERTEX
  8
_BOARD
 10
244.1
 20
290.1
  0
VERTEX
  8
_BOARD
 10
244.1
 20
290.1
 40
0.0
 41
0.0
 42
0.414
  0
VERTEX
  8
_BOARD
 10
248.8
 20
294.8
  0
VERTEX
  8
_BOARD
 10
248.8
 20
294.8
 40
0.0
 41
0.0
  0
VERTEX
  8
_BOARD
 10
248.8
 20
333.9
  0
VERTEX
  8
_BOARD
 10
248.8
 20
333.9
 40
0.0
 41
0.0
 42
0.414
  0
VERTEX
  8
_BOARD
 10
242.8
 20
339.9
  0
VERTEX
  8
_BOARD
 10
242.8
 20
339.9
 40
0.0
 41
0.0
  0
VERTEX
  8
_BOARD
 10
221.7
 20
339.9
  0
VERTEX
  8
_BOARD
 10
221.7
 20
339.9
 40
0.0
 41
0.0
 42
0.414
  0
VERTEX
  8
_BOARD
 10
213.8
 20
332.0
  0
VERTEX
  8
_BOARD
 10
213.8
 20
332.0
 40
0.0
 41
0.0
  0
VERTEX
  8
_BOARD
 10
213.8
 20
296.1
  0
VERTEX
  8
_BOARD
 10
213.8
 20
296.1
 40
0.0
 41
0.0
 42
0.477
  0
VERTEX
  8
_BOARD
 10
219.9
 20
290.1
 40
0.0
 41
0.0
  0
VERTEX
  8
_BOARD
 10
219.9
 20
290.1
  0
SEQEND
  8
_BOARD
  0
POLYLINE
  8
_BOARD
 66
     1
 62
     3
 10
0.0
 20
0.0
 70
     1
 40
0.0
 41
0.0
  0
VERTEX
  8
_BOARD
 10
432.0
 20
-0.0
 40
0.0
 41
0.0
  0
VERTEX
  8
_BOARD
 10
432.0
 20
50.5
  0
VERTEX
  8
_BOARD
 10
432.0
 20
50.5
 40
0.0
 41
0.0
  0
VERTEX
  8
_BOARD
 10
409.5
 20
50.5
  0
VERTEX
  8
_BOARD
 10
409.5
 20
50.5
 40
0.0
 41
0.0
 42
-0.414
  0
VERTEX
  8
_BOARD
 10
403.6
 20
56.5
  0
VERTEX
  8
_BOARD
 10
403.6
 20
56.5
 40
0.0
 41
0.0
  0
VERTEX
  8
_BOARD
 10
403.6
 20
121.7
  0
VERTEX
  8
_BOARD
 10
403.6
 20
121.7
 40
0.0
 41
0.0
 42
-0.414
  0
VERTEX
  8
_BOARD
 10
408.9
 20
127.0
  0
VERTEX
  8
_BOARD
 10
408.9
 20
127.0
 40
0.0
 41
0.0
  0
VERTEX
  8
_BOARD
 10
431.7
 20
127.0
  0
VERTEX
  8
_BOARD
 10
431.7
 20
127.0
 40
0.0
 41
0.0
  0
VERTEX
  8
_BOARD
 10
431.7
 20
135.6
  0
VERTEX
  8
_BOARD
 10
431.7
 20
135.6
 40
0.0
 41
0.0
 42
-1.000
  0
VERTEX
  8
_BOARD
 10
431.8
 20
143.8
  0
VERTEX
  8
_BOARD
 10
431.8
 20
143.8
 40
0.0
 41
0.0
  0
VERTEX
  8
_BOARD
 10
431.8
 20
237.4
  0
VERTEX
  8
_BOARD
 10
431.8
 20
237.4
 40
0.0
 41
0.0
 42
-1.000
  0
VERTEX
  8
_BOARD
 10
431.8
 20
245.4
  0
VERTEX
  8
_BOARD
 10
431.8
 20
245.4
 40
0.0
 41
0.0
  0
VERTEX
  8
_BOARD
 10
431.8
 20
258.0
  0
VERTEX
  8
_BOARD
 10
431.8
 20
258.0
 40
0.0
 41
0.0
  0
VERTEX
  8
_BOARD
 10
414.2
 20
258.0
  0
VERTEX
  8
_BOARD
 10
414.2
 20
258.0
 40
0.0
 41
0.0
 42
-0.414
  0
VERTEX
  8
_BOARD
 10
410.5
 20
261.7
  0
VERTEX
  8
_BOARD
 10
410.5
 20
261.7
 40
0.0
 41
0.0
  0
VERTEX
  8
_BOARD
 10
410.5
 20
331.4
  0
VERTEX
  8
_BOARD
 10
410.5
 20
331.4
 40
0.0
 41
0.0
 42
-0.414
  0
VERTEX
  8
_BOARD
 10
414.4
 20
335.3
  0
VERTEX
  8
_BOARD
 10
414.4
 20
335.3
 40
0.0
 41
0.0
  0
VERTEX
  8
_BOARD
 10
432.5
 20
335.3
  0
VERTEX
  8
_BOARD
 10
432.5
 20
335.3
 40
0.0
 41
0.0
  0
VERTEX
  8
_BOARD
 10
432.5
 20
381.0
  0
VERTEX
  8
_BOARD
 10
432.5
 20
381.0
 40
0.0
 41
0.0
  0
VERTEX
  8
_BOARD
 10
-0.4
 20
381.0
  0
VERTEX
  8
_BOARD
 10
-0.4
 20
381.0
 40
0.0
 41
0.0
  0
VERTEX
  8
_BOARD
 10
-0.4
 20
348.0
  0
VERTEX
  8
_BOARD
 10
-0.4
 20
348.0
 40
0.0
 41
0.0
  0
VERTEX
  8
_BOARD
 10
13.6
 20
348.0
  0
VERTEX
  8
_BOARD
 10
13.6
 20
348.0
 40
0.0
 41
0.0
 42
-0.414
  0
VERTEX
  8
_BOARD
 10
15.5
 20
346.0
  0
VERTEX
  8
_BOARD
 10
15.5
 20
346.0
 40
0.0
 41
0.0
  0
VERTEX
  8
_BOARD
 10
15.5
 20
257.7
  0
VERTEX
  8
_BOARD
 10
15.5
 20
257.7
 40
0.0
 41
0.0
 42
-0.414
  0
VERTEX
  8
_BOARD
 10
13.3
 20
255.5
  0
VERTEX
  8
_BOARD
 10
13.3
 20
255.5
 40
0.0
 41
0.0
  0
VERTEX
  8
_BOARD
 10
-0.4
 20
255.5
  0
VERTEX
  8
_BOARD
 10
-0.4
 20
255.5
 40
0.0
 41
0.0
  0
VERTEX
  8
_BOARD
 10
-0.4
 20
245.3
  0
VERTEX
  8
_BOARD
 10
-0.4
 20
245.3
 40
0.0
 41
0.0
  0
VERTEX
  8
_BOARD
 10
-0.3
 20
245.4
  0
VERTEX
  8
_BOARD
 10
-0.3
 20
245.4
 40
0.0
 41
0.0
  0
VERTEX
  8
_BOARD
 10
0.0
 20
245.4
  0
VERTEX
  8
_BOARD
 10
0.0
 20
245.4
 40
0.0
 41
0.0
 42
-1.000
  0
VERTEX
  8
_BOARD
 10
0.0
 20
237.2
  0
VERTEX
  8
_BOARD
 10
0.0
 20
237.2
 40
0.0
 41
0.0
  0
VERTEX
  8
_BOARD
 10
-0.4
 20
237.2
  0
VERTEX
  8
_BOARD
 10
-0.4
 20
237.2
 40
0.0
 41
0.0
  0
VERTEX
  8
_BOARD
 10
-0.4
 20
143.8
  0
VERTEX
  8
_BOARD
 10
-0.4
 20
143.8
 40
0.0
 41
0.0
  0
VERTEX
  8
_BOARD
 10
0.0
 20
143.8
  0
VERTEX
  8
_BOARD
 10
0.0
 20
143.8
 40
0.0
 41
0.0
 42
-1.000
  0
VERTEX
  8
_BOARD
 10
0.0
 20
135.7
  0
VERTEX
  8
_BOARD
 10
0.0
 20
135.7
 40
0.0
 41
0.0
  0
VERTEX
  8
_BOARD
 10
0.0
 20
135.7
  0
VERTEX
  8
_BOARD
 10
0.0
 20
135.7
 40
0.0
 41
0.0
  0
VERTEX
  8
_BOARD
 10
0.0
 20
132.0
  0
VERTEX
  8
_BOARD
 10
0.0
 20
132.0
 40
0.0
 41
0.0
  0
VERTEX
  8
_BOARD
 10
11.6
 20
132.0
  0
VERTEX
  8
_BOARD
 10
11.6
 20
132.0
 40
0.0
 41
0.0
 42
-0.414
  0
VERTEX
  8
_BOARD
 10
15.1
 20
128.5
  0
VERTEX
  8
_BOARD
 10
15.1
 20
128.5
 40
0.0
 41
0.0
  0
VERTEX
  8
_BOARD
 10
15.1
 20
43.9
  0
VERTEX
  8
_BOARD
 10
15.1
 20
43.9
 40
0.0
 41
0.0
 42
-0.414
  0
VERTEX
  8
_BOARD
 10
12.3
 20
41.1
  0
VERTEX
  8
_BOARD
 10
12.3
 20
41.1
 40
0.0
 41
0.0
  0
VERTEX
  8
_BOARD
 10
-0.4
 20
41.1
  0
VERTEX
  8
_BOARD
 10
-0.4
 20
41.1
 40
0.0
 41
0.0
  0
VERTEX
  8
_BOARD
 10
-0.4
 20
-0.0
  0
VERTEX
  8
_BOARD
 10
-0.4
 20
-0.0
 40
0.0
 41
0.0
  0
VERTEX
  8
_BOARD
 10
432.0
 20
-0.0
 40
0.0
 41
0.0
  0
VERTEX
  8
_BOARD
 10
432.0
 20
-0.0
  0
SEQEND
  8
_BOARD
  0
INSERT
  8
_DRILL
  2
_HOLE
 10
126.4
 20
196.1
 41
0.8
 42
0.8
  0
INSERT
  8
_DRILL
  2
_HOLE
 10
124.1
 20
196.1
 41
0.8
 42
0.8
  0
INSERT
  8
_DRILL
  2
_HOLE
 10
121.8
 20
196.1
 41
0.8
 42
0.8
  0
INSERT
  8
_DRILL
  2
_HOLE
 10
110.7
 20
195.6
 41
0.8
 42
0.8
  0
INSERT
  8
_DRILL
  2
_HOLE
 10
108.1
 20
195.6
 41
0.8
 42
0.8
  0
INSERT
  8
_DRILL
  2
_HOLE
 10
105.3
 20
195.6
 41
0.8
 42
0.8
  0
INSERT
  8
_DRILL
  2
_HOLE
 10
144.9
 20
204.6
 41
0.8
 42
0.8
  0
INSERT
  8
_DRILL
  2
_HOLE
 10
123.9
 20
202.9
 41
0.8
 42
0.8
  0
INSERT
  8
_DRILL
  2
_HOLE
 10
327.6
 20
202.5
 41
0.8
 42
0.8
  0
INSERT
  8
_DRILL
  2
_HOLE
 10
325.1
 20
202.5
 41
0.8
 42
0.8
  0
INSERT
  8
_DRILL
  2
_HOLE
 10
322.4
 20
202.5
 41
0.8
 42
0.8
  0
INSERT
  8
_DRILL
  2
_HOLE
 10
327.6
 20
195.9
 41
0.8
 42
0.8
  0
INSERT
  8
_DRILL
  2
_HOLE
 10
325.1
 20
195.9
 41
0.8
 42
0.8
  0
INSERT
  8
_DRILL
  2
_HOLE
 10
322.4
 20
195.9
 41
0.8
 42
0.8
  0
INSERT
  8
_DRILL
  2
_HOLE
 10
343.3
 20
203.0
 41
0.8
 42
0.8
  0
INSERT
  8
_DRILL
  2
_HOLE
 10
343.8
 20
196.4
 41
0.8
 42
0.8
  0
INSERT
  8
_DRILL
  2
_HOLE
 10
341.2
 20
196.4
 41
0.8
 42
0.8
  0
INSERT
  8
_DRILL
  2
_HOLE
 10
338.7
 20
196.4
 41
0.8
 42
0.8
  0
INSERT
  8
_DRILL
  2
_HOLE
 10
24.7
 20
189.9
 41
3.8
 42
3.8
  0
INSERT
  8
_DRILL
  2
_HOLE
 10
350.4
 20
177.0
 41
0.8
 42
0.8
  0
INSERT
  8
_DRILL
  2
_HOLE
 10
347.2
 20
177.0
 41
0.8
 42
0.8
  0
INSERT
  8
_DRILL
  2
_HOLE
 10
344.4
 20
177.0
 41
0.8
 42
0.8
  0
INSERT
  8
_DRILL
  2
_HOLE
 10
334.9
 20
202.8
 41
0.8
 42
0.8
  0
INSERT
  8
_DRILL
  2
_HOLE
 10
331.4
 20
202.8
 41
0.8
 42
0.8
  0
INSERT
  8
_DRILL
  2
_HOLE
 10
116.0
 20
202.3
 41
0.8
 42
0.8
  0
INSERT
  8
_DRILL
  2
_HOLE
 10
113.4
 20
202.2
 41
0.8
 42
0.8
  0
INSERT
  8
_DRILL
  2
_HOLE
 10
216.5
 20
36.6
 41
3.8
 42
3.8
  0
INSERT
  8
_DRILL
  2
_HOLE
 10
216.5
 20
372.9
 41
3.8
 42
3.8
  0
INSERT
  8
_DRILL
  2
_HOLE
 10
350.4
 20
183.8
 41
0.8
 42
0.8
  0
INSERT
  8
_DRILL
  2
_HOLE
 10
347.2
 20
183.8
 41
0.8
 42
0.8
  0
INSERT
  8
_DRILL
  2
_HOLE
 10
344.4
 20
183.8
 41
0.8
 42
0.8
  0
INSERT
  8
_DRILL
  2
_HOLE
 10
346.5
 20
196.3
 41
0.8
 42
0.8
  0
INSERT
  8
_DRILL
  2
_HOLE
 10
352.4
 20
196.3
 41
0.8
 42
0.8
  0
INSERT
  8
_DRILL
  2
_HOLE
 10
349.3
 20
196.3
 41
0.8
 42
0.8
  0
INSERT
  8
_DRILL
  2
_HOLE
 10
335.0
 20
196.6
 41
0.8
 42
0.8
  0
INSERT
  8
_DRILL
  2
_HOLE
 10
331.6
 20
196.6
 41
0.8
 42
0.8
  0
INSERT
  8
_DRILL
  2
_HOLE
 10
134.9
 20
196.0
 41
0.8
 42
0.8
  0
INSERT
  8
_DRILL
  2
_HOLE
 10
132.2
 20
196.0
 41
0.8
 42
0.8
  0
INSERT
  8
_DRILL
  2
_HOLE
 10
129.4
 20
196.0
 41
0.8
 42
0.8
  0
INSERT
  8
_DRILL
  2
_HOLE
 10
118.9
 20
196.0
 41
0.8
 42
0.8
  0
INSERT
  8
_DRILL
  2
_HOLE
 10
116.1
 20
196.0
 41
0.8
 42
0.8
  0
INSERT
  8
_DRILL
  2
_HOLE
 10
113.2
 20
196.0
 41
0.8
 42
0.8
  0
INSERT
  8
_DRILL
  2
_HOLE
 10
133.1
 20
183.3
 41
0.8
 42
0.8
  0
INSERT
  8
_DRILL
  2
_HOLE
 10
130.2
 20
183.3
 41
0.8
 42
0.8
  0
INSERT
  8
_DRILL
  2
_HOLE
 10
127.1
 20
183.3
 41
0.8
 42
0.8
  0
INSERT
  8
_DRILL
  2
_HOLE
 10
134.9
 20
202.8
 41
0.8
 42
0.8
  0
INSERT
  8
_DRILL
  2
_HOLE
 10
118.9
 20
202.3
 41
0.8
 42
0.8
  0
INSERT
  8
_DRILL
  2
_HOLE
 10
329.1
 20
183.9
 41
0.8
 42
0.8
  0
INSERT
  8
_DRILL
  2
_HOLE
 10
325.9
 20
183.9
 41
0.8
 42
0.8
  0
INSERT
  8
_DRILL
  2
_HOLE
 10
323.1
 20
183.9
 41
0.8
 42
0.8
  0
INSERT
  8
_DRILL
  2
_HOLE
 10
111.0
 20
184.3
 41
0.8
 42
0.8
  0
INSERT
  8
_DRILL
  2
_HOLE
 10
106.4
 20
184.3
 41
0.8
 42
0.8
  0
INSERT
  8
_DRILL
  2
_HOLE
 10
417.6
 20
350.2
 41
0.9
 42
0.9
  0
INSERT
  8
_DRILL
  2
_HOLE
 10
417.6
 20
352.8
 41
0.9
 42
0.9
  0
INSERT
  8
_DRILL
  2
_HOLE
 10
417.6
 20
355.3
 41
0.9
 42
0.9
  0
INSERT
  8
_DRILL
  2
_HOLE
 10
219.9
 20
52.5
 41
0.9
 42
0.9
  0
INSERT
  8
_DRILL
  2
_HOLE
 10
217.3
 20
52.5
 41
0.9
 42
0.9
  0
INSERT
  8
_DRILL
  2
_HOLE
 10
214.8
 20
52.5
 41
0.9
 42
0.9
  0
INSERT
  8
_DRILL
  2
_HOLE
 10
394.3
 20
50.1
 41
0.9
 42
0.9
  0
INSERT
  8
_DRILL
  2
_HOLE
 10
391.8
 20
50.1
 41
0.9
 42
0.9
  0
INSERT
  8
_DRILL
  2
_HOLE
 10
389.2
 20
50.1
 41
0.9
 42
0.9
  0
INSERT
  8
_DRILL
  2
_HOLE
 10
223.5
 20
245.4
 41
0.9
 42
0.9
  0
INSERT
  8
_DRILL
  2
_HOLE
 10
223.5
 20
248.0
 41
0.9
 42
0.9
  0
INSERT
  8
_DRILL
  2
_HOLE
 10
223.5
 20
250.5
 41
0.9
 42
0.9
  0
INSERT
  8
_DRILL
  2
_HOLE
 10
40.1
 20
188.3
 41
0.9
 42
0.9
  0
INSERT
  8
_DRILL
  2
_HOLE
 10
40.1
 20
190.8
 41
0.9
 42
0.9
  0
INSERT
  8
_DRILL
  2
_HOLE
 10
40.1
 20
193.3
 41
0.9
 42
0.9
  0
INSERT
  8
_DRILL
  2
_HOLE
 10
405.1
 20
278.1
 41
0.9
 42
0.9
  0
INSERT
  8
_DRILL
  2
_HOLE
 10
309.4
 20
235.4
 41
3.6
 42
3.6
  0
INSERT
  8
_DRILL
  2
_HOLE
 10
416.1
 20
222.7
 41
3.6
 42
3.6
  0
INSERT
  8
_DRILL
  2
_HOLE
 10
416.1
 20
235.4
 41
3.0
 42
3.0
  0
INSERT
  8
_DRILL
  2
_HOLE
 10
230.8
 20
206.6
 41
3.0
 42
3.0
  0
INSERT
  8
_DRILL
  2
_HOLE
 10
242.1
 20
206.6
 41
3.0
 42
3.0
  0
INSERT
  8
_DRILL
  2
_HOLE
 10
416.2
 20
210.0
 41
3.0
 42
3.0
  0
INSERT
  8
_DRILL
  2
_HOLE
 10
96.0
 20
235.4
 41
3.6
 42
3.6
  0
INSERT
  8
_DRILL
  2
_HOLE
 10
202.7
 20
222.7
 41
3.6
 42
3.6
  0
INSERT
  8
_DRILL
  2
_HOLE
 10
202.7
 20
235.4
 41
3.0
 42
3.0
  0
INSERT
  8
_DRILL
  2
_HOLE
 10
17.5
 20
206.6
 41
3.0
 42
3.0
  0
INSERT
  8
_DRILL
  2
_HOLE
 10
28.8
 20
206.6
 41
3.0
 42
3.0
  0
INSERT
  8
_DRILL
  2
_HOLE
 10
202.8
 20
210.0
 41
3.0
 42
3.0
  0
INSERT
  8
_DRILL
  2
_HOLE
 10
96.0
 20
34.7
 41
3.6
 42
3.6
  0
INSERT
  8
_DRILL
  2
_HOLE
 10
202.7
 20
22.0
 41
3.6
 42
3.6
  0
INSERT
  8
_DRILL
  2
_HOLE
 10
202.7
 20
34.7
 41
3.0
 42
3.0
  0
INSERT
  8
_DRILL
  2
_HOLE
 10
17.5
 20
5.9
 41
3.0
 42
3.0
  0
INSERT
  8
_DRILL
  2
_HOLE
 10
28.8
 20
5.9
 41
3.0
 42
3.0
  0
INSERT
  8
_DRILL
  2
_HOLE
 10
202.8
 20
9.3
 41
3.0
 42
3.0
  0
INSERT
  8
_DRILL
  2
_HOLE
 10
309.4
 20
34.7
 41
3.6
 42
3.6
  0
INSERT
  8
_DRILL
  2
_HOLE
 10
416.1
 20
22.0
 41
3.6
 42
3.6
  0
INSERT
  8
_DRILL
  2
_HOLE
 10
416.1
 20
34.7
 41
3.0
 42
3.0
  0
INSERT
  8
_DRILL
  2
_HOLE
 10
230.8
 20
5.9
 41
3.0
 42
3.0
  0
INSERT
  8
_DRILL
  2
_HOLE
 10
242.1
 20
5.9
 41
3.0
 42
3.0
  0
INSERT
  8
_DRILL
  2
_HOLE
 10
416.2
 20
9.3
 41
3.0
 42
3.0
  0
INSERT
  8
_DRILL
  2
_HOLE
 10
419.2
 20
195.7
 41
0.9
 42
0.9
  0
INSERT
  8
_DRILL
  2
_HOLE
 10
419.2
 20
190.6
 41
0.9
 42
0.9
  0
INSERT
  8
_DRILL
  2
_HOLE
 10
416.7
 20
190.6
 41
0.9
 42
0.9
  0
INSERT
  8
_DRILL
  2
_HOLE
 10
416.7
 20
193.1
 41
0.9
 42
0.9
  0
INSERT
  8
_DRILL
  2
_HOLE
 10
416.7
 20
195.7
 41
0.9
 42
0.9
  0
INSERT
  8
_DRILL
  2
_HOLE
 10
358.3
 20
189.3
 41
0.8
 42
0.8
  0
INSERT
  8
_DRILL
  2
_HOLE
 10
358.3
 20
191.8
 41
0.8
 42
0.8
  0
INSERT
  8
_DRILL
  2
_HOLE
 10
142.6
 20
185.7
 41
0.8
 42
0.8
  0
INSERT
  8
_DRILL
  2
_HOLE
 10
142.6
 20
183.2
 41
0.8
 42
0.8
  0
INSERT
  8
_DRILL
  2
_HOLE
 10
297.6
 20
198.4
 41
0.8
 42
0.8
  0
INSERT
  8
_DRILL
  2
_HOLE
 10
297.6
 20
200.9
 41
0.8
 42
0.8
  0
INSERT
  8
_DRILL
  2
_HOLE
 10
395.7
 20
267.3
 41
2.5
 42
2.5
  0
INSERT
  8
_DRILL
  2
_HOLE
 10
395.7
 20
327.0
 41
2.5
 42
2.5
  0
INSERT
  8
_DRILL
  2
_HOLE
 10
400.8
 20
320.7
 41
1.0
 42
1.0
  0
INSERT
  8
_DRILL
  2
_HOLE
 10
400.8
 20
318.1
 41
1.0
 42
1.0
  0
INSERT
  8
_DRILL
  2
_HOLE
 10
398.3
 20
320.7
 41
1.0
 42
1.0
  0
INSERT
  8
_DRILL
  2
_HOLE
 10
398.3
 20
318.1
 41
1.0
 42
1.0
  0
INSERT
  8
_DRILL
  2
_HOLE
 10
395.7
 20
320.7
 41
1.0
 42
1.0
  0
INSERT
  8
_DRILL
  2
_HOLE
 10
395.7
 20
318.1
 41
1.0
 42
1.0
  0
INSERT
  8
_DRILL
  2
_HOLE
 10
393.2
 20
320.7
 41
1.0
 42
1.0
  0
INSERT
  8
_DRILL
  2
_HOLE
 10
393.2
 20
318.1
 41
1.0
 42
1.0
  0
INSERT
  8
_DRILL
  2
_HOLE
 10
400.8
 20
314.3
 41
1.0
 42
1.0
  0
INSERT
  8
_DRILL
  2
_HOLE
 10
400.8
 20
311.8
 41
1.0
 42
1.0
  0
INSERT
  8
_DRILL
  2
_HOLE
 10
398.3
 20
314.3
 41
1.0
 42
1.0
  0
INSERT
  8
_DRILL
  2
_HOLE
 10
398.3
 20
311.8
 41
1.0
 42
1.0
  0
INSERT
  8
_DRILL
  2
_HOLE
 10
395.7
 20
314.3
 41
1.0
 42
1.0
  0
INSERT
  8
_DRILL
  2
_HOLE
 10
395.7
 20
311.8
 41
1.0
 42
1.0
  0
INSERT
  8
_DRILL
  2
_HOLE
 10
393.2
 20
314.3
 41
1.0
 42
1.0
  0
INSERT
  8
_DRILL
  2
_HOLE
 10
393.2
 20
311.8
 41
1.0
 42
1.0
  0
INSERT
  8
_DRILL
  2
_HOLE
 10
400.8
 20
308.0
 41
1.0
 42
1.0
  0
INSERT
  8
_DRILL
  2
_HOLE
 10
400.8
 20
305.4
 41
1.0
 42
1.0
  0
INSERT
  8
_DRILL
  2
_HOLE
 10
398.3
 20
308.0
 41
1.0
 42
1.0
  0
INSERT
  8
_DRILL
  2
_HOLE
 10
398.3
 20
305.4
 41
1.0
 42
1.0
  0
INSERT
  8
_DRILL
  2
_HOLE
 10
395.7
 20
308.0
 41
1.0
 42
1.0
  0
INSERT
  8
_DRILL
  2
_HOLE
 10
395.7
 20
305.4
 41
1.0
 42
1.0
  0
INSERT
  8
_DRILL
  2
_HOLE
 10
393.2
 20
308.0
 41
1.0
 42
1.0
  0
INSERT
  8
_DRILL
  2
_HOLE
 10
393.2
 20
305.4
 41
1.0
 42
1.0
  0
INSERT
  8
_DRILL
  2
_HOLE
 10
400.8
 20
301.6
 41
1.0
 42
1.0
  0
INSERT
  8
_DRILL
  2
_HOLE
 10
400.8
 20
299.1
 41
1.0
 42
1.0
  0
INSERT
  8
_DRILL
  2
_HOLE
 10
398.3
 20
301.6
 41
1.0
 42
1.0
  0
INSERT
  8
_DRILL
  2
_HOLE
 10
398.3
 20
299.1
 41
1.0
 42
1.0
  0
INSERT
  8
_DRILL
  2
_HOLE
 10
395.7
 20
301.6
 41
1.0
 42
1.0
  0
INSERT
  8
_DRILL
  2
_HOLE
 10
395.7
 20
299.1
 41
1.0
 42
1.0
  0
INSERT
  8
_DRILL
  2
_HOLE
 10
393.2
 20
301.6
 41
1.0
 42
1.0
  0
INSERT
  8
_DRILL
  2
_HOLE
 10
393.2
 20
299.1
 41
1.0
 42
1.0
  0
INSERT
  8
_DRILL
  2
_HOLE
 10
400.8
 20
295.3
 41
1.0
 42
1.0
  0
INSERT
  8
_DRILL
  2
_HOLE
 10
400.8
 20
292.7
 41
1.0
 42
1.0
  0
INSERT
  8
_DRILL
  2
_HOLE
 10
398.3
 20
295.3
 41
1.0
 42
1.0
  0
INSERT
  8
_DRILL
  2
_HOLE
 10
398.3
 20
292.7
 41
1.0
 42
1.0
  0
INSERT
  8
_DRILL
  2
_HOLE
 10
395.7
 20
295.3
 41
1.0
 42
1.0
  0
INSERT
  8
_DRILL
  2
_HOLE
 10
395.7
 20
292.7
 41
1.0
 42
1.0
  0
INSERT
  8
_DRILL
  2
_HOLE
 10
393.2
 20
295.3
 41
1.0
 42
1.0
  0
INSERT
  8
_DRILL
  2
_HOLE
 10
393.2
 20
292.7
 41
1.0
 42
1.0
  0
INSERT
  8
_DRILL
  2
_HOLE
 10
400.8
 20
288.9
 41
1.0
 42
1.0
  0
INSERT
  8
_DRILL
  2
_HOLE
 10
400.8
 20
286.4
 41
1.0
 42
1.0
  0
INSERT
  8
_DRILL
  2
_HOLE
 10
398.3
 20
288.9
 41
1.0
 42
1.0
  0
INSERT
  8
_DRILL
  2
_HOLE
 10
398.3
 20
286.4
 41
1.0
 42
1.0
  0
INSERT
  8
_DRILL
  2
_HOLE
 10
395.7
 20
288.9
 41
1.0
 42
1.0
  0
INSERT
  8
_DRILL
  2
_HOLE
 10
395.7
 20
286.4
 41
1.0
 42
1.0
  0
INSERT
  8
_DRILL
  2
_HOLE
 10
393.2
 20
288.9
 41
1.0
 42
1.0
  0
INSERT
  8
_DRILL
  2
_HOLE
 10
393.2
 20
286.4
 41
1.0
 42
1.0
  0
INSERT
  8
_DRILL
  2
_HOLE
 10
400.8
 20
283.2
 41
1.0
 42
1.0
  0
INSERT
  8
_DRILL
  2
_HOLE
 10
400.8
 20
280.7
 41
1.0
 42
1.0
  0
INSERT
  8
_DRILL
  2
_HOLE
 10
400.8
 20
278.1
 41
1.0
 42
1.0
  0
INSERT
  8
_DRILL
  2
_HOLE
 10
400.8
 20
275.6
 41
1.0
 42
1.0
  0
INSERT
  8
_DRILL
  2
_HOLE
 10
400.8
 20
273.1
 41
1.0
 42
1.0
  0
INSERT
  8
_DRILL
  2
_HOLE
 10
398.3
 20
283.2
 41
1.0
 42
1.0
  0
INSERT
  8
_DRILL
  2
_HOLE
 10
398.3
 20
280.7
 41
1.0
 42
1.0
  0
INSERT
  8
_DRILL
  2
_HOLE
 10
398.3
 20
278.1
 41
1.0
 42
1.0
  0
INSERT
  8
_DRILL
  2
_HOLE
 10
398.3
 20
275.6
 41
1.0
 42
1.0
  0
INSERT
  8
_DRILL
  2
_HOLE
 10
398.3
 20
273.1
 41
1.0
 42
1.0
  0
INSERT
  8
_DRILL
  2
_HOLE
 10
395.7
 20
283.2
 41
1.0
 42
1.0
  0
INSERT
  8
_DRILL
  2
_HOLE
 10
395.7
 20
280.7
 41
1.0
 42
1.0
  0
INSERT
  8
_DRILL
  2
_HOLE
 10
395.7
 20
278.1
 41
1.0
 42
1.0
  0
INSERT
  8
_DRILL
  2
_HOLE
 10
395.7
 20
275.6
 41
1.0
 42
1.0
  0
INSERT
  8
_DRILL
  2
_HOLE
 10
395.7
 20
273.1
 41
1.0
 42
1.0
  0
INSERT
  8
_DRILL
  2
_HOLE
 10
393.2
 20
283.2
 41
1.0
 42
1.0
  0
INSERT
  8
_DRILL
  2
_HOLE
 10
393.2
 20
280.7
 41
1.0
 42
1.0
  0
INSERT
  8
_DRILL
  2
_HOLE
 10
393.2
 20
278.1
 41
1.0
 42
1.0
  0
INSERT
  8
_DRILL
  2
_HOLE
 10
393.2
 20
275.6
 41
1.0
 42
1.0
  0
INSERT
  8
_DRILL
  2
_HOLE
 10
393.2
 20
273.1
 41
1.0
 42
1.0
  0
INSERT
  8
_DRILL
  2
_HOLE
 10
85.7
 20
182.1
 41
0.9
 42
0.9
  0
INSERT
  8
_DRILL
  2
_HOLE
 10
100.3
 20
182.6
 41
0.9
 42
0.9
  0
INSERT
  8
_DRILL
  2
_HOLE
 10
91.6
 20
197.0
 41
1.0
 42
1.0
  0
INSERT
  8
_DRILL
  2
_HOLE
 10
91.6
 20
189.4
 41
1.0
 42
1.0
  0
INSERT
  8
_DRILL
  2
_HOLE
 10
139.1
 20
200.2
 41
0.9
 42
0.9
  0
INSERT
  8
_DRILL
  2
_HOLE
 10
144.7
 20
200.0
 41
0.9
 42
0.9
  0
INSERT
  8
_DRILL
  2
_HOLE
 10
302.3
 20
182.4
 41
0.9
 42
0.9
  0
INSERT
  8
_DRILL
  2
_HOLE
 10
316.7
 20
182.1
 41
0.9
 42
0.9
  0
INSERT
  8
_DRILL
  2
_HOLE
 10
311.4
 20
196.5
 41
1.0
 42
1.0
  0
INSERT
  8
_DRILL
  2
_HOLE
 10
311.4
 20
188.8
 41
1.0
 42
1.0
  0
INSERT
  8
_DRILL
  2
_HOLE
 10
357.2
 20
198.9
 41
0.9
 42
0.9
  0
INSERT
  8
_DRILL
  2
_HOLE
 10
361.5
 20
201.0
 41
0.9
 42
0.9
  0
INSERT
  8
_DRILL
  2
_HOLE
 10
301.4
 20
63.3
 41
2.9
 42
2.9
  0
INSERT
  8
_DRILL
  2
_HOLE
 10
232.8
 20
63.3
 41
2.9
 42
2.9
  0
INSERT
  8
_DRILL
  2
_HOLE
 10
232.8
 20
159.8
 41
2.9
 42
2.9
  0
INSERT
  8
_DRILL
  2
_HOLE
 10
301.4
 20
159.8
 41
2.9
 42
2.9
  0
INSERT
  8
_DRILL
  2
_HOLE
 10
88.0
 20
63.3
 41
2.9
 42
2.9
  0
INSERT
  8
_DRILL
  2
_HOLE
 10
88.0
 20
159.8
 41
2.9
 42
2.9
  0
INSERT
  8
_DRILL
  2
_HOLE
 10
19.4
 20
63.3
 41
2.9
 42
2.9
  0
INSERT
  8
_DRILL
  2
_HOLE
 10
19.4
 20
159.8
 41
2.9
 42
2.9
  0
INSERT
  8
_DRILL
  2
_HOLE
 10
301.4
 20
263.9
 41
2.9
 42
2.9
  0
INSERT
  8
_DRILL
  2
_HOLE
 10
301.4
 20
360.4
 41
2.9
 42
2.9
  0
INSERT
  8
_DRILL
  2
_HOLE
 10
232.8
 20
263.9
 41
2.9
 42
2.9
  0
INSERT
  8
_DRILL
  2
_HOLE
 10
232.8
 20
360.4
 41
2.9
 42
2.9
  0
INSERT
  8
_DRILL
  2
_HOLE
 10
88.0
 20
360.4
 41
2.9
 42
2.9
  0
INSERT
  8
_DRILL
  2
_HOLE
 10
88.0
 20
263.9
 41
2.9
 42
2.9
  0
INSERT
  8
_DRILL
  2
_HOLE
 10
19.4
 20
263.9
 41
2.9
 42
2.9
  0
INSERT
  8
_DRILL
  2
_HOLE
 10
19.4
 20
360.4
 41
2.9
 42
2.9
  0
INSERT
  8
_DRILL
  2
_HOLE
 10
83.0
 20
253.8
 41
0.8
 42
0.8
  0
INSERT
  8
_DRILL
  2
_HOLE
 10
24.5
 20
253.8
 41
0.8
 42
0.8
  0
INSERT
  8
_DRILL
  2
_HOLE
 10
301.4
 20
58.2
 41
2.9
 42
2.9
  0
INSERT
  8
_DRILL
  2
_HOLE
 10
301.4
 20
154.7
 41
2.9
 42
2.9
  0
INSERT
  8
_DRILL
  2
_HOLE
 10
232.8
 20
58.2
 41
2.9
 42
2.9
  0
INSERT
  8
_DRILL
  2
_HOLE
 10
232.8
 20
154.7
 41
2.9
 42
2.9
  0
INSERT
  8
_DRILL
  2
_HOLE
 10
88.0
 20
58.2
 41
2.9
 42
2.9
  0
INSERT
  8
_DRILL
  2
_HOLE
 10
88.0
 20
154.7
 41
2.9
 42
2.9
  0
INSERT
  8
_DRILL
  2
_HOLE
 10
19.4
 20
58.2
 41
2.9
 42
2.9
  0
INSERT
  8
_DRILL
  2
_HOLE
 10
19.4
 20
154.7
 41
2.9
 42
2.9
  0
INSERT
  8
_DRILL
  2
_HOLE
 10
301.4
 20
258.8
 41
2.9
 42
2.9
  0
INSERT
  8
_DRILL
  2
_HOLE
 10
301.4
 20
355.4
 41
2.9
 42
2.9
  0
INSERT
  8
_DRILL
  2
_HOLE
 10
232.8
 20
258.8
 41
2.9
 42
2.9
  0
INSERT
  8
_DRILL
  2
_HOLE
 10
232.8
 20
355.4
 41
2.9
 42
2.9
  0
INSERT
  8
_DRILL
  2
_HOLE
 10
19.4
 20
258.8
 41
2.9
 42
2.9
  0
INSERT
  8
_DRILL
  2
_HOLE
 10
88.0
 20
258.8
 41
2.9
 42
2.9
  0
INSERT
  8
_DRILL
  2
_HOLE
 10
19.4
 20
355.4
 41
2.9
 42
2.9
  0
INSERT
  8
_DRILL
  2
_HOLE
 10
88.0
 20
355.4
 41
2.9
 42
2.9
  0
INSERT
  8
_DRILL
  2
_HOLE
 10
416.2
 20
375.1
 41
2.9
 42
2.9
  0
INSERT
  8
_DRILL
  2
_HOLE
 10
309.4
 20
349.7
 41
3.6
 42
3.6
  0
INSERT
  8
_DRILL
  2
_HOLE
 10
242.1
 20
371.7
 41
2.9
 42
2.9
  0
INSERT
  8
_DRILL
  2
_HOLE
 10
202.8
 20
375.0
 41
2.9
 42
2.9
  0
INSERT
  8
_DRILL
  2
_HOLE
 10
96.0
 20
349.7
 41
3.6
 42
3.6
  0
INSERT
  8
_DRILL
  2
_HOLE
 10
28.7
 20
371.7
 41
2.9
 42
2.9
  0
INSERT
  8
_DRILL
  2
_HOLE
 10
416.2
 20
174.4
 41
2.9
 42
2.9
  0
INSERT
  8
_DRILL
  2
_HOLE
 10
309.4
 20
149.0
 41
3.6
 42
3.6
  0
INSERT
  8
_DRILL
  2
_HOLE
 10
242.1
 20
171.0
 41
2.9
 42
2.9
  0
INSERT
  8
_DRILL
  2
_HOLE
 10
96.0
 20
149.0
 41
3.6
 42
3.6
  0
INSERT
  8
_DRILL
  2
_HOLE
 10
202.8
 20
174.4
 41
2.9
 42
2.9
  0
INSERT
  8
_DRILL
  2
_HOLE
 10
28.7
 20
171.0
 41
2.9
 42
2.9
  0
INSERT
  8
_DRILL
  2
_HOLE
 10
3.8
 20
15.2
 41
3.8
 42
3.8
  0
INSERT
  8
_DRILL
  2
_HOLE
 10
428.0
 20
15.2
 41
3.8
 42
3.8
  0
INSERT
  8
_DRILL
  2
_HOLE
 10
428.0
 20
365.8
 41
3.8
 42
3.8
  0
INSERT
  8
_DRILL
  2
_HOLE
 10
3.8
 20
365.8
 41
3.8
 42
3.8
  0
ENDSEC
  0
EOF
