G04 EasyPC Gerber Version 21.0.3 Build 4286 *
G04 #@! TF.Part,Single*
G04 #@! TF.FileFunction,Copper,L3,Inr *
G04 #@! TF.FilePolarity,Positive *
%FSLAX35Y35*%
%MOIN*%
G04 #@! TA.AperFunction,ComponentPad*
%ADD23R,0.06000X0.06000*%
G04 #@! TD.AperFunction*
%ADD18C,0.00500*%
%ADD28C,0.05000*%
G04 #@! TA.AperFunction,WasherPad*
%ADD22C,0.05600*%
G04 #@! TA.AperFunction,ComponentPad*
%ADD25C,0.06000*%
%ADD26C,0.07874*%
%ADD24C,0.10000*%
G04 #@! TA.AperFunction,WasherPad*
%ADD21C,0.18000*%
%ADD71C,0.20000*%
%ADD19C,0.24000*%
%ADD70C,0.25000*%
G04 #@! TA.AperFunction,ViaPad*
%ADD27C,0.30000*%
G04 #@! TA.AperFunction,WasherPad*
%ADD20C,0.35000*%
X0Y0D02*
D02*
D18*
X8750Y68093D02*
Y13150D01*
X1706150*
Y65902*
G75*
G02X1678500Y70750I-13400J4848*
G01*
G75*
G02X1706150Y75598I14250*
G01*
Y207250*
X1620150*
G75*
G02X1594250Y233150J25900*
G01*
Y489850*
G75*
G02X1617550Y513150I23300*
G01*
X1704750*
Y542447*
G75*
G02X1705150Y579108I2700J18303*
G01*
Y942922*
G75*
G02Y979078I2500J18078*
G01*
Y1024050*
X1638450*
G75*
G02X1621350Y1041150J17100*
G01*
Y1315350*
G75*
G02X1639250Y1333250I17900*
G01*
X1708050*
Y1508250*
X8750*
Y1453407*
G75*
G02X37000Y1450750I14000J-2657*
G01*
G75*
G02X8750Y1448093I-14250*
G01*
Y1383250*
X61250*
G75*
G02X71450Y1373050J-10200*
G01*
Y1025450*
G75*
G02X60050Y1014050I-11400*
G01*
X8850*
Y979223*
G75*
G02X8750Y942272I-1000J-18473*
G01*
Y579428*
G75*
G02X10250Y542506I-900J-18528*
G01*
Y533050*
X53550*
G75*
G02X69850Y516750J-16300*
G01*
Y183550*
G75*
G02X56250Y169950I-13600*
G01*
X8750*
Y73407*
G75*
G02X37000Y70750I14000J-2657*
G01*
G75*
G02X8750Y68093I-14250*
G01*
X72910Y259800D02*
G75*
G02X95410I11250D01*
G01*
G75*
G02X89314Y249800I-11250*
G01*
G75*
G02X95410Y239800I-5154J-10000*
G01*
G75*
G02X72910I-11250*
G01*
G75*
G02X79006Y249800I11250*
G01*
G75*
G02X72910Y259800I5154J10000*
G01*
Y639800D02*
G75*
G02X95410I11250D01*
G01*
G75*
G02X89314Y629800I-11250*
G01*
G75*
G02X95410Y619800I-5154J-10000*
G01*
G75*
G02X72910I-11250*
G01*
G75*
G02X79006Y629800I11250*
G01*
G75*
G02X72910Y639800I5154J10000*
G01*
Y1049800D02*
G75*
G02X95410I11250D01*
G01*
G75*
G02X89314Y1039800I-11250*
G01*
G75*
G02X95410Y1029800I-5154J-10000*
G01*
G75*
G02X72910I-11250*
G01*
G75*
G02X79006Y1039800I11250*
G01*
G75*
G02X72910Y1049800I5154J10000*
G01*
X87900Y758250D02*
G75*
G02X122400I17250D01*
G01*
G75*
G02X87900I-17250*
G01*
X106000Y684150D02*
G75*
G02X135500I14750D01*
G01*
G75*
G02X106000I-14750*
G01*
X106300Y34150D02*
G75*
G02X135800I14750D01*
G01*
G75*
G02X106300I-14750*
G01*
X72910Y1429800D02*
G75*
G02X95410I11250D01*
G01*
G75*
G02X89314Y1419800I-11250*
G01*
G75*
G02X95410Y1409800I-5154J-10000*
G01*
G75*
G02X72910I-11250*
G01*
G75*
G02X79006Y1419800I11250*
G01*
G75*
G02X72910Y1429800I5154J10000*
G01*
X99110Y1009800D02*
G75*
G02X109210I5050D01*
G01*
G75*
G02X99110I-5050*
G01*
X106300Y824150D02*
G75*
G02X135800I14750D01*
G01*
G75*
G02X106300I-14750*
G01*
X106000Y1474150D02*
G75*
G02X135500I14750D01*
G01*
G75*
G02X106000I-14750*
G01*
X160199Y777199D02*
X170699D01*
Y746699*
X160199*
Y777199*
X329350Y1009800D02*
G75*
G02X339450I5050D01*
G01*
G75*
G02X329350I-5050*
G01*
X340000Y733000D02*
X350500D01*
Y722500*
X340000*
Y733000*
X343150Y259800D02*
G75*
G02X365650I11250D01*
G01*
G75*
G02X359554Y249800I-11250*
G01*
G75*
G02X365650Y239800I-5154J-10000*
G01*
G75*
G02X343150I-11250*
G01*
G75*
G02X349246Y249800I11250*
G01*
G75*
G02X343150Y259800I5154J10000*
G01*
Y639800D02*
G75*
G02X365650I11250D01*
G01*
G75*
G02X359554Y629800I-11250*
G01*
G75*
G02X365650Y619800I-5154J-10000*
G01*
G75*
G02X343150I-11250*
G01*
G75*
G02X349246Y629800I11250*
G01*
G75*
G02X343150Y639800I5154J10000*
G01*
Y1049800D02*
G75*
G02X365650I11250D01*
G01*
G75*
G02X359554Y1039800I-11250*
G01*
G75*
G02X365650Y1029800I-5154J-10000*
G01*
G75*
G02X343150I-11250*
G01*
G75*
G02X349246Y1039800I11250*
G01*
G75*
G02X343150Y1049800I5154J10000*
G01*
X361000Y786250D02*
G75*
G02X375500I7250D01*
G01*
G75*
G02X361000I-7250*
G01*
X385750Y167100D02*
G75*
G02X405500Y147350J-19750D01*
G01*
G75*
G02X385750Y127600I-19750*
G01*
G75*
G02X366000Y147350J19750*
G01*
G75*
G02X385750Y167100I19750*
G01*
X343150Y1429800D02*
G75*
G02X365650I11250D01*
G01*
G75*
G02X359554Y1419800I-11250*
G01*
G75*
G02X365650Y1409800I-5154J-10000*
G01*
G75*
G02X343150I-11250*
G01*
G75*
G02X349246Y1419800I11250*
G01*
G75*
G02X343150Y1429800I5154J10000*
G01*
X385750Y957100D02*
G75*
G02X405500Y937350J-19750D01*
G01*
G75*
G02X385750Y917600I-19750*
G01*
G75*
G02X366000Y937350J19750*
G01*
G75*
G02X385750Y957100I19750*
G01*
X417200Y780750D02*
G75*
G02X427300I5050D01*
G01*
G75*
G02X417200I-5050*
G01*
X428200D02*
G75*
G02X438300I5050D01*
G01*
G75*
G02X428200I-5050*
G01*
X448259Y783023D02*
G75*
G02X458300Y782250I4991J-773D01*
G01*
G75*
G02X448741Y779977I-5050*
G01*
G75*
G02X438700Y780750I-4991J773*
G01*
G75*
G02X448259Y783023I5050*
G01*
X459236Y807652D02*
G75*
G02X469300Y807050I5014J-602D01*
G01*
G75*
G02X459264Y806248I-5050*
G01*
G75*
G02X449200Y806850I-5014J602*
G01*
G75*
G02X459236Y807652I5050*
G01*
X459700Y782250D02*
G75*
G02X469800I5050D01*
G01*
G75*
G02X459700I-5050*
G01*
X470700D02*
G75*
G02X480800I5050D01*
G01*
G75*
G02X470700I-5050*
G01*
X471000Y807050D02*
G75*
G02X481100I5050D01*
G01*
G75*
G02X471000I-5050*
G01*
X500699Y785139D02*
G75*
G02X510300Y782950I4551J-2189D01*
G01*
G75*
G02X500801Y780561I-5050*
G01*
G75*
G02X491850Y780272I-4551J2189*
G01*
G75*
G02X482400Y782750I-4400J2478*
G01*
G75*
G02X491850Y785228I5050*
G01*
G75*
G02X500699Y785139I4400J-2478*
G01*
X503200Y732250D02*
G75*
G02X513300I5050D01*
G01*
G75*
G02X503200I-5050*
G01*
X490600Y809750D02*
G75*
G02X500700I5050D01*
G01*
G75*
G02X490600I-5050*
G01*
X512000Y782250D02*
G75*
G02X522100I5050D01*
G01*
G75*
G02X512000I-5050*
G01*
X515200Y732550D02*
G75*
G02X525300I5050D01*
G01*
G75*
G02X515200I-5050*
G01*
X523200Y782250D02*
G75*
G02X533300I5050D01*
G01*
G75*
G02X523200I-5050*
G01*
X526800Y732550D02*
G75*
G02X536900I5050D01*
G01*
G75*
G02X526800I-5050*
G01*
X533700Y809350D02*
G75*
G02X543800I5050D01*
G01*
G75*
G02X533700I-5050*
G01*
X533800Y782250D02*
G75*
G02X543900I5050D01*
G01*
G75*
G02X533800I-5050*
G01*
X550000Y804000D02*
X560500D01*
Y793500*
X550000*
Y804000*
X562963Y741850D02*
G75*
G02X575337I6187D01*
G01*
G75*
G02X572794Y736850I-6187*
G01*
G75*
G02X569150Y725663I-3644J-5000*
G01*
G75*
G02X565506Y736850J6187*
G01*
G75*
G02X562963Y741850I3644J5000*
G01*
X572199Y803500D02*
X582699D01*
Y793000*
X572199*
Y803500*
X573100Y816250D02*
G75*
G02X583200I5050D01*
G01*
G75*
G02X573100I-5050*
G01*
X780650Y822550D02*
G75*
G02X792150Y811050J-11500D01*
G01*
Y699150*
G75*
G02X780650Y687650I-11500*
G01*
X604750*
G75*
G02X593250Y699150J11500*
G01*
Y811050*
G75*
G02X604750Y822550I11500*
G01*
X780650*
X805750Y117100D02*
G75*
G02X825500Y97350J-19750D01*
G01*
G75*
G02X805750Y77600I-19750*
G01*
G75*
G02X786000Y97350J19750*
G01*
G75*
G02X805750Y117100I19750*
G01*
X791500Y47350D02*
G75*
G02X821000I14750D01*
G01*
G75*
G02X791500I-14750*
G01*
X805750Y167100D02*
G75*
G02X825500Y147350J-19750D01*
G01*
G75*
G02X805750Y127600I-19750*
G01*
G75*
G02X786000Y147350J19750*
G01*
G75*
G02X805750Y167100I19750*
G01*
Y907100D02*
G75*
G02X825500Y887350J-19750D01*
G01*
G75*
G02X805750Y867600I-19750*
G01*
G75*
G02X786000Y887350J19750*
G01*
G75*
G02X805750Y907100I19750*
G01*
X791500Y837350D02*
G75*
G02X821000I14750D01*
G01*
G75*
G02X791500I-14750*
G01*
X793800Y697250D02*
G75*
G02X818300I12250D01*
G01*
G75*
G02X793800I-12250*
G01*
X805750Y957100D02*
G75*
G02X825500Y937350J-19750D01*
G01*
G75*
G02X805750Y917600I-19750*
G01*
G75*
G02X786000Y937350J19750*
G01*
G75*
G02X805750Y957100I19750*
G01*
X791300Y1487250D02*
G75*
G02X820800I14750D01*
G01*
G75*
G02X791300I-14750*
G01*
X946292Y534506D02*
G75*
G02X972450Y508348J-26158D01*
G01*
Y354650*
G75*
G02X951350Y333550I-21100*
G01*
X855978*
G75*
G02X829532Y357496I-2381J23946*
G01*
G75*
G02X829650Y359878I24067*
G01*
Y501064*
G75*
G02X863092Y534506I33442*
G01*
X946292*
X912910Y259800D02*
G75*
G02X935410I11250D01*
G01*
G75*
G02X929314Y249800I-11250*
G01*
G75*
G02X935410Y239800I-5154J-10000*
G01*
G75*
G02X912910I-11250*
G01*
G75*
G02X919006Y249800I11250*
G01*
G75*
G02X912910Y259800I5154J10000*
G01*
X946300Y34150D02*
G75*
G02X975800I14750D01*
G01*
G75*
G02X946300I-14750*
G01*
X843000Y154950D02*
G75*
G02X877500I17250D01*
G01*
G75*
G02X843000I-17250*
G01*
X848199Y222801D02*
X878699D01*
Y212301*
X848199*
Y222801*
X843000Y1479050D02*
G75*
G02X877500I17250D01*
G01*
G75*
G02X843000I-17250*
G01*
X963792Y1351306D02*
G75*
G02X989950Y1325148J-26158D01*
G01*
Y1171450*
G75*
G02X968850Y1150350I-21100*
G01*
X873478*
G75*
G02X847032Y1174296I-2381J23946*
G01*
G75*
G02X847150Y1176678I24067*
G01*
Y1317864*
G75*
G02X880592Y1351306I33442*
G01*
X963792*
X882301Y1002301D02*
X892801D01*
Y971801*
X882301*
Y1002301*
X912910Y639800D02*
G75*
G02X935410I11250D01*
G01*
G75*
G02X929314Y629800I-11250*
G01*
G75*
G02X935410Y619800I-5154J-10000*
G01*
G75*
G02X912910I-11250*
G01*
G75*
G02X919006Y629800I11250*
G01*
G75*
G02X912910Y639800I5154J10000*
G01*
Y1049800D02*
G75*
G02X935410I11250D01*
G01*
G75*
G02X929314Y1039800I-11250*
G01*
G75*
G02X935410Y1029800I-5154J-10000*
G01*
G75*
G02X912910I-11250*
G01*
G75*
G02X919006Y1039800I11250*
G01*
G75*
G02X912910Y1049800I5154J10000*
G01*
X946100Y684150D02*
G75*
G02X975600I14750D01*
G01*
G75*
G02X946100I-14750*
G01*
X946300Y824150D02*
G75*
G02X975800I14750D01*
G01*
G75*
G02X946300I-14750*
G01*
X912910Y1429800D02*
G75*
G02X935410I11250D01*
G01*
G75*
G02X929314Y1419800I-11250*
G01*
G75*
G02X935410Y1409800I-5154J-10000*
G01*
G75*
G02X912910I-11250*
G01*
G75*
G02X919006Y1419800I11250*
G01*
G75*
G02X912910Y1429800I5154J10000*
G01*
X946100Y1474250D02*
G75*
G02X975600I14750D01*
G01*
G75*
G02X946100I-14750*
G01*
X1173063Y801750D02*
G75*
G02X1185437I6187D01*
G01*
G75*
G02X1182894Y796750I-6187*
G01*
G75*
G02X1179250Y785563I-3644J-5000*
G01*
G75*
G02X1175606Y796750J6187*
G01*
G75*
G02X1173063Y801750I3644J5000*
G01*
X1183150Y259800D02*
G75*
G02X1205650I11250D01*
G01*
G75*
G02X1199554Y249800I-11250*
G01*
G75*
G02X1205650Y239800I-5154J-10000*
G01*
G75*
G02X1183150I-11250*
G01*
G75*
G02X1189246Y249800I11250*
G01*
G75*
G02X1183150Y259800I5154J10000*
G01*
Y639800D02*
G75*
G02X1205650I11250D01*
G01*
G75*
G02X1199554Y629800I-11250*
G01*
G75*
G02X1205650Y619800I-5154J-10000*
G01*
G75*
G02X1183150I-11250*
G01*
G75*
G02X1189246Y629800I11250*
G01*
G75*
G02X1183150Y639800I5154J10000*
G01*
Y1049800D02*
G75*
G02X1205650I11250D01*
G01*
G75*
G02X1199554Y1039800I-11250*
G01*
G75*
G02X1205650Y1029800I-5154J-10000*
G01*
G75*
G02X1183150I-11250*
G01*
G75*
G02X1189246Y1039800I11250*
G01*
G75*
G02X1183150Y1049800I5154J10000*
G01*
X1192500Y734000D02*
X1203000D01*
Y723500*
X1192500*
Y734000*
X1183150Y1429800D02*
G75*
G02X1205650I11250D01*
G01*
G75*
G02X1199554Y1419800I-11250*
G01*
G75*
G02X1205650Y1409800I-5154J-10000*
G01*
G75*
G02X1183150I-11250*
G01*
G75*
G02X1189246Y1419800I11250*
G01*
G75*
G02X1183150Y1429800I5154J10000*
G01*
X1206000Y147350D02*
G75*
G02X1245500I19750D01*
G01*
G75*
G02X1225750Y127600I-19750*
G01*
G75*
G02X1206000Y147350J19750*
G01*
X1225750Y957100D02*
G75*
G02X1245500Y937350J-19750D01*
G01*
G75*
G02X1225750Y917600I-19750*
G01*
G75*
G02X1206000Y937350J19750*
G01*
G75*
G02X1225750Y957100I19750*
G01*
X1226500Y784250D02*
G75*
G02X1241000I7250D01*
G01*
G75*
G02X1226500I-7250*
G01*
X1271800Y782150D02*
G75*
G02X1281900I5050D01*
G01*
G75*
G02X1271800I-5050*
G01*
Y808150D02*
G75*
G02X1281900I5050D01*
G01*
G75*
G02X1271800I-5050*
G01*
X1292650Y782859D02*
G75*
G02X1302700Y782150I5000J-709D01*
G01*
G75*
G02X1292650Y781441I-5050*
G01*
G75*
G02X1282600Y782150I-5000J709*
G01*
G75*
G02X1292650Y782859I5050*
G01*
Y808859D02*
G75*
G02X1302700Y808150I5000J-709D01*
G01*
G75*
G02X1292650Y807441I-5050*
G01*
G75*
G02X1282600Y808150I-5000J709*
G01*
G75*
G02X1292650Y808859I5050*
G01*
X1307600Y809250D02*
G75*
G02X1317700I5050D01*
G01*
G75*
G02X1307600I-5050*
G01*
X1308200Y784750D02*
G75*
G02X1318300I5050D01*
G01*
G75*
G02X1308200I-5050*
G01*
X1321100Y809250D02*
G75*
G02X1331200I5050D01*
G01*
G75*
G02X1321100I-5050*
G01*
X1321700Y784750D02*
G75*
G02X1331800I5050D01*
G01*
G75*
G02X1321700I-5050*
G01*
X1336100Y783850D02*
G75*
G02X1346200I5050D01*
G01*
G75*
G02X1336100I-5050*
G01*
X1356250Y784559D02*
G75*
G02X1366300Y783850I5000J-709D01*
G01*
G75*
G02X1356250Y783141I-5050*
G01*
G75*
G02X1346200Y783850I-5000J709*
G01*
G75*
G02X1356250Y784559I5050*
G01*
X1358700Y707550D02*
G75*
G02X1368800I5050D01*
G01*
G75*
G02X1358700I-5050*
G01*
Y734250D02*
G75*
G02X1368800I5050D01*
G01*
G75*
G02X1358700I-5050*
G01*
X1354300Y809950D02*
G75*
G02X1364400I5050D01*
G01*
G75*
G02X1354300I-5050*
G01*
X1366700Y783750D02*
G75*
G02X1376800I5050D01*
G01*
G75*
G02X1366700I-5050*
G01*
X1369700Y707550D02*
G75*
G02X1379800I5050D01*
G01*
G75*
G02X1369700I-5050*
G01*
Y734250D02*
G75*
G02X1379800I5050D01*
G01*
G75*
G02X1369700I-5050*
G01*
X1377700Y783750D02*
G75*
G02X1387800I5050D01*
G01*
G75*
G02X1377700I-5050*
G01*
X1382200Y707550D02*
G75*
G02X1392300I5050D01*
G01*
G75*
G02X1382200I-5050*
G01*
Y734250D02*
G75*
G02X1392300I5050D01*
G01*
G75*
G02X1382200I-5050*
G01*
X1390200Y783750D02*
G75*
G02X1400300I5050D01*
G01*
G75*
G02X1390200I-5050*
G01*
X1408900Y799199D02*
X1419400D01*
Y788699*
X1408900*
Y799199*
X1412363Y766050D02*
G75*
G02X1424737I6187D01*
G01*
G75*
G02X1422194Y761050I-6187*
G01*
G75*
G02X1418550Y749863I-3644J-5000*
G01*
G75*
G02X1414906Y761050J6187*
G01*
G75*
G02X1412363Y766050I3644J5000*
G01*
X1425600Y807500D02*
X1436100D01*
Y797000*
X1425600*
Y807500*
X1633950Y698356D02*
G75*
G02X1658400Y697250I12200J-1106D01*
G01*
G75*
G02X1633940Y696264I-12250*
G01*
G75*
G02X1622450Y685250I-11490J486*
G01*
X1453850*
G75*
G02X1442350Y696750J11500*
G01*
Y808650*
G75*
G02X1453850Y820150I11500*
G01*
X1622450*
G75*
G02X1633950Y808650J-11500*
G01*
Y698356*
X1534900Y213199D02*
X1565400D01*
Y202699*
X1534900*
Y213199*
X1580750Y1127351D02*
G75*
G02X1591000Y1125750I5000J-1601D01*
G01*
G75*
G02X1587351Y1120750I-5250*
G01*
G75*
G02Y1110750I-1601J-5000*
G01*
G75*
G02Y1100750I-1601J-5000*
G01*
G75*
G02Y1090750I-1601J-5000*
G01*
G75*
G02X1585750Y1080500I-1601J-5000*
G01*
G75*
G02X1580750Y1084149J5250*
G01*
G75*
G02X1570750I-5000J1601*
G01*
G75*
G02X1560750I-5000J1601*
G01*
G75*
G02X1550500Y1085750I-5000J1601*
G01*
G75*
G02X1554149Y1090750I5250*
G01*
G75*
G02Y1100750I1601J5000*
G01*
G75*
G02X1555750Y1111000I1601J5000*
G01*
G75*
G02X1560750Y1107351J-5250*
G01*
G75*
G02X1564149Y1110750I5000J-1601*
G01*
G75*
G02Y1120750I1601J5000*
G01*
G75*
G02X1560750Y1124149I1601J5000*
G01*
G75*
G02X1550500Y1125750I-5000J1601*
G01*
G75*
G02X1560750Y1127351I5250*
G01*
G75*
G02X1570750I5000J-1601*
G01*
G75*
G02X1580750I5000J-1601*
G01*
X1565750Y1070400D02*
G75*
G02X1572900Y1063250J-7150D01*
G01*
G75*
G02X1565750Y1056100I-7150*
G01*
G75*
G02X1558600Y1063250J7150*
G01*
G75*
G02X1565750Y1070400I7150*
G01*
X1580750Y1149851D02*
G75*
G02X1591000Y1148250I5000J-1601D01*
G01*
G75*
G02X1587351Y1143250I-5250*
G01*
G75*
G02X1585750Y1133000I-1601J-5000*
G01*
G75*
G02X1580750Y1136649J5250*
G01*
G75*
G02X1570750I-5000J1601*
G01*
G75*
G02X1560750I-5000J1601*
G01*
G75*
G02X1550500Y1138250I-5000J1601*
G01*
G75*
G02X1554149Y1143250I5250*
G01*
G75*
G02X1555750Y1153500I1601J5000*
G01*
G75*
G02X1560750Y1149851J-5250*
G01*
G75*
G02X1570750I5000J-1601*
G01*
G75*
G02X1580750I5000J-1601*
G01*
Y1174851D02*
G75*
G02X1591000Y1173250I5000J-1601D01*
G01*
G75*
G02X1587351Y1168250I-5250*
G01*
G75*
G02X1585750Y1158000I-1601J-5000*
G01*
G75*
G02X1580750Y1161649J5250*
G01*
G75*
G02X1570750I-5000J1601*
G01*
G75*
G02X1560750I-5000J1601*
G01*
G75*
G02X1550500Y1163250I-5000J1601*
G01*
G75*
G02X1554149Y1168250I5250*
G01*
G75*
G02X1555750Y1178500I1601J5000*
G01*
G75*
G02X1560750Y1174851J-5250*
G01*
G75*
G02X1570750I5000J-1601*
G01*
G75*
G02X1580750I5000J-1601*
G01*
Y1199851D02*
G75*
G02X1591000Y1198250I5000J-1601D01*
G01*
G75*
G02X1587351Y1193250I-5250*
G01*
G75*
G02X1585750Y1183000I-1601J-5000*
G01*
G75*
G02X1580750Y1186649J5250*
G01*
G75*
G02X1570750I-5000J1601*
G01*
G75*
G02X1560750I-5000J1601*
G01*
G75*
G02X1550500Y1188250I-5000J1601*
G01*
G75*
G02X1554149Y1193250I5250*
G01*
G75*
G02X1555750Y1203500I1601J5000*
G01*
G75*
G02X1560750Y1199851J-5250*
G01*
G75*
G02X1570750I5000J-1601*
G01*
G75*
G02X1580750I5000J-1601*
G01*
X1565750Y1305400D02*
G75*
G02X1572900Y1298250J-7150D01*
G01*
G75*
G02X1565750Y1291100I-7150*
G01*
G75*
G02X1558600Y1298250J7150*
G01*
G75*
G02X1565750Y1305400I7150*
G01*
X1597301Y1110801D02*
X1607801D01*
Y1100301*
X1597301*
Y1110801*
X1631400Y1487350D02*
G75*
G02X1660900I14750D01*
G01*
G75*
G02X1631400I-14750*
G01*
X1646699Y1414900D02*
X1657199D01*
Y1384400*
X1646699*
Y1414900*
X1678500Y1450750D02*
G75*
G02X1707000I14250D01*
G01*
G75*
G02X1678500I-14250*
G01*
X1645750Y117100D02*
G75*
G02X1665500Y97350J-19750D01*
G01*
G75*
G02X1645750Y77600I-19750*
G01*
G75*
G02X1626000Y97350J19750*
G01*
G75*
G02X1645750Y117100I19750*
G01*
X1631500Y47350D02*
G75*
G02X1661000I14750D01*
G01*
G75*
G02X1631500I-14750*
G01*
X1645750Y167100D02*
G75*
G02Y127600J-19750D01*
G01*
G75*
G02X1626000Y147350J19750*
G01*
G75*
G02X1645750Y167100I19750*
G01*
Y907100D02*
G75*
G02X1665500Y887350J-19750D01*
G01*
G75*
G02X1645750Y867600I-19750*
G01*
G75*
G02X1626000Y887350J19750*
G01*
G75*
G02X1645750Y907100I19750*
G01*
X1631500Y837350D02*
G75*
G02X1661000I14750D01*
G01*
G75*
G02X1631500I-14750*
G01*
X1653150Y782751D02*
G75*
G02X1663400Y781150I5000J-1601D01*
G01*
G75*
G02X1653150Y779549I-5250*
G01*
G75*
G02X1649751Y776150I-5000J1601*
G01*
G75*
G02Y766150I-1601J-5000*
G01*
G75*
G02X1653150Y762751I-1601J-5000*
G01*
G75*
G02X1663400Y761150I5000J-1601*
G01*
G75*
G02X1653150Y759549I-5250*
G01*
G75*
G02X1642900Y761150I-5000J1601*
G01*
G75*
G02X1646549Y766150I5250*
G01*
G75*
G02Y776150I1601J5000*
G01*
G75*
G02X1648150Y786400I1601J5000*
G01*
G75*
G02X1653150Y782751J-5250*
G01*
X1645750Y957100D02*
G75*
G02Y917600J-19750D01*
G01*
G75*
G02X1626000Y937350J19750*
G01*
G75*
G02X1645750Y957100I19750*
G01*
X1706150Y34150D02*
G36*
X1652832D01*
G75*
G02X1639668I-6582J13200*
G01*
X975800*
G75*
G02X946300I-14750*
G01*
X812832*
G75*
G02X799668I-6582J13200*
G01*
X135800*
G75*
G02X106300I-14750*
G01*
X9000*
Y13400*
X1706150*
Y34150*
G37*
Y97350D02*
G36*
X1665500D01*
G75*
G02X1645750Y77600I-19750*
G01*
G75*
G02X1626000Y97350J19750*
G01*
X825500*
G75*
G02X805750Y77600I-19750*
G01*
G75*
G02X786000Y97350J19750*
G01*
X9000*
Y74492*
G75*
G02X37000Y70750I13750J-3742*
G01*
G75*
G02X9000Y67008I-14250*
G01*
Y34150*
X106300*
G75*
G02X135800I14750*
G01*
X799668*
G75*
G02X791500Y47350I6582J13200*
G01*
G75*
G02X821000I14750*
G01*
G75*
G02X812832Y34150I-14750*
G01*
X946300*
G75*
G02X975800I14750*
G01*
X1639668*
G75*
G02X1631500Y47350I6582J13200*
G01*
G75*
G02X1661000I14750*
G01*
G75*
G02X1652832Y34150I-14750*
G01*
X1706150*
Y65902*
G75*
G02X1678500Y70750I-13400J4848*
G01*
G75*
G02X1706150Y75598I14250*
G01*
Y97350*
G37*
Y147350D02*
G36*
X1665500D01*
G75*
G02X1645750Y127600I-19750*
G01*
G75*
G02X1626000Y147350J19750*
G01*
X1245500*
G75*
G02X1225750Y127600I-19750*
G01*
G75*
G02X1206000Y147350J19750*
G01*
X875735*
G75*
G02X844765I-15485J7600*
G01*
X825500*
G75*
G02X805750Y127600I-19750*
G01*
G75*
G02X786000Y147350J19750*
G01*
X405500*
G75*
G02X385750Y127600I-19750*
G01*
G75*
G02X366000Y147350J19750*
G01*
X9000*
Y97350*
X786000*
G75*
G02X805750Y117100I19750*
G01*
G75*
G02X825500Y97350J-19750*
G01*
X1626000*
G75*
G02X1645750Y117100I19750*
G01*
G75*
G02X1665500Y97350J-19750*
G01*
X1706150*
Y147350*
G37*
X1614174Y207949D02*
G36*
X1565400D01*
Y202699*
X1534900*
Y207949*
X69850*
Y183550*
G75*
G02X56250Y169950I-13600*
G01*
X9000*
Y147350*
X366000*
G75*
G02X385750Y167100I19750*
G01*
G75*
G02X405500Y147350J-19750*
G01*
X786000*
G75*
G02X805750Y167100I19750*
G01*
G75*
G02X825500Y147350J-19750*
G01*
X844765*
G75*
G02X843000Y154950I15486J7600*
G01*
G75*
G02X877500I17250*
G01*
G75*
G02X875735Y147350I-17251J0*
G01*
X1206000*
G75*
G02X1245500I19750*
G01*
X1626000*
G75*
G02X1645750Y167100I19750*
G01*
G75*
G02X1665500Y147350J-19750*
G01*
X1706150*
Y207250*
X1620150*
G75*
G02X1614174Y207949J25900*
G01*
G37*
X1599474Y217551D02*
G36*
X878699D01*
Y212301*
X848199*
Y217551*
X69850*
Y207949*
X1534900*
Y213199*
X1565400*
Y207949*
X1614174*
G75*
G02X1599474Y217551I5976J25202*
G01*
G37*
X1594250Y249800D02*
G36*
X1199554D01*
G75*
G02X1205650Y239800I-5154J-10000*
G01*
Y239800*
G75*
G02X1183150I-11250*
G01*
Y239800*
G75*
G02X1189246Y249800I11250*
G01*
X929314*
G75*
G02X935410Y239800I-5154J-10000*
G01*
Y239800*
G75*
G02X912910I-11250*
G01*
Y239800*
G75*
G02X919006Y249800I11250*
G01*
X359554*
G75*
G02X365650Y239800I-5154J-10000*
G01*
Y239800*
G75*
G02X343150I-11250*
G01*
Y239800*
G75*
G02X349246Y249800I11250*
G01*
X89314*
G75*
G02X95410Y239800I-5154J-10000*
G01*
Y239800*
G75*
G02X72910I-11250*
G01*
Y239800*
G75*
G02X79006Y249800I11250*
G01*
X69850*
Y217551*
X848199*
Y222801*
X878699*
Y217551*
X1599474*
G75*
G02X1594250Y233150I20676J15598*
G01*
Y233150*
Y249800*
G37*
Y433969D02*
G36*
X972450D01*
Y354650*
G75*
G02X951350Y333550I-21100*
G01*
X855978*
G75*
G02X829532Y357496I-2381J23946*
G01*
Y357496*
G75*
G02X829650Y359878I24063*
G01*
Y433969*
X69850*
Y249800*
X79006*
G75*
G02X72910Y259800I5154J10000*
G01*
Y259800*
G75*
G02X95410I11250*
G01*
Y259800*
G75*
G02X89314Y249800I-11250*
G01*
X349246*
G75*
G02X343150Y259800I5154J10000*
G01*
Y259800*
G75*
G02X365650I11250*
G01*
Y259800*
G75*
G02X359554Y249800I-11250*
G01*
X919006*
G75*
G02X912910Y259800I5154J10000*
G01*
Y259800*
G75*
G02X935410I11250*
G01*
Y259800*
G75*
G02X929314Y249800I-11250*
G01*
X1189246*
G75*
G02X1183150Y259800I5154J10000*
G01*
Y259800*
G75*
G02X1205650I11250*
G01*
Y259800*
G75*
G02X1199554Y249800I-11250*
G01*
X1594250*
Y433969*
G37*
X1705150Y629800D02*
G36*
X1199554D01*
G75*
G02X1205650Y619800I-5154J-10000*
G01*
Y619800*
G75*
G02X1183150I-11250*
G01*
Y619800*
G75*
G02X1189246Y629800I11250*
G01*
X929314*
G75*
G02X935410Y619800I-5154J-10000*
G01*
Y619800*
G75*
G02X912910I-11250*
G01*
Y619800*
G75*
G02X919006Y629800I11250*
G01*
X359554*
G75*
G02X365650Y619800I-5154J-10000*
G01*
Y619800*
G75*
G02X343150I-11250*
G01*
Y619800*
G75*
G02X349246Y629800I11250*
G01*
X89314*
G75*
G02X95410Y619800I-5154J-10000*
G01*
Y619800*
G75*
G02X72910I-11250*
G01*
Y619800*
G75*
G02X79006Y629800I11250*
G01*
X9000*
Y579415*
G75*
G02X26400Y560900I-1151J-18515*
G01*
G75*
G02X10250Y542506I-18550*
G01*
Y533050*
X53550*
G75*
G02X69850Y516750J-16300*
G01*
Y433969*
X829650*
Y501064*
G75*
G02X863092Y534506I33442*
G01*
X946292*
G75*
G02X972450Y508348J-26158*
G01*
Y508348*
Y433969*
X1594250*
Y489850*
G75*
G02X1617550Y513150I23300*
G01*
X1704750*
Y542447*
G75*
G02X1688949Y560750I2700J18304*
G01*
G75*
G02X1705150Y579108I18502*
G01*
Y629800*
G37*
Y684150D02*
G36*
X975600D01*
G75*
G02X946100I-14750*
G01*
X135500*
G75*
G02X106000I-14750*
G01*
X9000*
Y629800*
X79006*
G75*
G02X72910Y639800I5154J10000*
G01*
Y639800*
G75*
G02X95410I11250*
G01*
Y639800*
G75*
G02X89314Y629800I-11250*
G01*
X349246*
G75*
G02X343150Y639800I5154J10000*
G01*
Y639800*
G75*
G02X365650I11250*
G01*
Y639800*
G75*
G02X359554Y629800I-11250*
G01*
X919006*
G75*
G02X912910Y639800I5154J10000*
G01*
Y639800*
G75*
G02X935410I11250*
G01*
Y639800*
G75*
G02X929314Y629800I-11250*
G01*
X1189246*
G75*
G02X1183150Y639800I5154J10000*
G01*
Y639800*
G75*
G02X1205650I11250*
G01*
Y639800*
G75*
G02X1199554Y629800I-11250*
G01*
X1705150*
Y684150*
G37*
X106000D02*
G36*
G75*
G02X113971Y697250I14750D01*
G01*
X9000*
Y684150*
X106000*
G37*
X946100D02*
G36*
G75*
G02X954071Y697250I14750D01*
G01*
X818300*
G75*
G02X793800I-12250*
G01*
X791992*
G75*
G02X780650Y687650I-11342J1900*
G01*
X604750*
G75*
G02X593408Y697250I0J11500*
G01*
X127529*
G75*
G02X135500Y684150I-6779J-13100*
G01*
X946100*
G37*
X1705150Y697250D02*
G36*
X1658400D01*
G75*
G02X1633940Y696264I-12250*
G01*
G75*
G02X1622450Y685250I-11490J486*
G01*
X1453850*
G75*
G02X1442350Y696750J11500*
G01*
Y696750*
Y697250*
X967629*
G75*
G02X975600Y684150I-6779J-13100*
G01*
X1705150*
Y697250*
G37*
X593250Y707550D02*
G36*
X9000D01*
Y697250*
X113971*
G75*
G02X127529I6779J-13100*
G01*
X593408*
G75*
G02X593250Y699150I11343J1899*
G01*
Y699150*
Y707550*
G37*
X793800Y697250D02*
G36*
G75*
G02X799419Y707550I12250D01*
G01*
X792150*
Y699150*
Y699150*
G75*
G02X791992Y697250I-11501J0*
G01*
X793800*
G37*
X1442350D02*
G36*
Y707550D01*
X1392300*
G75*
G02X1382200I-5050*
G01*
X1379800*
G75*
G02X1369700I-5050*
G01*
X1368800*
G75*
G02X1358700I-5050*
G01*
X812681*
G75*
G02X818300Y697250I-6631J-10300*
G01*
X954071*
G75*
G02X967629I6779J-13100*
G01*
X1442350*
G37*
X1639519Y707550D02*
G36*
X1633950D01*
Y698356*
G75*
G02X1639519Y707550I12200J-1106*
G01*
G37*
X1705150D02*
G36*
X1652781D01*
G75*
G02X1658400Y697250I-6631J-10300*
G01*
X1705150*
Y707550*
G37*
X593250Y727750D02*
G36*
X573783D01*
G75*
G02X569150Y725663I-4633J4100*
G01*
G75*
G02X564517Y727750J6187*
G01*
X533419*
G75*
G02X530281I-1569J4800*
G01*
X521819*
G75*
G02X518681I-1569J4800*
G01*
X510542*
G75*
G02X505958I-2292J4500*
G01*
X350500*
Y722500*
X340000*
Y727750*
X9000*
Y707550*
X593250*
Y727750*
G37*
X1442350D02*
G36*
X1203000D01*
Y723500*
X1192500*
Y727750*
X792150*
Y707550*
X799419*
G75*
G02X812681I6631J-10300*
G01*
X1358700*
G75*
G02X1368800I5050*
G01*
X1369700*
G75*
G02X1379800I5050*
G01*
X1382200*
G75*
G02X1392300I5050*
G01*
X1442350*
Y727750*
G37*
X1705150D02*
G36*
X1633950D01*
Y707550*
X1639519*
G75*
G02X1652781I6631J-10300*
G01*
X1705150*
Y727750*
G37*
X503613Y734250D02*
G36*
X9000D01*
Y727750*
X340000*
Y733000*
X350500*
Y727750*
X505958*
G75*
G02X503200Y732250I2292J4500*
G01*
G75*
G02X503613Y734250I5050J0*
G01*
G37*
X515495D02*
G36*
X512887D01*
G75*
G02X513300Y732250I-4637J-2000*
G01*
G75*
G02X510542Y727750I-5050*
G01*
X518681*
G75*
G02X515200Y732550I1569J4800*
G01*
G75*
G02X515495Y734250I5050J0*
G01*
G37*
X527095D02*
G36*
X525005D01*
G75*
G02X525300Y732550I-4756J-1700*
G01*
G75*
G02X521819Y727750I-5050*
G01*
X530281*
G75*
G02X526800Y732550I1569J4800*
G01*
G75*
G02X527095Y734250I5050J0*
G01*
G37*
X563448D02*
G36*
X536605D01*
G75*
G02X536900Y732550I-4756J-1700*
G01*
G75*
G02X533419Y727750I-5050*
G01*
X564517*
G75*
G02X562963Y731850I4633J4100*
G01*
G75*
G02X563448Y734250I6187J0*
G01*
G37*
X593250D02*
G36*
X574852D01*
G75*
G02X575337Y731850I-5703J-2400*
G01*
G75*
G02X573783Y727750I-6187*
G01*
X593250*
Y734250*
G37*
X1442350D02*
G36*
X1392300D01*
G75*
G02X1382200I-5050*
G01*
X1379800*
G75*
G02X1369700I-5050*
G01*
X1368800*
G75*
G02X1358700I-5050*
G01*
X792150*
Y727750*
X1192500*
Y734000*
X1203000*
Y727750*
X1442350*
Y734250*
G37*
X1705150D02*
G36*
X1633950D01*
Y727750*
X1705150*
Y734250*
G37*
X593250Y758250D02*
G36*
X170699D01*
Y746699*
X160199*
Y758250*
X122400*
G75*
G02X87900I-17250*
G01*
X9000*
Y734250*
X503613*
G75*
G02X512887I4637J-2000*
G01*
X515495*
G75*
G02X525005I4755J-1700*
G01*
X527095*
G75*
G02X536605I4755J-1700*
G01*
X563448*
G75*
G02X565506Y736850I5703J-2400*
G01*
G75*
G02X562963Y741850I3646J5001*
G01*
G75*
G02X575337I6187*
G01*
G75*
G02X572794Y736850I-6189J1*
G01*
G75*
G02X574852Y734250I-3644J-5000*
G01*
X593250*
Y758250*
G37*
X1442350D02*
G36*
X1424333D01*
G75*
G02X1424737Y756050I-5783J-2200*
G01*
G75*
G02X1418550Y749863I-6187*
G01*
G75*
G02X1412363Y756050J6187*
G01*
G75*
G02X1412767Y758250I6187*
G01*
X792150*
Y734250*
X1358700*
G75*
G02X1368800I5050*
G01*
X1369700*
G75*
G02X1379800I5050*
G01*
X1382200*
G75*
G02X1392300I5050*
G01*
X1442350*
Y758250*
G37*
X1705150D02*
G36*
X1662526D01*
G75*
G02X1653774I-4376J2900*
G01*
X1652526*
G75*
G02X1643774I-4376J2900*
G01*
X1633950*
Y734250*
X1705150*
Y758250*
G37*
X593250Y780750D02*
G36*
X543672D01*
G75*
G02X534028I-4822J1500*
G01*
X533072*
G75*
G02X523428I-4822J1500*
G01*
X521872*
G75*
G02X512228I-4822J1500*
G01*
X509796*
G75*
G02X500801Y780561I-4546J2200*
G01*
G75*
G02X491850Y780272I-4551J2189*
G01*
G75*
G02X482813Y780750I-4400J2478*
G01*
X480572*
G75*
G02X470928I-4822J1500*
G01*
X469572*
G75*
G02X459928I-4822J1500*
G01*
X458072*
G75*
G02X448741Y779977I-4822J1500*
G01*
G75*
G02X438700Y780750I-4991J773*
G01*
X438300*
G75*
G02X428200I-5050*
G01*
X427300*
G75*
G02X417200I-5050*
G01*
X372974*
G75*
G02X363526I-4724J5500*
G01*
X9000*
Y758250*
X87900*
G75*
G02X122400I17250*
G01*
X160199*
Y777199*
X170699*
Y758250*
X593250*
Y780750*
G37*
X1442350D02*
G36*
X1399312D01*
G75*
G02X1391188I-4062J3000*
G01*
X1386812*
G75*
G02X1378688I-4062J3000*
G01*
X1375812*
G75*
G02X1367688I-4062J3000*
G01*
X1365237*
G75*
G02X1357263I-3987J3100*
G01*
X1355237*
G75*
G02X1347263I-3987J3100*
G01*
X1345137*
G75*
G02X1337163I-3987J3100*
G01*
X1329833*
G75*
G02X1323667I-3083J4000*
G01*
X1316333*
G75*
G02X1310167I-3083J4000*
G01*
X1302502*
G75*
G02X1292798I-4852J1400*
G01*
X1292502*
G75*
G02X1282798I-4852J1400*
G01*
X1281702*
G75*
G02X1271998I-4852J1400*
G01*
X1240099*
G75*
G02X1227401I-6349J3500*
G01*
X792150*
Y758250*
X1412767*
G75*
G02X1414906Y761050I5783J-2200*
G01*
G75*
G02X1412363Y766050I3646J5001*
G01*
G75*
G02X1424737I6187*
G01*
G75*
G02X1422194Y761050I-6189J1*
G01*
G75*
G02X1424333Y758250I-3644J-5000*
G01*
X1442350*
Y780750*
G37*
X1653774Y758250D02*
G36*
G75*
G02X1653150Y759549I4376J2900D01*
G01*
G75*
G02X1652526Y758250I-5000J1601*
G01*
X1653774*
G37*
X1642915Y780750D02*
G36*
X1633950D01*
Y758250*
X1643774*
G75*
G02X1642900Y761150I4376J2900*
G01*
G75*
G02X1646549Y766150I5251J-1*
G01*
G75*
G02X1642900Y771150I1601J5000*
G01*
G75*
G02X1646549Y776150I5250*
G01*
G75*
G02X1642915Y780750I1601J5000*
G01*
G37*
X1705150D02*
G36*
X1663385D01*
G75*
G02X1653150Y779549I-5235J400*
G01*
G75*
G02X1649751Y776150I-5001J1602*
G01*
G75*
G02X1653400Y771150I-1601J-5000*
G01*
G75*
G02X1649751Y766150I-5250*
G01*
G75*
G02X1653150Y762751I-1602J-5001*
G01*
G75*
G02X1663400Y761150I5000J-1601*
G01*
G75*
G02X1662526Y758250I-5250*
G01*
X1705150*
Y780750*
G37*
X361000Y786250D02*
G36*
X9000D01*
Y780750*
X363526*
G75*
G02X361000Y786250I4724J5500*
G01*
G37*
X438700Y780750D02*
G36*
G75*
G02X448259Y783023I5050D01*
G01*
G75*
G02X450167Y786250I4991J-773*
G01*
X375500*
G75*
G02X372974Y780750I-7250*
G01*
X417200*
G75*
G02X427300I5050*
G01*
X428200*
G75*
G02X438300I5050*
G01*
X438700*
G37*
X459928D02*
G36*
G75*
G02X459700Y782250I4822J1500D01*
G01*
G75*
G02X461667Y786250I5050*
G01*
X456333*
G75*
G02X458300Y782250I-3083J-4000*
G01*
G75*
G02X458072Y780750I-5050*
G01*
X459928*
G37*
X470928D02*
G36*
G75*
G02X470700Y782250I4822J1500D01*
G01*
G75*
G02X472667Y786250I5050*
G01*
X467833*
G75*
G02X469800Y782250I-3083J-4000*
G01*
G75*
G02X469572Y780750I-5050*
G01*
X470928*
G37*
X492610Y786250D02*
G36*
X491090D01*
G75*
G02X491850Y785228I-3640J-3501*
G01*
G75*
G02X492610Y786250I4400J-2479*
G01*
G37*
X501428D02*
G36*
X499890D01*
G75*
G02X500699Y785139I-3640J-3501*
G01*
G75*
G02X501428Y786250I4551J-2189*
G01*
G37*
X482813Y780750D02*
G36*
G75*
G02X482400Y782750I4637J2000D01*
G01*
G75*
G02X483810Y786250I5050J0*
G01*
X478833*
G75*
G02X480800Y782250I-3083J-4000*
G01*
G75*
G02X480572Y780750I-5050*
G01*
X482813*
G37*
X512228D02*
G36*
G75*
G02X512000Y782250I4822J1500D01*
G01*
G75*
G02X513967Y786250I5050*
G01*
X509072*
G75*
G02X510300Y782950I-3822J-3300*
G01*
G75*
G02X509796Y780750I-5050*
G01*
X512228*
G37*
X523428D02*
G36*
G75*
G02X523200Y782250I4822J1500D01*
G01*
G75*
G02X525167Y786250I5050*
G01*
X520133*
G75*
G02X522100Y782250I-3083J-4000*
G01*
G75*
G02X521872Y780750I-5050*
G01*
X523428*
G37*
X534028D02*
G36*
G75*
G02X533800Y782250I4822J1500D01*
G01*
G75*
G02X535767Y786250I5050*
G01*
X531333*
G75*
G02X533300Y782250I-3083J-4000*
G01*
G75*
G02X533072Y780750I-5050*
G01*
X534028*
G37*
X593250Y786250D02*
G36*
X541933D01*
G75*
G02X543900Y782250I-3083J-4000*
G01*
G75*
G02X543672Y780750I-5050*
G01*
X593250*
Y786250*
G37*
X1226781D02*
G36*
X1182083D01*
G75*
G02X1179250Y785563I-2833J5500*
G01*
G75*
G02X1176417Y786250J6187*
G01*
X792150*
Y780750*
X1227401*
G75*
G02X1226500Y784250I6349J3500*
G01*
G75*
G02X1226781Y786250I7250J-1*
G01*
G37*
X1271998Y780750D02*
G36*
G75*
G02X1271800Y782150I4852J1400D01*
G01*
G75*
G02X1273902Y786250I5050*
G01*
X1240719*
G75*
G02X1241000Y784250I-6969J-2001*
G01*
G75*
G02X1240099Y780750I-7250*
G01*
X1271998*
G37*
X1282798D02*
G36*
G75*
G02X1282600Y782150I4852J1400D01*
G01*
G75*
G02X1284702Y786250I5050J0*
G01*
X1279798*
G75*
G02X1281900Y782150I-2948J-4100*
G01*
G75*
G02X1281702Y780750I-5050J0*
G01*
X1282798*
G37*
X1294702Y786250D02*
G36*
X1290598D01*
G75*
G02X1292650Y782859I-2948J-4100*
G01*
G75*
G02X1294702Y786250I5000J-709*
G01*
G37*
X1292798Y780750D02*
G36*
G75*
G02X1292650Y781441I4852J1401D01*
G01*
G75*
G02X1292502Y780750I-5000J710*
G01*
X1292798*
G37*
X1308428Y786250D02*
G36*
X1300598D01*
G75*
G02X1302700Y782150I-2948J-4100*
G01*
G75*
G02X1302502Y780750I-5050J0*
G01*
X1310167*
G75*
G02X1308200Y784750I3083J4000*
G01*
G75*
G02X1308428Y786250I5050*
G01*
G37*
X1321928D02*
G36*
X1318072D01*
G75*
G02X1318300Y784750I-4822J-1500*
G01*
G75*
G02X1316333Y780750I-5050*
G01*
X1323667*
G75*
G02X1321700Y784750I3083J4000*
G01*
G75*
G02X1321928Y786250I5050*
G01*
G37*
X1336707D02*
G36*
X1331572D01*
G75*
G02X1331800Y784750I-4822J-1500*
G01*
G75*
G02X1329833Y780750I-5050*
G01*
X1337163*
G75*
G02X1336100Y783850I3987J3100*
G01*
G75*
G02X1336707Y786250I5050*
G01*
G37*
X1346807D02*
G36*
X1345593D01*
G75*
G02X1346200Y783850I-4443J-2400*
G01*
G75*
G02X1345137Y780750I-5050*
G01*
X1347263*
G75*
G02X1346200Y783850I3987J3100*
G01*
G75*
G02X1346807Y786250I5050*
G01*
G37*
X1357263Y780750D02*
G36*
G75*
G02X1356250Y783141I3987J3100D01*
G01*
G75*
G02X1355237Y780750I-5000J709*
G01*
X1357263*
G37*
X1356807Y786250D02*
G36*
X1355693D01*
G75*
G02X1356250Y784559I-4443J-2400*
G01*
G75*
G02X1356807Y786250I5000J-709*
G01*
G37*
X1367362D02*
G36*
X1365693D01*
G75*
G02X1366300Y783850I-4443J-2400*
G01*
G75*
G02X1365237Y780750I-5050*
G01*
X1367688*
G75*
G02X1366700Y783750I4062J3000*
G01*
G75*
G02X1367362Y786250I5050*
G01*
G37*
X1378362D02*
G36*
X1376138D01*
G75*
G02X1376800Y783750I-4388J-2500*
G01*
G75*
G02X1375812Y780750I-5050J0*
G01*
X1378688*
G75*
G02X1377700Y783750I4062J3000*
G01*
G75*
G02X1378362Y786250I5050*
G01*
G37*
X1390862D02*
G36*
X1387138D01*
G75*
G02X1387800Y783750I-4388J-2500*
G01*
G75*
G02X1386812Y780750I-5050J0*
G01*
X1391188*
G75*
G02X1390200Y783750I4062J3000*
G01*
G75*
G02X1390862Y786250I5050*
G01*
G37*
X1442350D02*
G36*
X1399638D01*
G75*
G02X1400300Y783750I-4388J-2500*
G01*
G75*
G02X1399312Y780750I-5050J0*
G01*
X1442350*
Y786250*
G37*
X1656904D02*
G36*
X1649396D01*
G75*
G02X1653150Y782751I-1246J-5101*
G01*
G75*
G02X1656904Y786250I5000J-1601*
G01*
G37*
X1642915Y780750D02*
G36*
G75*
G02X1642900Y781150I5235J401D01*
G01*
G75*
G02X1646904Y786250I5250*
G01*
X1633950*
Y780750*
X1642915*
G37*
X1705150Y786250D02*
G36*
X1659396D01*
G75*
G02X1663400Y781150I-1246J-5100*
G01*
G75*
G02X1663385Y780750I-5251J1*
G01*
X1705150*
Y786250*
G37*
X593250Y798750D02*
G36*
X582699D01*
Y793000*
X572199*
Y798750*
X560500*
Y793500*
X550000*
Y798750*
X9000*
Y786250*
X361000*
G75*
G02X375500I7250*
G01*
X450167*
G75*
G02X456333I3083J-4000*
G01*
X461667*
G75*
G02X467833I3083J-4000*
G01*
X472667*
G75*
G02X478833I3083J-4000*
G01*
X483810*
G75*
G02X491090I3640J-3500*
G01*
X492610*
G75*
G02X499890I3640J-3500*
G01*
X501428*
G75*
G02X509072I3822J-3300*
G01*
X513967*
G75*
G02X520133I3083J-4000*
G01*
X525167*
G75*
G02X531333I3083J-4000*
G01*
X535767*
G75*
G02X541933I3083J-4000*
G01*
X593250*
Y798750*
G37*
X1173839D02*
G36*
X792150D01*
Y786250*
X1176417*
G75*
G02X1173063Y791750I2833J5500*
G01*
G75*
G02X1175606Y796750I6187*
G01*
G75*
G02X1173839Y798750I3646J5000*
G01*
G37*
X1442350D02*
G36*
X1436100D01*
Y797000*
X1425600*
Y798750*
X1419400*
Y788699*
X1408900*
Y798750*
X1184661*
G75*
G02X1182894Y796750I-5412J3000*
G01*
G75*
G02X1185437Y791750I-3644J-5000*
G01*
G75*
G02X1182083Y786250I-6187*
G01*
X1226781*
G75*
G02X1240719I6969J-2000*
G01*
X1273902*
G75*
G02X1279798I2948J-4100*
G01*
X1284702*
G75*
G02X1290598I2948J-4100*
G01*
X1294702*
G75*
G02X1300598I2948J-4100*
G01*
X1308428*
G75*
G02X1318072I4822J-1500*
G01*
X1321928*
G75*
G02X1331572I4822J-1500*
G01*
X1336707*
G75*
G02X1345593I4443J-2400*
G01*
X1346807*
G75*
G02X1355693I4443J-2400*
G01*
X1356807*
G75*
G02X1365693I4443J-2400*
G01*
X1367362*
G75*
G02X1376138I4388J-2500*
G01*
X1378362*
G75*
G02X1387138I4388J-2500*
G01*
X1390862*
G75*
G02X1399638I4388J-2500*
G01*
X1442350*
Y798750*
G37*
X1705150D02*
G36*
X1633950D01*
Y786250*
X1646904*
G75*
G02X1648150Y786400I1246J-5101*
G01*
G75*
G02X1649396Y786250I0J-5252*
G01*
X1656904*
G75*
G02X1659396I1246J-5100*
G01*
X1705150*
Y798750*
G37*
X593250Y806950D02*
G36*
X543193D01*
G75*
G02X534307I-4443J2400*
G01*
X499853*
G75*
G02X491447I-4203J2800*
G01*
X481099*
G75*
G02X471001I-5049J100*
G01*
X469299*
G75*
G02X459264Y806248I-5049J100*
G01*
G75*
G02X449200Y806850I-5014J602*
G01*
G75*
G02X449201Y806950I5053J-10*
G01*
X9000*
Y798750*
X550000*
Y804000*
X560500*
Y798750*
X572199*
Y803500*
X582699*
Y798750*
X593250*
Y806950*
G37*
X1173839Y798750D02*
G36*
G75*
G02X1173063Y801750I5412J3001D01*
G01*
G75*
G02X1175898Y806950I6187*
G01*
X792150*
Y798750*
X1173839*
G37*
X1425600Y806950D02*
G36*
X1363412D01*
G75*
G02X1355288I-4062J3000*
G01*
X1330646*
G75*
G02X1321654I-4496J2300*
G01*
X1317146*
G75*
G02X1308154I-4496J2300*
G01*
X1302556*
G75*
G02X1292744I-4906J1200*
G01*
X1292556*
G75*
G02X1282744I-4906J1200*
G01*
X1281756*
G75*
G02X1271944I-4906J1200*
G01*
X1182602*
G75*
G02X1185437Y801750I-3352J-5200*
G01*
G75*
G02X1184661Y798750I-6189J1*
G01*
X1408900*
Y799199*
X1419400*
Y798750*
X1425600*
Y806950*
G37*
X1442350D02*
G36*
X1436100D01*
Y798750*
X1442350*
Y806950*
G37*
X1705150D02*
G36*
X1633950D01*
Y798750*
X1705150*
Y806950*
G37*
X593250D02*
G36*
Y811050D01*
Y811050*
G75*
G02X594493Y816250I11500*
G01*
X583200*
G75*
G02X573100I-5050*
G01*
X133506*
G75*
G02X108594I-12456J7900*
G01*
X9000*
Y806950*
X449201*
G75*
G02X459236Y807652I5049J-100*
G01*
G75*
G02X469300Y807050I5014J-602*
G01*
G75*
G02X469299Y806950I-5053J10*
G01*
X471001*
G75*
G02X471000Y807050I5052J110*
G01*
G75*
G02X481100I5050*
G01*
G75*
G02X481099Y806950I-5053J10*
G01*
X491447*
G75*
G02X490600Y809750I4203J2800*
G01*
G75*
G02X500700I5050*
G01*
G75*
G02X499853Y806950I-5050*
G01*
X534307*
G75*
G02X533700Y809350I4443J2400*
G01*
G75*
G02X543800I5050*
G01*
G75*
G02X543193Y806950I-5050*
G01*
X593250*
G37*
X1292744D02*
G36*
G75*
G02X1292650Y807441I4906J1199D01*
G01*
G75*
G02X1292556Y806950I-5001J708*
G01*
X1292744*
G37*
X1442350D02*
G36*
Y808650D01*
Y808650*
G75*
G02X1445219Y816250I11500*
G01*
X973506*
G75*
G02X948594I-12456J7900*
G01*
X790907*
G75*
G02X792150Y811050I-10257J-5200*
G01*
Y811050*
Y806950*
X1175898*
G75*
G02X1182602I3352J-5200*
G01*
X1271944*
G75*
G02X1271800Y808150I4906J1199*
G01*
G75*
G02X1281900I5050*
G01*
G75*
G02X1281756Y806950I-5050J-1*
G01*
X1282744*
G75*
G02X1282600Y808150I4906J1199*
G01*
G75*
G02X1292650Y808859I5050*
G01*
G75*
G02X1302700Y808150I5000J-709*
G01*
G75*
G02X1302556Y806950I-5050J-1*
G01*
X1308154*
G75*
G02X1307600Y809250I4496J2300*
G01*
G75*
G02X1317700I5050*
G01*
G75*
G02X1317146Y806950I-5050J0*
G01*
X1321654*
G75*
G02X1321100Y809250I4496J2300*
G01*
G75*
G02X1331200I5050*
G01*
G75*
G02X1330646Y806950I-5050J0*
G01*
X1355288*
G75*
G02X1354300Y809950I4062J3000*
G01*
G75*
G02X1364400I5050*
G01*
G75*
G02X1363412Y806950I-5050J0*
G01*
X1425600*
Y807500*
X1436100*
Y806950*
X1442350*
G37*
X1705150Y816250D02*
G36*
X1631081D01*
G75*
G02X1633950Y808650I-8631J-7600*
G01*
Y808650*
Y806950*
X1705150*
Y816250*
G37*
X106300Y824150D02*
G36*
X9000D01*
Y816250*
X108594*
G75*
G02X106300Y824150I12456J7900*
G01*
G37*
X946300D02*
G36*
X812832D01*
G75*
G02X799668I-6582J13200*
G01*
X135800*
G75*
G02X133506Y816250I-14750J0*
G01*
X573100*
G75*
G02X583200I5050*
G01*
X594493*
G75*
G02X604750Y822550I10257J-5200*
G01*
X780650*
G75*
G02X790907Y816250I0J-11500*
G01*
X948594*
G75*
G02X946300Y824150I12456J7900*
G01*
G37*
X1705150D02*
G36*
X1652832D01*
G75*
G02X1639668I-6582J13200*
G01*
X975800*
G75*
G02X973506Y816250I-14750J0*
G01*
X1445219*
G75*
G02X1453850Y820150I8631J-7600*
G01*
X1622450*
G75*
G02X1631081Y816250I0J-11500*
G01*
X1705150*
Y824150*
G37*
Y887350D02*
G36*
X1665500D01*
G75*
G02X1645750Y867600I-19750*
G01*
G75*
G02X1626000Y887350J19750*
G01*
X825500*
G75*
G02X805750Y867600I-19750*
G01*
G75*
G02X786000Y887350J19750*
G01*
X9000*
Y824150*
X106300*
G75*
G02X135800I14750*
G01*
X799668*
G75*
G02X791500Y837350I6582J13200*
G01*
G75*
G02X821000I14750*
G01*
G75*
G02X812832Y824150I-14750*
G01*
X946300*
G75*
G02X975800I14750*
G01*
X1639668*
G75*
G02X1631500Y837350I6582J13200*
G01*
G75*
G02X1661000I14750*
G01*
G75*
G02X1652832Y824150I-14750*
G01*
X1705150*
Y887350*
G37*
Y937350D02*
G36*
X1665500D01*
G75*
G02X1645750Y917600I-19750*
G01*
G75*
G02X1626000Y937350J19750*
G01*
X1245500*
G75*
G02X1225750Y917600I-19750*
G01*
G75*
G02X1206000Y937350J19750*
G01*
X825500*
G75*
G02X805750Y917600I-19750*
G01*
G75*
G02X786000Y937350J19750*
G01*
X405500*
G75*
G02X385750Y917600I-19750*
G01*
G75*
G02X366000Y937350J19750*
G01*
X9000*
Y887350*
X786000*
G75*
G02X805750Y907100I19750*
G01*
G75*
G02X825500Y887350J-19750*
G01*
X1626000*
G75*
G02X1645750Y907100I19750*
G01*
G75*
G02X1665500Y887350J-19750*
G01*
X1705150*
Y937350*
G37*
Y987051D02*
G36*
X892801D01*
Y971801*
X882301*
Y987051*
X9000*
Y979214*
G75*
G02X26350Y960750I-1150J-18464*
G01*
G75*
G02X9000Y942286I-18500*
G01*
Y937350*
X366000*
G75*
G02X385750Y957100I19750*
G01*
G75*
G02X405500Y937350J-19750*
G01*
X786000*
G75*
G02X805750Y957100I19750*
G01*
G75*
G02X825500Y937350J-19750*
G01*
X1206000*
G75*
G02X1225750Y957100I19750*
G01*
G75*
G02X1245500Y937350J-19750*
G01*
X1626000*
G75*
G02X1645750Y957100I19750*
G01*
G75*
G02X1665500Y937350J-19750*
G01*
X1705150*
Y942922*
G75*
G02X1689400Y961000I2500J18078*
G01*
G75*
G02X1705150Y979078I18250*
G01*
Y987051*
G37*
Y1009800D02*
G36*
X339450D01*
G75*
G02X329350I-5050*
G01*
X109210*
G75*
G02X99110I-5050*
G01*
X9000*
Y987051*
X882301*
Y1002301*
X892801*
Y987051*
X1705150*
Y1009800*
G37*
X1621404Y1039800D02*
G36*
X1199554D01*
G75*
G02X1205650Y1029800I-5154J-10000*
G01*
Y1029800*
G75*
G02X1183150I-11250*
G01*
Y1029800*
G75*
G02X1189246Y1039800I11250*
G01*
X929314*
G75*
G02X935410Y1029800I-5154J-10000*
G01*
Y1029800*
G75*
G02X912910I-11250*
G01*
Y1029800*
G75*
G02X919006Y1039800I11250*
G01*
X359554*
G75*
G02X365650Y1029800I-5154J-10000*
G01*
Y1029800*
G75*
G02X343150I-11250*
G01*
Y1029800*
G75*
G02X349246Y1039800I11250*
G01*
X89314*
G75*
G02X95410Y1029800I-5154J-10000*
G01*
Y1029800*
G75*
G02X72910I-11250*
G01*
Y1029800*
G75*
G02X79006Y1039800I11250*
G01*
X71450*
Y1025450*
G75*
G02X60050Y1014050I-11400*
G01*
X9000*
Y1009800*
X99110*
G75*
G02X109210I5050*
G01*
X329350*
G75*
G02X339450I5050*
G01*
X1705150*
Y1024050*
X1638450*
G75*
G02X1621404Y1039800J17100*
G01*
G37*
X1621350Y1063250D02*
G36*
X1572900D01*
Y1063250*
G75*
G02X1565750Y1056100I-7150*
G01*
G75*
G02X1558600Y1063250J7150*
G01*
Y1063250*
X71450*
Y1039800*
X79006*
G75*
G02X72910Y1049800I5154J10000*
G01*
Y1049800*
G75*
G02X95410I11250*
G01*
Y1049800*
G75*
G02X89314Y1039800I-11250*
G01*
X349246*
G75*
G02X343150Y1049800I5154J10000*
G01*
Y1049800*
G75*
G02X365650I11250*
G01*
Y1049800*
G75*
G02X359554Y1039800I-11250*
G01*
X919006*
G75*
G02X912910Y1049800I5154J10000*
G01*
Y1049800*
G75*
G02X935410I11250*
G01*
Y1049800*
G75*
G02X929314Y1039800I-11250*
G01*
X1189246*
G75*
G02X1183150Y1049800I5154J10000*
G01*
Y1049800*
G75*
G02X1205650I11250*
G01*
Y1049800*
G75*
G02X1199554Y1039800I-11250*
G01*
X1621404*
G75*
G02X1621350Y1041150I17050J1352*
G01*
Y1063250*
G37*
Y1105750D02*
G36*
X1607801D01*
Y1100301*
X1597301*
Y1105750*
X1591000*
G75*
G02X1587351Y1100750I-5250*
G01*
G75*
G02X1591000Y1095750I-1601J-5000*
G01*
G75*
G02X1587351Y1090750I-5250*
G01*
G75*
G02X1591000Y1085750I-1601J-5000*
G01*
G75*
G02X1585750Y1080500I-5250*
G01*
G75*
G02X1580750Y1084149I1J5251*
G01*
G75*
G02X1570750I-5000J1601*
G01*
G75*
G02X1560750I-5000J1601*
G01*
G75*
G02X1550500Y1085750I-5000J1601*
G01*
G75*
G02X1554149Y1090750I5251J-1*
G01*
G75*
G02X1550500Y1095750I1601J5000*
G01*
G75*
G02X1554149Y1100750I5250*
G01*
G75*
G02X1550500Y1105750I1601J5000*
G01*
X71450*
Y1063250*
X1558600*
Y1063250*
G75*
G02X1565750Y1070400I7150*
G01*
G75*
G02X1572900Y1063250J-7150*
G01*
Y1063250*
X1621350*
Y1105750*
G37*
Y1143250D02*
G36*
X1587351D01*
G75*
G02X1591000Y1138250I-1601J-5000*
G01*
G75*
G02X1585750Y1133000I-5250*
G01*
G75*
G02X1580750Y1136649I1J5251*
G01*
G75*
G02X1570750I-5000J1601*
G01*
G75*
G02X1560750I-5000J1601*
G01*
G75*
G02X1550500Y1138250I-5000J1601*
G01*
G75*
G02X1554149Y1143250I5251J-1*
G01*
X71450*
Y1105750*
X1550500*
G75*
G02X1555750Y1111000I5250*
G01*
G75*
G02X1560750Y1107351I-1J-5251*
G01*
G75*
G02X1564149Y1110750I5001J-1602*
G01*
G75*
G02X1560500Y1115750I1601J5000*
G01*
G75*
G02X1564149Y1120750I5250*
G01*
G75*
G02X1560750Y1124149I1602J5001*
G01*
G75*
G02X1550500Y1125750I-5000J1601*
G01*
G75*
G02X1560750Y1127351I5250*
G01*
G75*
G02X1570750I5000J-1601*
G01*
G75*
G02X1580750I5000J-1601*
G01*
G75*
G02X1591000Y1125750I5000J-1601*
G01*
G75*
G02X1587351Y1120750I-5251J1*
G01*
G75*
G02X1591000Y1115750I-1601J-5000*
G01*
G75*
G02X1587351Y1110750I-5250*
G01*
G75*
G02X1591000Y1105750I-1601J-5000*
G01*
X1597301*
Y1110801*
X1607801*
Y1105750*
X1621350*
Y1143250*
G37*
Y1168250D02*
G36*
X1587351D01*
G75*
G02X1591000Y1163250I-1601J-5000*
G01*
G75*
G02X1585750Y1158000I-5250*
G01*
G75*
G02X1580750Y1161649I1J5251*
G01*
G75*
G02X1570750I-5000J1601*
G01*
G75*
G02X1560750I-5000J1601*
G01*
G75*
G02X1550500Y1163250I-5000J1601*
G01*
G75*
G02X1554149Y1168250I5251J-1*
G01*
X989706*
G75*
G02X968850Y1150350I-20856J3200*
G01*
X873478*
G75*
G02X847804Y1168250I-2381J23946*
G01*
X71450*
Y1143250*
X1554149*
G75*
G02X1550500Y1148250I1601J5000*
G01*
G75*
G02X1555750Y1153500I5250*
G01*
G75*
G02X1560750Y1149851I-1J-5251*
G01*
G75*
G02X1570750I5000J-1601*
G01*
G75*
G02X1580750I5000J-1601*
G01*
G75*
G02X1591000Y1148250I5000J-1601*
G01*
G75*
G02X1587351Y1143250I-5251J1*
G01*
X1621350*
Y1168250*
G37*
X847150Y1193250D02*
G36*
X71450D01*
Y1168250*
X847804*
G75*
G02X847032Y1174296I23293J6047*
G01*
Y1174296*
G75*
G02X847150Y1176678I24063*
G01*
Y1193250*
G37*
X1621350D02*
G36*
X1587351D01*
G75*
G02X1591000Y1188250I-1601J-5000*
G01*
G75*
G02X1585750Y1183000I-5250*
G01*
G75*
G02X1580750Y1186649I1J5251*
G01*
G75*
G02X1570750I-5000J1601*
G01*
G75*
G02X1560750I-5000J1601*
G01*
G75*
G02X1550500Y1188250I-5000J1601*
G01*
G75*
G02X1554149Y1193250I5251J-1*
G01*
X989950*
Y1171450*
G75*
G02X989706Y1168250I-21103J0*
G01*
X1554149*
G75*
G02X1550500Y1173250I1601J5000*
G01*
G75*
G02X1555750Y1178500I5250*
G01*
G75*
G02X1560750Y1174851I-1J-5251*
G01*
G75*
G02X1570750I5000J-1601*
G01*
G75*
G02X1580750I5000J-1601*
G01*
G75*
G02X1591000Y1173250I5000J-1601*
G01*
G75*
G02X1587351Y1168250I-5251J1*
G01*
X1621350*
Y1193250*
G37*
X847150Y1250769D02*
G36*
X71450D01*
Y1193250*
X847150*
Y1250769*
G37*
X1621350D02*
G36*
X989950D01*
Y1193250*
X1554149*
G75*
G02X1550500Y1198250I1601J5000*
G01*
G75*
G02X1555750Y1203500I5250*
G01*
G75*
G02X1560750Y1199851I-1J-5251*
G01*
G75*
G02X1570750I5000J-1601*
G01*
G75*
G02X1580750I5000J-1601*
G01*
G75*
G02X1591000Y1198250I5000J-1601*
G01*
G75*
G02X1587351Y1193250I-5251J1*
G01*
X1621350*
Y1250769*
G37*
X847150Y1298250D02*
G36*
X71450D01*
Y1250769*
X847150*
Y1298250*
G37*
X1621350D02*
G36*
X1572900D01*
Y1298250*
G75*
G02X1565750Y1291100I-7150*
G01*
G75*
G02X1558600Y1298250J7150*
G01*
Y1298250*
X989950*
Y1250769*
X1621350*
Y1298250*
G37*
X1707800Y1333250D02*
G36*
Y1399650D01*
X1657199*
Y1384400*
X1646699*
Y1399650*
X1199251*
G75*
G02X1189549I-4851J10150*
G01*
X929011*
G75*
G02X919309I-4851J10150*
G01*
X359251*
G75*
G02X349549I-4851J10150*
G01*
X89011*
G75*
G02X79309I-4851J10150*
G01*
X9000*
Y1383250*
X61250*
G75*
G02X71450Y1373050J-10200*
G01*
Y1298250*
X847150*
Y1317864*
G75*
G02X880592Y1351306I33442*
G01*
X963792*
G75*
G02X989950Y1325148J-26158*
G01*
Y1325148*
Y1298250*
X1558600*
Y1298250*
G75*
G02X1565750Y1305400I7150*
G01*
G75*
G02X1572900Y1298250J-7150*
G01*
Y1298250*
X1621350*
Y1315350*
G75*
G02X1639250Y1333250I17900*
G01*
X1707800*
G37*
X79006Y1419800D02*
G36*
X9000D01*
Y1399650*
X79309*
G75*
G02X72910Y1409800I4851J10150*
G01*
Y1409800*
G75*
G02X79006Y1419800I11250*
G01*
G37*
X349246D02*
G36*
X89314D01*
G75*
G02X95410Y1409800I-5154J-10000*
G01*
Y1409800*
G75*
G02X89011Y1399650I-11250*
G01*
X349549*
G75*
G02X343150Y1409800I4851J10150*
G01*
Y1409800*
G75*
G02X349246Y1419800I11250*
G01*
G37*
X919006D02*
G36*
X359554D01*
G75*
G02X365650Y1409800I-5154J-10000*
G01*
Y1409800*
G75*
G02X359251Y1399650I-11250*
G01*
X919309*
G75*
G02X912910Y1409800I4851J10150*
G01*
Y1409800*
G75*
G02X919006Y1419800I11250*
G01*
G37*
X1189246D02*
G36*
X929314D01*
G75*
G02X935410Y1409800I-5154J-10000*
G01*
Y1409800*
G75*
G02X929011Y1399650I-11250*
G01*
X1189549*
G75*
G02X1183150Y1409800I4851J10150*
G01*
Y1409800*
G75*
G02X1189246Y1419800I11250*
G01*
G37*
X1199554D02*
G36*
G75*
G02X1205650Y1409800I-5154J-10000D01*
G01*
Y1409800*
G75*
G02X1199251Y1399650I-11250*
G01*
X1646699*
Y1414900*
X1657199*
Y1399650*
X1707800*
Y1419800*
X1199554*
G37*
X37000Y1450750D02*
G36*
G75*
G02X9000Y1447008I-14250D01*
G01*
Y1419800*
X79006*
G75*
G02X72910Y1429800I5154J10000*
G01*
Y1429800*
G75*
G02X95410I11250*
G01*
Y1429800*
G75*
G02X89314Y1419800I-11250*
G01*
X349246*
G75*
G02X343150Y1429800I5154J10000*
G01*
Y1429800*
G75*
G02X365650I11250*
G01*
Y1429800*
G75*
G02X359554Y1419800I-11250*
G01*
X919006*
G75*
G02X912910Y1429800I5154J10000*
G01*
Y1429800*
G75*
G02X935410I11250*
G01*
Y1429800*
G75*
G02X929314Y1419800I-11250*
G01*
X1189246*
G75*
G02X1183150Y1429800I5154J10000*
G01*
Y1429800*
G75*
G02X1205650I11250*
G01*
Y1429800*
G75*
G02X1199554Y1419800I-11250*
G01*
X1707800*
Y1450750*
X1707000*
G75*
G02X1678500I-14250*
G01*
X37000*
G37*
X1652732Y1474150D02*
G36*
G75*
G02X1639568I-6582J13200D01*
G01*
X975600*
G75*
G02X946100I-14750J100*
G01*
X876789*
G75*
G02X843711I-16539J4900*
G01*
X812829*
G75*
G02X799271I-6779J13100*
G01*
X135500*
G75*
G02X106000I-14750*
G01*
X9000*
Y1454492*
G75*
G02X37000Y1450750I13750J-3742*
G01*
X1678500*
G75*
G02X1707000I14250*
G01*
X1707800*
Y1474150*
X1652732*
G37*
X9000Y1508000D02*
G36*
Y1474150D01*
X106000*
G75*
G02X135500I14750*
G01*
X799271*
G75*
G02X791300Y1487250I6779J13100*
G01*
G75*
G02X820800I14750*
G01*
G75*
G02X812829Y1474150I-14750*
G01*
X843711*
G75*
G02X843000Y1479050I16540J4900*
G01*
G75*
G02X877500I17250*
G01*
G75*
G02X876789Y1474150I-17251J0*
G01*
X946100*
G75*
G02X946100Y1474250I14767J108*
G01*
G75*
G02X975600I14750*
G01*
G75*
G02X975600Y1474150I-14767J8*
G01*
X1639568*
G75*
G02X1631400Y1487350I6582J13200*
G01*
G75*
G02X1660900I14750*
G01*
G75*
G02X1652732Y1474150I-14750*
G01*
X1707800*
Y1508000*
X9000*
G37*
D02*
D19*
X22750Y70750D03*
Y1450750D03*
X1692750Y70750D03*
Y1450750D03*
D02*
D70*
X76550Y34150D03*
Y824150D03*
X120750Y684150D03*
Y1474150D03*
X121050Y34150D03*
Y824150D03*
X806050Y1487250D03*
X806250Y47350D03*
Y837350D03*
X916550Y34150D03*
Y824150D03*
X960850Y684150D03*
Y1474250D03*
X961050Y34150D03*
Y824150D03*
X1646150Y1487350D03*
X1646250Y47350D03*
Y837350D03*
D02*
D71*
X806050Y697250D03*
X1646150D03*
D02*
D20*
X385750Y147350D03*
Y597350D03*
Y937350D03*
Y1387350D03*
X805750Y97350D03*
Y147350D03*
Y887350D03*
Y937350D03*
X1225750Y147350D03*
Y937350D03*
X1225850Y597350D03*
Y1387450D03*
X1645750Y97350D03*
Y147350D03*
Y887350D03*
Y937350D03*
D02*
D21*
X84160Y239800D03*
Y259800D03*
Y619800D03*
Y639800D03*
Y1029800D03*
Y1049800D03*
Y1409800D03*
Y1429800D03*
X354400Y239800D03*
Y259800D03*
Y619800D03*
Y639800D03*
Y1029800D03*
Y1049800D03*
Y1409800D03*
Y1429800D03*
X924160Y239800D03*
Y259800D03*
Y619800D03*
Y639800D03*
Y1029800D03*
Y1049800D03*
Y1409800D03*
Y1429800D03*
X1194400Y239800D03*
Y259800D03*
Y619800D03*
Y639800D03*
Y1029800D03*
Y1049800D03*
Y1409800D03*
Y1429800D03*
D02*
D22*
X104160Y1009800D03*
X334400D03*
X422250Y780750D03*
X426750Y736250D03*
X433250Y780750D03*
X443750D03*
X444750Y736250D03*
X453250Y782250D03*
X454250Y806850D03*
X464250Y807050D03*
X464750Y782250D03*
X475750D03*
X476050Y807050D03*
X487450Y782750D03*
X495650Y809750D03*
X496250Y782750D03*
X505250Y782950D03*
X508250Y732250D03*
X517050Y782250D03*
X520250Y732550D03*
X528250Y782250D03*
X531850Y732550D03*
X538750Y809350D03*
X538850Y782250D03*
X578150Y816250D03*
X1276850Y782150D03*
Y808150D03*
X1279750Y734750D03*
X1287650Y782150D03*
Y808150D03*
X1290750Y734750D03*
X1297650Y782150D03*
Y808150D03*
X1303250Y734750D03*
X1312650Y809250D03*
X1313250Y784750D03*
X1326150Y809250D03*
X1326750Y784750D03*
X1341150Y783850D03*
X1351250D03*
X1359350Y809950D03*
X1361250Y783850D03*
X1363750Y707550D03*
Y734250D03*
X1371750Y783750D03*
X1374750Y707550D03*
Y734250D03*
X1382750Y783750D03*
X1387250Y707550D03*
Y734250D03*
X1395250Y783750D03*
D02*
D23*
X165450Y751950D03*
Y761950D03*
Y771950D03*
X345250Y727750D03*
X402750Y729750D03*
X555250Y798750D03*
X577450Y798250D03*
X853450Y217550D03*
X863450D03*
X873450D03*
X887550Y977050D03*
Y987050D03*
Y997050D03*
X1197750Y728750D03*
X1254750Y727750D03*
X1414150Y793950D03*
X1430850Y802250D03*
X1540150Y207950D03*
X1550150D03*
X1560150D03*
X1602550Y1105550D03*
X1651950Y1389650D03*
Y1399650D03*
Y1409650D03*
D02*
D24*
X368250Y756250D03*
Y786250D03*
X1233750Y754250D03*
Y784250D03*
D02*
D25*
X1555750Y1085750D03*
Y1095750D03*
Y1105750D03*
Y1115750D03*
Y1125750D03*
Y1138250D03*
Y1148250D03*
Y1163250D03*
Y1173250D03*
Y1188250D03*
Y1198250D03*
Y1213250D03*
Y1223250D03*
Y1238250D03*
Y1248250D03*
Y1263250D03*
Y1273250D03*
X1565750Y1085750D03*
Y1095750D03*
Y1105750D03*
Y1115750D03*
Y1125750D03*
Y1138250D03*
Y1148250D03*
Y1163250D03*
Y1173250D03*
Y1188250D03*
Y1198250D03*
Y1213250D03*
Y1223250D03*
Y1238250D03*
Y1248250D03*
Y1263250D03*
Y1273250D03*
X1575750Y1085750D03*
Y1095750D03*
Y1105750D03*
Y1115750D03*
Y1125750D03*
Y1138250D03*
Y1148250D03*
Y1163250D03*
Y1173250D03*
Y1188250D03*
Y1198250D03*
Y1213250D03*
Y1223250D03*
Y1238250D03*
Y1248250D03*
Y1263250D03*
Y1273250D03*
X1585750Y1085750D03*
Y1095750D03*
Y1105750D03*
Y1115750D03*
Y1125750D03*
Y1138250D03*
Y1148250D03*
Y1163250D03*
Y1173250D03*
Y1188250D03*
Y1198250D03*
Y1213250D03*
Y1223250D03*
Y1238250D03*
Y1248250D03*
Y1263250D03*
Y1273250D03*
X1648150Y761150D03*
Y771150D03*
Y781150D03*
X1658150Y761150D03*
Y781150D03*
D02*
D26*
X569150Y731850D03*
Y741850D03*
X1179250Y791750D03*
Y801750D03*
X1418550Y756050D03*
Y766050D03*
D02*
D27*
X105150Y758250D03*
X860250Y154950D03*
Y1479050D03*
D02*
D28*
X1565150Y1237650D02*
X1565750Y1238250D01*
X1565950Y1248450D02*
X1565750Y1248250D01*
X1565950Y1263050D02*
X1565750Y1263250D01*
X1575350Y1248650D02*
X1575750Y1248250D01*
X1575350Y1262850D02*
X1575750Y1263250D01*
X1575850Y1238150D02*
X1575750Y1238250D01*
X0Y0D02*
M02*
