G04 EasyPC Gerber Version 21.0.3 Build 4286 *
G04 #@! TF.Part,Single*
G04 #@! TF.FileFunction,Copper,L4,Bot *
G04 #@! TF.FilePolarity,Positive *
%FSLAX35Y35*%
%MOIN*%
G04 #@! TA.AperFunction,ComponentPad*
%ADD23R,0.06000X0.06000*%
G04 #@! TD.AperFunction*
%ADD18C,0.00500*%
%ADD28C,0.05000*%
G04 #@! TA.AperFunction,WasherPad*
%ADD22C,0.05600*%
G04 #@! TA.AperFunction,ComponentPad*
%ADD25C,0.06000*%
%ADD26C,0.07874*%
%ADD24C,0.10000*%
G04 #@! TA.AperFunction,WasherPad*
%ADD21C,0.18000*%
%ADD71C,0.20000*%
%ADD19C,0.24000*%
%ADD70C,0.25000*%
G04 #@! TA.AperFunction,ViaPad*
%ADD27C,0.30000*%
G04 #@! TA.AperFunction,WasherPad*
%ADD20C,0.35000*%
X0Y0D02*
D02*
D18*
X8750Y68093D02*
Y13150D01*
X1706150*
Y65902*
G75*
G02X1678500Y70750I-13400J4848*
G01*
G75*
G02X1706150Y75598I14250*
G01*
Y207250*
X1620150*
G75*
G02X1594250Y233150J25900*
G01*
Y489850*
G75*
G02X1617550Y513150I23300*
G01*
X1704750*
Y542447*
G75*
G02X1705150Y579108I2700J18303*
G01*
Y942922*
G75*
G02Y979078I2500J18078*
G01*
Y1024050*
X1638450*
G75*
G02X1621350Y1041150J17100*
G01*
Y1315350*
G75*
G02X1639250Y1333250I17900*
G01*
X1708050*
Y1508250*
X8750*
Y1453407*
G75*
G02X37000Y1450750I14000J-2657*
G01*
G75*
G02X8750Y1448093I-14250*
G01*
Y1383250*
X61250*
G75*
G02X71450Y1373050J-10200*
G01*
Y1025450*
G75*
G02X60050Y1014050I-11400*
G01*
X8850*
Y979223*
G75*
G02X8750Y942272I-1000J-18473*
G01*
Y579428*
G75*
G02X10250Y542506I-900J-18528*
G01*
Y533050*
X53550*
G75*
G02X69850Y516750J-16300*
G01*
Y183550*
G75*
G02X56250Y169950I-13600*
G01*
X8750*
Y73407*
G75*
G02X37000Y70750I14000J-2657*
G01*
G75*
G02X8750Y68093I-14250*
G01*
X72910Y1049800D02*
G75*
G02X95410I11250D01*
G01*
G75*
G02X89314Y1039800I-11250*
G01*
G75*
G02X95410Y1029800I-5154J-10000*
G01*
G75*
G02X72910I-11250*
G01*
G75*
G02X79006Y1039800I11250*
G01*
G75*
G02X72910Y1049800I5154J10000*
G01*
Y1429800D02*
G75*
G02X95410I11250D01*
G01*
G75*
G02X89314Y1419800I-11250*
G01*
G75*
G02X95410Y1409800I-5154J-10000*
G01*
G75*
G02X72910I-11250*
G01*
G75*
G02X79006Y1419800I11250*
G01*
G75*
G02X72910Y1429800I5154J10000*
G01*
X99110Y1009800D02*
G75*
G02X109210I5050D01*
G01*
G75*
G02X99110I-5050*
G01*
X106000Y684150D02*
G75*
G02X135500I14750D01*
G01*
G75*
G02X106000I-14750*
G01*
X106300Y34150D02*
G75*
G02X135800I14750D01*
G01*
G75*
G02X106300I-14750*
G01*
Y824150D02*
G75*
G02X135800I14750D01*
G01*
G75*
G02X106300I-14750*
G01*
X106000Y1474150D02*
G75*
G02X135500I14750D01*
G01*
G75*
G02X106000I-14750*
G01*
X160199Y767199D02*
X170699D01*
Y756699*
X160199*
Y767199*
X329350Y1009800D02*
G75*
G02X339450I5050D01*
G01*
G75*
G02X329350I-5050*
G01*
X343150Y259800D02*
G75*
G02X365650I11250D01*
G01*
G75*
G02X359554Y249800I-11250*
G01*
G75*
G02X365650Y239800I-5154J-10000*
G01*
G75*
G02X343150I-11250*
G01*
G75*
G02X349246Y249800I11250*
G01*
G75*
G02X343150Y259800I5154J10000*
G01*
Y639800D02*
G75*
G02X365650I11250D01*
G01*
G75*
G02X359554Y629800I-11250*
G01*
G75*
G02X365650Y619800I-5154J-10000*
G01*
G75*
G02X343150I-11250*
G01*
G75*
G02X349246Y629800I11250*
G01*
G75*
G02X343150Y639800I5154J10000*
G01*
Y1049800D02*
G75*
G02X365650I11250D01*
G01*
G75*
G02X359554Y1039800I-11250*
G01*
G75*
G02X365650Y1029800I-5154J-10000*
G01*
G75*
G02X343150I-11250*
G01*
G75*
G02X349246Y1039800I11250*
G01*
G75*
G02X343150Y1049800I5154J10000*
G01*
X361000Y756250D02*
G75*
G02X375500I7250D01*
G01*
G75*
G02X361000I-7250*
G01*
X385750Y167100D02*
G75*
G02X405500Y147350J-19750D01*
G01*
G75*
G02X385750Y127600I-19750*
G01*
G75*
G02X366000Y147350J19750*
G01*
G75*
G02X385750Y167100I19750*
G01*
Y617100D02*
G75*
G02X405500Y597350J-19750D01*
G01*
G75*
G02X385750Y577600I-19750*
G01*
G75*
G02X366000Y597350J19750*
G01*
G75*
G02X385750Y617100I19750*
G01*
X343150Y1429800D02*
G75*
G02X365650I11250D01*
G01*
G75*
G02X359554Y1419800I-11250*
G01*
G75*
G02X365650Y1409800I-5154J-10000*
G01*
G75*
G02X343150I-11250*
G01*
G75*
G02X349246Y1419800I11250*
G01*
G75*
G02X343150Y1429800I5154J10000*
G01*
X385750Y957100D02*
G75*
G02X405500Y937350J-19750D01*
G01*
G75*
G02X385750Y917600I-19750*
G01*
G75*
G02X366000Y937350J19750*
G01*
G75*
G02X385750Y957100I19750*
G01*
X397500Y735000D02*
X408000D01*
Y724500*
X397500*
Y735000*
X385750Y1407100D02*
G75*
G02X405500Y1387350J-19750D01*
G01*
G75*
G02X385750Y1367600I-19750*
G01*
G75*
G02X366000Y1387350J19750*
G01*
G75*
G02X385750Y1407100I19750*
G01*
X417200Y780750D02*
G75*
G02X427300I5050D01*
G01*
G75*
G02X417200I-5050*
G01*
X421700Y736250D02*
G75*
G02X431800I5050D01*
G01*
G75*
G02X421700I-5050*
G01*
X428200Y780750D02*
G75*
G02X438300I5050D01*
G01*
G75*
G02X428200I-5050*
G01*
X438700D02*
G75*
G02X448800I5050D01*
G01*
G75*
G02X438700I-5050*
G01*
X439700Y736250D02*
G75*
G02X449800I5050D01*
G01*
G75*
G02X439700I-5050*
G01*
X500699Y785139D02*
G75*
G02X510300Y782950I4551J-2189D01*
G01*
G75*
G02X500801Y780561I-5050*
G01*
G75*
G02X491850Y780272I-4551J2189*
G01*
G75*
G02X482400Y782750I-4400J2478*
G01*
G75*
G02X491850Y785228I5050*
G01*
G75*
G02X500699Y785139I4400J-2478*
G01*
X490600Y809750D02*
G75*
G02X500700I5050D01*
G01*
G75*
G02X490600I-5050*
G01*
X562963Y741850D02*
G75*
G02X575337I6187D01*
G01*
G75*
G02X562963I-6187*
G01*
X572199Y803500D02*
X582699D01*
Y793000*
X572199*
Y803500*
X573100Y816250D02*
G75*
G02X583200I5050D01*
G01*
G75*
G02X573100I-5050*
G01*
X780650Y822550D02*
G75*
G02X792150Y811050J-11500D01*
G01*
Y699150*
G75*
G02X780650Y687650I-11500*
G01*
X604750*
G75*
G02X593250Y699150J11500*
G01*
Y811050*
G75*
G02X604750Y822550I11500*
G01*
X780650*
X946292Y534506D02*
G75*
G02X972450Y508348J-26158D01*
G01*
Y354650*
G75*
G02X951350Y333550I-21100*
G01*
X855978*
G75*
G02X829532Y357496I-2381J23946*
G01*
G75*
G02X829650Y359878I24067*
G01*
Y501064*
G75*
G02X863092Y534506I33442*
G01*
X946292*
X858199Y222801D02*
X868699D01*
Y212301*
X858199*
Y222801*
X901800Y34150D02*
G75*
G02X931300I14750D01*
G01*
G75*
G02X901800I-14750*
G01*
X912910Y259800D02*
G75*
G02X935410I11250D01*
G01*
G75*
G02X929314Y249800I-11250*
G01*
G75*
G02X935410Y239800I-5154J-10000*
G01*
G75*
G02X912910I-11250*
G01*
G75*
G02X919006Y249800I11250*
G01*
G75*
G02X912910Y259800I5154J10000*
G01*
X946300Y34150D02*
G75*
G02X975800I14750D01*
G01*
G75*
G02X946300I-14750*
G01*
X963792Y1351306D02*
G75*
G02X989950Y1325148J-26158D01*
G01*
Y1171450*
G75*
G02X968850Y1150350I-21100*
G01*
X873478*
G75*
G02X847032Y1174296I-2381J23946*
G01*
G75*
G02X847150Y1176678I24067*
G01*
Y1317864*
G75*
G02X880592Y1351306I33442*
G01*
X963792*
X882301Y992301D02*
X892801D01*
Y981801*
X882301*
Y992301*
X901800Y824150D02*
G75*
G02X931300I14750D01*
G01*
G75*
G02X901800I-14750*
G01*
X912910Y639800D02*
G75*
G02X935410I11250D01*
G01*
G75*
G02X929314Y629800I-11250*
G01*
G75*
G02X935410Y619800I-5154J-10000*
G01*
G75*
G02X912910I-11250*
G01*
G75*
G02X919006Y629800I11250*
G01*
G75*
G02X912910Y639800I5154J10000*
G01*
Y1049800D02*
G75*
G02X935410I11250D01*
G01*
G75*
G02X929314Y1039800I-11250*
G01*
G75*
G02X935410Y1029800I-5154J-10000*
G01*
G75*
G02X912910I-11250*
G01*
G75*
G02X919006Y1039800I11250*
G01*
G75*
G02X912910Y1049800I5154J10000*
G01*
X946100Y684150D02*
G75*
G02X975600I14750D01*
G01*
G75*
G02X946100I-14750*
G01*
X946300Y824150D02*
G75*
G02X975800I14750D01*
G01*
G75*
G02X946300I-14750*
G01*
X912910Y1429800D02*
G75*
G02X935410I11250D01*
G01*
G75*
G02X929314Y1419800I-11250*
G01*
G75*
G02X935410Y1409800I-5154J-10000*
G01*
G75*
G02X912910I-11250*
G01*
G75*
G02X919006Y1419800I11250*
G01*
G75*
G02X912910Y1429800I5154J10000*
G01*
X946100Y1474250D02*
G75*
G02X975600I14750D01*
G01*
G75*
G02X946100I-14750*
G01*
X1173063Y791750D02*
G75*
G02X1185437I6187D01*
G01*
G75*
G02X1173063I-6187*
G01*
X1183150Y259800D02*
G75*
G02X1205650I11250D01*
G01*
G75*
G02X1199554Y249800I-11250*
G01*
G75*
G02X1205650Y239800I-5154J-10000*
G01*
G75*
G02X1183150I-11250*
G01*
G75*
G02X1189246Y249800I11250*
G01*
G75*
G02X1183150Y259800I5154J10000*
G01*
Y639800D02*
G75*
G02X1205650I11250D01*
G01*
G75*
G02X1199554Y629800I-11250*
G01*
G75*
G02X1205650Y619800I-5154J-10000*
G01*
G75*
G02X1183150I-11250*
G01*
G75*
G02X1189246Y629800I11250*
G01*
G75*
G02X1183150Y639800I5154J10000*
G01*
Y1049800D02*
G75*
G02X1205650I11250D01*
G01*
G75*
G02X1199554Y1039800I-11250*
G01*
G75*
G02X1205650Y1029800I-5154J-10000*
G01*
G75*
G02X1183150I-11250*
G01*
G75*
G02X1189246Y1039800I11250*
G01*
G75*
G02X1183150Y1049800I5154J10000*
G01*
Y1429800D02*
G75*
G02X1205650I11250D01*
G01*
G75*
G02X1199554Y1419800I-11250*
G01*
G75*
G02X1205650Y1409800I-5154J-10000*
G01*
G75*
G02X1183150I-11250*
G01*
G75*
G02X1189246Y1419800I11250*
G01*
G75*
G02X1183150Y1429800I5154J10000*
G01*
X1206000Y147350D02*
G75*
G02X1245500I19750D01*
G01*
G75*
G02X1225750Y127600I-19750*
G01*
G75*
G02X1206000Y147350J19750*
G01*
X1225750Y957100D02*
G75*
G02X1245500Y937350J-19750D01*
G01*
G75*
G02X1225750Y917600I-19750*
G01*
G75*
G02X1206000Y937350J19750*
G01*
G75*
G02X1225750Y957100I19750*
G01*
X1226500Y754250D02*
G75*
G02X1241000I7250D01*
G01*
G75*
G02X1226500I-7250*
G01*
X1225850Y617100D02*
G75*
G02X1245600Y597350J-19750D01*
G01*
G75*
G02X1225850Y577600I-19750*
G01*
G75*
G02X1206100Y597350J19750*
G01*
G75*
G02X1225850Y617100I19750*
G01*
Y1407200D02*
G75*
G02X1245600Y1387450J-19750D01*
G01*
G75*
G02X1225850Y1367700I-19750*
G01*
G75*
G02X1206100Y1387450J19750*
G01*
G75*
G02X1225850Y1407200I19750*
G01*
X1249500Y733000D02*
X1260000D01*
Y722500*
X1249500*
Y733000*
X1271800Y782150D02*
G75*
G02X1281900I5050D01*
G01*
G75*
G02X1271800I-5050*
G01*
X1274700Y734750D02*
G75*
G02X1284800I5050D01*
G01*
G75*
G02X1274700I-5050*
G01*
X1271800Y808150D02*
G75*
G02X1281900I5050D01*
G01*
G75*
G02X1271800I-5050*
G01*
X1292650Y782859D02*
G75*
G02X1302700Y782150I5000J-709D01*
G01*
G75*
G02X1292650Y781441I-5050*
G01*
G75*
G02X1282600Y782150I-5000J709*
G01*
G75*
G02X1292650Y782859I5050*
G01*
X1298200Y734750D02*
G75*
G02X1308300I5050D01*
G01*
G75*
G02X1298200I-5050*
G01*
X1285700D02*
G75*
G02X1295800I5050D01*
G01*
G75*
G02X1285700I-5050*
G01*
X1292650Y808859D02*
G75*
G02X1302700Y808150I5000J-709D01*
G01*
G75*
G02X1292650Y807441I-5050*
G01*
G75*
G02X1282600Y808150I-5000J709*
G01*
G75*
G02X1292650Y808859I5050*
G01*
X1336100Y783850D02*
G75*
G02X1346200I5050D01*
G01*
G75*
G02X1336100I-5050*
G01*
X1356250Y784559D02*
G75*
G02X1366300Y783850I5000J-709D01*
G01*
G75*
G02X1356250Y783141I-5050*
G01*
G75*
G02X1346200Y783850I-5000J709*
G01*
G75*
G02X1356250Y784559I5050*
G01*
X1354300Y809950D02*
G75*
G02X1364400I5050D01*
G01*
G75*
G02X1354300I-5050*
G01*
X1412363Y756050D02*
G75*
G02X1424737I6187D01*
G01*
G75*
G02X1412363I-6187*
G01*
X1425600Y807500D02*
X1436100D01*
Y797000*
X1425600*
Y807500*
X1622450Y820150D02*
G75*
G02X1633950Y808650J-11500D01*
G01*
Y696750*
G75*
G02X1622450Y685250I-11500*
G01*
X1453850*
G75*
G02X1442350Y696750J11500*
G01*
Y808650*
G75*
G02X1453850Y820150I11500*
G01*
X1622450*
X1544900Y213199D02*
X1555400D01*
Y202699*
X1544900*
Y213199*
X1580750Y1127351D02*
G75*
G02X1591000Y1125750I5000J-1601D01*
G01*
G75*
G02X1587351Y1120750I-5250*
G01*
G75*
G02Y1110750I-1601J-5000*
G01*
G75*
G02Y1100750I-1601J-5000*
G01*
G75*
G02Y1090750I-1601J-5000*
G01*
G75*
G02X1585750Y1080500I-1601J-5000*
G01*
G75*
G02X1580750Y1084149J5250*
G01*
G75*
G02X1570750I-5000J1601*
G01*
G75*
G02X1560750I-5000J1601*
G01*
G75*
G02X1550500Y1085750I-5000J1601*
G01*
G75*
G02X1554149Y1090750I5250*
G01*
G75*
G02X1555750Y1101000I1601J5000*
G01*
G75*
G02X1560750Y1097351J-5250*
G01*
G75*
G02X1564149Y1100750I5000J-1601*
G01*
G75*
G02Y1110750I1601J5000*
G01*
G75*
G02X1560750Y1114149I1601J5000*
G01*
G75*
G02X1550500Y1115750I-5000J1601*
G01*
G75*
G02X1554149Y1120750I5250*
G01*
G75*
G02X1555750Y1131000I1601J5000*
G01*
G75*
G02X1560750Y1127351J-5250*
G01*
G75*
G02X1570750I5000J-1601*
G01*
G75*
G02X1580750I5000J-1601*
G01*
X1565750Y1070400D02*
G75*
G02X1572900Y1063250J-7150D01*
G01*
G75*
G02X1565750Y1056100I-7150*
G01*
G75*
G02X1558600Y1063250J7150*
G01*
G75*
G02X1565750Y1070400I7150*
G01*
X1580750Y1224851D02*
G75*
G02X1591000Y1223250I5000J-1601D01*
G01*
G75*
G02X1587351Y1218250I-5250*
G01*
G75*
G02X1585750Y1208000I-1601J-5000*
G01*
G75*
G02X1580750Y1211649J5250*
G01*
G75*
G02X1570750I-5000J1601*
G01*
G75*
G02X1560750I-5000J1601*
G01*
G75*
G02X1550500Y1213250I-5000J1601*
G01*
G75*
G02X1554149Y1218250I5250*
G01*
G75*
G02X1555750Y1228500I1601J5000*
G01*
G75*
G02X1560750Y1224851J-5250*
G01*
G75*
G02X1570750I5000J-1601*
G01*
G75*
G02X1580750I5000J-1601*
G01*
Y1249851D02*
G75*
G02X1591000Y1248250I5000J-1601D01*
G01*
G75*
G02X1587351Y1243250I-5250*
G01*
G75*
G02X1585750Y1233000I-1601J-5000*
G01*
G75*
G02X1580750Y1236649J5250*
G01*
G75*
G02X1570750I-5000J1601*
G01*
G75*
G02X1560750I-5000J1601*
G01*
G75*
G02X1550500Y1238250I-5000J1601*
G01*
G75*
G02X1554149Y1243250I5250*
G01*
G75*
G02X1555750Y1253500I1601J5000*
G01*
G75*
G02X1560750Y1249851J-5250*
G01*
G75*
G02X1570750I5000J-1601*
G01*
G75*
G02X1580750I5000J-1601*
G01*
Y1274851D02*
G75*
G02X1591000Y1273250I5000J-1601D01*
G01*
G75*
G02X1587351Y1268250I-5250*
G01*
G75*
G02X1585750Y1258000I-1601J-5000*
G01*
G75*
G02X1580750Y1261649J5250*
G01*
G75*
G02X1570750I-5000J1601*
G01*
G75*
G02X1560750I-5000J1601*
G01*
G75*
G02X1550500Y1263250I-5000J1601*
G01*
G75*
G02X1554149Y1268250I5250*
G01*
G75*
G02X1555750Y1278500I1601J5000*
G01*
G75*
G02X1560750Y1274851J-5250*
G01*
G75*
G02X1570750I5000J-1601*
G01*
G75*
G02X1580750I5000J-1601*
G01*
X1565750Y1305400D02*
G75*
G02X1572900Y1298250J-7150D01*
G01*
G75*
G02X1565750Y1291100I-7150*
G01*
G75*
G02X1558600Y1298250J7150*
G01*
G75*
G02X1565750Y1305400I7150*
G01*
X1597301Y1110801D02*
X1607801D01*
Y1100301*
X1597301*
Y1110801*
X1646699Y1404900D02*
X1657199D01*
Y1394400*
X1646699*
Y1404900*
X1678500Y1450750D02*
G75*
G02X1707000I14250D01*
G01*
G75*
G02X1678500I-14250*
G01*
X61800Y824150D02*
G75*
G02X91300I14750D01*
G01*
G75*
G02X61800I-14750*
G01*
X72910Y259800D02*
G75*
G02X95410I11250D01*
G01*
G75*
G02X89314Y249800I-11250*
G01*
G75*
G02X95410Y239800I-5154J-10000*
G01*
G75*
G02X72910I-11250*
G01*
G75*
G02X79006Y249800I11250*
G01*
G75*
G02X72910Y259800I5154J10000*
G01*
Y639800D02*
G75*
G02X95410I11250D01*
G01*
G75*
G02X89314Y629800I-11250*
G01*
G75*
G02X95410Y619800I-5154J-10000*
G01*
G75*
G02X72910I-11250*
G01*
G75*
G02X79006Y629800I11250*
G01*
G75*
G02X72910Y639800I5154J10000*
G01*
X61800Y34150D02*
G75*
G02X91300I14750D01*
G01*
G75*
G02X61800I-14750*
G01*
X1653150Y782751D02*
G75*
G02X1663400Y781150I5000J-1601D01*
G01*
G75*
G02X1653150Y779549I-5250*
G01*
G75*
G02X1649751Y776150I-5000J1601*
G01*
G75*
G02X1648150Y765900I-1601J-5000*
G01*
G75*
G02X1646549Y776150J5250*
G01*
G75*
G02X1648150Y786400I1601J5000*
G01*
G75*
G02X1653150Y782751J-5250*
G01*
X1658150Y766400D02*
G75*
G02X1663400Y761150J-5250D01*
G01*
G75*
G02X1658150Y755900I-5250*
G01*
G75*
G02X1652900Y761150J5250*
G01*
G75*
G02X1658150Y766400I5250*
G01*
X1706150Y34150D02*
G36*
X975800D01*
G75*
G02X946300I-14750*
G01*
X931300*
G75*
G02X901800I-14750*
G01*
X135800*
G75*
G02X106300I-14750*
G01*
X91300*
G75*
G02X61800I-14750*
G01*
X9000*
Y13400*
X1706150*
Y34150*
G37*
Y147350D02*
G36*
X1245500D01*
G75*
G02X1225750Y127600I-19750*
G01*
G75*
G02X1206000Y147350J19750*
G01*
X405500*
G75*
G02X385750Y127600I-19750*
G01*
G75*
G02X366000Y147350J19750*
G01*
X9000*
Y74492*
G75*
G02X37000Y70750I13750J-3742*
G01*
G75*
G02X9000Y67008I-14250*
G01*
Y34150*
X61800*
G75*
G02X91300I14750*
G01*
X106300*
G75*
G02X135800I14750*
G01*
X901800*
G75*
G02X931300I14750*
G01*
X946300*
G75*
G02X975800I14750*
G01*
X1706150*
Y65902*
G75*
G02X1678500Y70750I-13400J4848*
G01*
G75*
G02X1706150Y75598I14250*
G01*
Y147350*
G37*
X1614174Y207949D02*
G36*
X1555400D01*
Y202699*
X1544900*
Y207949*
X69850*
Y183550*
G75*
G02X56250Y169950I-13600*
G01*
X9000*
Y147350*
X366000*
G75*
G02X385750Y167100I19750*
G01*
G75*
G02X405500Y147350J-19750*
G01*
X1206000*
G75*
G02X1245500I19750*
G01*
X1706150*
Y207250*
X1620150*
G75*
G02X1614174Y207949J25900*
G01*
G37*
X1599474Y217551D02*
G36*
X868699D01*
Y212301*
X858199*
Y217551*
X69850*
Y207949*
X1544900*
Y213199*
X1555400*
Y207949*
X1614174*
G75*
G02X1599474Y217551I5976J25202*
G01*
G37*
X1594250Y249800D02*
G36*
X1199554D01*
G75*
G02X1205650Y239800I-5154J-10000*
G01*
Y239800*
G75*
G02X1183150I-11250*
G01*
Y239800*
G75*
G02X1189246Y249800I11250*
G01*
X929314*
G75*
G02X935410Y239800I-5154J-10000*
G01*
Y239800*
G75*
G02X912910I-11250*
G01*
Y239800*
G75*
G02X919006Y249800I11250*
G01*
X359554*
G75*
G02X365650Y239800I-5154J-10000*
G01*
Y239800*
G75*
G02X343150I-11250*
G01*
Y239800*
G75*
G02X349246Y249800I11250*
G01*
X89314*
G75*
G02X95410Y239800I-5154J-10000*
G01*
Y239800*
G75*
G02X72910I-11250*
G01*
Y239800*
G75*
G02X79006Y249800I11250*
G01*
X69850*
Y217551*
X858199*
Y222801*
X868699*
Y217551*
X1599474*
G75*
G02X1594250Y233150I20676J15598*
G01*
Y233150*
Y249800*
G37*
Y433969D02*
G36*
X972450D01*
Y354650*
G75*
G02X951350Y333550I-21100*
G01*
X855978*
G75*
G02X829532Y357496I-2381J23946*
G01*
Y357496*
G75*
G02X829650Y359878I24063*
G01*
Y433969*
X69850*
Y249800*
X79006*
G75*
G02X72910Y259800I5154J10000*
G01*
Y259800*
G75*
G02X95410I11250*
G01*
Y259800*
G75*
G02X89314Y249800I-11250*
G01*
X349246*
G75*
G02X343150Y259800I5154J10000*
G01*
Y259800*
G75*
G02X365650I11250*
G01*
Y259800*
G75*
G02X359554Y249800I-11250*
G01*
X919006*
G75*
G02X912910Y259800I5154J10000*
G01*
Y259800*
G75*
G02X935410I11250*
G01*
Y259800*
G75*
G02X929314Y249800I-11250*
G01*
X1189246*
G75*
G02X1183150Y259800I5154J10000*
G01*
Y259800*
G75*
G02X1205650I11250*
G01*
Y259800*
G75*
G02X1199554Y249800I-11250*
G01*
X1594250*
Y433969*
G37*
X1705150Y597350D02*
G36*
X1245600D01*
G75*
G02X1225850Y577600I-19750*
G01*
G75*
G02X1206100Y597350J19750*
G01*
X405500*
G75*
G02X385750Y577600I-19750*
G01*
G75*
G02X366000Y597350J19750*
G01*
X9000*
Y579415*
G75*
G02X26400Y560900I-1151J-18515*
G01*
G75*
G02X10250Y542506I-18550*
G01*
Y533050*
X53550*
G75*
G02X69850Y516750J-16300*
G01*
Y433969*
X829650*
Y501064*
G75*
G02X863092Y534506I33442*
G01*
X946292*
G75*
G02X972450Y508348J-26158*
G01*
Y508348*
Y433969*
X1594250*
Y489850*
G75*
G02X1617550Y513150I23300*
G01*
X1704750*
Y542447*
G75*
G02X1688949Y560750I2700J18304*
G01*
G75*
G02X1705150Y579108I18502*
G01*
Y597350*
G37*
Y629800D02*
G36*
X1199554D01*
G75*
G02X1205650Y619800I-5154J-10000*
G01*
Y619800*
G75*
G02X1183150I-11250*
G01*
Y619800*
G75*
G02X1189246Y629800I11250*
G01*
X929314*
G75*
G02X935410Y619800I-5154J-10000*
G01*
Y619800*
G75*
G02X912910I-11250*
G01*
Y619800*
G75*
G02X919006Y629800I11250*
G01*
X359554*
G75*
G02X365650Y619800I-5154J-10000*
G01*
Y619800*
G75*
G02X343150I-11250*
G01*
Y619800*
G75*
G02X349246Y629800I11250*
G01*
X89314*
G75*
G02X95410Y619800I-5154J-10000*
G01*
Y619800*
G75*
G02X72910I-11250*
G01*
Y619800*
G75*
G02X79006Y629800I11250*
G01*
X9000*
Y597350*
X366000*
G75*
G02X385750Y617100I19750*
G01*
G75*
G02X405500Y597350J-19750*
G01*
X1206100*
G75*
G02X1225850Y617100I19750*
G01*
G75*
G02X1245600Y597350J-19750*
G01*
X1705150*
Y629800*
G37*
Y684150D02*
G36*
X975600D01*
G75*
G02X946100I-14750*
G01*
X135500*
G75*
G02X106000I-14750*
G01*
X9000*
Y629800*
X79006*
G75*
G02X72910Y639800I5154J10000*
G01*
Y639800*
G75*
G02X95410I11250*
G01*
Y639800*
G75*
G02X89314Y629800I-11250*
G01*
X349246*
G75*
G02X343150Y639800I5154J10000*
G01*
Y639800*
G75*
G02X365650I11250*
G01*
Y639800*
G75*
G02X359554Y629800I-11250*
G01*
X919006*
G75*
G02X912910Y639800I5154J10000*
G01*
Y639800*
G75*
G02X935410I11250*
G01*
Y639800*
G75*
G02X929314Y629800I-11250*
G01*
X1189246*
G75*
G02X1183150Y639800I5154J10000*
G01*
Y639800*
G75*
G02X1205650I11250*
G01*
Y639800*
G75*
G02X1199554Y629800I-11250*
G01*
X1705150*
Y684150*
G37*
Y729750D02*
G36*
X1633950D01*
Y696750*
Y696750*
G75*
G02X1622450Y685250I-11500*
G01*
X1453850*
G75*
G02X1442350Y696750J11500*
G01*
Y696750*
Y729750*
X1303959*
G75*
G02X1302541I-709J5002*
G01*
X1291459*
G75*
G02X1290041I-709J5002*
G01*
X1280459*
G75*
G02X1279041I-709J5002*
G01*
X1260000*
Y722500*
X1249500*
Y729750*
X792150*
Y699150*
Y699150*
G75*
G02X780650Y687650I-11500*
G01*
X604750*
G75*
G02X593250Y699150J11500*
G01*
Y699150*
Y729750*
X408000*
Y724500*
X397500*
Y729750*
X9000*
Y684150*
X106000*
G75*
G02X135500I14750*
G01*
X946100*
G75*
G02X975600I14750*
G01*
X1705150*
Y729750*
G37*
X593250Y736250D02*
G36*
X571780D01*
G75*
G02X566520I-2630J5600*
G01*
X449800*
G75*
G02X439700I-5050*
G01*
X431800*
G75*
G02X421700I-5050*
G01*
X9000*
Y729750*
X397500*
Y735000*
X408000*
Y729750*
X593250*
Y736250*
G37*
X1274928D02*
G36*
X792150D01*
Y729750*
X1249500*
Y733000*
X1260000*
Y729750*
X1279041*
G75*
G02X1274700Y734750I709J5000*
G01*
G75*
G02X1274928Y736250I5050*
G01*
G37*
X1285928D02*
G36*
X1284572D01*
G75*
G02X1284800Y734750I-4822J-1500*
G01*
G75*
G02X1280459Y729750I-5050*
G01*
X1290041*
G75*
G02X1285700Y734750I709J5000*
G01*
G75*
G02X1285928Y736250I5050*
G01*
G37*
X1298428D02*
G36*
X1295572D01*
G75*
G02X1295800Y734750I-4822J-1500*
G01*
G75*
G02X1291459Y729750I-5050*
G01*
X1302541*
G75*
G02X1298200Y734750I709J5000*
G01*
G75*
G02X1298428Y736250I5050*
G01*
G37*
X1442350D02*
G36*
X1308072D01*
G75*
G02X1308300Y734750I-4822J-1500*
G01*
G75*
G02X1303959Y729750I-5050*
G01*
X1442350*
Y736250*
G37*
X1705150D02*
G36*
X1633950D01*
Y729750*
X1705150*
Y736250*
G37*
X593250Y754250D02*
G36*
X375219D01*
G75*
G02X361281I-6969J2000*
G01*
X9000*
Y736250*
X421700*
G75*
G02X431800I5050*
G01*
X439700*
G75*
G02X449800I5050*
G01*
X566520*
G75*
G02X562963Y741850I2630J5600*
G01*
G75*
G02X575337I6187*
G01*
G75*
G02X571780Y736250I-6187*
G01*
X593250*
Y754250*
G37*
X1442350D02*
G36*
X1424469D01*
G75*
G02X1412631I-5919J1800*
G01*
X1241000*
G75*
G02X1226500I-7250*
G01*
X792150*
Y736250*
X1274928*
G75*
G02X1284572I4822J-1500*
G01*
X1285928*
G75*
G02X1295572I4822J-1500*
G01*
X1298428*
G75*
G02X1308072I4822J-1500*
G01*
X1442350*
Y754250*
G37*
X1705150D02*
G36*
X1633950D01*
Y736250*
X1705150*
Y754250*
G37*
X361281D02*
G36*
G75*
G02X361000Y756250I6969J2001D01*
G01*
G75*
G02X363768Y761949I7250*
G01*
X170699*
Y756699*
X160199*
Y761949*
X9000*
Y754250*
X361281*
G37*
X593250Y761949D02*
G36*
X372732D01*
G75*
G02X375500Y756250I-4482J-5699*
G01*
G75*
G02X375219Y754250I-7250J1*
G01*
X593250*
Y761949*
G37*
X1412631Y754250D02*
G36*
G75*
G02X1412363Y756050I5920J1800D01*
G01*
G75*
G02X1416684Y761949I6187*
G01*
X792150*
Y754250*
X1226500*
G75*
G02X1241000I7250*
G01*
X1412631*
G37*
X1442350Y761949D02*
G36*
X1420416D01*
G75*
G02X1424737Y756050I-1866J-5899*
G01*
G75*
G02X1424469Y754250I-6187J0*
G01*
X1442350*
Y761949*
G37*
X1705150D02*
G36*
X1663339D01*
G75*
G02X1663400Y761150I-5189J-798*
G01*
G75*
G02X1658150Y755900I-5250*
G01*
G75*
G02X1652900Y761150J5250*
G01*
G75*
G02X1652961Y761949I5250J1*
G01*
X1633950*
Y754250*
X1705150*
Y761949*
G37*
X593250Y780750D02*
G36*
X509796D01*
G75*
G02X500801Y780561I-4546J2200*
G01*
G75*
G02X491850Y780272I-4551J2189*
G01*
G75*
G02X482813Y780750I-4400J2478*
G01*
X448800*
G75*
G02X438700I-5050*
G01*
X438300*
G75*
G02X428200I-5050*
G01*
X427300*
G75*
G02X417200I-5050*
G01*
X9000*
Y761949*
X160199*
Y767199*
X170699*
Y761949*
X363768*
G75*
G02X372732I4482J-5699*
G01*
X593250*
Y780750*
G37*
X1442350D02*
G36*
X1365237D01*
G75*
G02X1357263I-3987J3100*
G01*
X1355237*
G75*
G02X1347263I-3987J3100*
G01*
X1345137*
G75*
G02X1337163I-3987J3100*
G01*
X1302502*
G75*
G02X1292798I-4852J1400*
G01*
X1292502*
G75*
G02X1282798I-4852J1400*
G01*
X1281702*
G75*
G02X1271998I-4852J1400*
G01*
X792150*
Y761949*
X1416684*
G75*
G02X1420416I1866J-5898*
G01*
X1442350*
Y780750*
G37*
X1705150D02*
G36*
X1663385D01*
G75*
G02X1653150Y779549I-5235J400*
G01*
G75*
G02X1649751Y776150I-5001J1602*
G01*
G75*
G02X1653400Y771150I-1601J-5000*
G01*
G75*
G02X1648150Y765900I-5250*
G01*
G75*
G02X1642900Y771150J5250*
G01*
G75*
G02X1646549Y776150I5250*
G01*
G75*
G02X1642915Y780750I1601J5000*
G01*
X1633950*
Y761949*
X1652961*
G75*
G02X1658150Y766400I5189J-799*
G01*
G75*
G02X1663339Y761949I0J-5250*
G01*
X1705150*
Y780750*
G37*
X593250Y791750D02*
G36*
X9000D01*
Y780750*
X417200*
G75*
G02X427300I5050*
G01*
X428200*
G75*
G02X438300I5050*
G01*
X438700*
G75*
G02X448800I5050*
G01*
X482813*
G75*
G02X482400Y782750I4637J2000*
G01*
G75*
G02X491850Y785228I5050*
G01*
G75*
G02X500699Y785139I4400J-2479*
G01*
G75*
G02X510300Y782950I4551J-2189*
G01*
G75*
G02X509796Y780750I-5050*
G01*
X593250*
Y791750*
G37*
X1292798Y780750D02*
G36*
G75*
G02X1292650Y781441I4852J1401D01*
G01*
G75*
G02X1292502Y780750I-5000J710*
G01*
X1292798*
G37*
X1357263D02*
G36*
G75*
G02X1356250Y783141I3987J3100D01*
G01*
G75*
G02X1355237Y780750I-5000J709*
G01*
X1357263*
G37*
X1442350Y791750D02*
G36*
X1185437D01*
G75*
G02X1173063I-6187*
G01*
X792150*
Y780750*
X1271998*
G75*
G02X1271800Y782150I4852J1400*
G01*
G75*
G02X1281900I5050*
G01*
G75*
G02X1281702Y780750I-5050J0*
G01*
X1282798*
G75*
G02X1282600Y782150I4852J1400*
G01*
G75*
G02X1292650Y782859I5050*
G01*
G75*
G02X1302700Y782150I5000J-709*
G01*
G75*
G02X1302502Y780750I-5050J0*
G01*
X1337163*
G75*
G02X1336100Y783850I3987J3100*
G01*
G75*
G02X1346200I5050*
G01*
G75*
G02X1345137Y780750I-5050*
G01*
X1347263*
G75*
G02X1346200Y783850I3987J3100*
G01*
G75*
G02X1356250Y784559I5050*
G01*
G75*
G02X1366300Y783850I5000J-709*
G01*
G75*
G02X1365237Y780750I-5050*
G01*
X1442350*
Y791750*
G37*
X1705150D02*
G36*
X1633950D01*
Y780750*
X1642915*
G75*
G02X1642900Y781150I5235J401*
G01*
G75*
G02X1648150Y786400I5250*
G01*
G75*
G02X1653150Y782751I-1J-5251*
G01*
G75*
G02X1663400Y781150I5000J-1601*
G01*
G75*
G02X1663385Y780750I-5251J1*
G01*
X1705150*
Y791750*
G37*
X593250Y798250D02*
G36*
X582699D01*
Y793000*
X572199*
Y798250*
X9000*
Y791750*
X593250*
Y798250*
G37*
X1442350D02*
G36*
X1436100D01*
Y797000*
X1425600*
Y798250*
X792150*
Y791750*
X1173063*
G75*
G02X1185437I6187*
G01*
X1442350*
Y798250*
G37*
X1705150D02*
G36*
X1633950D01*
Y791750*
X1705150*
Y798250*
G37*
X593250Y809750D02*
G36*
X500700D01*
G75*
G02X490600I-5050*
G01*
X124244*
G75*
G02X117856I-3194J14400*
G01*
X79744*
G75*
G02X73356I-3194J14400*
G01*
X9000*
Y798250*
X572199*
Y803500*
X582699*
Y798250*
X593250*
Y809750*
G37*
X1292860D02*
G36*
X1292440D01*
G75*
G02X1292650Y808859I-4790J-1600*
G01*
G75*
G02X1292860Y809750I5000J-709*
G01*
G37*
X1442350Y798250D02*
G36*
Y808650D01*
Y808650*
G75*
G02X1442403Y809750I11502J-1*
G01*
X1364396*
G75*
G02X1354304I-5046J200*
G01*
X1302440*
G75*
G02X1302700Y808150I-4790J-1600*
G01*
G75*
G02X1292650Y807441I-5050*
G01*
G75*
G02X1282600Y808150I-5000J709*
G01*
G75*
G02X1282860Y809750I5050J0*
G01*
X1281640*
G75*
G02X1281900Y808150I-4790J-1600*
G01*
G75*
G02X1271800I-5050*
G01*
G75*
G02X1272060Y809750I5050J0*
G01*
X964244*
G75*
G02X957856I-3194J14400*
G01*
X919744*
G75*
G02X913356I-3194J14400*
G01*
X792150*
Y798250*
X1425600*
Y807500*
X1436100*
Y798250*
X1442350*
G37*
X1705150Y809750D02*
G36*
X1633897D01*
G75*
G02X1633950Y808650I-11449J-1100*
G01*
Y808650*
Y798250*
X1705150*
Y809750*
G37*
X64094Y816250D02*
G36*
X9000D01*
Y809750*
X73356*
G75*
G02X64094Y816250I3194J14400*
G01*
G37*
X108594D02*
G36*
X89006D01*
G75*
G02X79744Y809750I-12456J7900*
G01*
X117856*
G75*
G02X108594Y816250I3194J14400*
G01*
G37*
X593250Y809750D02*
G36*
Y811050D01*
Y811050*
G75*
G02X594493Y816250I11500*
G01*
X583200*
G75*
G02X573100I-5050*
G01*
X133506*
G75*
G02X124244Y809750I-12456J7900*
G01*
X490600*
G75*
G02X500700I5050*
G01*
X593250*
G37*
X904094Y816250D02*
G36*
X790907D01*
G75*
G02X792150Y811050I-10257J-5200*
G01*
Y811050*
Y809750*
X913356*
G75*
G02X904094Y816250I3194J14400*
G01*
G37*
X948594D02*
G36*
X929006D01*
G75*
G02X919744Y809750I-12456J7900*
G01*
X957856*
G75*
G02X948594Y816250I3194J14400*
G01*
G37*
X1442403Y809750D02*
G36*
G75*
G02X1445219Y816250I11447J-1099D01*
G01*
X973506*
G75*
G02X964244Y809750I-12456J7900*
G01*
X1272060*
G75*
G02X1281640I4790J-1600*
G01*
X1282860*
G75*
G02X1292440I4790J-1600*
G01*
X1292860*
G75*
G02X1302440I4790J-1600*
G01*
X1354304*
G75*
G02X1354300Y809950I5048J199*
G01*
G75*
G02X1364400I5050*
G01*
G75*
G02X1364396Y809750I-5052J-1*
G01*
X1442403*
G37*
X1705150Y816250D02*
G36*
X1631081D01*
G75*
G02X1633897Y809750I-8631J-7599*
G01*
X1705150*
Y816250*
G37*
X61800Y824150D02*
G36*
X9000D01*
Y816250*
X64094*
G75*
G02X61800Y824150I12456J7900*
G01*
G37*
X106300D02*
G36*
X91300D01*
G75*
G02X89006Y816250I-14750J0*
G01*
X108594*
G75*
G02X106300Y824150I12456J7900*
G01*
G37*
X901800D02*
G36*
X135800D01*
G75*
G02X133506Y816250I-14750J0*
G01*
X573100*
G75*
G02X583200I5050*
G01*
X594493*
G75*
G02X604750Y822550I10257J-5200*
G01*
X780650*
G75*
G02X790907Y816250I0J-11500*
G01*
X904094*
G75*
G02X901800Y824150I12456J7900*
G01*
G37*
X946300D02*
G36*
X931300D01*
G75*
G02X929006Y816250I-14750J0*
G01*
X948594*
G75*
G02X946300Y824150I12456J7900*
G01*
G37*
X1705150D02*
G36*
X975800D01*
G75*
G02X973506Y816250I-14750J0*
G01*
X1445219*
G75*
G02X1453850Y820150I8631J-7600*
G01*
X1622450*
G75*
G02X1631081Y816250I0J-11500*
G01*
X1705150*
Y824150*
G37*
Y937350D02*
G36*
X1245500D01*
G75*
G02X1225750Y917600I-19750*
G01*
G75*
G02X1206000Y937350J19750*
G01*
X405500*
G75*
G02X385750Y917600I-19750*
G01*
G75*
G02X366000Y937350J19750*
G01*
X9000*
Y824150*
X61800*
G75*
G02X91300I14750*
G01*
X106300*
G75*
G02X135800I14750*
G01*
X901800*
G75*
G02X931300I14750*
G01*
X946300*
G75*
G02X975800I14750*
G01*
X1705150*
Y937350*
G37*
Y987051D02*
G36*
X892801D01*
Y981801*
X882301*
Y987051*
X9000*
Y979214*
G75*
G02X26350Y960750I-1150J-18464*
G01*
G75*
G02X9000Y942286I-18500*
G01*
Y937350*
X366000*
G75*
G02X385750Y957100I19750*
G01*
G75*
G02X405500Y937350J-19750*
G01*
X1206000*
G75*
G02X1225750Y957100I19750*
G01*
G75*
G02X1245500Y937350J-19750*
G01*
X1705150*
Y942922*
G75*
G02X1689400Y961000I2500J18078*
G01*
G75*
G02X1705150Y979078I18250*
G01*
Y987051*
G37*
Y1009800D02*
G36*
X339450D01*
G75*
G02X329350I-5050*
G01*
X109210*
G75*
G02X99110I-5050*
G01*
X9000*
Y987051*
X882301*
Y992301*
X892801*
Y987051*
X1705150*
Y1009800*
G37*
X1621404Y1039800D02*
G36*
X1199554D01*
G75*
G02X1205650Y1029800I-5154J-10000*
G01*
Y1029800*
G75*
G02X1183150I-11250*
G01*
Y1029800*
G75*
G02X1189246Y1039800I11250*
G01*
X929314*
G75*
G02X935410Y1029800I-5154J-10000*
G01*
Y1029800*
G75*
G02X912910I-11250*
G01*
Y1029800*
G75*
G02X919006Y1039800I11250*
G01*
X359554*
G75*
G02X365650Y1029800I-5154J-10000*
G01*
Y1029800*
G75*
G02X343150I-11250*
G01*
Y1029800*
G75*
G02X349246Y1039800I11250*
G01*
X89314*
G75*
G02X95410Y1029800I-5154J-10000*
G01*
Y1029800*
G75*
G02X72910I-11250*
G01*
Y1029800*
G75*
G02X79006Y1039800I11250*
G01*
X71450*
Y1025450*
G75*
G02X60050Y1014050I-11400*
G01*
X9000*
Y1009800*
X99110*
G75*
G02X109210I5050*
G01*
X329350*
G75*
G02X339450I5050*
G01*
X1705150*
Y1024050*
X1638450*
G75*
G02X1621404Y1039800J17100*
G01*
G37*
X1621350Y1063250D02*
G36*
X1572900D01*
Y1063250*
G75*
G02X1565750Y1056100I-7150*
G01*
G75*
G02X1558600Y1063250J7150*
G01*
Y1063250*
X71450*
Y1039800*
X79006*
G75*
G02X72910Y1049800I5154J10000*
G01*
Y1049800*
G75*
G02X95410I11250*
G01*
Y1049800*
G75*
G02X89314Y1039800I-11250*
G01*
X349246*
G75*
G02X343150Y1049800I5154J10000*
G01*
Y1049800*
G75*
G02X365650I11250*
G01*
Y1049800*
G75*
G02X359554Y1039800I-11250*
G01*
X919006*
G75*
G02X912910Y1049800I5154J10000*
G01*
Y1049800*
G75*
G02X935410I11250*
G01*
Y1049800*
G75*
G02X929314Y1039800I-11250*
G01*
X1189246*
G75*
G02X1183150Y1049800I5154J10000*
G01*
Y1049800*
G75*
G02X1205650I11250*
G01*
Y1049800*
G75*
G02X1199554Y1039800I-11250*
G01*
X1621404*
G75*
G02X1621350Y1041150I17050J1352*
G01*
Y1063250*
G37*
Y1105750D02*
G36*
X1607801D01*
Y1100301*
X1597301*
Y1105750*
X1591000*
G75*
G02X1587351Y1100750I-5250*
G01*
G75*
G02X1591000Y1095750I-1601J-5000*
G01*
G75*
G02X1587351Y1090750I-5250*
G01*
G75*
G02X1591000Y1085750I-1601J-5000*
G01*
G75*
G02X1585750Y1080500I-5250*
G01*
G75*
G02X1580750Y1084149I1J5251*
G01*
G75*
G02X1570750I-5000J1601*
G01*
G75*
G02X1560750I-5000J1601*
G01*
G75*
G02X1550500Y1085750I-5000J1601*
G01*
G75*
G02X1554149Y1090750I5251J-1*
G01*
G75*
G02X1550500Y1095750I1601J5000*
G01*
G75*
G02X1555750Y1101000I5250*
G01*
G75*
G02X1560750Y1097351I-1J-5251*
G01*
G75*
G02X1564149Y1100750I5001J-1602*
G01*
G75*
G02X1560500Y1105750I1601J5000*
G01*
X71450*
Y1063250*
X1558600*
Y1063250*
G75*
G02X1565750Y1070400I7150*
G01*
G75*
G02X1572900Y1063250J-7150*
G01*
Y1063250*
X1621350*
Y1105750*
G37*
Y1218250D02*
G36*
X1587351D01*
G75*
G02X1591000Y1213250I-1601J-5000*
G01*
G75*
G02X1585750Y1208000I-5250*
G01*
G75*
G02X1580750Y1211649I1J5251*
G01*
G75*
G02X1570750I-5000J1601*
G01*
G75*
G02X1560750I-5000J1601*
G01*
G75*
G02X1550500Y1213250I-5000J1601*
G01*
G75*
G02X1554149Y1218250I5251J-1*
G01*
X989950*
Y1171450*
G75*
G02X968850Y1150350I-21100*
G01*
X873478*
G75*
G02X847032Y1174296I-2381J23946*
G01*
Y1174296*
G75*
G02X847150Y1176678I24063*
G01*
Y1218250*
X71450*
Y1105750*
X1560500*
G75*
G02X1564149Y1110750I5250*
G01*
G75*
G02X1560750Y1114149I1602J5001*
G01*
G75*
G02X1550500Y1115750I-5000J1601*
G01*
G75*
G02X1554149Y1120750I5251J-1*
G01*
G75*
G02X1550500Y1125750I1601J5000*
G01*
G75*
G02X1555750Y1131000I5250*
G01*
G75*
G02X1560750Y1127351I-1J-5251*
G01*
G75*
G02X1570750I5000J-1601*
G01*
G75*
G02X1580750I5000J-1601*
G01*
G75*
G02X1591000Y1125750I5000J-1601*
G01*
G75*
G02X1587351Y1120750I-5251J1*
G01*
G75*
G02X1591000Y1115750I-1601J-5000*
G01*
G75*
G02X1587351Y1110750I-5250*
G01*
G75*
G02X1591000Y1105750I-1601J-5000*
G01*
X1597301*
Y1110801*
X1607801*
Y1105750*
X1621350*
Y1218250*
G37*
X847150Y1250769D02*
G36*
X71450D01*
Y1218250*
X847150*
Y1250769*
G37*
X1561144D02*
G36*
X1560356D01*
G75*
G02X1560750Y1249851I-4607J-2519*
G01*
G75*
G02X1561144Y1250769I5000J-1601*
G01*
G37*
X1571144D02*
G36*
X1570356D01*
G75*
G02X1570750Y1249851I-4607J-2519*
G01*
G75*
G02X1571144Y1250769I5000J-1601*
G01*
G37*
X1581144D02*
G36*
X1580356D01*
G75*
G02X1580750Y1249851I-4607J-2519*
G01*
G75*
G02X1581144Y1250769I5000J-1601*
G01*
G37*
X1621350D02*
G36*
X1590356D01*
G75*
G02X1591000Y1248250I-4606J-2519*
G01*
G75*
G02X1587351Y1243250I-5251J1*
G01*
G75*
G02X1591000Y1238250I-1601J-5000*
G01*
G75*
G02X1585750Y1233000I-5250*
G01*
G75*
G02X1580750Y1236649I1J5251*
G01*
G75*
G02X1570750I-5000J1601*
G01*
G75*
G02X1560750I-5000J1601*
G01*
G75*
G02X1550500Y1238250I-5000J1601*
G01*
G75*
G02X1554149Y1243250I5251J-1*
G01*
G75*
G02X1550500Y1248250I1601J5000*
G01*
G75*
G02X1551144Y1250769I5250*
G01*
X989950*
Y1218250*
X1554149*
G75*
G02X1550500Y1223250I1601J5000*
G01*
G75*
G02X1555750Y1228500I5250*
G01*
G75*
G02X1560750Y1224851I-1J-5251*
G01*
G75*
G02X1570750I5000J-1601*
G01*
G75*
G02X1580750I5000J-1601*
G01*
G75*
G02X1591000Y1223250I5000J-1601*
G01*
G75*
G02X1587351Y1218250I-5251J1*
G01*
X1621350*
Y1250769*
G37*
X847150Y1268250D02*
G36*
X71450D01*
Y1250769*
X847150*
Y1268250*
G37*
X1621350D02*
G36*
X1587351D01*
G75*
G02X1591000Y1263250I-1601J-5000*
G01*
G75*
G02X1585750Y1258000I-5250*
G01*
G75*
G02X1580750Y1261649I1J5251*
G01*
G75*
G02X1570750I-5000J1601*
G01*
G75*
G02X1560750I-5000J1601*
G01*
G75*
G02X1550500Y1263250I-5000J1601*
G01*
G75*
G02X1554149Y1268250I5251J-1*
G01*
X989950*
Y1250769*
X1551144*
G75*
G02X1555750Y1253500I4606J-2519*
G01*
G75*
G02X1560356Y1250769I0J-5251*
G01*
X1561144*
G75*
G02X1570356I4606J-2519*
G01*
X1571144*
G75*
G02X1580356I4606J-2519*
G01*
X1581144*
G75*
G02X1590356I4606J-2519*
G01*
X1621350*
Y1268250*
G37*
X847150Y1298250D02*
G36*
X71450D01*
Y1268250*
X847150*
Y1298250*
G37*
X1621350D02*
G36*
X1572900D01*
Y1298250*
G75*
G02X1565750Y1291100I-7150*
G01*
G75*
G02X1558600Y1298250J7150*
G01*
Y1298250*
X989950*
Y1268250*
X1554149*
G75*
G02X1550500Y1273250I1601J5000*
G01*
G75*
G02X1555750Y1278500I5250*
G01*
G75*
G02X1560750Y1274851I-1J-5251*
G01*
G75*
G02X1570750I5000J-1601*
G01*
G75*
G02X1580750I5000J-1601*
G01*
G75*
G02X1591000Y1273250I5000J-1601*
G01*
G75*
G02X1587351Y1268250I-5251J1*
G01*
X1621350*
Y1298250*
G37*
X1707800Y1333250D02*
G36*
Y1387350D01*
X1245600*
G75*
G02X1225850Y1367700I-19750J100*
G01*
G75*
G02X1206100Y1387350I0J19750*
G01*
X405500*
G75*
G02X385750Y1367600I-19750*
G01*
G75*
G02X366000Y1387350J19750*
G01*
X9000*
Y1383250*
X61250*
G75*
G02X71450Y1373050J-10200*
G01*
Y1298250*
X847150*
Y1317864*
G75*
G02X880592Y1351306I33442*
G01*
X963792*
G75*
G02X989950Y1325148J-26158*
G01*
Y1325148*
Y1298250*
X1558600*
Y1298250*
G75*
G02X1565750Y1305400I7150*
G01*
G75*
G02X1572900Y1298250J-7150*
G01*
Y1298250*
X1621350*
Y1315350*
G75*
G02X1639250Y1333250I17900*
G01*
X1707800*
G37*
X366000Y1387350D02*
G36*
G75*
G02X370297Y1399650I19750J0D01*
G01*
X359251*
G75*
G02X349549I-4851J10150*
G01*
X89011*
G75*
G02X79309I-4851J10150*
G01*
X9000*
Y1387350*
X366000*
G37*
X1206100D02*
G36*
G75*
G02X1206100Y1387450I19757J128D01*
G01*
G75*
G02X1210319Y1399650I19750J0*
G01*
X1199251*
G75*
G02X1189549I-4851J10150*
G01*
X929011*
G75*
G02X919309I-4851J10150*
G01*
X401203*
G75*
G02X405500Y1387350I-15453J-12299*
G01*
X1206100*
G37*
X1657199Y1399650D02*
G36*
Y1394400D01*
X1646699*
Y1399650*
X1241381*
G75*
G02X1245600Y1387450I-15532J-12200*
G01*
G75*
G02X1245600Y1387350I-19757J28*
G01*
X1707800*
Y1399650*
X1657199*
G37*
X79006Y1419800D02*
G36*
X9000D01*
Y1399650*
X79309*
G75*
G02X72910Y1409800I4851J10150*
G01*
Y1409800*
G75*
G02X79006Y1419800I11250*
G01*
G37*
X349246D02*
G36*
X89314D01*
G75*
G02X95410Y1409800I-5154J-10000*
G01*
Y1409800*
G75*
G02X89011Y1399650I-11250*
G01*
X349549*
G75*
G02X343150Y1409800I4851J10150*
G01*
Y1409800*
G75*
G02X349246Y1419800I11250*
G01*
G37*
X919006D02*
G36*
X359554D01*
G75*
G02X365650Y1409800I-5154J-10000*
G01*
Y1409800*
G75*
G02X359251Y1399650I-11250*
G01*
X370297*
G75*
G02X385750Y1407100I15453J-12300*
G01*
G75*
G02X401203Y1399650J-19750*
G01*
X919309*
G75*
G02X912910Y1409800I4851J10150*
G01*
Y1409800*
G75*
G02X919006Y1419800I11250*
G01*
G37*
X1189246D02*
G36*
X929314D01*
G75*
G02X935410Y1409800I-5154J-10000*
G01*
Y1409800*
G75*
G02X929011Y1399650I-11250*
G01*
X1189549*
G75*
G02X1183150Y1409800I4851J10150*
G01*
Y1409800*
G75*
G02X1189246Y1419800I11250*
G01*
G37*
X1199554D02*
G36*
G75*
G02X1205650Y1409800I-5154J-10000D01*
G01*
Y1409800*
G75*
G02X1199251Y1399650I-11250*
G01*
X1210319*
G75*
G02X1225850Y1407200I15531J-12200*
G01*
G75*
G02X1241381Y1399650J-19750*
G01*
X1646699*
Y1404900*
X1657199*
Y1399650*
X1707800*
Y1419800*
X1199554*
G37*
X37000Y1450750D02*
G36*
G75*
G02X9000Y1447008I-14250D01*
G01*
Y1419800*
X79006*
G75*
G02X72910Y1429800I5154J10000*
G01*
Y1429800*
G75*
G02X95410I11250*
G01*
Y1429800*
G75*
G02X89314Y1419800I-11250*
G01*
X349246*
G75*
G02X343150Y1429800I5154J10000*
G01*
Y1429800*
G75*
G02X365650I11250*
G01*
Y1429800*
G75*
G02X359554Y1419800I-11250*
G01*
X919006*
G75*
G02X912910Y1429800I5154J10000*
G01*
Y1429800*
G75*
G02X935410I11250*
G01*
Y1429800*
G75*
G02X929314Y1419800I-11250*
G01*
X1189246*
G75*
G02X1183150Y1429800I5154J10000*
G01*
Y1429800*
G75*
G02X1205650I11250*
G01*
Y1429800*
G75*
G02X1199554Y1419800I-11250*
G01*
X1707800*
Y1450750*
X1707000*
G75*
G02X1678500I-14250*
G01*
X37000*
G37*
X975600Y1474150D02*
G36*
G75*
G02X946100I-14750J100D01*
G01*
X135500*
G75*
G02X106000I-14750*
G01*
X9000*
Y1454492*
G75*
G02X37000Y1450750I13750J-3742*
G01*
X1678500*
G75*
G02X1707000I14250*
G01*
X1707800*
Y1474150*
X975600*
G37*
X9000Y1508000D02*
G36*
Y1474150D01*
X106000*
G75*
G02X135500I14750*
G01*
X946100*
G75*
G02X946100Y1474250I14767J108*
G01*
G75*
G02X975600I14750*
G01*
G75*
G02X975600Y1474150I-14767J8*
G01*
X1707800*
Y1508000*
X9000*
G37*
D02*
D19*
X22750Y70750D03*
Y1450750D03*
X1692750Y70750D03*
Y1450750D03*
D02*
D70*
X76550Y34150D03*
Y824150D03*
X120750Y684150D03*
Y1474150D03*
X121050Y34150D03*
Y824150D03*
X806050Y1487250D03*
X806250Y47350D03*
Y837350D03*
X916550Y34150D03*
Y824150D03*
X960850Y684150D03*
Y1474250D03*
X961050Y34150D03*
Y824150D03*
X1646150Y1487350D03*
X1646250Y47350D03*
Y837350D03*
D02*
D71*
X806050Y697250D03*
X1646150D03*
D02*
D20*
X385750Y147350D03*
Y597350D03*
Y937350D03*
Y1387350D03*
X805750Y97350D03*
Y147350D03*
Y887350D03*
Y937350D03*
X1225750Y147350D03*
Y937350D03*
X1225850Y597350D03*
Y1387450D03*
X1645750Y97350D03*
Y147350D03*
Y887350D03*
Y937350D03*
D02*
D21*
X84160Y239800D03*
Y259800D03*
Y619800D03*
Y639800D03*
Y1029800D03*
Y1049800D03*
Y1409800D03*
Y1429800D03*
X354400Y239800D03*
Y259800D03*
Y619800D03*
Y639800D03*
Y1029800D03*
Y1049800D03*
Y1409800D03*
Y1429800D03*
X924160Y239800D03*
Y259800D03*
Y619800D03*
Y639800D03*
Y1029800D03*
Y1049800D03*
Y1409800D03*
Y1429800D03*
X1194400Y239800D03*
Y259800D03*
Y619800D03*
Y639800D03*
Y1029800D03*
Y1049800D03*
Y1409800D03*
Y1429800D03*
D02*
D22*
X104160Y1009800D03*
X334400D03*
X422250Y780750D03*
X426750Y736250D03*
X433250Y780750D03*
X443750D03*
X444750Y736250D03*
X453250Y782250D03*
X454250Y806850D03*
X464250Y807050D03*
X464750Y782250D03*
X475750D03*
X476050Y807050D03*
X487450Y782750D03*
X495650Y809750D03*
X496250Y782750D03*
X505250Y782950D03*
X508250Y732250D03*
X517050Y782250D03*
X520250Y732550D03*
X528250Y782250D03*
X531850Y732550D03*
X538750Y809350D03*
X538850Y782250D03*
X578150Y816250D03*
X1276850Y782150D03*
Y808150D03*
X1279750Y734750D03*
X1287650Y782150D03*
Y808150D03*
X1290750Y734750D03*
X1297650Y782150D03*
Y808150D03*
X1303250Y734750D03*
X1312650Y809250D03*
X1313250Y784750D03*
X1326150Y809250D03*
X1326750Y784750D03*
X1341150Y783850D03*
X1351250D03*
X1359350Y809950D03*
X1361250Y783850D03*
X1363750Y707550D03*
Y734250D03*
X1371750Y783750D03*
X1374750Y707550D03*
Y734250D03*
X1382750Y783750D03*
X1387250Y707550D03*
Y734250D03*
X1395250Y783750D03*
D02*
D23*
X165450Y751950D03*
Y761950D03*
Y771950D03*
X345250Y727750D03*
X402750Y729750D03*
X555250Y798750D03*
X577450Y798250D03*
X853450Y217550D03*
X863450D03*
X873450D03*
X887550Y977050D03*
Y987050D03*
Y997050D03*
X1197750Y728750D03*
X1254750Y727750D03*
X1414150Y793950D03*
X1430850Y802250D03*
X1540150Y207950D03*
X1550150D03*
X1560150D03*
X1602550Y1105550D03*
X1651950Y1389650D03*
Y1399650D03*
Y1409650D03*
D02*
D24*
X368250Y756250D03*
Y786250D03*
X1233750Y754250D03*
Y784250D03*
D02*
D25*
X1555750Y1085750D03*
Y1095750D03*
Y1105750D03*
Y1115750D03*
Y1125750D03*
Y1138250D03*
Y1148250D03*
Y1163250D03*
Y1173250D03*
Y1188250D03*
Y1198250D03*
Y1213250D03*
Y1223250D03*
Y1238250D03*
Y1248250D03*
Y1263250D03*
Y1273250D03*
X1565750Y1085750D03*
Y1095750D03*
Y1105750D03*
Y1115750D03*
Y1125750D03*
Y1138250D03*
Y1148250D03*
Y1163250D03*
Y1173250D03*
Y1188250D03*
Y1198250D03*
Y1213250D03*
Y1223250D03*
Y1238250D03*
Y1248250D03*
Y1263250D03*
Y1273250D03*
X1575750Y1085750D03*
Y1095750D03*
Y1105750D03*
Y1115750D03*
Y1125750D03*
Y1138250D03*
Y1148250D03*
Y1163250D03*
Y1173250D03*
Y1188250D03*
Y1198250D03*
Y1213250D03*
Y1223250D03*
Y1238250D03*
Y1248250D03*
Y1263250D03*
Y1273250D03*
X1585750Y1085750D03*
Y1095750D03*
Y1105750D03*
Y1115750D03*
Y1125750D03*
Y1138250D03*
Y1148250D03*
Y1163250D03*
Y1173250D03*
Y1188250D03*
Y1198250D03*
Y1213250D03*
Y1223250D03*
Y1238250D03*
Y1248250D03*
Y1263250D03*
Y1273250D03*
X1648150Y761150D03*
Y771150D03*
Y781150D03*
X1658150Y761150D03*
Y781150D03*
D02*
D26*
X569150Y731850D03*
Y741850D03*
X1179250Y791750D03*
Y801750D03*
X1418550Y756050D03*
Y766050D03*
D02*
D27*
X105150Y758250D03*
X860250Y154950D03*
Y1479050D03*
D02*
D28*
X1565450Y1206050D02*
Y1198550D01*
X1565750Y1198250*
X1565650Y1138150D02*
X1565750Y1138250D01*
X1565650Y1180750D02*
Y1188150D01*
X1565750Y1188250*
X1565650Y1180750D02*
Y1173350D01*
X1565750Y1173250*
Y1158050D02*
Y1148250D01*
Y1158050D02*
Y1163250D01*
X1566750Y1158050D02*
X1565750D01*
X1575350Y1182850D02*
Y1173650D01*
X1575750Y1173250*
X1575350Y1182850D02*
Y1187850D01*
X1575750Y1188250*
X1575850Y1138150D02*
X1575750Y1138250D01*
X1575850Y1156550D02*
Y1148350D01*
X1575750Y1148250*
X1575850Y1156550D02*
Y1163150D01*
X1575750Y1163250*
X1576350Y1206050D02*
X1575550D01*
Y1198850*
X1575750Y1198650*
Y1198250*
X0Y0D02*
M02*
