G04 EasyPC Gerber Version 21.0.3 Build 4286 *
G04 #@! TF.Part,Single*
G04 #@! TF.FileFunction,Soldermask,Bot *
G04 #@! TF.FilePolarity,Negative *
%FSLAX35Y35*%
%MOIN*%
G04 #@! TA.AperFunction,ComponentPad*
%ADD73R,0.06600X0.06600*%
G04 #@! TA.AperFunction,WasherPad*
%ADD140C,0.06200*%
G04 #@! TA.AperFunction,ComponentPad*
%ADD75C,0.06600*%
%ADD147C,0.08474*%
%ADD146C,0.10400*%
%ADD74C,0.10600*%
G04 #@! TA.AperFunction,WasherPad*
%ADD139C,0.18600*%
%ADD72C,0.20600*%
%ADD137C,0.24600*%
%ADD29C,0.25600*%
G04 #@! TA.AperFunction,ViaPad*
%ADD149C,0.30600*%
G04 #@! TA.AperFunction,WasherPad*
%ADD138C,0.35600*%
X0Y0D02*
D02*
D29*
X76550Y34150D03*
Y824150D03*
X120750Y684150D03*
Y1474150D03*
X121050Y34150D03*
Y824150D03*
X806050Y1487250D03*
X806250Y47350D03*
Y837350D03*
X916550Y34150D03*
Y824150D03*
X960850Y684150D03*
Y1474250D03*
X961050Y34150D03*
Y824150D03*
X1646150Y1487350D03*
X1646250Y47350D03*
Y837350D03*
D02*
D72*
X806050Y697250D03*
X1646150D03*
D02*
D73*
X165450Y751950D03*
Y761950D03*
Y771950D03*
X345250Y727750D03*
X402750Y729750D03*
X555250Y798750D03*
X577450Y798250D03*
X853450Y217550D03*
X863450D03*
X873450D03*
X887550Y977050D03*
Y987050D03*
Y997050D03*
X1197750Y728750D03*
X1254750Y727750D03*
X1414150Y793950D03*
X1430850Y802250D03*
X1540150Y207950D03*
X1550150D03*
X1560150D03*
X1602550Y1105550D03*
X1651950Y1389650D03*
Y1399650D03*
Y1409650D03*
D02*
D74*
X368250Y756250D03*
Y786250D03*
X1233750Y754250D03*
Y784250D03*
D02*
D75*
X1555750Y1085750D03*
Y1095750D03*
Y1105750D03*
Y1115750D03*
Y1125750D03*
Y1138250D03*
Y1148250D03*
Y1163250D03*
Y1173250D03*
Y1188250D03*
Y1198250D03*
Y1213250D03*
Y1223250D03*
Y1238250D03*
Y1248250D03*
Y1263250D03*
Y1273250D03*
X1565750Y1085750D03*
Y1095750D03*
Y1105750D03*
Y1115750D03*
Y1125750D03*
Y1138250D03*
Y1148250D03*
Y1163250D03*
Y1173250D03*
Y1188250D03*
Y1198250D03*
Y1213250D03*
Y1223250D03*
Y1238250D03*
Y1248250D03*
Y1263250D03*
Y1273250D03*
X1575750Y1085750D03*
Y1095750D03*
Y1105750D03*
Y1115750D03*
Y1125750D03*
Y1138250D03*
Y1148250D03*
Y1163250D03*
Y1173250D03*
Y1188250D03*
Y1198250D03*
Y1213250D03*
Y1223250D03*
Y1238250D03*
Y1248250D03*
Y1263250D03*
Y1273250D03*
X1585750Y1085750D03*
Y1095750D03*
Y1105750D03*
Y1115750D03*
Y1125750D03*
Y1138250D03*
Y1148250D03*
Y1163250D03*
Y1173250D03*
Y1188250D03*
Y1198250D03*
Y1213250D03*
Y1223250D03*
Y1238250D03*
Y1248250D03*
Y1263250D03*
Y1273250D03*
X1648150Y761150D03*
Y771150D03*
Y781150D03*
X1658150Y761150D03*
Y781150D03*
D02*
D137*
X22750Y70750D03*
Y1450750D03*
X1692750Y70750D03*
Y1450750D03*
D02*
D138*
X385750Y147350D03*
Y597350D03*
Y937350D03*
Y1387350D03*
X805750Y97350D03*
Y147350D03*
Y887350D03*
Y937350D03*
X1225750Y147350D03*
Y937350D03*
X1225850Y597350D03*
Y1387450D03*
X1645750Y97350D03*
Y147350D03*
Y887350D03*
Y937350D03*
D02*
D139*
X84160Y239800D03*
Y259800D03*
Y619800D03*
Y639800D03*
Y1029800D03*
Y1049800D03*
Y1409800D03*
Y1429800D03*
X354400Y239800D03*
Y259800D03*
Y619800D03*
Y639800D03*
Y1029800D03*
Y1049800D03*
Y1409800D03*
Y1429800D03*
X924160Y239800D03*
Y259800D03*
Y619800D03*
Y639800D03*
Y1029800D03*
Y1049800D03*
Y1409800D03*
Y1429800D03*
X1194400Y239800D03*
Y259800D03*
Y619800D03*
Y639800D03*
Y1029800D03*
Y1049800D03*
Y1409800D03*
Y1429800D03*
D02*
D140*
X104160Y1009800D03*
X334400D03*
X422250Y780750D03*
X426750Y736250D03*
X433250Y780750D03*
X443750D03*
X444750Y736250D03*
X453250Y782250D03*
X454250Y806850D03*
X464250Y807050D03*
X464750Y782250D03*
X475750D03*
X476050Y807050D03*
X487450Y782750D03*
X495650Y809750D03*
X496250Y782750D03*
X505250Y782950D03*
X508250Y732250D03*
X517050Y782250D03*
X520250Y732550D03*
X528250Y782250D03*
X531850Y732550D03*
X538750Y809350D03*
X538850Y782250D03*
X578150Y816250D03*
X1276850Y782150D03*
Y808150D03*
X1279750Y734750D03*
X1287650Y782150D03*
Y808150D03*
X1290750Y734750D03*
X1297650Y782150D03*
Y808150D03*
X1303250Y734750D03*
X1312650Y809250D03*
X1313250Y784750D03*
X1326150Y809250D03*
X1326750Y784750D03*
X1341150Y783850D03*
X1351250D03*
X1359350Y809950D03*
X1361250Y783850D03*
X1363750Y707550D03*
Y734250D03*
X1371750Y783750D03*
X1374750Y707550D03*
Y734250D03*
X1382750Y783750D03*
X1387250Y707550D03*
Y734250D03*
X1395250Y783750D03*
D02*
D146*
X1565750Y1063250D03*
Y1298250D03*
D02*
D147*
X569150Y731850D03*
Y741850D03*
X1179250Y791750D03*
Y801750D03*
X1418550Y756050D03*
Y766050D03*
D02*
D149*
X105150Y758250D03*
X860250Y154950D03*
Y1479050D03*
X0Y0D02*
M02*
