G04 EasyPC Gerber Version 21.0.3 Build 4286 *
G04 #@! TF.Part,Single*
G04 #@! TF.FileFunction,Paste,Top *
G04 #@! TF.FilePolarity,Positive *
%FSLAX35Y35*%
%MOIN*%
G04 #@! TA.AperFunction,SMDPad*
%ADD16R,0.04518X0.07274*%
%ADD14R,0.05700X0.06490*%
%ADD15R,0.03730X0.03340*%
%ADD13R,0.05699X0.04833*%
%ADD12R,0.28849X0.04833*%
%ADD10R,0.34597X0.04833*%
%ADD11R,0.44597X0.04833*%
%ADD17R,0.10800X0.08850*%
X0Y0D02*
D02*
D10*
X436380Y716648D03*
Y724049D03*
X1290880Y717648D03*
Y725049D03*
D02*
D11*
X520120Y716648D03*
Y724049D03*
X1374620Y717648D03*
Y725049D03*
D02*
D12*
X433506Y791451D03*
Y798852D03*
X465002Y791451D03*
Y798852D03*
X496498Y791451D03*
Y798852D03*
X527994Y791451D03*
Y798852D03*
X1288006Y792451D03*
Y799852D03*
X1319502Y792451D03*
Y799852D03*
X1350998Y792451D03*
Y799852D03*
X1382494Y792451D03*
Y799852D03*
D02*
D13*
X472876Y716648D03*
Y724049D03*
X480750Y716648D03*
Y724049D03*
X488624Y716648D03*
Y724049D03*
X1327376Y717648D03*
Y725049D03*
X1335250Y717648D03*
Y725049D03*
X1343124Y717648D03*
Y725049D03*
D02*
D14*
X505950Y809750D03*
X516950D03*
X1337250Y810250D03*
X1348250D03*
D02*
D15*
X569650Y762850D03*
Y769850D03*
X1190250Y767250D03*
Y774250D03*
X1430650Y778750D03*
Y785750D03*
D02*
D16*
X1561644Y1031935D03*
X1570699D03*
D02*
D17*
X550250Y609725D03*
Y633775D03*
X627750Y609925D03*
Y633975D03*
X696150Y609925D03*
Y633975D03*
X752850Y610525D03*
Y634575D03*
X1332950Y608625D03*
Y632675D03*
X1395350Y608625D03*
Y632675D03*
X1460050Y608625D03*
Y632675D03*
X1527350Y608725D03*
Y632775D03*
X0Y0D02*
M02*
