G04 EasyPC Gerber Version 21.0.3 Build 4286 *
G04 #@! TF.Part,Single*
G04 #@! TF.FileFunction,Legend,Bot *
G04 #@! TF.FilePolarity,Positive *
%FSLAX35Y35*%
%MOIN*%
%ADD18C,0.00500*%
X0Y0D02*
D02*
D18*
X49687Y46450D02*
X50000Y46137D01*
X50313Y45513*
X50000Y44887*
X49687Y44575*
X46563*
Y43950*
Y44575D02*
Y45825D01*
X48437Y40513D02*
Y39887D01*
X48125Y39263*
X47500Y38950*
X46875Y39263*
X46563Y39887*
Y40513*
X46875Y41137*
X47500Y41450*
X48125Y41137*
X48437Y40513*
X48750Y41137*
X49375Y41450*
X50000Y41137*
X50313Y40513*
Y39887*
X50000Y39263*
X49375Y38950*
X48750Y39263*
X48437Y39887*
X49687Y836450D02*
X50000Y836137D01*
X50313Y835513*
X50000Y834887*
X49687Y834575*
X46563*
Y833950*
Y834575D02*
Y835825D01*
X50313Y831450D02*
X46563Y828950D01*
Y831450*
X889687Y46450D02*
X890000Y46137D01*
X890313Y45513*
X890000Y44887*
X889687Y44575*
X886563*
Y43950*
Y44575D02*
Y45825D01*
X889375Y41450D02*
X888750Y41137D01*
X888437Y40513*
Y39887*
X888750Y39263*
X889375Y38950*
X890000Y39263*
X890313Y39887*
Y40513*
X890000Y41137*
X889375Y41450*
X888437*
X887500Y41137*
X886875Y40513*
X886563Y39887*
X889687Y836450D02*
X890000Y836137D01*
X890313Y835513*
X890000Y834887*
X889687Y834575*
X886563*
Y833950*
Y834575D02*
Y835825D01*
X890000Y831450D02*
X890313Y830825D01*
Y829887*
X890000Y829263*
X889375Y828950*
X889063*
X888437Y829263*
X888125Y829887*
Y831450*
X886563*
Y828950*
X1545750Y1053250D02*
Y1308250D01*
X1595750*
Y1053250*
X1545750*
X1572313Y1038250D02*
X1572000Y1038563D01*
X1571687Y1039187*
X1572000Y1039813*
X1572313Y1040125*
X1575437*
Y1040750*
Y1040125D02*
Y1038875D01*
X1571687Y1044187D02*
X1572000Y1044813D01*
X1572625Y1045437*
X1573563Y1045750*
X1574500*
X1575125Y1045437*
X1575437Y1044813*
Y1044187*
X1575125Y1043563*
X1574500Y1043250*
X1573875Y1043563*
X1573563Y1044187*
Y1044813*
X1573875Y1045437*
X1574500Y1045750*
X1600750Y1142469D02*
X1601844Y1145094D01*
X1602937Y1142469*
X1604250Y1144219D02*
Y1143344D01*
X1604469Y1142906*
X1604687Y1142687*
X1605125Y1142469*
X1605563*
X1606000Y1142687*
X1606219Y1142906*
X1606437Y1143344*
Y1144219*
X1606219Y1144656*
X1606000Y1144875*
X1605563Y1145094*
X1605125*
X1604687Y1144875*
X1604469Y1144656*
X1604250Y1144219*
X1607750Y1142469D02*
Y1144437D01*
X1607969Y1144875*
X1608406Y1145094*
X1609281*
X1609719Y1144875*
X1609937Y1144437*
Y1142469*
X1612344Y1145094D02*
Y1142469D01*
X1611250D02*
X1613437D01*
X1614750Y1144219D02*
X1616500D01*
X1600750Y1164969D02*
X1601844Y1167594D01*
X1602937Y1164969*
X1604250Y1166719D02*
Y1165844D01*
X1604469Y1165406*
X1604687Y1165187*
X1605125Y1164969*
X1605563*
X1606000Y1165187*
X1606219Y1165406*
X1606437Y1165844*
Y1166719*
X1606219Y1167156*
X1606000Y1167375*
X1605563Y1167594*
X1605125*
X1604687Y1167375*
X1604469Y1167156*
X1604250Y1166719*
X1607750Y1164969D02*
Y1166937D01*
X1607969Y1167375*
X1608406Y1167594*
X1609281*
X1609719Y1167375*
X1609937Y1166937*
Y1164969*
X1612344Y1167594D02*
Y1164969D01*
X1611250D02*
X1613437D01*
X1614750Y1166719D02*
X1616500D01*
X1600750Y1192469D02*
X1601844Y1195094D01*
X1602937Y1192469*
X1604250Y1194219D02*
Y1193344D01*
X1604469Y1192906*
X1604687Y1192687*
X1605125Y1192469*
X1605563*
X1606000Y1192687*
X1606219Y1192906*
X1606437Y1193344*
Y1194219*
X1606219Y1194656*
X1606000Y1194875*
X1605563Y1195094*
X1605125*
X1604687Y1194875*
X1604469Y1194656*
X1604250Y1194219*
X1607750Y1192469D02*
Y1194437D01*
X1607969Y1194875*
X1608406Y1195094*
X1609281*
X1609719Y1194875*
X1609937Y1194437*
Y1192469*
X1612344Y1195094D02*
Y1192469D01*
X1611250D02*
X1613437D01*
X1614750Y1194219D02*
X1616500D01*
X1600750Y1214969D02*
X1601844Y1217594D01*
X1602937Y1214969*
X1604250Y1216719D02*
Y1215844D01*
X1604469Y1215406*
X1604687Y1215187*
X1605125Y1214969*
X1605563*
X1606000Y1215187*
X1606219Y1215406*
X1606437Y1215844*
Y1216719*
X1606219Y1217156*
X1606000Y1217375*
X1605563Y1217594*
X1605125*
X1604687Y1217375*
X1604469Y1217156*
X1604250Y1216719*
X1607750Y1214969D02*
Y1216937D01*
X1607969Y1217375*
X1608406Y1217594*
X1609281*
X1609719Y1217375*
X1609937Y1216937*
Y1214969*
X1612344Y1217594D02*
Y1214969D01*
X1611250D02*
X1613437D01*
X1614750Y1216719D02*
X1616500D01*
X1615625Y1217594D02*
Y1215844D01*
X1600750Y1242469D02*
X1601844Y1245094D01*
X1602937Y1242469*
X1604250Y1244219D02*
Y1243344D01*
X1604469Y1242906*
X1604687Y1242687*
X1605125Y1242469*
X1605563*
X1606000Y1242687*
X1606219Y1242906*
X1606437Y1243344*
Y1244219*
X1606219Y1244656*
X1606000Y1244875*
X1605563Y1245094*
X1605125*
X1604687Y1244875*
X1604469Y1244656*
X1604250Y1244219*
X1607750Y1242469D02*
Y1244437D01*
X1607969Y1244875*
X1608406Y1245094*
X1609281*
X1609719Y1244875*
X1609937Y1244437*
Y1242469*
X1612344Y1245094D02*
Y1242469D01*
X1611250D02*
X1613437D01*
X1614750Y1244219D02*
X1616500D01*
X1615625Y1245094D02*
Y1243344D01*
X1600750Y1264969D02*
X1601844Y1267594D01*
X1602937Y1264969*
X1604250Y1266719D02*
Y1265844D01*
X1604469Y1265406*
X1604687Y1265187*
X1605125Y1264969*
X1605563*
X1606000Y1265187*
X1606219Y1265406*
X1606437Y1265844*
Y1266719*
X1606219Y1267156*
X1606000Y1267375*
X1605563Y1267594*
X1605125*
X1604687Y1267375*
X1604469Y1267156*
X1604250Y1266719*
X1607750Y1264969D02*
Y1266937D01*
X1607969Y1267375*
X1608406Y1267594*
X1609281*
X1609719Y1267375*
X1609937Y1266937*
Y1264969*
X1612344Y1267594D02*
Y1264969D01*
X1611250D02*
X1613437D01*
X1614750Y1266719D02*
X1616500D01*
X1615625Y1267594D02*
Y1265844D01*
X0Y0D02*
M02*
