M48
;FILE_FORMAT=2:4
INCH,TZ
;TYPE=PLATED
T01C0.035
T02C0.039
T03C0.040
T04C0.075
T05C0.105
T06C0.113
T08C0.120
T09C0.140
T10C0.150
T12C0.160
;TYPE=NON_PLATED
T07C0.116
T11C0.151
%
T01
X+190500Y+278125
X+191500
X+190500Y+283125
X+191500
X+208625Y+278500
X+209375
X+208625Y+283500
X+209375
X+218400Y+292550
Y+294950
X+221625Y+278500
X+220875
X+221625Y+283500
X+220875
X+221050Y+287425
X+219800
X+220550Y+292550
X+219500
X+220550Y+294950
X+219500
X+223675Y+292550
X+222675
X+223675Y+294950
X+222675
X+227000Y+287425
X+226825Y+292550
X+225825
X+226825Y+294950
X+225825
X+229400Y+287425
X+230250Y+292550
X+229000
Y+294950
X+230250
X+233125Y+278500
Y+283500
X+236625Y+287450
X+237875
X+238975
X+237475Y+292575
Y+291825
X+238675Y+292575
Y+291825
X+237475Y+294900
X+238675
X+241050Y+287450
X+242050
X+245375Y+278500
Y+283500
X+244200Y+287450
X+245200
X+248475
X+247375
X+247075Y+292575
Y+291825
X+248175Y+292575
Y+291825
X+247075Y+294900
X+248175
X+253375Y+286250
X+290125Y+278500
Y+283500
X+302375Y+278500
Y+283500
X+301300Y+287425
X+302550
X+301000Y+292550
X+302050
X+301000Y+294950
X+302050
X+304175Y+292550
X+305175
X+304175Y+294950
X+305175
X+306750Y+283250
X+308500Y+287425
X+307325Y+292550
X+308325
X+307325Y+294950
X+308325
X+309700Y+287425
X+310900
X+310500Y+292550
X+309400
X+310500Y+294950
X+309375
X+314625Y+278500
Y+283500
X+315375Y+278500
Y+283500
X+319375Y+287450
X+320475
X+318975Y+292575
Y+291825
X+320175Y+292575
Y+291825
X+318975Y+294900
X+320175
X+322550Y+287450
X+323550
X+321550
X+321375Y+292575
Y+291825
Y+294900
X+325700Y+287450
X+324700
X+327625Y+278500
Y+283500
X+328875Y+287450
X+327825
X+328575Y+292575
Y+291825
Y+294900
X+334875Y+286250
X+190500Y+273125
X+191500
X+213625Y+293750
X+221050Y+285100
X+219800
X+221050Y+288175
X+219800
X+227000Y+285100
Y+288175
X+229400Y+285100
Y+288175
X+236625Y+285050
X+235100
X+237875
X+239000
X+241050
X+242050
X+244200
X+245200
X+248475
X+247375
X+295125Y+293750
X+301300Y+285100
Y+288175
X+302550Y+285100
Y+288175
X+308500Y+285100
Y+288175
X+309700Y+285100
Y+288175
X+310900Y+285100
Y+288175
X+316600Y+285050
X+319375
X+320500
X+322550
X+323550
X+321550
X+325700
X+324700
X+328875
X+327825
X+209000Y+286375
X+225250Y+283250
X+228200Y+287425
X+218700
X+221675Y+292550
X+227900
X+224825
X+227875Y+294950
X+221675
X+224825
X+233875Y+278500
Y+283500
X+240050Y+287450
X+239875Y+292575
Y+291825
Y+294900
X+231775Y+294950
X+246125Y+278500
Y+283500
X+246325Y+287450
X+243200
X+245825Y+292575
Y+291825
Y+294900
X+261250Y+283250
X+257875Y+286375
X+271125Y+338125
X+290875Y+278500
Y+283500
X+293875Y+283250
X+300200Y+287425
X+290500Y+286375
X+299900Y+292550
Y+294950
X+303125Y+278500
Y+283500
X+303175Y+292550
X+306325
X+311750
X+303175Y+294950
X+306325
X+311750
X+324125Y+283250
X+318125Y+287450
X+326875Y+278500
Y+283500
X+326700Y+287450
X+329975
X+329675Y+292575
Y+291825
X+327325Y+292575
Y+291825
X+329675Y+294900
X+327325
X+342750Y+283250
X+339375Y+286375
X+228200Y+285100
X+218700
X+228200Y+288175
X+218700
X+240050Y+285050
X+246325
X+243200
X+300200Y+285100
Y+288175
X+318125Y+285050
X+326700
X+329975
X+242625Y+283250
X+205625
X+313275Y+294950
T02
X+224250Y+287450
X+223460
X+241835Y+292550
Y+294900
X+243415Y+292550
Y+294900
X+304960Y+287450
X+306540
X+323335Y+292550
Y+294900
X+324915Y+292550
Y+294900
X+224250Y+285100
X+223460
X+304960
X+306540
X+225040Y+287450
X+242625Y+292550
Y+294900
X+305750Y+287450
X+324125Y+292550
Y+294900
X+225040Y+285100
X+305750
T03
X+262500Y+238500
Y+236500
Y+237500
X+345875Y+238500
Y+236500
Y+237500
X+212375Y+288500
Y+291500
X+246250Y+362375
Y+360375
Y+361375
X+261250Y+291500
Y+288500
X+293875
Y+291500
X+342750
Y+288500
X+352500Y+350500
Y+348500
Y+349500
Y+356000
Y+354000
Y+355000
X+205625Y+288500
Y+291500
X+254500
Y+288500
X+287125
Y+291500
X+290000Y+362375
Y+360375
Y+361375
X+336000Y+291500
Y+288500
T04
X+196250Y+289040
Y+291040
X+201250Y+288190
Y+291890
Y+290040
T05
X+349950Y+316125
Y+328125
Y+324125
Y+340125
Y+336125
Y+320125
Y+332125
Y+344125
X+353450Y+314125
Y+318125
Y+326125
Y+322125
Y+330125
Y+338125
Y+334125
Y+342125
T06
X+197140Y+239900
Y+237910
Y+275900
X+200830Y+282340
X+197140Y+318900
Y+316900
Y+356900
Y+354900
X+224160Y+239900
Y+237910
X+224140Y+275900
Y+318900
Y+316900
Y+356900
Y+354900
X+269334Y+283679
X+281140Y+239900
Y+237910
Y+275900
X+284830Y+282340
X+281140Y+318900
Y+316900
Y+356900
Y+354900
X+308170Y+239900
Y+237910
X+308140Y+275900
Y+318900
Y+316900
Y+354900
Y+356900
X+353334Y+283679
X+197140Y+277900
X+200830Y+361340
X+224140Y+277900
X+269334Y+362679
X+281140Y+277900
X+284830Y+361340
X+308140Y+277900
X+353334Y+362679
X+349950Y+314125
X+353450Y+344125
T07
X+231435Y+288620
X+217065Y+291380
X+316940
X+331310Y+288620
X+312935
X+298565Y+291380
X+235440
X+249810Y+288620
T08
X+280380Y+217340
X+284830
X+353350Y+218660
X+353300Y+228660
X+280380Y+296340
X+284830
X+353350Y+297660
X+353300Y+307660
X+196380Y+217340
X+200830
X+269350Y+218660
X+269300Y+228660
X+196380Y+296340
X+200830
X+269350Y+297660
X+269300Y+307660
T09
X+227300Y+273660
Y+352660
X+311310Y+273660
Y+352670
X+353300Y+223660
Y+302660
X+269300Y+223660
Y+302660
T10
X+191000Y+221000
Y+359000
X+358000Y+221000
Y+359000
X+274750Y+229420
Y+361830
T11
X+225692Y+238083
Y+260083
Y+317083
Y+339083
X+309692Y+238083
Y+260083
Y+317083
Y+339083
X+278383Y+238584
Y+260084
Y+317584
Y+339084
T12
X+311300Y+228660
Y+307660
X+227300Y+228660
Y+307660
T00
M30
