  0
SECTION
  2
HEADER
  9
$ACADVER
  1
AC1009
  9
$MEASUREMENT
  70
1
  9
$INSUNITS
  70
4
  9
$DIMLFAC
  40
1
  9
$INSBASE
  10
0.0
  20
0.0
  30
0.0
  9
$EXTMIN
  10
-17.011665344238
  20
19.999999008179
  9
$EXTMAX
  10
136.840094604492
  20
204.150000610352
  9
$LIMMIN
  10
-17.011665344238
  20
19.999999008179
  9
$LIMMAX
  10
136.840094604492
  20
204.150000610352
  9
$CLAYER
  8
0
  0
ENDSEC
  0
SECTION
  2
TABLES
  0
TABLE
  2
LTYPE
  70
2
  0
LTYPE
  2
CONTINUOUS
  70
65
  3
Solid line
  72
65
  73
0
  40
0
  0
LTYPE
  2
DASHED
  70
65
  3
 _ _ _ _ _ _ _ _ _ _ _ _ _ _ _ _ _ _ _ _ _ _
  72
65
  73
2
  40
2
  49
1
  49
-1
  0
ENDTAB
  0
TABLE
  2
LAYER
  70
1
  0
LAYER
  2
0
  70
0
  62
7
  6
CONTINUOUS
  0
ENDTAB
  0
ENDSEC
  0
SECTION
  2
BLOCKS
  0
ENDSEC
  0
SECTION
  2
ENTITIES
  0
CIRCLE
  8
0
  10
120.942489624023
  20
98.487197875977
  30
0
  40
1.7526
  0
CIRCLE
  8
0
  10
120.942489624023
  20
29.847200393677
  30
0
  40
1.7526
  0
CIRCLE
  8
0
  10
24.422491073608
  20
98.487197875977
  30
0
  40
1.7526
  0
CIRCLE
  8
0
  10
24.422491073608
  20
29.847200393677
  30
0
  40
1.7526
  0
CIRCLE
  8
0
  10
35.103221893311
  20
86.768600463867
  30
0
  40
1.4224
  0
CIRCLE
  8
0
  10
64.45288848877
  20
102.173698425293
  30
0
  40
1.4224
  0
CIRCLE
  8
0
  10
119.062889099121
  20
102.173698425293
  30
0
  40
1.4224
  0
CIRCLE
  8
0
  10
120.332893371582
  20
22.646299362183
  30
0
  40
1.4224
  0
CIRCLE
  8
0
  10
64.45288848877
  20
22.646299362183
  30
0
  40
1.4224
  0
CIRCLE
  8
0
  10
35.103221893311
  20
86.768600463867
  30
0
  40
1.1305
  0
CIRCLE
  8
0
  10
64.45288848877
  20
102.173698425293
  30
0
  40
1.1305
  0
CIRCLE
  8
0
  10
24.422491073608
  20
29.847200393677
  30
0
  40
1.3525
  0
CIRCLE
  8
0
  10
24.422491073608
  20
98.487197875977
  30
0
  40
1.3525
  0
CIRCLE
  8
0
  10
120.942489624023
  20
29.847200393677
  30
0
  40
1.3525
  0
CIRCLE
  8
0
  10
120.942489624023
  20
98.487197875977
  30
0
  40
1.3525
  0
CIRCLE
  8
0
  10
64.45288848877
  20
22.646299362183
  30
0
  40
1.1305
  0
CIRCLE
  8
0
  6
DASHED
  10
135.318893432617
  20
33.200000762939
  30
0
  40
0.635
  0
CIRCLE
  8
0
  6
DASHED
  10
135.318893432617
  20
91.680000305176
  30
0
  40
0.635
  0
CIRCLE
  8
0
  10
120.332893371582
  20
22.646299362183
  30
0
  40
1.1305
  0
LINE
  8
0
  10
74.182678222656
  20
88.3583984375
  30
0
  11
74.182678222656
  21
39.335558066866
  31
0
  0
ARC
  8
0
  10
79.516677856445
  20
39.335559844971
  30
0
  40
5.334
  50
180
  51
270
  0
LINE
  8
0
  10
79.516677856445
  20
34.001560211182
  30
0
  11
113.985269366829
  21
34.001560211182
  31
0
  0
ARC
  8
0
  10
113.985275268555
  20
39.335559844971
  30
0
  40
5.334
  50
270
  51
360
  0
LINE
  8
0
  10
119.319274902344
  20
39.335559844971
  30
0
  11
119.319274902344
  21
88.358400215604
  31
0
  0
ARC
  8
0
  10
113.985275268555
  20
88.3583984375
  30
0
  40
5.334
  50
0
  51
90
  0
LINE
  8
0
  10
113.985275268555
  20
93.692398071289
  30
0
  11
79.516683758171
  21
93.692398071289
  31
0
  0
ARC
  8
0
  10
79.516677856445
  20
88.3583984375
  30
0
  40
5.334
  50
90
  51
180
  0
LINE
  8
0
  10
25.422492980957
  20
109.230209350586
  30
0
  11
25.422492980957
  21
103.166934967041
  31
0
  0
ARC
  8
0
  10
28.650135969662
  20
103.161768755609
  30
0
  40
3.227643400661
  50
179.907275775113
  51
190.619954825321
  0
ARC
  8
0
  10
28.564114723927
  20
103.14612303404
  30
0
  40
3.140212222111
  50
190.628629657341
  51
201.256442811033
  0
ARC
  8
0
  10
28.491512525913
  20
103.117660188209
  30
0
  40
3.062230367544
  50
201.252606618604
  51
211.859619288569
  0
ARC
  8
0
  10
28.404657327707
  20
103.062983691331
  30
0
  40
2.959600058701
  50
211.84812929102
  51
222.593519093926
  0
ARC
  8
0
  10
28.305432598525
  20
102.97096769726
  30
0
  40
2.824277735315
  50
222.581647675693
  51
233.667669965339
  0
ARC
  8
0
  10
28.218459619031
  20
102.852508989786
  30
0
  40
2.677319408445
  50
233.665143526331
  51
245.265979853192
  0
ARC
  8
0
  10
28.164033566028
  20
102.73514137244
  30
0
  40
2.547946917456
  50
245.273302414954
  51
270.030845638315
  0
LINE
  8
0
  10
28.165405273438
  20
100.187194824219
  30
0
  11
44.141670227051
  21
100.187194824219
  31
0
  0
ARC
  8
0
  10
44.1430310277
  20
102.735141314067
  30
0
  40
2.547931606775
  50
269.968884747932
  51
294.726587549206
  0
ARC
  8
0
  10
44.088599148647
  20
102.8525240032
  30
0
  40
2.677320223898
  50
294.733893758513
  51
306.334738902
  0
ARC
  8
0
  10
44.001623870478
  20
102.9709865945
  30
0
  40
2.824283041688
  50
306.332209467898
  51
317.418219625513
  0
ARC
  8
0
  10
43.902403088083
  20
103.062999606857
  30
0
  40
2.959600442908
  50
317.406345078851
  51
328.151729614681
  0
ARC
  8
0
  10
43.81556163102
  20
103.117668035658
  30
0
  40
3.062214823604
  50
328.140236852082
  51
338.747278281798
  0
ARC
  8
0
  10
43.742983357589
  20
103.146121853401
  30
0
  40
3.140171108591
  50
338.743440187365
  51
349.371339176958
  0
ARC
  8
0
  10
43.65699324648
  20
103.161761808698
  30
0
  40
3.227570622866
  50
349.380013713477
  51
360.092849637329
  0
LINE
  8
0
  10
46.884559631348
  20
103.1669921875
  30
0
  11
46.884559631348
  21
109.230266571045
  31
0
  0
ARC
  8
0
  10
43.656993183088
  20
109.23546255136
  30
0
  40
3.227563056766
  50
359.907151320409
  51
370.619967183061
  0
ARC
  8
0
  10
43.742980644521
  20
109.251102035577
  30
0
  40
3.140166233431
  50
10.628640739568
  51
21.256518581465
  0
ARC
  8
0
  10
43.815559341499
  20
109.279556000543
  30
0
  40
3.062209500488
  50
21.252679736578
  51
31.859706600011
  0
ARC
  8
0
  10
43.902402726682
  20
109.334225529344
  30
0
  40
2.95959290212
  50
31.848213463317
  51
42.593594908372
  0
ARC
  8
0
  10
44.001625244561
  20
109.426239935176
  30
0
  40
2.824273280803
  50
42.581720462515
  51
53.667740294914
  0
ARC
  8
0
  10
44.088601004532
  20
109.544702909264
  30
0
  40
2.67730986929
  50
53.665211546337
  51
65.266075977518
  0
ARC
  8
0
  10
44.143031372931
  20
109.662081317447
  30
0
  40
2.547925772324
  50
65.273390091156
  51
90.031123086604
  0
LINE
  8
0
  10
44.141647338867
  20
112.210006713867
  30
0
  11
28.165382385254
  21
112.210006713867
  31
0
  0
ARC
  8
0
  10
28.164009853039
  20
109.662080781675
  30
0
  40
2.547926308065
  50
89.968878218748
  51
114.726607266467
  0
ARC
  8
0
  10
28.218441043807
  20
109.544700499338
  30
0
  40
2.67731245132
  50
114.733920709579
  51
126.334776537171
  0
ARC
  8
0
  10
28.305418113841
  20
109.426235693594
  30
0
  40
2.824278114598
  50
126.332247806143
  51
137.418252788982
  0
ARC
  8
0
  10
28.404642373462
  20
109.33421959148
  30
0
  40
2.959600166445
  50
137.40637823124
  51
148.151738569851
  0
ARC
  8
0
  10
28.491487368616
  20
109.279548943848
  30
0
  40
3.062218723292
  50
148.140245188134
  51
158.747245709623
  0
ARC
  8
0
  10
28.564066790741
  20
109.251094563903
  30
0
  40
3.140176282763
  50
158.74340646712
  51
169.371254962034
  0
ARC
  8
0
  10
28.650053444462
  20
109.235455040243
  30
0
  40
3.227572318625
  50
169.379927985036
  51
180.092715075822
  0
CIRCLE
  8
0
  10
41.250957489014
  20
195.638092041016
  30
0
  40
0.889
  0
CIRCLE
  8
0
  10
41.250957489014
  20
137.21809387207
  30
0
  40
0.889
  0
CIRCLE
  8
0
  10
99.670959472656
  20
137.21809387207
  30
0
  40
0.889
  0
CIRCLE
  8
0
  10
99.670959472656
  20
195.638092041016
  30
0
  40
0.889
  0
CIRCLE
  8
0
  10
41.250957489014
  20
195.638092041016
  30
0
  40
1.0922
  0
CIRCLE
  8
0
  10
99.670959472656
  20
195.638092041016
  30
0
  40
1.0922
  0
CIRCLE
  8
0
  10
99.670959472656
  20
137.21809387207
  30
0
  40
1.0922
  0
CIRCLE
  8
0
  10
41.250957489014
  20
137.21809387207
  30
0
  40
1.0922
  0
TEXT
  8
0
  40
5
  72
0
  10
56.748100280762
  20
166.365234375
  30
0
  1
2-56 tap X4
  50
0
  0
LINE
  8
0
  10
99.670959472656
  20
194.5458984375
  30
0
  11
78.243055371762
  21
173.530225703443
  31
0
  0
LINE
  8
0
  10
78.243055371762
  20
173.530225703443
  30
0
  11
80.790623115439
  21
174.186393642967
  31
0
  0
LINE
  8
0
  10
78.243055371762
  20
173.530225703443
  30
0
  11
78.948581138824
  21
176.064568057092
  31
0
  0
LINE
  8
0
  10
24.422491073608
  20
98.487197875977
  30
0
  11
0.892175674438
  21
69.367900848389
  31
0
  0
LINE
  8
0
  10
0.892175674438
  20
69.367900848389
  30
0
  11
3.347178717328
  21
70.313214464544
  31
0
  0
LINE
  8
0
  10
0.892175674438
  20
69.367900848389
  30
0
  11
1.30101158975
  21
71.966652657977
  31
0
  0
LINE
  8
0
  10
24.422491073608
  20
29.847200393677
  30
0
  11
0.892175674438
  21
69.367902755737
  31
0
  0
LINE
  8
0
  10
0.892175674438
  20
69.367902755737
  30
0
  11
0.927493796556
  21
66.737425535966
  31
0
  0
LINE
  8
0
  10
0.892175674438
  20
69.367902755737
  30
0
  11
3.187894831895
  21
68.083250536819
  31
0
  0
TEXT
  8
0
  40
3
  72
0
  10
45.746002197266
  20
67.963088989258
  30
0
  1
4-40 X8
  50
0
  0
TEXT
  8
0
  40
3
  72
0
  10
-17.011665344238
  20
67.582321166992
  30
0
  1
6-32 X6
  50
0
  0
LINE
  8
0
  10
35.026988983154
  20
85.638107299805
  30
0
  11
43.74600315094
  21
69.963097572327
  31
0
  0
LINE
  8
0
  10
43.74600315094
  20
69.963097572327
  30
0
  11
43.788040172195
  21
72.593475998016
  31
0
  0
LINE
  8
0
  10
43.74600315094
  20
69.963097572327
  30
0
  11
41.489047123354
  21
71.314691913477
  31
0
  0
LINE
  8
0
  10
35.026988983154
  20
49.938598632812
  30
0
  11
43.746000289917
  21
69.963090896606
  31
0
  0
LINE
  8
0
  10
43.746000289917
  20
69.963090896606
  30
0
  11
41.630486848749
  21
68.399357973846
  31
0
  0
LINE
  8
0
  10
43.746000289917
  20
69.963090896606
  30
0
  11
44.042476005178
  21
67.349136053128
  31
0
  0
CIRCLE
  8
0
  6
DASHED
  10
35.103221893311
  20
86.768600463867
  30
0
  40
1.58115
  0
CIRCLE
  8
0
  10
35.103221893311
  20
49.93860244751
  30
0
  40
1.1305
  0
CIRCLE
  8
0
  10
35.103221893311
  20
49.93860244751
  30
0
  40
1.4224
  0
CIRCLE
  8
0
  10
119.062889099121
  20
102.173698425293
  30
0
  40
1.1305
  0
CIRCLE
  8
0
  6
DASHED
  10
119.060348510742
  20
102.173698425293
  30
0
  40
1.58115
  0
CIRCLE
  8
0
  6
DASHED
  10
120.332893371582
  20
22.646299362183
  30
0
  40
1.58115
  0
ARC
  8
0
  10
134.300094604492
  20
113.588508605957
  30
0
  40
2.54
  50
0
  51
90
  0
LINE
  8
0
  10
134.300094604492
  20
116.12850189209
  30
0
  11
117.457276174077
  21
116.128499751294
  31
0
  0
ARC
  8
0
  10
117.457275390625
  20
118.668502807617
  30
0
  40
2.54
  50
179.999927990133
  51
270
  0
LINE
  8
0
  10
114.917274475098
  20
118.668502807617
  30
0
  11
114.917378716729
  21
201.609990891078
  31
0
  0
ARC
  8
0
  10
112.377380371094
  20
201.610000610352
  30
0
  40
2.54
  50
0
  51
90
  0
LINE
  8
0
  10
112.377380371094
  20
204.149993896484
  30
0
  11
22.540002661236
  21
204.149993896484
  31
0
  0
ARC
  8
0
  10
22.540000915527
  20
201.610000610352
  30
0
  40
2.54
  50
90
  51
180
  0
LINE
  8
0
  10
20
  20
201.610000610352
  30
0
  11
20
  21
22.540002758789
  31
0
  0
ARC
  8
0
  10
22.540000915527
  20
22.539999008179
  30
0
  40
2.54
  50
180
  51
270
  0
LINE
  8
0
  10
22.540000915527
  20
20
  30
0
  11
136.840000915527
  21
20
  31
0
  0
LINE
  8
0
  10
136.839996337891
  20
20
  30
0
  11
136.840088882157
  21
113.588487674366
  31
0
  0
CIRCLE
  8
0
  10
133.919067382812
  20
82.765914916992
  30
0
  40
1.4224
  0
CIRCLE
  8
0
  10
133.919067382812
  20
82.765914916992
  30
0
  40
1.1305
  0
CIRCLE
  8
0
  10
133.919067382812
  20
42.125915527344
  30
0
  40
1.4224
  0
CIRCLE
  8
0
  10
133.919067382812
  20
42.125915527344
  30
0
  40
1.1305
  0
CIRCLE
  8
0
  10
70.14249420166
  20
144.20719909668
  30
0
  40
1.7526
  0
CIRCLE
  8
0
  10
70.14249420166
  20
144.20719909668
  30
0
  40
1.3525
  0
CIRCLE
  8
0
  10
70.14249420166
  20
191.707733154297
  30
0
  40
1.7526
  0
CIRCLE
  8
0
  10
70.14249420166
  20
191.707733154297
  30
0
  40
1.3525
  0
TEXT
  8
0
  40
0.999999995904
  72
0
  10
31.884643926016
  20
143.060293910528
  30
0
  1
 2-56 (UNC) L4.7498 mm x 4
  50
0
  0
TEXT
  8
0
  40
0.999999995904
  72
0
  10
55.057756192768
  20
108.346103300096
  30
0
  1
 4-40 (UNC) L4.7498 mm x 8
  50
0
  0
TEXT
  8
0
  40
0.999999995904
  72
0
  10
15.091197018112
  20
14.349800308736
  30
0
  1
 6-32 (UNC) L4.7498 mm x 6
  50
0
  0
ENDSEC
  0
EOF
