  0
SECTION
  2
HEADER
  9
$ACADVER
  1
AC1009
  9
$MEASUREMENT
  70
0
  9
$INSUNITS
  70
1
  9
$DIMLFAC
  40
1
  9
$INSBASE
  10
0.0
  20
0.0
  30
0.0
  9
$EXTMIN
  10
-0
  20
-0
  9
$EXTMAX
  10
6.047526767895
  20
5.401574773113
  9
$LIMMIN
  10
-0
  20
-0
  9
$LIMMAX
  10
6.047526767895
  20
5.401574773113
  9
$CLAYER
  8
0
  0
ENDSEC
  0
SECTION
  2
TABLES
  0
TABLE
  2
LTYPE
  70
2
  0
LTYPE
  2
CONTINUOUS
  70
65
  3
Solid line
  72
65
  73
0
  40
0
  0
LTYPE
  2
DASHED
  70
65
  3
 _ _ _ _ _ _ _ _ _ _ _ _ _ _ _ _ _ _ _ _ _ _
  72
65
  73
2
  40
2
  49
1
  49
-1
  0
ENDTAB
  0
TABLE
  2
LAYER
  70
1
  0
LAYER
  2
0
  70
0
  62
7
  6
CONTINUOUS
  0
ENDTAB
  0
ENDSEC
  0
SECTION
  2
BLOCKS
  0
ENDSEC
  0
SECTION
  2
ENTITIES
  0
CIRCLE
  8
0
  10
3.0898
  20
5.2725
  30
0
  40
0.0625
  0
LINE
  8
0
  10
1.999999969963
  20
2.2519684739
  30
0
  11
2.952755875475
  21
2.2519684739
  31
0
  0
LINE
  8
0
  10
2.952755875475
  20
2.2519684739
  30
0
  11
2.952755875475
  21
1.999999969963
  31
0
  0
LINE
  8
0
  10
2.952755875475
  20
1.999999969963
  30
0
  11
5.999999969963
  21
1.999999969963
  31
0
  0
LINE
  8
0
  10
5.999999969963
  20
1.999999969963
  30
0
  11
5.999999969963
  21
5.401574773113
  31
0
  0
LINE
  8
0
  10
5.999999969963
  20
5.401574773113
  30
0
  11
1.999999969963
  21
5.401574773113
  31
0
  0
LINE
  8
0
  10
1.999999969963
  20
5.401574773113
  30
0
  11
1.999999969963
  21
2.2519684739
  31
0
  0
CIRCLE
  8
0
  10
5.2899
  20
2.1416
  30
0
  40
0.0625
  0
CIRCLE
  8
0
  10
3.0899
  20
2.1416
  30
0
  40
0.0625
  0
CIRCLE
  8
0
  10
5.8799
  20
2.5571
  30
0
  40
0.01968503937
  0
CIRCLE
  8
0
  10
5.8799
  20
4.8593
  30
0
  40
0.01968503937
  0
LINE
  8
0
  10
5.8799
  20
4.8593
  30
0
  11
5.8799
  21
2.5571
  31
0
  0
LINE
  8
0
  10
5.8799
  20
2.5571
  30
0
  11
5.90419696288
  21
2.599183574177
  31
0
  0
LINE
  8
0
  10
5.8799
  20
2.5571
  30
0
  11
5.85560303712
  21
2.599183574177
  31
0
  0
LINE
  8
0
  10
5.8799
  20
4.8593
  30
0
  11
5.90419696288
  21
4.817216425823
  31
0
  0
LINE
  8
0
  10
5.8799
  20
4.8593
  30
0
  11
5.85560303712
  21
4.817216425823
  31
0
  0
LINE
  8
0
  10
5.85560303712
  20
4.8593
  30
0
  11
5.90419696288
  21
4.8593
  31
0
  0
LINE
  8
0
  10
5.85560303712
  20
2.5571
  30
0
  11
5.90419696288
  21
2.5571
  31
0
  0
TEXT
  8
0
  40
0.048593925759
  72
0
  10
5.863702024747
  20
3.595225803385
  30
0
  1
2.3022"
  50
450
  0
LINE
  8
0
  10
5.8799
  20
4.8593
  30
0
  11
5.999999969963
  21
4.8593
  31
0
  0
LINE
  8
0
  10
5.999999969963
  20
4.8593
  30
0
  11
5.957916395786
  21
4.88359696288
  31
0
  0
LINE
  8
0
  10
5.999999969963
  20
4.8593
  30
0
  11
5.957916395786
  21
4.83500303712
  31
0
  0
LINE
  8
0
  10
5.8799
  20
4.8593
  30
0
  11
5.921983574177
  21
4.88359696288
  31
0
  0
LINE
  8
0
  10
5.8799
  20
4.8593
  30
0
  11
5.921983574177
  21
4.83500303712
  31
0
  0
LINE
  8
0
  10
5.8799
  20
4.83500303712
  30
0
  11
5.8799
  21
4.88359696288
  31
0
  0
LINE
  8
0
  10
5.999999969963
  20
4.83500303712
  30
0
  11
5.999999969963
  21
4.88359696288
  31
0
  0
TEXT
  8
0
  40
0.048593925759
  72
0
  10
5.832373202068
  20
4.875497975253
  30
0
  1
0.1201"
  50
0
  0
CIRCLE
  8
0
  10
5.2398
  20
5.2725
  30
0
  40
0.0625
  0
LINE
  8
0
  10
5.2398
  20
5.2725
  30
0
  11
5.8799
  21
4.8593
  31
0
  0
LINE
  8
0
  10
5.8799
  20
4.8593
  30
0
  11
5.857720425093
  21
4.902536975815
  31
0
  0
LINE
  8
0
  10
5.8799
  20
4.8593
  30
0
  11
5.831365893108
  21
4.861710412593
  31
0
  0
LINE
  8
0
  10
5.2398
  20
5.2725
  30
0
  11
5.288334106892
  21
5.270089587407
  31
0
  0
LINE
  8
0
  10
5.2398
  20
5.2725
  30
0
  11
5.261979574907
  21
5.229263024185
  31
0
  0
LINE
  8
0
  10
5.226622734008
  20
5.252086718389
  30
0
  11
5.252977265992
  21
5.292913281611
  31
0
  0
LINE
  8
0
  10
5.866722734008
  20
4.838886718389
  30
0
  11
5.893077265992
  21
4.879713281611
  31
0
  0
TEXT
  8
0
  40
0.048593925759
  72
0
  10
5.477466778499
  20
5.138360041195
  30
0
  1
0.7619"
  50
327.156781148219
  0
LINE
  8
0
  10
5.8799
  20
2.5571
  30
0
  11
5.2899
  21
2.1416
  31
0
  0
LINE
  8
0
  10
5.2899
  20
2.1416
  30
0
  11
5.338297404479
  21
2.145965874524
  31
0
  0
LINE
  8
0
  10
5.2899
  20
2.1416
  30
0
  11
5.310317743992
  21
2.185696319018
  31
0
  0
LINE
  8
0
  10
5.8799
  20
2.5571
  30
0
  11
5.859482256008
  21
2.513003680982
  31
0
  0
LINE
  8
0
  10
5.8799
  20
2.5571
  30
0
  11
5.831502595521
  21
2.552734125476
  31
0
  0
LINE
  8
0
  10
5.865910169756
  20
2.576965222247
  30
0
  11
5.893889830244
  21
2.537234777753
  31
0
  0
LINE
  8
0
  10
5.275910169756
  20
2.161465222247
  30
0
  11
5.303889830244
  21
2.121734777753
  31
0
  0
TEXT
  8
0
  40
0.048593925759
  72
0
  10
5.486141522998
  20
2.299612186215
  30
0
  1
0.7216"
  50
395.154634791483
  0
LINE
  8
0
  10
3.0899
  20
2.1416
  30
0
  11
5.2899
  21
2.1416
  31
0
  0
LINE
  8
0
  10
5.2899
  20
2.1416
  30
0
  11
5.247816425823
  21
2.16589696288
  31
0
  0
LINE
  8
0
  10
5.2899
  20
2.1416
  30
0
  11
5.247816425823
  21
2.11730303712
  31
0
  0
LINE
  8
0
  10
3.0899
  20
2.1416
  30
0
  11
3.131983574177
  21
2.16589696288
  31
0
  0
LINE
  8
0
  10
3.0899
  20
2.1416
  30
0
  11
3.131983574177
  21
2.11730303712
  31
0
  0
LINE
  8
0
  10
3.0899
  20
2.11730303712
  30
0
  11
3.0899
  21
2.16589696288
  31
0
  0
LINE
  8
0
  10
5.2899
  20
2.11730303712
  30
0
  11
5.2899
  21
2.16589696288
  31
0
  0
TEXT
  8
0
  40
0.048593925759
  72
0
  10
4.133236472879
  20
2.157797975253
  30
0
  1
2.2"
  50
0
  0
LINE
  8
0
  10
3.0898
  20
5.2725
  30
0
  11
5.2398
  21
5.2725
  31
0
  0
LINE
  8
0
  10
5.2398
  20
5.2725
  30
0
  11
5.197716425823
  21
5.29679696288
  31
0
  0
LINE
  8
0
  10
5.2398
  20
5.2725
  30
0
  11
5.197716425823
  21
5.24820303712
  31
0
  0
LINE
  8
0
  10
3.0898
  20
5.2725
  30
0
  11
3.131883574177
  21
5.29679696288
  31
0
  0
LINE
  8
0
  10
3.0898
  20
5.2725
  30
0
  11
3.131883574177
  21
5.24820303712
  31
0
  0
LINE
  8
0
  10
3.0898
  20
5.24820303712
  30
0
  11
3.0898
  21
5.29679696288
  31
0
  0
LINE
  8
0
  10
5.2398
  20
5.24820303712
  30
0
  11
5.2398
  21
5.29679696288
  31
0
  0
TEXT
  8
0
  40
0.048593925759
  72
0
  10
4.091962097841
  20
5.288697975253
  30
0
  1
2.15"
  50
0
  0
LINE
  8
0
  10
5.8799
  20
2.5571
  30
0
  11
5.999999969963
  21
2.5571
  31
0
  0
LINE
  8
0
  10
5.999999969963
  20
2.5571
  30
0
  11
5.957916395786
  21
2.58139696288
  31
0
  0
LINE
  8
0
  10
5.999999969963
  20
2.5571
  30
0
  11
5.957916395786
  21
2.53280303712
  31
0
  0
LINE
  8
0
  10
5.8799
  20
2.5571
  30
0
  11
5.921983574177
  21
2.58139696288
  31
0
  0
LINE
  8
0
  10
5.8799
  20
2.5571
  30
0
  11
5.921983574177
  21
2.53280303712
  31
0
  0
LINE
  8
0
  10
5.8799
  20
2.53280303712
  30
0
  11
5.8799
  21
2.58139696288
  31
0
  0
LINE
  8
0
  10
5.999999969963
  20
2.53280303712
  30
0
  11
5.999999969963
  21
2.58139696288
  31
0
  0
TEXT
  8
0
  40
0.048593925759
  72
0
  10
5.832373202068
  20
2.573297975253
  30
0
  1
0.1201"
  50
0
  0
LINE
  8
0
  10
-0
  20
0.999999984981
  30
0
  11
-0
  21
-0
  31
0
  0
LINE
  8
0
  10
-0
  20
0.999999984981
  30
0
  11
0.999999984981
  21
0.999999984981
  31
0
  0
LINE
  8
0
  10
0.999999984981
  20
-0
  30
0
  11
0.999999984981
  21
0.999999984981
  31
0
  0
LINE
  8
0
  10
-0
  20
-0
  30
0
  11
0.999999984981
  21
-0
  31
0
  0
TEXT
  8
0
  40
0.099999998498
  72
0
  10
0.299212598425
  20
0.692913385827
  30
0
  1
1"x1"
  50
0
  0
TEXT
  8
0
  40
0.099999998498
  72
0
  10
0.275590551181
  20
0.433070866142
  30
0
  1
scaling
  50
0
  0
TEXT
  8
0
  40
0.099999998498
  72
0
  10
0.208661417323
  20
0.177165354331
  30
0
  1
reference
  50
0
  0
ENDSEC
  0
EOF
