  0
SECTION
  2
HEADER
  9
$ACADVER
  1
AC1009
  9
$MEASUREMENT
  70
1
  9
$INSUNITS
  70
4
  9
$DIMLFAC
  40
1
  9
$INSBASE
  10
0.0
  20
0.0
  30
0.0
  9
$EXTMIN
  10
-30.799999237061
  20
-30.799999237061
  9
$EXTMAX
  10
124.477071341292
  20
106.40000000001
  9
$LIMMIN
  10
-30.799999237061
  20
-30.799999237061
  9
$LIMMAX
  10
124.477071341292
  20
106.40000000001
  9
$CLAYER
  8
0
  0
ENDSEC
  0
SECTION
  2
TABLES
  0
TABLE
  2
LTYPE
  70
2
  0
LTYPE
  2
CONTINUOUS
  70
65
  3
Solid line
  72
65
  73
0
  40
0
  0
LTYPE
  2
DASHED
  70
65
  3
 _ _ _ _ _ _ _ _ _ _ _ _ _ _ _ _ _ _ _ _ _ _
  72
65
  73
2
  40
2
  49
1
  49
-1
  0
ENDTAB
  0
TABLE
  2
LAYER
  70
1
  0
LAYER
  2
0
  70
0
  62
7
  6
CONTINUOUS
  0
ENDTAB
  0
ENDSEC
  0
SECTION
  2
BLOCKS
  0
ENDSEC
  0
SECTION
  2
ENTITIES
  0
CIRCLE
  8
0
  10
47.68092076294
  20
103.12150076294
  30
0
  40
1.5875
  0
LINE
  8
0
  10
20
  20
26.4
  30
0
  11
44.200000000005
  21
26.4
  31
0
  0
LINE
  8
0
  10
44.200000000005
  20
26.4
  30
0
  11
44.200000000005
  21
20
  31
0
  0
LINE
  8
0
  10
44.200000000005
  20
20
  30
0
  11
121.6
  21
20
  31
0
  0
LINE
  8
0
  10
121.6
  20
20
  30
0
  11
121.6
  21
106.40000000001
  31
0
  0
LINE
  8
0
  10
121.6
  20
106.40000000001
  30
0
  11
20
  21
106.40000000001
  31
0
  0
LINE
  8
0
  10
20
  20
106.40000000001
  30
0
  11
20
  21
26.4
  31
0
  0
CIRCLE
  8
0
  10
103.56346076294
  20
23.59664076294
  30
0
  40
1.5875
  0
CIRCLE
  8
0
  10
47.68346076294
  20
23.59664076294
  30
0
  40
1.5875
  0
CIRCLE
  8
0
  10
118.54946076294
  20
34.15034076294
  30
0
  40
0.499999999998
  0
CIRCLE
  8
0
  10
118.54946076294
  20
92.62622076294
  30
0
  40
0.499999999998
  0
LINE
  8
0
  10
118.54946076294
  20
92.62622076294
  30
0
  11
118.54946076294
  21
34.15034076294
  31
0
  0
LINE
  8
0
  10
118.54946076294
  20
34.15034076294
  30
0
  11
119.166603620083
  21
35.21926354704
  31
0
  0
LINE
  8
0
  10
118.54946076294
  20
34.15034076294
  30
0
  11
117.932317905797
  21
35.21926354704
  31
0
  0
LINE
  8
0
  10
118.54946076294
  20
92.62622076294
  30
0
  11
119.166603620083
  21
91.55729797884
  31
0
  0
LINE
  8
0
  10
118.54946076294
  20
92.62622076294
  30
0
  11
117.932317905797
  21
91.55729797884
  31
0
  0
LINE
  8
0
  10
117.932317905797
  20
92.62622076294
  30
0
  11
119.166603620083
  21
92.62622076294
  31
0
  0
LINE
  8
0
  10
117.932317905797
  20
34.15034076294
  30
0
  11
119.166603620083
  21
34.15034076294
  31
0
  0
TEXT
  8
0
  40
1.234285714286
  72
0
  10
118.138032191511
  20
58.504897587716
  30
0
  1
58.4759 mm
  50
450
  0
LINE
  8
0
  10
118.54946076294
  20
92.62622076294
  30
0
  11
121.6
  21
92.62622076294
  31
0
  0
LINE
  8
0
  10
121.6
  20
92.62622076294
  30
0
  11
120.5310772159
  21
93.243363620083
  31
0
  0
LINE
  8
0
  10
121.6
  20
92.62622076294
  30
0
  11
120.5310772159
  21
92.009077905797
  31
0
  0
LINE
  8
0
  10
118.54946076294
  20
92.62622076294
  30
0
  11
119.61838354704
  21
93.243363620083
  31
0
  0
LINE
  8
0
  10
118.54946076294
  20
92.62622076294
  30
0
  11
119.61838354704
  21
92.009077905797
  31
0
  0
LINE
  8
0
  10
118.54946076294
  20
92.009077905797
  30
0
  11
118.54946076294
  21
93.243363620083
  31
0
  0
LINE
  8
0
  10
121.6
  20
92.009077905797
  30
0
  11
121.6
  21
93.243363620083
  31
0
  0
TEXT
  8
0
  40
1.234285714286
  72
0
  10
115.672389421648
  20
93.037649334368
  30
0
  1
3.0505 mm
  50
0
  0
CIRCLE
  8
0
  10
102.29092076294
  20
103.12150076294
  30
0
  40
1.5875
  0
LINE
  8
0
  10
102.29092076294
  20
103.12150076294
  30
0
  11
118.54946076294
  21
92.62622076294
  31
0
  0
LINE
  8
0
  10
118.54946076294
  20
92.62622076294
  30
0
  11
117.986099560291
  21
93.72443994864
  31
0
  0
LINE
  8
0
  10
118.54946076294
  20
92.62622076294
  30
0
  11
117.316694447875
  21
92.68744524279
  31
0
  0
LINE
  8
0
  10
102.29092076294
  20
103.12150076294
  30
0
  11
103.523687078004
  21
103.06027628309
  31
0
  0
LINE
  8
0
  10
102.29092076294
  20
103.12150076294
  30
0
  11
102.854281965588
  21
102.023281577239
  31
0
  0
LINE
  8
0
  10
101.956218206732
  20
102.603003410015
  30
0
  11
102.625623319148
  21
103.639998115865
  31
0
  0
LINE
  8
0
  10
118.214758206732
  20
92.107723410015
  30
0
  11
118.884163319148
  21
93.144718115865
  31
0
  0
TEXT
  8
0
  40
1.234285714286
  72
0
  10
106.670015139846
  20
100.784393599503
  30
0
  1
19.3518 mm
  50
327.156781148219
  0
LINE
  8
0
  10
118.54946076294
  20
34.15034076294
  30
0
  11
103.56346076294
  21
23.59664076294
  31
0
  0
LINE
  8
0
  10
103.56346076294
  20
23.59664076294
  30
0
  11
104.792754836716
  21
23.707533975848
  31
0
  0
LINE
  8
0
  10
103.56346076294
  20
23.59664076294
  30
0
  11
104.082071460342
  21
24.716687266006
  31
0
  0
LINE
  8
0
  10
118.54946076294
  20
34.15034076294
  30
0
  11
118.030850065537
  21
33.030294259874
  31
0
  0
LINE
  8
0
  10
118.54946076294
  20
34.15034076294
  30
0
  11
117.320166689164
  21
34.039447550032
  31
0
  0
LINE
  8
0
  10
118.194119074753
  20
34.654917408019
  30
0
  11
118.904802451127
  21
33.645764117861
  31
0
  0
LINE
  8
0
  10
103.208119074753
  20
24.101217408019
  30
0
  11
103.918802451127
  21
23.092064117861
  31
0
  0
TEXT
  8
0
  40
1.234285714286
  72
0
  10
106.897038772965
  20
26.447485041794
  30
0
  1
18.3292 mm
  50
395.154634791483
  0
LINE
  8
0
  10
47.68346076294
  20
23.59664076294
  30
0
  11
103.56346076294
  21
23.59664076294
  31
0
  0
LINE
  8
0
  10
103.56346076294
  20
23.59664076294
  30
0
  11
102.49453797884
  21
24.213783620083
  31
0
  0
LINE
  8
0
  10
103.56346076294
  20
23.59664076294
  30
0
  11
102.49453797884
  21
22.979497905797
  31
0
  0
LINE
  8
0
  10
47.68346076294
  20
23.59664076294
  30
0
  11
48.75238354704
  21
24.213783620083
  31
0
  0
LINE
  8
0
  10
47.68346076294
  20
23.59664076294
  30
0
  11
48.75238354704
  21
22.979497905797
  31
0
  0
LINE
  8
0
  10
47.68346076294
  20
22.979497905797
  30
0
  11
47.68346076294
  21
24.213783620083
  31
0
  0
LINE
  8
0
  10
103.56346076294
  20
22.979497905797
  30
0
  11
103.56346076294
  21
24.213783620083
  31
0
  0
TEXT
  8
0
  40
1.234285714286
  72
0
  10
71.689202169189
  20
24.008069334368
  30
0
  1
55.88 mm
  50
0
  0
LINE
  8
0
  10
47.68092076294
  20
103.12150076294
  30
0
  11
102.29092076294
  21
103.12150076294
  31
0
  0
LINE
  8
0
  10
102.29092076294
  20
103.12150076294
  30
0
  11
101.22199797884
  21
103.738643620083
  31
0
  0
LINE
  8
0
  10
102.29092076294
  20
103.12150076294
  30
0
  11
101.22199797884
  21
102.504357905797
  31
0
  0
LINE
  8
0
  10
47.68092076294
  20
103.12150076294
  30
0
  11
48.74984354704
  21
103.738643620083
  31
0
  0
LINE
  8
0
  10
47.68092076294
  20
103.12150076294
  30
0
  11
48.74984354704
  21
102.504357905797
  31
0
  0
LINE
  8
0
  10
47.68092076294
  20
102.504357905797
  30
0
  11
47.68092076294
  21
103.738643620083
  31
0
  0
LINE
  8
0
  10
102.29092076294
  20
102.504357905797
  30
0
  11
102.29092076294
  21
103.738643620083
  31
0
  0
TEXT
  8
0
  40
1.234285714286
  72
0
  10
71.12891124843
  20
103.532929334368
  30
0
  1
54.61 mm
  50
0
  0
LINE
  8
0
  10
118.54946076294
  20
34.15034076294
  30
0
  11
121.6
  21
34.15034076294
  31
0
  0
LINE
  8
0
  10
121.6
  20
34.15034076294
  30
0
  11
120.5310772159
  21
34.767483620083
  31
0
  0
LINE
  8
0
  10
121.6
  20
34.15034076294
  30
0
  11
120.5310772159
  21
33.533197905797
  31
0
  0
LINE
  8
0
  10
118.54946076294
  20
34.15034076294
  30
0
  11
119.61838354704
  21
34.767483620083
  31
0
  0
LINE
  8
0
  10
118.54946076294
  20
34.15034076294
  30
0
  11
119.61838354704
  21
33.533197905797
  31
0
  0
LINE
  8
0
  10
118.54946076294
  20
33.533197905797
  30
0
  11
118.54946076294
  21
34.767483620083
  31
0
  0
LINE
  8
0
  10
121.6
  20
33.533197905797
  30
0
  11
121.6
  21
34.767483620083
  31
0
  0
TEXT
  8
0
  40
1.234285714286
  72
0
  10
115.672389421648
  20
34.561769334368
  30
0
  1
3.0505 mm
  50
0
  0
LINE
  8
0
  10
0
  20
10
  30
0
  11
0
  21
0
  31
0
  0
LINE
  8
0
  10
0
  20
10
  30
0
  11
10
  21
10
  31
0
  0
LINE
  8
0
  10
10
  20
0
  30
0
  11
10
  21
10
  31
0
  0
LINE
  8
0
  10
0
  20
0
  30
0
  11
10
  21
0
  31
0
  0
TEXT
  8
0
  40
1
  72
0
  10
0.5
  20
8
  30
0
  1
1 cm x 1 cm
  50
0
  0
TEXT
  8
0
  40
1
  72
0
  10
3
  20
5
  30
0
  1
scaling
  50
0
  0
TEXT
  8
0
  40
1
  72
0
  10
1.5
  20
2
  30
0
  1
reference
  50
0
  0
ENDSEC
  0
EOF
